<svg xmlns="http://www.w3.org/2000/svg" xmlns:xlink="http://www.w3.org/1999/xlink" width="609" height="527" viewBox="0 0 609 527">
  <defs>
    <clipPath id="clip-path">
      <rect id="Rectángulo_409648" data-name="Rectángulo 409648" width="609" height="527" transform="translate(-1705 -620)" fill="#fff" stroke="#707070" stroke-width="1" opacity="0.57"/>
    </clipPath>
    <filter id="Trazado_989622" x="32.867" y="6.206" width="554.133" height="513.883" filterUnits="userSpaceOnUse">
      <feOffset dy="3" input="SourceAlpha"/>
      <feGaussianBlur stdDeviation="3" result="blur"/>
      <feFlood flood-opacity="0.161"/>
      <feComposite operator="in" in2="blur"/>
      <feComposite in="SourceGraphic"/>
    </filter>
  </defs>
  <g id="_1" data-name="1" transform="translate(1705 620)" clip-path="url(#clip-path)">
    <g id="_x31_5" transform="translate(-2204.013 -738.458)">
      <g transform="matrix(1, 0, 0, 1, 499.01, 118.46)" filter="url(#Trazado_989622)">
        <path id="Trazado_989622-2" data-name="Trazado 989622" d="M1039.476,360.041c3.743,25.79,13.5,41.88,16.728,49.488,18.5,43.587-37.826,137.412-110.318,179.883-140.593,82.38-363.4-15.836-374.645-102.006-1.933-14.785,4.147-15.611,6.445-41.335,7.815-87.277-58.109-121.867-53.869-181.29,5.357-75.222,118.161-120.31,129.288-124.606,83.131-32.132,172.743-10.836,226.735,29.045,18.969,14.007,12.158,14.523,43.1,40.285,67.754,56.421,111.3,63.035,117.814,99.548C1043.82,326.258,1035.292,331.259,1039.476,360.041Z" transform="translate(-481.75 -112.35)" fill="#ac59f1"/>
      </g>
      <g id="Grupo_1153399" data-name="Grupo 1153399" transform="translate(948.81 206.341)">
        <path id="Trazado_989623" data-name="Trazado 989623" d="M571.306,343.608a37.025,37.025,0,0,1-4.194-.188l2.749-23.717c.46.037.966.009,1.436.028a81.615,81.615,0,0,0,0-163.23,12.6,12.6,0,0,0-1.455.028L567.1,132.813a36.817,36.817,0,0,1,4.194-.188,105.491,105.491,0,0,1,.009,210.983Z" transform="translate(-567.103 -132.625)" fill="#e23e64"/>
      </g>
      <g id="Grupo_1153401" data-name="Grupo 1153401" transform="translate(939.412 188.047)">
        <g id="Grupo_1153400" data-name="Grupo 1153400">
          <path id="Trazado_989624" data-name="Trazado 989624" d="M571,343.055a40.466,40.466,0,0,1-4.269-.188.689.689,0,0,1-.469-.253.672.672,0,0,1-.15-.525l2.749-23.717a.767.767,0,0,1,.751-.619,6.064,6.064,0,0,0,.9.028h.5A80.912,80.912,0,0,0,571,155.958c-.657,0-1.031-.009-1.37.019a.6.6,0,0,1-.526-.15.652.652,0,0,1-.253-.469l-2.74-23.707a.705.705,0,0,1,.619-.779,35.139,35.139,0,0,1,4.269-.2,106.19,106.19,0,1,1,0,212.38Zm-3.405-1.529c1.182.1,2.42.113,3.405.113a104.788,104.788,0,0,0,0-209.575c-.995,0-2.232.01-3.405.112l2.58,22.356a1.415,1.415,0,0,1,.488,0,82.319,82.319,0,1,1,.347,164.637l-.488-.009C570.18,319.17,567.591,341.526,567.591,341.526Z" transform="translate(-566.101 -130.675)"/>
        </g>
      </g>
      <g id="Grupo_1153402" data-name="Grupo 1153402" transform="translate(521.562 322.635)">
        <path id="Trazado_989625" data-name="Trazado 989625" d="M607.891,232.054a86.427,86.427,0,0,1-86.329-86.329.708.708,0,0,1,.7-.7H693.508a.709.709,0,0,1,.7.7A86.425,86.425,0,0,1,607.891,232.054Zm-84.922-85.626a84.921,84.921,0,0,0,169.835,0Z" transform="translate(-521.562 -145.021)"/>
      </g>
      <path id="Trazado_989626" data-name="Trazado 989626" d="M589.155,167.657,534.516,199.2V136.107Z" transform="translate(108.576 102.9)"/>
      <path id="Trazado_989627" data-name="Trazado 989627" d="M656.415,199.516l-130.78,75.512V124.013Z" transform="translate(34.147 1.534)" fill="#e23e64"/>
      <g id="Grupo_1153451" data-name="Grupo 1153451" transform="translate(530.878 170.651)">
        <path id="Trazado_991091" data-name="Trazado 991091" d="M69.217,0c38.228,0,69.217,33.493,69.217,74.809s-30.99,74.809-69.217,74.809S0,116.125,0,74.809,30.99,0,69.217,0Z" transform="translate(238.771 30.398)" fill="#a3f0f3"/>
        <path id="Trazado_989628" data-name="Trazado 989628" d="M528.9,350.261q24.528,6.206,49.047,12.4A588.384,588.384,0,0,0,646.1,260.038c8.771-16.812,16.24-33.126,22.609-48.672,9.635-29.149-2.327-53.362-15-56.421-11.249-2.711-28.821,9.832-37.414,32.076Q572.586,268.627,528.9,350.261Z" transform="translate(-469.407 87.083)" fill="#ff7866"/>
        <path id="Trazado_989629" data-name="Trazado 989629" d="M776.393,205.913q-12.763,40.472-27.91,82.886-15.325,42.513-31.316,81.958H558.786c-.338-2.468-.684-5.019-1.022-7.655-2.805-21.953-4.6-46.214-6.549-69.274-1.7-20.761-3.574-40.594-6.3-56.852-.938-5.019-1.876-9.785-2.983-14.044a104.618,104.618,0,0,1-1.614-10.808c-1.445-13.191-.6-27.995,7.4-39.234,16.258-10.807,37.442-5.957,53.447-18.557a5.062,5.062,0,0,1,.769-.676,189.086,189.086,0,0,1,37.958-.338c44.337,3.406,44.084,17.872,74.715,14.044,17.956-2.3,28.51-3.828,40.257,2.974,3.828,2.214,16,8.847,21.362,34.806A2.867,2.867,0,0,1,776.393,205.913Z" transform="translate(-378.473 69.805)" fill="#ff7866"/>
        <circle id="Elipse_11689" data-name="Elipse 11689" cx="34.552" cy="34.552" r="34.552" transform="translate(154.205 298.552)" fill="#ff7866"/>
        <g id="Grupo_1153404" data-name="Grupo 1153404" transform="translate(153.502 310.1)">
          <g id="Grupo_1153403" data-name="Grupo 1153403">
            <path id="Trazado_989630" data-name="Trazado 989630" d="M574.173,220.145a35.271,35.271,0,0,1-26.934-58.025.732.732,0,0,1,1-.084.719.719,0,0,1,.084.995,33.844,33.844,0,1,0,53.015,42.03.723.723,0,0,1,.985-.15.714.714,0,0,1,.15.985A34.936,34.936,0,0,1,574.173,220.145Z" transform="translate(-538.917 -161.875)"/>
          </g>
        </g>
        <circle id="Elipse_11690" data-name="Elipse 11690" cx="34.552" cy="34.552" r="34.552" transform="translate(261.625 298.552)" fill="#ff7866"/>
        <g id="Grupo_1153406" data-name="Grupo 1153406" transform="translate(261.562 339.086)">
          <g id="Grupo_1153405" data-name="Grupo 1153405">
            <path id="Trazado_989631" data-name="Trazado 989631" d="M585.05,194.248a35.313,35.313,0,0,1-34.6-28.445.7.7,0,0,1,.553-.826.715.715,0,0,1,.826.554,33.859,33.859,0,0,0,62.716,10.076.708.708,0,1,1,1.229.7A35.4,35.4,0,0,1,585.05,194.248Z" transform="translate(-550.435 -164.965)"/>
          </g>
        </g>
        <path id="Trazado_989632" data-name="Trazado 989632" d="M538.641,274.66c3.631-.113,7.261-.216,10.892-.328q117.982-3.518,235.965-7.046c.891-21.484-5.216-31.241-11.023-36.166-16.136-13.716-42.217-.619-65.868-18.7a52.7,52.7,0,0,1-10.319-10.517q-3.223-27.638-6.445-55.286l-54.226-1.52a78.253,78.253,0,0,1-2.814,35.369c-2.149,6.7-8.359,22.825-23.576,35.359-.253.216-.488.4-.826.676-16,12.628-37.16,7.758-53.39,18.566a35.439,35.439,0,0,0-7.13,6.248C540.442,252.022,538.81,265.86,538.641,274.66Z" transform="translate(-387.729 7.625)" fill="#ff7866"/>
        <path id="Trazado_989633" data-name="Trazado 989633" d="M564.3,156.514c-2.083,3.424-5.432,5.057-8.641,4.194-4.541-1.22-6.276-6.736-6.4-7.139Z" transform="translate(-298.758 78.6)"/>
        <path id="Trazado_989634" data-name="Trazado 989634" d="M592.482,155.926a28.645,28.645,0,0,1-4.278,2.514c-6.21,2.927-11.427,2.355-15.057,1.886a297.7,297.7,0,0,1-29.43-5.46q14.157.732,28.323,1.473Z" transform="translate(-345.184 89.48)"/>
        <path id="Trazado_989635" data-name="Trazado 989635" d="M550.859,155.926a51.412,51.412,0,0,0,6.511,2.514c9.438,2.927,17.365,2.355,22.872,1.886,20-1.689,38.474-4.484,44.7-5.46q-21.517.732-43.024,1.473Z" transform="translate(-285.322 89.48)"/>
        <g id="Grupo_1153420" data-name="Grupo 1153420" transform="translate(202.804 15.721)">
          <path id="Trazado_989636" data-name="Trazado 989636" d="M545.221,227.188c-2.43,10.892-.244,19.626,2.57,30.8.5,2,6.632,25.7,17.862,32.667a38.868,38.868,0,0,0,8.284,3.753,35.721,35.721,0,0,0,8.819,1.407c3.556.15,31.757-.507,55.633-16.934,29.59-20.377,61.712-71.225,41.166-110.637-12.675-24.3-39.553-33.061-50.379-35.885-1.192-.253-2.551-.525-4.072-.769a95.066,95.066,0,0,0-11.427-1.079c-20.2-.4-33.014,8.143-33.014,8.143-12.365,8.256-18.087,22.4-21.118,34.074-.591,2.252-1.07,4.419-1.483,6.426-.479,2.28-.845,4.362-1.173,6.164-.966,5.366-1.1,8.978-3.058,16.7C550.362,215.733,547.134,218.585,545.221,227.188Z" transform="translate(-544.172 -130.497)" fill="#ff7866"/>
          <g id="Grupo_1153413" data-name="Grupo 1153413" transform="translate(111.982 86.554)">
            <path id="Trazado_989637" data-name="Trazado 989637" d="M584.613,162.434c-2.645,10.367-10.986,17.178-18.641,15.226s-11.7-11.933-9.053-22.3,10.986-17.187,18.641-15.226S587.259,152.068,584.613,162.434Z" transform="translate(-556.108 -139.088)" fill="#ff7866"/>
            <g id="Grupo_1153410" data-name="Grupo 1153410" transform="translate(3.481)">
              <g id="Grupo_1153407" data-name="Grupo 1153407" transform="translate(0 32.534)">
                <path id="Trazado_989638" data-name="Trazado 989638" d="M565.526,150.261a11.61,11.61,0,0,1-2.833-.356,12.174,12.174,0,0,1-6.033-3.743.7.7,0,1,1,1.041-.929,10.6,10.6,0,0,0,5.329,3.33c4.344,1.07,9.166-.8,12.881-5.122a.693.693,0,0,1,.994-.075.709.709,0,0,1,.075.994C573.7,148.179,569.57,150.261,565.526,150.261Z" transform="translate(-556.479 -143.19)"/>
              </g>
              <g id="Grupo_1153408" data-name="Grupo 1153408" transform="translate(20.892 24.13)">
                <path id="Trazado_989639" data-name="Trazado 989639" d="M559.4,150c-.713-.338-.8-.779-.591-1.1a24.164,24.164,0,0,0,2.936-6.107.7.7,0,0,1,1.342.422,25.787,25.787,0,0,1-3.1,6.473A.7.7,0,0,1,559.4,150Z" transform="translate(-558.706 -142.294)"/>
              </g>
              <g id="Grupo_1153409" data-name="Grupo 1153409" transform="translate(10.335)">
                <path id="Trazado_989640" data-name="Trazado 989640" d="M572.711,161.727a.728.728,0,0,1-.694-.826c1.623-9.372-2.233-17.741-8.969-19.457a10.506,10.506,0,0,0-4.625-.094.685.685,0,0,1-.826-.554.7.7,0,0,1,.553-.826,11.531,11.531,0,0,1,5.254.112c7.449,1.9,11.755,10.948,10.01,21.052A.722.722,0,0,1,572.711,161.727Z" transform="translate(-557.581 -139.722)"/>
              </g>
            </g>
            <g id="Grupo_1153411" data-name="Grupo 1153411" transform="translate(8.802 11.927)">
              <path id="Trazado_989641" data-name="Trazado 989641" d="M557.734,157.817c-.732-.366-.8-.807-.572-1.116l11.323-15.414a.7.7,0,0,1,1.135.816L558.3,157.516A.666.666,0,0,1,557.734,157.817Z" transform="translate(-557.047 -140.994)"/>
            </g>
            <g id="Grupo_1153412" data-name="Grupo 1153412" transform="translate(12.897 11.862)">
              <path id="Trazado_989642" data-name="Trazado 989642" d="M560.116,148.691a.692.692,0,0,1-.666-.5l-1.932-6.276a.7.7,0,0,1,.459-.882.656.656,0,0,1,.882.46l1.932,6.276a.7.7,0,0,1-.46.882A.649.649,0,0,1,560.116,148.691Z" transform="translate(-557.483 -140.987)"/>
            </g>
          </g>
          <path id="Trazado_989643" data-name="Trazado 989643" d="M551.434,143.917c-.741,3.743,2.224,7.571,6.624,8.556s8.556-1.266,9.3-5.01-2.223-7.571-6.623-8.556S552.175,140.164,551.434,143.917Z" transform="translate(-484.254 -61.945)"/>
          <g id="Grupo_1153414" data-name="Grupo 1153414" transform="translate(62.376 75.337)">
            <path id="Trazado_989644" data-name="Trazado 989644" d="M583.713,153.38a.694.694,0,0,1-.544-.263c-7.364-9.26-16.84-13.781-23.67-11.324a11.911,11.911,0,0,0-4.522,3.1.615.615,0,0,1-.591.206.748.748,0,0,1-.534-.347l-2.937-5.16a.7.7,0,0,1,.263-.957.687.687,0,0,1,.967.263l2.476,4.353a13.159,13.159,0,0,1,4.4-2.777c7.477-2.74,17.384,1.886,25.246,11.764a.7.7,0,0,1-.113.985A.656.656,0,0,1,583.713,153.38Z" transform="translate(-550.821 -138.527)"/>
          </g>
          <path id="Trazado_989645" data-name="Trazado 989645" d="M545.5,142.524c-.741,3.743,2.224,7.571,6.624,8.556s8.556-1.266,9.3-5.01-2.223-7.571-6.623-8.556S546.238,138.781,545.5,142.524Z" transform="translate(-534.016 -73.593)"/>
          <g id="Grupo_1153415" data-name="Grupo 1153415" transform="translate(6.691 62.324)">
            <path id="Trazado_989646" data-name="Trazado 989646" d="M577.764,151.975a.693.693,0,0,1-.544-.263c-7.374-9.26-16.887-13.772-23.66-11.314a11.874,11.874,0,0,0-4.531,3.086.668.668,0,0,1-.591.216.75.75,0,0,1-.535-.347l-2.927-5.15a.716.716,0,0,1,.263-.966.69.69,0,0,1,.957.263l2.467,4.344a13,13,0,0,1,4.419-2.768c7.421-2.739,17.356,1.876,25.227,11.755a.71.71,0,0,1-.545,1.144Z" transform="translate(-544.885 -137.14)"/>
          </g>
          <g id="Grupo_1153416" data-name="Grupo 1153416" transform="translate(69.277 46.688)">
            <path id="Trazado_989647" data-name="Trazado 989647" d="M591.385,153.592a87.308,87.308,0,0,0-20.668-7.13,86.37,86.37,0,0,0-18.979-1.82,15.494,15.494,0,0,1,1.239-3.284,16.748,16.748,0,0,1,5.009-5.788c5.948,1.313,10.826,2.711,14.372,3.809,8.613,2.683,10.836,4.119,12.224,5.188A21.6,21.6,0,0,1,591.385,153.592Z" transform="translate(-550.036 -134.66)"/>
            <path id="Trazado_989648" data-name="Trazado 989648" d="M556.214,135.473a18.25,18.25,0,0,0-2.664,3.612c-1.586,2.824-2.233,5.817-1.914,5.948.357.141,2.177-3.227,2.711-4.231a20.378,20.378,0,0,1,2.786-4.381c.347-.394.647-.7.854-.91Z" transform="translate(-551.557 -135.473)"/>
          </g>
          <g id="Grupo_1153417" data-name="Grupo 1153417" transform="translate(9.745 48.07)">
            <path id="Trazado_989649" data-name="Trazado 989649" d="M545.211,135.7c-.009,2.327.066,4.541.169,6.6q3.363.155,7.065.647a85.79,85.79,0,0,1,18.51,4.6,14.977,14.977,0,0,0-.084-3.509,16.787,16.787,0,0,0-2.8-7.121c-6.042-.741-11.108-1.051-14.823-1.182C549.667,135.579,547.1,135.6,545.211,135.7Z" transform="translate(-545.211 -135.62)"/>
            <path id="Trazado_989650" data-name="Trazado 989650" d="M549.52,136.285a18.482,18.482,0,0,1,1.313,4.287c.554,3.19.169,6.229-.178,6.248-.385.009-.976-3.771-1.145-4.888a20.152,20.152,0,0,0-1.173-5.066c-.2-.488-.375-.882-.507-1.145Z" transform="translate(-523.25 -134.768)"/>
          </g>
          <path id="Trazado_989651" data-name="Trazado 989651" d="M559.023,144.685a12.7,12.7,0,0,0-5.648-2.974,12.51,12.51,0,0,0-6.379-.094,13.7,13.7,0,0,0,12.027,3.068Z" transform="translate(-520.504 -40.432)"/>
          <g id="Grupo_1153418" data-name="Grupo 1153418" transform="translate(22.682 132.325)">
            <path id="Trazado_989652" data-name="Trazado 989652" d="M558.73,148.689a26.429,26.429,0,0,1-7.477-1.07,26.724,26.724,0,0,1-4.269-1.689.7.7,0,0,1-.319-.947.727.727,0,0,1,.938-.319,24.854,24.854,0,0,0,4.053,1.595,25.311,25.311,0,0,0,9.888.873.662.662,0,0,1,.769.619.691.691,0,0,1-.619.769A26.416,26.416,0,0,1,558.73,148.689Z" transform="translate(-546.59 -144.601)"/>
          </g>
          <path id="Trazado_989653" data-name="Trazado 989653" d="M570.3,148.625c3.3,2.5,4.982,3.771,5.329,5.9.92,5.629-7.9,14.588-16.859,13.209-8.5-1.3-14.644-11.549-12.027-18.369,1.849-4.822,7.486-6.379,7.843-6.473C560.659,141.317,565.988,145.351,570.3,148.625Z" transform="translate(-527.704 -29.549)" fill="#e8493d"/>
          <g id="Grupo_1153419" data-name="Grupo 1153419" transform="translate(14.321 116.322)">
            <path id="Trazado_989654" data-name="Trazado 989654" d="M573.048,153.53a43.223,43.223,0,0,1-8.941-.919,44.127,44.127,0,0,1-18.144-8.472.7.7,0,0,1-.113-.985.725.725,0,0,1,.995-.112,42.332,42.332,0,0,0,34.561,8.265.708.708,0,0,1,.826.554.7.7,0,0,1-.554.826A44.213,44.213,0,0,1,573.048,153.53Z" transform="translate(-545.698 -142.895)"/>
          </g>
        </g>
        <path id="Trazado_989655" data-name="Trazado 989655" d="M734.246,396.97H563.961q-6.037-46.552-12.065-93.1a35.878,35.878,0,0,1-11.239-15.461c-5.17-14.288-.1-31.475,12.552-44.459a186.944,186.944,0,0,0,16.258-16.324,191.778,191.778,0,0,0,34.937-58.081q6.093-5.066,12.187-10.141a61.559,61.559,0,0,0,21.624,9.194c30.7,6.408,55.764-13.922,59.967-17.44l17.469,14.4c-4.4,14.56-17.947,65.924,8.753,115.469a134.738,134.738,0,0,0,27.413,35.134Q743.023,356.573,734.246,396.97Z" transform="translate(-387.616 58.367)"/>
        <path id="Trazado_989656" data-name="Trazado 989656" d="M580.543,150.519q-9.6.675-19.213,1.36c-10,44.253-16.737,102.616-6.6,168.972,2.561,16.756-4.278,51.908,17.393,73.167a53.531,53.531,0,0,0,11.033,8.275q17.168.1,34.346.206a21.968,21.968,0,0,0,2.12-1.614,23.407,23.407,0,0,0,6.229-8.65,630.639,630.639,0,0,0-12.675-70c-14.053-58.353-29.561-88.834-32.685-144.467A235.64,235.64,0,0,1,580.543,150.519Z" transform="translate(-295.014 53.045)" fill="#ff7866"/>
        <path id="Trazado_989657" data-name="Trazado 989657" d="M552.1,361.876q25.049,3.476,50.107,6.961a587.384,587.384,0,0,0,56.505-109.474c6.876-17.675,12.515-34.7,17.149-50.858,6.389-30.03-8.153-52.79-21.09-54.441-11.474-1.464-27.573,12.928-33.68,35.978Q586.589,275.955,552.1,361.876Z" transform="translate(-274.904 81.903)" fill="#ff7866"/>
        <g id="Grupo_1153422" data-name="Grupo 1153422" transform="translate(188.891 302.298)">
          <g id="Grupo_1153421" data-name="Grupo 1153421" transform="translate(0 0)">
            <rect id="Rectángulo_409545" data-name="Rectángulo 409545" width="2.749" height="6.314" transform="translate(56.294 141.634) rotate(-20.236)" fill="#fedd4d"/>
            <rect id="Rectángulo_409546" data-name="Rectángulo 409546" width="17.215" height="133.5" transform="translate(0 9.152) rotate(-20.236)" fill="#fd884d"/>
            <rect id="Rectángulo_409547" data-name="Rectángulo 409547" width="13.528" height="4.212" transform="matrix(0.938, -0.346, 0.346, 0.938, 0.097, 4.678)" fill="#f17cf3"/>
            <rect id="Rectángulo_409548" data-name="Rectángulo 409548" width="17.215" height="88.712" transform="translate(0.005 9.147) rotate(-20.236)" fill="#fff"/>
            <path id="Trazado_989658" data-name="Trazado 989658" d="M561.346,183.234l-8.162,3.011q-2.729-3.166-5.469-6.323l13.931-5.132C561.544,177.605,561.449,180.42,561.346,183.234Z" transform="translate(-500.565 -45.816)" fill="#fedd4d"/>
            <rect id="Rectángulo_409549" data-name="Rectángulo 409549" width="5.648" height="3.002" transform="matrix(0.938, -0.346, 0.346, 0.938, 53.966, 139.889)" fill="#fedd4d"/>
          </g>
          <path id="Trazado_989659" data-name="Trazado 989659" d="M555.972,166.712a6.5,6.5,0,1,1-8.35-3.846A6.506,6.506,0,0,1,555.972,166.712Z" transform="translate(-536.948 -149.171)" fill="#fedd4d"/>
        </g>
        <path id="Trazado_989660" data-name="Trazado 989660" d="M705.132,231.273l29.2,1.21q6.445-.9,12.891-1.811-1.914-13.889-3.828-27.788-18.322-9.358-36.644-18.726-18.28,9.485-36.542,18.97c-17.638-3.528-36.635-8.059-56.693-13.9-19.645-5.732-37.761-11.98-54.244-18.35-9.307,9.325-21.662,24.664-28.1,46.411a103.017,103.017,0,0,0-3.162,14.4c22.487.338,40.7.188,52.7,0,32.461-.5,82.783-2.186,110.337-1.013C692.43,230.729,697.88,230.973,705.132,231.273Z" transform="translate(-476.85 223.66)" fill="#ff7866"/>
        <g id="Grupo_1153435" data-name="Grupo 1153435" transform="translate(381.056 281.91)">
          <g id="Grupo_1153424" data-name="Grupo 1153424" transform="translate(22.51 6.191)">
            <g id="Grupo_1153423" data-name="Grupo 1153423" transform="translate(0 0)">
              <rect id="Rectángulo_409550" data-name="Rectángulo 409550" width="2.374" height="5.46" transform="matrix(0.999, -0.03, 0.03, 0.999, 9.944, 127.692)" fill="#fedd4d"/>
              <rect id="Rectángulo_409551" data-name="Rectángulo 409551" width="14.879" height="115.375" transform="matrix(0.999, -0.03, 0.03, 0.999, 0, 4.29)" fill="#f17cf3"/>
              <rect id="Rectángulo_409552" data-name="Rectángulo 409552" width="11.689" height="3.64" transform="matrix(0.999, -0.03, 0.03, 0.999, 1.547, 0.352)" fill="#fff"/>
              <rect id="Rectángulo_409553" data-name="Rectángulo 409553" width="14.879" height="76.666" transform="matrix(0.999, -0.03, 0.03, 0.999, 0.001, 4.291)" fill="#fff"/>
              <path id="Trazado_989661" data-name="Trazado 989661" d="M576.347,179.059l-7.515.225c-.91-2.224-1.829-4.456-2.749-6.68l12.825-.385Q577.628,175.64,576.347,179.059Z" transform="translate(-561.287 -53.167)" fill="#fedd4d"/>
              <rect id="Rectángulo_409554" data-name="Rectángulo 409554" width="4.878" height="2.599" transform="translate(8.559 126.018) rotate(-1.719)" fill="#fedd4d"/>
            </g>
            <path id="Trazado_989662" data-name="Trazado 989662" d="M577.078,166.128a5.622,5.622,0,1,1-5.788-5.451A5.62,5.62,0,0,1,577.078,166.128Z" transform="translate(-563.352 -149.934)" fill="#fedd4d"/>
          </g>
          <g id="Grupo_1153426" data-name="Grupo 1153426" transform="translate(35.713 0)">
            <g id="Grupo_1153425" data-name="Grupo 1153425" transform="translate(0 0)">
              <rect id="Rectángulo_409555" data-name="Rectángulo 409555" width="2.374" height="5.46" transform="translate(5.573 128.087) rotate(5.083)" fill="#fedd4d"/>
              <rect id="Rectángulo_409556" data-name="Rectángulo 409556" width="14.879" height="115.375" transform="translate(10.245 3.433) rotate(5.095)" fill="#f17cf3"/>
              <rect id="Rectángulo_409557" data-name="Rectángulo 409557" width="11.689" height="3.64" transform="translate(12.129 0) rotate(5.095)" fill="#fd884d"/>
              <rect id="Rectángulo_409558" data-name="Rectángulo 409558" width="14.879" height="76.666" transform="translate(10.232 3.461) rotate(5.095)" fill="#fd884d"/>
              <path id="Trazado_989663" data-name="Trazado 989663" d="M576.524,179.156c-2.5-.225-4.991-.441-7.486-.666-.647-2.317-1.286-4.644-1.933-6.961l12.778,1.144Q578.208,175.91,576.524,179.156Z" transform="translate(-565.923 -52.768)" fill="#fedd4d"/>
              <rect id="Rectángulo_409559" data-name="Rectángulo 409559" width="4.878" height="2.599" transform="translate(4.116 125.916) rotate(5.101)" fill="#fedd4d"/>
            </g>
            <path id="Trazado_989664" data-name="Trazado 989664" d="M579.369,166.184a5.614,5.614,0,1,1-5.095-6.1A5.609,5.609,0,0,1,579.369,166.184Z" transform="translate(-557.06 -148.875)" fill="#fedd4d"/>
          </g>
          <g id="Grupo_1153428" data-name="Grupo 1153428" transform="translate(0 12.577)">
            <g id="Grupo_1153427" data-name="Grupo 1153427" transform="translate(0 0)">
              <rect id="Rectángulo_409560" data-name="Rectángulo 409560" width="2.374" height="5.46" transform="matrix(0.932, -0.362, 0.362, 0.932, 50.204, 121.189)" fill="#fedd4d"/>
              <rect id="Rectángulo_409561" data-name="Rectángulo 409561" width="14.879" height="115.375" transform="translate(0.03 8.239) rotate(-21.192)" fill="#f17cf3"/>
              <rect id="Rectángulo_409562" data-name="Rectángulo 409562" width="11.689" height="3.64" transform="translate(0.19 4.226) rotate(-21.192)" fill="#fedd4d"/>
              <rect id="Rectángulo_409563" data-name="Rectángulo 409563" width="14.879" height="76.666" transform="translate(0 7.365) rotate(-21.192)" fill="#fedd4d"/>
              <path id="Trazado_989665" data-name="Trazado 989665" d="M579.525,179.292q-3.5,1.351-7.008,2.721c-1.6-1.792-3.208-3.593-4.813-5.385l11.962-4.635Q579.595,175.638,579.525,179.292Z" transform="translate(-525.181 -61.456)" fill="#fedd4d"/>
              <rect id="Rectángulo_409564" data-name="Rectángulo 409564" width="4.878" height="2.599" transform="translate(48.665 119.906) rotate(-21.192)" fill="#fedd4d"/>
            </g>
            <path id="Trazado_989666" data-name="Trazado 989666" d="M574.64,165a5.62,5.62,0,1,1-7.271-3.209A5.623,5.623,0,0,1,574.64,165Z" transform="translate(-558.104 -150.149)" fill="#fedd4d"/>
          </g>
          <g id="Grupo_1153430" data-name="Grupo 1153430" transform="translate(53.867 9.746)">
            <g id="Grupo_1153429" data-name="Grupo 1153429" transform="translate(0 0)">
              <rect id="Rectángulo_409565" data-name="Rectángulo 409565" width="2.374" height="5.46" transform="translate(5.666 127.861) rotate(5.083)" fill="#fedd4d"/>
              <rect id="Rectángulo_409566" data-name="Rectángulo 409566" width="14.879" height="115.375" transform="translate(10.245 3.433) rotate(5.095)" fill="#f17cf3"/>
              <rect id="Rectángulo_409567" data-name="Rectángulo 409567" width="11.689" height="3.64" transform="translate(12.129 0) rotate(5.095)" fill="#a3f0f3"/>
              <rect id="Rectángulo_409568" data-name="Rectángulo 409568" width="14.879" height="76.666" transform="translate(10.244 3.432) rotate(5.095)" fill="#a3f0f3"/>
              <path id="Trazado_989667" data-name="Trazado 989667" d="M578.459,180.2c-2.5-.225-4.991-.441-7.487-.666-.647-2.317-1.285-4.635-1.933-6.961l12.778,1.144Q580.143,176.949,578.459,180.2Z" transform="translate(-567.858 -53.806)" fill="#fedd4d"/>
              <rect id="Rectángulo_409569" data-name="Rectángulo 409569" width="4.878" height="2.599" transform="translate(4.119 125.915) rotate(5.101)" fill="#fedd4d"/>
            </g>
            <path id="Trazado_989668" data-name="Trazado 989668" d="M581.311,167.223a5.619,5.619,0,1,1-5.094-6.1A5.613,5.613,0,0,1,581.311,167.223Z" transform="translate(-559.003 -149.913)" fill="#fedd4d"/>
          </g>
          <g id="Grupo_1153432" data-name="Grupo 1153432" transform="translate(83.823 10.627)">
            <g id="Grupo_1153431" data-name="Grupo 1153431" transform="translate(0 0)">
              <rect id="Rectángulo_409570" data-name="Rectángulo 409570" width="2.374" height="5.46" transform="translate(4.122 126.264) rotate(11.73)" fill="#fedd4d"/>
              <rect id="Rectángulo_409571" data-name="Rectángulo 409571" width="14.879" height="115.375" transform="translate(23.456 3.383) rotate(11.73)" fill="#f17cf3"/>
              <path id="Trazado_991354" data-name="Trazado 991354" d="M0,0H11.689V3.64H0Z" transform="translate(25.696 0) rotate(11.725)" fill="#fd884d"/>
              <rect id="Rectángulo_409573" data-name="Rectángulo 409573" width="14.879" height="76.666" transform="translate(23.443 3.15) rotate(11.725)" fill="#fd884d"/>
              <path id="Trazado_989669" data-name="Trazado 989669" d="M580.7,181.092c-2.449-.506-4.907-1.022-7.355-1.529-.375-2.374-.741-4.756-1.117-7.139l12.562,2.608Q582.734,178.071,580.7,181.092Z" transform="translate(-571.103 -55.893)" fill="#fedd4d"/>
              <rect id="Rectángulo_409574" data-name="Rectángulo 409574" width="4.878" height="2.599" transform="translate(3.291 123.64) rotate(11.719)" fill="#fedd4d"/>
            </g>
            <path id="Trazado_989670" data-name="Trazado 989670" d="M585.649,167.982a5.619,5.619,0,1,1-4.363-6.642A5.618,5.618,0,0,1,585.649,167.982Z" transform="translate(-551.83 -149.779)" fill="#fedd4d"/>
          </g>
          <g id="Grupo_1153434" data-name="Grupo 1153434" transform="translate(82.001 0.262)">
            <g id="Grupo_1153433" data-name="Grupo 1153433">
              <rect id="Rectángulo_409575" data-name="Rectángulo 409575" width="2.374" height="5.46" transform="translate(6.098 127.721)" fill="#fedd4d"/>
              <rect id="Rectángulo_409576" data-name="Rectángulo 409576" width="14.879" height="115.375" transform="translate(0 3.64)" fill="#f17cf3"/>
              <rect id="Rectángulo_409577" data-name="Rectángulo 409577" width="11.689" height="3.64" transform="translate(1.585)" fill="#fff"/>
              <rect id="Rectángulo_409578" data-name="Rectángulo 409578" width="14.879" height="76.666" transform="translate(0 3.64)" fill="#fff"/>
              <path id="Trazado_989671" data-name="Trazado 989671" d="M582.079,178.348h-7.515c-.844-2.252-1.7-4.5-2.542-6.764h12.825C583.927,173.845,583,176.1,582.079,178.348Z" transform="translate(-571 -52.569)" fill="#fedd4d"/>
              <rect id="Rectángulo_409579" data-name="Rectángulo 409579" width="4.878" height="2.599" transform="translate(4.85 125.779)" fill="#fedd4d"/>
            </g>
            <path id="Trazado_989672" data-name="Trazado 989672" d="M583.345,165.634a5.62,5.62,0,1,1-5.62-5.62A5.617,5.617,0,0,1,583.345,165.634Z" transform="translate(-570.295 -149.544)" fill="#fedd4d"/>
          </g>
          <path id="Trazado_989673" data-name="Trazado 989673" d="M632.206,264.607H594.8a30.079,30.079,0,0,1-30.078-30.077V167.039h97.569V234.53A30.087,30.087,0,0,1,632.206,264.607Z" transform="translate(-550.167 -90.401)"/>
        </g>
        <g id="Grupo_1153436" data-name="Grupo 1153436" transform="translate(0 454.643)">
          <path id="Trazado_989674" data-name="Trazado 989674" d="M1023.766,196.308H523.259a.709.709,0,0,1-.7-.7V177.986a.709.709,0,0,1,.7-.7h500.508a.709.709,0,0,1,.7.7V195.6A.709.709,0,0,1,1023.766,196.308Zm-499.795-1.416h499.091V178.68H523.972Z" transform="translate(-522.555 -177.282)"/>
        </g>
        <g id="Grupo_1153437" data-name="Grupo 1153437" transform="translate(89.443 403.551)">
          <path id="Trazado_989675" data-name="Trazado 989675" d="M579.3,181.874a77.107,77.107,0,0,0-17.159-6.511,73.317,73.317,0,0,0-29.233-1.163.739.739,0,0,1-.807-.591.7.7,0,0,1,.591-.807,74.419,74.419,0,0,1,46.945,7.74.708.708,0,0,1-.337,1.332Z" transform="translate(-532.089 -171.836)"/>
        </g>
        <g id="Grupo_1153438" data-name="Grupo 1153438" transform="translate(313.506 350.854)">
          <path id="Trazado_989676" data-name="Trazado 989676" d="M559.348,216.129a.707.707,0,0,1-.7-.722c.216-8.659.056-17.375-.469-25.931-.45-7.505-1.192-15.048-2.2-22.441a.7.7,0,0,1,.6-.788c.347-.131.741.216.788.6,1,7.421,1.764,15,2.215,22.525.516,8.594.666,17.365.469,26.053A.7.7,0,0,1,559.348,216.129Z" transform="translate(-555.972 -166.219)"/>
        </g>
        <g id="Grupo_1153439" data-name="Grupo 1153439" transform="translate(326.943 277.356)">
          <path id="Trazado_989677" data-name="Trazado 989677" d="M558.1,199.845c-.647-.225-.807-.647-.638-1l18.744-40.069a.763.763,0,0,1,.948-.338.717.717,0,0,1,.338.947l-18.744,40.069A.741.741,0,0,1,558.1,199.845Z" transform="translate(-557.404 -158.385)"/>
        </g>
        <g id="Grupo_1153446" data-name="Grupo 1153446" transform="translate(231.226 137.21)">
          <g id="Grupo_1153444" data-name="Grupo 1153444" transform="translate(0.947 0.692)">
            <path id="Trazado_989678" data-name="Trazado 989678" d="M575.8,204.041c-.807-9.035-2.008-18.641-3.743-28.717q-1.492-8.711-3.293-16.755c-10.207-.112-15.714-3.631-18.247-5.685-.751-.61-3.7-3-3.143-4.334.5-1.2,3.453-.732,9.42-1.2,2.711-.216,4.907-.525,6.286-.751q8.6,3.223,17.206,6.436Z" transform="translate(-547.302 -117.73)" fill="#ff7866"/>
            <path id="Trazado_989679" data-name="Trazado 989679" d="M548.946,155.318a7.071,7.071,0,0,1,3.959-6.877,7.235,7.235,0,0,1,6.135.3,6.047,6.047,0,0,1,2.092-2.167,7.377,7.377,0,0,1,5.31-.525,59.176,59.176,0,0,1,11,3.443q6.164,2.1,12.337,4.194.169,26.132.347,52.255-14.016,2.449-28.023,4.888Q555.528,183.064,548.946,155.318Z" transform="translate(-533.614 -124.499)" fill="#ff7866"/>
            <path id="Trazado_989680" data-name="Trazado 989680" d="M574.711,222.954q5.46-22.741,10.92-45.473-2.617-8.528-5.234-17.056a87.653,87.653,0,0,1-23.933-16.906c-2.374,4.531-2.083,7.28-1.351,8.978,1.294,2.983,4.222,3.443,8.078,7.327a22.1,22.1,0,0,1,4.334,6.286,77.11,77.11,0,0,1-1.051,21.84c-4.541,23.388-18.651,35.988-15.1,40.388C552.936,230.262,558.021,230.778,574.711,222.954Z" transform="translate(-517.95 -143.52)" fill="#ff7866"/>
            <path id="Trazado_989681" data-name="Trazado 989681" d="M553.39,147.315c-.441.544-7.28,9-5.385,11.22,1.323,1.548,6.858.056,10.094-3.368a11.744,11.744,0,0,0,2.617-4.484Q557.057,149.008,553.39,147.315Z" transform="translate(-544.192 -111.712)" fill="#ff7866"/>
            <g id="Grupo_1153440" data-name="Grupo 1153440" transform="translate(15.796 28.166)">
              <path id="Trazado_989682" data-name="Trazado 989682" d="M566.058,155.32c-.291-.066-16.662-7.449-16.662-7.449a.712.712,0,0,1-.347-.938.7.7,0,0,1,.938-.347l16.371,7.383a.712.712,0,0,1,.347.938A.744.744,0,0,1,566.058,155.32Z" transform="translate(-548.987 -146.522)"/>
            </g>
            <g id="Grupo_1153441" data-name="Grupo 1153441" transform="translate(6.765 37.16)">
              <path id="Trazado_989683" data-name="Trazado 989683" d="M556.816,151.327c-.2-.028-8.284-2.467-8.284-2.467a.719.719,0,0,1-.479-.882.771.771,0,0,1,.882-.478l8.078,2.439a.718.718,0,0,1,.479.882A.731.731,0,0,1,556.816,151.327Z" transform="translate(-548.024 -147.481)"/>
            </g>
            <g id="Grupo_1153442" data-name="Grupo 1153442" transform="translate(25.772 23.486)">
              <path id="Trazado_989684" data-name="Trazado 989684" d="M568.805,155.8c-.291-.066-18.341-8.434-18.341-8.434a.705.705,0,0,1-.347-.938.728.728,0,0,1,.938-.347l18.05,8.378a.705.705,0,0,1,.347.938A.735.735,0,0,1,568.805,155.8Z" transform="translate(-550.05 -146.023)"/>
            </g>
            <g id="Grupo_1153443" data-name="Grupo 1153443" transform="translate(49.11 20.583)">
              <path id="Trazado_989685" data-name="Trazado 989685" d="M553.237,148.032a.7.7,0,0,1-.31-1.332l1.839-.91a.7.7,0,1,1,.629,1.257l-1.839.91A.791.791,0,0,1,553.237,148.032Z" transform="translate(-552.537 -145.714)"/>
            </g>
          </g>
          <g id="Grupo_1153445" data-name="Grupo 1153445">
            <path id="Trazado_989686" data-name="Trazado 989686" d="M576.389,231.161a.708.708,0,0,1-.685-.544l-10.751-45.351c-.291-.019-.488-.038-.676-.056a10.8,10.8,0,0,1-1.952,2.871,13.548,13.548,0,0,1-8.772,4.194,3.059,3.059,0,0,1-2.373-.863c-.46-.544-1.82-2.139,3.2-9.231a24.707,24.707,0,0,1-3.706-2.336c-2.767-2.223-3.865-3.912-3.349-5.15s2.073-1.285,5.188-1.388c1.313-.037,2.909-.094,4.832-.244,1.877-.15,3.678-.347,5.489-.619a7.535,7.535,0,0,1,4.081-4.991,7.657,7.657,0,0,1,6.164.038,6.747,6.747,0,0,1,1.988-1.876,8.03,8.03,0,0,1,5.808-.6,59.038,59.038,0,0,1,11.145,3.49c1.641.554,3.321,1.116,5.01,1.7-.056-1.182-.141-2.27-.216-3.255a21.73,21.73,0,0,0-4.147-5.985,29.36,29.36,0,0,0-4.325-3.518c-1.727-1.2-3.086-2.148-3.893-4.025-1.107-2.514-.638-5.742,1.37-9.588a.7.7,0,0,1,.516-.366.613.613,0,0,1,.6.2A86.389,86.389,0,0,0,600,154.345a85.219,85.219,0,0,0,10.676,6.079.649.649,0,0,1,.366.432l5.235,17.037c.019.375-10.892,45.857-10.892,45.857a.724.724,0,0,1-.45.5.811.811,0,0,1-1.023-.356c-.131-.328-.1-.647.188-.807l10.779-44.957L609.8,161.56a88.875,88.875,0,0,1-10.573-6.051,87.625,87.625,0,0,1-12.572-10.179c-1.445,3.058-1.745,5.582-.91,7.515.657,1.51,1.81,2.317,3.415,3.434a29.761,29.761,0,0,1,4.513,3.687,22.965,22.965,0,0,1,4.475,6.473c.2,1.651.291,3.162.357,4.719a.763.763,0,0,1-.282.6.833.833,0,0,1-.647.1q-3.026-1.027-6.042-2.054a59.674,59.674,0,0,0-10.911-3.424,6.785,6.785,0,0,0-4.813.441,5.44,5.44,0,0,0-1.848,1.923.7.7,0,0,1-.948.263,6.473,6.473,0,0,0-5.5-.272,6.172,6.172,0,0,0-3.4,4.475.7.7,0,0,1-.582.563c-2.007.31-3.987.554-6.06.713-1.942.15-3.565.2-4.888.244-1.848.066-3.762.122-3.931.516,0,.009-.319.9,2.936,3.518a23.5,23.5,0,0,0,4.184,2.542.756.756,0,0,1,.375.469.691.691,0,0,1-.122.572c-3.649,5-4.3,7.524-3.753,8.162a1.747,1.747,0,0,0,1.2.366,12.23,12.23,0,0,0,7.852-3.753,10.015,10.015,0,0,0,1.914-2.946.73.73,0,0,1,.75-.413c.3.056.647.075.995.1.216.019.432.028.638.056a.687.687,0,0,1,.61.535l10.873,45.848a.71.71,0,0,1-.526.854A1.328,1.328,0,0,0,576.389,231.161Z" transform="translate(-547.202 -143.446)"/>
          </g>
        </g>
        <path id="Trazado_989687" data-name="Trazado 989687" d="M641.142,157.9c.92-2.045-41.776-37.93-70.034-25.762-23.81,10.254-36.448,54.207-20.574,105.233a212.022,212.022,0,0,0,7.974-23.792c1.407-5.169,1.83-7.487,4.1-17.018,3.922-16.437,5.882-24.655,6.848-26.353,9.3-16.221,33.493-18.3,37.245-18.622C626.882,149.842,640.635,159.036,641.142,157.9Z" transform="translate(-347.217 -122.061)" fill="#a3f0f3"/>
        <path id="Trazado_989688" data-name="Trazado 989688" d="M556.805,133.381c-10.348,6.755,4.973,58.138,30.434,69.546,3.039,1.36,12.243,5.488,17.815,1.426,4.522-3.293,4.466-10.385,4.447-13.115C609.323,165.7,567.585,126.345,556.805,133.381Z" transform="translate(-262.88 -97.542)" fill="#a3f0f3"/>
        <path id="Trazado_989689" data-name="Trazado 989689" d="M633.221,222.129c-7.318.328-7.993-19.626-24.252-39.75-27.751-34.374-60.587-40.857-58.5-48.1,1.876-6.548,32.8-7.017,58.5,5.6,23.341,11.455,35.744,30.434,41.11,40.1C643.832,214.38,637.743,221.922,633.221,222.129Z" transform="translate(-289.405 -120.937)" fill="#a3f0f3"/>
        <path id="Trazado_989690" data-name="Trazado 989690" d="M623.553,173.466a32.226,32.226,0,1,1-32.226-32.226A32.227,32.227,0,0,1,623.553,173.466Z" transform="translate(-216.233 -24.728)" fill="#a3f0f3"/>
        <g id="Grupo_1153447" data-name="Grupo 1153447" transform="translate(370.598 112.516)">
          <path id="Trazado_989691" data-name="Trazado 989691" d="M563.047,143.59c5.628,1.679,11.258,3.349,16.821,5.235,5.019,1.7,10.3,3.349,14.917,5.995,9.269,5.31,13.623,17.928,13.576,28.06-.028,5.366-.751,10.714-4.757,14.635-3.734,3.659-9.091,5.967-14.016,7.449-5.234,1.586-10.01,1.651-13.809-2.674-2.655-3.012-4.466-6.642-7.205-9.607-1.229-1.332-3.218.657-1.989,1.989,4.747,5.141,7.486,13.331,15.423,14.176,4.4.469,9.034-1.191,13.012-2.871a32.785,32.785,0,0,0,10.921-6.839c5.985-6.145,6.069-16.418,4.6-24.355-1.492-8.012-6.38-17.459-13.426-21.859-4.644-2.9-10.169-4.644-15.311-6.408-5.948-2.045-11.99-3.846-18.013-5.638-1.736-.516-2.477,2.195-.741,2.711Z" transform="translate(-562.058 -140.814)" fill="#3c98e7"/>
        </g>
        <g id="Grupo_1153448" data-name="Grupo 1153448" transform="translate(343.544 148.083)">
          <path id="Trazado_989692" data-name="Trazado 989692" d="M559.212,145.963c-.2,10.179.2,21.587,5.329,30.687,1.97,3.49,5.254,6.867,9.56,6.745,4.738-.141,9.448-3.875,12.75-6.98,3.687-3.471,7.974-8.528,6.492-13.96a1.407,1.407,0,0,0-2.711.751c1.4,5.1-4.419,10.357-8.012,13.153-2.11,1.642-4.691,3.462-7.327,4.072-2.674.61-4.925-.732-6.614-2.7-3.359-3.922-4.766-9.644-5.648-14.607a89.007,89.007,0,0,1-1-17.159c.038-1.81-2.777-1.81-2.814,0Z" transform="translate(-559.174 -144.605)" fill="#3c98e7"/>
        </g>
        <g id="Grupo_1153449" data-name="Grupo 1153449" transform="translate(201.077)">
          <path id="Trazado_989693" data-name="Trazado 989693" d="M596.786,143.214c-5.779-.769-11.417-4.972-16.4-7.8-4.437-2.514-9.1-5.038-14.091-6.248-9.156-2.214-15.217,6.539-18.4,14-4.053,9.5-4.2,19.964-3.715,30.124.45,9.372-.479,21,5.357,28.98,1.06,1.445,3.5.047,2.429-1.417-5.413-7.4-4.494-18.153-4.934-26.878-.488-9.635-.535-19.551,3.011-28.68a29.937,29.937,0,0,1,7.5-11.389c4.682-4.2,10.563-1.586,15.536.807,7.646,3.668,15.114,10.179,23.7,11.314,1.8.235,1.782-2.58.009-2.814Z" transform="translate(-543.988 -128.821)" fill="#3c98e7"/>
        </g>
        <g id="Grupo_1153450" data-name="Grupo 1153450" transform="translate(288.203 35.346)">
          <path id="Trazado_989694" data-name="Trazado 989694" d="M564.373,133.326c-4.09,9.353-7.824,18.951-9.692,29.027-1.519,8.218-2.889,18.5,2.026,25.865,4.025,6.014,11.1,9.475,18.172,10.2,9.626.976,18.96-2.9,27.291-7.3,1.6-.844.178-3.274-1.417-2.43-7.646,4.034-16.146,7.646-24.992,6.989-6.914-.516-14.138-4.053-17.5-10.348-3.93-7.365-1.923-17.919-.16-25.64a140.871,140.871,0,0,1,8.706-24.946c.7-1.642-1.717-3.077-2.439-1.417Z" transform="translate(-553.275 -132.588)" fill="#3c98e7"/>
        </g>
      </g>
      <g id="Grupo_1153452" data-name="Grupo 1153452" transform="translate(625.921 316.113)">
        <path id="Trazado_989695" data-name="Trazado 989695" d="M532.688,147.846c.131,3.255.375,6.511.732,9.748a3.781,3.781,0,0,0,1.032,2.486,3.589,3.589,0,0,0,2.486,1.032,3.515,3.515,0,0,0,2.486-1.032,3.43,3.43,0,0,0,1.032-2.486c-.347-3.237-.591-6.492-.732-9.748a3.673,3.673,0,0,0-1.032-2.486,3.516,3.516,0,0,0-6,2.486Z" transform="translate(-532.686 -144.326)"/>
      </g>
      <g id="Grupo_1153453" data-name="Grupo 1153453" transform="translate(614.398 331.214)">
        <path id="Trazado_989696" data-name="Trazado 989696" d="M531.584,150.387a52.284,52.284,0,0,0,1.661,7.749,3.518,3.518,0,0,0,4.325,2.458,3.563,3.563,0,0,0,2.1-1.614,3.6,3.6,0,0,0,.357-2.711,51.8,51.8,0,0,1-1.661-7.749,3.493,3.493,0,0,0-1.614-2.1,3.6,3.6,0,0,0-2.711-.356,3.563,3.563,0,0,0-2.1,1.614c-.122.281-.234.563-.357.844a3.506,3.506,0,0,0,0,1.867Z" transform="translate(-531.457 -145.936)"/>
      </g>
      <g id="Grupo_1153454" data-name="Grupo 1153454" transform="translate(628.69 338.159)">
        <path id="Trazado_989697" data-name="Trazado 989697" d="M532.981,150.2a28.155,28.155,0,0,0,.92,6.548,3.518,3.518,0,0,0,4.325,2.458,3.563,3.563,0,0,0,2.1-1.614,3.737,3.737,0,0,0,.357-2.711,26.089,26.089,0,0,1-.591-2.946c.047.31.084.619.122.938a25.466,25.466,0,0,1-.206-2.674,3.63,3.63,0,0,0-1.032-2.486,3.588,3.588,0,0,0-2.486-1.032A3.516,3.516,0,0,0,534,147.71a3.6,3.6,0,0,0-1.023,2.486Z" transform="translate(-532.981 -146.676)"/>
      </g>
      <g id="Grupo_1153455" data-name="Grupo 1153455" transform="translate(647.819 342.216)">
        <path id="Trazado_989698" data-name="Trazado 989698" d="M535.48,152.4c.253.488.479.985.694,1.492-.122-.281-.235-.563-.357-.844a21.952,21.952,0,0,1,1.257,4.118,3.518,3.518,0,0,0,4.325,2.458,3.529,3.529,0,0,0,2.1-1.614c.122-.281.234-.563.356-.844a3.5,3.5,0,0,0,0-1.867,24.684,24.684,0,0,0-2.307-6.455,3.518,3.518,0,0,0-6.427.844,3.856,3.856,0,0,0,.357,2.711Z" transform="translate(-535.02 -147.108)"/>
      </g>
      <g id="Grupo_1153456" data-name="Grupo 1153456" transform="translate(649.533 429.316)">
        <path id="Trazado_989699" data-name="Trazado 989699" d="M545.386,170.922A111.261,111.261,0,0,0,542.139,159a3.518,3.518,0,0,0-6.783,1.867,111.277,111.277,0,0,1,3.246,11.924,3.54,3.54,0,0,0,4.325,2.458,3.592,3.592,0,0,0,2.459-4.325Z" transform="translate(-535.203 -156.392)"/>
      </g>
      <g id="Grupo_1153457" data-name="Grupo 1153457" transform="translate(656.46 408.922)">
        <path id="Trazado_989700" data-name="Trazado 989700" d="M547.959,170.979c-.272-.61-.544-1.22-.8-1.829.319.8-.075-.188-.141-.347-.122-.31-.253-.619-.375-.929-.479-1.191-.938-2.392-1.37-3.593q-1.337-3.687-2.421-7.458a3.518,3.518,0,0,0-6.783,1.867,125.008,125.008,0,0,0,5.816,15.836,3.522,3.522,0,0,0,4.813,1.257,3.612,3.612,0,0,0,1.257-4.8Z" transform="translate(-535.941 -154.219)"/>
      </g>
      <g id="Grupo_1153458" data-name="Grupo 1153458" transform="translate(662.762 394.209)">
        <path id="Trazado_989701" data-name="Trazado 989701" d="M537.075,157.93a28.31,28.31,0,0,1,1.623,3.246c-.122-.281-.235-.563-.357-.844a29.186,29.186,0,0,1,1.191,3.434,3.659,3.659,0,0,0,1.613,2.1,3.6,3.6,0,0,0,2.711.356,3.562,3.562,0,0,0,2.1-1.614,3.692,3.692,0,0,0,.357-2.711,31.719,31.719,0,0,0-3.172-7.515,3.626,3.626,0,0,0-2.1-1.614,3.518,3.518,0,0,0-4.325,2.458,3.719,3.719,0,0,0,.357,2.7Z" transform="translate(-536.613 -152.65)"/>
      </g>
      <g id="Grupo_1153459" data-name="Grupo 1153459" transform="translate(829.768 151.843)">
        <path id="Trazado_989702" data-name="Trazado 989702" d="M554.853,132.108q2.956,5.91,5.526,12a3.528,3.528,0,0,0,2.1,1.614,3.6,3.6,0,0,0,2.711-.356,3.518,3.518,0,0,0,1.614-2.1,4.12,4.12,0,0,0-.357-2.711q-2.575-6.079-5.526-12a3.537,3.537,0,0,0-4.812-1.257,3.611,3.611,0,0,0-1.257,4.813Z" transform="translate(-554.414 -126.816)"/>
      </g>
      <g id="Grupo_1153460" data-name="Grupo 1153460" transform="translate(809.324 142.034)">
        <path id="Trazado_989703" data-name="Trazado 989703" d="M552.713,131.058a53.086,53.086,0,0,0,4.072,7.58,3.725,3.725,0,0,0,2.1,1.614,3.517,3.517,0,0,0,3.968-5.169,53.578,53.578,0,0,1-4.072-7.58,3.523,3.523,0,0,0-2.1-1.614,3.6,3.6,0,0,0-2.711.356,3.546,3.546,0,0,0-1.614,2.1c-.047.31-.084.629-.122.938a3.5,3.5,0,0,0,.479,1.773Z" transform="translate(-552.235 -125.77)"/>
      </g>
      <g id="Grupo_1153461" data-name="Grupo 1153461" transform="translate(819.549 128.715)">
        <path id="Trazado_989704" data-name="Trazado 989704" d="M553.785,129.644a87.33,87.33,0,0,1,4.081,8.378c-.122-.282-.235-.563-.357-.844.131.328.272.647.4.976a3.841,3.841,0,0,0,1.613,2.1,3.6,3.6,0,0,0,2.711.356,3.562,3.562,0,0,0,2.1-1.614,3.408,3.408,0,0,0,.357-2.711,92.722,92.722,0,0,0-4.841-10.188,3.55,3.55,0,0,0-4.813-1.267,3.6,3.6,0,0,0-1.257,4.813Z" transform="translate(-553.325 -124.351)"/>
      </g>
      <g id="Grupo_1153462" data-name="Grupo 1153462" transform="translate(843.832 138.959)">
        <path id="Trazado_989705" data-name="Trazado 989705" d="M556.341,130.737q3.56,7.529,7.111,15.067a3.524,3.524,0,0,0,4.813,1.257,3.623,3.623,0,0,0,1.267-4.813q-3.561-7.529-7.112-15.067a3.535,3.535,0,0,0-4.813-1.267,3.628,3.628,0,0,0-1.266,4.822Z" transform="translate(-555.913 -125.443)"/>
      </g>
      <g id="Grupo_1153463" data-name="Grupo 1153463" transform="translate(1014.068 375.981)">
        <path id="Trazado_989706" data-name="Trazado 989706" d="M577.033,217.6c-1.36-9.588,3.358-20.058,12.018-24.73,2.57-1.388,5.713-2.345,8.462-.91,3.715,1.932,3.039,6.248,1.22,9.325-1.154,1.951-4.1,4.175-6.013,1.351a7.1,7.1,0,0,1-.723-3.546,18.619,18.619,0,0,1,1.089-6.867,21.837,21.837,0,0,1,8.65-10.948,19.577,19.577,0,0,1,5.967-2.608c1.773-.432,8-1.435,8.293,1.848q-1.886,3.335-3.678,1.032a6.137,6.137,0,0,1-1.388-2.805,11.886,11.886,0,0,1-.253-3.865,26.293,26.293,0,0,1,2.664-8.7,45.223,45.223,0,0,1,9.335-13.069c1.295-1.276-.694-3.265-1.989-1.989a46.715,46.715,0,0,0-11.577,18.041c-1.735,5.075-2.533,13.556,3.659,16.061,4.663,1.886,7.89-3.424,5.076-7.214-3.255-4.372-10.563-2.6-14.691-.713a24.533,24.533,0,0,0-12.018,12.29c-1.839,4.156-3.6,11.6-.131,15.442,4.062,4.513,9.588-.281,11.155-4.466,2.111-5.629-.188-11.605-6.764-12.112-6.7-.525-12.965,4.963-16.521,10.113a27.832,27.832,0,0,0-4.522,19.786c.225,1.783,2.946,1.023,2.683-.75Z" transform="translate(-574.059 -150.707)"/>
      </g>
      <g id="Grupo_1153464" data-name="Grupo 1153464" transform="translate(678.716 123.83)">
        <path id="Trazado_989707" data-name="Trazado 989707" d="M540.637,168.617A42.034,42.034,0,0,0,547.8,154.01c1.848-6.22,2.7-13.96,6.37-19.448,5.789-8.64,18.867-2.2,22.431,5.179a15.853,15.853,0,0,1,1.642,7.083c-.122,1.445-.807,4.925-.938-.629-.1-4.325,2.317-8.556,5.038-11.718a26.77,26.77,0,0,1,7.852-6.426c6.464-3.321,11.408.835,14.607,6.3,1.858,3.18,3.621,7.806,2.448,11.586-1.538,4.972-4.953,1.942-5.169-1.342-.15-2.252,1.163-5.254,2.392-7.121,4.119-6.258,12.487-7.655,19.382-8.012,7.018-.366,18.866-1.661,24.458,3.312,1.351,1.2,3.349-.779,1.989-1.989-6.8-6.061-19.654-4.691-28.014-4.043-7.515.582-15.845,2.608-20.245,9.316-2.27,3.452-5.864,16.953,2.026,16.427,7.1-.469,6.82-10.489,5.206-15.132-2.57-7.4-9.719-16.183-18.406-12.768-7.271,2.861-14.269,10.273-15.977,17.975-.59,2.683.723,14.851,5.263,9.213,1.763-2.2.929-6.839.338-9.335a18.934,18.934,0,0,0-6.764-10.6c-6.37-4.982-17.169-6.342-22,1.285-6.521,10.3-5.292,23.642-13.1,33.483-1.087,1.426.893,3.424,2.008,2.008Z" transform="translate(-538.313 -123.83)"/>
      </g>
    </g>
  </g>
</svg>
