<svg xmlns="http://www.w3.org/2000/svg" xmlns:xlink="http://www.w3.org/1999/xlink" width="108" height="108" viewBox="0 0 108 108">
  <defs>
    <filter id="Trazado_982547" x="0" y="0" width="108" height="108" filterUnits="userSpaceOnUse">
      <feOffset dy="3" input="SourceAlpha"/>
      <feGaussianBlur stdDeviation="3" result="blur"/>
      <feFlood flood-opacity="0.161"/>
      <feComposite operator="in" in2="blur"/>
      <feComposite in="SourceGraphic"/>
    </filter>
  </defs>
  <g id="_23" data-name="23" transform="translate(-196 -489)">
    <g id="Grupo_1154148" data-name="Grupo 1154148" transform="translate(-3281 -3577)">
      <g id="Grupo_1153177" data-name="Grupo 1153177" transform="translate(362 3397)">
        <g id="Grupo_1149598" data-name="Grupo 1149598" transform="translate(80 315)">
          <g id="Grupo_1148770" data-name="Grupo 1148770" transform="translate(-27 -2583)">
            <g id="Grupo_1146954" data-name="Grupo 1146954" transform="translate(-415 -1202)">
              <g transform="matrix(1, 0, 0, 1, 3477, 4139)" filter="url(#Trazado_982547)">
                <g id="Trazado_982547-2" data-name="Trazado 982547" transform="translate(9 6)" fill="#f6edfd">
                  <path d="M 45 88.5 C 39.12687683105469 88.5 33.43022537231445 87.35007476806641 28.06830024719238 85.08217620849609 C 22.88852500915527 82.89131164550781 18.23629951477051 79.75458526611328 14.2408504486084 75.75914764404297 C 10.24541282653809 71.76370239257812 7.108687400817871 67.11147308349609 4.917825222015381 61.93170166015625 C 2.649924993515015 56.56977462768555 1.5 50.87312316894531 1.5 45 C 1.5 39.12687683105469 2.649924993515015 33.43022537231445 4.917825222015381 28.06830024719238 C 7.108687400817871 22.88852500915527 10.24541282653809 18.23629951477051 14.2408504486084 14.2408504486084 C 18.23629951477051 10.24541282653809 22.88852500915527 7.108687400817871 28.06830024719238 4.917825222015381 C 33.43022537231445 2.649924993515015 39.12687683105469 1.5 45 1.5 C 50.87312316894531 1.5 56.56977462768555 2.649924993515015 61.93170166015625 4.917825222015381 C 67.11147308349609 7.108687400817871 71.76370239257812 10.24541282653809 75.75914764404297 14.2408504486084 C 79.75458526611328 18.23629951477051 82.89131164550781 22.88852500915527 85.08217620849609 28.06830024719238 C 87.35007476806641 33.43022537231445 88.5 39.12687683105469 88.5 45 C 88.5 50.87312316894531 87.35007476806641 56.56977462768555 85.08217620849609 61.93170166015625 C 82.89131164550781 67.11147308349609 79.75458526611328 71.76370239257812 75.75914764404297 75.75914764404297 C 71.76370239257812 79.75458526611328 67.11147308349609 82.89131164550781 61.93170166015625 85.08217620849609 C 56.56977462768555 87.35007476806641 50.87312316894531 88.5 45 88.5 Z" stroke="none"/>
                  <path d="M 45 3 C 39.32871246337891 3 33.82865524291992 4.110054016113281 28.65262985229492 6.299339294433594 C 23.65165710449219 8.414573669433594 19.15968322753906 11.44334411621094 15.301513671875 15.301513671875 C 11.44334411621094 19.15968322753906 8.414573669433594 23.65165710449219 6.299339294433594 28.65262985229492 C 4.110054016113281 33.82865524291992 3 39.32871246337891 3 45 C 3 50.67128753662109 4.110054016113281 56.17134475708008 6.299339294433594 61.34737396240234 C 8.414573669433594 66.34834289550781 11.44334411621094 70.84031677246094 15.301513671875 74.698486328125 C 19.15968322753906 78.55665588378906 23.65165710449219 81.58542633056641 28.65262985229492 83.70066070556641 C 33.82865524291992 85.88994598388672 39.32871246337891 87 45 87 C 50.67128753662109 87 56.17134475708008 85.88994598388672 61.34737396240234 83.70066070556641 C 66.34834289550781 81.58542633056641 70.84031677246094 78.55665588378906 74.698486328125 74.698486328125 C 78.55665588378906 70.84031677246094 81.58542633056641 66.34834289550781 83.70066070556641 61.34737396240234 C 85.88994598388672 56.17134475708008 87 50.67128753662109 87 45 C 87 39.32871246337891 85.88994598388672 33.82865524291992 83.70066070556641 28.65262985229492 C 81.58542633056641 23.65165710449219 78.55665588378906 19.15968322753906 74.698486328125 15.301513671875 C 70.84031677246094 11.44334411621094 66.34834289550781 8.414573669433594 61.34737396240234 6.299339294433594 C 56.17134475708008 4.110054016113281 50.67128753662109 3 45 3 M 45 0 C 69.85281372070312 0 90 20.14718627929688 90 45 C 90 69.85281372070312 69.85281372070312 90 45 90 C 20.14718627929688 90 0 69.85281372070312 0 45 C 0 20.14718627929688 20.14718627929688 0 45 0 Z" stroke="none" fill="#ac59f1"/>
                </g>
              </g>
            </g>
          </g>
        </g>
      </g>
    </g>
    <g id="cerebro_3_" data-name="cerebro (3)" transform="translate(217 508)">
      <path id="Trazado_992646" data-name="Trazado 992646" d="M70.243,93.866a6.953,6.953,0,0,1,.552,2.707,7.038,7.038,0,0,1-13.436,2.912c-2.923,1.4-3.887,4.428-3.887,7.8v4.991H48.059v-8.661a6.5,6.5,0,0,0-6.5-6.5H28.571a6.5,6.5,0,0,1-6.5-6.323,6.108,6.108,0,0,1,.953-3.421H16.661a8.661,8.661,0,1,1,0-17.323,9.184,9.184,0,0,1,1.234.087v-.087a8.014,8.014,0,0,1-.152-1.624,8.12,8.12,0,0,1,8.12-8.12,7.753,7.753,0,0,1,3.465.79,8.661,8.661,0,0,1,16.142.855,9.2,9.2,0,1,1,13.88,11.985.2.2,0,0,1,0,.076,7.493,7.493,0,0,1,4.948-1.8,7.578,7.578,0,0,1,7.579,7.579,7.461,7.461,0,0,1-1.97,5.089,6.5,6.5,0,0,1,1.97,4.655,6.421,6.421,0,0,1-1.635,4.331Zm0,0" transform="translate(-6.917 -48.394)" fill="#ff9ab3"/>
      <path id="Trazado_992647" data-name="Trazado 992647" d="M64.409,78.092a8.661,8.661,0,0,0-7.027-13.717,8.437,8.437,0,0,0-1.884.217,10.411,10.411,0,0,0,.8-4.006,10.264,10.264,0,0,0-17.431-7.373,9.744,9.744,0,0,0-16.944-.249,8.809,8.809,0,0,0-2.977-.5,9.214,9.214,0,0,0-9.2,9.2v.541a9.744,9.744,0,1,0,0,19.488h4.688a7.038,7.038,0,0,0-.357,2.371,7.579,7.579,0,0,0,7.579,7.373H34.646a5.414,5.414,0,0,1,5.413,5.413v8.661a1.083,1.083,0,0,0,1.083,1.083h5.413a1.083,1.083,0,0,0,1.083-1.083v-4.991c0-2.977.812-5.089,2.4-6.28a8.12,8.12,0,0,0,14.919-4.428,7.95,7.95,0,0,0-.411-2.533,7.579,7.579,0,0,0,1.494-4.5,7.657,7.657,0,0,0-1.635-4.688Zm-7.568,17.68a5.922,5.922,0,0,1-5.413-3.5,5.812,5.812,0,0,1-.541-2.458H48.721a8.02,8.02,0,0,0,.379,2.436c-1.808,1.191-3.627,3.519-3.627,8.272v3.908H42.224V96.855a7.578,7.578,0,0,0-7.579-7.579H21.654A5.413,5.413,0,0,1,16.24,84a5.1,5.1,0,0,1,.79-2.826,5.8,5.8,0,0,1,2.3-2.1,6.621,6.621,0,0,0,.639-.26,5.569,5.569,0,0,1,1.96-.368H31.4a6.5,6.5,0,0,0,6.5-6.5H35.728A4.331,4.331,0,0,1,31.4,76.284H21.924a8.028,8.028,0,0,0-3.454.8,5.288,5.288,0,0,1-1.711.281,5.415,5.415,0,0,1-4.028-1.808L11.108,77.01a7.581,7.581,0,0,0,4.526,2.425l-.065.1H9.744a7.579,7.579,0,1,1,4.2-13.869,8.012,8.012,0,0,0,.866,6.875l1.819-1.169a5.977,5.977,0,0,1,0-6.409l-1.212-.78.064-.086a9.383,9.383,0,0,0-3.519-1.613,6.72,6.72,0,0,1-.054-.812,7.048,7.048,0,0,1,7.037-7.037,6.663,6.663,0,0,1,3.031.7h.076a6.834,6.834,0,0,1,2.988,2.793l1.884-1.083a9.12,9.12,0,0,0-3.107-3.129A7.579,7.579,0,0,1,37.3,55.085a9.893,9.893,0,0,0-1.451,3.681l2.165.39A8.12,8.12,0,1,1,51.676,66.4l.162.162-.747.747a5.718,5.718,0,0,1,.487.531l.065.1a6.3,6.3,0,0,1,1.407,4.017,6.5,6.5,0,0,1-6.5,6.5v2.165a8.661,8.661,0,0,0,7.427-13.1,6.411,6.411,0,0,1,3.4-.974,6.5,6.5,0,0,1,6.5,6.5,6.365,6.365,0,0,1-1.083,3.54A7.493,7.493,0,0,0,58.465,75.2v2.165A5.327,5.327,0,0,1,62.232,78.9a5.413,5.413,0,0,1-3.768,9.289v2.165a7.578,7.578,0,0,0,4.255-1.321,6.329,6.329,0,0,1,.076.78,5.966,5.966,0,0,1-5.955,5.955Zm0,0" transform="translate(0 -41.639)" fill="#eb7f9a"/>
      <path id="Trazado_992648" data-name="Trazado 992648" d="M172.992,304H160v2.165h12.992a10.826,10.826,0,0,1,9.538,5.706l1.905-1.018A12.991,12.991,0,0,0,172.992,304Zm0,0" transform="translate(-138.347 -262.858)" fill="#eb7f9a"/>
      <path id="Trazado_992649" data-name="Trazado 992649" d="M397.413,288A5.414,5.414,0,0,0,392,293.413h2.165a3.248,3.248,0,0,1,3.248-3.248Zm0,0" transform="translate(-338.949 -249.024)" fill="#eb7f9a"/>
      <path id="Trazado_992650" data-name="Trazado 992650" d="M175.807,59.8a11.909,11.909,0,0,1-6.983,10.827h-9.852A11.909,11.909,0,1,1,175.807,59.8Zm0,0" transform="translate(-131.417 -41.395)" fill="#fce013"/>
      <path id="Trazado_992651" data-name="Trazado 992651" d="M194.827,127.157h-2.165V118.5H190.5v8.661h-2.165V118.5h-1.083a3.248,3.248,0,1,1,3.248-3.248v1.083h2.165v-1.083a3.248,3.248,0,1,1,3.248,3.248h-1.083Zm0-10.827h1.083a1.083,1.083,0,1,0-1.083-1.083Zm-7.579-2.165a1.083,1.083,0,1,0,0,2.165h1.083v-1.083A1.083,1.083,0,0,0,187.248,114.165Zm0,0" transform="translate(-159.099 -96.843)" fill="#f95925"/>
      <path id="Trazado_992652" data-name="Trazado 992652" d="M213.453,216a5.824,5.824,0,0,1-.6.26v5.153H204.2V216.26a5.824,5.824,0,0,1-.6-.26Zm0,0" transform="translate(-176.047 -186.768)" fill="#3dcde7"/>
      <g id="Grupo_1155632" data-name="Grupo 1155632" transform="translate(11.909)">
        <path id="Trazado_992653" data-name="Trazado 992653" d="M216,256h6.5v1.083a3.248,3.248,0,0,1-6.5,0Zm0,0" transform="translate(-198.677 -221.354)" fill="#f95925"/>
        <path id="Trazado_992654" data-name="Trazado 992654" d="M332.98,186.965l1.083-1.876,2.813,1.624-1.082,1.876Zm0,0" transform="translate(-299.826 -160.041)" fill="#f95925"/>
        <path id="Trazado_992655" data-name="Trazado 992655" d="M118.273,186.705l2.813-1.623,1.082,1.876-2.813,1.623Zm0,0" transform="translate(-114.176 -160.034)" fill="#f95925"/>
        <path id="Trazado_992656" data-name="Trazado 992656" d="M332.984,62.7l2.814-1.623,1.082,1.876-2.813,1.623Zm0,0" transform="translate(-299.829 -52.812)" fill="#f95925"/>
        <path id="Trazado_992657" data-name="Trazado 992657" d="M232,0h2.165V3.248H232Zm0,0" transform="translate(-212.512)" fill="#f95925"/>
        <path id="Trazado_992658" data-name="Trazado 992658" d="M118.254,62.876,119.337,61l2.813,1.623L121.067,64.5Zm0,0" transform="translate(-114.16 -52.745)" fill="#f95925"/>
        <path id="Trazado_992659" data-name="Trazado 992659" d="M289.063,5.075,291.769.387l1.876,1.082-2.706,4.689Zm0,0" transform="translate(-261.852 -0.334)" fill="#f95925"/>
        <path id="Trazado_992660" data-name="Trazado 992660" d="M157.109,233.685,159.815,229l1.876,1.083-2.706,4.689Zm0,0" transform="translate(-147.756 -198.005)" fill="#f95925"/>
        <path id="Trazado_992661" data-name="Trazado 992661" d="M157.1,1.473,158.973.391l2.707,4.688L159.8,6.161Zm0,0" transform="translate(-147.747 -0.338)" fill="#f95925"/>
        <path id="Trazado_992662" data-name="Trazado 992662" d="M289.094,230.122l1.875-1.083,2.707,4.688L291.8,234.81Zm0,0" transform="translate(-261.879 -198.042)" fill="#f95925"/>
        <path id="Trazado_992663" data-name="Trazado 992663" d="M88,128h5.413v2.165H88Zm0,0" transform="translate(-88 -110.677)" fill="#f95925"/>
        <path id="Trazado_992664" data-name="Trazado 992664" d="M352,128h5.413v2.165H352Zm0,0" transform="translate(-316.272 -110.677)" fill="#f95925"/>
      </g>
      <path id="Trazado_992665" data-name="Trazado 992665" d="M57.382,88.035a8.436,8.436,0,0,0-1.884.217,10.411,10.411,0,0,0,.8-4.006,10.243,10.243,0,0,0-4.84-8.726L50.312,77.36A8.109,8.109,0,0,1,52.4,89.27a8.989,8.989,0,0,0-1.386-1.083l-1.083,1.862a6.5,6.5,0,0,1-3.378,12.061v2.165a8.662,8.662,0,0,0,7.438-13.1,6.281,6.281,0,0,1,3.389-.974,6.5,6.5,0,0,1,6.5,6.5,6.365,6.365,0,0,1-1.083,3.54,7.493,7.493,0,0,0-4.331-1.375v2.165a5.327,5.327,0,0,1,3.768,1.537,5.413,5.413,0,0,1-3.768,9.289v2.165A7.578,7.578,0,0,0,62.72,112.7a6.33,6.33,0,0,1,.076.78,5.955,5.955,0,1,1-11.909,0H48.72a7.889,7.889,0,0,0,.379,2.436c-1.819,1.2-3.627,3.573-3.627,8.272v3.908H42.224v-7.579a7.578,7.578,0,0,0-7.579-7.579H21.653a5.413,5.413,0,0,1-5.413-5.262,5.521,5.521,0,0,1,3.638-5.186l-.076-.2.227-.119-.812-1.408-.119-.292-.108-.2A5.413,5.413,0,0,1,12.245,99.2l-1.613,1.451a7.645,7.645,0,0,0,4.98,2.49H9.744a7.579,7.579,0,0,1,0-15.157A7.479,7.479,0,0,1,14.2,89.443l1.277-1.754A9.576,9.576,0,0,0,11.963,86.1a6.919,6.919,0,0,1-.054-.769v-.541h5.413V82.622H12.461A6.922,6.922,0,0,1,14.724,79.7l-1.3-1.732a9.126,9.126,0,0,0-3.681,7.362v.541a9.744,9.744,0,0,0,0,19.488h4.677a7.243,7.243,0,0,0-.346,2.371,7.579,7.579,0,0,0,7.579,7.373H34.646a5.414,5.414,0,0,1,5.413,5.413v8.661a1.083,1.083,0,0,0,1.083,1.083h5.413a1.083,1.083,0,0,0,1.083-1.083v-4.991c0-2.988.812-5.089,2.4-6.28a8.12,8.12,0,0,0,14.919-4.428,7.949,7.949,0,0,0-.411-2.533,7.579,7.579,0,0,0,1.494-4.5,7.656,7.656,0,0,0-1.635-4.688,8.661,8.661,0,0,0-7.027-13.717Zm0,0" transform="translate(0 -65.299)"/>
      <path id="Trazado_992666" data-name="Trazado 992666" d="M182.53,311.881l1.905-1.083a12.992,12.992,0,0,0-11.444-6.8H160v2.165h12.992A10.828,10.828,0,0,1,182.53,311.881Zm0,0" transform="translate(-138.346 -262.858)"/>
      <path id="Trazado_992667" data-name="Trazado 992667" d="M397.413,290.165V288A5.414,5.414,0,0,0,392,293.413h2.165A3.248,3.248,0,0,1,397.413,290.165Zm0,0" transform="translate(-338.949 -249.024)"/>
      <path id="Trazado_992668" data-name="Trazado 992668" d="M151.57,64.732v4.439a1.083,1.083,0,0,0,1.083,1.083,4.331,4.331,0,1,0,8.661,0,1.083,1.083,0,0,0,1.083-1.083V64.732a12.992,12.992,0,1,0-10.827,0Zm4.331.108h4.331v3.248h-6.5V64.841Zm-2.165-10.827h-1.083a1.083,1.083,0,1,1,1.083-1.083Zm4.331,8.661H155.9v-6.5h2.165Zm-1.083,9.744a2.165,2.165,0,0,1-2.165-2.165h4.331A2.165,2.165,0,0,1,156.984,72.42Zm0-30.315a10.827,10.827,0,0,1,4.331,20.733v-.162h-1.083v-6.5h1.083a3.248,3.248,0,1,0-3.248-3.248v1.083H155.9V52.931a3.248,3.248,0,1,0-3.248,3.248h1.083v6.5h-1.083v.162A10.827,10.827,0,0,1,156.984,42.1Zm3.248,11.909V52.931a1.083,1.083,0,1,1,1.083,1.083Zm0,0" transform="translate(-124.504 -34.526)"/>
      <path id="Trazado_992669" data-name="Trazado 992669" d="M118.215,186.667l2.813-1.624,1.083,1.875-2.813,1.624Zm0,0" transform="translate(-102.217 -160)"/>
      <path id="Trazado_992670" data-name="Trazado 992670" d="M332.984,62.7l2.814-1.623,1.082,1.876-2.813,1.623Zm0,0" transform="translate(-287.92 -52.812)"/>
      <path id="Trazado_992671" data-name="Trazado 992671" d="M232,0h2.165V3.248H232Zm0,0" transform="translate(-200.602)"/>
      <path id="Trazado_992672" data-name="Trazado 992672" d="M333.016,186.95l1.083-1.875,2.813,1.624-1.083,1.875Zm0,0" transform="translate(-287.948 -160.027)"/>
      <path id="Trazado_992673" data-name="Trazado 992673" d="M118.254,62.876,119.337,61l2.813,1.623L121.067,64.5Zm0,0" transform="translate(-102.25 -52.745)"/>
      <path id="Trazado_992674" data-name="Trazado 992674" d="M289.105,5.028,291.812.34l1.875,1.083L290.98,6.111Zm0,0" transform="translate(-249.979 -0.294)"/>
      <path id="Trazado_992675" data-name="Trazado 992675" d="M157.109,233.685,159.815,229l1.876,1.083-2.706,4.689Zm0,0" transform="translate(-135.847 -198.005)"/>
      <path id="Trazado_992676" data-name="Trazado 992676" d="M157.1,1.473,158.973.391l2.707,4.688L159.8,6.161Zm0,0" transform="translate(-135.837 -0.338)"/>
      <path id="Trazado_992677" data-name="Trazado 992677" d="M289.094,230.122l1.875-1.083,2.707,4.688L291.8,234.81Zm0,0" transform="translate(-249.97 -198.042)"/>
      <path id="Trazado_992678" data-name="Trazado 992678" d="M352,128h5.413v2.165H352Zm0,0" transform="translate(-304.362 -110.677)"/>
    </g>
  </g>
</svg>
