<svg xmlns="http://www.w3.org/2000/svg" xmlns:xlink="http://www.w3.org/1999/xlink" width="98" height="98" viewBox="0 0 98 98">
  <defs>
    <filter id="Trazado_982548" x="0" y="0" width="98" height="98" filterUnits="userSpaceOnUse">
      <feOffset dy="3" input="SourceAlpha"/>
      <feGaussianBlur stdDeviation="3" result="blur"/>
      <feFlood flood-opacity="0.161"/>
      <feComposite operator="in" in2="blur"/>
      <feComposite in="SourceGraphic"/>
    </filter>
  </defs>
  <g id="_33" data-name="33" transform="translate(-813 -849)">
    <g id="Grupo_1154396" data-name="Grupo 1154396" transform="translate(-219 -1247)">
      <g id="Grupo_1149914" data-name="Grupo 1149914" transform="translate(0.5 -2463)">
        <g id="Grupo_1149696" data-name="Grupo 1149696" transform="translate(830.5 4104)">
          <g id="Grupo_1149263" data-name="Grupo 1149263" transform="translate(210 461)">
            <g transform="matrix(1, 0, 0, 1, -9, -6)" filter="url(#Trazado_982548)">
              <g id="Trazado_982548-2" data-name="Trazado 982548" transform="translate(9 6)" fill="#f6edfd">
                <path d="M 40 78.5 C 34.80187606811523 78.5 29.76003265380859 77.48227691650391 25.01452255249023 75.47509765625 C 20.43014526367188 73.53606414794922 16.31264495849609 70.75986480712891 12.77638912200928 67.22360992431641 C 9.240133285522461 63.68735504150391 6.46393346786499 59.56985473632812 4.524899959564209 54.98547744750977 C 2.517722129821777 50.23996734619141 1.5 45.19812393188477 1.5 40 C 1.5 34.80187606811523 2.517722129821777 29.76003265380859 4.524899959564209 25.01452255249023 C 6.46393346786499 20.43014526367188 9.240133285522461 16.31264495849609 12.77638912200928 12.77638912200928 C 16.31264495849609 9.240133285522461 20.43014526367188 6.46393346786499 25.01452255249023 4.524899959564209 C 29.76003265380859 2.517722129821777 34.80187606811523 1.5 40 1.5 C 45.19812393188477 1.5 50.23996734619141 2.517722129821777 54.98547744750977 4.524899959564209 C 59.56985473632812 6.46393346786499 63.68735504150391 9.240133285522461 67.22360992431641 12.77638912200928 C 70.75986480712891 16.31264495849609 73.53606414794922 20.43014526367188 75.47509765625 25.01452255249023 C 77.48227691650391 29.76003265380859 78.5 34.80187606811523 78.5 40 C 78.5 45.19812393188477 77.48227691650391 50.23996734619141 75.47509765625 54.98547744750977 C 73.53606414794922 59.56985473632812 70.75986480712891 63.68735504150391 67.22360992431641 67.22360992431641 C 63.68735504150391 70.75986480712891 59.56985473632812 73.53606414794922 54.98547744750977 75.47509765625 C 50.23996734619141 77.48227691650391 45.19812393188477 78.5 40 78.5 Z" stroke="none"/>
                <path d="M 40 3 C 35.00370788574219 3 30.15846633911133 3.977851867675781 25.59885406494141 5.906410217285156 C 21.19326782226562 7.769813537597656 17.23602676391602 10.43806457519531 13.83704376220703 13.83705139160156 C 10.43806457519531 17.23603820800781 7.769813537597656 21.19327926635742 5.906410217285156 25.59885406494141 C 3.977851867675781 30.15846633911133 3 35.00370788574219 3 40 C 3 44.99629211425781 3.977851867675781 49.84153366088867 5.906410217285156 54.40114593505859 C 7.769813537597656 58.80672073364258 10.43806457519531 62.76396179199219 13.83704376220703 66.16294860839844 C 17.23602676391602 69.56193542480469 21.19326782226562 72.23018646240234 25.59885406494141 74.09358978271484 C 30.15846633911133 76.02214813232422 35.00370788574219 77 40 77 C 44.99629211425781 77 49.84153366088867 76.02214813232422 54.40114593505859 74.09358978271484 C 58.80672073364258 72.23018646240234 62.76396179199219 69.56193542480469 66.16294860839844 66.16294860839844 C 69.56193542480469 62.76396179199219 72.23018646240234 58.80672073364258 74.09358978271484 54.40114593505859 C 76.02214813232422 49.84153366088867 77 44.99629211425781 77 40 C 77 35.00370788574219 76.02214813232422 30.15846633911133 74.09358978271484 25.59885406494141 C 72.23018646240234 21.19327926635742 69.56193542480469 17.23603820800781 66.16294860839844 13.83705139160156 C 62.76396179199219 10.43806457519531 58.80672073364258 7.769813537597656 54.40114593505859 5.906410217285156 C 49.84153366088867 3.977851867675781 44.99629211425781 3 40 3 M 40 0 C 62.09138488769531 0 80 17.90861511230469 80 40 C 80 62.09138488769531 62.09138488769531 80 40 80 C 17.90859985351562 80 0 62.09138488769531 0 40 C 0 17.90861511230469 17.90859985351562 0 40 0 Z" stroke="none" fill="#ac59f1"/>
              </g>
            </g>
          </g>
        </g>
      </g>
    </g>
    <g id="activo" transform="translate(811.863 843.714)">
      <path id="Trazado_992724" data-name="Trazado 992724" d="M234.419,267.751h3.766V270.7a1.883,1.883,0,1,1-3.766,0Z" transform="translate(-186.643 -214.059)" fill="#e33f65" fill-rule="evenodd"/>
      <path id="Trazado_992725" data-name="Trazado 992725" d="M199.979,122.736c.539-6.855,4.285-8.565,4.285-12.661a7.285,7.285,0,0,0-14.57,0c0,4.1,3.746,5.806,4.285,12.661Z" transform="translate(-147.32 -69.022)" fill="#ffe177" fill-rule="evenodd"/>
      <path id="Trazado_992726" data-name="Trazado 992726" d="M222.664,249.91h6.606v3.045a.513.513,0,0,1-.512.512h-5.582a.513.513,0,0,1-.512-.512V249.91Z" transform="translate(-176.308 -198.373)" fill="#fa6e85" fill-rule="evenodd"/>
      <path id="Trazado_992727" data-name="Trazado 992727" d="M30.89,153.261a2.17,2.17,0,0,1,2.277,1.831l1,8.414,3.721,6.822a6.989,6.989,0,0,0,3.937,3.339L46.74,174.7a4.918,4.918,0,0,1,3.937,4.853v10.163a1.656,1.656,0,0,1-1.653,1.653H37.244a1.647,1.647,0,0,1-1.652-1.706c.117-3.665-.54-6.368-.8-10.033-.329-4.618-2.861-8.764-4.341-13.645-1-3.284-1.051-7.333-1.389-10.448A2,2,0,0,1,30.89,153.261Z" transform="translate(-6.076 -113.397)" fill="#19cfba" fill-rule="evenodd"/>
      <ellipse id="Elipse_11842" data-name="Elipse 11842" cx="4.031" cy="4.031" rx="4.031" ry="4.031" transform="translate(32.428 59.757) rotate(-82.008)" fill="#fcd4a9"/>
      <path id="Trazado_992728" data-name="Trazado 992728" d="M311.675,153.261a2.17,2.17,0,0,0-2.277,1.831l-1,8.414-3.721,6.822a6.989,6.989,0,0,1-3.937,3.339l-4.912,1.034a4.918,4.918,0,0,0-3.937,4.853v10.163a1.656,1.656,0,0,0,1.653,1.653h11.78a1.647,1.647,0,0,0,1.652-1.706c-.117-3.665.54-6.368.8-10.033.329-4.618,2.861-8.764,4.341-13.645,1-3.284,1.051-7.333,1.389-10.448A2,2,0,0,0,311.675,153.261Z" transform="translate(-237.171 -113.397)" fill="#88c8fe" fill-rule="evenodd"/>
      <circle id="Elipse_11843" data-name="Elipse 11843" cx="4.031" cy="4.031" r="4.031" transform="translate(58.3 52.278)" fill="#fcd4a9"/>
      <path id="Trazado_992729" data-name="Trazado 992729" d="M75.51,42.054c-.362,3.3-.406,7.137-1.364,10.3-1.431,4.721-4.025,9.055-4.372,13.828-.263,3.616-.918,6.339-.8,10.118a.815.815,0,0,1-.823.846H66.414a2.563,2.563,0,0,0-2.4-3.444h-4.33V70.4a.837.837,0,0,0-1.673,0v4.132a.839.839,0,0,0,.837.834h5.167a.888.888,0,0,1,0,1.776H56.368a.819.819,0,0,1-.816-.82V66.159a4.089,4.089,0,0,1,3.276-4.036l4.914-1.034a7.755,7.755,0,0,0,4.492-3.755l3.726-6.822a.9.9,0,0,0,.091-.3L73.057,41.8A1.36,1.36,0,0,1,74.5,40.7c.658,0,1.063.759,1.005,1.353ZM62.329,53.116a3.2,3.2,0,1,0,3.2,3.2A3.2,3.2,0,0,0,62.329,53.116ZM76.417,39.91a2.551,2.551,0,0,0-1.912-.877A3,3,0,0,0,71.4,41.6l-.984,8.254L67.173,55.8a4.867,4.867,0,1,0-7.662,4.472l-1.026.217a5.746,5.746,0,0,0-4.6,5.668V76.322a2.486,2.486,0,0,0,2.482,2.487H68.15a2.486,2.486,0,0,0,2.489-2.566c-.111-3.594.552-6.433.8-9.949a27.953,27.953,0,0,1,2.425-8.346c2.232-5.553,2.588-6.9,3.072-13.118.07-.921.141-1.789.225-2.6a3.05,3.05,0,0,0-.745-2.325ZM43.771,76.322a.825.825,0,0,1-.823.82H35.307a.888.888,0,1,1,0-1.776h5.16a.835.835,0,0,0,.837-.834V70.4a.833.833,0,1,0-1.666,0v3.3h-4.33a2.557,2.557,0,0,0-2.4,3.444H31.166a.813.813,0,0,1-.816-.846c.115-3.721-.545-6.518-.8-10.118-.337-4.74-2.961-9.156-4.38-13.828-.972-3.212-.989-6.993-1.357-10.3A1.181,1.181,0,0,1,24.818,40.7a1.36,1.36,0,0,1,1.448,1.1l1,8.415a.905.905,0,0,0,.1.3l3.719,6.822a7.789,7.789,0,0,0,4.5,3.755l4.914,1.034a4.1,4.1,0,0,1,3.276,4.036V76.323ZM36.987,53.116a3.2,3.2,0,1,0,3.2,3.2A3.2,3.2,0,0,0,36.987,53.116Zm3.845,7.375-1.026-.217A4.863,4.863,0,1,0,32.15,55.8L28.9,49.853,27.918,41.6a3,3,0,0,0-3.1-2.567,2.831,2.831,0,0,0-2.664,3.2c.384,3.447.38,7.159,1.42,10.6.541,1.793,1.223,3.483,1.884,5.115A28.161,28.161,0,0,1,27.883,66.3c.254,3.516.911,6.391.8,9.949a2.476,2.476,0,0,0,2.482,2.566H42.948a2.492,2.492,0,0,0,2.489-2.487V66.159a5.745,5.745,0,0,0-4.6-5.668Zm-3.065-30.1a.835.835,0,1,1,1.181-1.18l2.657,2.66a.835.835,0,0,1-1.181,1.18ZM32.839,41.105a.834.834,0,0,0,.837.834h3.761a.834.834,0,1,0,0-1.669H33.676A.835.835,0,0,0,32.839,41.105Zm29.047-.834a.834.834,0,1,0,0,1.669h3.761a.834.834,0,0,0,0-1.669ZM48.825,28.882V25.12a.833.833,0,1,1,1.666,0v3.762a.833.833,0,1,1-1.666,0Zm8.886,4.17a.839.839,0,0,1,0-1.18l2.664-2.66a.832.832,0,1,1,1.174,1.18l-2.657,2.66A.836.836,0,0,1,57.711,33.052Zm-7,23.588a1.047,1.047,0,1,1-2.095,0V55.93h2.095Zm-7.5-15.584c0,3.135,2.662,5,3.81,9.65H52.3c1.162-4.649,3.81-6.536,3.81-9.65a6.45,6.45,0,1,0-12.9,0Zm3.986,13.206V52.374h4.935v1.888ZM56,46.279a10.189,10.189,0,0,0,1.778-5.223,8.119,8.119,0,0,0-16.239,0,10.188,10.188,0,0,0,1.779,5.223,17.7,17.7,0,0,1,2.2,5.353v2.952a1.349,1.349,0,0,0,1.35,1.345h.07v.709a2.717,2.717,0,1,0,5.434,0v-.709h.077A1.347,1.347,0,0,0,53.8,54.585V51.633A17.7,17.7,0,0,1,56,46.279Z" fill="#1e2f3f" fill-rule="evenodd"/>
    </g>
  </g>
</svg>
