<svg xmlns="http://www.w3.org/2000/svg" xmlns:xlink="http://www.w3.org/1999/xlink" width="98" height="98" viewBox="0 0 98 98">
  <defs>
    <filter id="Trazado_982548" x="0" y="0" width="98" height="98" filterUnits="userSpaceOnUse">
      <feOffset dy="3" input="SourceAlpha"/>
      <feGaussianBlur stdDeviation="3" result="blur"/>
      <feFlood flood-opacity="0.161"/>
      <feComposite operator="in" in2="blur"/>
      <feComposite in="SourceGraphic"/>
    </filter>
  </defs>
  <g id="_34" data-name="34" transform="translate(-1130 -848.358)">
    <g id="Grupo_1154398" data-name="Grupo 1154398" transform="translate(98 -1247.642)">
      <g id="Grupo_1149914" data-name="Grupo 1149914" transform="translate(0.5 -2463)">
        <g id="Grupo_1149696" data-name="Grupo 1149696" transform="translate(830.5 4104)">
          <g id="Grupo_1149263" data-name="Grupo 1149263" transform="translate(210 461)">
            <g transform="matrix(1, 0, 0, 1, -9, -6)" filter="url(#Trazado_982548)">
              <g id="Trazado_982548-2" data-name="Trazado 982548" transform="translate(9 6)" fill="#f6edfd">
                <path d="M 40 78.5 C 34.80187606811523 78.5 29.76003265380859 77.48227691650391 25.01452255249023 75.47509765625 C 20.43014526367188 73.53606414794922 16.31264495849609 70.75986480712891 12.77638912200928 67.22360992431641 C 9.240133285522461 63.68735504150391 6.46393346786499 59.56985473632812 4.524899959564209 54.98547744750977 C 2.517722129821777 50.23996734619141 1.5 45.19812393188477 1.5 40 C 1.5 34.80187606811523 2.517722129821777 29.76003265380859 4.524899959564209 25.01452255249023 C 6.46393346786499 20.43014526367188 9.240133285522461 16.31264495849609 12.77638912200928 12.77638912200928 C 16.31264495849609 9.240133285522461 20.43014526367188 6.46393346786499 25.01452255249023 4.524899959564209 C 29.76003265380859 2.517722129821777 34.80187606811523 1.5 40 1.5 C 45.19812393188477 1.5 50.23996734619141 2.517722129821777 54.98547744750977 4.524899959564209 C 59.56985473632812 6.46393346786499 63.68735504150391 9.240133285522461 67.22360992431641 12.77638912200928 C 70.75986480712891 16.31264495849609 73.53606414794922 20.43014526367188 75.47509765625 25.01452255249023 C 77.48227691650391 29.76003265380859 78.5 34.80187606811523 78.5 40 C 78.5 45.19812393188477 77.48227691650391 50.23996734619141 75.47509765625 54.98547744750977 C 73.53606414794922 59.56985473632812 70.75986480712891 63.68735504150391 67.22360992431641 67.22360992431641 C 63.68735504150391 70.75986480712891 59.56985473632812 73.53606414794922 54.98547744750977 75.47509765625 C 50.23996734619141 77.48227691650391 45.19812393188477 78.5 40 78.5 Z" stroke="none"/>
                <path d="M 40 3 C 35.00370788574219 3 30.15846633911133 3.977851867675781 25.59885406494141 5.906410217285156 C 21.19326782226562 7.769813537597656 17.23602676391602 10.43806457519531 13.83704376220703 13.83705139160156 C 10.43806457519531 17.23603820800781 7.769813537597656 21.19327926635742 5.906410217285156 25.59885406494141 C 3.977851867675781 30.15846633911133 3 35.00370788574219 3 40 C 3 44.99629211425781 3.977851867675781 49.84153366088867 5.906410217285156 54.40114593505859 C 7.769813537597656 58.80672073364258 10.43806457519531 62.76396179199219 13.83704376220703 66.16294860839844 C 17.23602676391602 69.56193542480469 21.19326782226562 72.23018646240234 25.59885406494141 74.09358978271484 C 30.15846633911133 76.02214813232422 35.00370788574219 77 40 77 C 44.99629211425781 77 49.84153366088867 76.02214813232422 54.40114593505859 74.09358978271484 C 58.80672073364258 72.23018646240234 62.76396179199219 69.56193542480469 66.16294860839844 66.16294860839844 C 69.56193542480469 62.76396179199219 72.23018646240234 58.80672073364258 74.09358978271484 54.40114593505859 C 76.02214813232422 49.84153366088867 77 44.99629211425781 77 40 C 77 35.00370788574219 76.02214813232422 30.15846633911133 74.09358978271484 25.59885406494141 C 72.23018646240234 21.19327926635742 69.56193542480469 17.23603820800781 66.16294860839844 13.83705139160156 C 62.76396179199219 10.43806457519531 58.80672073364258 7.769813537597656 54.40114593505859 5.906410217285156 C 49.84153366088867 3.977851867675781 44.99629211425781 3 40 3 M 40 0 C 62.09138488769531 0 80 17.90861511230469 80 40 C 80 62.09138488769531 62.09138488769531 80 40 80 C 17.90859985351562 80 0 62.09138488769531 0 40 C 0 17.90861511230469 17.90859985351562 0 40 0 Z" stroke="none" fill="#ac59f1"/>
              </g>
            </g>
          </g>
        </g>
      </g>
    </g>
    <g id="presentacion" transform="translate(1152.106 868.989)">
      <g id="Grupo_1155649" data-name="Grupo 1155649" transform="translate(0.788 0.788)">
        <g id="Grupo_1155648" data-name="Grupo 1155648">
          <g id="Grupo_1155645" data-name="Grupo 1155645">
            <path id="Trazado_992730" data-name="Trazado 992730" d="M59.713,57.558H7.5V28.652A3.152,3.152,0,0,1,10.652,25.5H56.561a3.152,3.152,0,0,1,3.152,3.152Z" transform="translate(-7.5 -23.609)" fill="#a6e4ff"/>
            <path id="Trazado_992731" data-name="Trazado 992731" d="M438.7,25.5h-4.2a3.152,3.152,0,0,1,3.152,3.152V57.558h4.2V28.652A3.152,3.152,0,0,0,438.7,25.5Z" transform="translate(-389.641 -23.609)" fill="#8cdcff"/>
            <path id="Trazado_992732" data-name="Trazado 992732" d="M128.074,11.282H98.331a1.891,1.891,0,0,1,0-3.782h29.743a1.891,1.891,0,0,1,0,3.782Z" transform="translate(-87.096 -7.5)" fill="#ff8fe9"/>
            <path id="Trazado_992733" data-name="Trazado 992733" d="M361.762,7.5h-4.2a1.891,1.891,0,0,1,0,3.782h4.2a1.891,1.891,0,1,0,0-3.782Z" transform="translate(-320.784 -7.5)" fill="#ff75e4"/>
            <path id="Trazado_992734" data-name="Trazado 992734" d="M56.561,335.309H10.652A3.152,3.152,0,0,1,7.5,332.158V330.65H59.713v1.508A3.152,3.152,0,0,1,56.561,335.309Z" transform="translate(-7.5 -296.701)" fill="#51acdb"/>
            <path id="Trazado_992735" data-name="Trazado 992735" d="M437.652,330.65v1.508a3.152,3.152,0,0,1-3.152,3.152h4.2a3.152,3.152,0,0,0,3.152-3.152V330.65Z" transform="translate(-389.641 -296.701)" fill="#32a2db"/>
          </g>
          <g id="Grupo_1155647" data-name="Grupo 1155647" transform="translate(18.623 8.449)">
            <g id="Grupo_1155646" data-name="Grupo 1155646">
              <path id="Trazado_992736" data-name="Trazado 992736" d="M236.807,254.024a2.25,2.25,0,0,1-2.25-2.25v-2.25h4.5v2.25A2.25,2.25,0,0,1,236.807,254.024Z" transform="translate(-229.327 -232.547)" fill="#8e58d1"/>
              <path id="Trazado_992737" data-name="Trazado 992737" d="M199.732,95.4a7.481,7.481,0,1,0-11.554,6.273,1.276,1.276,0,0,1,.529,1.008c0,1.958,1.587,2.777,3.545,2.777s3.545-.819,3.545-2.777a1.262,1.262,0,0,1,.519-1A7.473,7.473,0,0,0,199.732,95.4Z" transform="translate(-184.771 -87.923)" fill="#fdfd95"/>
            </g>
          </g>
        </g>
      </g>
      <g id="Grupo_1155650" data-name="Grupo 1155650" transform="translate(0)">
        <path id="Trazado_992738" data-name="Trazado 992738" d="M49.849,1.891H44.327A2.684,2.684,0,0,0,41.766,0H18.733a.788.788,0,0,0,0,1.576H41.766a1.1,1.1,0,0,1,0,2.206H12.023a1.1,1.1,0,0,1,0-2.206h2.51a.788.788,0,0,0,0-1.576h-2.51A2.684,2.684,0,0,0,9.462,1.891H3.94A3.944,3.944,0,0,0,0,5.831V36.244a3.944,3.944,0,0,0,3.94,3.94H26.106v6.55a3.572,3.572,0,1,0,1.576,0v-6.55H37.4a.788.788,0,0,0,0-1.576H3.94a2.366,2.366,0,0,1-2.364-2.364v-.72H52.213v.72a2.366,2.366,0,0,1-2.364,2.364H41.6a.788.788,0,0,0,0,1.576h8.247a3.944,3.944,0,0,0,3.94-3.94V5.831A3.944,3.944,0,0,0,49.849,1.891ZM28.89,50.217a2,2,0,1,1-2-2A2,2,0,0,1,28.89,50.217ZM1.576,33.949V5.831A2.366,2.366,0,0,1,3.94,3.467H9.462a2.684,2.684,0,0,0,2.561,1.891H41.766a2.684,2.684,0,0,0,2.561-1.891h5.522a2.366,2.366,0,0,1,2.364,2.364V33.949Z" transform="translate(0)"/>
        <path id="Trazado_992739" data-name="Trazado 992739" d="M185.535,80.436a8.285,8.285,0,0,0-4.3,15.2.5.5,0,0,1,.171.348,3.234,3.234,0,0,0,1.294,2.708v1.757a3.038,3.038,0,1,0,6.076,0V98.692a3.234,3.234,0,0,0,1.294-2.708.5.5,0,0,1,.16-.34c6.962-4.533,3.563-15.323-4.692-15.207Zm1.662,20.013a1.462,1.462,0,0,1-2.925,0V99.391a6.905,6.905,0,0,0,2.925,0Zm2.173-6.128a2.044,2.044,0,0,0-.878,1.663c0,.791-.364,1.715-1.969,1.938v-6.6a3,3,0,0,0,2.871-.774.788.788,0,0,0-1.114-1.114,1.417,1.417,0,0,1-1.987,0,.8.8,0,0,0-1.115,0,1.417,1.417,0,0,1-1.988,0,.788.788,0,0,0-1.114,1.114,3,3,0,0,0,2.871.774v6.6c-1.6-.223-1.969-1.147-1.969-1.938a2.057,2.057,0,0,0-.887-1.669,6.692,6.692,0,0,1,3.482-12.3C192.254,81.924,195.006,90.652,189.369,94.321Z" transform="translate(-158.842 -71.985)"/>
        <path id="Trazado_992740" data-name="Trazado 992740" d="M124.08,153.485h2.469a.788.788,0,0,0,0-1.576H124.08A.788.788,0,0,0,124.08,153.485Z" transform="translate(-110.346 -135.95)"/>
        <path id="Trazado_992741" data-name="Trazado 992741" d="M142.513,202.657l-2.156,1.2a.788.788,0,1,0,.767,1.376l2.156-1.2a.788.788,0,0,0-.767-1.376Z" transform="translate(-125.249 -181.275)"/>
        <path id="Trazado_992742" data-name="Trazado 992742" d="M339.078,204.871a.79.79,0,0,0,.4-1.464l-2.119-1.267a.788.788,0,1,0-.808,1.353l2.119,1.267A.783.783,0,0,0,339.078,204.871Z" transform="translate(-300.855 -180.804)"/>
        <path id="Trazado_992743" data-name="Trazado 992743" d="M349.6,152.058a.788.788,0,0,0,.788.788h2.469a.788.788,0,0,0,0-1.576h-2.469A.788.788,0,0,0,349.6,152.058Z" transform="translate(-312.875 -135.378)"/>
        <path id="Trazado_992744" data-name="Trazado 992744" d="M336.672,91.906a.785.785,0,0,0,.383-.1l2.156-1.2a.788.788,0,0,0-.767-1.376l-2.156,1.2A.79.79,0,0,0,336.672,91.906Z" transform="translate(-300.6 -79.762)"/>
        <path id="Trazado_992745" data-name="Trazado 992745" d="M140.364,90.526l2.119,1.267a.788.788,0,1,0,.808-1.353l-2.119-1.267A.788.788,0,0,0,140.364,90.526Z" transform="translate(-125.274 -79.703)"/>
        <path id="Trazado_992746" data-name="Trazado 992746" d="M359.223,274.916H349.052a.788.788,0,0,0,0,1.576h10.171A.788.788,0,0,0,359.223,274.916Z" transform="translate(-311.677 -246.034)"/>
        <path id="Trazado_992747" data-name="Trazado 992747" d="M62.88,274.916H52.709a.788.788,0,1,0,0,1.576H62.88A.788.788,0,0,0,62.88,274.916Z" transform="translate(-46.466 -246.034)"/>
        <path id="Trazado_992748" data-name="Trazado 992748" d="M52.768,243.6h3.4a.788.788,0,0,0,0-1.576h-3.4A.788.788,0,0,0,52.768,243.6Z" transform="translate(-46.525 -216.598)"/>
        <path id="Trazado_992749" data-name="Trazado 992749" d="M416.925,242.024h-3.4a.788.788,0,0,0,0,1.576h3.4A.788.788,0,0,0,416.925,242.024Z" transform="translate(-369.379 -216.598)"/>
      </g>
    </g>
  </g>
</svg>
