<svg xmlns="http://www.w3.org/2000/svg" xmlns:xlink="http://www.w3.org/1999/xlink" width="418" height="446.819" viewBox="0 0 418 446.819">
  <defs>
    <filter id="Trazado_992433" x="0" y="0" width="418" height="446.819" filterUnits="userSpaceOnUse">
      <feOffset dy="3" input="SourceAlpha"/>
      <feGaussianBlur stdDeviation="3" result="blur"/>
      <feFlood flood-opacity="0.161"/>
      <feComposite operator="in" in2="blur"/>
      <feComposite in="SourceGraphic"/>
    </filter>
  </defs>
  <g id="_38" data-name="38" transform="translate(-1011 -1690.412)">
    <g transform="matrix(1, 0, 0, 1, 1011, 1690.41)" filter="url(#Trazado_992433)">
      <path id="Trazado_992433-2" data-name="Trazado 992433" d="M69.237,216.466C45.748,289.083,133.614,406.348,152.992,396.1c7.27-3.845,1.58-23.878,12.082-32.394,14.54-11.794,41.534,13.575,69.5,33.671,37.176,26.717,121.474,76.746,148.742,47.8,18.774-19.92-3.454-62.44,20.736-91.825,19.027-23.117,41.142-7.779,54.159-28.913,17.111-27.78.971-90.831-25.192-126.359-8.871-12.046-37.853-46.674-42.263-61.723a110.4,110.4,0,0,0-9.712-22.2c-.511-.887-1.033-1.674-1.756-2.719-54.36-79.194-139.371-85.746-144.72-86.06C164.739,21.267,93.3,63.277,94.2,92.782c.5,16.464,23.22,19.322,25.771,41.23C123.5,164.342,82.047,176.873,69.237,216.466Z" transform="translate(-56.28 -19.1)" fill="#ac59f1"/>
    </g>
    <g id="_x31_1" transform="translate(852.209 1584.562)">
      <g id="Grupo_1155166" data-name="Grupo 1155166" transform="translate(191.775 111.85)">
        <g id="Grupo_1155127" data-name="Grupo 1155127" transform="translate(90.956 365.321)">
          <path id="Trazado_991788" data-name="Trazado 991788" d="M274.387,222.13a248.817,248.817,0,0,1-48.241-5.02c-7.166-1.434-13.675-3.033-19.407-4.741a320.648,320.648,0,0,1,10.253-40.412Z" transform="translate(-206.74 -171.956)" fill="#ff7866"/>
        </g>
        <g id="Grupo_1155128" data-name="Grupo 1155128" transform="translate(168.584 365.321)">
          <path id="Trazado_991789" data-name="Trazado 991789" d="M286.612,210.162c-4.577,1.489-9.536,2.923-14.83,4.3a247.777,247.777,0,0,1-44.606,7.111c-2.589.164-5.13.328-7.664.389L276.8,171.956A340.972,340.972,0,0,1,286.612,210.162Z" transform="translate(-219.512 -171.956)" fill="#ff7866"/>
        </g>
        <path id="Trazado_991790" data-name="Trazado 991790" d="M382.46,167.643c-4.741,37.6-10.2,66.985-14.058,82.538-.827,3.361-1.6,6.011-2.261,8.047-.5,1.434-.936,2.759-1.38,4.078-1.434,4.358-2.7,7.828-2.7,7.828-2.48,6.783-5.014,13.232-7.664,19.407q2.316,33.988,4.631,67.927a102.185,102.185,0,0,1-5.014,42.509,247.78,247.78,0,0,1-44.606,7.111c-2.589.164-5.13.328-7.664.389-3.361.109-6.728.164-9.98.164a248.817,248.817,0,0,1-48.241-5.02,100.045,100.045,0,0,1-9.153-45.153c.055-.881.055-1.708.109-2.589.328-8.764.662-17.48.991-26.3a3.664,3.664,0,0,0,.055-.772c0-.444.055-.881.055-1.325.055-1.045.055-2.152.109-3.252.109-2.1.164-4.248.274-6.394.055-1.38.109-2.814.164-4.242a12.115,12.115,0,0,1,.055-1.38c.219-5.732.444-11.524.662-17.31-.274-.553-.553-1.1-.827-1.653-1.325-2.48-2.589-5.075-3.859-7.719-.055,0-2.37-4.85-4.522-9.761-.5-1.155-1.21-3.2-2.1-6.12-1.27-4.078-2.869-9.761-4.631-16.927-1.27-5.014-2.7-10.7-4.133-17.036-3.914-16.763-8.381-37.932-12.788-62.135-.219-1.27-.444-2.535-.662-3.8.219-.219.444-.389.662-.608a124.6,124.6,0,0,1,35.064-22.829,120.643,120.643,0,0,1,27.126-8.047c.219,0,.389-.055.5-.055,1.987-.334,3.859-.608,5.677-.827a141.637,141.637,0,0,1,19.905-.936h.662c.772,0,1.489.055,2.261.055a14.561,14.561,0,0,0,1.544.055,149.449,149.449,0,0,1,19.3,2.206c1.927.389,3.8.772,5.677,1.216.274.055.553.109.881.164a153.539,153.539,0,0,1,34.018,12.46,169.4,169.4,0,0,1,17.59,10.2C377.495,164,380.254,165.989,382.46,167.643Z" transform="translate(-133.155 7.852)" fill="#ff7866"/>
        <path id="Trazado_991791" data-name="Trazado 991791" d="M274.268,202.325h-61.01q3.565-36.869,7.135-73.731h48.277Q271.469,165.463,274.268,202.325Z" transform="translate(-82.686 -26.825)" fill="#ff7866"/>
        <path id="Trazado_991792" data-name="Trazado 991792" d="M228.4,313.563l-35.459-10.357c6.029-26.779,12.18-49.025,17.067-65.472,21.255-71.507,34.754-87.486,49.462-91.388.322-.085,2.358-.255,5.112-.881a50.5,50.5,0,0,0,13.226-5.057q-5.242,43.433-10.484,86.86Q247.858,270.4,228.4,313.563Z" transform="translate(-185.854 33.171)" fill="#ff7866"/>
        <path id="Trazado_991793" data-name="Trazado 991793" d="M252.939,153.253c0,15.535-8.412,28.129-18.787,28.129s-18.787-12.594-18.787-28.129,8.412-28.129,18.787-28.129S252.939,137.724,252.939,153.253Z" transform="translate(-71.986 -44.445)"/>
        <path id="Trazado_991794" data-name="Trazado 991794" d="M248.22,215.024a35.962,35.962,0,0,1-35.963-35.963V126.492a64.625,64.625,0,0,1,71.926,0V179.06A35.962,35.962,0,0,1,248.22,215.024Z" transform="translate(-87.769 -93.003)" fill="#ff7866"/>
        <ellipse id="Elipse_11829" data-name="Elipse 11829" cx="9.864" cy="11.822" rx="9.864" ry="11.822" transform="translate(115.882 60.494)" fill="#ff7866"/>
        <ellipse id="Elipse_11830" data-name="Elipse 11830" cx="9.864" cy="11.822" rx="9.864" ry="11.822" transform="translate(185.286 60.494)" fill="#ff7866"/>
        <path id="Trazado_991795" data-name="Trazado 991795" d="M216.953,140.989c2.194,4.534,6.7,6.345,9.658,5.039,2.456-1.088,3.227-4.06,3.361-4.619Z" transform="translate(-63.923 36.116)"/>
        <path id="Trazado_991796" data-name="Trazado 991796" d="M207.963,140.93a39.9,39.9,0,0,0,15.11,6.436,40.8,40.8,0,0,0,24.069-2.8Z" transform="translate(-109.573 35.816)"/>
        <path id="Trazado_991797" data-name="Trazado 991797" d="M221.725,145.553a39.851,39.851,0,0,0,16.131,3.106,40.777,40.777,0,0,0,22.938-7.81Z" transform="translate(-39.691 35.405)"/>
        <g id="Grupo_1155130" data-name="Grupo 1155130" transform="translate(169.902 67.623)">
          <g id="Grupo_1155129" data-name="Grupo 1155129" transform="translate(0 0.495)">
            <path id="Trazado_991798" data-name="Trazado 991798" d="M220.186,128.257a.481.481,0,0,1-.328-.134.453.453,0,0,1,.012-.644,15.64,15.64,0,0,1,9.579-4.382,16.1,16.1,0,0,1,10.74,3.209.46.46,0,0,1-.559.729,14.718,14.718,0,0,0-10.108-3.021,14.9,14.9,0,0,0-9.014,4.121A.5.5,0,0,1,220.186,128.257Z" transform="translate(-219.729 -123.057)"/>
          </g>
          <path id="Trazado_991799" data-name="Trazado 991799" d="M228.005,127.06a3.758,3.758,0,1,1-3.744-4.084A3.927,3.927,0,0,1,228.005,127.06Z" transform="translate(-215.727 -122.976)"/>
        </g>
        <path id="Trazado_991800" data-name="Trazado 991800" d="M241.738,127.989a14.8,14.8,0,0,0-3.689-.693c-2.966-.164-9.257.681-17.286,2.68a7.717,7.717,0,0,1-1.489-4.267,7.636,7.636,0,0,1,.912-3.878,77.242,77.242,0,0,0,12.113-.389,20.743,20.743,0,0,1,7.81.438,7.348,7.348,0,0,1,2.893,1.24c2.65,2.073,2.522,6.011,2.468,6.959A12.425,12.425,0,0,0,241.738,127.989Z" transform="translate(-52.161 -64.074)"/>
        <g id="Grupo_1155132" data-name="Grupo 1155132" transform="translate(131.042 68.207)">
          <g id="Grupo_1155131" data-name="Grupo 1155131" transform="translate(0 0.493)">
            <path id="Trazado_991801" data-name="Trazado 991801" d="M233.513,128.355a.5.5,0,0,1-.322-.128,14.77,14.77,0,0,0-9.007-4.121c-.4-.036-.784-.049-1.167-.049a14.907,14.907,0,0,0-8.947,3.069.445.445,0,0,1-.638-.085.455.455,0,0,1,.079-.638,15.988,15.988,0,0,1,10.74-3.209,15.722,15.722,0,0,1,9.579,4.382.459.459,0,0,1,.006.644A.478.478,0,0,1,233.513,128.355Z" transform="translate(-213.335 -123.153)"/>
          </g>
          <path id="Trazado_991802" data-name="Trazado 991802" d="M214.632,127.156a3.758,3.758,0,1,0,3.744-4.084A3.927,3.927,0,0,0,214.632,127.156Z" transform="translate(-206.75 -123.072)"/>
        </g>
        <path id="Trazado_991803" data-name="Trazado 991803" d="M216.495,127.525a14.8,14.8,0,0,1,3.689-.693c2.966-.164,9.257.681,17.286,2.68a7.717,7.717,0,0,0,1.489-4.267,7.637,7.637,0,0,0-.912-3.878,77.249,77.249,0,0,1-12.113-.389,20.742,20.742,0,0,0-7.81.438,7.348,7.348,0,0,0-2.893,1.24c-2.65,2.073-2.522,6.011-2.468,6.959A12.582,12.582,0,0,1,216.495,127.525Z" transform="translate(-85.303 -66.43)"/>
        <path id="Trazado_991804" data-name="Trazado 991804" d="M217.426,127.093a7.638,7.638,0,0,0,4.759,1.817,7.791,7.791,0,0,0,5.6-2.376Z" transform="translate(-61.521 -37.286)"/>
        <g id="Grupo_1155133" data-name="Grupo 1155133" transform="translate(148.486 102.871)">
          <path id="Trazado_991805" data-name="Trazado 991805" d="M226.761,132.086a24.828,24.828,0,0,1-10.29-2.437.458.458,0,0,1-.225-.608.468.468,0,0,1,.608-.225,23.178,23.178,0,0,0,11.08,2.322c1.173-.073,3.294-.383,7.525-1l.346-.049c1.969-.286,3.616-.535,4.8-.717l.3-.049a.437.437,0,0,1,.517.383.463.463,0,0,1-.383.523l-.3.049c-1.185.176-2.838.432-4.808.717l-.346.049c-4.255.626-6.388.93-7.6,1.009C227.582,132.073,227.174,132.086,226.761,132.086Z" transform="translate(-216.205 -128.775)"/>
        </g>
        <g id="Grupo_1155134" data-name="Grupo 1155134" transform="translate(158.388 109.16)">
          <path id="Trazado_991806" data-name="Trazado 991806" d="M218.288,131.974a.455.455,0,0,1-.061-.906l9.791-1.258a.463.463,0,0,1,.511.389.453.453,0,0,1-.389.511l-9.791,1.258A.226.226,0,0,1,218.288,131.974Z" transform="translate(-217.834 -129.81)"/>
        </g>
        <path id="Trazado_991807" data-name="Trazado 991807" d="M394.431,180.453q-4.549,61.2-9.208,122.343c-.219,3.306-.5,6.558-.717,9.871-.055,1.045-.164,1.987-.273,3.033q-2.48,33.906-5.075,67.708c.109,7.439.164,14.885.219,22.385-1.1.383-2.206.717-3.361,1.1-4.577,1.489-9.536,2.923-14.83,4.3a247.777,247.777,0,0,1-44.606,7.111c-2.589.164-5.13.328-7.664.389-3.361.109-6.728.164-9.98.164a248.817,248.817,0,0,1-48.241-5.02c-7.166-1.434-13.675-3.033-19.407-4.741-1.544-.389-2.978-.827-4.413-1.27q.583-9.181,1.161-18.361c-1.27-9.646-2.48-19.352-3.75-29-.274-2.206-.553-4.467-.827-6.674-.109-.717-.164-1.434-.274-2.152-.164-1.045-.274-2.1-.438-3.142-.164-1.708-.389-3.416-.608-5.13-.109-.608-.164-1.106-.273-1.708-.164-1.325-.328-2.644-.5-3.914-.055-.717-.164-1.434-.274-2.152-.608-4.8-1.21-9.6-1.817-14.338q-.748-5.871-1.489-11.743c-.772-6.066-1.6-12.132-2.37-18.191q-.665-5.215-1.325-10.418-5.871-45.731-11.743-91.522c-.164-1.1-.274-2.206-.444-3.306,1.045-.991,2.1-2.042,3.2-3.033a171.411,171.411,0,0,1,16.429-13.615A188.331,188.331,0,0,1,269,144.016c.273-2.65.553-5.294.827-7.993.717.164,1.434.334,2.152.5.991.219,1.987.444,2.978.662,8.655,1.927,17.365,3.859,26.026,5.786.109-.055.219-.055.328-.109q13.648-4.385,27.235-8.764c.772-.219,1.6-.5,2.37-.717.164-.055.273-.109.444-.164q.082,5.543.164,11.08a228.2,228.2,0,0,1,38.54,18.908c2.644,1.544,5.184,3.2,7.774,4.96,4.959,3.306,9.591,6.674,13.839,10.089C392.607,178.964,393.549,179.736,394.431,180.453Z" transform="translate(-140.33 -3.36)" fill="#a3f0f3"/>
        <path id="Trazado_991808" data-name="Trazado 991808" d="M236.167,307.95q-21.571-4.713-43.147-9.433c3.756-18.13,8.54-37.525,14.654-57.892A682.646,682.646,0,0,1,235.76,164.03a101.9,101.9,0,0,1,45.1-24.828l-8.023,98.025Q254.5,272.582,236.167,307.95Z" transform="translate(-185.453 27.042)" fill="#a3f0f3"/>
        <path id="Trazado_991809" data-name="Trazado 991809" d="M251.875,318.966l36.8-3.306c-.735-27.442-2.468-50.453-4.09-67.538-7.026-74.266-17.182-92.555-30.858-99.229-.3-.146-2.261-.711-4.844-1.854a50.473,50.473,0,0,1-12-7.518q-3.255,43.624-6.5,87.249Q241.126,272.865,251.875,318.966Z" transform="translate(4.244 28.662)" fill="#ff7866"/>
        <path id="Trazado_991810" data-name="Trazado 991810" d="M255.5,313.784l44.156-.912c-.182-18.519-1.124-38.467-3.185-59.637a683.713,683.713,0,0,0-12.745-80.575,77.642,77.642,0,0,0-18.21-19.577,79.044,79.044,0,0,0-36.984-15.122L233.2,237.3Q244.341,275.553,255.5,313.784Z" transform="translate(-5.125 20.74)" fill="#a3f0f3"/>
        <path id="Trazado_991811" data-name="Trazado 991811" d="M291.211,225.26c.055,1.544.055,2.978.055,4.413v1.38c0,.991,0,1.987-.055,2.923,0,1.1-.055,2.1-.109,3.142a13.529,13.529,0,0,1-.055,1.489c0,.662-.055,1.325-.109,1.981,0,.389-.055.772-.055,1.161-.055.553-.109,1.1-.164,1.653-.164,2.206-.5,4.3-.827,6.339-.164.936-.383,1.878-.608,2.814a4.7,4.7,0,0,1-.219.936c-.109.444-.219.881-.328,1.27a35.726,35.726,0,0,1-1.27,3.969,6.134,6.134,0,0,1-.334.991c-.273.772-.553,1.434-.881,2.206a13.345,13.345,0,0,1-.827,1.817c-.164.383-.383.827-.553,1.216-.219.383-.438.772-.662,1.155a2.084,2.084,0,0,1-.219.5c-.109.164-.164.328-.273.5a8.1,8.1,0,0,1-.444.772,64.087,64.087,0,0,1-12.624,15.657c-1.27,1.38-6.5,6.947-14.611,7.33-8.935.444-17.644-5.677-21.5-15.274a174.737,174.737,0,0,1,3.641-23.43c.219-1.216.5-2.316.717-3.361.273-.881.444-1.653.662-2.425.553-2.1,1.106-4.078,1.653-6.011q.83-2.644,1.653-5.13c.936-2.978,1.987-5.786,3.033-8.491.164-.389.328-.827.5-1.216.219-.608.444-1.161.717-1.763.164-.444.328-.881.5-1.27.444-1.045.827-2.042,1.27-3.033.273-.608.553-1.27.772-1.872.274-.553.553-1.161.772-1.708.274-.608.553-1.161.772-1.708a5.878,5.878,0,0,1,.274-.553c.389-.881.772-1.708,1.161-2.535.383-.936.827-1.872,1.27-2.753a15.041,15.041,0,0,1,.717-1.653c.109-.219.219-.5.334-.717.164-.438.389-.881.608-1.38.328-.772.663-1.544,1.045-2.316.164-.444.389-.827.553-1.27.662-1.489,1.325-3.033,1.927-4.522.219-.608.5-1.161.717-1.708.991-2.535,1.987-5.069,2.869-7.719.109-.389.273-.772.389-1.155a119.375,119.375,0,0,0,4.9-21.558,126.137,126.137,0,0,0,1.1-18.137q12.326,3.884,24.646,7.774c-1.817,16.818-2.425,30.657-2.589,40.358,0,.936-.055,1.817-.055,2.7v3.033q-.082,4.878,0,9.263v3.586c0,1.045.055,2.1.055,3.142v1.544c.055,1.1.055,2.206.055,3.306.055,1.489.055,2.923.055,4.3C291.266,225.26,291.266,225.26,291.211,225.26Z" transform="translate(25.353 62.598)" fill="#ff7866"/>
        <path id="Trazado_991812" data-name="Trazado 991812" d="M233.738,203.1c.529-1.483,2.838-1.629,3.993-1.7.814.067,3.434.018,8.886,4.552a52.786,52.786,0,0,1,7.841,7.962c2.851,1.951,4.613,1.623,5.616,1.143,1.246-.748,4.461-4.267-.292-36.395,0,0-1.459-10.174-2.571-20.045-.407-1.282-5.075-16.344-.815-18.732a3.054,3.054,0,0,1,2.115-.243c2.905,3.167,4.109,7.111,5.026,12.034s1.556,10.831,3.519,18.033a116.8,116.8,0,0,0,4.972,14.21,4.1,4.1,0,0,0,2.48-.772c3.464-2.96.754-12.5.219-28.615-.359-6.886-.8-21.631,2.729-22.6,1.167-.371,2.516,1.076,3.075,1.586,5.689,5.239,4.024,14.7,3.562,24.044a142.4,142.4,0,0,0,1.441,27.934q1.915-11.852,3.549-24.391,1.349-10.384,2.377-20.367a4.982,4.982,0,0,1,3.659.091c2.857,1.355,4.182,6.43,2.382,12.435q-1.45,18.307-2.887,36.62c1.836.735,3.525,1.5,5.209,2.273a162.57,162.57,0,0,0,5.373-21.7c.991-5.44,1.781-11.141,3.9-11.384,1.52-.128,2.972,2.686,3.027,2.984,1.805,3.258,1.586,7.342.425,13.256-3.671,12.405-6.139,21.546-6.54,23.479-.4,1.9-.65,3.714-.65,3.72-.055.389-.128.93-.207,1.641-.043.4-.194,1.884-.219,3.586-.03,2.145.164,2.753.237,4.735a48.3,48.3,0,0,1-.164,5c-1.848,24.36-29.715,35.276-29.515,30.493-6.017-6.4-26.682-23.582-26.682-23.582C235.828,213.523,233.19,204.886,233.738,203.1Z" transform="translate(20.971 -10.149)" fill="#ff7866"/>
        <path id="Trazado_991813" data-name="Trazado 991813" d="M291.3,198.229a31.107,31.107,0,0,1-58.974,3.9q9.445-20.431,18.89-40.856c.906-.115,1.805-.231,2.711-.353-9.044,25.315-.286,46.326,11.062,49.742C276.647,214.178,290.608,199,291.3,198.229Z" transform="translate(14.146 137.34)" fill="#e2fafb"/>
        <g id="Grupo_1155135" data-name="Grupo 1155135" transform="translate(129.291 140.415)">
          <path id="Trazado_991814" data-name="Trazado 991814" d="M233.377,161.237a.457.457,0,0,1-.359-.176l-19.875-25.369a.455.455,0,0,1,.079-.638.444.444,0,0,1,.638.079L233.741,160.5a.448.448,0,0,1-.079.632A.471.471,0,0,1,233.377,161.237Z" transform="translate(-213.047 -134.952)"/>
        </g>
        <g id="Grupo_1155136" data-name="Grupo 1155136" transform="translate(149.168 139.164)">
          <path id="Trazado_991815" data-name="Trazado 991815" d="M216.77,162.282c-.407-.128-.517-.4-.419-.632l11.038-26.621a.457.457,0,1,1,.845.346L217.2,162A.464.464,0,0,1,216.77,162.282Z" transform="translate(-216.317 -134.747)"/>
        </g>
        <g id="Grupo_1155137" data-name="Grupo 1155137" transform="translate(159.987 138.176)">
          <path id="Trazado_991816" data-name="Trazado 991816" d="M237.379,164.141a.466.466,0,0,1-.383-.207l-18.823-28.639a.459.459,0,0,1,.128-.632.446.446,0,0,1,.632.128l18.823,28.639a.459.459,0,0,1-.128.632A.406.406,0,0,1,237.379,164.141Z" transform="translate(-218.098 -134.584)"/>
        </g>
        <g id="Grupo_1155138" data-name="Grupo 1155138" transform="translate(178.818 140.489)">
          <path id="Trazado_991817" data-name="Trazado 991817" d="M221.647,162.209c-.419-.14-.517-.413-.413-.644l11.907-26.33a.45.45,0,0,1,.6-.225.461.461,0,0,1,.231.608l-11.907,26.33A.463.463,0,0,1,221.647,162.209Z" transform="translate(-221.196 -134.965)"/>
        </g>
        <path id="Trazado_991818" data-name="Trazado 991818" d="M238.142,169.419c-.109.492-1.526,6.473-6.716,8.424-5.057,1.9-11.645-.808-14.678-6.941q4.44-18.042,8.88-36.079Q231.882,152.118,238.142,169.419Z" transform="translate(-64.964 4.805)" fill="#e23e64"/>
        <path id="Trazado_991819" data-name="Trazado 991819" d="M259.35,242.645q-11.5,13.2-22.987,26.4l-21.169-27.77q8.88-49.733,17.754-99.472c2.127.189,4.248.377,6.376.571Q249.334,192.511,259.35,242.645Z" transform="translate(-72.855 40.265)" fill="#e23e64"/>
        <g id="Grupo_1155151" data-name="Grupo 1155151" transform="translate(7.022 218.76)">
          <g id="Grupo_1155145" data-name="Grupo 1155145" transform="translate(62.155)">
            <path id="Trazado_991820" data-name="Trazado 991820" d="M345.292,184.028l-18.471,56.9L325,246.6l-.109.334c-.055.164-2.206,6.783-2.206,6.783l-.772,2.316-2.1,6.449-1.708,5.4-1.045,3.2L304.66,309.288a4.8,4.8,0,0,1-6.066,3.088L215.066,285.25l-1.38-.389-3.2-1.045-3.142-1.045-.881-.273a4.039,4.039,0,0,1-1.38-.717,4.571,4.571,0,0,1-1.872-4.413,2.789,2.789,0,0,1,.164-.936l.164-.553.827-2.48.444-1.489c.055,0,1.987-6.066,1.987-6.066l.663-1.987,1.27-3.859,1.434-4.467.109-.328.389-1.155,3.2-9.98.5-1.544c.055,0,1.216-3.7,1.216-3.7l1.161-3.531.662-2.1.827-2.425.273-.991c.055-.055,1.933-5.841,1.933-5.841l.328-1.045.717-2.206.553-1.762.827-2.48.444-1.325.273-.881.444-1.325.164-.553.608-1.933.608-1.872.444-1.38.444-1.27.553-1.762c.109-.219.553-1.653.553-1.653l.273-.772.444-1.38,2.37-7.385.389-1.216.608-1.817.936-2.978.717-2.152.5-1.544,10.418-32.085a4.824,4.824,0,0,1,6.066-3.088l92.129,29.885A4.822,4.822,0,0,1,345.292,184.028Z" transform="translate(-203.157 -147.842)" fill="#fedd4d"/>
            <g id="Grupo_1155144" data-name="Grupo 1155144" transform="translate(42.611 35.015)">
              <path id="Trazado_991821" data-name="Trazado 991821" d="M266.331,207.421,212.6,189.99a3.5,3.5,0,0,1-2.255-4.425l9.585-29.533a3.5,3.5,0,0,1,4.425-2.255l53.735,17.432a3.507,3.507,0,0,1,2.255,4.425l-9.585,29.533A3.519,3.519,0,0,1,266.331,207.421Z" transform="translate(-210.167 -153.603)" fill="#fff"/>
              <g id="Grupo_1155143" data-name="Grupo 1155143" transform="translate(8.374 9.608)">
                <g id="Grupo_1155139" data-name="Grupo 1155139" transform="translate(5.95)">
                  <path id="Trazado_991822" data-name="Trazado 991822" d="M259.81,171.289c-.14-.024-46.97-15.213-46.97-15.213a.454.454,0,0,1-.292-.577.465.465,0,0,1,.571-.292L259.949,170.4a.454.454,0,0,1,.292.577A.448.448,0,0,1,259.81,171.289Z" transform="translate(-212.524 -155.184)"/>
                </g>
                <g id="Grupo_1155140" data-name="Grupo 1155140" transform="translate(3.999 6.006)">
                  <path id="Trazado_991823" data-name="Trazado 991823" d="M259.489,172.288c-.14-.024-46.97-15.219-46.97-15.219a.457.457,0,0,1,.28-.869l46.831,15.195a.454.454,0,0,1,.292.577A.448.448,0,0,1,259.489,172.288Z" transform="translate(-212.203 -156.173)"/>
                </g>
                <g id="Grupo_1155141" data-name="Grupo 1155141" transform="translate(1.945 12.34)">
                  <path id="Trazado_991824" data-name="Trazado 991824" d="M259.151,173.324c-.14-.024-46.97-15.213-46.97-15.213a.457.457,0,0,1,.279-.869l46.831,15.189a.459.459,0,0,1,.292.577A.449.449,0,0,1,259.151,173.324Z" transform="translate(-211.865 -157.214)"/>
                </g>
                <g id="Grupo_1155142" data-name="Grupo 1155142" transform="translate(0 18.353)">
                  <path id="Trazado_991825" data-name="Trazado 991825" d="M258.825,174.317c-.14-.024-46.964-15.219-46.964-15.219a.457.457,0,0,1,.28-.869l46.831,15.195a.458.458,0,0,1-.146.893Z" transform="translate(-211.545 -158.204)"/>
                </g>
              </g>
            </g>
          </g>
          <path id="Trazado_991826" data-name="Trazado 991826" d="M326.594,177.646q-4.8,2.726-9.1,5.294a13.326,13.326,0,0,0-1.161.717c-.717.389-1.38.772-2.042,1.216a13.268,13.268,0,0,0-1.155.717c-1.161.662-2.261,1.38-3.361,2.042-.5.328-.936.608-1.38.881-.772.5-1.544.936-2.261,1.434-.553.328-1.1.662-1.6.991-.717.438-1.045.717-1.434.936s-.772.5-1.155.772a15.4,15.4,0,0,0-1.6,1.045c-.881.553-1.653,1.045-2.425,1.6-1.27.827-2.37,1.544-3.416,2.316-.389.219-.772.5-1.161.717-.334.274-.717.5-1.045.717-.273.164-.5.328-.772.5a25.321,25.321,0,0,1-2.152,1.489q-3.063,2.152-5.786,4.133a8.738,8.738,0,0,0-1.106.827c-.827.553-1.6,1.1-2.37,1.708-1.38.991-2.644,1.872-3.8,2.759-1.1.827-2.152,1.6-3.2,2.37-.334.273-.717.553-1.045.772-1.653,1.27-3.2,2.425-4.741,3.586-1.216.827-2.261,1.653-3.306,2.37-.444.328-.881.608-1.27.936l-.991.662c-1.872,1.325-3.641,2.535-5.349,3.641-1.325.827-2.534,1.6-3.8,2.316a33.824,33.824,0,0,1-3.252,1.878c-.608.328-1.216.608-1.762.881a13.107,13.107,0,0,1-1.763.827c-.772.389-1.544.717-2.37,1.045-.772.334-1.6.662-2.425.936-.274.11-.5.164-.717.274-.389.109-.827.274-1.27.383-.444.164-.881.274-1.38.444-.444.109-.881.273-1.38.389-.608.164-1.216.274-1.872.383a14.9,14.9,0,0,1-1.489.383c-.717.109-1.434.219-2.206.334-.608.11-1.216.219-1.817.274a17.7,17.7,0,0,1-2.316.164,9.572,9.572,0,0,1-1.763.109,47.505,47.505,0,0,1-6.838,0,12.643,12.643,0,0,1-1.434-.109h-.389c-1.155-.109-2.261-.219-3.307-.383q-1.322-.164-2.48-.328a14.219,14.219,0,0,0-1.489-.274,8.223,8.223,0,0,0-.991-.219c-.5-.328-1.216-.827-2.042-1.434a11.379,11.379,0,0,1-1.045-.827,21.68,21.68,0,0,1-1.817-1.653,10.822,10.822,0,0,1-1.708-1.817,11.509,11.509,0,0,1-1.981-2.37,17.538,17.538,0,0,1-1.216-1.6,24.323,24.323,0,0,1-1.927-3.586,10.271,10.271,0,0,1-.881-1.981c-.109-.164-.164-.334-.274-.5a7.594,7.594,0,0,1-.389-1.325,15.032,15.032,0,0,1-.717-2.425,15.554,15.554,0,0,1-.444-1.987,2.448,2.448,0,0,1-.109-.553,5.492,5.492,0,0,1-.164-1.325,30.486,30.486,0,0,1,.164-8.989c9.1-5.677,17.036-9.87,23.157-12.9.5-.219,1.045-.5,1.489-.717.717-.328,1.38-.662,1.987-.936.383-.164.662-.383,1.045-.553.772-.274,1.38-.553,1.987-.827.328-.164.608-.274.881-.389.444-.219.881-.438,1.325-.608a18.464,18.464,0,0,1,1.872-.827c.444-.219.881-.389,1.27-.553,2.923-1.27,5.786-2.425,8.6-3.531.881-.328,1.708-.662,2.589-.991l3.142-1.161c.936-.328,1.817-.662,2.7-.936,1.434-.553,2.869-.991,4.3-1.489.5-.164.991-.328,1.489-.5,1.653-.553,3.252-1.045,4.85-1.544.5-.11.936-.274,1.38-.389,2.042-.608,3.969-1.161,5.9-1.708.827-.219,1.653-.444,2.48-.662,1.325-.383,2.589-.717,3.859-1.045a16.883,16.883,0,0,0,1.708-.444c1.1-.219,2.152-.5,3.2-.772,2.923-.717,5.731-1.325,8.491-1.933,1.1-.274,2.206-.5,3.252-.662.5-.164.991-.219,1.434-.334.936-.164,1.817-.389,2.7-.553a14.2,14.2,0,0,1,1.489-.273c1.155-.274,2.316-.5,3.416-.662.5-.109.991-.219,1.434-.274,2.206-.444,4.358-.827,6.394-1.216,1.708-.328,3.306-.608,4.85-.827a14.224,14.224,0,0,1,1.489-.274,21.776,21.776,0,0,0,2.152-.383,11.27,11.27,0,0,0,1.434-.219c.827-.109,1.489-.219,2.152-.328q1.24-.164,2.152-.328c.164.274.273.553.444.827.055.11.164.274.219.389a4.527,4.527,0,0,0,.389.772c.553.991,1.1,1.981,1.6,2.978.164.328.219.444.273.553.164.274.328.553.444.772.444.827.827,1.6,1.27,2.37C323.562,171.915,325.105,174.784,326.594,177.646Z" transform="translate(-192.93 -84.182)" fill="#ff7866"/>
          <g id="Grupo_1155150" data-name="Grupo 1155150" transform="translate(110.386 73.927)">
            <g id="Grupo_1155146" data-name="Grupo 1155146">
              <path id="Trazado_991827" data-name="Trazado 991827" d="M299.21,185.424c-.334,1.872-14.168,1.434-41.628-1.38,10.916,2.1,19.462,3.641,25.309,4.686,4.9.827,11.8,2.042,11.8,3.586,0,.662-1.1,1.1-1.544,1.27-6.23,2.644-33.082.608-38.206.219,18.082,4.631,27.071,7.61,26.8,8.935-.219,1.434-11.3.936-33.192-1.489-3.252-1.27-6.449-2.48-9.706-3.75-.5-.164-.936-.383-1.434-.553-.881-.328-1.708-.662-2.589-.991-.438-.164-.827-.328-1.27-.5s-.881-.328-1.325-.5a9.955,9.955,0,0,0-1.155-.438c-.164-.055-.328-.164-.5-.219-.5-.164-.991-.389-1.489-.553-1.161-.438-2.37-.936-3.531-1.38a10.788,10.788,0,0,0-1.21-.444c-.717-.274-1.38-.553-2.1-.827-.389-.164-.827-.328-1.216-.5-1.489-.553-2.978-1.106-4.467-1.708a13.139,13.139,0,0,0-1.27-.444c-.608-.274-1.27-.5-1.878-.772a8.8,8.8,0,0,1-1.1-.438,12.837,12.837,0,0,1-1.216-.444c.055-.991.164-1.933.219-2.923.219-2.7.444-5.349.662-7.992.383-4.686.717-9.318,1.1-13.949,4.9-.109,9.816-.164,14.721-.274,9.372-.164,18.8-.383,28.232-.553a143.806,143.806,0,0,1,20.343,7.446c10.7,4.8,23.54,12.077,22.877,13.785-.274.553-2.1.662-8.381-.936C296.566,183.218,299.374,184.6,299.21,185.424Z" transform="translate(-211.092 -154.418)" fill="#ff7866"/>
              <path id="Trazado_991828" data-name="Trazado 991828" d="M248.995,163.321q6.236,3.2,5.865,5.13-.52,2.7-13.925,2.93-13.174-.738-26.348-1.489l-3.136-2.17c3.938-2.662,16-10.029,30.086-7A32.812,32.812,0,0,1,248.995,163.321Z" transform="translate(-209.269 -160.006)" fill="#ff7866"/>
            </g>
            <g id="Grupo_1155147" data-name="Grupo 1155147" transform="translate(65.986 21.853)">
              <path id="Trazado_991829" data-name="Trazado 991829" d="M236.119,169.405c-.152-.03-13.87-4.923-13.87-4.923a.46.46,0,0,1-.273-.583.468.468,0,0,1,.583-.274l13.718,4.893a.458.458,0,0,1-.158.887Z" transform="translate(-221.949 -163.601)"/>
            </g>
            <g id="Grupo_1155148" data-name="Grupo 1155148" transform="translate(45.468 18.815)">
              <path id="Trazado_991830" data-name="Trazado 991830" d="M234.492,164.887c-.024,0-15.493-.869-15.493-.869a.455.455,0,0,1-.426-.48.434.434,0,0,1,.48-.431l15.462.875a.455.455,0,0,1,.425.48A.444.444,0,0,1,234.492,164.887Z" transform="translate(-218.573 -163.101)"/>
            </g>
            <g id="Grupo_1155149" data-name="Grupo 1155149" transform="translate(18.166 5.771)">
              <path id="Trazado_991831" data-name="Trazado 991831" d="M239.183,162.754l-24.664-.887a.456.456,0,0,1,.018-.912l24.664.887a.456.456,0,0,1-.018.912Z" transform="translate(-214.081 -160.955)"/>
            </g>
          </g>
        </g>
        <g id="Grupo_1155152" data-name="Grupo 1155152" transform="translate(52.429 189.945)">
          <path id="Trazado_991832" data-name="Trazado 991832" d="M203.36,160.275a.452.452,0,0,1-.45-.389l-2.5-16.246a.463.463,0,0,1,.383-.523.424.424,0,0,1,.517.383l2.5,16.246a.463.463,0,0,1-.383.523A.251.251,0,0,1,203.36,160.275Z" transform="translate(-200.401 -143.102)"/>
        </g>
        <g id="Grupo_1155153" data-name="Grupo 1155153" transform="translate(59.938 215.542)">
          <path id="Trazado_991833" data-name="Trazado 991833" d="M213.017,206.944a.456.456,0,0,1-.45-.371l-10.922-58.725a.461.461,0,0,1,.365-.535.487.487,0,0,1,.529.371l10.922,58.725a.461.461,0,0,1-.365.535A.342.342,0,0,0,213.017,206.944Z" transform="translate(-201.637 -147.313)"/>
        </g>
        <g id="Grupo_1155154" data-name="Grupo 1155154" transform="translate(243.709 285.179)">
          <path id="Trazado_991834" data-name="Trazado 991834" d="M232.327,183.359a.472.472,0,0,1-.45-.523l3.337-23.674a.433.433,0,0,1,.511-.383.458.458,0,0,1,.389.517l-3.337,23.674A.452.452,0,0,1,232.327,183.359Z" transform="translate(-231.872 -158.77)"/>
        </g>
        <g id="Grupo_1155155" data-name="Grupo 1155155" transform="translate(248.861 208.315)">
          <path id="Trazado_991835" data-name="Trazado 991835" d="M233.176,212.525a.477.477,0,0,1-.45-.541l12.065-65.49a.509.509,0,0,1,.529-.371.466.466,0,0,1,.365.535L233.62,212.143A.45.45,0,0,1,233.176,212.525Z" transform="translate(-232.72 -146.124)"/>
        </g>
        <g id="Grupo_1155156" data-name="Grupo 1155156" transform="translate(289.035 201.318)">
          <path id="Trazado_991836" data-name="Trazado 991836" d="M260.385,166.43a.448.448,0,0,1-.444-.371,25.578,25.578,0,0,0-3.8-9.123,27.541,27.541,0,0,0-16.465-11.062.459.459,0,0,1-.334-.553.482.482,0,0,1,.547-.34c4.151,1,11.882,3.817,17.006,11.445a26.41,26.41,0,0,1,3.932,9.457.451.451,0,0,1-.352.535A.462.462,0,0,1,260.385,166.43Z" transform="translate(-239.33 -144.973)"/>
        </g>
        <path id="Trazado_991837" data-name="Trazado 991837" d="M269.584,161.6a133.568,133.568,0,0,1-15.857.377,134.456,134.456,0,0,1-14.49-1.288q.492-5.27.985-10.545a56.187,56.187,0,0,0,29.29-.225Q269.539,155.765,269.584,161.6Z" transform="translate(49.234 81.472)"/>
        <path id="Trazado_991838" data-name="Trazado 991838" d="M241.047,151.4a.681.681,0,1,1-.681-.681A.68.68,0,0,1,241.047,151.4Z" transform="translate(51.514 85.529)" fill="#d2eaff"/>
        <path id="Trazado_991839" data-name="Trazado 991839" d="M241.8,151.514a.681.681,0,1,1-.681-.681A.68.68,0,0,1,241.8,151.514Z" transform="translate(55.312 86.103)" fill="#d2eaff"/>
        <path id="Trazado_991840" data-name="Trazado 991840" d="M242.759,151.6a.681.681,0,1,1-.681-.681A.68.68,0,0,1,242.759,151.6Z" transform="translate(60.208 86.545)" fill="#d2eaff"/>
        <path id="Trazado_991841" data-name="Trazado 991841" d="M243.6,151.566a.681.681,0,1,1-.681-.681A.68.68,0,0,1,243.6,151.566Z" transform="translate(64.468 86.367)" fill="#d2eaff"/>
        <path id="Trazado_991842" data-name="Trazado 991842" d="M244.644,151.514a.681.681,0,1,1-.681-.681A.68.68,0,0,1,244.644,151.514Z" transform="translate(69.78 86.103)" fill="#d2eaff"/>
        <g id="Grupo_1155157" data-name="Grupo 1155157" transform="translate(263.521 248.497)">
          <path id="Trazado_991843" data-name="Trazado 991843" d="M239.856,181.144a14.438,14.438,0,0,1-.431-8.983c.839-2.626,2.4-5.969,5.124-7.038,2.936-1.155,6.71-1.538,8.88,1.173.535.669,1.671-.055,1.131-.723-2.334-2.9-5.464-2.911-8.849-2.17-3.537.778-5.4,3.306-6.819,6.473a14.93,14.93,0,0,0-.7,10.4,47.371,47.371,0,0,0,1.963,5.476,10.5,10.5,0,0,0,2.6,4.09c.65.571,1.556-.419.906-.991C241.589,187.028,240.683,183.7,239.856,181.144Z" transform="translate(-222.717 -100.654)"/>
          <path id="Trazado_991844" data-name="Trazado 991844" d="M240.2,171.756c.7-2.857,2.778-7.19,6.388-6.589.851.14,1.137-1.167.286-1.313-4.024-.675-6.576,3.209-7.67,6.534a15.569,15.569,0,0,0,.62,11.189c.352.778,1.635.371,1.276-.419A14.311,14.311,0,0,1,240.2,171.756Z" transform="translate(-218.296 -96.663)"/>
          <path id="Trazado_991845" data-name="Trazado 991845" d="M263.582,172.713c-.274-.274-.608-.553-.881-.827a9.305,9.305,0,0,1,.772-2.7,6,6,0,0,0,.662-3.361.713.713,0,0,0-.881-.608,3.933,3.933,0,0,0-2.589,2.1,3.2,3.2,0,0,0-.334,1.38,4.272,4.272,0,0,1-.772-1.045,2.829,2.829,0,0,0-1.489-1.708,1.858,1.858,0,0,0-1.216-.055,1.325,1.325,0,0,0-.608.328,1.264,1.264,0,0,0-.055,1.653,2.227,2.227,0,0,0,.881.717c.109.055.164.109.273.164a19.129,19.129,0,0,0-10.861,1.045c-.334-.389-.389-.444-.5-.553a5.161,5.161,0,0,1-.164-3.416,8.8,8.8,0,0,1,.772-1.987.891.891,0,0,0,.881.219,1.309,1.309,0,0,0,.772-.772,2.413,2.413,0,0,0,.219-2.206,1.062,1.062,0,0,0-1.045-.389c-.389.109-.608.444-.881.772a10.313,10.313,0,0,0-2.261,6.285c-1.708-1.27-3.8-2.1-5.9-1.216-1.106.5-2.923,2.042-1.762,3.306a4.334,4.334,0,0,0,2.206.881c.881.164,1.762.274,2.644.383.608.109,1.27.219,1.872.274a20.146,20.146,0,0,0-5.567,4.358c-.717.827-1.434,1.927-.881,3.033a1.512,1.512,0,0,0,2.48.383,1.352,1.352,0,0,0-.881-2.206c.11-.164.274-.273.389-.444a12.27,12.27,0,0,1,1.155-1.161,15.353,15.353,0,0,1,2.535-2.042,24.093,24.093,0,0,1,5.732-2.759,16.041,16.041,0,0,1,8.819-.5,1.287,1.287,0,0,1,.438.11,1.013,1.013,0,0,0-.383.109,3.261,3.261,0,0,0-1.216.5.675.675,0,0,0,.055,1.161c.438.225.827.383,1.27.608.663.328,1.38.608,2.1.936a3.5,3.5,0,0,0,.444.164,2.18,2.18,0,0,0,2.1.055,1.1,1.1,0,0,0,.273-.5c.219.274.5.5.663.717a9.286,9.286,0,0,1,2.316,6.011c0,.881,1.38.772,1.325-.055A10.657,10.657,0,0,0,263.582,172.713Zm-18.744-2.7a3.234,3.234,0,0,1-1.045.109c-.772-.109-1.544-.219-2.37-.383-.881-.109-1.817-.219-2.7-.389-.219-.055-.991-.164-1.1-.383-.055-.164.273-.5.383-.608a3.488,3.488,0,0,1,3.416-.662,7.727,7.727,0,0,1,3.416,2.261v.055Zm12.624-2.759c.164-.109.389.109.5.274A2.123,2.123,0,0,1,257.461,167.255Zm3.7,5.294c-.219.164-.444.055-.717-.055-.219-.11-.444-.164-.662-.274a5.379,5.379,0,0,1-.608-.274c-.328-.164-.662-.328-1.045-.5a3.2,3.2,0,0,1,1.6.274,4.445,4.445,0,0,1,1.38.662C261.211,172.549,261.211,172.549,261.157,172.549Zm.991-3.586a5.93,5.93,0,0,0-.5,1.38,4.125,4.125,0,0,1,.164-2.316,2.737,2.737,0,0,1,.881-1.045A8.7,8.7,0,0,1,262.147,168.963Z" transform="translate(-229.503 -112.402)"/>
          <path id="Trazado_991846" data-name="Trazado 991846" d="M246.166,162.482a21.066,21.066,0,0,0-9.172,14.879c-.1.851,1.21,1.143,1.313.286a19.765,19.765,0,0,1,8.588-14.034C247.607,163.133,246.884,162,246.166,162.482Z" transform="translate(-225.702 -103.83)"/>
          <path id="Trazado_991847" data-name="Trazado 991847" d="M252.433,171.166a.684.684,0,0,0,.8-.517,2.051,2.051,0,0,1,1.635-1.331,2.072,2.072,0,0,1,2,.948,4.44,4.44,0,0,1,.383,2.674,11.224,11.224,0,0,0,.012,3.191.678.678,0,0,0,.845.432.688.688,0,0,0,.432-.845,10.213,10.213,0,0,1,.042-2.79,6.2,6.2,0,0,0-.267-2.729,3.415,3.415,0,0,0-4.419-1.994c.024-.608.261-1.3.34-2.024a7.472,7.472,0,0,0-.182-3.841c-.559-1.173-1.86-1.428-3.039-1.477a4.083,4.083,0,0,0-3.057.942,3.462,3.462,0,0,0-.9,2.7,12.4,12.4,0,0,0-5.482-3.914,2.088,2.088,0,0,0-2.7,1.185,5.994,5.994,0,0,0,.012,3.209,6.838,6.838,0,0,0,1.647,3.221.672.672,0,0,0,.948-.043.684.684,0,0,0-.043-.948,5.545,5.545,0,0,1-1.313-2.832c-.1-.577-.438-2.389.438-2.571a2.654,2.654,0,0,1,1.5.4,9.189,9.189,0,0,1,1.562.924,16.778,16.778,0,0,1,2.723,2.571.623.623,0,0,0,.8.024c.079.547.34.845.729.82a.675.675,0,0,0,.632-.705c-.17-1.07-.444-2.662.687-3.319a3.1,3.1,0,0,1,1.532-.328,4.011,4.011,0,0,1,1.562.225,1.234,1.234,0,0,1,.705,1.149,11.593,11.593,0,0,1-.049,2.1,18.963,18.963,0,0,1-.96,4.346C251.807,170.716,252.111,171.093,252.433,171.166Z" transform="translate(-217.267 -113.425)"/>
          <path id="Trazado_991848" data-name="Trazado 991848" d="M260.056,180.254a34.587,34.587,0,0,0,1.677-5.75c.31-1.6.863-3.768.34-5.385-.675-2.085-2.65-2.407-4.267-1.671a6.2,6.2,0,0,0-2.133-6.157c-2.583-1.878-5.27-.128-7.233,1.757-1.131-1.7-2.571-3.41-4.723-3.543s-4.844,1.149-5.13,3.477c-.1.851,1.21,1.143,1.313.286.225-1.872,2.784-2.79,4.419-2.3,1.6.48,2.62,2.164,3.452,3.489a.674.674,0,0,0,1.057.091c1.513-1.574,3.969-3.872,6.187-2.067,1.933,1.568,1.878,4.522.936,6.595a.672.672,0,0,0,1.191.62,2.187,2.187,0,0,1,2.869-1.124c1.264.7.881,2.492.729,3.659a33.081,33.081,0,0,1-1.878,7.4C258.561,180.424,259.746,181.056,260.056,180.254Z" transform="translate(-217.608 -118.411)"/>
          <path id="Trazado_991849" data-name="Trazado 991849" d="M247.014,161.157a1.783,1.783,0,0,1,2.133,1.052c.359.705.577,1.459.991,2.127.456.735,1.58.006,1.131-.729-.735-1.2-.93-2.808-2.285-3.531-1.538-.821-3.714.018-5.026.954a4.127,4.127,0,0,0-1.817,4.419,3.913,3.913,0,0,1,.365,1.21c-.03.432-.462.687-.839.79a21.537,21.537,0,0,1-2.662.188,3.623,3.623,0,0,0-2.389,1.216,2.456,2.456,0,0,0-.419,2.462c.334.79,1.617.383,1.276-.419-.389-.924.456-1.629,1.276-1.848a28.169,28.169,0,0,1,2.869-.219,2.678,2.678,0,0,0,2.042-1.361c.419-.857-.012-1.6-.243-2.431C242.833,162.926,245.288,161.492,247.014,161.157Z" transform="translate(-230.592 -117.153)"/>
          <path id="Trazado_991850" data-name="Trazado 991850" d="M280.769,200.353c-.273-.164-.553-.274-.827-.438-.328-.164-.274-.109-.219-.444.055-1.325,1.161-2.814,1.872-3.859.444-.608,1.38-1.872.164-2.316a4.278,4.278,0,0,0-1.653-.164,8.352,8.352,0,0,0-1.216.109c.383-1.489.772-2.923,1.27-4.3.219-.553-.444-.881-.827-.772a22.549,22.549,0,0,0-4.024,1.38c.164-1.653.444-3.361.772-5.02a.624.624,0,0,0-.662-.717.607.607,0,0,0-.663-.219c-2.261.553-4.577,1.27-6.892,1.763-2.1.438-3.7-1.489-5.731-1.763a3.175,3.175,0,0,0-.717-.055,9.232,9.232,0,0,0-2.753.219,14.955,14.955,0,0,0-1.763.444c-1.817.608-4.686,2.261-6.285.5.334-.717.608-1.434.881-2.042.164-.273.334-.553.5-.881a8.421,8.421,0,0,0,5.677,1.544,4.88,4.88,0,0,0,.936-.109c.936-.164,1.817-.383,2.7-.608a16.466,16.466,0,0,1,2.869-.5c2.152-.219,3.8,1.325,5.956,1.434a13,13,0,0,0,5.847-1.653c.827-.328.383-1.6-.389-1.27-1.817.827-3.859,1.817-5.9,1.544-1.872-.219-3.252-1.489-5.184-1.434a17.073,17.073,0,0,0-3.306.608c-.772.164-1.6.389-2.37.5-.109,0-.219.055-.328.055a8.28,8.28,0,0,1-5.731-1.045,17.863,17.863,0,0,1,1.544-3.531,9.354,9.354,0,0,0,3.969,1.987,9.948,9.948,0,0,0,2.814.389,7.059,7.059,0,0,0,1.1.055c3.306-.055,7.221-1.38,10.2.553.717.5,1.325-.717.608-1.161-2.753-1.817-6.12-1.045-9.208-.827a16.118,16.118,0,0,1-2.814.055,8.623,8.623,0,0,1-2.37-.334c.662-1.544,1.325-3.142,1.872-4.741.219-.662.444-1.106.608-1.653a.722.722,0,0,0-.5-.827.4.4,0,0,0-.328.109.794.794,0,0,0-.5.444c-.553,1.6-1.161,3.033-1.817,4.577a8.7,8.7,0,0,1-.553,1.434,2.762,2.762,0,0,1-1.653-.717c.553-2.1,1.106-4.024,1.708-6.066a13.488,13.488,0,0,1,.444-1.817.336.336,0,0,0-.055-.328,14.821,14.821,0,0,0,1.045-2.535,16.562,16.562,0,0,0-.219-4.024c-.055-1.155-.717-3.477,0-4.467,1.27-1.38,3.859,1.1,4.631,1.708.553.5,1.27,1.434,2.152,1.27.717-.109,1.155-1.045,1.434-1.6.274-.389,1.872-3.75,2.261-3.586a8.26,8.26,0,0,1,.881,1.708c.444.827.827,1.762,1.216,2.644a.671.671,0,0,0,1.106.274c.991-1.27,2.042-2.425,3.142-3.586.662,1.987,1.489,4.358,3.7,4.631.827.164,1.155-1.155.273-1.27-1.927-.274-2.48-3.361-3.088-4.85a.64.64,0,0,0-1.1-.274,37.912,37.912,0,0,0-3.142,3.586c-.772-2.042-2.152-5.349-3.969-3.8a9.707,9.707,0,0,0-1.38,1.927c-.334.608-.772,2.042-1.325,2.425s-.553.109-1.045-.273a8.63,8.63,0,0,0-1.1-.881,16.151,16.151,0,0,0-1.987-1.38,2.815,2.815,0,0,0-2.753-.273,3.135,3.135,0,0,0-1.434,2.923c0,1.987.383,3.969.383,5.956a2.872,2.872,0,0,1-.5,1.933c-.109.274-.274.553-.444.991a6.136,6.136,0,0,0-.328,1.27c-1.544-.827-3.088-1.653-4.741-2.37-.328-.164-.936-.5-1.544-.827-.219.5-.444.936-.608,1.38a4.458,4.458,0,0,1,.936.389,55.025,55.025,0,0,1,5.786,2.869c-.5,1.872-.991,3.7-1.489,5.567a.589.589,0,0,0-.383-.109.633.633,0,0,0-.717.273c-.662,1.216-1.27,2.37-1.872,3.586-.608-2.316-1.1-4.686-1.6-7a3,3,0,0,0-.055-2.48c-.274-.827-.608-1.6-.936-2.37-.274.553-.5,1.045-.717,1.6a9.638,9.638,0,0,1,.5,1.434,2.724,2.724,0,0,1-.055.717l-.164.328a1.566,1.566,0,0,1-1.544.328c-.389.827-.772,1.653-1.161,2.534.055.164.055.274.109.444a2.159,2.159,0,0,1-.328.109c-.274.553-.553,1.106-.827,1.708.109-.055.219-.055.328-.109a10.379,10.379,0,0,1,1.161-.328,77.4,77.4,0,0,0,2.37,8.655,1.192,1.192,0,0,1-.219.273,14.425,14.425,0,0,1-2.425-3.525,19.657,19.657,0,0,0-1.987-3.252c-.219.608-.5,1.27-.772,1.872a.849.849,0,0,0,.389-.055c1.27,1.872,2.152,4.024,3.641,5.677-1.817-.936-3.531-1.817-5.294-2.589-.164.389-.328.827-.5,1.27a40.2,40.2,0,0,1,4.024,2.1,6.2,6.2,0,0,0-1.1.553.664.664,0,0,0-.772-.055c-.334-.109-.5-.164-.717-.219a8.907,8.907,0,0,1-1.161-.273c-.328-.109-.662-.219-.991-.334-.164.383-.328.827-.5,1.216.5.219.936.328,1.38.5.438.11.827.164,1.21.274a4.9,4.9,0,0,0-.827.717,4.231,4.231,0,0,0-.717,1.6c-.164.717.273,1.544.109,2.261-.219.827-1.216,1.045-1.817,1.38a12.835,12.835,0,0,0-1.987,1.38,2.525,2.525,0,0,0-.383.383c-.055.164-.109.273-.164.444-.5,1.489-.991,3.088-1.489,4.686.219.936.608,1.878.772,2.7a12.007,12.007,0,0,1-.553,7.992c-.328.827.827,1.434,1.216.662,1.6-3.361,1.216-6.892.273-10.418-.328-1.216-.881-2.48-.273-3.7a6.4,6.4,0,0,1,2.206-2.316c1.045-.717,2.923-1.045,3.416-2.37a2.957,2.957,0,0,0,0-1.544,3.631,3.631,0,0,1,1.763-3.531c1.27-.827,2.869-1.1,4.133-1.872a.5.5,0,0,0,.328-.219l.328-.164a5.529,5.529,0,0,0,.772-.827,4.677,4.677,0,0,0,4.188.717c1.544-.444,3.033-1.045,4.577-1.434a7.361,7.361,0,0,1,2.48-.274c2.425.219,4.024,2.261,6.285,1.927a62.962,62.962,0,0,0,7.111-1.763c-.328,1.763-.662,3.586-.881,5.4,0,.444.389.991.881.772a25,25,0,0,1,3.859-1.38c-.444,1.325-.827,2.65-1.161,3.969a.676.676,0,0,0,.717.827c.553-.055,1.106-.109,1.653-.109a6.714,6.714,0,0,1,1.1-.055c-.219.273-.444.608-.5.662-.273.444-.553.827-.772,1.27a9.413,9.413,0,0,0-1.1,2.535,1.791,1.791,0,0,0,.273,1.872,2.319,2.319,0,0,0,.881.444,2.557,2.557,0,0,1,1.045.991c.444.717,1.544,0,1.1-.717A3.706,3.706,0,0,0,280.769,200.353ZM249.62,183.59a67.566,67.566,0,0,1-2.042-7.445,1.478,1.478,0,0,0,.662-.5c.444-.608.055-1.38-.553-2.1a2.8,2.8,0,0,0,1.161-.109c.5,2.589,1.106,5.184,1.708,7.774a1.639,1.639,0,0,1-.219.827C250.057,182.545,249.838,183.1,249.62,183.59Z" transform="translate(-232.577 -146.989)"/>
          <path id="Trazado_991851" data-name="Trazado 991851" d="M240.706,157.281a.672.672,0,0,0-.286,1.313A.672.672,0,0,0,240.706,157.281Z" transform="translate(-210.863 -129.741)"/>
          <path id="Trazado_991852" data-name="Trazado 991852" d="M240.643,158.085c.413.14.6.122.748.018a.686.686,0,0,0,.292-.419.7.7,0,0,0-.085-.553c-.6-.322-.778-.3-.924-.2a.686.686,0,0,0-.292.419.7.7,0,0,0,.085.553A.462.462,0,0,0,240.643,158.085Z" transform="translate(-208.582 -131.773)"/>
          <path id="Trazado_991853" data-name="Trazado 991853" d="M240.7,158.684c.413.14.6.122.748.018a.686.686,0,0,0,.292-.419.776.776,0,0,0-.073-.6c-.6-.322-.784-.3-.93-.2a.683.683,0,0,0-.292.425.78.78,0,0,0,.073.6A.464.464,0,0,0,240.7,158.684Z" transform="translate(-208.291 -128.945)"/>
          <path id="Trazado_991854" data-name="Trazado 991854" d="M241.507,158.634a.672.672,0,0,0,.286-1.313A.672.672,0,0,0,241.507,158.634Z" transform="translate(-205.343 -129.533)"/>
          <path id="Trazado_991855" data-name="Trazado 991855" d="M244.722,163.238c-.164.936-.383,1.878-.608,2.814-.109-.109-.328-.219-.389-.334a1.528,1.528,0,0,1-.219-1.38A1.546,1.546,0,0,1,244.722,163.238Z" transform="translate(-192.999 -99.401)"/>
          <path id="Trazado_991856" data-name="Trazado 991856" d="M244.46,160.671a18.034,18.034,0,0,1,0,2.978c-.109-.055-.164-.164-.274-.274C243.36,162.385,243.743,161.552,244.46,160.671Z" transform="translate(-191.527 -112.436)"/>
          <path id="Trazado_991857" data-name="Trazado 991857" d="M243.847,160.489c.553-.055,1.434-.389,2.37-.553v1.38c-.772.164-1.653.383-1.933.438C243.464,161.924,243.02,160.659,243.847,160.489Z" transform="translate(-193.12 -116.169)"/>
          <path id="Trazado_991858" data-name="Trazado 991858" d="M266.713,162.64a5.593,5.593,0,0,0,1.38-.717c-.055.553-.11,1.1-.164,1.653a19.789,19.789,0,0,1-1.981.827c-.991.383-2.042.662-3.033.936.991,1.1,2.042,2.535,1.653,3.859-.553,1.544-2.535,1.325-3.969,1.216-.219,1.6-2.978,1.872-4.85,1.708.553,1.27.827,2.644-.109,3.8-1.325,1.708-3.531,1.763-5.4,1.6a.755.755,0,0,1-.608-.444c-1.817.827-3.914.444-5.847.881a6.5,6.5,0,0,0-.717.334c1.489.936,2.1,2.589,3.142,4.078.389.608,2.206,2.759,2.814.444.164-.5-.827-1.653-1.1-2.152-.273-.608-.662-1.1-.219-1.708,1.045-1.38,3.252.662,4.188,1.106,1.708.827,5.239,1.708,4.741-1.653a5.829,5.829,0,0,1-.274-2.589.688.688,0,0,1,.936-.5c1.1.608,2.924,1.987,4.188,2.206.553.383.991.055,1.38-.936a11.61,11.61,0,0,0-.936-.772c-.553-.5-1.1-.936-1.653-1.434a.683.683,0,0,1,.109-1.045c1.6-1.216,3.641.055,5.4.109a.887.887,0,0,0,.5.219c-.109.444-.219.881-.328,1.27-1.27-.219-2.7-.936-3.859-.827,1.489,1.161,3.586,2.923,2.1,4.467-1.6,1.708-4.577-.274-6.5-1.489.164,1.045.717,1.987.444,3.033a2.758,2.758,0,0,1-2.206,1.933,6.282,6.282,0,0,1-3.477-.273,21.943,21.943,0,0,1-2.535-1.27c-1.045-.608-.772-.5-.274.444s1.27,2.206.717,3.307a2.251,2.251,0,0,1-2.261.991c-3.531-.328-3.306-5.02-6.175-6.121a3.056,3.056,0,0,0-.444.444,10.429,10.429,0,0,0-1.106,3.088c-.219.827-1.544.553-1.325-.274.553-2.316,1.434-4.741,3.914-5.567,2.042-.662,4.3-.109,6.285-1.045a.683.683,0,0,1,.827.444c1.38.055,2.923.219,4.024-.608,1.434-1.1.608-2.759-.219-3.969a.679.679,0,0,1,.717-.991c.553.109,5.13.662,4.577-.772-.109-.389.164-.936.608-.881.717.055,2.978.553,3.416-.164.5-.772-1.434-2.759-1.927-3.306a.653.653,0,0,1,.219-1.1A37.863,37.863,0,0,0,266.713,162.64Z" transform="translate(-215.379 -106.079)"/>
          <path id="Trazado_991859" data-name="Trazado 991859" d="M246.119,162.627c0,.662-.055,1.325-.109,1.981a15.5,15.5,0,0,0-2.37-2.316c-.717-.5.219-1.489.881-.991A14.588,14.588,0,0,1,246.119,162.627Z" transform="translate(-193.241 -109.925)"/>
          <path id="Trazado_991860" data-name="Trazado 991860" d="M254.157,168.59a6.084,6.084,0,0,1-1.544,2.316c-.608.553-1.6-.328-.991-.936a5.929,5.929,0,0,0,1.762-3.2c.055-.438.274-1.27-.219-1.544a2.243,2.243,0,0,0-1.653.273,14.136,14.136,0,0,0-2.535,1.933c-.662.608-1.708,1.434-2.535.662-.717-.662-.383-1.872-.055-2.644a10.278,10.278,0,0,1,1.544-2.589c.553-.772,1.434-1.817,1.38-2.869,0-1.216-1.325-1.489-2.261-1.161-.991.328-1.653,1.27-2.7,1.544a2.249,2.249,0,0,1-2.37-.717c-.553-.662.608-1.38,1.161-.717.383.5,1.21,0,1.6-.219a10.5,10.5,0,0,1,1.653-1.045,3.137,3.137,0,0,1,3.252.274c2.042,1.489.553,4.024-.553,5.567a8.344,8.344,0,0,0-1.6,2.814,1.767,1.767,0,0,0-.109.717c.164,0,.608-.5.717-.553.444-.383.827-.827,1.27-1.155a6.007,6.007,0,0,1,2.759-1.434,2.509,2.509,0,0,1,1.987.383C254.157,165.776,254.157,167.211,254.157,168.59Z" transform="translate(-201.115 -129.285)"/>
          <path id="Trazado_991861" data-name="Trazado 991861" d="M246.109,157.7v1.544a16.316,16.316,0,0,0-1.544,1.27.663.663,0,0,1-.991-.881A12.429,12.429,0,0,1,246.109,157.7Z" transform="translate(-193.176 -127.543)"/>
          <path id="Trazado_991862" data-name="Trazado 991862" d="M242.9,163.411a30.042,30.042,0,0,1-.012-6.692.685.685,0,0,0-.517-.8.669.669,0,0,0-.8.517,32.171,32.171,0,0,0-.018,7.05C241.659,164.341,243,164.275,242.9,163.411Z" transform="translate(-203.422 -136.614)"/>
          <path id="Trazado_991863" data-name="Trazado 991863" d="M248.367,169.075a47.441,47.441,0,0,1,3.458-8.691.579.579,0,0,0-.122-.7c.96-.334,1.908-.76,2.857-1.13.468-.182.936-.371,1.4-.553.195-.079.577-.261.912-.4-.049.3-.128.638-.14.748-.067.474-.152.942-.243,1.41a.651.651,0,0,0,.535.778q-3.683,3.546-7.36,7.1c-.626.6.371,1.5.991.906q3.993-3.847,7.986-7.707c.565-.547-.2-1.289-.808-.979.115-.6.213-1.2.286-1.8a2.82,2.82,0,0,0-.012-1.507c-.529-1.009-2.006-.055-2.7.219-1.264.5-2.522,1-3.787,1.5-.3.115-.419.249-.65.1-.195-.128-.359-.82-.45-1.039-.243-.614-.462-1.234-.656-1.866a.679.679,0,0,0-1.234-.1l-1.076,1.9c-.158.274-.626,1.428-.973,1.355-.128-.024-.365-.547-.45-.687-.194-.31-.383-.62-.571-.936-.322-.553-.62-1.118-.912-1.69a.677.677,0,0,0-1.057-.091c-.863.814-1.72,1.629-2.583,2.437-.632.6.365,1.5.991.906.638-.608,1.282-1.21,1.927-1.817.346.644.687,1.295,1.082,1.915s.8,1.434,1.629,1.434a1.935,1.935,0,0,0,1.5-1.124c.346-.559.656-1.143.979-1.72.194.517.359,1.045.583,1.544a1.684,1.684,0,0,0,.93,1,49.489,49.489,0,0,0-3.574,9C246.817,169.622,248.13,169.9,248.367,169.075Z" transform="translate(-206.296 -141.226)"/>
          <path id="Trazado_991864" data-name="Trazado 991864" d="M243.933,165.941a23.167,23.167,0,0,1-2.1-10.345c.024-.863-1.313-.784-1.343.073a24.134,24.134,0,0,0,2.164,10.685C243.009,167.132,244.292,166.725,243.933,165.941Z" transform="translate(-207.988 -141.301)"/>
          <path id="Trazado_991865" data-name="Trazado 991865" d="M244.271,164.746a.671.671,0,0,0,.2-.924c-1.939-2.328-3.622-5.069-3.428-8.211a.672.672,0,0,0-.705-.632.694.694,0,0,0-.632.711c-.207,3.349,1.568,6.376,3.641,8.862A.692.692,0,0,0,244.271,164.746Z" transform="translate(-211.985 -141.346)"/>
          <path id="Trazado_991866" data-name="Trazado 991866" d="M242.52,162.3c-1.045,1.27-2.924.444-4.358-.608.164-.444.389-.827.553-1.27a4.216,4.216,0,0,0,1.045.662c1.489.717,1.817-.109,1.817-1.653a10.294,10.294,0,0,0-.936-3.531c.219-.608.5-1.161.717-1.708C242.41,156.346,244.064,160.43,242.52,162.3Z" transform="translate(-219.746 -145.326)"/>
          <path id="Trazado_991867" data-name="Trazado 991867" d="M267.512,164.636c-.383.328-.662.717-.991,1.045.328-.055.717-.109,1.045-.164v1.38a13.7,13.7,0,0,0-2.923.662c-.663.219-1.045-.608-.663-1.1a16.321,16.321,0,0,1,2.1-2.261,18.681,18.681,0,0,0-2.923-1.817,2.459,2.459,0,0,1-.881-.608c-.5-.827-.274-2.316-.334-3.142-.109-1.1-.164-2.206-.219-3.306-1.981.827-5.069,2.37-6.728,1.325-1.544-.936-1.106-3.361-3.641-1.045-1.161,1.106-1.544,2.759-2.48,3.969-.827.991-2.535,1.653-3.477.328-.881-1.216.164-3.142,1.1-4.686-2.316-.164-4.467-.881-6.619-1.216-.219-.055-.444-.055-.717-.109.109-.389.273-.772.389-1.155,3.088.608,7.774,1.544,8.047.772a.681.681,0,0,1,1.216.608c-.274.5-2.316,3.531-2.1,3.914l1.325.328a6.859,6.859,0,0,1,.328-.608,8.376,8.376,0,0,0,.827-1.544,5.811,5.811,0,0,1,3.088-2.759c1.38-.383,1.927.11,2.869.881.827.662-.438.444,1.161.881a2.8,2.8,0,0,0,2.1-.219c1.216-.444,2.48-.881,3.7-1.325a.723.723,0,0,1,.881.608c.11,1.933-.389,5.731,1.27,7.111,1.045.881,2.206,1.216,3.2,2.316.219.383.274.662.109.827C267.566,164.581,267.566,164.581,267.512,164.636Z" transform="translate(-214.688 -152.735)"/>
          <path id="Trazado_991868" data-name="Trazado 991868" d="M243.586,159.234c.717-.936,1.434-1.817,2.206-2.644v3.586l-1.653.164A.688.688,0,0,1,243.586,159.234Z" transform="translate(-192.915 -133.16)"/>
          <path id="Trazado_991869" data-name="Trazado 991869" d="M238.655,170.044a8.589,8.589,0,0,1,.055-3.932.672.672,0,0,0-1.313-.286,9.387,9.387,0,0,0-.085,4.291,40.043,40.043,0,0,0,.869,4.224c.219.833,1.5.419,1.276-.419A38.136,38.136,0,0,1,238.655,170.044Z" transform="translate(-225.113 -88.94)"/>
          <path id="Trazado_991870" data-name="Trazado 991870" d="M245.446,168.822a14.693,14.693,0,0,0-1.927,12.46c.219.827-1.045,1.27-1.27.444a17.02,17.02,0,0,1-.662-3.75.742.742,0,0,1-.827-.444,15.954,15.954,0,0,1-.444-7.883c-.936,1.763-1.6,3.7-2.37,5.567a.646.646,0,0,1-1.045.164,7.117,7.117,0,0,1-1.216-3.8c-.164-1.6-.219-3.2-.5-4.741,0-.109-.055-.273-.055-.389.219-1.216.5-2.316.717-3.361a24.219,24.219,0,0,0,.553,2.814,38.878,38.878,0,0,1,.5,4.248,12.658,12.658,0,0,0,.383,3.142,23.844,23.844,0,0,1,3.8-7.221.67.67,0,0,1,1.161.553,21.563,21.563,0,0,0-.553,8.989,15.8,15.8,0,0,1,2.535-7.445C244.729,167.5,245.945,168.1,245.446,168.822Z" transform="translate(-235.132 -100.183)"/>
          <path id="Trazado_991871" data-name="Trazado 991871" d="M250.013,170.273c-.383-.772-1.507-.043-1.131.729.055.109.109.225.164.34-2.589-1.137-4.3-3.847-6.388-5.665a.681.681,0,0,0-1.112.353,14.465,14.465,0,0,0-.128,3.325,6.566,6.566,0,0,1-.316,1.781,14.214,14.214,0,0,1-.772-3.082c-.109-.851-1.447-.784-1.337.073a16.56,16.56,0,0,0,1.526,5.142c.231.48.936.347,1.161-.055a8.47,8.47,0,0,0,1.052-3.349c.067-.748.024-1.5.03-2.249,2.212,2.218,4.163,4.917,7.439,5.488a.68.68,0,0,0,.705-1.021C250.6,171.476,250.3,170.874,250.013,170.273Z" transform="translate(-215.557 -87.88)"/>
          <path id="Trazado_991872" data-name="Trazado 991872" d="M244.3,166.195a40.938,40.938,0,0,0,6.339,1.155c-.11.164-.164.328-.274.5a8.1,8.1,0,0,1-.444.772,17.645,17.645,0,0,1-2.37-.328c-1.27-.274-2.48-.553-3.75-.881-.389-.055-.717-.164-1.045-.219.11.164.219.383.328.444a8.329,8.329,0,0,0,.608.772c.553.717-.608,1.434-1.1.772-.608-.717-2.042-1.987-1.27-2.978C241.986,165.313,243.476,165.976,244.3,166.195Z" transform="translate(-204.82 -86.64)"/>
          <path id="Trazado_991873" data-name="Trazado 991873" d="M244,166.235c.717-.389,1.489-.662,2.261-.991a13.349,13.349,0,0,1-.827,1.817,2.439,2.439,0,0,0-.553.219c-.273.109-.717.219-.881.444,0,.164.219.219.273.274.219.109.383.164.608.274-.219.383-.438.772-.662,1.155a2.754,2.754,0,0,1-1.708-1.325C242.069,167.116,243.224,166.563,244,166.235Z" transform="translate(-198.174 -89.215)"/>
          <path id="Trazado_991874" data-name="Trazado 991874" d="M243.591,164.717a6.131,6.131,0,0,1-.334.991.6.6,0,0,1,0-.608A2.127,2.127,0,0,1,243.591,164.717Z" transform="translate(-194.293 -91.891)"/>
        </g>
        <g id="Grupo_1155158" data-name="Grupo 1155158" transform="translate(6.935 311.458)">
          <path id="Trazado_991875" data-name="Trazado 991875" d="M222.7,174.31a14.429,14.429,0,0,1-6.473,6.248c-2.528,1.1-6.072,2.133-8.673.79-2.808-1.447-5.574-4.03-4.978-7.452.146-.845-1.143-1.222-1.289-.371-.644,3.665,1.41,6.029,4.2,8.084,2.917,2.152,6.041,1.878,9.366.857a14.89,14.89,0,0,0,8.278-6.333,46.094,46.094,0,0,0,2.82-5.087,10.511,10.511,0,0,0,1.361-4.656.672.672,0,0,0-1.343-.03C225.975,169.126,224.073,172.007,222.7,174.31Z" transform="translate(-151.016 -149.719)"/>
          <path id="Trazado_991876" data-name="Trazado 991876" d="M212.245,173.167c-2.613,1.355-7.239,2.65-9.16-.462-.45-.729-1.629-.085-1.173.65,2.146,3.471,6.747,2.832,9.968,1.465a15.571,15.571,0,0,0,8-7.84c.352-.778-.8-1.471-1.155-.687A14.444,14.444,0,0,1,212.245,173.167Z" transform="translate(-147.757 -148.6)"/>
          <path id="Trazado_991877" data-name="Trazado 991877" d="M225.981,187.1a1.4,1.4,0,0,0-1.106,2.152h-.881a11.766,11.766,0,0,1-1.325-.11,20.953,20.953,0,0,1-3.2-.553,25.062,25.062,0,0,1-5.847-2.48,15.307,15.307,0,0,1-6.394-6.728,4.819,4.819,0,0,0,1.489.772.631.631,0,0,0,.827-.772c-.274-1.216-.662-2.37-1.045-3.531-.219-.827-.553-1.817-1.489-2.042a.925.925,0,0,0-.553.055c0-.328.055-.662.055-.991a9.6,9.6,0,0,1,3.033-5.677c.608-.553-.328-1.544-.936-.936a10.506,10.506,0,0,0-3.416,6.947,8.635,8.635,0,0,0-.055,1.216,10.392,10.392,0,0,1-2.535,1.155,5.7,5.7,0,0,0-2.978,1.762.683.683,0,0,0,.109,1.045,4.347,4.347,0,0,0,3.306.553,3.435,3.435,0,0,0,1.27-.662c-.164,1.27-.991,2.261-.608,3.477a1.717,1.717,0,0,0,1.38,1.21,1.218,1.218,0,0,0,1.325-1.045,3.258,3.258,0,0,0-.109-1.434,17.948,17.948,0,0,0,7.938,7.445,3.221,3.221,0,0,0-.11.772,5.1,5.1,0,0,1-2.425,2.37,9.06,9.06,0,0,1-2.042.717.838.838,0,0,0-.383-.772,1.564,1.564,0,0,0-1.106-.109c-.608.164-1.6.608-1.817,1.27a1,1,0,0,0,.444,1.045,2.007,2.007,0,0,0,1.161.164,10.218,10.218,0,0,0,6.175-2.425c.219,2.152.936,4.248,3.033,5.239,1.045.5,3.416.881,3.641-.827a4.22,4.22,0,0,0-.827-2.261c-.444-.772-.936-1.544-1.434-2.261-.328-.5-.662-1.045-1.045-1.6a21.555,21.555,0,0,0,6.947,1.325,4.113,4.113,0,0,0,1.817-.328,1.66,1.66,0,0,0,1.045-.991A1.535,1.535,0,0,0,225.981,187.1Zm-23.157-9.482a3.174,3.174,0,0,1-1.434,0,8.586,8.586,0,0,1,1.927-.881c.444-.164.881-.334,1.325-.5A4.83,4.83,0,0,1,202.824,177.615Zm2.261,3.914a.945.945,0,0,1-.109-.772,2.874,2.874,0,0,1,.109.608C205.139,181.414,205.085,181.475,205.085,181.529Zm1.544-6.455c.274.055.328.334.438.608.164.383.273.827.444,1.27.109.383.164.772.274,1.155a4.713,4.713,0,0,1-1.216-2.869A.24.24,0,0,1,206.628,175.074Zm10.916,16.708c.5.772,1.045,1.544,1.489,2.316.109.219.553.881.438,1.1a1.221,1.221,0,0,1-.772.055,3.5,3.5,0,0,1-2.7-2.1,7.928,7.928,0,0,1-.553-4.078,2.209,2.209,0,0,1,.772.662C216.718,190.4,217.107,191.12,217.544,191.783Z" transform="translate(-159.822 -148.009)"/>
          <path id="Trazado_991878" data-name="Trazado 991878" d="M202.04,172.609a21.059,21.059,0,0,0,17.231-2.911c.705-.486.061-1.665-.65-1.173a19.764,19.764,0,0,1-16.21,2.8A.671.671,0,0,0,202.04,172.609Z" transform="translate(-148.967 -136.117)"/>
          <path id="Trazado_991879" data-name="Trazado 991879" d="M206.531,173.99a.688.688,0,0,0-.912-.261,2.022,2.022,0,0,1-2.686-2.474A4.419,4.419,0,0,1,204.7,169.2a10.866,10.866,0,0,0,2.389-2.115.674.674,0,0,0-.237-.918.686.686,0,0,0-.918.237,9.973,9.973,0,0,1-2.133,1.805,6.194,6.194,0,0,0-1.872,2,3.415,3.415,0,0,0,1.416,4.637c-.474.383-1.149.656-1.75,1.076a7.474,7.474,0,0,0-2.766,2.668c-.517,1.2.152,2.34.893,3.264a4.1,4.1,0,0,0,2.723,1.678,3.435,3.435,0,0,0,2.62-1.106,12.432,12.432,0,0,0,.669,6.7,2.086,2.086,0,0,0,2.674,1.252,6.013,6.013,0,0,0,2.407-2.127,6.866,6.866,0,0,0,1.337-3.361.672.672,0,1,0-1.343-.03,5.541,5.541,0,0,1-1.264,2.857c-.371.456-1.507,1.908-2.218,1.368a2.682,2.682,0,0,1-.693-1.392,9.372,9.372,0,0,1-.34-1.787,16.728,16.728,0,0,1,.14-3.738.622.622,0,0,0-.51-.62c.359-.419.407-.815.134-1.088a.671.671,0,0,0-.948-.006c-.7.833-1.708,2.091-2.948,1.671a3.067,3.067,0,0,1-1.252-.936,3.982,3.982,0,0,1-.857-1.319,1.226,1.226,0,0,1,.4-1.282,11.468,11.468,0,0,1,1.617-1.349,18.755,18.755,0,0,1,3.9-2.146C206.6,174.762,206.7,174.282,206.531,173.99Z" transform="translate(-163.84 -147.958)"/>
          <path id="Trazado_991880" data-name="Trazado 991880" d="M209.182,166.069a35.018,35.018,0,0,0-5.434,2.528c-1.41.82-3.4,1.836-4.279,3.294-1.124,1.884-.061,3.58,1.556,4.309a6.2,6.2,0,0,0-3.221,5.665c.292,3.185,3.373,4.048,6.09,4.279-.529,1.969-.869,4.182.45,5.89s4.054,2.887,5.993,1.562c.7-.48.061-1.659-.65-1.173-1.556,1.064-3.932-.249-4.644-1.805-.693-1.52-.1-3.4.346-4.9a.679.679,0,0,0-.632-.857c-2.182-.1-5.525-.432-5.634-3.288-.1-2.492,2.158-4.394,4.34-5.057a.673.673,0,0,0-.316-1.307,2.188,2.188,0,0,1-2.741-1.416c-.3-1.416,1.288-2.3,2.273-2.96a32.928,32.928,0,0,1,6.807-3.464C210.294,167.078,209.984,165.771,209.182,166.069Z" transform="translate(-168.204 -148.212)"/>
          <path id="Trazado_991881" data-name="Trazado 991881" d="M216.8,176.294a33.1,33.1,0,0,1-3.252,1.878,5.419,5.419,0,0,1-1.325-.827c-.662-.553-1.155-1.38-1.872-1.878a1.015,1.015,0,0,0-1.161-.109c-.328.219-.444.717-.662,1.045A4.026,4.026,0,0,1,204,177.947c-1.544-.328-3.641-1.434-4.024-3.142-.328-1.489.717-2.7,1.161-4.024a.664.664,0,0,1,1.27.383c-.219.717-.662,1.38-.936,2.152a1.756,1.756,0,0,0,.608,2.261c1.38,1.1,4.078,1.981,5.294.164.5-.717.772-1.544,1.653-1.763a2.5,2.5,0,0,1,2.37.608c.772.608,1.27,1.489,2.1,2.042.662.444,1.763.608,2.206-.274A.635.635,0,0,1,216.8,176.294Z" transform="translate(-157.367 -126.4)"/>
          <path id="Trazado_991882" data-name="Trazado 991882" d="M228.169,200.683a5.059,5.059,0,0,0-1.161.991,3.434,3.434,0,0,1-3.8.991c-1.434-.383-2.759-1.38-4.188-1.817a.4.4,0,0,0-.328-.109.8.8,0,0,0-.389-.109,3.628,3.628,0,0,0-1.1-.055,4.713,4.713,0,0,0-2.206-3.641c-2.042-1.38-4.358-2.152-5.956-4.133-1.489-1.817-.936-4.467-2.7-6.066a63.009,63.009,0,0,0-6.011-4.133c.772-.5,1.6-.936,2.37-1.489.772-.444,1.544-.936,2.261-1.434.328-.274.5-.936,0-1.155a20.479,20.479,0,0,1-3.531-2.042c1.27-.5,2.48-1.1,3.75-1.708a.679.679,0,0,0,.109-1.045c-.383-.389-.827-.772-1.216-1.216-.164-.164-.444-.5-.717-.772a5.92,5.92,0,0,1,.827-.055c.5-.109.936-.164,1.434-.274a11.394,11.394,0,0,0,2.644-.827,2.508,2.508,0,0,0,.991-.827.837.837,0,0,0,.219-.608,3.192,3.192,0,0,0-.219-.991,2.156,2.156,0,0,1,.055-1.434c.274-.827-1.045-1.155-1.325-.328a3.479,3.479,0,0,0-.164,1.489c.055.328.164.608.219.881.109.383.055.274-.219.5a10.3,10.3,0,0,1-4.078,1.1c-.772.109-2.37.219-1.872,1.434a4.918,4.918,0,0,0,.991,1.38c.219.274.553.553.827.827-1.325.662-2.7,1.325-4.078,1.872-.5.219-.389.881,0,1.161a24.379,24.379,0,0,0,3.7,2.1c-.772.5-1.544,1.045-2.316,1.489-.662.444-1.27.827-1.933,1.216a.635.635,0,0,0-.164.991.594.594,0,0,0,.274.608c1.933,1.325,3.969,2.589,5.9,4.024,1.708,1.27,1.325,3.75,2.425,5.513a12.658,12.658,0,0,0,3.914,3.531c1.653.936,4.8,2.042,4.467,4.413-.717.164-1.38.444-2.042.608-.328.109-.662.164-.991.274a8.438,8.438,0,0,0-2.644-5.294c-1.544-1.6-3.586-2.589-5.184-4.078-1.544-1.489-1.489-3.75-2.814-5.458a13.269,13.269,0,0,0-5.13-3.306c-.772-.383-1.434.772-.662,1.155,1.817.772,3.914,1.708,5.075,3.416,1.045,1.544.991,3.422,2.316,4.85,1.325,1.38,3.142,2.261,4.577,3.531a8.649,8.649,0,0,1,3.252,5.239,20.12,20.12,0,0,1-3.7,1.1,11.776,11.776,0,0,0-3.361-7.5c-2.206-2.48-5.786-4.522-6.285-8.047-.109-.827-1.434-.5-1.325.328.444,3.252,3.252,5.294,5.458,7.445a15.407,15.407,0,0,1,3.2,4.133q-3.227.994-6.449,2.316c-.328.109-.389.608-.219.881a.6.6,0,0,0,.881.274c2.042-.827,4.078-1.544,6.12-2.206a3.207,3.207,0,0,1,.553,1.762c-2.48,1.216-4.905,2.37-7.33,3.586-.164.055-.164.164-.219.274a14.675,14.675,0,0,0-2.261.662c1.045.164,2.152.274,3.306.383a1.147,1.147,0,0,0,.328-.219,3.084,3.084,0,0,0,1.489.334,7.934,7.934,0,0,1-.273-1.106c1.708-.827,3.416-1.653,5.13-2.535a.991.991,0,0,0,.164.334.662.662,0,0,0,.717.383c1.325-.274,2.589-.608,3.914-.936-.936,1.27-1.817,2.589-2.814,3.859a9.507,9.507,0,0,0,1.763-.109c.991-1.325,1.981-2.7,2.923-4.078a1.917,1.917,0,0,1,.772-.334,16.636,16.636,0,0,0,1.653-.5c-.936,1.6-1.933,3.2-3.033,4.741.608-.055,1.21-.164,1.817-.274a55.362,55.362,0,0,0,3.033-4.85,1.068,1.068,0,0,1,.383.055,18.379,18.379,0,0,1-1.1,4.133c-.055.109-.055.219-.109.328a14.873,14.873,0,0,0,1.489-.383,17.211,17.211,0,0,0,.991-3.7c.383,1.161.608,2.261.881,3.306.5-.109.936-.273,1.38-.383a13.7,13.7,0,0,1-.5-2.1,6.665,6.665,0,0,0,1.106.444.8.8,0,0,0,.383.608,3,3,0,0,1,.383.608c.444-.109.881-.274,1.27-.383-.055-.109-.109-.274-.164-.389a4.277,4.277,0,0,0,.827.109,26.061,26.061,0,0,0,2.48-.936,3.941,3.941,0,0,1,1.045-1.1,1.6,1.6,0,0,1,1.325.055,12.439,12.439,0,0,0,1.762-.827C230.375,201.018,229.214,200.3,228.169,200.683Zm12.071-4.352c1.708-1.1,3.471-2.316,5.349-3.641A12.071,12.071,0,0,0,240.24,196.332Z" transform="translate(-177.005 -148.753)"/>
          <path id="Trazado_991883" data-name="Trazado 991883" d="M196.855,172.139a.671.671,0,0,0,1.173-.65A.671.671,0,0,0,196.855,172.139Z" transform="translate(-173.364 -122.185)"/>
          <path id="Trazado_991884" data-name="Trazado 991884" d="M197.511,171.668c-.164-.4-.3-.529-.474-.571a.679.679,0,0,0-.511.061.731.731,0,0,0-.359.425c.152.656.286.79.462.827a.679.679,0,0,0,.511-.061.732.732,0,0,0,.359-.425A.724.724,0,0,0,197.511,171.668Z" transform="translate(-176.403 -122.576)"/>
          <path id="Trazado_991885" data-name="Trazado 991885" d="M197.933,171.254c-.164-.4-.3-.529-.474-.571a.678.678,0,0,0-.511.061.759.759,0,0,0-.4.45c.152.656.286.79.462.833a.678.678,0,0,0,.511-.061.767.767,0,0,0,.4-.444A.576.576,0,0,0,197.933,171.254Z" transform="translate(-174.478 -124.679)"/>
          <path id="Trazado_991886" data-name="Trazado 991886" d="M197.344,170.641a.671.671,0,0,0-1.173.65A.671.671,0,0,0,197.344,170.641Z" transform="translate(-176.843 -126.472)"/>
          <path id="Trazado_991887" data-name="Trazado 991887" d="M201.886,165.72c-.109,1.872,1.817,3.306,1.489,5.294-.219,1.27-1.1,1.544-2.261,1.6-.608.055-3.641-.219-3.586.827,0,.5,2.37,1.878,2.814,2.206.662.553,0,1.708-.717,1.161-1.045-.827-4.741-2.7-3.306-4.577.608-.772,1.762-.772,2.7-.827.5-.055,1.987.164,2.425-.164,1.216-.772.219-2.152-.164-2.978a6.717,6.717,0,0,1-.662-2.589c.5-.219,1.045-.5,1.489-.717A1.205,1.205,0,0,0,201.886,165.72Z" transform="translate(-177.295 -153.649)"/>
          <path id="Trazado_991888" data-name="Trazado 991888" d="M198.56,166.5a5.835,5.835,0,0,0-1.045-.273c.662-.274,1.27-.553,1.872-.827a10.858,10.858,0,0,0,.991.553c-.055-.274-.055-.608-.109-.936a14.288,14.288,0,0,1,1.325-.608c.055.881.164,1.763.219,2.535a.609.609,0,0,1-.827.608A11.707,11.707,0,0,1,198.56,166.5Z" transform="translate(-169.563 -156.416)"/>
          <path id="Trazado_991889" data-name="Trazado 991889" d="M234.4,180.972c-2.1,1.045-4.522,2.042-6.783.662-1.817-1.1-2.923-3.142-4.9-4.024-.328-.109-.389-.608-.219-.881-.827-1.1-1.762-2.316-3.088-2.644-1.817-.334-2.48,1.38-2.869,2.759a.672.672,0,0,1-1.216.164c-.274-.5-2.869-4.3-3.586-2.978a.709.709,0,0,1-1.1.164c-.444-.608-1.544-2.589-2.37-2.48-.881.164-1.1,2.923-1.161,3.641-.055.444-.608.881-1.045.553a29.018,29.018,0,0,0-4.741-2.759,4.742,4.742,0,0,0-1.544-.608c-.772.055-.772.5-.881,1.045a13.956,13.956,0,0,0-.109,3.033c.055.881-1.27.827-1.325-.055-.11-1.6-.328-5.732,2.206-5.4a11.488,11.488,0,0,1,3.531,1.38c.936.5,1.817,1.1,2.7,1.653.164-1.434.5-3.2,1.763-3.75,1.544-.662,2.7.991,3.531,2.206,1.38-.936,3.361.991,4.522,2.48a3.591,3.591,0,0,1,2.924-2.425c2.152-.109,3.586,1.489,4.741,3.033a.593.593,0,0,1,.164.389.779.779,0,0,1-.109.328c1.872.827,2.923,2.644,4.522,3.8a4.749,4.749,0,0,0,.717.334c-.274-1.708.608-3.252,1.045-5.02.164-.717.553-3.477-1.544-2.425-.5.219-.717,1.708-.936,2.261-.219.608-.389,1.216-1.1,1.27-1.708.109-1.653-2.923-1.933-3.914-.5-1.817-2.152-5.014-4.358-2.425-.662.717-.881,1.434-1.817,1.933a.623.623,0,0,1-.936-.444c-.334-1.216-.444-3.477-1.1-4.522-.109-.717-.662-.827-1.653-.438a9.371,9.371,0,0,0,.055,1.21v2.152a.681.681,0,0,1-.827.662c-1.987-.444-2.37-2.814-3.477-4.188-.109-.5-.328-.717-.717-.662-.383-.109-.5.055-.274.389-.109.164,0,.553-.055.717a1.618,1.618,0,0,1-.881,1.1c-1.6.662-2.759-1.216-3.641-2.152a3,3,0,0,0-.444-.438c.444-.219.881-.389,1.27-.553a6.469,6.469,0,0,0,1.045,1.045c1.763,1.1.936-.273,1.27-1.216a1.5,1.5,0,0,1,1.38-.936c2.316.055,2.48,3.641,3.969,5.02-.109-1.817-.164-4.577,1.987-4.467,2.316.055,2.814,3.641,3.2,5.9.608-.827.991-1.872,1.933-2.37a2.925,2.925,0,0,1,2.923.389,6.244,6.244,0,0,1,2.1,2.814,15.475,15.475,0,0,1,.662,2.759c.219,1.155.164.881.553-.109s.827-2.425,2.042-2.7a2.361,2.361,0,0,1,2.206.991c2.042,2.923-1.6,5.847-.5,8.71.164,0,.389.055.553.055a9.956,9.956,0,0,0,3.088-1.216A.677.677,0,0,1,234.4,180.972Z" transform="translate(-170.165 -158.484)"/>
          <path id="Trazado_991890" data-name="Trazado 991890" d="M202.686,167.131a7.186,7.186,0,0,0-3.312.5,5,5,0,0,0-2.462,1.8,2.132,2.132,0,0,0,.851,2.674,5.955,5.955,0,0,0,2.875,1.124c.565.085,1.143.134,1.708.207.115.012.839.043.894.182a4.386,4.386,0,0,1-.571.359,8.8,8.8,0,0,1-3.2.65c-1.927.195-4.777.735-4.571,3.276a3.284,3.284,0,0,0,1.951,2.632,10.907,10.907,0,0,0,1.86.553c.444.122,1.355.431,1.258,1.057-.128.845,1.161,1.222,1.289.371a2.2,2.2,0,0,0-1.021-2.231c-.894-.608-2.048-.517-2.972-1.039-.833-.474-1.507-1.665-.632-2.456a5.489,5.489,0,0,1,3.118-.845,11.592,11.592,0,0,0,2.954-.523c.772-.286,1.915-.845,1.939-1.805.03-1.149-1.288-1.4-2.158-1.507a10.951,10.951,0,0,1-3.161-.608c-.413-.182-1.149-.583-1.27-1.076-.128-.529.644-.936,1.027-1.167a5.864,5.864,0,0,1,3.568-.79C203.518,168.547,203.543,167.2,202.686,167.131Z" transform="translate(-182.896 -142.728)"/>
          <path id="Trazado_991891" data-name="Trazado 991891" d="M201.579,170.33a13.148,13.148,0,0,1-6.722-2.62.669.669,0,0,0-.918.237.686.686,0,0,0,.237.918,14.412,14.412,0,0,0,7.379,2.808.68.68,0,0,0,.687-.656A.694.694,0,0,0,201.579,170.33Z" transform="translate(-188.19 -140.165)"/>
          <path id="Trazado_991892" data-name="Trazado 991892" d="M198.392,169.28c-.109-.036-.219-.079-.328-.122-.431-.2-.632-.3-.827-.413a20.126,20.126,0,0,1-2.273-1.568.676.676,0,0,0-.918.237.686.686,0,0,0,.237.918,10.418,10.418,0,0,0,5.282,2.565.68.68,0,0,0,.687-.656.688.688,0,0,0-.656-.687,4.613,4.613,0,0,1-.559-.085C198.818,169.414,198.6,169.353,198.392,169.28Z" transform="translate(-187.646 -142.865)"/>
          <path id="Trazado_991893" data-name="Trazado 991893" d="M199.782,168.785q-2.006-1.058-3.9-2.3a.673.673,0,0,0-.918.237.683.683,0,0,0,.237.918c1.264.821,2.571,1.592,3.9,2.3a.67.67,0,1,0,.681-1.155Z" transform="translate(-182.97 -146.339)"/>
          <path id="Trazado_991894" data-name="Trazado 991894" d="M200.132,170.375a30.281,30.281,0,0,1-5.026,4.425.689.689,0,0,0-.261.912.678.678,0,0,0,.912.261,31.884,31.884,0,0,0,5.312-4.637C201.645,170.7,200.716,169.737,200.132,170.375Z" transform="translate(-183.545 -127.185)"/>
          <path id="Trazado_991895" data-name="Trazado 991895" d="M193.54,172.647a7.113,7.113,0,0,1-.389-1.325,5.538,5.538,0,0,1,1.045-.662c-.608-.273-.553-1.325.219-1.27,3.7.274,7.385.608,11.025.936.881.055.881,1.38,0,1.325-3.416-.273-6.783-.553-10.2-.827a.606.606,0,0,1-.219.881,9.165,9.165,0,0,0-1.216.772C193.759,172.538,193.649,172.538,193.54,172.647Z" transform="translate(-191.723 -131.135)"/>
          <path id="Trazado_991896" data-name="Trazado 991896" d="M207.494,170.987a48.82,48.82,0,0,1-9.153,3.252,1.642,1.642,0,0,1-.109,1.325,12.712,12.712,0,0,1-.772,1.489c.662-.164,1.27-.274,1.933-.383a1.824,1.824,0,0,1,1.817.383c.553.608.219,1.434,0,2.152s-.444,1.38-.717,2.1c.881.055,1.763.164,2.644.219.827.109.827,1.434-.055,1.325-.662-.055-1.38-.109-2.1-.219a10.826,10.826,0,0,1-1.708-1.817c.109-.328.219-.608.328-.936s.219-.662.328-1.045c.055-.164.274-.662.219-.772-.164-.328-1.38.109-1.653.164-.383.055-.827.164-1.216.219a18.7,18.7,0,0,1-1.216-1.6c.164-.274.328-.608.5-.936.109-.164.553-.772.5-.991-.055-.274-.219-.274-.5-.438-.827-.383-1.6-.827-2.425-1.216a10.526,10.526,0,0,1-.881-1.987,14.125,14.125,0,0,0,1.6.827c.881.444,1.817.881,2.7,1.38a.731.731,0,0,1,.444-.553,45.035,45.035,0,0,0,8.819-3.088C207.6,169.443,208.265,170.6,207.494,170.987Z" transform="translate(-191.174 -129.256)"/>
          <path id="Trazado_991897" data-name="Trazado 991897" d="M201.663,171.846a23.622,23.622,0,0,1-5.786,7.883,11.363,11.363,0,0,1-1.045-.827,22.685,22.685,0,0,0,5.677-7.719C200.83,170.357,201.991,171.074,201.663,171.846Z" transform="translate(-183.192 -123.885)"/>
          <path id="Trazado_991898" data-name="Trazado 991898" d="M199.032,172.292a16.947,16.947,0,0,1-2.042,6.12,14.225,14.225,0,0,0-1.489-.274,14.323,14.323,0,0,0,2.206-6.23c.055-.328.553-.5.827-.444A.728.728,0,0,1,199.032,172.292Z" transform="translate(-179.79 -120.636)"/>
          <path id="Trazado_991899" data-name="Trazado 991899" d="M192.961,168.981a3.223,3.223,0,0,1,.444,1.927A11.742,11.742,0,0,1,192.961,168.981Z" transform="translate(-192.688 -133.2)"/>
          <path id="Trazado_991900" data-name="Trazado 991900" d="M201.516,177.513a62.019,62.019,0,0,1-8.436,0,5.491,5.491,0,0,1-.164-1.325,59.823,59.823,0,0,0,7,.055c-2.206-2.1-4.413-4.242-6.619-6.285a.653.653,0,0,1,.164-1.045c.827-.553,1.708-1.1,2.535-1.6.772-.5,1.38.662.662,1.161-.608.383-1.216.772-1.817,1.1,2.425,2.261,4.85,4.522,7.166,6.838A.64.64,0,0,1,201.516,177.513Z" transform="translate(-192.916 -142.285)"/>
          <path id="Trazado_991901" data-name="Trazado 991901" d="M207.964,170.41a8.592,8.592,0,0,1-3,2.553.671.671,0,0,0,.65,1.173,9.419,9.419,0,0,0,3.282-2.766,40.84,40.84,0,0,0,2.607-3.434c.486-.717-.669-1.4-1.155-.687A37.739,37.739,0,0,1,207.964,170.41Z" transform="translate(-133.449 -143.521)"/>
          <path id="Trazado_991902" data-name="Trazado 991902" d="M216.212,169.131a17.33,17.33,0,0,1-2.37,2.923.623.623,0,0,1,.219.881,15.571,15.571,0,0,1-5.622,5.567c.936-.219,1.872-.553,2.759-.827-1.1.772-2.152,1.6-3.2,2.316a15.168,15.168,0,0,1-2.759.328.683.683,0,0,1-.328-1.27c2.589-1.489,5.294-3.088,7.111-5.513a16.02,16.02,0,0,1-7.275,2.978c-.881.109-1.216-1.216-.334-1.325a14.707,14.707,0,0,0,10.643-6.783C215.55,167.7,216.7,168.359,216.212,169.131Z" transform="translate(-137.151 -137.653)"/>
          <path id="Trazado_991903" data-name="Trazado 991903" d="M203.113,166.738c-.334.8.96,1.161,1.289.371l.146-.346c.851,2.7-.055,5.768-.049,8.54a.678.678,0,0,0,1,.6,14.5,14.5,0,0,0,2.583-2.1,6.59,6.59,0,0,1,1.544-.936,14.825,14.825,0,0,1-1.805,2.613c-.571.644.365,1.6.942.96a16.42,16.42,0,0,0,2.857-4.534c.207-.492-.359-.93-.8-.839a8.432,8.432,0,0,0-3.209,1.422c-.608.444-1.149.972-1.714,1.459.213-3.13.954-6.376-.778-9.208a.681.681,0,0,0-1.234.14C203.629,165.5,203.368,166.118,203.113,166.738Z" transform="translate(-141.415 -156.418)"/>
          <path id="Trazado_991904" data-name="Trazado 991904" d="M215.945,170.862c-.164.881-.164,2.814-1.38,2.869-1.1.109-1.6-1.489-1.987-2.206a34.219,34.219,0,0,0-3.75-6.12,13.8,13.8,0,0,0-1.216-1.38c-.109-.109-.274-.219-.389-.328a3.525,3.525,0,0,1,.389.553,6.181,6.181,0,0,1,.881,1.27,3.493,3.493,0,0,1,.389,2.759c-.438.991-1.653.5-2.37.164a22.851,22.851,0,0,1-2.644-1.325c-.5-.219-.936-.444-1.434-.662-.274-.055-.5-.164-.717-.219-.164.109-.055.274,0,.383a9.5,9.5,0,0,0,.383,1.155.664.664,0,0,1-.5.772,1.36,1.36,0,0,1-.936-.109.6.6,0,0,1-.109-.991,11.664,11.664,0,0,1-.438-1.27c.881-.328,1.708-.662,2.589-.991a4.989,4.989,0,0,1,1.155.5c.991.444,1.872.936,2.869,1.38a2.542,2.542,0,0,0,.881.383.526.526,0,0,0,.055-.383,3.739,3.739,0,0,0-.772-1.544c-.328-.553-.717-.936-1.045-1.489.936-.328,1.817-.662,2.7-.936a9.282,9.282,0,0,1,1.38,1.544,26.77,26.77,0,0,1,2.042,3.033c.662,1.1,1.27,2.261,1.878,3.416.164.328.328.608.5.936a3.731,3.731,0,0,1,.164-.553c.055-.334.109-.662.164-.991C214.839,169.652,216.109,170.035,215.945,170.862Z" transform="translate(-156.345 -163.094)"/>
        </g>
        <g id="Grupo_1155159" data-name="Grupo 1155159" transform="translate(85.307 310.25)">
          <path id="Trazado_991905" data-name="Trazado 991905" d="M217.963,182.021c-.389-.164-.827-.328-1.216-.5a7.873,7.873,0,0,0,.274-.881,14.023,14.023,0,0,0-.383-7.828,8.693,8.693,0,0,0-.389-1.161c-.936-2.535-1.927-5.847-4.078-7.555-.662-.553.219-1.6.881-1.045a11.136,11.136,0,0,1,2.759,4.024,53.792,53.792,0,0,1,1.981,5.02c.055.109.109.274.164.389A15.227,15.227,0,0,1,217.963,182.021Z" transform="translate(-174.709 -162.895)"/>
          <path id="Trazado_991906" data-name="Trazado 991906" d="M214.572,171.419a11.68,11.68,0,0,1-.553,3.7c-.109.389-.273.827-.444,1.27a13.142,13.142,0,0,0-1.27-.444,9.544,9.544,0,0,0,.663-2.152,13.949,13.949,0,0,0,.219-1.489,14.409,14.409,0,0,0-1.434-7.883c-.383-.772.881-1.216,1.27-.444A14.633,14.633,0,0,1,214.572,171.419Z" transform="translate(-176.005 -159.465)"/>
          <path id="Trazado_991907" data-name="Trazado 991907" d="M237.413,166.522c.5.164.991.389,1.489.553A1.369,1.369,0,0,0,237.413,166.522Zm-27.959.717a3.611,3.611,0,0,0,1.161-.553A.687.687,0,0,0,209.454,167.239Z" transform="translate(-187.322 -144.752)"/>
          <path id="Trazado_991908" data-name="Trazado 991908" d="M215.527,166.083a19.166,19.166,0,0,1-1.045,4.905,10.784,10.784,0,0,0-1.21-.444,21.931,21.931,0,0,0,.991-4.686C214.317,164.977,215.636,165.257,215.527,166.083Z" transform="translate(-167.922 -150.598)"/>
          <path id="Trazado_991909" data-name="Trazado 991909" d="M214.95,166.984c-.055.164-.109.334-.164.5.444.164.827.328,1.27.5a.79.79,0,0,1,.109-.383C216.494,166.765,215.284,166.212,214.95,166.984Z" transform="translate(-160.234 -144.005)"/>
          <path id="Trazado_991910" data-name="Trazado 991910" d="M207.2,169.937a12.4,12.4,0,0,1,3.142-1.762c-1.27.936-2.535,1.817-3.7,2.7A1.826,1.826,0,0,1,207.2,169.937Z" transform="translate(-201.553 -136.09)"/>
          <path id="Trazado_991911" data-name="Trazado 991911" d="M226.455,165.86c-.827.553-1.6,1.045-2.37,1.6a5.721,5.721,0,0,0-1.489.5.655.655,0,0,1-.827-.389c-1.38-.055-2.923-.109-4.024.772-1.216.991-.717,2.261-.055,3.361a25.334,25.334,0,0,1-2.152,1.489c-1.38-.055-3.033.164-2.644,1.045a.715.715,0,0,1-.608.881c-.717,0-2.978-.444-3.422.273-.219.444.274,1.216.881,1.933a8.731,8.731,0,0,0-1.106.827c-.772-.991-1.38-2.042-1.1-3.088.444-1.6,2.425-1.434,3.914-1.325.109-1.653,2.869-1.987,4.8-1.933a3.416,3.416,0,0,1-.055-3.8c1.27-1.708,3.416-1.817,5.349-1.763a.755.755,0,0,1,.608.444A10.792,10.792,0,0,1,226.455,165.86Z" transform="translate(-197.376 -147.84)"/>
          <path id="Trazado_991912" data-name="Trazado 991912" d="M237.7,170.223c-.383.219-.772.5-1.155.772-1.106-.881-1.762-2.316-2.7-3.586-.444-.608-2.316-2.644-2.869-.328-.109.553.936,1.653,1.216,2.152.328.553.662,1.045.274,1.653-.991,1.434-3.306-.553-4.242-.936-1.763-.772-5.239-1.489-4.686,1.817a5.266,5.266,0,0,1,.389,2.589.659.659,0,0,1-.936.5c-1.155-.553-2.978-1.878-4.242-2.042-.553-.328-.991,0-1.325.991.274.273.608.5.936.772.553.438,1.1.881,1.708,1.325a.74.74,0,0,1-.055,1.1c-1.6,1.216-3.7.055-5.458.055-.444-.274-.717-.274-.936.109-.328.219-.274.383.109.5.109.164.444.274.553.438a1.712,1.712,0,0,1,.274,1.38c-.5,1.653-2.65,1.38-3.969,1.434-.608.055-1.27.109-1.927.219l-.991.164c-.553,0-.5.164.274.5a32.554,32.554,0,0,0,3.586,2.589.646.646,0,0,1-.055,1.045,9.712,9.712,0,0,1-2.37,1.216c-1.38.717-2.644,3.142-1.38,4.522-.334.273-.717.553-1.045.772a2.962,2.962,0,0,1-.772-2.535,5.537,5.537,0,0,1,1.489-3.252,8.879,8.879,0,0,1,2.48-1.27,17.86,17.86,0,0,1-3.416-2.535c-.389-.383-.772-.717-.608-1.325.5-2.042,4.577-.991,5.956-1.489,1.927-.662.383-.936-.109-1.763a1.53,1.53,0,0,1,.164-1.653c1.489-1.763,4.358.328,6.394.109-1.544-1.1-3.7-2.759-2.261-4.358,1.544-1.762,4.631.109,6.619,1.27-.219-1.045-.827-1.987-.608-3.033a2.749,2.749,0,0,1,2.152-1.987,5.778,5.778,0,0,1,3.471.164,13.455,13.455,0,0,1,2.589,1.161c1.045.553.772.438.274-.444-.553-.936-1.38-2.206-.827-3.307a2.253,2.253,0,0,1,2.206-1.045C235.17,164.874,235.334,168.952,237.7,170.223Z" transform="translate(-205.811 -154.02)"/>
          <path id="Trazado_991913" data-name="Trazado 991913" d="M213.166,165.681a8.141,8.141,0,0,1-.274,1.106,6.072,6.072,0,0,1-.5,1.434,8.829,8.829,0,0,1-1.1-.438c.219-.772.383-1.544.553-2.316C212.011,164.63,213.336,164.855,213.166,165.681Z" transform="translate(-177.966 -152.512)"/>
          <path id="Trazado_991914" data-name="Trazado 991914" d="M214.043,168.184a8.517,8.517,0,0,1,.079,3.932.672.672,0,0,0,.541.778.687.687,0,0,0,.778-.541,9.393,9.393,0,0,0-.061-4.291,39.723,39.723,0,0,0-1.015-4.194c-.249-.827-1.507-.365-1.258.462A37.855,37.855,0,0,1,214.043,168.184Z" transform="translate(-168.924 -160.162)"/>
          <path id="Trazado_991915" data-name="Trazado 991915" d="M225,182.625c-.5-.164-.936-.383-1.434-.553-.164-.662-.328-1.325-.5-1.987-.274-1.434-.444-2.814-.662-4.249a12.642,12.642,0,0,0-.5-3.088,22.431,22.431,0,0,1-3.531,7.33.655.655,0,0,1-1.155-.438c.5-3.088.936-6.175.219-9.1a15.728,15.728,0,0,1-2.316,7.5c-.444.772-1.653.164-1.216-.553a14.867,14.867,0,0,0,1.544-12.569.647.647,0,1,1,1.216-.444,14.71,14.71,0,0,1,.772,3.75.591.591,0,0,1,.827.328,16.209,16.209,0,0,1,.772,7.938c.827-1.817,1.489-3.8,2.152-5.677a.682.682,0,0,1,1.045-.219,6.621,6.621,0,0,1,1.325,3.75c.274,1.6.389,3.2.662,4.741C224.51,180.309,224.839,181.41,225,182.625Z" transform="translate(-165.157 -157.105)"/>
          <path id="Trazado_991916" data-name="Trazado 991916" d="M210.657,167.137c.407.76,1.507-.012,1.1-.766-.061-.109-.122-.219-.176-.334,2.632,1.045,4.431,3.7,6.582,5.44a.676.676,0,0,0,1.094-.389,14.529,14.529,0,0,0,.012-3.331,6.314,6.314,0,0,1,.255-1.787,14.851,14.851,0,0,1,.881,3.051c.14.845,1.477.735,1.337-.122a16.491,16.491,0,0,0-1.7-5.081c-.249-.474-.948-.31-1.155.091a8.334,8.334,0,0,0-.93,3.385c-.043.748.024,1.5.049,2.249-2.285-2.146-4.334-4.771-7.622-5.227a.677.677,0,0,0-.669,1.039C210.025,165.952,210.341,166.542,210.657,167.137Z" transform="translate(-186.483 -159.675)"/>
          <path id="Trazado_991917" data-name="Trazado 991917" d="M212.577,169.081c-.948.468-1.933.839-2.887,1.295a14.876,14.876,0,0,0-1.532.827,2.9,2.9,0,0,0-1.222,1.1.977.977,0,0,0,.614,1.276,14.1,14.1,0,0,0,1.4.5.6.6,0,0,0,.833.541,1.339,1.339,0,0,0,.705-.626.671.671,0,0,0-.316-.894l-1.13-.4c-.14-.049-.316-.091-.486-.146.4-.268.608-.389.815-.511.468-.261.96-.486,1.447-.705.893-.4,1.8-.766,2.668-1.222.717-.371,1.866-.972,1.386-1.969a3.348,3.348,0,0,0-2.37-1.422,9.5,9.5,0,0,0-1.55-.146c-.219-.006-.438-.012-.656-.024.158-.03.316-.061.474-.079a15.4,15.4,0,0,1,1.836-.091,36.3,36.3,0,0,1,7.093.979c.833.17,2.364.8,2.984-.1.717-1.033-.748-2.231-1.337-2.93-.553-.656-1.659.1-1.1.766.213.249.419.5.632.748.085.1.219.3.353.456-.353-.067-.7-.14-1.052-.213-1.264-.255-2.535-.517-3.811-.711a26.037,26.037,0,0,0-3.641-.328,9.09,9.09,0,0,0-3.458.4c-.76.3-1.848,1.228-.979,2.048a2.083,2.083,0,0,0,1.282.365c.638.049,1.276.03,1.908.085a4.261,4.261,0,0,1,1.641.4.864.864,0,0,1,.31.194C213.27,168.82,212.814,168.966,212.577,169.081Z" transform="translate(-200.467 -156.866)"/>
        </g>
        <path id="Trazado_991918" data-name="Trazado 991918" d="M256.4,164a70.315,70.315,0,0,0-18.854,8.631,77.472,77.472,0,0,0-11.724,9.615c-5.914,5.519-15.487,12.654-31.168,18.836q1.067-10.165,2.127-20.337a48.432,48.432,0,0,1-2.881-7.129,49.119,49.119,0,0,1-2.127-11.08Q224.085,163.278,256.4,164Z" transform="translate(-191.775 145.551)" fill="#e2fafb"/>
        <path id="Trazado_991919" data-name="Trazado 991919" d="M232.51,142.48c1.331,2.917,2.395,6.8,6.3,10.545,1.6,1.544,5.519,5.312,11.53,5.537a15.476,15.476,0,0,0,12.976-6.072c2.164-3.069,1.829-5.64,2.51-8.485,1.131-4.735,5.227-10.873,18.641-16.556a114.753,114.753,0,0,1-3.543,37.562c-3.58,13.42-5.877,22.051-14.113,27.466-10.855,7.142-26.713,5.184-36.644-2.273-5.361-4.024-7.914-8.837-10.454-13.627-5.337-10.059-6.169-19.34-7.075-30.645a138.435,138.435,0,0,1-.1-20.6C224.967,130.774,230.146,137.283,232.51,142.48Z" transform="translate(-88.049 -43.41)"/>
        <path id="Trazado_991920" data-name="Trazado 991920" d="M234.854,127.327c.164-.893,5.306-1.945,7.512.456,2.273,2.468.559,7.64-2.127,10.32a9.972,9.972,0,0,1-4.157,2.413c-.863.28-5.039,1.538-8.813-.438-2.723-1.428-2.741-3.227-6.224-4.7-1.684-.711-2.607-.681-2.656-1.137-.115-1.082,4.826-3.787,9.561-2.881,3.373.644,4.443,2.693,7.129,2.127,1.757-.371,3.543-1.726,3.489-2.96C238.495,128.761,234.708,128.123,234.854,127.327Z" transform="translate(-56.643 -38.425)"/>
        <path id="Trazado_991921" data-name="Trazado 991921" d="M222.972,127.327c-.164-.893-5.3-1.945-7.512.456-2.273,2.468-.559,7.64,2.127,10.32a9.973,9.973,0,0,0,4.157,2.413c.863.28,5.039,1.538,8.813-.438,2.723-1.428,2.741-3.227,6.224-4.7,1.684-.711,2.607-.681,2.656-1.137.122-1.082-4.826-3.787-9.561-2.881-3.373.644-4.443,2.693-7.129,2.127-1.756-.371-3.543-1.726-3.489-2.96C219.337,128.761,223.118,128.123,222.972,127.327Z" transform="translate(-76.87 -38.425)"/>
        <path id="Trazado_991922" data-name="Trazado 991922" d="M274.989,126.816c2.462,4.686,3.7,7.026,2.881,9.1-1.665,4.273-8.649,1.526-22.172,6.874-3.993,1.58-8.685,3.859-10.15,2.237-.893-.991.316-2.443-.28-3.592-2.407-4.637-28.42,7.476-31.733,1.921-2.668-4.473,4.09-12.916,6.157-15.5.243-.3.644-.814,1.21-1.465,1.258-1.453,8.151-8.9,24.367-12.113,9.263-1.842,14.441-2.723,19.7.255C270.036,117.383,272.716,122.488,274.989,126.816Z" transform="translate(-84.397 -108.095)"/>
        <path id="Trazado_991923" data-name="Trazado 991923" d="M216.07,136.845c-1.434,8.3-1.27,14.453-2.048,14.453-1.13,0-2.048-6.473-2.048-14.453,0-10.557,1.459-13.548,2.048-14.453a16.236,16.236,0,0,1,8.254-6.181A89.463,89.463,0,0,0,216.07,136.845Z" transform="translate(-89.211 -89.71)"/>
        <path id="Trazado_991924" data-name="Trazado 991924" d="M228.942,136.733c1.434,8.3,1.27,14.453,2.048,14.453,1.131,0,2.048-6.473,2.048-14.453,0-10.551-1.459-13.548-2.048-14.453a16.211,16.211,0,0,0-8.254-6.181A89.468,89.468,0,0,1,228.942,136.733Z" transform="translate(-34.557 -90.279)"/>
        <g id="Grupo_1155160" data-name="Grupo 1155160" transform="translate(149.566 24.175)">
          <path id="Trazado_991925" data-name="Trazado 991925" d="M251.489,116.451c-1.173,3.349-2.407,6.8-4.571,9.652-2.547,3.355-6.212,4.9-10.32,5.324a61.943,61.943,0,0,1-12.423-.14c-1.264-.128-2.528-.273-3.78-.48a3.54,3.54,0,0,1-1.3-.249,1.362,1.362,0,0,1-.273-1.787c.754-1.69,2.869-3.331,4.315-4.394.936-.687.03-2.267-.918-1.574-1.878,1.374-8.321,6.516-4.8,8.989,1.781,1.252,5.014,1.149,7.093,1.343a72.353,72.353,0,0,0,9.111.292c4.85-.152,9.779-.991,13.329-4.577,3.215-3.24,4.82-7.7,6.3-11.919.383-1.1-1.374-1.58-1.763-.48Z" transform="translate(-216.383 -115.827)"/>
        </g>
        <g id="Grupo_1155161" data-name="Grupo 1155161" transform="translate(182.658 13.084)">
          <path id="Trazado_991926" data-name="Trazado 991926" d="M228.358,127.413a39.867,39.867,0,0,0,2.206-5.592q.456-1.486.79-3.009a6.686,6.686,0,0,0,.207-2.571c-.34-1.963-2.419-2.535-4.133-2.1-1.86.468-3.185,1.969-4.972,2.583-1.106.377-.632,2.139.486,1.757,1.526-.523,2.7-1.6,4.133-2.279a3.041,3.041,0,0,1,2.006-.334c.65.176.748.705.711,1.313a12.109,12.109,0,0,1-.425,2.127c-.207.827-.438,1.647-.7,2.462a36.082,36.082,0,0,1-1.89,4.735c-.5,1.045,1.07,1.969,1.58.912Z" transform="translate(-221.828 -114.003)"/>
        </g>
        <g id="Grupo_1155162" data-name="Grupo 1155162" transform="translate(135.607)">
          <path id="Trazado_991927" data-name="Trazado 991927" d="M215.6,134.8c3.051-3.61,5.987-7.494,9.731-10.43,3.963-3.112,8.679-5.075,13.365-6.813q3.41-1.267,6.892-2.34c2.626-.8,5.58-1.951,8.351-1.41,2.328.456,5.993,2.486,6.807,4.85.991,2.869-1.471,5.634-3.215,7.573-.784.869.5,2.164,1.289,1.289,3.173-3.531,6.005-8.539,1.538-12.326a13.484,13.484,0,0,0-6.668-3.264c-3.027-.4-6.151.778-9,1.653-5.81,1.8-11.809,3.866-17.055,7-5.44,3.252-9.293,8.15-13.329,12.922-.754.9.535,2.194,1.288,1.295Z" transform="translate(-214.086 -111.85)"/>
        </g>
        <g id="Grupo_1155163" data-name="Grupo 1155163" transform="translate(191.583 201.447)">
          <rect id="Rectngulo_409688" data-name="Rectngulo 409688" width="45.676" height="27.418" transform="translate(0 3.604)" fill="#fff"/>
          <rect id="Rectngulo_409689" data-name="Rectngulo 409689" width="4.479" height="7.208" transform="translate(20.708)"/>
        </g>
        <g id="Grupo_1155164" data-name="Grupo 1155164" transform="translate(197.502 213.253)">
          <path id="Trazado_991928" data-name="Trazado 991928" d="M225.632,155.012q4.5-3.309,9.19-6.376l-1.337-.547a2.581,2.581,0,0,1-.067,1.422c-.146.59-.3,1.167-.48,1.75-.34,1.131-.748,2.237-1.2,3.331a.911.911,0,1,0,1.756.486,34.4,34.4,0,0,0,1.295-3.659c.353-1.2.845-2.565.456-3.8a.92.92,0,0,0-1.337-.547q-4.677,3.063-9.19,6.376a.939.939,0,0,0-.328,1.246.917.917,0,0,0,1.24.322Z" transform="translate(-224.27 -146.936)"/>
        </g>
        <g id="Grupo_1155165" data-name="Grupo 1155165" transform="translate(204.941 213.467)">
          <path id="Trazado_991929" data-name="Trazado 991929" d="M227,155.556a39.715,39.715,0,0,1,5.124-5.428l-1.526-.4a30.313,30.313,0,0,1-.286,6.418.921.921,0,0,0,1.556.644,44.418,44.418,0,0,1,3.841-3.647c.693-.584,1.4-1.137,2.133-1.671.371-.274,1.762-1.538,2.194-1.4l-.547-.419c.225.334-.146,1.41-.219,1.775-.115.547-.243,1.094-.383,1.635-.286,1.082-.638,2.146-1.027,3.2-.371,1,1.143,1.556,1.665.705a20.148,20.148,0,0,1,9.688-8.169c1.076-.426.608-2.194-.486-1.757a22.185,22.185,0,0,0-10.776,9.007c.553.231,1.112.468,1.665.705a31.8,31.8,0,0,0,1.641-6.072,2.365,2.365,0,0,0-.194-1.939,1.478,1.478,0,0,0-1.781-.389,19.017,19.017,0,0,0-4.419,3.13,43.983,43.983,0,0,0-4.291,4.024c.517.213,1.039.432,1.556.644a32.018,32.018,0,0,0,.219-6.9c-.1-.735-1.07-.8-1.526-.4a39.753,39.753,0,0,0-5.13,5.428c-.7.905.584,2.206,1.307,1.282Z" transform="translate(-225.494 -146.972)"/>
        </g>
      </g>
      <path id="Trazado_991930" data-name="Trazado 991930" d="M260.241,143.231c0,7.658-7.506,13.87-16.769,13.87s-16.769-6.212-16.769-13.87,7.506-13.87,16.769-13.87S260.241,135.573,260.241,143.231Z" transform="translate(177.362 88.92)" fill="#a3f0f3"/>
      <path id="Trazado_991931" data-name="Trazado 991931" d="M361.393,160.419c1.137,19.826-35.021,36.832-60.937,41.342-15.517,2.7-41.312,3.142-48.192-9.1-1.933-3.44-.8-5.075-3.185-10.241-6.291-13.59-19.2-13.213-21.394-20.033-4.947-15.353,47.378-55.09,72.771-43.311,3.774,1.75,7.828,5.045,17.589,8.941,11.967,4.777,15.681,3.738,22.531,7.057C349.718,139.493,360.786,149.892,361.393,160.419Z" transform="translate(180.684 25.746)" fill="#a3f0f3"/>
      <g id="Grupo_1155170" data-name="Grupo 1155170" transform="translate(450.89 125.44)">
        <path id="Trazado_991932" data-name="Trazado 991932" d="M278.232,144.606c-1.817,7.136-7.093,28.25-19.249,29.174-11.84.9-22.9-14.222-23.388-27.965-.5-14.235,10.181-29.782,23.388-30.384,7.354-.334,15.784,3.945,19.34,11.147C281.229,132.475,279.849,138.255,278.232,144.606Z" transform="translate(-228.46 -107.342)" fill="#fedd4d"/>
        <g id="Grupo_1155169" data-name="Grupo 1155169">
          <g id="Grupo_1155167" data-name="Grupo 1155167">
            <path id="Trazado_991933" data-name="Trazado 991933" d="M264.718,198.12c-10.521,0-19.085-9.141-19.085-20.385a19.852,19.852,0,0,1,.207-2.753,35.651,35.651,0,0,1-11.433-26.706c0-18.854,13.6-34.188,30.311-34.188s30.311,15.335,30.311,34.188A35.661,35.661,0,0,1,283.6,174.981a19.9,19.9,0,0,1,.207,2.753C283.8,188.978,275.239,198.12,264.718,198.12Zm0-80.989c-15.037,0-27.272,13.973-27.272,31.149a32.5,32.5,0,0,0,11.007,24.95,1.506,1.506,0,0,1,.511,1.4,18.678,18.678,0,0,0-.292,3.1c0,9.561,7.2,17.346,16.046,17.346s16.046-7.78,16.046-17.346a18.611,18.611,0,0,0-.292-3.1,1.514,1.514,0,0,1,.517-1.4A32.509,32.509,0,0,0,292,148.28C291.989,131.1,279.754,117.131,264.718,117.131Z" transform="translate(-234.407 -114.086)"/>
          </g>
          <g id="Grupo_1155168" data-name="Grupo 1155168" transform="translate(14.604 27.36)">
            <path id="Trazado_991934" data-name="Trazado 991934" d="M250.037,173.371a2.623,2.623,0,0,1-.833-.134c-3.507-1.228-2.662-9.968-1.69-20.082.845-8.783,1.775-18.477-.237-23.424-1.556,1.568-2.462,2.425-4.157,2.516a7.656,7.656,0,0,1-5.58-2.425,2.268,2.268,0,0,1-.7-1.848c.152-.748.954-1.289,1.6-1.617a8.586,8.586,0,0,1,6.8-.353,5.34,5.34,0,0,1,2.3,2.176c1.009-.991,2.316-2.231,4.157-3.726l-.261-.316c-.8-.979-2.571-3.385-1.866-4.656.614-1.118,2.82-.906,3.483-.827,1.5.207,3.355.845,3.622,1.975.225.93-.626,1.586-2.316,2.887-.4.3-.839.638-1.337,1.039a18.623,18.623,0,0,0,5.719,4.2c1.051-2.838,2.6-5.105,4.923-6.054,1.173-.48,3.872-1.064,4.723.158a2.548,2.548,0,0,1,.03,2.273,8.366,8.366,0,0,1-4.887,4.984,7.03,7.03,0,0,1-4.242-.182c-1.422,4.443-1.763,10.162-2,14.247A121.208,121.208,0,0,0,257.3,156.8c.274,6.661.45,11.056-3,14.234C253.556,171.724,251.781,173.371,250.037,173.371Zm-2.066-44.332c2.291,5.045,1.361,14.751.45,24.2-.857,8.922-1.744,18.143,1.088,19.127,1.453.486,3.422-1.307,4.163-1.988,3.142-2.9,2.972-6.9,2.7-13.536a119.908,119.908,0,0,1-.012-12.709c.243-4.145.583-9.919,2.066-14.5a18.775,18.775,0,0,1-6.139-4.492A56.971,56.971,0,0,0,247.97,129.038Zm-5.5-2.668a8.5,8.5,0,0,0-3.629.8c-.754.383-1.07.754-1.112.979a1.53,1.53,0,0,0,.5,1.076,6.648,6.648,0,0,0,4.619,2.115c1.623-.079,2.291-.748,3.914-2.383a3.867,3.867,0,0,0-1.921-2.133A5.756,5.756,0,0,0,242.47,126.37Zm17.1,2.717a6.084,6.084,0,0,0,3.677.176,7.512,7.512,0,0,0,4.3-4.419,1.8,1.8,0,0,0,.085-1.453c-.353-.517-2.158-.432-3.629.158C261.931,124.4,260.533,126.473,259.567,129.087Zm-7.634-9.585c-.881,0-1.447.188-1.58.425-.189.34.128,1.623,1.775,3.641.085.1.176.207.261.316.523-.407.985-.766,1.4-1.082,1.246-.96,2.073-1.592,1.987-1.945-.109-.444-1.234-1.064-2.863-1.282A6.355,6.355,0,0,0,251.933,119.5Z" transform="translate(-236.81 -118.588)"/>
          </g>
          <path id="Trazado_991935" data-name="Trazado 991935" d="M261.166,130.4c0,1.653-5.324,3-11.895,3s-11.894-1.343-11.894-3,5.324-3,11.894-3S261.166,128.747,261.166,130.4Z" transform="translate(-219.326 -46.458)"/>
          <path id="Trazado_991936" data-name="Trazado 991936" d="M261.166,131.051c0,1.653-5.324,3-11.895,3s-11.894-1.343-11.894-3,5.324-3,11.894-3S261.166,129.392,261.166,131.051Z" transform="translate(-219.326 -43.152)"/>
          <path id="Trazado_991937" data-name="Trazado 991937" d="M261.166,131.64c0,1.653-5.324,3-11.895,3s-11.894-1.343-11.894-3,5.324-3,11.894-3S261.166,129.981,261.166,131.64Z" transform="translate(-219.326 -40.161)"/>
        </g>
      </g>
    </g>
  </g>
</svg>
