<svg xmlns="http://www.w3.org/2000/svg" xmlns:xlink="http://www.w3.org/1999/xlink" width="98" height="98" viewBox="0 0 98 98">
  <defs>
    <filter id="Trazado_982548" x="0" y="0" width="98" height="98" filterUnits="userSpaceOnUse">
      <feOffset dy="3" input="SourceAlpha"/>
      <feGaussianBlur stdDeviation="3" result="blur"/>
      <feFlood flood-opacity="0.161"/>
      <feComposite operator="in" in2="blur"/>
      <feComposite in="SourceGraphic"/>
    </filter>
  </defs>
  <g id="_40" data-name="40" transform="translate(-612 -2320)">
    <g id="Grupo_1155719" data-name="Grupo 1155719" transform="translate(429 1471)">
      <g id="Grupo_1154380" data-name="Grupo 1154380" transform="translate(-9 -1247)">
        <g id="Grupo_1149886" data-name="Grupo 1149886" transform="translate(0 -2463)">
          <g id="Grupo_1149694" data-name="Grupo 1149694" transform="translate(-9 4104)">
            <g id="Grupo_1149263" data-name="Grupo 1149263" transform="translate(210 461)">
              <g transform="matrix(1, 0, 0, 1, -9, -6)" filter="url(#Trazado_982548)">
                <g id="Trazado_982548-2" data-name="Trazado 982548" transform="translate(9 6)" fill="#fee6da">
                  <path d="M 40 78.5 C 34.80187606811523 78.5 29.76003265380859 77.48227691650391 25.01452255249023 75.47509765625 C 20.43014526367188 73.53606414794922 16.31264495849609 70.75986480712891 12.77638912200928 67.22360992431641 C 9.240133285522461 63.68735504150391 6.46393346786499 59.56985473632812 4.524899959564209 54.98547744750977 C 2.517722129821777 50.23996734619141 1.5 45.19812393188477 1.5 40 C 1.5 34.80187606811523 2.517722129821777 29.76003265380859 4.524899959564209 25.01452255249023 C 6.46393346786499 20.43014526367188 9.240133285522461 16.31264495849609 12.77638912200928 12.77638912200928 C 16.31264495849609 9.240133285522461 20.43014526367188 6.46393346786499 25.01452255249023 4.524899959564209 C 29.76003265380859 2.517722129821777 34.80187606811523 1.5 40 1.5 C 45.19812393188477 1.5 50.23996734619141 2.517722129821777 54.98547744750977 4.524899959564209 C 59.56985473632812 6.46393346786499 63.68735504150391 9.240133285522461 67.22360992431641 12.77638912200928 C 70.75986480712891 16.31264495849609 73.53606414794922 20.43014526367188 75.47509765625 25.01452255249023 C 77.48227691650391 29.76003265380859 78.5 34.80187606811523 78.5 40 C 78.5 45.19812393188477 77.48227691650391 50.23996734619141 75.47509765625 54.98547744750977 C 73.53606414794922 59.56985473632812 70.75986480712891 63.68735504150391 67.22360992431641 67.22360992431641 C 63.68735504150391 70.75986480712891 59.56985473632812 73.53606414794922 54.98547744750977 75.47509765625 C 50.23996734619141 77.48227691650391 45.19812393188477 78.5 40 78.5 Z" stroke="none"/>
                  <path d="M 40 3 C 35.00370788574219 3 30.15846633911133 3.977851867675781 25.59885406494141 5.906410217285156 C 21.19326782226562 7.769813537597656 17.23602676391602 10.43806457519531 13.83704376220703 13.83705139160156 C 10.43806457519531 17.23603820800781 7.769813537597656 21.19327926635742 5.906410217285156 25.59885406494141 C 3.977851867675781 30.15846633911133 3 35.00370788574219 3 40 C 3 44.99629211425781 3.977851867675781 49.84153366088867 5.906410217285156 54.40114593505859 C 7.769813537597656 58.80672073364258 10.43806457519531 62.76396179199219 13.83704376220703 66.16294860839844 C 17.23602676391602 69.56193542480469 21.19326782226562 72.23018646240234 25.59885406494141 74.09358978271484 C 30.15846633911133 76.02214813232422 35.00370788574219 77 40 77 C 44.99629211425781 77 49.84153366088867 76.02214813232422 54.40114593505859 74.09358978271484 C 58.80672073364258 72.23018646240234 62.76396179199219 69.56193542480469 66.16294860839844 66.16294860839844 C 69.56193542480469 62.76396179199219 72.23018646240234 58.80672073364258 74.09358978271484 54.40114593505859 C 76.02214813232422 49.84153366088867 77 44.99629211425781 77 40 C 77 35.00370788574219 76.02214813232422 30.15846633911133 74.09358978271484 25.59885406494141 C 72.23018646240234 21.19327926635742 69.56193542480469 17.23603820800781 66.16294860839844 13.83705139160156 C 62.76396179199219 10.43806457519531 58.80672073364258 7.769813537597656 54.40114593505859 5.906410217285156 C 49.84153366088867 3.977851867675781 44.99629211425781 3 40 3 M 40 0 C 62.09138488769531 0 80 17.90861511230469 80 40 C 80 62.09138488769531 62.09138488769531 80 40 80 C 17.90859985351562 80 0 62.09138488769531 0 40 C 0 17.90861511230469 17.90859985351562 0 40 0 Z" stroke="none" fill="#fd884d"/>
                </g>
              </g>
            </g>
          </g>
        </g>
      </g>
    </g>
    <g id="dating-app" transform="translate(624 2341.302)">
      <path id="Trazado_992750" data-name="Trazado 992750" d="M122.405,59.528H94.141A3.14,3.14,0,0,1,91,56.387V10.641A3.14,3.14,0,0,1,94.141,7.5h28.265a3.14,3.14,0,0,1,3.141,3.141V56.387A3.14,3.14,0,0,1,122.405,59.528Z" transform="translate(-71.625 -6.715)" fill="#7a8c98"/>
      <path id="Trazado_992751" data-name="Trazado 992751" d="M364.141,7.5H361a3.14,3.14,0,0,1,3.141,3.141V56.387A3.14,3.14,0,0,1,361,59.528h3.141a3.14,3.14,0,0,0,3.141-3.14V10.641A3.14,3.14,0,0,0,364.141,7.5Z" transform="translate(-313.361 -6.715)" fill="#596c76"/>
      <path id="Trazado_992752" data-name="Trazado 992752" d="M121,78.879V37.973a.473.473,0,0,1,.473-.473h27.319a.473.473,0,0,1,.473.473V78.879Z" transform="translate(-98.485 -33.574)" fill="#d4f2f6"/>
      <path id="Trazado_992753" data-name="Trazado 992753" d="M359.623,37.5h-3.141a.473.473,0,0,1,.473.473V78.879H360.1V37.973A.473.473,0,0,0,359.623,37.5Z" transform="translate(-309.316 -33.574)" fill="#a6e7f0"/>
      <path id="Trazado_992754" data-name="Trazado 992754" d="M122.405,440.286H94.141A3.14,3.14,0,0,1,91,437.146v-4.368h34.546v4.368A3.14,3.14,0,0,1,122.405,440.286Z" transform="translate(-71.625 -387.473)" fill="#bd80e1"/>
      <path id="Trazado_992755" data-name="Trazado 992755" d="M364.141,432.778v4.368A3.14,3.14,0,0,1,361,440.286h3.141a3.14,3.14,0,0,0,3.141-3.141v-4.368Z" transform="translate(-313.361 -387.473)" fill="#af66da"/>
      <path id="Trazado_992756" data-name="Trazado 992756" d="M46.555,96.669v6.361a7.324,7.324,0,0,1-7.334,7.314H34.65a.189.189,0,0,0-.187.156c-.22,1.24-.325,3.46,1.295,4.815a.163.163,0,0,1-.125.288c-1.545-.223-5.472-1.174-6.058-5.1a.19.19,0,0,0-.187-.163H25.835a7.325,7.325,0,0,1-7.335-7.315v-6.36a7.325,7.325,0,0,1,7.335-7.315H39.22A7.325,7.325,0,0,1,46.555,96.669Z" transform="translate(-6.715 -80)" fill="#faf7f7"/>
      <g id="Grupo_1155720" data-name="Grupo 1155720" transform="translate(29.355 9.354)">
        <path id="Trazado_992757" data-name="Trazado 992757" d="M189.487,89.353h-3.15a7.325,7.325,0,0,1,7.335,7.315v6.361a7.324,7.324,0,0,1-7.334,7.314h3.15a7.324,7.324,0,0,0,7.334-7.314V96.668A7.325,7.325,0,0,0,189.487,89.353Z" transform="translate(-186.337 -89.353)" fill="#f3eae6"/>
      </g>
      <path id="Trazado_992758" data-name="Trazado 992758" d="M86.442,136.552a.091.091,0,0,0,.148,0,4.387,4.387,0,0,1,3.473-1.794c2.1,0,3.547,1.952,3.547,4.225,0,2.611-1.942,5.7-6.975,8.387a.251.251,0,0,1-.235,0c-5.033-2.691-6.975-5.777-6.975-8.387,0-2.273,1.447-4.225,3.547-4.225A4.388,4.388,0,0,1,86.442,136.552Z" transform="translate(-61.26 -120.651)" fill="#fe5694"/>
      <g id="Grupo_1155721" data-name="Grupo 1155721" transform="translate(23.686 14.107)">
        <path id="Trazado_992759" data-name="Trazado 992759" d="M137.3,134.759a4.108,4.108,0,0,0-1.678.353,4.282,4.282,0,0,1,2.084,3.872c0,2.343-1.565,5.067-5.523,7.546.453.284.936.565,1.453.841a.251.251,0,0,0,.235,0c5.033-2.691,6.975-5.777,6.975-8.387C140.843,136.711,139.4,134.759,137.3,134.759Z" transform="translate(-132.18 -134.759)" fill="#fd3581"/>
      </g>
      <path id="Trazado_992760" data-name="Trazado 992760" d="M347.185,288.515H332.774a1.274,1.274,0,0,1-1.274-1.274v-8.967A1.274,1.274,0,0,1,332.774,277h14.411a1.274,1.274,0,0,1,1.274,1.274v8.967A1.274,1.274,0,0,1,347.185,288.515Z" transform="translate(-286.949 -248.003)" fill="#fee97d"/>
      <path id="Trazado_992761" data-name="Trazado 992761" d="M454.471,277H451.33a1.274,1.274,0,0,1,1.274,1.274v8.967a1.274,1.274,0,0,1-1.274,1.274h3.141a1.274,1.274,0,0,0,1.274-1.274v-8.967A1.274,1.274,0,0,0,454.471,277Z" transform="translate(-394.235 -248.003)" fill="#ffd15b"/>
      <path id="Trazado_992762" data-name="Trazado 992762" d="M359,90.846H347.678a1.256,1.256,0,0,1-1.256-1.256V75.923a1.256,1.256,0,0,1,1.256-1.256H359a1.256,1.256,0,0,1,1.256,1.256V89.59A1.256,1.256,0,0,1,359,90.846Z" transform="translate(-300.309 -66.851)" fill="#bd80e1"/>
      <path id="Trazado_992763" data-name="Trazado 992763" d="M439.719,74.667h-3.141a1.256,1.256,0,0,1,1.256,1.256V89.59a1.256,1.256,0,0,1-1.256,1.256h3.141a1.256,1.256,0,0,0,1.256-1.256V75.923A1.256,1.256,0,0,0,439.719,74.667Z" transform="translate(-381.027 -66.851)" fill="#af66da"/>
      <circle id="Elipse_11844" data-name="Elipse 11844" cx="2.204" cy="2.204" r="2.204" transform="translate(50.827 11.932)" fill="#f3eae6"/>
      <path id="Trazado_992764" data-name="Trazado 992764" d="M379.6,160.892H373.28a1.061,1.061,0,0,1-1.058-1.058,3.8,3.8,0,0,1,3.792-3.792h.848a3.8,3.8,0,0,1,3.792,3.792A1.061,1.061,0,0,1,379.6,160.892Z" transform="translate(-323.408 -139.707)" fill="#faf7f7"/>
      <g id="Grupo_1155722" data-name="Grupo 1155722" transform="translate(11 0)">
        <path id="Trazado_992765" data-name="Trazado 992765" d="M148.2,461.139h-2.737a.785.785,0,0,0,0,1.57H148.2A.785.785,0,0,0,148.2,461.139Z" transform="translate(-130.69 -412.865)"/>
        <path id="Trazado_992766" data-name="Trazado 992766" d="M239,461.139h-2.737a.785.785,0,0,0,0,1.57H239A.785.785,0,0,0,239,461.139Z" transform="translate(-211.984 -412.865)"/>
        <path id="Trazado_992767" data-name="Trazado 992767" d="M329.8,461.139h-2.737a.785.785,0,0,0,0,1.57H329.8A.785.785,0,0,0,329.8,461.139Z" transform="translate(-293.277 -412.865)"/>
        <path id="Trazado_992768" data-name="Trazado 992768" d="M79.49,141.295a1.032,1.032,0,0,0,.975,0c13.154-6.7,5.954-18.195-.488-12.613C73.534,123.1,66.337,134.593,79.49,141.295Zm-3.059-12.52a3.586,3.586,0,0,1,2.839,1.473.883.883,0,0,0,1.415,0c4.322-4.982,10.4,3.68-.708,9.525-4.071-2.235-6.308-4.912-6.308-7.558C73.669,130.254,74.857,128.775,76.431,128.775Z" transform="translate(-65.722 -113.883)"/>
        <path id="Trazado_992769" data-name="Trazado 992769" d="M60.236,28.212h-5.53V24.781h3.986a2.044,2.044,0,0,0,2.041-2.041V9.073a2.044,2.044,0,0,0-2.041-2.041H54.705V3.926A3.93,3.93,0,0,0,50.78,0h-1.57a.785.785,0,0,0,0,1.57h1.57a2.358,2.358,0,0,1,2.355,2.355V7.031h-1.57V4.4a1.259,1.259,0,0,0-1.258-1.258H22.988A1.26,1.26,0,0,0,21.73,4.4v4.17H20.16V3.926A2.358,2.358,0,0,1,22.515,1.57H45.476a.785.785,0,0,0,0-1.57H22.515A3.93,3.93,0,0,0,18.59,3.926V8.588A8.118,8.118,0,0,0,11,16.669v6.36a8.118,8.118,0,0,0,7.59,8.081v8.7a.785.785,0,0,0,1.57,0V31.129h1.57V44.519H20.16V43.513a.785.785,0,0,0-1.57,0v6.159A3.93,3.93,0,0,0,22.515,53.6H50.78a3.93,3.93,0,0,0,3.926-3.926V41.3h5.53a2.061,2.061,0,0,0,2.059-2.059V30.271a2.061,2.061,0,0,0-2.059-2.059Zm-7.1,0h-1.57V24.781h1.57Zm6.027-19.14V22.739a.472.472,0,0,1-.471.471H47.369a.472.472,0,0,1-.471-.471V9.073a.472.472,0,0,1,.471-.471H58.692A.472.472,0,0,1,59.163,9.073ZM12.57,23.029v-6.36a6.547,6.547,0,0,1,6.55-6.53H32.5a6.547,6.547,0,0,1,6.55,6.53V23.03a6.546,6.546,0,0,1-6.549,6.529H27.935a.973.973,0,0,0-.96.8,6.824,6.824,0,0,0,.405,4.071,5.1,5.1,0,0,1-3.743-4.042.969.969,0,0,0-.964-.832H19.121a6.548,6.548,0,0,1-6.55-6.53ZM23.3,33.508a6.623,6.623,0,0,0,1.823,1.605,10.163,10.163,0,0,0,3.683,1.266.948.948,0,0,0,.741-1.667,4,4,0,0,1-1.1-3.583h4.055a8.118,8.118,0,0,0,8.119-8.1V16.669a8.12,8.12,0,0,0-8.121-8.1H23.3V4.711H49.995V7.031H47.369a2.044,2.044,0,0,0-2.041,2.041V22.739a2.044,2.044,0,0,0,2.041,2.041h2.625v3.431h-4.17a2.061,2.061,0,0,0-2.059,2.059v8.967A2.061,2.061,0,0,0,45.825,41.3h4.17v3.222H23.3ZM50.78,52.028H22.515a2.358,2.358,0,0,1-2.355-2.355V46.09H53.135v3.583A2.358,2.358,0,0,1,50.78,52.028Zm2.355-7.508h-1.57V41.3h1.57Zm7.59-5.281a.489.489,0,0,1-.489.489H45.825a.489.489,0,0,1-.489-.489V30.271a.489.489,0,0,1,.489-.489H60.236a.489.489,0,0,1,.489.489Z" transform="translate(-11 0)"/>
        <path id="Trazado_992770" data-name="Trazado 992770" d="M358.167,298.847h4.42a.785.785,0,0,0,0-1.57h-4.42A.785.785,0,0,0,358.167,298.847Z" transform="translate(-321.127 -266.157)"/>
        <path id="Trazado_992771" data-name="Trazado 992771" d="M367.565,324.814h-9.4a.785.785,0,0,0,0,1.57h9.4A.785.785,0,0,0,367.565,324.814Z" transform="translate(-321.127 -290.811)"/>
        <path id="Trazado_992772" data-name="Trazado 992772" d="M367.565,349.277h-9.4a.785.785,0,0,0,0,1.57h9.4A.785.785,0,0,0,367.565,349.277Z" transform="translate(-321.127 -312.713)"/>
        <path id="Trazado_992773" data-name="Trazado 992773" d="M366.565,117.306h6.317a1.845,1.845,0,0,0,1.843-1.843,4.583,4.583,0,0,0-2.65-4.15,2.988,2.988,0,1,0-4.7,0,4.583,4.583,0,0,0-2.65,4.15A1.845,1.845,0,0,0,366.565,117.306Zm3.159-9.253a1.418,1.418,0,0,1,.091,2.833h-.182a1.418,1.418,0,0,1,.091-2.833Zm-.424,4.4h.261a2.911,2.911,0,0,0,.326,0h.261a3.011,3.011,0,0,1,3.007,3.007.276.276,0,0,1-.273.273h-6.317a.276.276,0,0,1-.273-.273A3.01,3.01,0,0,1,369.3,112.456Z" transform="translate(-327.693 -95.336)"/>
      </g>
    </g>
  </g>
</svg>
