<svg id="_42" data-name="42" xmlns="http://www.w3.org/2000/svg" xmlns:xlink="http://www.w3.org/1999/xlink" width="304" height="265.103" viewBox="0 0 304 265.103">
  <defs>
    <filter id="Trazado_993746" x="18.314" y="4.701" width="285.686" height="260.403" filterUnits="userSpaceOnUse">
      <feOffset dy="3" input="SourceAlpha"/>
      <feGaussianBlur stdDeviation="3" result="blur"/>
      <feFlood flood-opacity="0.161"/>
      <feComposite operator="in" in2="blur"/>
      <feComposite in="SourceGraphic"/>
    </filter>
  </defs>
  <g transform="matrix(1, 0, 0, 1, 0, 0)" filter="url(#Trazado_993746)">
    <path id="Trazado_993746-2" data-name="Trazado 993746" d="M429.287,141.089c-18.023,34.157,85,147.793,132.141,127.7,13.489-5.749,9.379-16.9,27.506-32.541,36.953-31.895,80.706-8.571,99.212-32.017,19.86-25.157-9.957-78.051-15.782-88.392-32.807-58.2-97.64-90.221-109.138-79.369-5.821,5.5,4.52,19.635-1.8,25.46-13.719,12.644-70.7-46.382-96.963-30.418-13.516,8.214-16.2,34.654-15.783,47.352.569,17.237,7.356,24.227,3.157,36.98C446.935,130.726,434.214,131.755,429.287,141.089Z" transform="translate(-399.88 -18.05)" fill="#ac59f1"/>
  </g>
  <path id="Trazado_993747" data-name="Trazado 993747" d="M427.231,56.043l51.385,29.669V26.379Z" transform="translate(-399.753 -26.379)" fill="#e23e64"/>
  <g id="Grupo_1156191" data-name="Grupo 1156191" transform="translate(33.259 17.216)">
    <path id="Trazado_993748" data-name="Trazado 993748" d="M466.8,74.706c-.167-.045-38.122-21.965-38.122-21.965a.337.337,0,0,1,0-.587l37.955-21.915a.318.318,0,0,1,.334,0,.34.34,0,0,1,.172.294v43.83a.34.34,0,0,1-.172.294A.3.3,0,0,1,466.8,74.706ZM429.527,52.448,466.466,73.78V31.119Z" transform="translate(-428.511 -30.192)"/>
  </g>
  <circle id="Elipse_11887" data-name="Elipse 11887" cx="43.166" cy="43.166" r="43.166" transform="translate(185.436 83.388)" fill="#fd884d"/>
  <g id="Grupo_1156192" data-name="Grupo 1156192" transform="translate(193.623 90.645)">
    <path id="Trazado_993749" data-name="Trazado 993749" d="M507.528,133.462a43.505,43.505,0,1,1,43.51-43.505A43.558,43.558,0,0,1,507.528,133.462Zm0-86.333a42.825,42.825,0,1,0,42.828,42.823A42.871,42.871,0,0,0,507.528,47.129Z" transform="translate(-464.023 -46.452)"/>
  </g>
  <g id="Grupo_1156193" data-name="Grupo 1156193" transform="translate(0 35.25)">
    <path id="Trazado_993750" data-name="Trazado 993750" d="M467.008,34.185l45.862,79.433H421.146Zm0,21.432-27.3,47.285h54.6Z" transform="translate(-421.146 -34.185)" fill="#a3f0f3"/>
  </g>
  <path id="Trazado_993751" data-name="Trazado 993751" d="M436.337,87.16a32.071,32.071,0,1,0,32.071-32.071A32.073,32.073,0,0,0,436.337,87.16Z" transform="translate(-367.738 74.559)"/>
  <g id="Grupo_1156194" data-name="Grupo 1156194" transform="translate(32.387 178.703)">
    <path id="Trazado_993752" data-name="Trazado 993752" d="M462.674,134.669a34.358,34.358,0,0,1,0-68.717A11,11,0,0,1,463.9,66l-.51,4.484a5.346,5.346,0,0,0-.709-.018,29.843,29.843,0,0,0,0,59.685,6.165,6.165,0,0,0,.709-.018l.51,4.484A11.049,11.049,0,0,1,462.674,134.669Z" transform="translate(-428.318 -65.952)" fill="#e23e64"/>
  </g>
  <g id="Grupo_1156195" data-name="Grupo 1156195" transform="translate(228.603 64.743)">
    <path id="Trazado_993753" data-name="Trazado 993753" d="M502.987,103.156a11.47,11.47,0,0,0,1.242-.054l-.813-7.018c-.135.009-.284,0-.424.009a24.155,24.155,0,1,1,0-48.31,3.423,3.423,0,0,1,.429.009l.813-7.022a11.382,11.382,0,0,0-1.242-.054,31.22,31.22,0,1,0,0,62.44Z" transform="translate(-471.769 -40.716)" fill="#a3f0f3"/>
  </g>
  <path id="Trazado_993754" data-name="Trazado 993754" d="M436.461,72.839a32.076,32.076,0,0,0,64.151,0Z" transform="translate(-367.302 136.964)" fill="#fd884d"/>
  <path id="Trazado_993755" data-name="Trazado 993755" d="M458.1,33.391a40.123,40.123,0,1,0,80.245,0Z" transform="translate(-291.227 -1.726)"/>
  <path id="Trazado_993756" data-name="Trazado 993756" d="M423,69.153,449.3,84.34V53.971Z" transform="translate(-414.638 70.628)" fill="#e23e64"/>
  <path id="Trazado_993757" data-name="Trazado 993757" d="M470.045,73.087l26.3,15.187V57.905Z" transform="translate(-249.228 84.46)" fill="#a3f0f3"/>
  <path id="Trazado_993758" data-name="Trazado 993758" d="M475.437,85.838l44.345,25.6v-51.2Z" transform="translate(-230.271 92.648)" fill="#e23e64"/>
  <g id="Grupo_1156225" data-name="Grupo 1156225" transform="translate(25.753 6.577)">
    <g id="Grupo_1156223" data-name="Grupo 1156223" transform="translate(0 0.007)">
      <path id="Trazado_993759" data-name="Trazado 993759" d="M438.487,44.03c-.276.239-.1.75-.018,1,.086.172.3.736,1.743,1.517a12.344,12.344,0,0,0,2.384,1c.664.443.745.853.732,1.111-.054.334-.533,1.328-7.848,3.071,0,0-2.312.564-4.529,1.174-.312.023-3.951.316-4.1,1.441a.686.686,0,0,0,.131.474,5.333,5.333,0,0,0,3.021.045c1.138-.226,2.461-.6,4.182-.795a26.9,26.9,0,0,1,3.482-.158.952.952,0,0,1,.05.6c-.339,1-2.624,1.237-6.133,2.511-1.513.515-4.719,1.693-4.624,2.533.023.285.447.447.605.524,1.617.772,3.509-.4,5.478-1.305a32.941,32.941,0,0,1,6.128-2.1q-2.384,1.436-4.936,2.863c-1.409.79-2.8,1.544-4.173,2.267a1.152,1.152,0,0,0,.334.777c.537.5,1.743.343,2.876-.56l7.623-3.775c.316.33.628.628.939.926a37.649,37.649,0,0,1-4.2,3.026c-1.084.682-2.24,1.341-2.109,1.82.1.339.835.406.9.393a4.471,4.471,0,0,0,2.886-1.052c2.353-1.86,4.1-3.175,4.484-3.427s.745-.461.745-.461c.077-.045.19-.108.334-.185.081-.045.388-.2.754-.357.456-.19.605-.2,1.039-.357,0,0,.415-.149,1.061-.465,5.08-2.5,5.026-9.429,4.015-8.973-1.9-.741-7.37-3.7-7.37-3.7C440.907,43.582,438.825,43.759,438.487,44.03Z" transform="translate(-426.849 28.503)" fill="#ff7866"/>
      <path id="Trazado_993760" data-name="Trazado 993760" d="M430.581,53.984c-.054-1.413-.1-2.831-.158-4.245a100.176,100.176,0,0,1,36.908-5.469,95.377,95.377,0,0,1,10.07.971q.907,4.775,1.815,9.542a38.8,38.8,0,0,1-10.192,2.271c-12.143.993-18.474-4.462-32.464-3.73A51.267,51.267,0,0,0,430.581,53.984Z" transform="translate(-414.283 29.617)" fill="#ff7866"/>
      <g id="Grupo_1156196" data-name="Grupo 1156196" transform="translate(54.885 41.855)">
        <path id="Trazado_993761" data-name="Trazado 993761" d="M465.38,42.815c-3.716,4.4-7.4,8.765-11.113,13.164C449.218,62,444.11,68.013,439,74.029c3.36,1.626,6.688,3.283,10.043,4.909A124.023,124.023,0,0,0,463.2,65.864c1.187-1.242,2.407-2.574,3.6-3.933.551-.664,1.1-1.332,1.653-2a116.515,116.515,0,0,0,7.112-9.461c3.428-5.848,1.96-11.615-.619-12.861C472.628,36.511,468.279,38.417,465.38,42.815Z" transform="translate(-439.003 -36.397)" fill="#ff7866"/>
        <path id="Trazado_993762" data-name="Trazado 993762" d="M442.383,41.442c2.98,3.278,5.956,6.611,8.937,9.89,1.188-1.242,2.407-2.574,3.6-3.933C450.746,45.425,446.551,43.42,442.383,41.442Z" transform="translate(-427.12 -21.86)"/>
        <path id="Trazado_993763" data-name="Trazado 993763" d="M442.282,56.331q8.094,6.022,16.185,12.044a75.61,75.61,0,0,0,9.244-22.945c-.862-5.125-4.118-8.408-7.1-8.323a5.26,5.26,0,0,0-3.531,1.73Q449.679,47.582,442.282,56.331Z" transform="translate(-427.475 -37.106)" fill="#fff"/>
      </g>
      <g id="Grupo_1156212" data-name="Grupo 1156212" transform="translate(62.795)">
        <g id="Grupo_1156211" data-name="Grupo 1156211">
          <path id="Trazado_993764" data-name="Trazado 993764" d="M444.272,81.029c7.989,10.734,12.5,18.966,15.074,25.194.858,2.213,1.517,4.136,2.005,5.857,1.517,5.121,3.522,10.079,5.243,15.114,1.436,4.1,2.538,7.415,5.283,11.059a29.442,29.442,0,0,0,6.02,5.9c6.679-10.079,13.312-20.154,19.992-30.233-4.055-2.5-8.111-5-12.125-7.5a71.187,71.187,0,0,1-2.827-8.07,67.64,67.64,0,0,1-2.172-11.181c-.655-6.471-.122-11.267-.244-15.81a101.8,101.8,0,0,0-5.613-12.5,94.446,94.446,0,0,0-9.5-14.378c-3.441-3.685-6.76-7.334-10.079-10.937-1.639,1.269-3.238,2.538-4.832,3.811-1.025.817-2.05,1.639-3.071,2.416a15.214,15.214,0,0,1,4.3,6.593,12.036,12.036,0,0,1,.492,1.924c.081.492.163.984.2,1.477a15.012,15.012,0,0,1-1.924,8.359Z" transform="translate(-428.388 -7.751)" fill="#ff7866"/>
          <path id="Trazado_993765" data-name="Trazado 993765" d="M461.674,48.716a9.144,9.144,0,1,1-11.895-5.071A9.145,9.145,0,0,1,461.674,48.716Z" transform="translate(-429.19 25.402)" fill="#ff7866"/>
          <path id="Trazado_993766" data-name="Trazado 993766" d="M481.665,83.831c-8.318,7.559-20.605,7.591-27.451.063s-5.649-19.757,2.664-27.32,20.606-7.591,27.452-.063S489.978,76.267,481.665,83.831Z" transform="translate(-409.063 53.192)" fill="#ff7866"/>
          <path id="Trazado_993767" data-name="Trazado 993767" d="M440.825,102.6c3.974,4.258,7.988,8.521,11.962,12.78,1.72-.984,4.136-2.335,7.044-3.974,7.212-4.1,12-6.8,15.4-8.806,2.253-1.31,3.893-2.335,5.162-3.157a36.306,36.306,0,0,0,3.73-2.827A61.28,61.28,0,0,0,495.1,84.572q-4.979-16.284-9.912-32.608a164.838,164.838,0,0,0-30.8,30.274c-.817,1.025-1.6,2.091-2.375,3.111A161.688,161.688,0,0,0,440.825,102.6Z" transform="translate(-440.507 56.988)" fill="#ff7866"/>
          <path id="Trazado_993768" data-name="Trazado 993768" d="M451.139,67.991a164.788,164.788,0,0,0,30.969,26.219c.736.492,1.477.944,2.213,1.436.33.2.655.411.984.614a156.214,156.214,0,0,0,20.605,10.856c4.426-2.5,8.892-5.04,13.353-7.577-1.6-2.375-4.055-6.227-7.045-10.937-4.791-7.537-7.659-12.287-10.038-15.774a45.864,45.864,0,0,0-6.512-8.232,56.973,56.973,0,0,0-13.109-9.709Q466.892,61.456,451.139,67.991Z" transform="translate(-404.245 67.262)" fill="#ff7866"/>
          <path id="Trazado_993769" data-name="Trazado 993769" d="M503.8,122.333l-6,5.3a288.05,288.05,0,0,0-55.047-52.2,9.663,9.663,0,0,1-2-5.577c-.1-4.778,3.635-7.708,4.069-8.038l11.624,2.7a87.185,87.185,0,0,1,12.084,6.774c4.137,2.773,9.668,6.48,14.428,12.125,7.767,9.2,6.277,15,16.167,31.629C501.006,118.188,502.677,120.7,503.8,122.333Z" transform="translate(-440.755 91.629)" fill="#ff7866"/>
          <path id="Trazado_993770" data-name="Trazado 993770" d="M471.5,77.086a87.639,87.639,0,0,0,1.96,12.622c.587,2.538,1.346,5.076,2.827,10.048,1.264,4.236,2.353,7.727,3.116,10.142a2.433,2.433,0,0,1-1.17,1.739,2.459,2.459,0,0,1-2.962-.745,42.479,42.479,0,0,0-3.373-7.4,45.167,45.167,0,0,0-6.86-8.684A161.1,161.1,0,0,0,453.387,83.6q.468-4.626.93-9.257c6.331,4.412,9.47,4.538,11.15,3.536,1.183-.7,2.348-2.4,3.987-2.154A3.4,3.4,0,0,1,471.5,77.086Z" transform="translate(-396.342 135.658)" fill="#ff7866"/>
          <path id="Trazado_993771" data-name="Trazado 993771" d="M526.2,124.586l-6,5.3A287.782,287.782,0,0,0,465.147,77.69a9.6,9.6,0,0,1-2-5.577c-.1-4.778,3.635-7.708,4.069-8.038l11.624,2.7a87.2,87.2,0,0,1,12.084,6.774c4.136,2.773,9.668,6.48,14.433,12.125,7.767,9.2,6.277,15,16.167,31.629C523.4,120.441,525.072,122.952,526.2,124.586Z" transform="translate(-362.019 99.568)" fill="#ff7866"/>
          <path id="Trazado_993772" data-name="Trazado 993772" d="M493.9,79.346a87.5,87.5,0,0,0,1.96,12.617c.592,2.538,1.346,5.076,2.827,10.048,1.264,4.236,2.353,7.726,3.116,10.142a2.426,2.426,0,0,1-1.17,1.739,2.459,2.459,0,0,1-2.962-.745,42.475,42.475,0,0,0-3.373-7.4,44.985,44.985,0,0,0-6.859-8.684,161.123,161.123,0,0,0-11.655-11.208q.468-4.626.93-9.257c6.331,4.412,9.47,4.538,11.149,3.536,1.183-.7,2.348-2.4,3.987-2.154A3.422,3.422,0,0,1,493.9,79.346Z" transform="translate(-317.606 143.589)" fill="#ff7866"/>
          <path id="Trazado_993773" data-name="Trazado 993773" d="M450.052,41.823a9.292,9.292,0,0,1-.763,1.581,14.972,14.972,0,0,0-4.322-6.561c1.034-.817,2.073-1.635,3.107-2.452q.156.041.311.095C450.522,35.284,451.267,38.567,450.052,41.823Z" transform="translate(-425.945 -4.798)"/>
          <g id="Grupo_1156202" data-name="Grupo 1156202" transform="translate(6.79)">
            <g id="Grupo_1156197" data-name="Grupo 1156197">
              <path id="Trazado_993774" data-name="Trazado 993774" d="M459.914,59.755a68.119,68.119,0,0,1-8.48-.208,18.517,18.517,0,0,1-6.458-1.833A3.229,3.229,0,0,1,443.12,55.9a2.809,2.809,0,0,1,.47-2.434.661.661,0,0,0-.113-.537c-.235-.284-.713-.158-1-.573A1.232,1.232,0,0,1,442.451,51a.943.943,0,0,1,.605-.289,1.89,1.89,0,0,1-.686-1.495,1.038,1.038,0,0,1,.46-.763,10.569,10.569,0,0,0,1.052-.781,10.254,10.254,0,0,0,3.626-6.372,12.7,12.7,0,0,1,.135-1.644c.041-.266.095-.564.176-.885a12,12,0,0,1,2.254-4.525,15.425,15.425,0,0,1,4.827-4.191,15.265,15.265,0,0,1,7.677-2.222c6.191-.036,14.329,4.421,15.367,11.691,1.052,7.383-5.7,14.184-9.885,15.358a16.2,16.2,0,0,0-4.868,2.055A15.574,15.574,0,0,0,459.914,59.755Z" transform="translate(-442.258 -27.837)" fill="#ff7866"/>
              <path id="Trazado_993775" data-name="Trazado 993775" d="M444.245,36.8a2.687,2.687,0,0,0-.628-.863c-.343-.312-.565-.28-.836-.605a1.581,1.581,0,0,1-.357-.863,1.547,1.547,0,0,1,.262-.984,1.935,1.935,0,0,1,1.3-.637A6.85,6.85,0,0,0,447.1,30.9c-.235,1.093-.465,2.186-.7,3.278Q445.32,35.486,444.245,36.8Z" transform="translate(-441.685 -17.068)" fill="#ff7866"/>
            </g>
            <g id="Grupo_1156198" data-name="Grupo 1156198" transform="translate(6.413 11.85)">
              <path id="Trazado_993776" data-name="Trazado 993776" d="M447.7,34.742a.336.336,0,0,1-.334-.294,3.842,3.842,0,0,0-3.4-3.315.336.336,0,0,1-.293-.375.378.378,0,0,1,.375-.3,4.525,4.525,0,0,1,3.987,3.893.337.337,0,0,1-.284.384A.262.262,0,0,1,447.7,34.742Z" transform="translate(-443.679 -30.461)"/>
            </g>
            <path id="Trazado_993777" data-name="Trazado 993777" d="M445.832,32.521c-.348.813-1.075,1.282-1.63,1.048s-.718-1.088-.371-1.9,1.075-1.282,1.63-1.048S446.179,31.708,445.832,32.521Z" transform="translate(-437.366 -18.265)"/>
            <g id="Grupo_1156199" data-name="Grupo 1156199" transform="translate(1.313 22.743)">
              <path id="Trazado_993778" data-name="Trazado 993778" d="M444.026,34.083a1.9,1.9,0,0,1-1.391-.641.342.342,0,0,1,.506-.461,1.255,1.255,0,0,0,.885.42,1.11,1.11,0,0,0,.56-.154.334.334,0,0,1,.461.122.338.338,0,0,1-.118.465A1.836,1.836,0,0,1,444.026,34.083Z" transform="translate(-442.549 -32.873)"/>
            </g>
            <path id="Trazado_993779" data-name="Trazado 993779" d="M444.034,34.206c.163.479.271.876.334,1.142a2.2,2.2,0,0,1-1.391-.555c-.054-.05-.926-.872-.637-1.739.095-.289.361-.7.659-.691C443.4,32.381,443.682,33.2,444.034,34.206Z" transform="translate(-442.175 -11.925)" fill="#e8493d"/>
            <g id="Grupo_1156200" data-name="Grupo 1156200" transform="translate(7.757 8.711)">
              <path id="Trazado_993780" data-name="Trazado 993780" d="M445.679,29.8a1.462,1.462,0,0,0-1.174.235,1.4,1.4,0,0,0-.528.885Z" transform="translate(-443.976 -29.766)"/>
              <path id="Trazado_993781" data-name="Trazado 993781" d="M445.538,29.785c-.19.158-.456.366-.79.592-.537.366-.677.393-.686.5-.018.375,1.8.524,3.491,1.332a8.692,8.692,0,0,1,2.6,1.937,3.45,3.45,0,0,0-.108-.817C449.4,30.846,446.071,29.925,445.538,29.785Z" transform="translate(-443.677 -29.699)"/>
            </g>
            <g id="Grupo_1156201" data-name="Grupo 1156201" transform="translate(0.999 24.677)">
              <path id="Trazado_993782" data-name="Trazado 993782" d="M443.868,34.221c-.077-.009-1.124-.248-1.124-.248a.345.345,0,0,1-.257-.406.339.339,0,0,1,.406-.257l1.048.239a.345.345,0,0,1,.257.406A.341.341,0,0,1,443.868,34.221Z" transform="translate(-442.48 -33.301)"/>
            </g>
          </g>
          <g id="Grupo_1156209" data-name="Grupo 1156209" transform="translate(19.738 15.665)">
            <path id="Trazado_993783" data-name="Trazado 993783" d="M451.378,36.736c-.926,2.172-2.976,3.373-4.579,2.691s-2.149-3-1.219-5.166,2.976-3.373,4.579-2.691S452.3,34.564,451.378,36.736Z" transform="translate(-445.126 -31.046)" fill="#ff7866"/>
            <g id="Grupo_1156206" data-name="Grupo 1156206" transform="translate(0.22)">
              <g id="Grupo_1156203" data-name="Grupo 1156203" transform="translate(0 7.075)">
                <path id="Trazado_993784" data-name="Trazado 993784" d="M447.58,34.712a2.706,2.706,0,0,1-1.084-.221,2.817,2.817,0,0,1-1.269-1.093.343.343,0,0,1,.1-.47.337.337,0,0,1,.47.1,2.138,2.138,0,0,0,.962.835,2.7,2.7,0,0,0,2.791-.655.336.336,0,0,1,.474.036.341.341,0,0,1-.036.479A3.746,3.746,0,0,1,447.58,34.712Z" transform="translate(-445.174 -32.873)"/>
              </g>
              <g id="Grupo_1156204" data-name="Grupo 1156204" transform="translate(4.678 5.664)">
                <path id="Trazado_993785" data-name="Trazado 993785" d="M446.548,34.506a.321.321,0,0,1-.23-.095.341.341,0,0,1-.018-.479,5.067,5.067,0,0,0,.813-1.188.35.35,0,0,1,.452-.154.338.338,0,0,1,.153.456,5.859,5.859,0,0,1-.926,1.35A.316.316,0,0,1,446.548,34.506Z" transform="translate(-446.21 -32.56)"/>
              </g>
              <g id="Grupo_1156205" data-name="Grupo 1156205" transform="translate(3.398)">
                <path id="Trazado_993786" data-name="Trazado 993786" d="M448.723,36.906c-.289-.081-.379-.271-.321-.447.641-1.9.127-3.753-1.2-4.317a2.5,2.5,0,0,0-.921-.163.342.342,0,0,1-.357-.321.337.337,0,0,1,.321-.352,2.977,2.977,0,0,1,1.228.217c1.648.7,2.326,2.917,1.571,5.157A.355.355,0,0,1,448.723,36.906Z" transform="translate(-445.927 -31.306)"/>
              </g>
            </g>
            <g id="Grupo_1156207" data-name="Grupo 1156207" transform="translate(1.611 2.755)">
              <path id="Trazado_993787" data-name="Trazado 993787" d="M445.82,35.574a.328.328,0,0,1-.239-.1.341.341,0,0,1,0-.479l2.985-2.98a.331.331,0,0,1,.474,0,.341.341,0,0,1,0,.479l-2.985,2.98A.318.318,0,0,1,445.82,35.574Z" transform="translate(-445.482 -31.916)"/>
            </g>
            <g id="Grupo_1156208" data-name="Grupo 1156208" transform="translate(3.024 2.506)">
              <path id="Trazado_993788" data-name="Trazado 993788" d="M446.345,33.966a.339.339,0,0,1-.334-.289l-.212-1.431a.337.337,0,0,1,.284-.384.359.359,0,0,1,.384.284l.212,1.432a.337.337,0,0,1-.285.384A.184.184,0,0,1,446.345,33.966Z" transform="translate(-445.795 -31.861)"/>
            </g>
          </g>
          <path id="Trazado_993789" data-name="Trazado 993789" d="M446.136,84.024a11.013,11.013,0,0,0,5.243,3.522c-.7,3.278-1.391,6.552-2.046,9.831,1.68.244,3.441.411,5.243.492a39.794,39.794,0,0,0,5.857-.163,54.4,54.4,0,0,0,23.6-7.867c1.68-.984,3.193-2.005,4.547-2.949-.858-3.974-2.172-9.506-4.218-15.936-.818-2.624-1.721-5.283-2.746-8.11A101.828,101.828,0,0,0,476,50.35a94.462,94.462,0,0,0-9.5-14.378c-4.385,1.721-8.684,3.482-12.983,5.283a192.723,192.723,0,0,0-8.4,27.691C443.882,74.4,442.939,79.969,446.136,84.024Z" transform="translate(-429.471 0.764)" fill="#fff"/>
          <path id="Trazado_993790" data-name="Trazado 993790" d="M443.3,59.358c7.74,5.735,15.525,11.511,23.225,17.246,2.253-1.31,3.893-2.335,5.162-3.157V70.458C462.228,66.773,452.763,63.043,443.3,59.358Z" transform="translate(-431.799 82.984)"/>
          <path id="Trazado_993791" data-name="Trazado 993791" d="M458,80.2c.736.533,1.477.984,2.213,1.477.33.2.655.411.984.614,5.613-7.826,11.267-15.647,16.875-23.432C471.391,65.944,464.676,73.075,458,80.2Z" transform="translate(-380.134 81.23)"/>
          <path id="Trazado_993792" data-name="Trazado 993792" d="M478.238,114.832q10.994-11.712,21.983-23.423A56.67,56.67,0,0,0,481.972,74.09a26.063,26.063,0,0,0-3.31-11.262C472.534,52.1,460.585,49.8,458.576,49.452q-3.346,20.585-6.7,41.166,1.253,1.578,2.6,3.157A116.017,116.017,0,0,0,478.238,114.832Z" transform="translate(-401.644 48.157)" fill="#a3f0f3"/>
          <path id="Trazado_993793" data-name="Trazado 993793" d="M443.3,98.314l31.769,18.032L498.5,92.218q-3.428-18.716-6.85-37.431-2.283-3.258-4.566-6.512L466.24,64.889q.19,2.811.379,5.627-8.236,9.111-16.564,19.314Q446.58,94.1,443.3,98.314Z" transform="translate(-431.791 44.019)" fill="#a3f0f3"/>
          <g id="Grupo_1156210" data-name="Grupo 1156210" transform="translate(58.84 123.157)">
            <path id="Trazado_993794" data-name="Trazado 993794" d="M454.121,74.222a.34.34,0,0,1-.081-.668,23.2,23.2,0,0,0,4.832-1.833C466.86,67.607,470.455,59.7,471.9,55.342a.34.34,0,1,1,.646.212c-1.468,4.448-5.157,12.54-13.357,16.767a23.985,23.985,0,0,1-4.977,1.888A.285.285,0,0,1,454.121,74.222Z" transform="translate(-453.784 -55.11)"/>
          </g>
        </g>
      </g>
      <path id="Trazado_993795" data-name="Trazado 993795" d="M454.126,48.6c4.791,3.188,9.551,6.349,14.342,9.542q9.828,6.5,19.675,13.1c1.233-3.522,2.5-7.018,3.735-10.54a124.316,124.316,0,0,0-14.6-12.572c-1.373-1.039-2.832-2.1-4.317-3.125-.722-.474-1.45-.944-2.172-1.413a117,117,0,0,0-10.21-5.988c-6.2-2.737-11.759-.623-12.707,2.082C447.037,42.119,449.426,46.219,454.126,48.6Z" transform="translate(-353.514 2.037)" fill="#ff7866"/>
      <path id="Trazado_993796" data-name="Trazado 993796" d="M490.554,79.882q1.524-1.483,3.039-2.967a100.246,100.246,0,0,0-22.967-29.4,96.562,96.562,0,0,0-7.966-6.241q-3.651,4.22-7.307,8.44a58.188,58.188,0,0,0,5.229,5.9c9.564,9.388,17.183,10.269,26.092,19.675A51.568,51.568,0,0,1,490.554,79.882Z" transform="translate(-326.635 19.398)" fill="#ff7866"/>
      <path id="Trazado_993797" data-name="Trazado 993797" d="M468.767,59.973q5.06-8.724,10.12-17.454a75.6,75.6,0,0,0-23.848-6.566c-4.994,1.441-7.889,5.049-7.46,8.006a5.245,5.245,0,0,0,2.122,3.31Q459.232,53.617,468.767,59.973Z" transform="translate(-354.115 0.701)" fill="#fff"/>
      <g id="Grupo_1156213" data-name="Grupo 1156213" transform="translate(108.084 51.813)">
        <path id="Trazado_993798" data-name="Trazado 993798" d="M456.286,47.345a.341.341,0,0,1-.28-.145l-5.162-7.356a.338.338,0,1,1,.555-.384l5.162,7.356a.335.335,0,0,1-.086.47A.349.349,0,0,1,456.286,47.345Z" transform="translate(-450.784 -39.311)"/>
      </g>
      <g id="Grupo_1156214" data-name="Grupo 1156214" transform="translate(78.704 53.926)">
        <path id="Trazado_993799" data-name="Trazado 993799" d="M444.614,54.231c-.266-.059-.375-.244-.325-.424l3.64-13.773a.316.316,0,0,1,.416-.239.336.336,0,0,1,.239.411l-3.64,13.773A.338.338,0,0,1,444.614,54.231Z" transform="translate(-444.277 -39.779)"/>
      </g>
      <g id="Grupo_1156221" data-name="Grupo 1156221" transform="translate(162.357 95.265)">
        <path id="Trazado_993800" data-name="Trazado 993800" d="M469.955,51.241a4.416,4.416,0,0,0-3.3-2.285,4.205,4.205,0,0,0-3.852,1.757q1.476,4.653,2.949,9.3,4.613,4.01,9.221,8.02,4.01,1.226,8.025,2.448a4.054,4.054,0,0,0-.37-1.052c-.2-.393-.7-1.17-2.877-2.375a21.531,21.531,0,0,0-2.578-1.206,18.488,18.488,0,0,1-3.726-3.866A19.462,19.462,0,0,1,469.955,51.241Z" transform="translate(-462.802 -48.933)" fill="#ff7866"/>
        <path id="Trazado_993801" data-name="Trazado 993801" d="M465.48,55.373a68.355,68.355,0,0,0,8.661-.759c2.4-.361,4.326-.65,4.335-1.057s-1.96-1.016-10.616-1.865Z" transform="translate(-453.387 -39.229)" fill="#ff7866"/>
        <path id="Trazado_993802" data-name="Trazado 993802" d="M465.414,54.579a25.727,25.727,0,0,0,9.312.406c1.354-.19,3.762-.528,3.793-1.124.027-.537-1.874-1.386-10.423-2.746Z" transform="translate(-453.619 -41.261)" fill="#ff7866"/>
        <path id="Trazado_993803" data-name="Trazado 993803" d="M480.82,58.824a1.907,1.907,0,0,0-.438-1.441c-.506-.51-1.273-.411-2.5-.4a23.776,23.776,0,0,1-3.274-.212l-6.074-3.446q-1.788-1.937-3.572-3.879a14.3,14.3,0,0,0-.709,3.9,10.1,10.1,0,0,0,.587,4.579c.438,1.07,1.509,3.68,4.231,4.669a6.623,6.623,0,0,0,3.712.19Z" transform="translate(-457.812 -47.133)" fill="#ff7866"/>
        <path id="Trazado_993804" data-name="Trazado 993804" d="M463.455,51.387a16.311,16.311,0,0,1,2.8,5.88c.429,1.8.42,3.278.971,3.378.587.1,1.418-1.409,1.775-2.619a8.349,8.349,0,0,0-.822-6.02Z" transform="translate(-460.506 -40.305)" fill="#ff7866"/>
        <g id="Grupo_1156215" data-name="Grupo 1156215" transform="translate(15.62 13.046)">
          <path id="Trazado_993805" data-name="Trazado 993805" d="M466.6,52.784a.341.341,0,0,1-.339-.325.332.332,0,0,1,.32-.352l6.083-.284a.343.343,0,0,1,.357.321.332.332,0,0,1-.321.352l-6.083.284A.033.033,0,0,1,466.6,52.784Z" transform="translate(-466.261 -51.822)"/>
        </g>
        <g id="Grupo_1156216" data-name="Grupo 1156216" transform="translate(12.15 12.486)">
          <path id="Trazado_993806" data-name="Trazado 993806" d="M468.994,53.044c-.072-.009-3.233-.673-3.233-.673a.341.341,0,0,1-.262-.4.326.326,0,0,1,.4-.262l3.161.664a.34.34,0,0,1-.068.673Z" transform="translate(-465.493 -51.698)"/>
        </g>
        <g id="Grupo_1156217" data-name="Grupo 1156217" transform="translate(15.746 11.317)">
          <path id="Trazado_993807" data-name="Trazado 993807" d="M466.628,52.32a.341.341,0,0,1-.009-.682l6.485-.2a.341.341,0,0,1,.018.682l-6.485.2Z" transform="translate(-466.289 -51.439)"/>
        </g>
        <g id="Grupo_1156218" data-name="Grupo 1156218" transform="translate(11.885 9.3)">
          <path id="Trazado_993808" data-name="Trazado 993808" d="M469.5,53.809c-.167-.045-3.893-2.186-3.893-2.186a.336.336,0,0,1-.127-.461.345.345,0,0,1,.465-.126l3.726,2.14a.335.335,0,0,1,.127.461A.344.344,0,0,1,469.5,53.809Z" transform="translate(-465.434 -50.992)"/>
        </g>
        <g id="Grupo_1156219" data-name="Grupo 1156219" transform="translate(9.194 13.187)">
          <path id="Trazado_993809" data-name="Trazado 993809" d="M469.079,55.1c-.095-.014-1.4-.411-1.4-.411-.113-.063-2.723-2.24-2.723-2.24a.337.337,0,0,1-.045-.474.329.329,0,0,1,.474-.045l2.551,2.131,1.228.375a.335.335,0,0,1,.226.424A.32.32,0,0,1,469.079,55.1Z" transform="translate(-464.838 -51.853)"/>
        </g>
        <g id="Grupo_1156220" data-name="Grupo 1156220" transform="translate(3.842 11.908)">
          <path id="Trazado_993810" data-name="Trazado 993810" d="M468.562,56.131a.344.344,0,0,1-.221-.081l-4.57-3.884a.346.346,0,0,1-.041-.479.342.342,0,0,1,.479-.036l4.57,3.884a.346.346,0,0,1,.041.479A.352.352,0,0,1,468.562,56.131Z" transform="translate(-463.653 -51.57)"/>
        </g>
      </g>
      <g id="Grupo_1156222" data-name="Grupo 1156222" transform="translate(16.236 78.35)">
        <path id="Trazado_993811" data-name="Trazado 993811" d="M435.863,47.977a7.55,7.55,0,0,1-3.075-.655,7.412,7.412,0,0,1-2.249-1.558.342.342,0,0,1,.488-.479,6.681,6.681,0,0,0,2.037,1.413,7.076,7.076,0,0,0,3.134.587.342.342,0,0,1,.357.321.339.339,0,0,1-.321.357C436.106,47.972,435.984,47.977,435.863,47.977Z" transform="translate(-430.444 -45.187)"/>
      </g>
    </g>
    <path id="Trazado_993812" data-name="Trazado 993812" d="M450.131,28.276c-1.662.393-2.872.655-3.834,1.693-4.62,4.981,1.093,22.2,13.335,29.479,1.174.7,11.316,6.507,21.843,2.317,2.637-1.052,7.993-3.188,8.964-7.442,1.788-7.839-13.055-16.4-22.154-21.649C462.374,29.265,456.417,26.79,450.131,28.276Z" transform="translate(-364.078 -27.835)"/>
    <g id="Grupo_1156224" data-name="Grupo 1156224" transform="translate(73.337 9.264)">
      <path id="Trazado_993813" data-name="Trazado 993813" d="M445.559,39.036c-1.386,0-2.47-2.01-2.47-4.574s1.084-4.574,2.47-4.574,2.475,2.01,2.475,4.574S446.941,39.036,445.559,39.036Zm0-8.472c-.863,0-1.788,1.562-1.788,3.893s.926,3.9,1.788,3.9,1.8-1.567,1.8-3.9S446.426,30.564,445.559,30.564Z" transform="translate(-443.089 -29.887)"/>
    </g>
  </g>
</svg>
