<svg xmlns="http://www.w3.org/2000/svg" xmlns:xlink="http://www.w3.org/1999/xlink" width="110" height="110" viewBox="0 0 110 110">
  <defs>
    <filter id="Trazado_982547" x="0" y="0" width="110" height="110" filterUnits="userSpaceOnUse">
      <feOffset dy="3" input="SourceAlpha"/>
      <feGaussianBlur stdDeviation="3" result="blur"/>
      <feFlood flood-opacity="0.161"/>
      <feComposite operator="in" in2="blur"/>
      <feComposite in="SourceGraphic"/>
    </filter>
  </defs>
  <g id="_45" data-name="45" transform="translate(-801 -4683.666)">
    <g id="Grupo_1154703" data-name="Grupo 1154703" transform="translate(0 1465.666)">
      <g id="Grupo_1150789" data-name="Grupo 1150789" transform="translate(3 2320)">
        <g id="Grupo_1154212" data-name="Grupo 1154212" transform="translate(-236 -5809)">
          <g id="Grupo_1152583" data-name="Grupo 1152583" transform="translate(1043 6713)">
            <g id="Grupo_1146973" data-name="Grupo 1146973" transform="translate(0 0)">
              <g id="Grupo_1146954" data-name="Grupo 1146954">
                <g transform="matrix(1, 0, 0, 1, -9, -6)" filter="url(#Trazado_982547)">
                  <g id="Trazado_982547-2" data-name="Trazado 982547" transform="translate(9 6)" fill="#f6edfd">
                    <path d="M 46 90.49987030029297 C 39.99187850952148 90.49987030029297 34.16426849365234 89.32350921630859 28.67905426025391 87.00345611572266 C 23.38019943237305 84.76224517822266 18.62104034423828 81.55341339111328 14.53374671936035 77.46613311767578 C 10.44646644592285 73.37885284423828 7.237639904022217 68.61969757080078 4.996413230895996 63.32085418701172 C 2.676359891891479 57.83565521240234 1.5 52.008056640625 1.5 45.99993515014648 C 1.5 39.99181365966797 2.676359891891479 34.16421508789062 4.996413230895996 28.67901420593262 C 7.237639904022217 23.38017463684082 10.44646644592285 18.62101554870605 14.53374671936035 14.53373527526855 C 18.62104034423828 10.44645500183105 23.38019943237305 7.23762845993042 28.67905426025391 4.996415138244629 C 34.16426849365234 2.676361799240112 39.99187850952148 1.500001788139343 46 1.500001788139343 C 52.00812149047852 1.500001788139343 57.83573150634766 2.676361799240112 63.32094573974609 4.996415138244629 C 68.61979675292969 7.23762845993042 73.37895965576172 10.44645500183105 77.46625518798828 14.53373527526855 C 81.55353546142578 18.62101554870605 84.76235961914062 23.38017463684082 87.00358581542969 28.67901420593262 C 89.32363891601562 34.16421508789062 90.5 39.99181365966797 90.5 45.99993515014648 C 90.5 52.008056640625 89.32363891601562 57.83565521240234 87.00358581542969 63.32085418701172 C 84.76235961914062 68.61969757080078 81.55353546142578 73.37885284423828 77.46625518798828 77.46613311767578 C 73.37895965576172 81.55341339111328 68.61979675292969 84.76224517822266 63.32094573974609 87.00345611572266 C 57.83573150634766 89.32350921630859 52.00812149047852 90.49987030029297 46 90.49987030029297 Z" stroke="none"/>
                    <path d="M 46 2.999992370605469 C 40.1937141418457 2.999992370605469 34.56269836425781 4.136489868164062 29.26337051391602 6.377906799316406 C 24.14332580566406 8.543502807617188 19.54441070556641 11.64437866210938 15.59439849853516 15.59437561035156 C 11.64440155029297 19.54439544677734 8.54351806640625 24.14329528808594 6.377914428710938 29.26333618164062 C 4.136497497558594 34.56264877319336 3 40.19366455078125 3 45.99993515014648 C 3 51.80620574951172 4.136497497558594 57.43720626831055 6.377914428710938 62.73651885986328 C 8.54351806640625 67.8565673828125 11.64440155029297 72.45545959472656 15.59439849853516 76.40547943115234 C 19.54441070556641 80.35547637939453 24.14332580566406 83.45635223388672 29.26337051391602 85.6219482421875 C 34.56269836425781 87.86336517333984 40.1937141418457 88.99986267089844 46 88.99986267089844 C 51.8062858581543 88.99986267089844 57.43730163574219 87.86336517333984 62.73661422729492 85.6219482421875 C 67.85667419433594 83.45635223388672 72.45557403564453 80.35547637939453 76.40558624267578 76.40547943115234 C 80.35559844970703 72.45545959472656 83.45647430419922 67.8565673828125 85.6220703125 62.73651885986328 C 87.86350250244141 57.43720626831055 89 51.80620574951172 89 45.99993515014648 C 89 40.19366455078125 87.86350250244141 34.56264877319336 85.6220703125 29.26333618164062 C 83.45647430419922 24.14329528808594 80.35559844970703 19.54439544677734 76.40558624267578 15.59437561035156 C 72.45557403564453 11.64437866210938 67.85667419433594 8.543502807617188 62.73661422729492 6.377906799316406 C 57.43730163574219 4.136489868164062 51.8062858581543 2.999992370605469 46 2.999992370605469 M 46 -7.62939453125e-06 C 71.40509033203125 -7.62939453125e-06 92 20.59486389160156 92 45.99993515014648 C 92 71.40499114990234 71.40509033203125 91.99986267089844 46 91.99986267089844 C 20.59490203857422 91.99986267089844 0 71.40499114990234 0 45.99993515014648 C 0 20.59486389160156 20.59490203857422 -7.62939453125e-06 46 -7.62939453125e-06 Z" stroke="none" fill="#ac59f1"/>
                  </g>
                </g>
              </g>
            </g>
          </g>
        </g>
      </g>
    </g>
    <g id="carpeta_1_" data-name="carpeta (1)" transform="translate(810.681 4708.201)">
      <path id="Trazado_992774" data-name="Trazado 992774" d="M137.935,251.9h-16.8a1.956,1.956,0,0,1-1.383-.573l-2.481-2.481a2.935,2.935,0,0,0-2.075-.86H106.63a2.935,2.935,0,0,0-2.935,2.935v25.436a2.935,2.935,0,0,0,2.935,2.935h31.306a2.935,2.935,0,0,0,2.935-2.935V254.831A2.935,2.935,0,0,0,137.935,251.9Z" transform="translate(-76.965 -217.719)" fill="#ffe09f"/>
      <path id="Trazado_992775" data-name="Trazado 992775" d="M140.69,276.355H111.52a4.9,4.9,0,0,1-4.892-4.892V247.984a2.935,2.935,0,0,0-2.935,2.935v25.436a2.935,2.935,0,0,0,2.935,2.935h31.306a2.935,2.935,0,0,0,2.935-2.935h-.18Z" transform="translate(-76.964 -217.72)" fill="#f6d190"/>
      <path id="Trazado_992776" data-name="Trazado 992776" d="M144.832,333.585l6.728-20.185a.978.978,0,0,0-.928-1.288h-33.7a2.935,2.935,0,0,0-2.784,2.007l-6.7,20.1a2.926,2.926,0,0,0,2.477,1.374h32.125A2.935,2.935,0,0,0,144.832,333.585Z" transform="translate(-80.258 -274.022)" fill="#ecbd83"/>
      <path id="Trazado_992777" data-name="Trazado 992777" d="M32.337,7.5H24.51a.978.978,0,0,0-.978.978V24.131a.978.978,0,0,0,.978.978H36.25a.978.978,0,0,0,.978-.978V12.392Z" transform="translate(-6.585 -6.585)" fill="#eceaec"/>
      <circle id="Elipse_11845" data-name="Elipse 11845" cx="1.957" cy="1.957" r="1.957" transform="translate(43.361 22.438)" fill="#b6b1b7"/>
      <path id="Trazado_992778" data-name="Trazado 992778" d="M26.467,19.24V7.5H24.51a.978.978,0,0,0-.978.978V24.131a.978.978,0,0,0,.978.978H36.25a.978.978,0,0,0,.978-.978V22.174H29.4A2.935,2.935,0,0,1,26.467,19.24Z" transform="translate(-6.585 -6.585)" fill="#dad8db"/>
      <path id="Trazado_992779" data-name="Trazado 992779" d="M95.677,11.413a.978.978,0,0,0,.978.978h3.913L95.677,7.5Z" transform="translate(-69.925 -6.585)" fill="#dad8db"/>
      <path id="Trazado_992780" data-name="Trazado 992780" d="M114.814,438.225a4.9,4.9,0,0,1-4.892-4.892v-.978l-2.477,7.431a2.926,2.926,0,0,0,2.477,1.374h32.125a2.935,2.935,0,0,0,2.784-2.007l.309-.928Z" transform="translate(-80.257 -379.59)" fill="#e2a975"/>
      <path id="Trazado_992781" data-name="Trazado 992781" d="M208.692,7.5h-7.826a.978.978,0,0,0-.978.978V24.131a.978.978,0,0,0,.978.978H212.6a.978.978,0,0,0,.978-.978V12.392Z" transform="translate(-161.417 -6.585)" fill="#eceaec"/>
      <path id="Trazado_992782" data-name="Trazado 992782" d="M202.822,19.24V7.5h-1.957a.978.978,0,0,0-.978.978V24.131a.978.978,0,0,0,.978.978H212.6a.978.978,0,0,0,.978-.978V22.174h-7.826A2.935,2.935,0,0,1,202.822,19.24Z" transform="translate(-161.417 -6.585)" fill="#dad8db"/>
      <path id="Trazado_992783" data-name="Trazado 992783" d="M272.032,11.413a.978.978,0,0,0,.978.978h3.913L272.032,7.5Z" transform="translate(-224.757 -6.585)" fill="#dad8db"/>
      <path id="Trazado_992784" data-name="Trazado 992784" d="M385.047,7.5H377.22a.978.978,0,0,0-.978.978V24.131a.978.978,0,0,0,.978.978h11.74a.978.978,0,0,0,.978-.978V12.392Z" transform="translate(-316.25 -6.585)" fill="#eceaec"/>
      <path id="Trazado_992785" data-name="Trazado 992785" d="M379.177,19.24V7.5H377.22a.978.978,0,0,0-.978.978V24.131a.978.978,0,0,0,.978.978h11.74a.978.978,0,0,0,.978-.978V22.174h-7.826A2.935,2.935,0,0,1,379.177,19.24Z" transform="translate(-316.25 -6.585)" fill="#dad8db"/>
      <path id="Trazado_992786" data-name="Trazado 992786" d="M448.387,11.413a.978.978,0,0,0,.978.978h3.913L448.387,7.5Z" transform="translate(-379.59 -6.585)" fill="#dad8db"/>
      <path id="Trazado_992787" data-name="Trazado 992787" d="M320.392,456.919h-6.848a.915.915,0,1,0,0,1.831h6.848a.915.915,0,1,0,0-1.831Z" transform="translate(-260.4 -401.156)"/>
      <path id="Trazado_992788" data-name="Trazado 992788" d="M336.424,424.854h-6.848a.915.915,0,1,0,0,1.831h6.848a.915.915,0,1,0,0-1.831Z" transform="translate(-274.475 -373.004)"/>
      <path id="Trazado_992789" data-name="Trazado 992789" d="M49.012,73.976H53.9a.915.915,0,1,0,0-1.831H49.012a.915.915,0,1,0,0,1.831Z" transform="translate(-28.152 -63.34)"/>
      <path id="Trazado_992790" data-name="Trazado 992790" d="M54.819,105.124a.915.915,0,0,0-.915-.915H49.012a.915.915,0,1,0,0,1.831H53.9A.915.915,0,0,0,54.819,105.124Z" transform="translate(-28.152 -91.491)"/>
      <path id="Trazado_992791" data-name="Trazado 992791" d="M225.367,73.976h4.892a.915.915,0,1,0,0-1.831h-4.892a.915.915,0,1,0,0,1.831Z" transform="translate(-182.984 -63.34)"/>
      <path id="Trazado_992792" data-name="Trazado 992792" d="M231.173,105.124a.915.915,0,0,0-.915-.915h-4.892a.915.915,0,1,0,0,1.831h4.892A.915.915,0,0,0,231.173,105.124Z" transform="translate(-182.983 -91.491)"/>
      <path id="Trazado_992793" data-name="Trazado 992793" d="M74.336,5.16,69.444.268A.915.915,0,0,0,68.8,0H60.971a1.9,1.9,0,0,0-1.894,1.894V17.546a1.9,1.9,0,0,0,1.894,1.894h4.955v3a1.042,1.042,0,0,1-1.041,1.041H48.04a2.885,2.885,0,0,0-1.806-1.806V19.44h4.955a1.9,1.9,0,0,0,1.894-1.894V5.807a.915.915,0,0,0-.268-.647L47.922.268A.915.915,0,0,0,47.275,0H39.448a1.9,1.9,0,0,0-1.894,1.894V17.546a1.9,1.9,0,0,0,1.894,1.894H44.4v2.233A2.885,2.885,0,0,0,42.6,23.479H25.752a1.042,1.042,0,0,1-1.041-1.041v-3h4.955a1.9,1.9,0,0,0,1.894-1.894V5.807a.915.915,0,0,0-.268-.647L26.4.268A.915.915,0,0,0,25.752,0H17.926a1.9,1.9,0,0,0-1.894,1.894V17.546a1.9,1.9,0,0,0,1.894,1.894H22.88v3a2.875,2.875,0,0,0,2.872,2.872H42.6A2.885,2.885,0,0,0,44.4,27.116v6.138a2,2,0,0,1-1.254-.583l-2.194-2.194a3.825,3.825,0,0,0-2.722-1.128H29.665a3.854,3.854,0,0,0-3.85,3.85V58.635a3.854,3.854,0,0,0,3.849,3.85H61.79a3.845,3.845,0,0,0,3.653-2.633l6.728-20.185a1.894,1.894,0,0,0-1.8-2.492H64.821v-.063a3.854,3.854,0,0,0-3.85-3.85H49.231a.915.915,0,1,0,0,1.831h11.74a2.022,2.022,0,0,1,2.02,2.02v.063H46.233V27.116A2.885,2.885,0,0,0,48.04,25.31H64.884a2.875,2.875,0,0,0,2.872-2.872v-3H72.71A1.9,1.9,0,0,0,74.6,17.546V5.807a.915.915,0,0,0-.268-.647ZM48.19,3.125l1.766,1.766h-1.7a.063.063,0,0,1-.063-.063Zm-8.8,14.421V1.894a.063.063,0,0,1,.063-.063h6.911v3a1.9,1.9,0,0,0,1.894,1.894h3V17.546a.063.063,0,0,1-.063.063H39.448A.063.063,0,0,1,39.385,17.546ZM26.667,3.125l1.766,1.766h-1.7a.063.063,0,0,1-.063-.063Zm-8.8,14.421V1.894a.063.063,0,0,1,.063-.063h6.911v3A1.9,1.9,0,0,0,26.73,6.722h3V17.546a.063.063,0,0,1-.063.063H17.926A.063.063,0,0,1,17.863,17.546Zm27.455,5.807a1.042,1.042,0,0,1,1.041,1.04v0a1.041,1.041,0,1,1-1.041-1.043ZM70.426,39.032a.057.057,0,0,1,.009.057L63.706,59.273a2.017,2.017,0,0,1-1.916,1.381H29.665a2.012,2.012,0,0,1-1.457-.624l6.548-19.643a2.017,2.017,0,0,1,1.916-1.381h33.7a.057.057,0,0,1,.051.026ZM36.672,37.175a3.845,3.845,0,0,0-3.653,2.633L27.646,55.929V33.2a2.022,2.022,0,0,1,2.02-2.02h8.567a2.006,2.006,0,0,1,1.428.592l2.194,2.194A3.822,3.822,0,0,0,44.4,35.089v2.087Zm33.04-34.05,1.766,1.766h-1.7a.063.063,0,0,1-.063-.063Zm3,14.484H60.971a.063.063,0,0,1-.063-.063V1.894a.063.063,0,0,1,.063-.063h6.911v3a1.9,1.9,0,0,0,1.894,1.894h3V17.546a.063.063,0,0,1-.063.063Z"/>
      <path id="Trazado_992794" data-name="Trazado 992794" d="M406.613,72.145h-4.892a.915.915,0,1,0,0,1.831h4.892a.915.915,0,1,0,0-1.831Z" transform="translate(-337.816 -63.34)"/>
      <path id="Trazado_992795" data-name="Trazado 992795" d="M406.613,104.209h-4.892a.915.915,0,1,0,0,1.831h4.892a.915.915,0,1,0,0-1.831Z" transform="translate(-337.816 -91.491)"/>
    </g>
  </g>
</svg>
