<svg xmlns="http://www.w3.org/2000/svg" xmlns:xlink="http://www.w3.org/1999/xlink" width="110" height="110" viewBox="0 0 110 110">
  <defs>
    <filter id="Trazado_982547" x="0" y="0" width="110" height="110" filterUnits="userSpaceOnUse">
      <feOffset dy="3" input="SourceAlpha"/>
      <feGaussianBlur stdDeviation="3" result="blur"/>
      <feFlood flood-opacity="0.161"/>
      <feComposite operator="in" in2="blur"/>
      <feComposite in="SourceGraphic"/>
    </filter>
  </defs>
  <g id="_47" data-name="47" transform="translate(-7288 -4676)">
    <g id="Grupo_1154731" data-name="Grupo 1154731" transform="translate(6172 1458)">
      <g id="Grupo_1150790" data-name="Grupo 1150790" transform="translate(3 2320)">
        <g id="Grupo_1154214" data-name="Grupo 1154214" transform="translate(79 -5809)">
          <g id="Grupo_1152583" data-name="Grupo 1152583" transform="translate(1043 6713)">
            <g id="Grupo_1146973" data-name="Grupo 1146973" transform="translate(0 0)">
              <g id="Grupo_1146954" data-name="Grupo 1146954">
                <g transform="matrix(1, 0, 0, 1, -9, -6)" filter="url(#Trazado_982547)">
                  <g id="Trazado_982547-2" data-name="Trazado 982547" transform="translate(9 6)" fill="#f6edfd">
                    <path d="M 46 90.49987030029297 C 39.99187850952148 90.49987030029297 34.16426849365234 89.32350921630859 28.67905426025391 87.00345611572266 C 23.38019943237305 84.76224517822266 18.62104034423828 81.55341339111328 14.53374671936035 77.46613311767578 C 10.44646644592285 73.37885284423828 7.237639904022217 68.61969757080078 4.996413230895996 63.32085418701172 C 2.676359891891479 57.83565521240234 1.5 52.008056640625 1.5 45.99993515014648 C 1.5 39.99181365966797 2.676359891891479 34.16421508789062 4.996413230895996 28.67901420593262 C 7.237639904022217 23.38017463684082 10.44646644592285 18.62101554870605 14.53374671936035 14.53373527526855 C 18.62104034423828 10.44645500183105 23.38019943237305 7.23762845993042 28.67905426025391 4.996415138244629 C 34.16426849365234 2.676361799240112 39.99187850952148 1.500001788139343 46 1.500001788139343 C 52.00812149047852 1.500001788139343 57.83573150634766 2.676361799240112 63.32094573974609 4.996415138244629 C 68.61979675292969 7.23762845993042 73.37895965576172 10.44645500183105 77.46625518798828 14.53373527526855 C 81.55353546142578 18.62101554870605 84.76235961914062 23.38017463684082 87.00358581542969 28.67901420593262 C 89.32363891601562 34.16421508789062 90.5 39.99181365966797 90.5 45.99993515014648 C 90.5 52.008056640625 89.32363891601562 57.83565521240234 87.00358581542969 63.32085418701172 C 84.76235961914062 68.61969757080078 81.55353546142578 73.37885284423828 77.46625518798828 77.46613311767578 C 73.37895965576172 81.55341339111328 68.61979675292969 84.76224517822266 63.32094573974609 87.00345611572266 C 57.83573150634766 89.32350921630859 52.00812149047852 90.49987030029297 46 90.49987030029297 Z" stroke="none"/>
                    <path d="M 46 2.999992370605469 C 40.1937141418457 2.999992370605469 34.56269836425781 4.136489868164062 29.26337051391602 6.377906799316406 C 24.14332580566406 8.543502807617188 19.54441070556641 11.64437866210938 15.59439849853516 15.59437561035156 C 11.64440155029297 19.54439544677734 8.54351806640625 24.14329528808594 6.377914428710938 29.26333618164062 C 4.136497497558594 34.56264877319336 3 40.19366455078125 3 45.99993515014648 C 3 51.80620574951172 4.136497497558594 57.43720626831055 6.377914428710938 62.73651885986328 C 8.54351806640625 67.8565673828125 11.64440155029297 72.45545959472656 15.59439849853516 76.40547943115234 C 19.54441070556641 80.35547637939453 24.14332580566406 83.45635223388672 29.26337051391602 85.6219482421875 C 34.56269836425781 87.86336517333984 40.1937141418457 88.99986267089844 46 88.99986267089844 C 51.8062858581543 88.99986267089844 57.43730163574219 87.86336517333984 62.73661422729492 85.6219482421875 C 67.85667419433594 83.45635223388672 72.45557403564453 80.35547637939453 76.40558624267578 76.40547943115234 C 80.35559844970703 72.45545959472656 83.45647430419922 67.8565673828125 85.6220703125 62.73651885986328 C 87.86350250244141 57.43720626831055 89 51.80620574951172 89 45.99993515014648 C 89 40.19366455078125 87.86350250244141 34.56264877319336 85.6220703125 29.26333618164062 C 83.45647430419922 24.14329528808594 80.35559844970703 19.54439544677734 76.40558624267578 15.59437561035156 C 72.45557403564453 11.64437866210938 67.85667419433594 8.543502807617188 62.73661422729492 6.377906799316406 C 57.43730163574219 4.136489868164062 51.8062858581543 2.999992370605469 46 2.999992370605469 M 46 -7.62939453125e-06 C 71.40509033203125 -7.62939453125e-06 92 20.59486389160156 92 45.99993515014648 C 92 71.40499114990234 71.40509033203125 91.99986267089844 46 91.99986267089844 C 20.59490203857422 91.99986267089844 0 71.40499114990234 0 45.99993515014648 C 0 20.59486389160156 20.59490203857422 -7.62939453125e-06 46 -7.62939453125e-06 Z" stroke="none" fill="#ac59f1"/>
                  </g>
                </g>
              </g>
            </g>
          </g>
        </g>
      </g>
    </g>
    <g id="pensamiento-positivo" transform="translate(7311.016 4695.973)">
      <g id="Artboard_03" data-name="Artboard 03">
        <path id="Trazado_992833" data-name="Trazado 992833" d="M13,50v-.425a15.329,15.329,0,0,0-4.741-10.94A19.8,19.8,0,0,1,4.99,34.424,22.608,22.608,0,0,1,3.328,15.532C6.351,7.039,13.328,3.876,18.1,2.7a24.474,24.474,0,0,1,5.871-.675h.048A24.474,24.474,0,0,1,29.9,2.7c4.777,1.177,11.754,4.34,14.777,12.833a22.955,22.955,0,0,1,1.3,8.815L37.039,42.1A14.891,14.891,0,0,0,35,49.575V50Z" fill="#ffc239"/>
        <path id="Trazado_992834" data-name="Trazado 992834" d="M44.672,15.532C41.65,7.04,34.674,3.877,29.9,2.7a24.541,24.541,0,0,0-5.873-.675h-.048c-.383,0-.766.014-1.148.03a19.774,19.774,0,0,0-13.5,12.478A22.608,22.608,0,0,0,10.99,33.424a19.776,19.776,0,0,0,3.269,4.21A15.337,15.337,0,0,1,19,48.575a.425.425,0,0,0,.425.425h15.6a14.925,14.925,0,0,1,2.019-6.9l8.933-17.752a22.955,22.955,0,0,0-1.305-8.816Z" fill="#ffce61"/>
        <circle id="Elipse_11846" data-name="Elipse 11846" cx="13" cy="13" r="13" transform="translate(36 24)" fill="#efac26"/>
        <ellipse id="Elipse_11847" data-name="Elipse 11847" cx="11.5" cy="12.907" rx="11.5" ry="12.907" transform="translate(39 24.093)" fill="#ffc239"/>
        <rect id="Rectángulo_409717" data-name="Rectángulo 409717" width="30" height="8" rx="2" transform="translate(9 50)" fill="#ced4e0"/>
        <path id="Trazado_992835" data-name="Trazado 992835" d="M11,58l.621,2.485A2,2,0,0,0,13.562,62H34.438a2,2,0,0,0,1.941-1.515L37,58Z" fill="#74777e"/>
        <path id="Trazado_992836" data-name="Trazado 992836" d="M9,53H39v2H9Z" fill="#9b9fa8"/>
        <path id="Trazado_992837" data-name="Trazado 992837" d="M20,19H14a2,2,0,0,0-2,2v4a2,2,0,0,0,2,2h6v6a2,2,0,0,0,2,2h4a2,2,0,0,0,2-2V27h6a2,2,0,0,0,2-2V21a2,2,0,0,0-2-2H28V13a2,2,0,0,0-2-2H22a2,2,0,0,0-2,2Z" fill="#94d531"/>
        <path id="Trazado_992838" data-name="Trazado 992838" d="M49,47A10.011,10.011,0,0,1,39,37h2a8,8,0,0,0,16,0h2A10.011,10.011,0,0,1,49,47Z" fill="#fff"/>
        <rect id="Rectángulo_409718" data-name="Rectángulo 409718" width="4" height="4" rx="2" transform="translate(42 31)" fill="#fff"/>
        <rect id="Rectángulo_409719" data-name="Rectángulo 409719" width="4" height="4" rx="2" transform="translate(52 31)" fill="#fff"/>
        <g id="Grupo_1155736" data-name="Grupo 1155736">
          <path id="Trazado_992839" data-name="Trazado 992839" d="M43.964,4.5h7.071v2H43.964Z" transform="translate(10.023 35.198) rotate(-45)" fill="#ffc239"/>
          <path id="Trazado_992840" data-name="Trazado 992840" d="M48.692,10.5h7.616v2H48.692Z" transform="matrix(0.919, -0.394, 0.394, 0.919, -0.283, 21.621)" fill="#ffc239"/>
          <path id="Trazado_992841" data-name="Trazado 992841" d="M51.5,15.964h2v7.071h-2Z" transform="matrix(0.141, -0.99, 0.99, 0.141, 25.771, 68.715)" fill="#ffc239"/>
        </g>
        <path id="Trazado_992842" data-name="Trazado 992842" d="M14.881,59.272A1.469,1.469,0,0,0,13.456,61.1l.165.66A1.986,1.986,0,0,0,13.7,62H34.438a2,2,0,0,0,1.941-1.515l.3-1.213Z" fill="#9b9fa8"/>
        <path id="Trazado_992843" data-name="Trazado 992843" d="M15.478,56.543H38.916A1.982,1.982,0,0,0,39,56V52a2,2,0,0,0-2-2H11.7v2.761a3.782,3.782,0,0,0,3.778,3.782Z" fill="#fff" opacity="0.2"/>
        <ellipse id="Elipse_11848" data-name="Elipse 11848" cx="2.384" cy="4.769" rx="2.384" ry="4.769" transform="matrix(0.5, -0.866, 0.866, 0.5, 30.042, 10.191)" fill="#fff"/>
        <ellipse id="Elipse_11849" data-name="Elipse 11849" cx="1.367" cy="1.972" rx="1.367" ry="1.972" transform="matrix(0.5, -0.866, 0.866, 0.5, 30.292, 14.668)" fill="#fff"/>
      </g>
      <g id="BG">
        <path id="Trazado_992844" data-name="Trazado 992844" d="M37,25V21a3,3,0,0,0-3-3H29V13a3,3,0,0,0-3-3H22a3,3,0,0,0-3,3v5H14a3,3,0,0,0-3,3v4a3,3,0,0,0,3,3h5v5a3,3,0,0,0,3,3h4a3,3,0,0,0,3-3V28h5a3,3,0,0,0,3-3Zm-2,0a1,1,0,0,1-1,1H28a1,1,0,0,0-1,1v6a1,1,0,0,1-1,1H22a1,1,0,0,1-1-1V27a1,1,0,0,0-1-1H14a1,1,0,0,1-1-1V21a1,1,0,0,1,1-1h6a1,1,0,0,0,1-1V13a1,1,0,0,1,1-1h4a1,1,0,0,1,1,1v6a1,1,0,0,0,1,1h6a1,1,0,0,1,1,1Z"/>
        <path id="Trazado_992845" data-name="Trazado 992845" d="M49,23a13.9,13.9,0,0,0-2,.16,23.787,23.787,0,0,0-1.386-7.96C42.5,6.452,35.478,3.045,30.134,1.728a25.674,25.674,0,0,0-6.157-.7,25.562,25.562,0,0,0-6.111.7C12.522,3.045,5.5,6.452,2.387,15.2A23.487,23.487,0,0,0,4.126,34.93,20.77,20.77,0,0,0,7.56,39.35,14.29,14.29,0,0,1,11.97,49H11a3,3,0,0,0-3,3v4a3,3,0,0,0,2.188,2.874l.463,1.854A3,3,0,0,0,13.562,63H34.438a3,3,0,0,0,2.911-2.273l.463-1.853A3,3,0,0,0,40,56V52a3,3,0,0,0-3-3h-.98a13.841,13.841,0,0,1,1.049-4.712A13.992,13.992,0,1,0,49,23ZM34.438,61H13.562a1,1,0,0,1-.971-.758L12.281,59H35.719l-.31,1.242a1,1,0,0,1-.971.758ZM37,57H11a1,1,0,0,1-1-1V55H38v1A1,1,0,0,1,37,57Zm1-5v1H10V52a1,1,0,0,1,1-1H37A1,1,0,0,1,38,52Zm-3.981-3H13.97A16.27,16.27,0,0,0,8.958,37.919a18.8,18.8,0,0,1-3.1-4A21.5,21.5,0,0,1,4.271,15.868c2.813-7.908,9.206-11,14.074-12.2a23.692,23.692,0,0,1,5.678-.647,23.631,23.631,0,0,1,5.632.646c4.868,1.2,11.261,4.291,14.074,12.2A21.792,21.792,0,0,1,44.974,23.6a13.953,13.953,0,0,0-9.028,18.42A15.961,15.961,0,0,0,34.019,49ZM49,49A12,12,0,1,1,61,37,12,12,0,0,1,49,49Z"/>
        <path id="Trazado_992846" data-name="Trazado 992846" d="M49,45a8.009,8.009,0,0,1-8-8H39a10,10,0,0,0,20,0H57a8.009,8.009,0,0,1-8,8Z"/>
        <path id="Trazado_992847" data-name="Trazado 992847" d="M44,36a3,3,0,1,0-3-3A3,3,0,0,0,44,36Zm0-4a1,1,0,1,1-1,1A1,1,0,0,1,44,32Z"/>
        <path id="Trazado_992848" data-name="Trazado 992848" d="M54,36a3,3,0,1,0-3-3A3,3,0,0,0,54,36Zm0-4a1,1,0,1,1-1,1A1,1,0,0,1,54,32Z"/>
        <path id="Trazado_992849" data-name="Trazado 992849" d="M43.964,4.5h7.071v2H43.964Z" transform="translate(10.023 35.198) rotate(-45)"/>
        <path id="Trazado_992850" data-name="Trazado 992850" d="M48.692,10.5h7.616v2H48.692Z" transform="matrix(0.919, -0.394, 0.394, 0.919, -0.285, 21.611)"/>
        <path id="Trazado_992851" data-name="Trazado 992851" d="M51.5,15.964h2v7.071h-2Z" transform="matrix(0.141, -0.99, 0.99, 0.141, 25.771, 68.715)"/>
      </g>
    </g>
  </g>
</svg>
