<svg xmlns="http://www.w3.org/2000/svg" xmlns:xlink="http://www.w3.org/1999/xlink" width="110" height="110" viewBox="0 0 110 110">
  <defs>
    <filter id="Trazado_982547" x="0" y="0" width="110" height="110" filterUnits="userSpaceOnUse">
      <feOffset dy="3" input="SourceAlpha"/>
      <feGaussianBlur stdDeviation="3" result="blur"/>
      <feFlood flood-opacity="0.161"/>
      <feComposite operator="in" in2="blur"/>
      <feComposite in="SourceGraphic"/>
    </filter>
  </defs>
  <g id="_50" data-name="50" transform="translate(-7288 -4990.666)">
    <g id="Grupo_1154733" data-name="Grupo 1154733" transform="translate(6172 1772.666)">
      <g id="Grupo_1150790" data-name="Grupo 1150790" transform="translate(3 2320)">
        <g id="Grupo_1154214" data-name="Grupo 1154214" transform="translate(79 -5809)">
          <g id="Grupo_1152583" data-name="Grupo 1152583" transform="translate(1043 6713)">
            <g id="Grupo_1146973" data-name="Grupo 1146973" transform="translate(0 0)">
              <g id="Grupo_1146954" data-name="Grupo 1146954">
                <g transform="matrix(1, 0, 0, 1, -9, -6)" filter="url(#Trazado_982547)">
                  <g id="Trazado_982547-2" data-name="Trazado 982547" transform="translate(9 6)" fill="#f6edfd">
                    <path d="M 46 90.49987030029297 C 39.99187850952148 90.49987030029297 34.16426849365234 89.32350921630859 28.67905426025391 87.00345611572266 C 23.38019943237305 84.76224517822266 18.62104034423828 81.55341339111328 14.53374671936035 77.46613311767578 C 10.44646644592285 73.37885284423828 7.237639904022217 68.61969757080078 4.996413230895996 63.32085418701172 C 2.676359891891479 57.83565521240234 1.5 52.008056640625 1.5 45.99993515014648 C 1.5 39.99181365966797 2.676359891891479 34.16421508789062 4.996413230895996 28.67901420593262 C 7.237639904022217 23.38017463684082 10.44646644592285 18.62101554870605 14.53374671936035 14.53373527526855 C 18.62104034423828 10.44645500183105 23.38019943237305 7.23762845993042 28.67905426025391 4.996415138244629 C 34.16426849365234 2.676361799240112 39.99187850952148 1.500001788139343 46 1.500001788139343 C 52.00812149047852 1.500001788139343 57.83573150634766 2.676361799240112 63.32094573974609 4.996415138244629 C 68.61979675292969 7.23762845993042 73.37895965576172 10.44645500183105 77.46625518798828 14.53373527526855 C 81.55353546142578 18.62101554870605 84.76235961914062 23.38017463684082 87.00358581542969 28.67901420593262 C 89.32363891601562 34.16421508789062 90.5 39.99181365966797 90.5 45.99993515014648 C 90.5 52.008056640625 89.32363891601562 57.83565521240234 87.00358581542969 63.32085418701172 C 84.76235961914062 68.61969757080078 81.55353546142578 73.37885284423828 77.46625518798828 77.46613311767578 C 73.37895965576172 81.55341339111328 68.61979675292969 84.76224517822266 63.32094573974609 87.00345611572266 C 57.83573150634766 89.32350921630859 52.00812149047852 90.49987030029297 46 90.49987030029297 Z" stroke="none"/>
                    <path d="M 46 2.999992370605469 C 40.1937141418457 2.999992370605469 34.56269836425781 4.136489868164062 29.26337051391602 6.377906799316406 C 24.14332580566406 8.543502807617188 19.54441070556641 11.64437866210938 15.59439849853516 15.59437561035156 C 11.64440155029297 19.54439544677734 8.54351806640625 24.14329528808594 6.377914428710938 29.26333618164062 C 4.136497497558594 34.56264877319336 3 40.19366455078125 3 45.99993515014648 C 3 51.80620574951172 4.136497497558594 57.43720626831055 6.377914428710938 62.73651885986328 C 8.54351806640625 67.8565673828125 11.64440155029297 72.45545959472656 15.59439849853516 76.40547943115234 C 19.54441070556641 80.35547637939453 24.14332580566406 83.45635223388672 29.26337051391602 85.6219482421875 C 34.56269836425781 87.86336517333984 40.1937141418457 88.99986267089844 46 88.99986267089844 C 51.8062858581543 88.99986267089844 57.43730163574219 87.86336517333984 62.73661422729492 85.6219482421875 C 67.85667419433594 83.45635223388672 72.45557403564453 80.35547637939453 76.40558624267578 76.40547943115234 C 80.35559844970703 72.45545959472656 83.45647430419922 67.8565673828125 85.6220703125 62.73651885986328 C 87.86350250244141 57.43720626831055 89 51.80620574951172 89 45.99993515014648 C 89 40.19366455078125 87.86350250244141 34.56264877319336 85.6220703125 29.26333618164062 C 83.45647430419922 24.14329528808594 80.35559844970703 19.54439544677734 76.40558624267578 15.59437561035156 C 72.45557403564453 11.64437866210938 67.85667419433594 8.543502807617188 62.73661422729492 6.377906799316406 C 57.43730163574219 4.136489868164062 51.8062858581543 2.999992370605469 46 2.999992370605469 M 46 -7.62939453125e-06 C 71.40509033203125 -7.62939453125e-06 92 20.59486389160156 92 45.99993515014648 C 92 71.40499114990234 71.40509033203125 91.99986267089844 46 91.99986267089844 C 20.59490203857422 91.99986267089844 0 71.40499114990234 0 45.99993515014648 C 0 20.59486389160156 20.59490203857422 -7.62939453125e-06 46 -7.62939453125e-06 Z" stroke="none" fill="#ac59f1"/>
                  </g>
                </g>
              </g>
            </g>
          </g>
        </g>
      </g>
    </g>
    <g id="linea-de-corriente" transform="translate(7311 5010.001)">
      <g id="Grupo_1155745" data-name="Grupo 1155745" transform="translate(1.988 1.987)">
        <g id="Grupo_1155739" data-name="Grupo 1155739" transform="translate(34.149 2.843)">
          <path id="Trazado_992865" data-name="Trazado 992865" d="M310.193,46.864H311.7a.611.611,0,0,1,.484.986l-4.553,5.893a.611.611,0,0,1-.968,0l-4.553-5.893a.611.611,0,0,1,.484-.986h1.375C302.3,36.5,292.737,33.853,285.441,33.525,295.852,28.811,308.837,35.652,310.193,46.864Z" transform="translate(-285.441 -32.015)" fill="#72d561" fill-rule="evenodd"/>
          <path id="Trazado_992866" data-name="Trazado 992866" d="M307.793,53.544l-.161.208a.611.611,0,0,1-.968,0l-4.553-5.893a.611.611,0,0,1,.484-.986h1.29a.611.611,0,0,0-.484.986Zm-3.823-6.67h1.29c-1.67-10.359-11.233-13.011-18.529-13.339a17.006,17.006,0,0,1,6.413-1.5,17.1,17.1,0,0,0-7.7,1.5C292.737,33.863,302.3,36.515,303.97,46.874Z" transform="translate(-285.441 -32.025)" fill="#3cbe52" fill-rule="evenodd"/>
        </g>
        <g id="Grupo_1155740" data-name="Grupo 1155740" transform="translate(36.216 34.149)">
          <path id="Trazado_992867" data-name="Trazado 992867" d="M309.291,310.193V311.7a.611.611,0,0,1-.986.484l-5.893-4.553a.611.611,0,0,1,0-.968l5.893-4.553a.611.611,0,0,1,.985.484v1.375c10.359-1.67,13.011-11.233,13.339-18.529C327.344,295.852,320.5,308.837,309.291,310.193Z" transform="translate(-302.175 -285.441)" fill="#72d561" fill-rule="evenodd"/>
          <path id="Trazado_992868" data-name="Trazado 992868" d="M302.622,307.794l-.208-.161a.611.611,0,0,1,0-.968l5.893-4.553a.611.611,0,0,1,.985.484v1.29a.611.611,0,0,0-.985-.484Zm6.67-3.823v1.29c10.359-1.67,13.011-11.233,13.339-18.529a17.006,17.006,0,0,1,1.5,6.413,17.1,17.1,0,0,0-1.5-7.7C322.3,292.738,319.651,302.3,309.292,303.971Z" transform="translate(-302.176 -285.442)" fill="#3cbe52" fill-rule="evenodd"/>
        </g>
        <g id="Grupo_1155741" data-name="Grupo 1155741" transform="translate(0 36.216)">
          <path id="Trazado_992869" data-name="Trazado 992869" d="M11.123,309.291H9.615a.611.611,0,0,1-.484-.986l4.553-5.893a.611.611,0,0,1,.968,0l4.553,5.893a.611.611,0,0,1-.484.986H17.346c1.67,10.359,11.233,13.011,18.529,13.339-10.41,4.714-23.4-2.126-24.752-13.339Z" transform="translate(-9.001 -302.175)" fill="#72d561" fill-rule="evenodd"/>
          <path id="Trazado_992870" data-name="Trazado 992870" d="M45.614,302.622l.161-.208a.611.611,0,0,1,.968,0l4.553,5.893a.611.611,0,0,1-.484.986h-1.29a.611.611,0,0,0,.484-.986Zm3.823,6.67h-1.29c1.67,10.359,11.233,13.011,18.529,13.339a17.006,17.006,0,0,1-6.413,1.5,17.1,17.1,0,0,0,7.7-1.5C60.67,322.3,51.107,319.651,49.437,309.292Z" transform="translate(-41.091 -302.176)" fill="#3cbe52" fill-rule="evenodd"/>
        </g>
        <g id="Grupo_1155742" data-name="Grupo 1155742" transform="translate(2.843)">
          <path id="Trazado_992871" data-name="Trazado 992871" d="M46.864,11.124V9.615a.611.611,0,0,1,.986-.484l5.893,4.553a.611.611,0,0,1,0,.968L47.85,19.206a.611.611,0,0,1-.985-.484V17.347C36.5,19.017,33.853,28.58,33.525,35.876,28.811,25.465,35.652,12.48,46.864,11.124Z" transform="translate(-32.015 -9.001)" fill="#72d561" fill-rule="evenodd"/>
          <path id="Trazado_992872" data-name="Trazado 992872" d="M53.544,45.614l.208.161a.611.611,0,0,1,0,.968L47.86,51.3a.611.611,0,0,1-.985-.484v-1.29a.611.611,0,0,0,.985.484Zm-6.67,3.823v-1.29C36.515,49.817,33.863,59.38,33.535,66.676a17.006,17.006,0,0,1-1.5-6.413,17.1,17.1,0,0,0,1.5,7.7C33.863,60.67,36.515,51.107,46.874,49.437Z" transform="translate(-32.025 -41.091)" fill="#3cbe52" fill-rule="evenodd"/>
        </g>
        <g id="Grupo_1155743" data-name="Grupo 1155743" transform="translate(12.051 12.051)">
          <path id="Trazado_992873" data-name="Trazado 992873" d="M121.935,106.556H128.1v3.091a15.583,15.583,0,0,1,5.608,2.324l2.187-2.187,4.357,4.357-2.187,2.187a15.585,15.585,0,0,1,2.324,5.608h3.091V128.1h-3.091a15.586,15.586,0,0,1-2.324,5.608l2.187,2.187-4.357,4.357-2.187-2.187a15.586,15.586,0,0,1-5.608,2.324v3.091h-6.161v-3.091a15.586,15.586,0,0,1-5.608-2.324l-2.187,2.187-4.357-4.357,2.187-2.187a15.584,15.584,0,0,1-2.324-5.608h-3.091v-6.161h3.091a15.584,15.584,0,0,1,2.324-5.608l-2.187-2.187,4.357-4.357,2.187,2.187a15.587,15.587,0,0,1,5.608-2.324v-3.092Z" transform="translate(-106.555 -106.556)" fill="#ffda2d" fill-rule="evenodd"/>
          <path id="Trazado_992874" data-name="Trazado 992874" d="M263.99,109.646a15.613,15.613,0,0,1,6.813,3.214l.888-.888a15.586,15.586,0,0,0-5.608-2.324v-3.091H263.99v3.09Zm9.966,6.682a15.584,15.584,0,0,1,2.325,5.609h2.091a15.586,15.586,0,0,0-2.324-5.608l2.187-2.187-4.357-4.357-1.094,1.093,3.357,3.263Zm2.325,11.77a15.588,15.588,0,0,1-2.325,5.609l2.186,2.186-3.31,3.31,1.047,1.047,4.357-4.357-2.187-2.187a15.585,15.585,0,0,0,2.324-5.608Zm-5.477,9.077a15.613,15.613,0,0,1-6.813,3.214v3.09h2.093v-3.091a15.584,15.584,0,0,0,5.608-2.324Zm8.567-9.077h2.093v-6.161h-2.093Z" transform="translate(-244.542 -106.556)" fill="#ffc700" fill-rule="evenodd"/>
          <circle id="Elipse_11850" data-name="Elipse 11850" cx="9.568" cy="9.568" r="9.568" transform="translate(8.893 8.893)" fill="#eff4f7"/>
          <path id="Trazado_992875" data-name="Trazado 992875" d="M188.115,178.548a9.529,9.529,0,0,1,6.209,2.289,9.568,9.568,0,0,0-10.731,15.712,9.569,9.569,0,0,1,4.522-18Z" transform="translate(-169.654 -169.655)" fill="#e2e3e3" fill-rule="evenodd"/>
        </g>
        <g id="Grupo_1155744" data-name="Grupo 1155744" transform="translate(26.05 26.035)">
          <circle id="Elipse_11851" data-name="Elipse 11851" cx="3.709" cy="3.709" r="3.709" transform="translate(0 1.706) rotate(-13.3)" fill="#ffda2d"/>
          <path id="Trazado_992876" data-name="Trazado 992876" d="M229.686,225.976a3.706,3.706,0,0,1,3.167,1.777,3.709,3.709,0,0,0-5.1,5.1,3.709,3.709,0,0,1,1.931-6.875Z" transform="translate(-225.224 -225.208)" fill="#ffc700" fill-rule="evenodd"/>
        </g>
      </g>
      <path id="Trazado_992877" data-name="Trazado 992877" d="M32.5,35.219a2.72,2.72,0,1,1,2.721-2.72A2.723,2.723,0,0,1,32.5,35.219ZM20.318,1h-.05a1.606,1.606,0,0,0-1.576,1.6v.655a17.67,17.67,0,0,0-12.321,9,18.931,18.931,0,0,0-.93,17.017.989.989,0,0,0,.9.581.974.974,0,0,0,.187-.018.988.988,0,0,0,.8-.926c.253-5.637,2.089-15.176,11.363-17.371v.172a1.6,1.6,0,0,0,2.578,1.267l5.893-4.554a1.6,1.6,0,0,0,0-2.532L21.27,1.336A1.6,1.6,0,0,0,20.318,1ZM32.5,27.8a4.7,4.7,0,1,0,4.7,4.7A4.7,4.7,0,0,0,32.5,27.8Zm0,13.308A8.611,8.611,0,1,0,23.889,32.5,8.621,8.621,0,0,0,32.5,41.11Zm0-19.2A10.588,10.588,0,1,0,43.088,32.5,10.6,10.6,0,0,0,32.5,21.911ZM35.388,46.9a14.535,14.535,0,0,0,5.253-2.177.989.989,0,0,1,1.247.124l1.488,1.488,2.959-2.959-1.488-1.489a.988.988,0,0,1-.123-1.247A14.534,14.534,0,0,0,46.9,35.386a.988.988,0,0,1,.969-.795h2.1V30.407h-2.1a.988.988,0,0,1-.969-.8,14.535,14.535,0,0,0-2.177-5.252.988.988,0,0,1,.123-1.247l1.488-1.488-2.959-2.959-1.488,1.488a.988.988,0,0,1-1.247.123A14.537,14.537,0,0,0,35.388,18.1a.989.989,0,0,1-.8-.969v-2.1H30.408v2.1a.989.989,0,0,1-.8.969,14.543,14.543,0,0,0-5.252,2.177.987.987,0,0,1-1.247-.123l-1.488-1.488-2.959,2.959,1.488,1.488a.988.988,0,0,1,.123,1.247A14.535,14.535,0,0,0,18.1,29.612a.988.988,0,0,1-.969.8h-2.1v4.185h2.1a.989.989,0,0,1,.969.795,14.541,14.541,0,0,0,2.177,5.252.988.988,0,0,1-.123,1.247l-1.488,1.488,2.959,2.959,1.488-1.488a.989.989,0,0,1,1.247-.124A14.526,14.526,0,0,0,29.613,46.9a.988.988,0,0,1,.8.969v2.1h4.185v-2.1a.988.988,0,0,1,.795-.969Zm7.289,1.531a.988.988,0,0,0,1.4,0l4.357-4.356a.988.988,0,0,0,0-1.4L46.8,41.048a16.465,16.465,0,0,0,1.857-4.48h2.3a.988.988,0,0,0,.988-.988V29.419a.988.988,0,0,0-.988-.988h-2.3A16.47,16.47,0,0,0,46.8,23.95l1.628-1.628a.988.988,0,0,0,0-1.4l-4.357-4.356a.988.988,0,0,0-1.4,0L41.049,18.2a16.5,16.5,0,0,0-4.48-1.857v-2.3a.989.989,0,0,0-.988-.989H29.419a.989.989,0,0,0-.988.989v2.3a16.462,16.462,0,0,0-4.48,1.857l-1.628-1.628a.988.988,0,0,0-1.4,0l-4.357,4.356a.989.989,0,0,0,0,1.4L18.2,23.95a16.467,16.467,0,0,0-1.857,4.48h-2.3a.988.988,0,0,0-.988.988V35.58a.988.988,0,0,0,.988.988h2.3a16.472,16.472,0,0,0,1.857,4.48l-1.628,1.628a.989.989,0,0,0,0,1.4l4.357,4.356a.988.988,0,0,0,1.4,0L23.951,46.8a16.467,16.467,0,0,0,4.48,1.857v2.3a.988.988,0,0,0,.988.988H35.58a.989.989,0,0,0,.988-.988v-2.3a16.463,16.463,0,0,0,4.48-1.857ZM13.223,56.906A15.633,15.633,0,0,1,5.092,45.2a.989.989,0,0,0-.981-.869H3.37l3.786-4.9,3.786,4.9h-.608a.988.988,0,0,0-.976,1.145A14.967,14.967,0,0,0,17,56.609a22.927,22.927,0,0,0,6.824,2.442,17.369,17.369,0,0,1-10.6-2.145Zm15.685.765a.988.988,0,0,1,.363,1.888,18.115,18.115,0,0,1-7.477,1.592,19.489,19.489,0,0,1-9.54-2.523,17.667,17.667,0,0,1-9-12.321H2.6A1.6,1.6,0,0,1,1.337,43.73L5.89,37.837a1.589,1.589,0,0,1,1.266-.622h0a1.589,1.589,0,0,1,1.266.622l4.553,5.893a1.6,1.6,0,0,1-1.266,2.577h-.173c2.2,9.274,11.734,11.11,17.371,11.363Zm28-5.894A15.634,15.634,0,0,1,45.2,59.907a.988.988,0,0,0-.869.981v.741l-4.9-3.786,4.9-3.786v.608a.988.988,0,0,0,1.146.975A14.965,14.965,0,0,0,56.61,48a22.908,22.908,0,0,0,2.442-6.824,17.365,17.365,0,0,1-2.145,10.6Zm1.566-16.611a.989.989,0,0,1,1.087.563,18.932,18.932,0,0,1-.931,17.018,17.669,17.669,0,0,1-12.321,9V62.4a1.6,1.6,0,0,1-2.578,1.266l-5.893-4.554a1.6,1.6,0,0,1,0-2.532l5.893-4.553a1.6,1.6,0,0,1,2.578,1.267v.172c9.274-2.2,11.11-11.734,11.363-17.371a.988.988,0,0,1,.8-.926Zm-.628-9.6-3.786-4.9h.608a.988.988,0,0,0,.976-1.145A14.968,14.968,0,0,0,48,8.389a22.923,22.923,0,0,0-6.824-2.442,17.371,17.371,0,0,1,10.6,2.145A15.632,15.632,0,0,1,59.908,19.8a.989.989,0,0,0,.981.869h.742Zm5.992-5.979a1.587,1.587,0,0,1-.172,1.68L59.11,27.161a1.6,1.6,0,0,1-2.532,0l-4.553-5.893a1.6,1.6,0,0,1,1.266-2.577h.173C51.268,9.417,41.73,7.581,36.093,7.328A.988.988,0,0,1,35.73,5.44a18.932,18.932,0,0,1,17.018.93,17.667,17.667,0,0,1,9,12.321H62.4A1.593,1.593,0,0,1,63.836,19.588ZM8.094,13.222A15.631,15.631,0,0,1,19.8,5.091a.988.988,0,0,0,.87-.981V3.369l4.9,3.786-4.9,3.786v-.609a.988.988,0,0,0-1.146-.975A14.965,14.965,0,0,0,8.39,17a22.911,22.911,0,0,0-2.442,6.824,17.369,17.369,0,0,1,2.145-10.6Z" fill-rule="evenodd"/>
    </g>
  </g>
</svg>
