<svg xmlns="http://www.w3.org/2000/svg" xmlns:xlink="http://www.w3.org/1999/xlink" width="108" height="108" viewBox="0 0 108 108">
  <defs>
    <filter id="Trazado_982547" x="0" y="0" width="108" height="108" filterUnits="userSpaceOnUse">
      <feOffset dy="3" input="SourceAlpha"/>
      <feGaussianBlur stdDeviation="3" result="blur"/>
      <feFlood flood-opacity="0.161"/>
      <feComposite operator="in" in2="blur"/>
      <feComposite in="SourceGraphic"/>
    </filter>
  </defs>
  <g id="_51" data-name="51" transform="translate(-153 -5100)">
    <g id="Grupo_1154734" data-name="Grupo 1154734" transform="translate(-3324 1034)">
      <g id="Grupo_1153177" data-name="Grupo 1153177" transform="translate(362 3397)">
        <g id="Grupo_1149598" data-name="Grupo 1149598" transform="translate(80 315)">
          <g id="Grupo_1148770" data-name="Grupo 1148770" transform="translate(-27 -2583)">
            <g id="Grupo_1146954" data-name="Grupo 1146954" transform="translate(-415 -1202)">
              <g transform="matrix(1, 0, 0, 1, 3477, 4139)" filter="url(#Trazado_982547)">
                <g id="Trazado_982547-2" data-name="Trazado 982547" transform="translate(9 6)" fill="#fbeaee">
                  <path d="M 45 88.5 C 39.12687683105469 88.5 33.43022537231445 87.35007476806641 28.06830024719238 85.08217620849609 C 22.88852500915527 82.89131164550781 18.23629951477051 79.75458526611328 14.2408504486084 75.75914764404297 C 10.24541282653809 71.76370239257812 7.108687400817871 67.11147308349609 4.917825222015381 61.93170166015625 C 2.649924993515015 56.56977462768555 1.5 50.87312316894531 1.5 45 C 1.5 39.12687683105469 2.649924993515015 33.43022537231445 4.917825222015381 28.06830024719238 C 7.108687400817871 22.88852500915527 10.24541282653809 18.23629951477051 14.2408504486084 14.2408504486084 C 18.23629951477051 10.24541282653809 22.88852500915527 7.108687400817871 28.06830024719238 4.917825222015381 C 33.43022537231445 2.649924993515015 39.12687683105469 1.5 45 1.5 C 50.87312316894531 1.5 56.56977462768555 2.649924993515015 61.93170166015625 4.917825222015381 C 67.11147308349609 7.108687400817871 71.76370239257812 10.24541282653809 75.75914764404297 14.2408504486084 C 79.75458526611328 18.23629951477051 82.89131164550781 22.88852500915527 85.08217620849609 28.06830024719238 C 87.35007476806641 33.43022537231445 88.5 39.12687683105469 88.5 45 C 88.5 50.87312316894531 87.35007476806641 56.56977462768555 85.08217620849609 61.93170166015625 C 82.89131164550781 67.11147308349609 79.75458526611328 71.76370239257812 75.75914764404297 75.75914764404297 C 71.76370239257812 79.75458526611328 67.11147308349609 82.89131164550781 61.93170166015625 85.08217620849609 C 56.56977462768555 87.35007476806641 50.87312316894531 88.5 45 88.5 Z" stroke="none"/>
                  <path d="M 45 3 C 39.32871246337891 3 33.82865524291992 4.110054016113281 28.65262985229492 6.299339294433594 C 23.65165710449219 8.414573669433594 19.15968322753906 11.44334411621094 15.301513671875 15.301513671875 C 11.44334411621094 19.15968322753906 8.414573669433594 23.65165710449219 6.299339294433594 28.65262985229492 C 4.110054016113281 33.82865524291992 3 39.32871246337891 3 45 C 3 50.67128753662109 4.110054016113281 56.17134475708008 6.299339294433594 61.34737396240234 C 8.414573669433594 66.34834289550781 11.44334411621094 70.84031677246094 15.301513671875 74.698486328125 C 19.15968322753906 78.55665588378906 23.65165710449219 81.58542633056641 28.65262985229492 83.70066070556641 C 33.82865524291992 85.88994598388672 39.32871246337891 87 45 87 C 50.67128753662109 87 56.17134475708008 85.88994598388672 61.34737396240234 83.70066070556641 C 66.34834289550781 81.58542633056641 70.84031677246094 78.55665588378906 74.698486328125 74.698486328125 C 78.55665588378906 70.84031677246094 81.58542633056641 66.34834289550781 83.70066070556641 61.34737396240234 C 85.88994598388672 56.17134475708008 87 50.67128753662109 87 45 C 87 39.32871246337891 85.88994598388672 33.82865524291992 83.70066070556641 28.65262985229492 C 81.58542633056641 23.65165710449219 78.55665588378906 19.15968322753906 74.698486328125 15.301513671875 C 70.84031677246094 11.44334411621094 66.34834289550781 8.414573669433594 61.34737396240234 6.299339294433594 C 56.17134475708008 4.110054016113281 50.67128753662109 3 45 3 M 45 0 C 69.85281372070312 0 90 20.14718627929688 90 45 C 90 69.85281372070312 69.85281372070312 90 45 90 C 20.14718627929688 90 0 69.85281372070312 0 45 C 0 20.14718627929688 20.14718627929688 0 45 0 Z" stroke="none" fill="#e23e64"/>
                </g>
              </g>
            </g>
          </g>
        </g>
      </g>
    </g>
    <g id="design-thinking" transform="translate(176 5120)">
      <g id="Grupo_1155748" data-name="Grupo 1155748" transform="translate(0.956)">
        <rect id="Rect치ngulo_409720" data-name="Rect치ngulo 409720" width="59" height="4" rx="1" transform="translate(0.044 56)" fill="#156cdd"/>
        <path id="Trazado_992878" data-name="Trazado 992878" d="M30.757,57.645V58.6H30.2a7.652,7.652,0,0,0-7.091-4.778H5.911A1.917,1.917,0,0,0,4,55.734V51.911A1.917,1.917,0,0,1,5.911,50h17.2A7.645,7.645,0,0,1,30.757,57.645Z" transform="translate(-1.133 -2.22)" fill="#ccd8e5"/>
        <path id="Trazado_992879" data-name="Trazado 992879" d="M30.2,58.778H4V55.911A1.917,1.917,0,0,1,5.911,54h17.2a7.652,7.652,0,0,1,7.09,4.777Z" transform="translate(-1.133 -2.397)" fill="#dfe8f4"/>
        <path id="Trazado_992880" data-name="Trazado 992880" d="M58.757,51.911v3.822a1.917,1.917,0,0,0-1.911-1.911h-17.2a7.652,7.652,0,0,0-7.09,4.777H32v-.956A7.645,7.645,0,0,1,39.645,50h17.2A1.917,1.917,0,0,1,58.757,51.911Z" transform="translate(-2.376 -2.22)" fill="#ccd8e5"/>
        <path id="Trazado_992881" data-name="Trazado 992881" d="M58.783,55.911v2.867H32.58A7.652,7.652,0,0,1,39.671,54h17.2A1.917,1.917,0,0,1,58.783,55.911Z" transform="translate(-2.402 -2.397)" fill="#dfe8f4"/>
        <path id="Trazado_992882" data-name="Trazado 992882" d="M27,39h9.556v3.822a4.778,4.778,0,0,1-9.556,0Z" transform="translate(-2.154 -1.731)" fill="#0795ff"/>
        <path id="Trazado_992883" data-name="Trazado 992883" d="M42.934,19.276a11.45,11.45,0,0,1-4.055,8.953A7.32,7.32,0,0,0,36.245,33.8V33.8H26.689a7.471,7.471,0,0,0-2.7-5.638,11.468,11.468,0,1,1,18.944-8.887Z" transform="translate(-1.843 -0.355)" fill="#dfe8f4"/>
        <path id="Trazado_992884" data-name="Trazado 992884" d="M31.956,11a.956.956,0,0,0,0,1.911A6.7,6.7,0,0,1,38.645,19.6a.956.956,0,0,0,1.911,0A8.61,8.61,0,0,0,31.956,11Z" transform="translate(-2.332 -0.488)" fill="#ccd8e5"/>
        <g id="Grupo_1155747" data-name="Grupo 1155747" transform="translate(10.787)">
          <path id="Trazado_992885" data-name="Trazado 992885" d="M35.84,24.7c-.134.038-3.106.9-3.106,5.284v4.3a.956.956,0,0,1-1.911,0v-4.3c0-4.4-2.981-5.256-3.106-5.284a.956.956,0,0,1,.468-1.854,5.621,5.621,0,0,1,2.637,1.682V19.956a.956.956,0,1,1,1.911,0v4.577a5.621,5.621,0,0,1,2.637-1.682.948.948,0,0,1,1.156.7A.961.961,0,0,1,35.84,24.7Z" transform="translate(-12.942 -0.844)" fill="#0795ff"/>
          <path id="Trazado_992886" data-name="Trazado 992886" d="M31.956,4.778A.956.956,0,0,1,31,3.822V.956a.956.956,0,1,1,1.911,0V3.822A.956.956,0,0,1,31.956,4.778Z" transform="translate(-13.119)" fill="#0795ff"/>
          <path id="Trazado_992887" data-name="Trazado 992887" d="M37.426,5.747a.956.956,0,0,1-.9-1.283l.985-2.692a.956.956,0,0,1,1.795.656l-.984,2.689A.956.956,0,0,1,37.426,5.747Z" transform="translate(-13.362 -0.052)" fill="#0795ff"/>
          <path id="Trazado_992888" data-name="Trazado 992888" d="M42.235,8.55a.956.956,0,0,1-.729-1.567l1.843-2.188a.956.956,0,0,1,1.462,1.233L42.967,8.215A.956.956,0,0,1,42.235,8.55Z" transform="translate(-13.576 -0.198)" fill="#0795ff"/>
          <path id="Trazado_992889" data-name="Trazado 992889" d="M45.817,12.844a.956.956,0,0,1-.478-1.782l2.475-1.433a.956.956,0,1,1,.956,1.653l-2.475,1.433A.943.943,0,0,1,45.817,12.844Z" transform="translate(-13.735 -0.421)" fill="#0795ff"/>
          <path id="Trazado_992890" data-name="Trazado 992890" d="M15.507,30.344a.956.956,0,0,1-.478-1.782L17.5,27.128a.956.956,0,1,1,.956,1.653l-2.475,1.433a.943.943,0,0,1-.478.129Z" transform="translate(-12.389 -1.198)" fill="#0795ff"/>
          <path id="Trazado_992891" data-name="Trazado 992891" d="M47.715,18.108a.956.956,0,0,1-.165-1.9l2.819-.5A.956.956,0,1,1,50.7,17.6l-2.819.5a1,1,0,0,1-.167.014Z" transform="translate(-13.819 -0.697)" fill="#0795ff"/>
          <path id="Trazado_992892" data-name="Trazado 992892" d="M13.245,24.188a.956.956,0,0,1-.165-1.9l2.819-.5a.956.956,0,0,1,.333,1.883l-2.819.5a1,1,0,0,1-.167.014Z" transform="translate(-12.289 -0.967)" fill="#0795ff"/>
          <path id="Trazado_992893" data-name="Trazado 992893" d="M50.536,24.188a1,1,0,0,1-.167-.014l-2.819-.5a.956.956,0,1,1,.333-1.883l2.819.5a.956.956,0,0,1-.165,1.9Z" transform="translate(-13.819 -0.967)" fill="#0795ff"/>
          <path id="Trazado_992894" data-name="Trazado 992894" d="M16.066,18.108a1,1,0,0,1-.167-.014l-2.819-.5a.956.956,0,1,1,.333-1.883l2.819.5a.956.956,0,0,1-.165,1.9Z" transform="translate(-12.289 -0.697)" fill="#0795ff"/>
          <path id="Trazado_992895" data-name="Trazado 992895" d="M48.288,30.344a.943.943,0,0,1-.478-.129l-2.475-1.433a.956.956,0,1,1,.956-1.653l2.475,1.433a.956.956,0,0,1-.478,1.782Z" transform="translate(-13.733 -1.198)" fill="#0795ff"/>
          <path id="Trazado_992896" data-name="Trazado 992896" d="M17.978,12.844a.943.943,0,0,1-.478-.129l-2.475-1.433a.956.956,0,1,1,.956-1.653l2.475,1.433a.956.956,0,0,1-.478,1.782Z" transform="translate(-12.387 -0.421)" fill="#0795ff"/>
          <path id="Trazado_992897" data-name="Trazado 992897" d="M21.591,8.55a.956.956,0,0,1-.732-.339L19.015,6.027A.956.956,0,0,1,20.477,4.8L22.32,6.983a.956.956,0,0,1-.729,1.571Z" transform="translate(-12.577 -0.198)" fill="#0795ff"/>
          <path id="Trazado_992898" data-name="Trazado 992898" d="M26.44,5.748a.956.956,0,0,1-.9-.628l-.984-2.695a.956.956,0,0,1,1.795-.653l.985,2.695a.956.956,0,0,1-.9,1.283Z" transform="translate(-12.831 -0.052)" fill="#0795ff"/>
        </g>
        <rect id="Rect치ngulo_409721" data-name="Rect치ngulo 409721" width="13" height="4" rx="1" transform="translate(23.044 33)" fill="#156cdd"/>
      </g>
      <g id="Grupo_1155749" data-name="Grupo 1155749">
        <path id="Trazado_992899" data-name="Trazado 992899" d="M59.247,57.6h-.956V51.867A2.867,2.867,0,0,0,55.425,49h-17.2a8.6,8.6,0,0,0-7.645,4.682A8.6,8.6,0,0,0,22.935,49H5.734a2.867,2.867,0,0,0-2.867,2.867V57.6H1.911A1.911,1.911,0,0,0,0,59.512v1.911a1.911,1.911,0,0,0,1.911,1.911H59.247a1.911,1.911,0,0,0,1.911-1.911V59.512A1.911,1.911,0,0,0,59.247,57.6Zm-2.867,0H32.752a6.653,6.653,0,0,1,5.472-2.867h17.2a.956.956,0,0,1,.956.956ZM38.224,50.911h17.2a.956.956,0,0,1,.956.956V53a2.834,2.834,0,0,0-.956-.176h-17.2a8.556,8.556,0,0,0-6.414,2.891,6.7,6.7,0,0,1,6.414-4.8Zm-32.491,0h17.2a6.7,6.7,0,0,1,6.414,4.8,8.556,8.556,0,0,0-6.414-2.891H5.734A2.834,2.834,0,0,0,4.778,53V51.867A.956.956,0,0,1,5.734,50.911Zm-.956,4.778a.956.956,0,0,1,.956-.956h17.2A6.653,6.653,0,0,1,28.407,57.6H4.778ZM1.911,59.512H29.624v1.911H1.911Zm29.624,1.911V59.512H59.247v1.911Z" transform="translate(0 -2.175)"/>
        <path id="Trazado_992900" data-name="Trazado 992900" d="M23.322,28.847A6.689,6.689,0,0,1,25.6,32.81a1.911,1.911,0,0,0-1.824,1.9v1.911a1.911,1.911,0,0,0,1.911,1.911V41.4a5.734,5.734,0,0,0,11.467,0V38.535a1.911,1.911,0,0,0,1.911-1.911V34.713a1.911,1.911,0,0,0-1.829-1.9,6.425,6.425,0,0,1,2.211-3.9,12.4,12.4,0,0,0,4.4-9.7,12.577,12.577,0,0,0-11.9-12.2,12.423,12.423,0,0,0-8.626,21.836Zm11.923,11.6H30.467a.956.956,0,1,0,0,1.911h4.642A3.815,3.815,0,0,1,27.6,41.4V38.535h7.645Zm.956-3.822H25.689V34.713H37.156v1.911ZM24.145,11.836A10.44,10.44,0,0,1,31.87,8.921,10.641,10.641,0,0,1,41.934,19.243a10.492,10.492,0,0,1-3.717,8.208A8.32,8.32,0,0,0,35.3,32.8H32.378V29.457c0-4.389,2.968-5.249,3.106-5.286a.956.956,0,0,0-.47-1.852A5.638,5.638,0,0,0,32.378,24V19.423a.956.956,0,0,0-1.911,0V24a5.638,5.638,0,0,0-2.636-1.682.956.956,0,1,0-.471,1.852c.127.03,3.107.89,3.107,5.286V32.8H27.541a8.568,8.568,0,0,0-2.972-5.4,10.521,10.521,0,0,1-.424-15.563Z" transform="translate(-0.843 -0.311)"/>
        <path id="Trazado_992901" data-name="Trazado 992901" d="M31.956,12.911A6.7,6.7,0,0,1,38.645,19.6a.956.956,0,0,0,1.911,0,8.61,8.61,0,0,0-8.6-8.6.956.956,0,0,0,0,1.911Z" transform="translate(-1.376 -0.488)"/>
        <path id="Trazado_992902" data-name="Trazado 992902" d="M31.956,4.778a.956.956,0,0,0,.956-.956V.956A.956.956,0,1,0,31,.956V3.822A.956.956,0,0,0,31.956,4.778Z" transform="translate(-1.376)"/>
        <path id="Trazado_992903" data-name="Trazado 992903" d="M37.1,5.691a.956.956,0,0,0,1.225-.573l.984-2.695a.956.956,0,0,0-1.795-.65l-.985,2.692a.956.956,0,0,0,.57,1.226Z" transform="translate(-1.619 -0.053)"/>
        <path id="Trazado_992904" data-name="Trazado 992904" d="M42.235,8.55a.956.956,0,0,0,.732-.339l1.844-2.188A.956.956,0,1,0,43.349,4.79L41.506,6.982a.956.956,0,0,0,.729,1.571Z" transform="translate(-1.833 -0.198)"/>
        <path id="Trazado_992905" data-name="Trazado 992905" d="M44.994,12.366a.956.956,0,0,0,.828.478.943.943,0,0,0,.478-.129l2.475-1.433a.956.956,0,1,0-.956-1.653l-2.475,1.433A.956.956,0,0,0,44.994,12.366Z" transform="translate(-1.992 -0.421)"/>
        <path id="Trazado_992906" data-name="Trazado 992906" d="M17.5,27.128l-2.475,1.433a.956.956,0,0,0,.478,1.782.943.943,0,0,0,.478-.129l2.475-1.433a.956.956,0,1,0-.956-1.653Z" transform="translate(-0.646 -1.198)"/>
        <path id="Trazado_992907" data-name="Trazado 992907" d="M46.774,17.319a.956.956,0,0,0,.94.789,1,1,0,0,0,.167-.014l2.819-.5a.956.956,0,0,0-.333-1.883l-2.819.5A.956.956,0,0,0,46.774,17.319Z" transform="translate(-2.076 -0.697)"/>
        <path id="Trazado_992908" data-name="Trazado 992908" d="M13.245,24.188a1,1,0,0,0,.167-.014l2.819-.5a.956.956,0,0,0-.333-1.883l-2.819.5a.956.956,0,0,0,.165,1.9Z" transform="translate(-0.546 -0.967)"/>
        <path id="Trazado_992909" data-name="Trazado 992909" d="M50.536,24.188a.956.956,0,0,0,.165-1.9l-2.819-.5a.956.956,0,1,0-.333,1.883l2.819.5a1,1,0,0,0,.167.014Z" transform="translate(-2.076 -0.967)"/>
        <path id="Trazado_992910" data-name="Trazado 992910" d="M13.079,17.6l2.819.5a1,1,0,0,0,.167.014.956.956,0,0,0,.165-1.9l-2.819-.5a.956.956,0,1,0-.333,1.883Z" transform="translate(-0.546 -0.697)"/>
        <path id="Trazado_992911" data-name="Trazado 992911" d="M46.293,27.128a.956.956,0,1,0-.956,1.653l2.475,1.433a.943.943,0,0,0,.478.129.956.956,0,0,0,.478-1.782Z" transform="translate(-1.99 -1.198)"/>
        <path id="Trazado_992912" data-name="Trazado 992912" d="M15.025,11.281,17.5,12.715a.943.943,0,0,0,.478.129.956.956,0,0,0,.478-1.782L15.981,9.628a.956.956,0,1,0-.956,1.653Z" transform="translate(-0.644 -0.421)"/>
        <path id="Trazado_992913" data-name="Trazado 992913" d="M20.859,8.21A.956.956,0,1,0,22.32,6.983L20.477,4.794a.956.956,0,1,0-1.462,1.233Z" transform="translate(-0.834 -0.198)"/>
        <path id="Trazado_992914" data-name="Trazado 992914" d="M25.543,5.116a.956.956,0,1,0,1.8-.656l-.985-2.689a.956.956,0,0,0-1.795.656Z" transform="translate(-1.088 -0.052)"/>
      </g>
    </g>
  </g>
</svg>
