<svg xmlns="http://www.w3.org/2000/svg" xmlns:xlink="http://www.w3.org/1999/xlink" width="108" height="108" viewBox="0 0 108 108">
  <defs>
    <filter id="Trazado_982547" x="0" y="0" width="108" height="108" filterUnits="userSpaceOnUse">
      <feOffset dy="3" input="SourceAlpha"/>
      <feGaussianBlur stdDeviation="3" result="blur"/>
      <feFlood flood-opacity="0.161"/>
      <feComposite operator="in" in2="blur"/>
      <feComposite in="SourceGraphic"/>
    </filter>
  </defs>
  <g id="_66" data-name="66" transform="translate(-274 -8868)">
    <g id="Grupo_1154876" data-name="Grupo 1154876" transform="translate(0 4009)">
      <g id="Grupo_1149673" data-name="Grupo 1149673" transform="translate(-52 -2821)">
        <g id="Grupo_1148532" data-name="Grupo 1148532" transform="translate(51 4253)">
          <g id="Grupo_1147065" data-name="Grupo 1147065" transform="translate(-341 -556)">
            <g transform="matrix(1, 0, 0, 1, 616, 3983)" filter="url(#Trazado_982547)">
              <g id="Trazado_982547-2" data-name="Trazado 982547" transform="translate(9 6)" fill="#f6edfd">
                <path d="M 45 88.5 C 39.12687683105469 88.5 33.43022537231445 87.35007476806641 28.06830024719238 85.08217620849609 C 22.88852500915527 82.89131164550781 18.23629951477051 79.75458526611328 14.2408504486084 75.75914764404297 C 10.24541282653809 71.76370239257812 7.108687400817871 67.11147308349609 4.917825222015381 61.93170166015625 C 2.649924993515015 56.56977462768555 1.5 50.87312316894531 1.5 45 C 1.5 39.12687683105469 2.649924993515015 33.43022537231445 4.917825222015381 28.06830024719238 C 7.108687400817871 22.88852500915527 10.24541282653809 18.23629951477051 14.2408504486084 14.2408504486084 C 18.23629951477051 10.24541282653809 22.88852500915527 7.108687400817871 28.06830024719238 4.917825222015381 C 33.43022537231445 2.649924993515015 39.12687683105469 1.5 45 1.5 C 50.87312316894531 1.5 56.56977462768555 2.649924993515015 61.93170166015625 4.917825222015381 C 67.11147308349609 7.108687400817871 71.76370239257812 10.24541282653809 75.75914764404297 14.2408504486084 C 79.75458526611328 18.23629951477051 82.89131164550781 22.88852500915527 85.08217620849609 28.06830024719238 C 87.35007476806641 33.43022537231445 88.5 39.12687683105469 88.5 45 C 88.5 50.87312316894531 87.35007476806641 56.56977462768555 85.08217620849609 61.93170166015625 C 82.89131164550781 67.11147308349609 79.75458526611328 71.76370239257812 75.75914764404297 75.75914764404297 C 71.76370239257812 79.75458526611328 67.11147308349609 82.89131164550781 61.93170166015625 85.08217620849609 C 56.56977462768555 87.35007476806641 50.87312316894531 88.5 45 88.5 Z" stroke="none"/>
                <path d="M 45 3 C 39.32871246337891 3 33.82865524291992 4.110054016113281 28.65262985229492 6.299339294433594 C 23.65165710449219 8.414573669433594 19.15968322753906 11.44334411621094 15.301513671875 15.301513671875 C 11.44334411621094 19.15968322753906 8.414573669433594 23.65165710449219 6.299339294433594 28.65262985229492 C 4.110054016113281 33.82865524291992 3 39.32871246337891 3 45 C 3 50.67128753662109 4.110054016113281 56.17134475708008 6.299339294433594 61.34737396240234 C 8.414573669433594 66.34834289550781 11.44334411621094 70.84031677246094 15.301513671875 74.698486328125 C 19.15968322753906 78.55665588378906 23.65165710449219 81.58542633056641 28.65262985229492 83.70066070556641 C 33.82865524291992 85.88994598388672 39.32871246337891 87 45 87 C 50.67128753662109 87 56.17134475708008 85.88994598388672 61.34737396240234 83.70066070556641 C 66.34834289550781 81.58542633056641 70.84031677246094 78.55665588378906 74.698486328125 74.698486328125 C 78.55665588378906 70.84031677246094 81.58542633056641 66.34834289550781 83.70066070556641 61.34737396240234 C 85.88994598388672 56.17134475708008 87 50.67128753662109 87 45 C 87 39.32871246337891 85.88994598388672 33.82865524291992 83.70066070556641 28.65262985229492 C 81.58542633056641 23.65165710449219 78.55665588378906 19.15968322753906 74.698486328125 15.301513671875 C 70.84031677246094 11.44334411621094 66.34834289550781 8.414573669433594 61.34737396240234 6.299339294433594 C 56.17134475708008 4.110054016113281 50.67128753662109 3 45 3 M 45 0 C 69.85281372070312 0 90 20.14718627929688 90 45 C 90 69.85281372070312 69.85281372070312 90 45 90 C 20.14718627929688 90 0 69.85281372070312 0 45 C 0 20.14718627929688 20.14718627929688 0 45 0 Z" stroke="none" fill="#ac59f1"/>
              </g>
            </g>
          </g>
        </g>
      </g>
    </g>
    <g id="investigacion-del-consumidor" transform="translate(292 8882.959)">
      <path id="Trazado_992937" data-name="Trazado 992937" d="M45.7,15.489a13.947,13.947,0,1,0,0,19.726A13.85,13.85,0,0,0,45.7,15.489ZM32.669,36.177V37.32a12.222,12.222,0,0,1-3.191-1.344V27.9h3.191Zm1.571,1.449V24.116h3.188v13.51a12.559,12.559,0,0,1-3.188,0ZM39,23.33V20.365h3.191V35.976A12.219,12.219,0,0,1,39,37.32V23.33ZM44.584,34.1q-.4.4-.822.752V19.579a.786.786,0,0,0-.786-.786H38.214a.786.786,0,0,0-.786.786v2.965H33.454a.786.786,0,0,0-.786.786v2.994H28.692a.786.786,0,0,0-.786.786v7.746q-.425-.356-.822-.752a12.391,12.391,0,0,1,0-17.5h0a12.376,12.376,0,0,1,17.5,17.5ZM58.114,61.571v1.343a.786.786,0,1,1-1.571,0V61.571a.786.786,0,0,1,1.571,0Zm-10.371,0v1.343a.786.786,0,1,1-1.571,0V61.571a.786.786,0,0,1,1.571,0ZM58.87,56.348a4.67,4.67,0,0,0,1.216-3.128V49.765a1.931,1.931,0,0,0,0-.663V46.6a7.958,7.958,0,0,0-15.916,0V53.22A4.67,4.67,0,0,0,45.4,56.364c-.142.072-.28.147-.412.224a4.127,4.127,0,0,0-2.392,3.606v2.72a.786.786,0,0,0,1.571,0v-2.72c0-1.131.927-1.971,2.213-2.555a4.8,4.8,0,0,0,4.668,3.725h2.307a4.792,4.792,0,0,0,4.653-3.672c1.228.581,2.111,1.407,2.111,2.5v2.72a.786.786,0,1,0,1.571,0v-2.72C61.689,58.591,60.682,57.262,58.87,56.348Zm-3.633-1.1V54.227a6.633,6.633,0,0,0,1.885-2.684H58a2.1,2.1,0,0,0,.512-.065V53.22a3.11,3.11,0,0,1-1.265,2.487,14.962,14.962,0,0,0-2.013-.459Zm-7.115-6.4a5.7,5.7,0,0,0,4.02-2.16,5.7,5.7,0,0,0,4.02,2.16c-.219,2.148-1.38,4.911-4.02,4.911S48.341,51,48.122,48.85Zm-1.574.043a9.529,9.529,0,0,0,.159,1.079h-.426a.539.539,0,1,1,0-1.079Zm11.966.7a.547.547,0,0,1-.512.377h-.416a9.541,9.541,0,0,0,.152-1.079H58a.548.548,0,0,1,.512.379Zm-6.385-9.385A6.393,6.393,0,0,1,58.515,46.6v.791A2.1,2.1,0,0,0,58,47.322H56.988a4.382,4.382,0,0,1-4.165-2.417.786.786,0,0,0-1.361,0A4.382,4.382,0,0,1,47.3,47.322H46.282a2.1,2.1,0,0,0-.541.073v-.8A6.394,6.394,0,0,1,52.129,40.211ZM45.741,53.22V51.47a2.1,2.1,0,0,0,.541.073h.9a7.787,7.787,0,0,0,.6,1.2A5.816,5.816,0,0,0,49.3,54.427v.781a15.142,15.142,0,0,0-2.28.51,3.108,3.108,0,0,1-1.277-2.5Zm7.613,6.573H51.048a3.22,3.22,0,0,1-3.172-2.684,14.868,14.868,0,0,1,2.293-.429.786.786,0,0,0,.7-.781v-.726a5.034,5.034,0,0,0,1.273.16,4.9,4.9,0,0,0,1.524-.237v.836a.786.786,0,0,0,.69.78,14.253,14.253,0,0,1,2.161.432,3.218,3.218,0,0,1-3.163,2.65ZM20.312,62.914a.786.786,0,1,1-.786-.786A.788.788,0,0,1,20.312,62.914Zm2.309-9.3v-.532A6.633,6.633,0,0,0,24.506,50.4h.88a2.108,2.108,0,0,0,1.123-3.895l.219-.784c.427-1.536.032-2.213-.5-2.684a2.962,2.962,0,0,0,.089-2.909c-1-1.566-3.8-1.521-6.772-1.474h-.033c-2.061,0-4.8.646-6.319,2.451a4.137,4.137,0,0,0-.926,3.471l.33,1.893A2.108,2.108,0,0,0,13.666,50.4h.9a7.787,7.787,0,0,0,.6,1.2,5.815,5.815,0,0,0,1.525,1.684v.294a12.188,12.188,0,0,0-4.311,1.38,4.123,4.123,0,0,0-2.392,3.6v4.352a.786.786,0,0,0,1.571,0V58.562c0-1.6,1.865-2.621,3.974-3.151l1.054,3.5a.786.786,0,0,0,1.273.362l1.8-1.6,1.8,1.6a.786.786,0,0,0,1.274-.362l1.033-3.439c1.995.546,3.741,1.553,3.741,3.089v4.352a.786.786,0,1,0,1.571,0V58.562c0-2.47-2.4-4.293-6.452-4.945Zm-2.968,1.862L18.3,54.042a5.043,5.043,0,0,0,1.221.148,4.9,4.9,0,0,0,1.524-.237v.035Zm5.733-6.649h-.416a9.543,9.543,0,0,0,.152-1.079h.263a.539.539,0,1,1,0,1.079Zm-11.72,0a.539.539,0,1,1,0-1.079h.266a9.529,9.529,0,0,0,.159,1.079h-.426Zm1.012-3.694a2.373,2.373,0,0,0-.575.8l-.284-1.628a2.544,2.544,0,0,1,.581-2.19,6.908,6.908,0,0,1,5.123-1.891h.052c2.065-.033,4.894-.078,5.424.75.229.358,0,1.017-.24,1.506a1.257,1.257,0,0,0,.379,1.687c.171.142.319.264.078,1.131l-.1.37a1.751,1.751,0,0,0-1.564-1.311c-.34-.025-.708-.057-1.095-.09-2.781-.24-6.241-.539-7.774.867Zm.788,1.83a.839.839,0,0,1,.274-.672,5.183,5.183,0,0,1,3.14-.656c1.161,0,2.419.109,3.437.2.394.034.769.066,1.114.092a.173.173,0,0,1,.164.175l-.01.856v.009c0,2.186-1.1,5.654-4.06,5.654s-4.06-3.468-4.06-5.654Zm2.263,10.318-.654-2.172.069-.009,1.384,1.474Zm3.848,0-.8-.707,1.352-1.443.088.013Zm-6.451,3.23v2.4a.786.786,0,1,1-1.571,0v-2.4a.786.786,0,1,1,1.571,0Zm10.371,0v2.4a.786.786,0,1,1-1.571,0v-2.4a.786.786,0,1,1,1.571,0ZM63.366,30.751l-5.421-4.231a.786.786,0,0,0-1.269.619v.767H52.969a17.565,17.565,0,0,0,.186-2.554A17.321,17.321,0,0,0,23.587,13.1a17.49,17.49,0,0,0-2.249,2.76H14.992V15.1a.786.786,0,0,0-1.269-.619L8.3,18.712a.786.786,0,0,0,0,1.239l5.421,4.231a.786.786,0,0,0,1.269-.619V22.8H18.7a17.572,17.572,0,0,0-.186,2.553A17.329,17.329,0,0,0,32.424,42.335V43.8h-.217a.786.786,0,0,0-.786.786v1.265a.785.785,0,0,0-.7.78v2.4a.785.785,0,0,0,.7.78V59.3a4.4,4.4,0,1,0,8.806,0V49.81a.785.785,0,0,0,.7-.78v-2.4a.785.785,0,0,0-.7-.78V44.589a.786.786,0,0,0-.786-.786h-.213V42.336A17.163,17.163,0,0,0,48.081,37.6a17.48,17.48,0,0,0,2.25-2.761h6.344V35.6a.786.786,0,0,0,1.269.619l5.421-4.234a.786.786,0,0,0,0-1.239ZM14.207,21.228a.786.786,0,0,0-.783.727l-3.361-2.623,3.361-2.623a.786.786,0,0,0,.783.727H20.42a17.1,17.1,0,0,0-1.415,3.793h-4.8ZM32.3,47.42h7.057v.824H32.3Zm6.36-2.046v.474H32.993v-.474Zm0,13.922a2.832,2.832,0,1,1-5.663,0V49.816h5.663Zm8.314-22.81A15.6,15.6,0,0,1,38.32,40.9a.786.786,0,0,0-.663.776V43.8H34V41.678a.786.786,0,0,0-.662-.776A15.753,15.753,0,1,1,46.97,36.487ZM58.245,34a.786.786,0,0,0-.784-.729H51.249a17.1,17.1,0,0,0,1.414-3.789h4.8a.786.786,0,0,0,.784-.73l3.361,2.623ZM20.312,60.4a.786.786,0,1,1-.786-.786A.788.788,0,0,1,20.312,60.4ZM54.181,22.013a.784.784,0,1,1,.786.786A.788.788,0,0,1,54.181,22.013Zm2.147,0a.786.786,0,1,1,.786.786A.788.788,0,0,1,56.329,22.013Zm2.151,0a.784.784,0,1,1,.783.786A.785.785,0,0,1,58.48,22.013Zm2.147,0a.786.786,0,1,1,.786.786A.788.788,0,0,1,60.627,22.013ZM16.7,29.477a.786.786,0,1,1,.786-.786A.788.788,0,0,1,16.7,29.477Zm-2.147,0a.786.786,0,1,1,.786-.786A.788.788,0,0,1,14.554,29.477Zm-2.151,0a.786.786,0,1,1,.786-.786A.785.785,0,0,1,12.4,29.477Zm-2.147,0a.786.786,0,1,1,.786-.786A.788.788,0,0,1,10.255,29.477Z"/>
      <path id="Trazado_992938" data-name="Trazado 992938" d="M159.208,362.937h.416a.539.539,0,1,0,0-1.079h-.263A9.53,9.53,0,0,1,159.208,362.937Z" transform="translate(-134.237 -314.107)" fill="#fcc9c0"/>
      <path id="Trazado_992939" data-name="Trazado 992939" d="M54.2,361.856a.539.539,0,1,0,0,1.079h.426a9.53,9.53,0,0,1-.159-1.079H54.2Z" transform="translate(-40.538 -314.105)" fill="#fcc9c0"/>
      <path id="Trazado_992940" data-name="Trazado 992940" d="M82.644,344.345l.01-.856a.173.173,0,0,0-.164-.175c-.345-.025-.72-.058-1.114-.092-1.018-.088-2.276-.2-3.437-.2a5.183,5.183,0,0,0-3.14.656.839.839,0,0,0-.274.672c0,2.186,1.1,5.654,4.06,5.654s4.06-3.468,4.06-5.654Z" transform="translate(-59.059 -297.388)" fill="#ffdbd3"/>
      <path id="Trazado_992941" data-name="Trazado 992941" d="M121.86,429.067l.8.707.642-2.137-.088-.013Z" transform="translate(-101.081 -372.492)" fill="#f96353"/>
      <path id="Trazado_992942" data-name="Trazado 992942" d="M68.112,298.741c.387.033.755.065,1.095.09a1.751,1.751,0,0,1,1.564,1.311l.1-.37c.241-.867.093-.989-.078-1.131a1.257,1.257,0,0,1-.379-1.687c.235-.489.468-1.148.24-1.506-.529-.828-3.358-.783-5.424-.75h-.052a6.908,6.908,0,0,0-5.123,1.891,2.544,2.544,0,0,0-.581,2.19l.284,1.628a2.369,2.369,0,0,1,.575-.8C61.87,298.2,65.331,298.5,68.112,298.741Z" transform="translate(-45.659 -254.472)" fill="#656d78"/>
      <path id="Trazado_992943" data-name="Trazado 992943" d="M102.56,417.114a4.9,4.9,0,0,1-1.524.237,5.043,5.043,0,0,1-1.221-.148l1.348,1.436,1.4-1.491v-.035Z" transform="translate(-81.51 -363.161)" fill="#fcc9c0"/>
      <path id="Trazado_992944" data-name="Trazado 992944" d="M88.859,427.358l.654,2.172.8-.708-1.384-1.474Z" transform="translate(-71.784 -372.248)" fill="#f96353"/>
      <path id="Trazado_992945" data-name="Trazado 992945" d="M347.826,397.954a5.814,5.814,0,0,1-1.525-1.684,7.8,7.8,0,0,1-.6-1.2h-.9a2.1,2.1,0,0,1-.541-.073v1.75a3.108,3.108,0,0,0,1.277,2.5,15.126,15.126,0,0,1,2.28-.51Z" transform="translate(-298.528 -343.527)" fill="#b27946"/>
      <path id="Trazado_992946" data-name="Trazado 992946" d="M399.558,197.05a.786.786,0,0,1,.784.729l3.361-2.625-3.361-2.623a.786.786,0,0,1-.784.73h-4.8a17.1,17.1,0,0,1-1.414,3.789Z" transform="translate(-342.097 -163.784)" fill="#b4dd7f"/>
      <path id="Trazado_992947" data-name="Trazado 992947" d="M199.363,193.026a12.219,12.219,0,0,0,3.191,1.344v-9.425h-3.191Z" transform="translate(-169.885 -157.05)" fill="#ff826e"/>
      <path id="Trazado_992948" data-name="Trazado 992948" d="M230.686,340.682h5.663v.474h-5.663Z" transform="translate(-197.693 -295.307)" fill="#abc5c9"/>
      <path id="Trazado_992949" data-name="Trazado 992949" d="M241.8,154.264V164.78a12.559,12.559,0,0,0,3.188,0V151.27H241.8Z" transform="translate(-207.557 -127.154)" fill="#ff826e"/>
      <path id="Trazado_992950" data-name="Trazado 992950" d="M350.658,294.675a6.394,6.394,0,0,0-6.389,6.385v.8a2.105,2.105,0,0,1,.541-.073h1.015a4.382,4.382,0,0,0,4.165-2.417.786.786,0,0,1,1.361,0,4.382,4.382,0,0,0,4.165,2.417h1.015a2.1,2.1,0,0,1,.512.065v-.791A6.392,6.392,0,0,0,350.658,294.675Z" transform="translate(-298.528 -254.464)" fill="#b27946"/>
      <path id="Trazado_992951" data-name="Trazado 992951" d="M284.2,120.815v13.99a12.222,12.222,0,0,0,3.191-1.344V117.85H284.2Z" transform="translate(-245.203 -97.485)" fill="#ff826e"/>
      <path id="Trazado_992952" data-name="Trazado 992952" d="M30.521,89.786h4.8a17.108,17.108,0,0,1,1.415-3.793H30.521a.786.786,0,0,1-.783-.727l-3.361,2.623,3.361,2.623A.786.786,0,0,1,30.521,89.786Z" transform="translate(-16.314 -68.558)" fill="#b4dd7f"/>
      <path id="Trazado_992953" data-name="Trazado 992953" d="M149.409,73.13q.4.4.822.752V66.135a.786.786,0,0,1,.786-.786h3.977V62.356a.786.786,0,0,1,.786-.786h3.974V58.6a.786.786,0,0,1,.786-.786H165.3a.786.786,0,0,1,.786.786V73.881q.425-.356.822-.752a12.376,12.376,0,1,0-17.5-17.5h0A12.392,12.392,0,0,0,149.409,73.13Z" transform="translate(-122.325 -39.026)" fill="#69d6f4"/>
      <path id="Trazado_992954" data-name="Trazado 992954" d="M120.283,48.908a15.635,15.635,0,0,0,8.636,4.415.786.786,0,0,1,.662.776v2.125h3.662V54.1a.786.786,0,0,1,.663-.776,15.748,15.748,0,0,0,8.65-26.688,15.749,15.749,0,1,0-22.273,22.273Zm1.275-21a13.947,13.947,0,1,1,0,19.726A13.85,13.85,0,0,1,121.558,27.911Z" transform="translate(-95.586 -12.422)" fill="#cfd2d3"/>
      <path id="Trazado_992955" data-name="Trazado 992955" d="M230.686,389.735a2.832,2.832,0,1,0,5.663,0v-9.481h-5.663Z" transform="translate(-197.693 -330.438)" fill="#abc5c9"/>
      <path id="Trazado_992956" data-name="Trazado 992956" d="M224.478,358.909h7.057v.824h-7.057Z" transform="translate(-192.182 -311.489)" fill="#bacace"/>
      <path id="Trazado_992957" data-name="Trazado 992957" d="M345.236,373.112a9.526,9.526,0,0,1-.159-1.079h-.266a.539.539,0,1,0,0,1.079Z" transform="translate(-298.528 -323.14)" fill="#fcc9c0"/>
      <path id="Trazado_992958" data-name="Trazado 992958" d="M369.079,428.127v-.836a4.9,4.9,0,0,1-1.524.238,5.032,5.032,0,0,1-1.273-.16v.726a.786.786,0,0,1-.7.781,14.868,14.868,0,0,0-2.293.429,3.22,3.22,0,0,0,3.172,2.684h2.307a3.218,3.218,0,0,0,3.163-2.65,14.25,14.25,0,0,0-2.161-.432A.786.786,0,0,1,369.079,428.127Z" transform="translate(-315.413 -372.196)" fill="#fcc9c0"/>
      <path id="Trazado_992959" data-name="Trazado 992959" d="M369.507,359.473c2.64,0,3.8-2.763,4.02-4.911a5.7,5.7,0,0,1-4.02-2.16,5.7,5.7,0,0,1-4.02,2.16C365.706,356.71,366.867,359.473,369.507,359.473Z" transform="translate(-317.365 -305.711)" fill="#ffdbd3"/>
      <path id="Trazado_992960" data-name="Trazado 992960" d="M430.767,395.128a6.633,6.633,0,0,1-1.885,2.684v1.021a14.975,14.975,0,0,1,2.013.459,3.109,3.109,0,0,0,1.265-2.487v-1.742a2.1,2.1,0,0,1-.512.065Z" transform="translate(-373.645 -343.585)" fill="#b27946"/>
      <path id="Trazado_992961" data-name="Trazado 992961" d="M450.23,372.033h-.263a9.559,9.559,0,0,1-.152,1.079h.416a.547.547,0,0,0,.512-.377v-.324A.548.548,0,0,0,450.23,372.033Z" transform="translate(-392.227 -323.14)" fill="#fcc9c0"/>
      <g id="Grupo_1155792" data-name="Grupo 1155792" transform="translate(10.764 55.411)">
        <path id="Trazado_992962" data-name="Trazado 992962" d="M49.367,437.607v-4.352c0-1.536-1.746-2.543-3.741-3.089l-1.033,3.439a.786.786,0,0,1-1.274.362l-1.8-1.6-1.8,1.6a.786.786,0,0,1-1.273-.362l-1.054-3.5c-2.11.53-3.974,1.549-3.974,3.151v4.352a.786.786,0,0,1-.786.786H36.2a.786.786,0,0,1-.786-.786v-2.4a.786.786,0,1,1,1.571,0v2.4a.786.786,0,0,1-.786.786h5.183a.786.786,0,1,1,.007,0h5.182a.786.786,0,0,1-.786-.786v-2.4a.786.786,0,1,1,1.571,0v2.4a.786.786,0,0,1-.786.786h3.576a.785.785,0,0,1-.785-.786Zm-7.976-1.724a.786.786,0,1,1,.786-.786A.788.788,0,0,1,41.391,435.883Z" transform="translate(-32.629 -430.104)" fill="#ff826e"/>
        <path id="Trazado_992963" data-name="Trazado 992963" d="M339.976,455.233v-2.72c0-1.094-.884-1.92-2.111-2.5a4.792,4.792,0,0,1-4.653,3.672h-2.307a4.8,4.8,0,0,1-4.668-3.725c-1.286.584-2.213,1.424-2.213,2.555v2.72a.786.786,0,0,1-.786.786h3.576a.786.786,0,0,1-.786-.786V453.89a.786.786,0,1,1,1.571,0v1.343a.786.786,0,0,1-.786.786h10.372a.786.786,0,0,1-.786-.786V453.89a.786.786,0,1,1,1.571,0v1.343a.786.786,0,0,1-.786.786h3.576A.785.785,0,0,1,339.976,455.233Z" transform="translate(-290.622 -447.73)" fill="#ff826e"/>
      </g>
    </g>
  </g>
</svg>
