<svg xmlns="http://www.w3.org/2000/svg" xmlns:xlink="http://www.w3.org/1999/xlink" width="108" height="108" viewBox="0 0 108 108">
  <defs>
    <filter id="Trazado_982547" x="0" y="0" width="108" height="108" filterUnits="userSpaceOnUse">
      <feOffset dy="3" input="SourceAlpha"/>
      <feGaussianBlur stdDeviation="3" result="blur"/>
      <feFlood flood-opacity="0.161"/>
      <feComposite operator="in" in2="blur"/>
      <feComposite in="SourceGraphic"/>
    </filter>
  </defs>
  <g id="_68" data-name="68" transform="translate(-903 -8868)">
    <g id="Grupo_1154878" data-name="Grupo 1154878" transform="translate(0 4009)">
      <g id="Grupo_1149675" data-name="Grupo 1149675" transform="translate(157 -2821)">
        <g id="Grupo_1148534" data-name="Grupo 1148534" transform="translate(156 4253)">
          <g id="Grupo_1147066" data-name="Grupo 1147066" transform="translate(-26 -556)">
            <g transform="matrix(1, 0, 0, 1, 616, 3983)" filter="url(#Trazado_982547)">
              <g id="Trazado_982547-2" data-name="Trazado 982547" transform="translate(9 6)" fill="#f6edfd">
                <path d="M 45 88.5 C 39.12687683105469 88.5 33.43022537231445 87.35007476806641 28.06830024719238 85.08217620849609 C 22.88852500915527 82.89131164550781 18.23629951477051 79.75458526611328 14.2408504486084 75.75914764404297 C 10.24541282653809 71.76370239257812 7.108687400817871 67.11147308349609 4.917825222015381 61.93170166015625 C 2.649924993515015 56.56977462768555 1.5 50.87312316894531 1.5 45 C 1.5 39.12687683105469 2.649924993515015 33.43022537231445 4.917825222015381 28.06830024719238 C 7.108687400817871 22.88852500915527 10.24541282653809 18.23629951477051 14.2408504486084 14.2408504486084 C 18.23629951477051 10.24541282653809 22.88852500915527 7.108687400817871 28.06830024719238 4.917825222015381 C 33.43022537231445 2.649924993515015 39.12687683105469 1.5 45 1.5 C 50.87312316894531 1.5 56.56977462768555 2.649924993515015 61.93170166015625 4.917825222015381 C 67.11147308349609 7.108687400817871 71.76370239257812 10.24541282653809 75.75914764404297 14.2408504486084 C 79.75458526611328 18.23629951477051 82.89131164550781 22.88852500915527 85.08217620849609 28.06830024719238 C 87.35007476806641 33.43022537231445 88.5 39.12687683105469 88.5 45 C 88.5 50.87312316894531 87.35007476806641 56.56977462768555 85.08217620849609 61.93170166015625 C 82.89131164550781 67.11147308349609 79.75458526611328 71.76370239257812 75.75914764404297 75.75914764404297 C 71.76370239257812 79.75458526611328 67.11147308349609 82.89131164550781 61.93170166015625 85.08217620849609 C 56.56977462768555 87.35007476806641 50.87312316894531 88.5 45 88.5 Z" stroke="none"/>
                <path d="M 45 3 C 39.32871246337891 3 33.82865524291992 4.110054016113281 28.65262985229492 6.299339294433594 C 23.65165710449219 8.414573669433594 19.15968322753906 11.44334411621094 15.301513671875 15.301513671875 C 11.44334411621094 19.15968322753906 8.414573669433594 23.65165710449219 6.299339294433594 28.65262985229492 C 4.110054016113281 33.82865524291992 3 39.32871246337891 3 45 C 3 50.67128753662109 4.110054016113281 56.17134475708008 6.299339294433594 61.34737396240234 C 8.414573669433594 66.34834289550781 11.44334411621094 70.84031677246094 15.301513671875 74.698486328125 C 19.15968322753906 78.55665588378906 23.65165710449219 81.58542633056641 28.65262985229492 83.70066070556641 C 33.82865524291992 85.88994598388672 39.32871246337891 87 45 87 C 50.67128753662109 87 56.17134475708008 85.88994598388672 61.34737396240234 83.70066070556641 C 66.34834289550781 81.58542633056641 70.84031677246094 78.55665588378906 74.698486328125 74.698486328125 C 78.55665588378906 70.84031677246094 81.58542633056641 66.34834289550781 83.70066070556641 61.34737396240234 C 85.88994598388672 56.17134475708008 87 50.67128753662109 87 45 C 87 39.32871246337891 85.88994598388672 33.82865524291992 83.70066070556641 28.65262985229492 C 81.58542633056641 23.65165710449219 78.55665588378906 19.15968322753906 74.698486328125 15.301513671875 C 70.84031677246094 11.44334411621094 66.34834289550781 8.414573669433594 61.34737396240234 6.299339294433594 C 56.17134475708008 4.110054016113281 50.67128753662109 3 45 3 M 45 0 C 69.85281372070312 0 90 20.14718627929688 90 45 C 90 69.85281372070312 69.85281372070312 90 45 90 C 20.14718627929688 90 0 69.85281372070312 0 45 C 0 20.14718627929688 20.14718627929688 0 45 0 Z" stroke="none" fill="#ac59f1"/>
              </g>
            </g>
          </g>
        </g>
      </g>
    </g>
    <g id="app" transform="translate(928 8889.5)">
      <path id="Trazado_992999" data-name="Trazado 992999" d="M125.523,65.846H95.375A3.375,3.375,0,0,1,92,62.471v-48.6A3.375,3.375,0,0,1,95.375,10.5h30.148a3.375,3.375,0,0,1,3.375,3.375v48.6A3.375,3.375,0,0,1,125.523,65.846Zm0,0" transform="translate(-81.651 -8.875)" fill="#72d8ff"/>
      <path id="Trazado_993000" data-name="Trazado 993000" d="M92,64.5h36.9v42.072H92Zm0,0" transform="translate(-81.651 -56.801)" fill="#fff"/>
      <path id="Trazado_993001" data-name="Trazado 993001" d="M10,104.5H28.9v16.2H10Zm0,0" transform="translate(-8.875 -92.301)" fill="#ff5d5d"/>
      <path id="Trazado_993002" data-name="Trazado 993002" d="M67.4,150.991v-4.447a1.289,1.289,0,0,1,1.934-1.117l3.856,2.224a1.29,1.29,0,0,1,0,2.234l-3.856,2.223A1.29,1.29,0,0,1,67.4,150.991Zm0,0" transform="translate(-59.817 -128.47)" fill="#fff"/>
      <path id="Trazado_993003" data-name="Trazado 993003" d="M331.495,201.391a8.456,8.456,0,0,0-.177-1.722l2.416-1.395-2.633-4.56-2.418,1.4a8.413,8.413,0,0,0-2.981-1.723V190.6h-5.265v2.789a8.412,8.412,0,0,0-2.981,1.723l-2.418-1.4-2.633,4.56,2.416,1.395a8.5,8.5,0,0,0,0,3.444l-2.416,1.395,2.633,4.56,2.418-1.4a8.412,8.412,0,0,0,2.981,1.723v2.789H325.7V209.4a8.414,8.414,0,0,0,2.981-1.723l2.418,1.4,2.633-4.56-2.416-1.395A8.456,8.456,0,0,0,331.495,201.391Zm0,0" transform="translate(-277.263 -168.713)" fill="#fff"/>
      <path id="Trazado_993004" data-name="Trazado 993004" d="M331.495,201.391a8.456,8.456,0,0,0-.177-1.722l2.416-1.395-2.633-4.56-2.418,1.4a8.413,8.413,0,0,0-2.981-1.723V190.6h-5.265v2.789a8.412,8.412,0,0,0-2.981,1.723l-2.418-1.4-2.633,4.56,2.416,1.395a8.5,8.5,0,0,0,0,3.444l-2.416,1.395,2.633,4.56,2.418-1.4a8.412,8.412,0,0,0,2.981,1.723v2.789H325.7V209.4a8.414,8.414,0,0,0,2.981-1.723l2.418,1.4,2.633-4.56-2.416-1.395A8.456,8.456,0,0,0,331.495,201.391Zm0,0" transform="translate(-277.263 -168.713)" fill="#4dbaf6"/>
      <path id="Trazado_993005" data-name="Trazado 993005" d="M381.146,256.708a3.782,3.782,0,1,1-3.782-3.782A3.782,3.782,0,0,1,381.146,256.708Zm0,0" transform="translate(-331.556 -224.03)" fill="#fff"/>
      <path id="Trazado_993006" data-name="Trazado 993006" d="M123.125,54.5a1.125,1.125,0,0,0,0,2.25h.011a1.125,1.125,0,0,0-.011-2.25Zm0,0" transform="translate(-108.276 -47.926)"/>
      <path id="Trazado_993007" data-name="Trazado 993007" d="M247.078,460.5a1.125,1.125,0,0,0,0,2.25h.011a1.125,1.125,0,0,0-.011-2.25Zm0,0" transform="translate(-218.285 -408.25)"/>
      <path id="Trazado_993008" data-name="Trazado 993008" d="M64.875,137.787l-3.856-2.224a2.415,2.415,0,0,0-3.621,2.092V142.1a2.409,2.409,0,0,0,3.62,2.092l3.856-2.223a2.414,2.414,0,0,0,0-4.183Zm-1.124,2.234L59.9,142.244a.165.165,0,0,1-.247-.143v-4.447a.153.153,0,0,1,.082-.142.165.165,0,0,1,.083-.024.158.158,0,0,1,.081.024l3.856,2.223a.165.165,0,0,1,0,.286Zm0,0" transform="translate(-50.941 -119.58)"/>
      <path id="Trazado_993009" data-name="Trazado 993009" d="M57.033,34.821l-1.744-1.007a9.622,9.622,0,0,0,0-2.271l1.744-1.007A1.125,1.125,0,0,0,57.445,29l-2.632-4.56a1.125,1.125,0,0,0-1.537-.412l-1.745,1.007A9.45,9.45,0,0,0,49.565,23.9V21.884A1.125,1.125,0,0,0,48.44,20.76h-.068V5a4.505,4.505,0,0,0-4.5-4.5H13.724A4.505,4.505,0,0,0,9.224,5v6.075h-8.1A1.125,1.125,0,0,0,0,12.2V28.4a1.125,1.125,0,0,0,1.125,1.125h8.1V53.6a4.5,4.5,0,0,0,4.5,4.5H43.872a4.5,4.5,0,0,0,4.5-4.5v-9h.068a1.125,1.125,0,0,0,1.125-1.125V41.46a9.481,9.481,0,0,0,1.967-1.137l1.744,1.007a1.125,1.125,0,0,0,1.537-.412l2.633-4.559a1.125,1.125,0,0,0-.412-1.537ZM2.25,13.324H18.9V27.273H2.25ZM43.872,55.846H13.724a2.252,2.252,0,0,1-2.25-2.25V50.9H46.122v2.7A2.252,2.252,0,0,1,43.872,55.846Zm2.25-7.2H11.474V29.523h8.549A1.125,1.125,0,0,0,21.149,28.4V12.2a1.125,1.125,0,0,0-1.125-1.125H11.474V5a2.253,2.253,0,0,1,2.25-2.25H43.872A2.253,2.253,0,0,1,46.122,5V6.574H19.359a1.125,1.125,0,1,0,0,2.25H46.122V20.76H43.174a1.125,1.125,0,0,0-1.125,1.125V23.9a9.47,9.47,0,0,0-1.967,1.137l-1.744-1.007a1.125,1.125,0,0,0-1.537.412L34.169,29a1.125,1.125,0,0,0,.412,1.537l1.744,1.007a9.626,9.626,0,0,0,0,2.271l-1.744,1.007a1.125,1.125,0,0,0-.412,1.537L36.8,40.917a1.125,1.125,0,0,0,1.537.412l1.744-1.007a9.489,9.489,0,0,0,1.967,1.137v2.012A1.125,1.125,0,0,0,43.174,44.6h2.948Zm6.832-17.462a7.366,7.366,0,0,1,0,2.986,1.125,1.125,0,0,0,.539,1.2l1.442.832-1.508,2.612-1.444-.834a1.125,1.125,0,0,0-1.312.136,7.245,7.245,0,0,1-2.583,1.493,1.125,1.125,0,0,0-.774,1.069v1.665H44.3V40.682a1.125,1.125,0,0,0-.773-1.069,7.251,7.251,0,0,1-2.583-1.493,1.125,1.125,0,0,0-1.313-.136l-1.444.834L36.68,36.207l1.442-.832a1.125,1.125,0,0,0,.539-1.2,7.366,7.366,0,0,1,0-2.986,1.125,1.125,0,0,0-.539-1.2l-1.442-.832,1.508-2.612,1.444.834a1.125,1.125,0,0,0,1.313-.136,7.238,7.238,0,0,1,2.583-1.493,1.125,1.125,0,0,0,.773-1.069V23.009h3.015v1.665a1.125,1.125,0,0,0,.774,1.069,7.247,7.247,0,0,1,2.582,1.493,1.125,1.125,0,0,0,1.313.136l1.444-.834,1.508,2.612-1.442.833A1.124,1.124,0,0,0,52.954,31.185Zm0,0"/>
      <path id="Trazado_993010" data-name="Trazado 993010" d="M368.489,242.926a4.907,4.907,0,1,0,4.907,4.907A4.913,4.913,0,0,0,368.489,242.926Zm0,7.564a2.657,2.657,0,1,1,2.657-2.657A2.66,2.66,0,0,1,368.489,250.49Zm0,0" transform="translate(-322.682 -215.155)"/>
      <path id="Trazado_993011" data-name="Trazado 993011" d="M149.9,332.5H134.793a1.125,1.125,0,1,0,0,2.25H149.9a1.125,1.125,0,0,0,0-2.25Zm0,0" transform="translate(-118.631 -294.653)"/>
      <path id="Trazado_993012" data-name="Trazado 993012" d="M142.345,372.5h-7.556a1.125,1.125,0,1,0,0,2.249h7.556a1.125,1.125,0,1,0,0-2.249Zm0,0" transform="translate(-118.628 -330.153)"/>
      <path id="Trazado_993013" data-name="Trazado 993013" d="M241.953,372.5a1.123,1.123,0,1,0,.8.33A1.132,1.132,0,0,0,241.953,372.5Zm0,0" transform="translate(-213.737 -330.153)"/>
      <path id="Trazado_993014" data-name="Trazado 993014" d="M222.793,96.75H237.9a1.125,1.125,0,1,0,0-2.25H222.793a1.125,1.125,0,0,0,0,2.25Zm0,0" transform="translate(-196.732 -83.426)"/>
      <path id="Trazado_993015" data-name="Trazado 993015" d="M231.47,135.625a1.125,1.125,0,0,0-1.125-1.125h-7.556a1.125,1.125,0,1,0,0,2.25h7.556A1.125,1.125,0,0,0,231.47,135.625Zm0,0" transform="translate(-196.728 -118.926)"/>
    </g>
  </g>
</svg>
