<svg xmlns="http://www.w3.org/2000/svg" xmlns:xlink="http://www.w3.org/1999/xlink" width="108" height="108" viewBox="0 0 108 108">
  <defs>
    <filter id="Trazado_982547" x="0" y="0" width="108" height="108" filterUnits="userSpaceOnUse">
      <feOffset dy="3" input="SourceAlpha"/>
      <feGaussianBlur stdDeviation="3" result="blur"/>
      <feFlood flood-opacity="0.161"/>
      <feComposite operator="in" in2="blur"/>
      <feComposite in="SourceGraphic"/>
    </filter>
  </defs>
  <g id="_70" data-name="70" transform="translate(-161 -9220)">
    <g id="Grupo_1155843" data-name="Grupo 1155843">
      <g id="Grupo_1154880" data-name="Grupo 1154880" transform="translate(0 7768)">
        <g id="Grupo_1153117" data-name="Grupo 1153117" transform="translate(-93 939)">
          <g id="Grupo_1149598" data-name="Grupo 1149598" transform="translate(80 315)">
            <g id="Grupo_1148770" data-name="Grupo 1148770" transform="translate(-27 -2583)">
              <g id="Grupo_1146954" data-name="Grupo 1146954" transform="translate(-415 -1202)">
                <g transform="matrix(1, 0, 0, 1, 616, 3983)" filter="url(#Trazado_982547)">
                  <g id="Trazado_982547-2" data-name="Trazado 982547" transform="translate(9 6)" fill="#f5fdfd">
                    <path d="M 45 88.5 C 39.12687683105469 88.5 33.43022537231445 87.35007476806641 28.06830024719238 85.08217620849609 C 22.88852500915527 82.89131164550781 18.23629951477051 79.75458526611328 14.2408504486084 75.75914764404297 C 10.24541282653809 71.76370239257812 7.108687400817871 67.11147308349609 4.917825222015381 61.93170166015625 C 2.649924993515015 56.56977462768555 1.5 50.87312316894531 1.5 45 C 1.5 39.12687683105469 2.649924993515015 33.43022537231445 4.917825222015381 28.06830024719238 C 7.108687400817871 22.88852500915527 10.24541282653809 18.23629951477051 14.2408504486084 14.2408504486084 C 18.23629951477051 10.24541282653809 22.88852500915527 7.108687400817871 28.06830024719238 4.917825222015381 C 33.43022537231445 2.649924993515015 39.12687683105469 1.5 45 1.5 C 50.87312316894531 1.5 56.56977462768555 2.649924993515015 61.93170166015625 4.917825222015381 C 67.11147308349609 7.108687400817871 71.76370239257812 10.24541282653809 75.75914764404297 14.2408504486084 C 79.75458526611328 18.23629951477051 82.89131164550781 22.88852500915527 85.08217620849609 28.06830024719238 C 87.35007476806641 33.43022537231445 88.5 39.12687683105469 88.5 45 C 88.5 50.87312316894531 87.35007476806641 56.56977462768555 85.08217620849609 61.93170166015625 C 82.89131164550781 67.11147308349609 79.75458526611328 71.76370239257812 75.75914764404297 75.75914764404297 C 71.76370239257812 79.75458526611328 67.11147308349609 82.89131164550781 61.93170166015625 85.08217620849609 C 56.56977462768555 87.35007476806641 50.87312316894531 88.5 45 88.5 Z" stroke="none"/>
                    <path d="M 45 3 C 39.32871246337891 3 33.82865524291992 4.110054016113281 28.65262985229492 6.299339294433594 C 23.65165710449219 8.414573669433594 19.15968322753906 11.44334411621094 15.301513671875 15.301513671875 C 11.44334411621094 19.15968322753906 8.414573669433594 23.65165710449219 6.299339294433594 28.65262985229492 C 4.110054016113281 33.82865524291992 3 39.32871246337891 3 45 C 3 50.67128753662109 4.110054016113281 56.17134475708008 6.299339294433594 61.34737396240234 C 8.414573669433594 66.34834289550781 11.44334411621094 70.84031677246094 15.301513671875 74.698486328125 C 19.15968322753906 78.55665588378906 23.65165710449219 81.58542633056641 28.65262985229492 83.70066070556641 C 33.82865524291992 85.88994598388672 39.32871246337891 87 45 87 C 50.67128753662109 87 56.17134475708008 85.88994598388672 61.34737396240234 83.70066070556641 C 66.34834289550781 81.58542633056641 70.84031677246094 78.55665588378906 74.698486328125 74.698486328125 C 78.55665588378906 70.84031677246094 81.58542633056641 66.34834289550781 83.70066070556641 61.34737396240234 C 85.88994598388672 56.17134475708008 87 50.67128753662109 87 45 C 87 39.32871246337891 85.88994598388672 33.82865524291992 83.70066070556641 28.65262985229492 C 81.58542633056641 23.65165710449219 78.55665588378906 19.15968322753906 74.698486328125 15.301513671875 C 70.84031677246094 11.44334411621094 66.34834289550781 8.414573669433594 61.34737396240234 6.299339294433594 C 56.17134475708008 4.110054016113281 50.67128753662109 3 45 3 M 45 0 C 69.85281372070312 0 90 20.14718627929688 90 45 C 90 69.85281372070312 69.85281372070312 90 45 90 C 20.14718627929688 90 0 69.85281372070312 0 45 C 0 20.14718627929688 20.14718627929688 0 45 0 Z" stroke="none" fill="#598384"/>
                  </g>
                </g>
              </g>
            </g>
          </g>
        </g>
      </g>
    </g>
    <g id="asistente-de-ai_3_" data-name="asistente-de-ai (3)" transform="translate(187 9236.053)">
      <g id="Grupo_1155845" data-name="Grupo 1155845" transform="translate(0.837 7.784)">
        <path id="Trazado_993040" data-name="Trazado 993040" d="M49.914,347.944H10.4A2.893,2.893,0,0,1,7.5,345.051V336.09a6.733,6.733,0,0,1,6.733-6.733H43.181a6.733,6.733,0,0,1,6.733,6.733v11.854Z" transform="translate(-7.503 -294.219)" fill="#fee97d"/>
        <path id="Trazado_993041" data-name="Trazado 993041" d="M160.92,282.018H169.1V287.3H160.92Z" transform="translate(-143.802 -252.163)" fill="#ffe5c2"/>
        <path id="Trazado_993042" data-name="Trazado 993042" d="M207.08,282.016H210.1V287.3H207.08Z" transform="translate(-184.811 -252.161)" fill="#fed2a4"/>
        <path id="Trazado_993043" data-name="Trazado 993043" d="M120.178,329.357l-5.431,4.626a1.489,1.489,0,0,1-2.309-.491l-1.978-4.135Z" transform="translate(-98.972 -294.219)" fill="#d9b1ee"/>
        <path id="Trazado_993044" data-name="Trazado 993044" d="M197.553,329.357l5.431,4.626a1.489,1.489,0,0,0,2.309-.491l1.978-4.135Z" transform="translate(-176.347 -294.219)" fill="#cb97e7"/>
        <path id="Trazado_993045" data-name="Trazado 993045" d="M251.154,347.944H226.979l4.1-16.089a3.318,3.318,0,0,1,3.215-2.5h20.837a2.619,2.619,0,0,1,2.537,3.266l-3.262,12.792A3.36,3.36,0,0,1,251.154,347.944Z" transform="translate(-202.49 -294.219)" fill="#8d9ca8"/>
        <path id="Trazado_993046" data-name="Trazado 993046" d="M414.577,332.622l-3.263,12.791a3.36,3.36,0,0,1-3.256,2.53H403.59a3.359,3.359,0,0,0,3.256-2.53l3.263-12.791a2.619,2.619,0,0,0-2.537-3.266h4.469A2.619,2.619,0,0,1,414.577,332.622Z" transform="translate(-359.395 -294.219)" fill="#7a8c98"/>
        <path id="Trazado_993047" data-name="Trazado 993047" d="M133.017,461.593h-9.644a2.157,2.157,0,1,1,0-4.313h10.744Z" transform="translate(-108.528 -407.869)" fill="#7a8c98"/>
        <circle id="Elipse_11863" data-name="Elipse 11863" cx="2.319" cy="2.319" r="2.319" transform="translate(38.65 42.244)" fill="#d8ecfe"/>
        <path id="Trazado_993048" data-name="Trazado 993048" d="M119.718,107.627h-14.28a3.532,3.532,0,0,1-3.532-3.532V89.257a3.532,3.532,0,0,1,3.532-3.532h14.28a3.532,3.532,0,0,1,3.532,3.532v14.837A3.532,3.532,0,0,1,119.718,107.627Z" transform="translate(-91.372 -77.772)" fill="#d9b1ee"/>
        <path id="Trazado_993049" data-name="Trazado 993049" d="M225.66,89.259V104.1a3.532,3.532,0,0,1-3.533,3.533h-4.95a3.461,3.461,0,0,0,3.483-3.533V89.259a3.461,3.461,0,0,0-3.483-3.533h4.95A3.532,3.532,0,0,1,225.66,89.259Z" transform="translate(-193.782 -77.773)" fill="#cb97e7"/>
        <g id="Grupo_1155844" data-name="Grupo 1155844" transform="translate(0 6.519)">
          <circle id="Elipse_11864" data-name="Elipse 11864" cx="1.723" cy="1.723" r="1.723" transform="translate(40.804 21.14)" fill="#60b7ff"/>
          <circle id="Elipse_11865" data-name="Elipse 11865" cx="1.723" cy="1.723" r="1.723" transform="translate(0 10.663)" fill="#60b7ff"/>
          <circle id="Elipse_11866" data-name="Elipse 11866" cx="1.723" cy="1.723" r="1.723" transform="translate(0.988)" fill="#60b7ff"/>
          <circle id="Elipse_11867" data-name="Elipse 11867" cx="1.723" cy="1.723" r="1.723" transform="translate(0.988 21.14)" fill="#60b7ff"/>
        </g>
        <path id="Trazado_993050" data-name="Trazado 993050" d="M352.135,14.446c-4.916,0-8.9,3.482-8.9,7.778a7.836,7.836,0,0,0,5.4,7.153l-.741,2.164a.488.488,0,0,0,.712.576L352.135,30c4.917,0,8.9-3.483,8.9-7.778S357.052,14.446,352.135,14.446Z" transform="translate(-305.772 -14.446)" fill="#d8ecfe"/>
        <path id="Trazado_993051" data-name="Trazado 993051" d="M397.905,22.224c0,4.3-3.986,7.778-8.9,7.778l-3.531,2.114a.488.488,0,0,1-.712-.577l.557-1.627c4.261-.565,7.459-3.767,7.459-7.661a7.981,7.981,0,0,0-6.3-7.488A10.133,10.133,0,0,1,389,14.446C393.92,14.446,397.905,17.928,397.905,22.224Z" transform="translate(-342.64 -14.446)" fill="#c4e2ff"/>
      </g>
      <g id="Grupo_1155847" data-name="Grupo 1155847" transform="translate(0 6.947)">
        <path id="Trazado_993052" data-name="Trazado 993052" d="M53.482,93.986H26.968V90.378h2.215a4.374,4.374,0,0,0,4.369-4.369V84.9h4.974a.778.778,0,0,1,.595.276l2.1,2.486a2.56,2.56,0,1,0,1.326-1.024L40.4,84.1a2.448,2.448,0,0,0-1.872-.868H33.552v-3.8h5.16a.837.837,0,1,0,0-1.674h-5.16V71.171A4.374,4.374,0,0,0,29.183,66.8H14.9a4.374,4.374,0,0,0-4.369,4.369v.919H8.386a.778.778,0,0,1-.595-.276l-2.1-2.486a2.559,2.559,0,1,0-1.326,1.024L6.513,72.9a2.448,2.448,0,0,0,1.872.868h2.148v3.989H4.978a2.559,2.559,0,1,0,0,1.674h5.556v3.8H8.386a2.448,2.448,0,0,0-1.872.868L4.361,86.641a2.564,2.564,0,1,0,1.326,1.024l2.1-2.486a.778.778,0,0,1,.595-.276h2.148v1.105A4.374,4.374,0,0,0,14.9,90.378h2.216v3.608H12.325a.844.844,0,0,0-.755,1.2l1.978,4.135a2.338,2.338,0,0,0,3.606.767l4.888-4.164,4.888,4.163a2.313,2.313,0,0,0,.816.447l-1.971,7.727H15.682A2.992,2.992,0,0,0,13,112.573H3.73a2.058,2.058,0,0,1-2.056-2.055v-8.961a5.9,5.9,0,0,1,5.9-5.9h.838a.837.837,0,0,0,0-1.674H7.571A7.579,7.579,0,0,0,0,101.557v8.961a3.734,3.734,0,0,0,3.73,3.729H49.5a4.194,4.194,0,0,0,4.067-3.16L56.83,98.3a3.475,3.475,0,0,0-3.348-4.31ZM44.25,89.067a.886.886,0,1,1-1.771,0,.9.9,0,0,1,.886-.886A.887.887,0,0,1,44.25,89.067ZM2.662,67.926a.886.886,0,1,1,1.771,0,.9.9,0,0,1-.886.886A.887.887,0,0,1,2.662,67.926Zm-.1,11.549a.886.886,0,1,1,.886-.886A.887.887,0,0,1,2.56,79.475Zm.988,10.477a.886.886,0,0,1,0-1.771.9.9,0,0,1,.886.886A.887.887,0,0,1,3.547,89.953Zm8.66-3.944V71.171a2.7,2.7,0,0,1,2.7-2.7h14.28a2.7,2.7,0,0,1,2.7,2.7V86.008a2.7,2.7,0,0,1-2.7,2.7H14.9a2.7,2.7,0,0,1-2.7-2.7Zm6.585,4.369h6.5v3.608h-6.5Zm-2.723,8.434a.656.656,0,0,1-1.011-.215L13.653,95.66H19.77Zm8.247-3.152h5a4.149,4.149,0,0,0-.693,1.454l-.457,1.791C28.111,98.881,24.316,95.66,24.316,95.66Zm-9.954,15.593a1.321,1.321,0,0,1,1.32-1.32h9.667l-.673,2.64h-9A1.321,1.321,0,0,1,14.362,111.253ZM55.208,97.882l-3.262,12.792a2.522,2.522,0,0,1-2.445,1.9H26.4l3.837-15.045a2.479,2.479,0,0,1,2.4-1.868H53.482a1.792,1.792,0,0,1,1.727,2.222Z" transform="translate(0 -58.848)"/>
        <path id="Trazado_993053" data-name="Trazado 993053" d="M349.544,385.543A3.156,3.156,0,1,0,352.7,388.7,3.16,3.16,0,0,0,349.544,385.543Zm0,4.639a1.483,1.483,0,1,1,1.483-1.483A1.484,1.484,0,0,1,349.544,390.182Z" transform="translate(-307.738 -343.299)"/>
        <path id="Trazado_993054" data-name="Trazado 993054" d="M141.146,142.283l.685,1.815a.837.837,0,1,0,1.566-.591l-3.571-9.461-.009-.023a1.051,1.051,0,0,0-.975-.653h0a1.051,1.051,0,0,0-.975.655l-.007.019-3.6,9.461a.837.837,0,0,0,1.564.6l.692-1.817h4.634Zm-2.306-6.112,1.675,4.438h-3.365Z" transform="translate(-119.219 -119.263)"/>
        <path id="Trazado_993055" data-name="Trazado 993055" d="M234.231,144.64a.837.837,0,0,0,.837-.837v-9.6a.837.837,0,0,0-1.674,0v9.6A.837.837,0,0,0,234.231,144.64Z" transform="translate(-207.352 -119.264)"/>
        <path id="Trazado_993056" data-name="Trazado 993056" d="M340.922,23.183l-.488,1.424a1.332,1.332,0,0,0,1.933,1.566l3.532-2.114a.837.837,0,0,0-.86-1.436l-2.713,1.624.432-1.26a.837.837,0,0,0-.5-1.055,7,7,0,0,1-4.856-6.369c0-3.828,3.618-6.941,8.065-6.941s8.065,3.114,8.065,6.941A6.891,6.891,0,0,1,349,21.8a.837.837,0,1,0,.649,1.543,8.644,8.644,0,0,0,5.556-7.783c0-4.75-4.369-8.615-9.739-8.615s-9.739,3.865-9.739,8.615A8.528,8.528,0,0,0,340.922,23.183Z" transform="translate(-298.27 -6.947)"/>
        <g id="Grupo_1155846" data-name="Grupo 1155846" transform="translate(42.543 7.864)">
          <circle id="Elipse_11868" data-name="Elipse 11868" cx="0.83" cy="0.83" r="0.83"/>
          <circle id="Elipse_11869" data-name="Elipse 11869" cx="0.83" cy="0.83" r="0.83" transform="translate(4.159)"/>
          <circle id="Elipse_11870" data-name="Elipse 11870" cx="0.83" cy="0.83" r="0.83" transform="translate(8.513)"/>
        </g>
      </g>
    </g>
  </g>
</svg>
