<svg xmlns="http://www.w3.org/2000/svg" xmlns:xlink="http://www.w3.org/1999/xlink" width="108" height="108" viewBox="0 0 108 108">
  <defs>
    <filter id="Trazado_982547" x="0" y="0" width="108" height="108" filterUnits="userSpaceOnUse">
      <feOffset dy="3" input="SourceAlpha"/>
      <feGaussianBlur stdDeviation="3" result="blur"/>
      <feFlood flood-opacity="0.161"/>
      <feComposite operator="in" in2="blur"/>
      <feComposite in="SourceGraphic"/>
    </filter>
  </defs>
  <g id="_8" data-name="8" transform="translate(-274 -884)">
    <g id="Grupo_1149835" data-name="Grupo 1149835" transform="translate(0 -3975)">
      <g id="Grupo_1149673" data-name="Grupo 1149673" transform="translate(-52 -2821)">
        <g id="Grupo_1148532" data-name="Grupo 1148532" transform="translate(51 4253)">
          <g id="Grupo_1147065" data-name="Grupo 1147065" transform="translate(-341 -556)">
            <g transform="matrix(1, 0, 0, 1, 616, 3983)" filter="url(#Trazado_982547)">
              <g id="Trazado_982547-2" data-name="Trazado 982547" transform="translate(9 6)" fill="#f6edfd">
                <path d="M 45 88.5 C 39.12687683105469 88.5 33.43022537231445 87.35007476806641 28.06830024719238 85.08217620849609 C 22.88852500915527 82.89131164550781 18.23629951477051 79.75458526611328 14.2408504486084 75.75914764404297 C 10.24541282653809 71.76370239257812 7.108687400817871 67.11147308349609 4.917825222015381 61.93170166015625 C 2.649924993515015 56.56977462768555 1.5 50.87312316894531 1.5 45 C 1.5 39.12687683105469 2.649924993515015 33.43022537231445 4.917825222015381 28.06830024719238 C 7.108687400817871 22.88852500915527 10.24541282653809 18.23629951477051 14.2408504486084 14.2408504486084 C 18.23629951477051 10.24541282653809 22.88852500915527 7.108687400817871 28.06830024719238 4.917825222015381 C 33.43022537231445 2.649924993515015 39.12687683105469 1.5 45 1.5 C 50.87312316894531 1.5 56.56977462768555 2.649924993515015 61.93170166015625 4.917825222015381 C 67.11147308349609 7.108687400817871 71.76370239257812 10.24541282653809 75.75914764404297 14.2408504486084 C 79.75458526611328 18.23629951477051 82.89131164550781 22.88852500915527 85.08217620849609 28.06830024719238 C 87.35007476806641 33.43022537231445 88.5 39.12687683105469 88.5 45 C 88.5 50.87312316894531 87.35007476806641 56.56977462768555 85.08217620849609 61.93170166015625 C 82.89131164550781 67.11147308349609 79.75458526611328 71.76370239257812 75.75914764404297 75.75914764404297 C 71.76370239257812 79.75458526611328 67.11147308349609 82.89131164550781 61.93170166015625 85.08217620849609 C 56.56977462768555 87.35007476806641 50.87312316894531 88.5 45 88.5 Z" stroke="none"/>
                <path d="M 45 3 C 39.32871246337891 3 33.82865524291992 4.110054016113281 28.65262985229492 6.299339294433594 C 23.65165710449219 8.414573669433594 19.15968322753906 11.44334411621094 15.301513671875 15.301513671875 C 11.44334411621094 19.15968322753906 8.414573669433594 23.65165710449219 6.299339294433594 28.65262985229492 C 4.110054016113281 33.82865524291992 3 39.32871246337891 3 45 C 3 50.67128753662109 4.110054016113281 56.17134475708008 6.299339294433594 61.34737396240234 C 8.414573669433594 66.34834289550781 11.44334411621094 70.84031677246094 15.301513671875 74.698486328125 C 19.15968322753906 78.55665588378906 23.65165710449219 81.58542633056641 28.65262985229492 83.70066070556641 C 33.82865524291992 85.88994598388672 39.32871246337891 87 45 87 C 50.67128753662109 87 56.17134475708008 85.88994598388672 61.34737396240234 83.70066070556641 C 66.34834289550781 81.58542633056641 70.84031677246094 78.55665588378906 74.698486328125 74.698486328125 C 78.55665588378906 70.84031677246094 81.58542633056641 66.34834289550781 83.70066070556641 61.34737396240234 C 85.88994598388672 56.17134475708008 87 50.67128753662109 87 45 C 87 39.32871246337891 85.88994598388672 33.82865524291992 83.70066070556641 28.65262985229492 C 81.58542633056641 23.65165710449219 78.55665588378906 19.15968322753906 74.698486328125 15.301513671875 C 70.84031677246094 11.44334411621094 66.34834289550781 8.414573669433594 61.34737396240234 6.299339294433594 C 56.17134475708008 4.110054016113281 50.67128753662109 3 45 3 M 45 0 C 69.85281372070312 0 90 20.14718627929688 90 45 C 90 69.85281372070312 69.85281372070312 90 45 90 C 20.14718627929688 90 0 69.85281372070312 0 45 C 0 20.14718627929688 20.14718627929688 0 45 0 Z" stroke="none" fill="#ac59f1"/>
              </g>
            </g>
          </g>
        </g>
      </g>
    </g>
    <g id="Layer_39" transform="translate(294 897.6)">
      <g id="Grupo_1154900" data-name="Grupo 1154900" transform="translate(0 4.4)">
        <path id="Trazado_991371" data-name="Trazado 991371" d="M76.518,26.461A18.259,18.259,0,0,0,65,58.285a8.569,8.569,0,0,1,2.859,6.407v3.151a3.616,3.616,0,0,0,3.627,3.627H82.925a3.616,3.616,0,0,0,3.627-3.627V64.692a8.542,8.542,0,0,1,2.806-6.354,18.256,18.256,0,0,0-12.84-31.876Z" transform="translate(-43.345 -20.61)" fill="#f5c84c"/>
        <path id="Trazado_991372" data-name="Trazado 991372" d="M115.411,196.306H103.974a3.289,3.289,0,0,1-.874-.106v6.2a4.553,4.553,0,0,0,4.554,4.554h4.077a4.553,4.553,0,0,0,4.554-4.554v-6.2a4.921,4.921,0,0,1-.874.106Z" transform="translate(-75.804 -145.421)" fill="#dae6f1"/>
        <path id="Trazado_991373" data-name="Trazado 991373" d="M118.5,235.229h-4.077a4.486,4.486,0,0,1-2.118-.529v.927a2.893,2.893,0,0,0,2.886,2.886h2.595a2.893,2.893,0,0,0,2.886-2.886V234.7A4.863,4.863,0,0,1,118.5,235.229Z" transform="translate(-82.568 -173.728)" fill="#b598f9"/>
        <path id="Trazado_991374" data-name="Trazado 991374" d="M137.034,69.393a3.926,3.926,0,0,0-3.071-7.175,3.044,3.044,0,0,0-2.092-3.786A3.329,3.329,0,0,0,131,58.3a3.113,3.113,0,0,0-3.1,3.071V77.389A3.113,3.113,0,0,0,131,80.46a3.068,3.068,0,0,0,3.071-3.045,3.329,3.329,0,0,0-.132-.874,3.924,3.924,0,0,0,4.9-2.595A3.854,3.854,0,0,0,137.034,69.393Z" transform="translate(-94.038 -44.03)" fill="#f98fa6"/>
        <path id="Trazado_991375" data-name="Trazado 991375" d="M94.067,58.4A3.068,3.068,0,0,0,91,61.445a3.329,3.329,0,0,0,.132.874,3.912,3.912,0,0,0-3.071,7.148,3.926,3.926,0,0,0,3.071,7.175,3.044,3.044,0,0,0,2.092,3.786,3.329,3.329,0,0,0,.874.132,3.113,3.113,0,0,0,3.1-3.071V61.471A3.136,3.136,0,0,0,94.067,58.4Z" transform="translate(-63.276 -44.103)" fill="#fc657e"/>
        <path id="Trazado_991376" data-name="Trazado 991376" d="M48.607,176.46a2.064,2.064,0,0,1-1.641-1.615c0-.026-.079-.026-.079,0a2.064,2.064,0,0,1-1.641,1.615c-.026,0-.026.053,0,.079a2.064,2.064,0,0,1,1.641,1.615c0,.026.079.026.079,0a2.064,2.064,0,0,1,1.641-1.615C48.634,176.513,48.634,176.46,48.607,176.46Z" transform="translate(-33.252 -129.705)" fill="#87d147"/>
        <path id="Trazado_991377" data-name="Trazado 991377" d="M61.582,5.856h-.635V5.247a.848.848,0,0,0-.821-.847H60.1a.866.866,0,0,0-.847.821v.635h-.609a.848.848,0,0,0-.847.821V6.7a.825.825,0,0,0,.794.847h.662v.609a.848.848,0,0,0,.821.847H60.1a.866.866,0,0,0,.847-.821V7.551h.609A.848.848,0,0,0,62.4,6.73V6.7A.866.866,0,0,0,61.582,5.856Z" transform="translate(-42.494 -4.4)" fill="#70d6f9"/>
        <circle id="Elipse_11817" data-name="Elipse 11817" cx="0.9" cy="0.9" r="0.9" transform="translate(65.976 36.509)" fill="#fc657e"/>
        <circle id="Elipse_11818" data-name="Elipse 11818" cx="0.9" cy="0.9" r="0.9" transform="translate(0 8.843)" fill="#f5c84c"/>
        <path id="Trazado_991378" data-name="Trazado 991378" d="M204.508,172.493a2.938,2.938,0,0,1-2.356-2.3c0-.053-.106-.053-.106,0a2.938,2.938,0,0,1-2.356,2.3c-.053,0-.053.079,0,.106a2.938,2.938,0,0,1,2.356,2.3c0,.053.106.053.106,0a2.938,2.938,0,0,1,2.356-2.3C204.561,172.573,204.561,172.493,204.508,172.493Z" transform="translate(-146.792 -126.267)" fill="#f5c84c"/>
        <path id="Trazado_991379" data-name="Trazado 991379" d="M88.57,29.2A18.93,18.93,0,1,0,62.307,56.473c.159.159.318.291.477.45a7.988,7.988,0,0,1,2.648,5.9v3.151a4.305,4.305,0,0,0,4.289,4.289H81.157a4.305,4.305,0,0,0,4.289-4.289V62.827a7.824,7.824,0,0,1,2.595-5.851,18.935,18.935,0,0,0,1.536-26.74c-.318-.344-.662-.688-1.006-1.033ZM87.167,56a9.23,9.23,0,0,0-3.045,6.831v3.151a2.96,2.96,0,0,1-2.965,2.965H69.72a2.96,2.96,0,0,1-2.965-2.965V62.827a9.256,9.256,0,0,0-3.1-6.884,17.6,17.6,0,1,1,24.86-1.324C88.094,55.1,87.644,55.547,87.167,56Z" transform="translate(-41.55 -18.746)"/>
        <path id="Trazado_991380" data-name="Trazado 991380" d="M114.844,193.786a.708.708,0,0,0-.556-.132,3.285,3.285,0,0,1-.715.079H102.136a3.285,3.285,0,0,1-.715-.079.666.666,0,0,0-.794.477c0,.053-.026.106-.026.159v6.2a5.209,5.209,0,0,0,5.216,5.216h4.077a5.209,5.209,0,0,0,5.216-5.216v-6.2A.682.682,0,0,0,114.844,193.786Zm-1.059,6.7a3.9,3.9,0,0,1-3.892,3.892h-4.077a3.9,3.9,0,0,1-3.892-3.892v-5.427h11.861Z" transform="translate(-73.966 -143.536)"/>
        <path id="Trazado_991381" data-name="Trazado 991381" d="M24.209,65.709l-4.263-2.462a.658.658,0,0,0-.662,1.138l4.263,2.462a.658.658,0,1,0,.662-1.138Z" transform="translate(-13.937 -47.6)"/>
        <path id="Trazado_991382" data-name="Trazado 991382" d="M221.209,116.309l-4.262-2.462a.658.658,0,1,0-.662,1.138l4.262,2.462a.658.658,0,1,0,.662-1.138Z" transform="translate(-158.781 -84.803)"/>
        <path id="Trazado_991383" data-name="Trazado 991383" d="M16.586,93.1H11.662a.662.662,0,1,0,0,1.324h4.924a.655.655,0,0,0,.662-.662A.672.672,0,0,0,16.586,93.1Z" transform="translate(-8.088 -69.617)"/>
        <path id="Trazado_991384" data-name="Trazado 991384" d="M226.986,93.1h-4.924a.662.662,0,1,0,0,1.324h4.924a.662.662,0,1,0,0-1.324Z" transform="translate(-162.784 -69.617)"/>
        <path id="Trazado_991385" data-name="Trazado 991385" d="M24.548,114.085a.653.653,0,0,0-.9-.238l-4.263,2.462a.658.658,0,1,0,.662,1.138l4.263-2.462A.7.7,0,0,0,24.548,114.085Z" transform="translate(-14.011 -84.803)"/>
        <path id="Trazado_991386" data-name="Trazado 991386" d="M221.448,63.485a.653.653,0,0,0-.9-.238l-4.263,2.462a.658.658,0,0,0,.662,1.138l4.263-2.462A.653.653,0,0,0,221.448,63.485Z" transform="translate(-158.781 -47.6)"/>
        <path id="Trazado_991387" data-name="Trazado 991387" d="M118.972,232.214a.659.659,0,0,0-.662-.026,3.966,3.966,0,0,1-1.827.45h-4.077a4.049,4.049,0,0,1-1.827-.45.686.686,0,0,0-.9.265.7.7,0,0,0-.079.318v.927a3.548,3.548,0,0,0,3.548,3.548h2.595a3.548,3.548,0,0,0,3.548-3.548v-.927A.653.653,0,0,0,118.972,232.214Zm-3.2,3.733h-2.595a2.209,2.209,0,0,1-2.224-2.171,5.533,5.533,0,0,0,1.456.212h4.077a5.379,5.379,0,0,0,1.456-.212A2.181,2.181,0,0,1,115.769,235.947Z" transform="translate(-80.583 -171.824)"/>
        <path id="Trazado_991388" data-name="Trazado 991388" d="M115.105,206.8H102.662a.662.662,0,0,0,0,1.324h12.443a.662.662,0,1,0,0-1.324Z" transform="translate(-74.995 -153.214)"/>
        <path id="Trazado_991389" data-name="Trazado 991389" d="M115.105,219.3H102.662a.662.662,0,0,0,0,1.324h12.443a.662.662,0,1,0,0-1.324Z" transform="translate(-74.995 -162.405)"/>
        <g id="Grupo_1154898" data-name="Grupo 1154898" transform="translate(36.873 17.392)">
          <path id="Trazado_991390" data-name="Trazado 991390" d="M140.047,116.58a.659.659,0,1,0-.238,1.3,2.387,2.387,0,0,1,1.959,2.356.662.662,0,1,0,1.324,0,3.67,3.67,0,0,0-3.045-3.654Z" transform="translate(-139.272 -104.267)"/>
          <path id="Trazado_991391" data-name="Trazado 991391" d="M151.843,96.533a.643.643,0,0,0-.927-.079,3.264,3.264,0,0,1-3.415.45.657.657,0,0,0-.556,1.191,4.573,4.573,0,0,0,4.792-.635A.647.647,0,0,0,151.843,96.533Z" transform="translate(-144.634 -89.356)"/>
          <path id="Trazado_991392" data-name="Trazado 991392" d="M144.708,70.677a.678.678,0,0,0-.741-.582,4.674,4.674,0,0,0-3.124,1.827.662.662,0,1,0,1.059.794,3.234,3.234,0,0,1,2.224-1.3A.645.645,0,0,0,144.708,70.677Z" transform="translate(-140.332 -70.092)"/>
        </g>
        <g id="Grupo_1154899" data-name="Grupo 1154899" transform="translate(23.543 17.387)">
          <path id="Trazado_991393" data-name="Trazado 991393" d="M106.111,117.087a.63.63,0,0,0-.768-.53,3.67,3.67,0,0,0-3.045,3.654.662.662,0,1,0,1.324,0,2.387,2.387,0,0,1,1.959-2.356A.7.7,0,0,0,106.111,117.087Z" transform="translate(-98.758 -104.24)"/>
          <path id="Trazado_991394" data-name="Trazado 991394" d="M94.293,97.245a.638.638,0,0,0-.874-.318A3.264,3.264,0,0,1,90,96.477a.658.658,0,0,0-.847,1.006,4.573,4.573,0,0,0,4.792.635A.636.636,0,0,0,94.293,97.245Z" transform="translate(-88.925 -89.375)"/>
          <path id="Trazado_991395" data-name="Trazado 991395" d="M104.047,71.908a4.616,4.616,0,0,0-3.124-1.827.667.667,0,1,0-.159,1.324,3.349,3.349,0,0,1,2.224,1.3.669.669,0,0,0,.927.132A.691.691,0,0,0,104.047,71.908Z" transform="translate(-97.196 -70.075)"/>
        </g>
        <path id="Trazado_991396" data-name="Trazado 991396" d="M136.334,67.629a4.592,4.592,0,0,0-3.071-8,1.748,1.748,0,0,0-.371.026v-.026a3.746,3.746,0,0,0-7.492,0V75.65a3.746,3.746,0,0,0,7.492,0v-.026c.132,0,.238.026.371.026a4.611,4.611,0,0,0,3.071-8.022Zm-3.071,6.645a3.938,3.938,0,0,1-.953-.132.648.648,0,0,0-.821.45.872.872,0,0,0,0,.371,2.422,2.422,0,0,1-4.66,1.324,2.612,2.612,0,0,1-.079-.635V59.633a2.423,2.423,0,0,1,4.845-.026,2.074,2.074,0,0,1-.106.688.669.669,0,0,0,.45.821.872.872,0,0,0,.371,0,3.259,3.259,0,0,1,2.542,5.957.653.653,0,0,0-.238.9.519.519,0,0,0,.238.238,3.221,3.221,0,0,1,1.218,4.421A3.1,3.1,0,0,1,133.263,74.274Z" transform="translate(-92.2 -42.265)"/>
        <path id="Trazado_991397" data-name="Trazado 991397" d="M92.184,55.9a3.729,3.729,0,0,0-3.733,3.733v.026c-.132,0-.238-.026-.371-.026a4.576,4.576,0,0,0-3.045,8,4.592,4.592,0,0,0,3.071,8,1.748,1.748,0,0,0,.371-.026v.026a3.746,3.746,0,0,0,7.492,0V59.633A3.774,3.774,0,0,0,92.184,55.9ZM94.62,75.624a2.423,2.423,0,1,1-4.845.026,2.074,2.074,0,0,1,.106-.688.669.669,0,0,0-.45-.821.873.873,0,0,0-.371,0,3.259,3.259,0,0,1-2.542-5.957.653.653,0,0,0,.238-.9.52.52,0,0,0-.238-.238,3.251,3.251,0,0,1,2.568-5.93.648.648,0,0,0,.821-.45.873.873,0,0,0,0-.371,2.422,2.422,0,1,1,4.66-1.324,2.611,2.611,0,0,1,.079.635V75.624Z" transform="translate(-61.393 -42.265)"/>
      </g>
    </g>
  </g>
</svg>
