<svg xmlns="http://www.w3.org/2000/svg" xmlns:xlink="http://www.w3.org/1999/xlink" width="110" height="110" viewBox="0 0 110 110">
  <defs>
    <filter id="Trazado_982547" x="0" y="0" width="110" height="110" filterUnits="userSpaceOnUse">
      <feOffset dy="3" input="SourceAlpha"/>
      <feGaussianBlur stdDeviation="3" result="blur"/>
      <feFlood flood-opacity="0.161"/>
      <feComposite operator="in" in2="blur"/>
      <feComposite in="SourceGraphic"/>
    </filter>
  </defs>
  <g id="_47" data-name="47" transform="translate(-6973 -4676)">
    <g id="Grupo_1154730" data-name="Grupo 1154730" transform="translate(6172 1458)">
      <g id="Grupo_1150789" data-name="Grupo 1150789" transform="translate(3 2320)">
        <g id="Grupo_1154212" data-name="Grupo 1154212" transform="translate(-236 -5809)">
          <g id="Grupo_1152583" data-name="Grupo 1152583" transform="translate(1043 6713)">
            <g id="Grupo_1146973" data-name="Grupo 1146973" transform="translate(0 0)">
              <g id="Grupo_1146954" data-name="Grupo 1146954">
                <g transform="matrix(1, 0, 0, 1, -9, -6)" filter="url(#Trazado_982547)">
                  <g id="Trazado_982547-2" data-name="Trazado 982547" transform="translate(9 6)" fill="#f6edfd">
                    <path d="M 46 90.49987030029297 C 39.99187850952148 90.49987030029297 34.16426849365234 89.32350921630859 28.67905426025391 87.00345611572266 C 23.38019943237305 84.76224517822266 18.62104034423828 81.55341339111328 14.53374671936035 77.46613311767578 C 10.44646644592285 73.37885284423828 7.237639904022217 68.61969757080078 4.996413230895996 63.32085418701172 C 2.676359891891479 57.83565521240234 1.5 52.008056640625 1.5 45.99993515014648 C 1.5 39.99181365966797 2.676359891891479 34.16421508789062 4.996413230895996 28.67901420593262 C 7.237639904022217 23.38017463684082 10.44646644592285 18.62101554870605 14.53374671936035 14.53373527526855 C 18.62104034423828 10.44645500183105 23.38019943237305 7.23762845993042 28.67905426025391 4.996415138244629 C 34.16426849365234 2.676361799240112 39.99187850952148 1.500001788139343 46 1.500001788139343 C 52.00812149047852 1.500001788139343 57.83573150634766 2.676361799240112 63.32094573974609 4.996415138244629 C 68.61979675292969 7.23762845993042 73.37895965576172 10.44645500183105 77.46625518798828 14.53373527526855 C 81.55353546142578 18.62101554870605 84.76235961914062 23.38017463684082 87.00358581542969 28.67901420593262 C 89.32363891601562 34.16421508789062 90.5 39.99181365966797 90.5 45.99993515014648 C 90.5 52.008056640625 89.32363891601562 57.83565521240234 87.00358581542969 63.32085418701172 C 84.76235961914062 68.61969757080078 81.55353546142578 73.37885284423828 77.46625518798828 77.46613311767578 C 73.37895965576172 81.55341339111328 68.61979675292969 84.76224517822266 63.32094573974609 87.00345611572266 C 57.83573150634766 89.32350921630859 52.00812149047852 90.49987030029297 46 90.49987030029297 Z" stroke="none"/>
                    <path d="M 46 2.999992370605469 C 40.1937141418457 2.999992370605469 34.56269836425781 4.136489868164062 29.26337051391602 6.377906799316406 C 24.14332580566406 8.543502807617188 19.54441070556641 11.64437866210938 15.59439849853516 15.59437561035156 C 11.64440155029297 19.54439544677734 8.54351806640625 24.14329528808594 6.377914428710938 29.26333618164062 C 4.136497497558594 34.56264877319336 3 40.19366455078125 3 45.99993515014648 C 3 51.80620574951172 4.136497497558594 57.43720626831055 6.377914428710938 62.73651885986328 C 8.54351806640625 67.8565673828125 11.64440155029297 72.45545959472656 15.59439849853516 76.40547943115234 C 19.54441070556641 80.35547637939453 24.14332580566406 83.45635223388672 29.26337051391602 85.6219482421875 C 34.56269836425781 87.86336517333984 40.1937141418457 88.99986267089844 46 88.99986267089844 C 51.8062858581543 88.99986267089844 57.43730163574219 87.86336517333984 62.73661422729492 85.6219482421875 C 67.85667419433594 83.45635223388672 72.45557403564453 80.35547637939453 76.40558624267578 76.40547943115234 C 80.35559844970703 72.45545959472656 83.45647430419922 67.8565673828125 85.6220703125 62.73651885986328 C 87.86350250244141 57.43720626831055 89 51.80620574951172 89 45.99993515014648 C 89 40.19366455078125 87.86350250244141 34.56264877319336 85.6220703125 29.26333618164062 C 83.45647430419922 24.14329528808594 80.35559844970703 19.54439544677734 76.40558624267578 15.59437561035156 C 72.45557403564453 11.64437866210938 67.85667419433594 8.543502807617188 62.73661422729492 6.377906799316406 C 57.43730163574219 4.136489868164062 51.8062858581543 2.999992370605469 46 2.999992370605469 M 46 -7.62939453125e-06 C 71.40509033203125 -7.62939453125e-06 92 20.59486389160156 92 45.99993515014648 C 92 71.40499114990234 71.40509033203125 91.99986267089844 46 91.99986267089844 C 20.59490203857422 91.99986267089844 0 71.40499114990234 0 45.99993515014648 C 0 20.59486389160156 20.59490203857422 -7.62939453125e-06 46 -7.62939453125e-06 Z" stroke="none" fill="#ac59f1"/>
                  </g>
                </g>
              </g>
            </g>
          </g>
        </g>
      </g>
    </g>
    <g id="FILLED_OUTLINE" transform="translate(6982.707 4681.901)">
      <path id="Trazado_992815" data-name="Trazado 992815" d="M166.176,118.144v-3.056a3.088,3.088,0,0,0-6.176,0v3.056a3.088,3.088,0,0,0,1.941,2.867l1.147.459,1.147-.459A3.088,3.088,0,0,0,166.176,118.144Z" transform="translate(-126.96 -84.434)" fill="#bebebe"/>
      <path id="Trazado_992816" data-name="Trazado 992816" d="M135.94,185.894l-.735-.294-.735.294a10.293,10.293,0,0,0-6.47,9.557v3.324h14.411v-3.324a10.293,10.293,0,0,0-6.47-9.557Z" transform="translate(-99.077 -148.564)" fill="#bebebe"/>
      <path id="Trazado_992817" data-name="Trazado 992817" d="M62.344,42.233l2.829-1.5-1.642-5-3.174.433-2.8-3.807,1.413-2.886-4.3-3.089-2.338,2.219-4.524-1.454L47.242,24H41.931l-.572,3.155-4.524,1.454L34.5,26.39l-4.3,3.089,1.413,2.886-2.8,3.807-3.174-.433-1.642,5,2.829,1.5V46.94L24,48.437l1.642,5L28.816,53l2.8,3.807L30.2,59.694l4.3,3.089,2.338-2.219,4.524,1.454.572,3.155h5.312l.572-3.155,4.524-1.454-1.922-3.93a13.367,13.367,0,1,1,6.929-8l3.647,4.458,2.538.346,1.642-5-2.829-1.5C62.344,44.808,62.344,44.365,62.344,42.233Z" transform="translate(-8.458 -7.756)" fill="#006cda"/>
      <path id="Trazado_992818" data-name="Trazado 992818" d="M326.176,292.359v-1.271a3.088,3.088,0,1,0-6.176,0v1.271a3.088,3.088,0,0,0,1.588,2.7l1.5.833,1.5-.833a3.088,3.088,0,0,0,1.588-2.7Z" transform="translate(-266.373 -237.788)" fill="#bebebe"/>
      <path id="Trazado_992819" data-name="Trazado 992819" d="M305.175,351l-3-1.666-3,1.666A6.176,6.176,0,0,0,296,356.4V361h12.352v-4.6a6.176,6.176,0,0,0-3.177-5.4Z" transform="translate(-245.461 -291.23)" fill="#bebebe"/>
      <path id="Trazado_992820" data-name="Trazado 992820" d="M237.056,220.918v-4.78l-2.84-.515-1.309-4.072,2-2.1-2.78-3.867-2.6,1.272-3.426-2.517.39-2.856-4.5-1.478-1.348,2.546H216.41L215.062,200l-4.5,1.478.39,2.856-3.426,2.518-2.6-1.272-2.78,3.867,2,2.1-1.309,4.072-2.84.515v4.78l2.84.515,1.309,4.072-2,2.1,2.78,3.867,2.6-1.272,3.426,2.518-.39,2.856,4.5,1.478,1.348-2.546h4.236l1.348,2.546,4.5-1.478-.39-2.856,3.426-2.518,2.6,1.272,2.78-3.867-2-2.1,1.309-4.072Zm-18.528,8.932a11.323,11.323,0,1,1,11.323-11.323,11.323,11.323,0,0,1-11.323,11.323Z" transform="translate(-161.813 -161.111)" fill="#008afe"/>
      <path id="Trazado_992821" data-name="Trazado 992821" d="M337.515,38.624,328.8,24.1a2.059,2.059,0,0,0-3.531,0l-8.716,14.527a2.059,2.059,0,0,0,1.765,3.118h17.432a2.059,2.059,0,0,0,1.765-3.118Z" transform="translate(-263.113 -6.97)" fill="#f4c44d"/>
      <rect id="Rectángulo_409713" data-name="Rectángulo 409713" width="2.059" height="7.205" transform="translate(62.891 20.361)" fill="#f4f4f4"/>
      <rect id="Rectángulo_409714" data-name="Rectángulo 409714" width="2.059" height="2.059" transform="translate(62.891 29.625)" fill="#f4f4f4"/>
      <path id="Trazado_992822" data-name="Trazado 992822" d="M88.211,351.768A25.765,25.765,0,0,1,78.2,341.273l1.829-.945a23.71,23.71,0,0,0,9.211,9.658Z" transform="translate(-55.686 -283.384)" fill="#dfdfdf"/>
      <path id="Trazado_992823" data-name="Trazado 992823" d="M175.881,426.413a25.664,25.664,0,0,1-3.217-1.222l.859-1.871a23.589,23.589,0,0,0,2.958,1.123Z" transform="translate(-137.993 -355.697)" fill="#dfdfdf"/>
      <path id="Trazado_992824" data-name="Trazado 992824" d="M17.767,282.586a30.893,30.893,0,0,1-.5-3.195l2.048-.211a28.887,28.887,0,0,0,.465,2.981Z" transform="translate(-2.593 -230.104)" fill="#dfdfdf"/>
      <path id="Trazado_992825" data-name="Trazado 992825" d="M54.94,340.726a30.6,30.6,0,0,1-18.746-6.339A31.1,31.1,0,0,1,25.25,318.364l1.979-.567a29.029,29.029,0,0,0,10.215,14.954,28.555,28.555,0,0,0,17.5,5.916Z" transform="translate(-9.547 -263.752)" fill="#dfdfdf"/>
      <path id="Trazado_992826" data-name="Trazado 992826" d="M260.352,248A12.352,12.352,0,1,0,272.7,260.352,12.352,12.352,0,0,0,260.352,248Zm-5.147,21.26V268.1a5.15,5.15,0,0,1,2.647-4.5l2.5-1.389,2.5,1.389a5.15,5.15,0,0,1,2.647,4.5v1.157A10.256,10.256,0,0,1,255.205,269.26Zm3.088-11.755v-1.271a2.059,2.059,0,0,1,4.117,0v1.271a2.06,2.06,0,0,1-1.059,1.8l-1,.555-1-.555a2.06,2.06,0,0,1-1.059-1.8Zm9.252,10.2a7.209,7.209,0,0,0-3.694-5.9l-1.382-.768a4.12,4.12,0,0,0,2-3.531v-1.271a4.117,4.117,0,0,0-8.235,0v1.271a4.12,4.12,0,0,0,2,3.531l-1.382.768a7.209,7.209,0,0,0-3.694,5.9,10.293,10.293,0,1,1,14.387,0Z" transform="translate(-203.637 -202.935)"/>
      <path id="Trazado_992827" data-name="Trazado 992827" d="M308.622,34.235a3.053,3.053,0,0,0,2.687,1.567h17.432a3.088,3.088,0,0,0,2.648-4.677L322.673,16.6a3.088,3.088,0,0,0-5.3,0l-8.716,14.527a3.053,3.053,0,0,0-.039,3.11Zm1.8-2.051,8.716-14.527h0a1.029,1.029,0,0,1,1.765,0l8.716,14.527a1.029,1.029,0,0,1-.883,1.559H311.309a1.029,1.029,0,0,1-.883-1.559Z" transform="translate(-256.105)"/>
      <rect id="Rectángulo_409715" data-name="Rectángulo 409715" width="2.059" height="7.205" transform="translate(62.891 20.361)"/>
      <rect id="Rectángulo_409716" data-name="Rectángulo 409716" width="2.059" height="2.059" transform="translate(62.891 29.625)"/>
      <path id="Trazado_992828" data-name="Trazado 992828" d="M76.272,61.452v-6.5l-3.078-.558-.933-2.9,2.164-2.279L70.64,43.948l-2.819,1.38L65.39,43.541l.423-3.1-6.137-2.016-1.464,2.766h-3l-1.464-2.766-3.341,1.1a14.4,14.4,0,1,0-9.506,11.691l.263.277-.933,2.9-3.078.558v2.22H34.332L33.8,54.256l-5.693-1.83-2.163,2.053-2.9-2.084,1.3-2.665-3.529-4.8-2.931.4-1.1-3.357,2.61-1.381V34.643l-2.61-1.381,1.1-3.357,2.931.4,3.529-4.8-1.3-2.665,2.9-2.084,2.163,2.053,5.693-1.83.529-2.917h3.593l.529,2.917,5.693,1.83,2.163-2.053,2.9,2.084L47.9,25.5l2.856,3.887,1.659-1.219L50.3,25.287l1.521-3.107-5.694-4.094-2.514,2.386-3.355-1.079L39.644,16h-7.03L32,19.393l-3.355,1.079-2.513-2.385L20.435,22.18l1.521,3.107L19.89,28.1l-3.417-.466-2.181,6.636,3.049,1.614v3.467l-3.049,1.614L16.474,47.6l3.417-.467,2.066,2.812-1.521,3.107,5.694,4.094,2.513-2.386L32,55.838l.616,3.393h4.544v2.22l3.078.558.933,2.9-2.164,2.279,3.785,5.264,2.818-1.38,2.431,1.786-.423,3.1,6.137,2.016,1.464-2.766h3l1.464,2.766,6.137-2.016-.423-3.1,2.431-1.786,2.818,1.38,3.785-5.264-2.164-2.279.933-2.9Zm-52.5-23.836A12.352,12.352,0,1,1,48.2,40.251l-.581.191.423,3.1-2.431,1.786-1.7-.832a11.227,11.227,0,0,0-5.321-6.7,4.1,4.1,0,0,0,1.657-3.3V31.44a4.117,4.117,0,1,0-8.235,0V34.5a4.1,4.1,0,0,0,1.657,3.3,11.249,11.249,0,0,0-5.744,9.041A12.324,12.324,0,0,1,23.777,37.616ZM38.187,31.44V34.5a2.049,2.049,0,0,1-1.294,1.911l-.764.306-.765-.306A2.049,2.049,0,0,1,34.07,34.5V31.44a2.059,2.059,0,1,1,4.117,0ZM36.128,49.968a12.276,12.276,0,0,1-6.176-1.658v-.637a9.219,9.219,0,0,1,5.823-8.6l.352-.141.353.141a9.2,9.2,0,0,1,5.466,6.049l-2.942,4.092.321.338A12.342,12.342,0,0,1,36.128,49.968Zm35.63,17.406-1.775,2.469L67.607,68.68l-4.422,3.249.357,2.613-2.858.939-1.231-2.327H53.977l-1.231,2.327-2.858-.939.357-2.613L45.823,68.68l-2.376,1.164-1.775-2.469L43.5,65.445,41.818,60.2l-2.6-.472V56.671l2.6-.472,1.684-5.24L41.671,49.03l1.775-2.47,2.376,1.164,4.422-3.249-.357-2.613,2.858-.939,1.231,2.327h5.475l1.231-2.327,2.858.939-.357,2.613,4.422,3.249,2.376-1.164,1.775,2.469-1.831,1.929,1.684,5.24,2.6.472v3.062l-2.6.472-1.685,5.24Z" transform="translate(0 -0.785)"/>
      <path id="Trazado_992829" data-name="Trazado 992829" d="M88.211,351.768l1.031-1.782a23.71,23.71,0,0,1-9.211-9.658l-1.829.945a25.765,25.765,0,0,0,10.009,10.495Z" transform="translate(-55.686 -283.384)"/>
      <path id="Trazado_992830" data-name="Trazado 992830" d="M173.522,423.32l-.859,1.871a25.663,25.663,0,0,0,3.217,1.222l.6-1.969A23.584,23.584,0,0,1,173.522,423.32Z" transform="translate(-137.993 -355.697)"/>
      <path id="Trazado_992831" data-name="Trazado 992831" d="M19.316,279.182l-2.048.211a30.891,30.891,0,0,0,.5,3.195l2.014-.424a28.884,28.884,0,0,1-.465-2.981Z" transform="translate(-2.593 -230.105)"/>
      <path id="Trazado_992832" data-name="Trazado 992832" d="M27.229,317.8l-1.979.567a31.1,31.1,0,0,0,10.943,16.022,30.6,30.6,0,0,0,18.746,6.339v-2.059a28.555,28.555,0,0,1-17.5-5.916A29.029,29.029,0,0,1,27.229,317.8Z" transform="translate(-9.547 -263.752)"/>
    </g>
  </g>
</svg>
