<svg xmlns="http://www.w3.org/2000/svg" xmlns:xlink="http://www.w3.org/1999/xlink" width="108" height="108" viewBox="0 0 108 108">
  <defs>
    <filter id="Trazado_982547" x="0" y="0" width="108" height="108" filterUnits="userSpaceOnUse">
      <feOffset dy="3" input="SourceAlpha"/>
      <feGaussianBlur stdDeviation="3" result="blur"/>
      <feFlood flood-opacity="0.161"/>
      <feComposite operator="in" in2="blur"/>
      <feComposite in="SourceGraphic"/>
    </filter>
  </defs>
  <g id="_10" data-name="10" transform="translate(-903 -884)">
    <g id="Grupo_1149837" data-name="Grupo 1149837" transform="translate(0 -3975)">
      <g id="Grupo_1149675" data-name="Grupo 1149675" transform="translate(157 -2821)">
        <g id="Grupo_1148534" data-name="Grupo 1148534" transform="translate(156 4253)">
          <g id="Grupo_1147066" data-name="Grupo 1147066" transform="translate(-26 -556)">
            <g transform="matrix(1, 0, 0, 1, 616, 3983)" filter="url(#Trazado_982547)">
              <g id="Trazado_982547-2" data-name="Trazado 982547" transform="translate(9 6)" fill="#f6edfd">
                <path d="M 45 88.5 C 39.12687683105469 88.5 33.43022537231445 87.35007476806641 28.06830024719238 85.08217620849609 C 22.88852500915527 82.89131164550781 18.23629951477051 79.75458526611328 14.2408504486084 75.75914764404297 C 10.24541282653809 71.76370239257812 7.108687400817871 67.11147308349609 4.917825222015381 61.93170166015625 C 2.649924993515015 56.56977462768555 1.5 50.87312316894531 1.5 45 C 1.5 39.12687683105469 2.649924993515015 33.43022537231445 4.917825222015381 28.06830024719238 C 7.108687400817871 22.88852500915527 10.24541282653809 18.23629951477051 14.2408504486084 14.2408504486084 C 18.23629951477051 10.24541282653809 22.88852500915527 7.108687400817871 28.06830024719238 4.917825222015381 C 33.43022537231445 2.649924993515015 39.12687683105469 1.5 45 1.5 C 50.87312316894531 1.5 56.56977462768555 2.649924993515015 61.93170166015625 4.917825222015381 C 67.11147308349609 7.108687400817871 71.76370239257812 10.24541282653809 75.75914764404297 14.2408504486084 C 79.75458526611328 18.23629951477051 82.89131164550781 22.88852500915527 85.08217620849609 28.06830024719238 C 87.35007476806641 33.43022537231445 88.5 39.12687683105469 88.5 45 C 88.5 50.87312316894531 87.35007476806641 56.56977462768555 85.08217620849609 61.93170166015625 C 82.89131164550781 67.11147308349609 79.75458526611328 71.76370239257812 75.75914764404297 75.75914764404297 C 71.76370239257812 79.75458526611328 67.11147308349609 82.89131164550781 61.93170166015625 85.08217620849609 C 56.56977462768555 87.35007476806641 50.87312316894531 88.5 45 88.5 Z" stroke="none"/>
                <path d="M 45 3 C 39.32871246337891 3 33.82865524291992 4.110054016113281 28.65262985229492 6.299339294433594 C 23.65165710449219 8.414573669433594 19.15968322753906 11.44334411621094 15.301513671875 15.301513671875 C 11.44334411621094 19.15968322753906 8.414573669433594 23.65165710449219 6.299339294433594 28.65262985229492 C 4.110054016113281 33.82865524291992 3 39.32871246337891 3 45 C 3 50.67128753662109 4.110054016113281 56.17134475708008 6.299339294433594 61.34737396240234 C 8.414573669433594 66.34834289550781 11.44334411621094 70.84031677246094 15.301513671875 74.698486328125 C 19.15968322753906 78.55665588378906 23.65165710449219 81.58542633056641 28.65262985229492 83.70066070556641 C 33.82865524291992 85.88994598388672 39.32871246337891 87 45 87 C 50.67128753662109 87 56.17134475708008 85.88994598388672 61.34737396240234 83.70066070556641 C 66.34834289550781 81.58542633056641 70.84031677246094 78.55665588378906 74.698486328125 74.698486328125 C 78.55665588378906 70.84031677246094 81.58542633056641 66.34834289550781 83.70066070556641 61.34737396240234 C 85.88994598388672 56.17134475708008 87 50.67128753662109 87 45 C 87 39.32871246337891 85.88994598388672 33.82865524291992 83.70066070556641 28.65262985229492 C 81.58542633056641 23.65165710449219 78.55665588378906 19.15968322753906 74.698486328125 15.301513671875 C 70.84031677246094 11.44334411621094 66.34834289550781 8.414573669433594 61.34737396240234 6.299339294433594 C 56.17134475708008 4.110054016113281 50.67128753662109 3 45 3 M 45 0 C 69.85281372070312 0 90 20.14718627929688 90 45 C 90 69.85281372070312 69.85281372070312 90 45 90 C 20.14718627929688 90 0 69.85281372070312 0 45 C 0 20.14718627929688 20.14718627929688 0 45 0 Z" stroke="none" fill="#ac59f1"/>
              </g>
            </g>
          </g>
        </g>
      </g>
    </g>
    <g id="resultados-de-la-prueba" transform="translate(926.114 904.114)">
      <path id="Trazado_991432" data-name="Trazado 991432" d="M46.67,64.639a.641.641,0,0,1-.639.639H39.639a.639.639,0,0,1,0-1.278h6.392A.641.641,0,0,1,46.67,64.639Z" transform="translate(-12.268 -21.289)"/>
      <path id="Trazado_991433" data-name="Trazado 991433" d="M52.937,8.2H44.571A3.839,3.839,0,0,0,40.793,5H20.34a3.839,3.839,0,0,0-3.777,3.2H8.835A3.838,3.838,0,0,0,5,12.031V43.989a3.838,3.838,0,0,0,3.835,3.835H24.916l-2.537,4.212a.673.673,0,0,0-.089.262H18.742a2.237,2.237,0,0,0,0,4.474H42.391a2.237,2.237,0,0,0,0-4.474H39.438a.573.573,0,0,0-.083-.262l-2.537-4.212h16.12a3.838,3.838,0,0,0,3.835-3.835V12.031A3.838,3.838,0,0,0,52.937,8.2Zm-35.154.639A2.556,2.556,0,0,1,20.34,6.278H40.793A2.556,2.556,0,0,1,43.35,8.835V38.876H17.783Zm-11.5,3.2A2.556,2.556,0,0,1,8.835,9.474H16.5v29.4H6.278ZM42.391,53.576a.959.959,0,1,1,0,1.917H18.742a.959.959,0,1,1,0-1.917ZM38.019,52.3H23.708l2.7-4.474h8.91Zm17.475-8.309a2.556,2.556,0,0,1-2.557,2.557H8.835a2.556,2.556,0,0,1-2.557-2.557V40.154H55.494Zm0-5.113H44.628V9.474h8.309a2.556,2.556,0,0,1,2.557,2.557Z"/>
      <path id="Trazado_991434" data-name="Trazado 991434" d="M48.01,7H27.557A2.556,2.556,0,0,0,25,9.557V39.6H50.567V9.557A2.556,2.556,0,0,0,48.01,7ZM37.783,11.474h7.031a.639.639,0,1,1,0,1.278H37.783a.639.639,0,0,1,0-1.278ZM31.392,9.9a.639.639,0,1,1,0,1.278,2.218,2.218,0,1,0,2.218,2.218.639.639,0,1,1,1.278,0,3.5,3.5,0,1,1-3.5-3.5Zm0,10.227a.639.639,0,1,1,0,1.278,2.218,2.218,0,1,0,2.218,2.218.639.639,0,1,1,1.278,0,3.5,3.5,0,1,1-3.5-3.5Zm0,16.58a3.5,3.5,0,0,1,0-6.992.639.639,0,1,1,0,1.278,2.218,2.218,0,1,0,2.218,2.218.639.639,0,1,1,1.278,0A3.5,3.5,0,0,1,31.392,36.7Zm3.822-5.9L31.96,34.056a.639.639,0,0,1-.454.192.65.65,0,0,1-.454-.192l-1.1-1.1a.637.637,0,1,1,.9-.9l.652.646,2.806-2.806a.637.637,0,0,1,.9,0,.644.644,0,0,1,0,.908Zm0-9.587L31.96,24.468a.633.633,0,0,1-.908,0l-1.1-1.1a.637.637,0,1,1,.9-.9l.652.646,2.806-2.806a.637.637,0,0,1,.9,0,.644.644,0,0,1,0,.908Zm0-10.227L31.96,14.242a.634.634,0,0,1-.454.192l-1.553-1.291a.637.637,0,1,1,.9-.9l.652.646,2.806-2.806a.637.637,0,0,1,.9,0A.644.644,0,0,1,35.214,10.988ZM46.732,35.762H37.783a.639.639,0,0,1,0-1.278h8.948a.639.639,0,1,1,0,1.278Zm-9.587-3.835a.641.641,0,0,1,.639-.639h7.031a.639.639,0,1,1,0,1.278H37.783A.641.641,0,0,1,37.144,31.927Zm9.587-5.752H37.783a.639.639,0,0,1,0-1.278h8.948a.639.639,0,1,1,0,1.278ZM37.144,22.34a.641.641,0,0,1,.639-.639h7.031a.639.639,0,1,1,0,1.278H37.783A.641.641,0,0,1,37.144,22.34Zm9.587-6.392H37.783a.639.639,0,0,1,0-1.278h8.948a.639.639,0,1,1,0,1.278Z" transform="translate(-7.217 -0.722)" fill="#ffcd38"/>
      <path id="Trazado_991435" data-name="Trazado 991435" d="M50.567,81.959a.957.957,0,0,1-.959.959H25.959a.959.959,0,1,1,0-1.917H49.608A.957.957,0,0,1,50.567,81.959Z" transform="translate(-7.217 -27.424)" fill="#752dc9"/>
      <path id="Trazado_991436" data-name="Trazado 991436" d="M7,60v3.835a2.556,2.556,0,0,0,2.557,2.557h44.1a2.556,2.556,0,0,0,2.557-2.557V60Zm27.484,3.835H28.092a.639.639,0,1,1,0-1.278h6.392a.639.639,0,1,1,0,1.278Z" transform="translate(-0.722 -19.846)" fill="#752dc9"/>
      <g id="Grupo_1154905" data-name="Grupo 1154905" transform="translate(6.278 9.474)">
        <path id="Trazado_991437" data-name="Trazado 991437" d="M48.581,76.474H34.27L36.974,72h8.91Z" transform="translate(-16.84 -33.65)" fill="#541690"/>
        <path id="Trazado_991438" data-name="Trazado 991438" d="M17.227,12V41.4H7V14.557A2.556,2.556,0,0,1,9.557,12Z" transform="translate(-7 -12)" fill="#541690"/>
        <path id="Trazado_991439" data-name="Trazado 991439" d="M77.866,14.557V41.4H67V12h8.309A2.556,2.556,0,0,1,77.866,14.557Z" transform="translate(-28.65 -12)" fill="#541690"/>
      </g>
      <path id="Trazado_991440" data-name="Trazado 991440" d="M36.522,15.026a3.5,3.5,0,1,1-3.5-3.5.639.639,0,1,1,0,1.278,2.218,2.218,0,1,0,2.218,2.218.639.639,0,1,1,1.278,0Z" transform="translate(-8.851 -2.356)"/>
      <path id="Trazado_991441" data-name="Trazado 991441" d="M37.9,12.622l-3.253,3.253a.634.634,0,0,1-.454.192l-1.553-1.291a.637.637,0,0,1,.9-.9l.652.646L37,11.714a.637.637,0,0,1,.9,0A.644.644,0,0,1,37.9,12.622Z" transform="translate(-9.908 -2.355)"/>
      <path id="Trazado_991442" data-name="Trazado 991442" d="M52.309,14.639a.641.641,0,0,1-.639.639H44.639a.639.639,0,0,1,0-1.278H51.67A.641.641,0,0,1,52.309,14.639Z" transform="translate(-14.073 -3.248)"/>
      <path id="Trazado_991443" data-name="Trazado 991443" d="M54.227,19.639a.641.641,0,0,1-.639.639H44.639a.639.639,0,0,1,0-1.278h8.948A.641.641,0,0,1,54.227,19.639Z" transform="translate(-14.073 -5.052)"/>
      <path id="Trazado_991444" data-name="Trazado 991444" d="M36.522,31.026a3.5,3.5,0,1,1-3.5-3.5.639.639,0,1,1,0,1.278,2.218,2.218,0,1,0,2.218,2.218.639.639,0,1,1,1.278,0Z" transform="translate(-8.851 -8.13)"/>
      <path id="Trazado_991445" data-name="Trazado 991445" d="M37.9,28.622l-3.253,3.253a.633.633,0,0,1-.908,0l-1.1-1.1a.637.637,0,0,1,.9-.9l.652.646L37,27.714a.637.637,0,0,1,.9,0A.644.644,0,0,1,37.9,28.622Z" transform="translate(-9.908 -8.129)"/>
      <path id="Trazado_991446" data-name="Trazado 991446" d="M52.309,30.639a.641.641,0,0,1-.639.639H44.639a.639.639,0,0,1,0-1.278H51.67A.641.641,0,0,1,52.309,30.639Z" transform="translate(-14.073 -9.021)"/>
      <path id="Trazado_991447" data-name="Trazado 991447" d="M54.227,35.639a.641.641,0,0,1-.639.639H44.639a.639.639,0,0,1,0-1.278h8.948A.641.641,0,0,1,54.227,35.639Z" transform="translate(-14.073 -10.825)"/>
      <path id="Trazado_991448" data-name="Trazado 991448" d="M36.522,46.026a3.5,3.5,0,1,1-3.5-3.5.639.639,0,1,1,0,1.278,2.218,2.218,0,1,0,2.218,2.218.639.639,0,1,1,1.278,0Z" transform="translate(-8.851 -13.542)"/>
      <path id="Trazado_991449" data-name="Trazado 991449" d="M37.9,43.622l-3.253,3.253a.639.639,0,0,1-.454.192.65.65,0,0,1-.454-.192l-1.1-1.1a.637.637,0,0,1,.9-.9l.652.646L37,42.714a.637.637,0,0,1,.9,0,.644.644,0,0,1,0,.908Z" transform="translate(-9.908 -13.541)"/>
      <path id="Trazado_991450" data-name="Trazado 991450" d="M52.309,45.639a.641.641,0,0,1-.639.639H44.639a.639.639,0,0,1,0-1.278H51.67A.641.641,0,0,1,52.309,45.639Z" transform="translate(-14.073 -14.433)"/>
      <path id="Trazado_991451" data-name="Trazado 991451" d="M54.227,50.639a.641.641,0,0,1-.639.639H44.639a.639.639,0,0,1,0-1.278h8.948A.641.641,0,0,1,54.227,50.639Z" transform="translate(-14.073 -16.238)"/>
    </g>
  </g>
</svg>
