<svg xmlns="http://www.w3.org/2000/svg" xmlns:xlink="http://www.w3.org/1999/xlink" width="108" height="108" viewBox="0 0 108 108">
  <defs>
    <filter id="Trazado_982547" x="0" y="0" width="108" height="108" filterUnits="userSpaceOnUse">
      <feOffset dy="3" input="SourceAlpha"/>
      <feGaussianBlur stdDeviation="3" result="blur"/>
      <feFlood flood-opacity="0.161"/>
      <feComposite operator="in" in2="blur"/>
      <feComposite in="SourceGraphic"/>
    </filter>
  </defs>
  <g id="_11" data-name="11" transform="translate(-1218 -884)">
    <g id="Grupo_1149838" data-name="Grupo 1149838" transform="translate(0 -3975)">
      <g id="Grupo_1149676" data-name="Grupo 1149676" transform="translate(472 -2821)">
        <g id="Grupo_1148534" data-name="Grupo 1148534" transform="translate(156 4253)">
          <g id="Grupo_1147066" data-name="Grupo 1147066" transform="translate(-26 -556)">
            <g transform="matrix(1, 0, 0, 1, 616, 3983)" filter="url(#Trazado_982547)">
              <g id="Trazado_982547-2" data-name="Trazado 982547" transform="translate(9 6)" fill="#f6edfd">
                <path d="M 45 88.5 C 39.12687683105469 88.5 33.43022537231445 87.35007476806641 28.06830024719238 85.08217620849609 C 22.88852500915527 82.89131164550781 18.23629951477051 79.75458526611328 14.2408504486084 75.75914764404297 C 10.24541282653809 71.76370239257812 7.108687400817871 67.11147308349609 4.917825222015381 61.93170166015625 C 2.649924993515015 56.56977462768555 1.5 50.87312316894531 1.5 45 C 1.5 39.12687683105469 2.649924993515015 33.43022537231445 4.917825222015381 28.06830024719238 C 7.108687400817871 22.88852500915527 10.24541282653809 18.23629951477051 14.2408504486084 14.2408504486084 C 18.23629951477051 10.24541282653809 22.88852500915527 7.108687400817871 28.06830024719238 4.917825222015381 C 33.43022537231445 2.649924993515015 39.12687683105469 1.5 45 1.5 C 50.87312316894531 1.5 56.56977462768555 2.649924993515015 61.93170166015625 4.917825222015381 C 67.11147308349609 7.108687400817871 71.76370239257812 10.24541282653809 75.75914764404297 14.2408504486084 C 79.75458526611328 18.23629951477051 82.89131164550781 22.88852500915527 85.08217620849609 28.06830024719238 C 87.35007476806641 33.43022537231445 88.5 39.12687683105469 88.5 45 C 88.5 50.87312316894531 87.35007476806641 56.56977462768555 85.08217620849609 61.93170166015625 C 82.89131164550781 67.11147308349609 79.75458526611328 71.76370239257812 75.75914764404297 75.75914764404297 C 71.76370239257812 79.75458526611328 67.11147308349609 82.89131164550781 61.93170166015625 85.08217620849609 C 56.56977462768555 87.35007476806641 50.87312316894531 88.5 45 88.5 Z" stroke="none"/>
                <path d="M 45 3 C 39.32871246337891 3 33.82865524291992 4.110054016113281 28.65262985229492 6.299339294433594 C 23.65165710449219 8.414573669433594 19.15968322753906 11.44334411621094 15.301513671875 15.301513671875 C 11.44334411621094 19.15968322753906 8.414573669433594 23.65165710449219 6.299339294433594 28.65262985229492 C 4.110054016113281 33.82865524291992 3 39.32871246337891 3 45 C 3 50.67128753662109 4.110054016113281 56.17134475708008 6.299339294433594 61.34737396240234 C 8.414573669433594 66.34834289550781 11.44334411621094 70.84031677246094 15.301513671875 74.698486328125 C 19.15968322753906 78.55665588378906 23.65165710449219 81.58542633056641 28.65262985229492 83.70066070556641 C 33.82865524291992 85.88994598388672 39.32871246337891 87 45 87 C 50.67128753662109 87 56.17134475708008 85.88994598388672 61.34737396240234 83.70066070556641 C 66.34834289550781 81.58542633056641 70.84031677246094 78.55665588378906 74.698486328125 74.698486328125 C 78.55665588378906 70.84031677246094 81.58542633056641 66.34834289550781 83.70066070556641 61.34737396240234 C 85.88994598388672 56.17134475708008 87 50.67128753662109 87 45 C 87 39.32871246337891 85.88994598388672 33.82865524291992 83.70066070556641 28.65262985229492 C 81.58542633056641 23.65165710449219 78.55665588378906 19.15968322753906 74.698486328125 15.301513671875 C 70.84031677246094 11.44334411621094 66.34834289550781 8.414573669433594 61.34737396240234 6.299339294433594 C 56.17134475708008 4.110054016113281 50.67128753662109 3 45 3 M 45 0 C 69.85281372070312 0 90 20.14718627929688 90 45 C 90 69.85281372070312 69.85281372070312 90 45 90 C 20.14718627929688 90 0 69.85281372070312 0 45 C 0 20.14718627929688 20.14718627929688 0 45 0 Z" stroke="none" fill="#ac59f1"/>
              </g>
            </g>
          </g>
        </g>
      </g>
    </g>
    <g id="resolucion-de-problemas_1_" data-name="resolucion-de-problemas (1)" transform="translate(1215.73 904)">
      <path id="Trazado_991452" data-name="Trazado 991452" d="M342.283,132H336.44A9.925,9.925,0,0,1,332,135.863v6.421a.735.735,0,0,0,.735.735h9.55a.735.735,0,0,0,.735-.735v-9.55A.735.735,0,0,0,342.283,132Z" transform="translate(-266.948 -116.015)" fill="#cb97e7"/>
      <g id="Grupo_1154907" data-name="Grupo 1154907" transform="translate(65.05 16.804)">
        <path id="Trazado_991453" data-name="Trazado 991453" d="M335.874,148.237v-9.465A9.917,9.917,0,0,1,332,141.816v6.421a.735.735,0,0,0,.735.735h3.875A.735.735,0,0,1,335.874,148.237Z" transform="translate(-331.999 -138.772)" fill="#bd80e1"/>
      </g>
      <g id="Grupo_1154918" data-name="Grupo 1154918" transform="translate(29.178 0.908)">
        <path id="Trazado_991454" data-name="Trazado 991454" d="M108.461,273.661l2.076-5.647a14.182,14.182,0,0,1-13.479,0l2.076,5.647Z" transform="translate(-89.635 -236.467)" fill="#fff0ad"/>
        <path id="Trazado_991455" data-name="Trazado 991455" d="M104.235,273.661l-1.463-3.981a14.074,14.074,0,0,1-5.713-1.666l2.076,5.647Z" transform="translate(-89.636 -236.467)" fill="#ffe177"/>
        <path id="Trazado_991456" data-name="Trazado 991456" d="M126,393.588v1.89a1.816,1.816,0,0,0,1.816,1.816h2.837a1.816,1.816,0,0,0,1.816-1.816v-1.89Z" transform="translate(-115.074 -346.835)" fill="#02c7dd"/>
        <path id="Trazado_991457" data-name="Trazado 991457" d="M129.027,395.478v-1.89H126v1.89a1.816,1.816,0,0,0,1.816,1.816h2.837c.032,0,.063,0,.1,0A1.815,1.815,0,0,1,129.027,395.478Z" transform="translate(-115.074 -346.835)" fill="#07b2cd"/>
        <path id="Trazado_991458" data-name="Trazado 991458" d="M113.43,362.995v3.22a.606.606,0,0,0,.605.605h8.3a.606.606,0,0,0,.605-.605v-3.22Z" transform="translate(-104.026 -319.947)" fill="#a6e7f0"/>
        <path id="Trazado_991459" data-name="Trazado 991459" d="M116.457,366.215V363H113.43v3.22a.606.606,0,0,0,.605.605h3.027A.605.605,0,0,1,116.457,366.215Z" transform="translate(-104.026 -319.947)" fill="#6bd9e7"/>
        <path id="Trazado_991460" data-name="Trazado 991460" d="M57.781,53.152a9.9,9.9,0,0,1,.292-2.386,14.162,14.162,0,1,0,6.02,11.6A9.888,9.888,0,0,1,57.781,53.152Z" transform="translate(-35.77 -43.265)" fill="#ffe177"/>
        <g id="Grupo_1154908" data-name="Grupo 1154908" transform="translate(0 4.928)">
          <path id="Trazado_991461" data-name="Trazado 991461" d="M41.865,62.355A14.166,14.166,0,0,1,52.978,48.524a14.161,14.161,0,1,0,0,27.663A14.166,14.166,0,0,1,41.865,62.355Z" transform="translate(-35.769 -48.194)" fill="#ffd15b"/>
        </g>
        <g id="Grupo_1154909" data-name="Grupo 1154909" transform="translate(7.588 37.194)">
          <path id="Trazado_991462" data-name="Trazado 991462" d="M110.365,320.626H99.64a1.211,1.211,0,0,1-1.211-1.211v-3.553a1.211,1.211,0,0,1,1.211-1.211h10.725a1.211,1.211,0,0,1,1.211,1.211v3.553A1.211,1.211,0,0,1,110.365,320.626Z" transform="translate(-98.429 -314.651)" fill="#eaf9fa"/>
        </g>
        <path id="Trazado_991463" data-name="Trazado 991463" d="M102.5,319.415v-3.553a1.211,1.211,0,0,1,1.211-1.211H99.641a1.211,1.211,0,0,0-1.211,1.211v3.553a1.211,1.211,0,0,0,1.211,1.211h4.065A1.211,1.211,0,0,1,102.5,319.415Z" transform="translate(-90.842 -277.457)" fill="#d4f2f6"/>
        <g id="Grupo_1154910" data-name="Grupo 1154910" transform="translate(25.593 32.439)">
          <path id="Trazado_991464" data-name="Trazado 991464" d="M270.892,289.888a4.252,4.252,0,0,1-2.709-.738.364.364,0,0,0-.575.295v5.823a.606.606,0,0,1-.605.605h-5.823a.364.364,0,0,0-.295.575,4.268,4.268,0,1,1-7.034-.011.362.362,0,0,0-.3-.564h-5.823a.606.606,0,0,1-.605-.605V290.7a.6.6,0,0,1,.652-.6,4.358,4.358,0,0,0,.68.012,4.268,4.268,0,0,0-.265-8.529q-.2,0-.4.018a.607.607,0,0,1-.669-.6v-5a.606.606,0,0,1,.605-.605h4.768a.6.6,0,0,1,.6.619c0,.043,0,.085,0,.128a4.268,4.268,0,0,0,8.537,0q0-.064,0-.128a.6.6,0,0,1,.6-.619H267a.606.606,0,0,1,.605.605v5.823a.362.362,0,0,0,.564.3,4.268,4.268,0,1,1,2.72,7.772Z" transform="translate(-247.12 -275.386)" fill="#fe9738"/>
        </g>
        <g id="Grupo_1154911" data-name="Grupo 1154911" transform="translate(25.593 32.439)">
          <path id="Trazado_991465" data-name="Trazado 991465" d="M270.892,289.888a4.252,4.252,0,0,1-2.709-.738.364.364,0,0,0-.575.295v5.823a.606.606,0,0,1-.605.605h-5.823a.364.364,0,0,0-.295.575,4.268,4.268,0,1,1-7.034-.011.362.362,0,0,0-.3-.564h-5.823a.606.606,0,0,1-.605-.605V290.7a.6.6,0,0,1,.652-.6,4.358,4.358,0,0,0,.68.012,4.268,4.268,0,0,0-.265-8.529q-.2,0-.4.018a.607.607,0,0,1-.669-.6v-5a.606.606,0,0,1,.605-.605h4.768a.6.6,0,0,1,.6.619c0,.043,0,.085,0,.128a4.268,4.268,0,0,0,8.537,0q0-.064,0-.128a.6.6,0,0,1,.6-.619H267a.606.606,0,0,1,.605.605v5.823a.362.362,0,0,0,.564.3,4.268,4.268,0,1,1,2.72,7.772Z" transform="translate(-247.12 -275.386)" fill="#fe9738"/>
        </g>
        <g id="Grupo_1154914" data-name="Grupo 1154914" transform="translate(25.593 32.44)">
          <g id="Grupo_1154912" data-name="Grupo 1154912" transform="translate(0)">
            <path id="Trazado_991466" data-name="Trazado 991466" d="M247.787,281.6q.2-.018.4-.018a4.259,4.259,0,0,1,3.264,1.519v-7.1a.605.605,0,0,1,.605-.605h-4.331a.606.606,0,0,0-.605.605v5A.607.607,0,0,0,247.787,281.6Z" transform="translate(-247.118 -275.388)" fill="#fe860a"/>
          </g>
          <g id="Grupo_1154913" data-name="Grupo 1154913" transform="translate(0 13.2)">
            <path id="Trazado_991467" data-name="Trazado 991467" d="M251.449,391.08V384.4a4.265,4.265,0,0,1-3,1.517,4.347,4.347,0,0,1-.68-.012.6.6,0,0,0-.652.6v4.573a.606.606,0,0,0,.605.605h4.332A.605.605,0,0,1,251.449,391.08Z" transform="translate(-247.118 -384.398)" fill="#fe860a"/>
          </g>
        </g>
        <g id="Grupo_1154917" data-name="Grupo 1154917" transform="translate(22.011)">
          <g id="Grupo_1154915" data-name="Grupo 1154915">
            <circle id="Elipse_11819" data-name="Elipse 11819" cx="9.887" cy="9.887" r="9.887" fill="#05e39c"/>
          </g>
          <g id="Grupo_1154916" data-name="Grupo 1154916" transform="translate(0 0)">
            <path id="Trazado_991468" data-name="Trazado 991468" d="M222.643,17.387a9.89,9.89,0,0,1,7.334-9.552,9.887,9.887,0,1,0,0,19.1A9.89,9.89,0,0,1,222.643,17.387Z" transform="translate(-217.536 -7.5)" fill="#0ed290"/>
          </g>
        </g>
      </g>
      <g id="Grupo_1154919" data-name="Grupo 1154919" transform="translate(28.27 0)">
        <path id="Trazado_991469" data-name="Trazado 991469" d="M267.787,275.507a5.18,5.18,0,0,0-5.864-1.21v-4.9a1.515,1.515,0,0,0-1.514-1.514h-4.768a1.523,1.523,0,0,0-1.088.46,1.494,1.494,0,0,0-.424,1.095c0,.033,0,.067,0,.1a3.36,3.36,0,1,1-6.72,0c0-.033,0-.067,0-.1a1.5,1.5,0,0,0-.425-1.095,1.523,1.523,0,0,0-1.087-.46h-4.768a1.515,1.515,0,0,0-1.514,1.514v5a1.513,1.513,0,0,0,.492,1.115,1.529,1.529,0,0,0,1.168.391c.1-.01.209-.014.314-.014a3.36,3.36,0,0,1,.21,6.714,3.459,3.459,0,0,1-.538-.009,1.5,1.5,0,0,0-1.15.383,1.522,1.522,0,0,0-.5,1.125v4.573a1.515,1.515,0,0,0,1.514,1.514h4.9a5.178,5.178,0,0,0,4.736,7.256c.123,0,.246,0,.37-.013a5.18,5.18,0,0,0,4.378-7.244h4.9a1.515,1.515,0,0,0,1.514-1.514v-4.9a5.177,5.177,0,0,0,5.864-8.274Zm-.433,3.772a3.363,3.363,0,0,1-3.116,3.112h0a3.332,3.332,0,0,1-2.134-.58,1.272,1.272,0,0,0-2,1.044v5.52h-5.52a1.272,1.272,0,0,0-1.043,2,3.36,3.36,0,1,1-5.538-.008,1.27,1.27,0,0,0-1.049-1.989h-5.52v-3.948c.159,0,.319,0,.478-.007a5.177,5.177,0,0,0-.478-10.341V269.7H245.6a5.177,5.177,0,0,0,10.348,0h4.162v5.52a1.27,1.27,0,0,0,1.989,1.049,3.36,3.36,0,0,1,5.258,3.006Z" transform="translate(-214.026 -235.448)"/>
        <path id="Trazado_991470" data-name="Trazado 991470" d="M49.275,37.275l1.539-4.187a15.112,15.112,0,0,0,4.29-3.674.908.908,0,0,0-1.417-1.136A13.2,13.2,0,0,1,46.4,32.9V25.387h1.781a3.6,3.6,0,1,0-3.6-3.6V23.57H42.1V21.79a3.6,3.6,0,1,0-3.6,3.6H40.28v7.506A13.253,13.253,0,1,1,50.461,8.826a10.8,10.8,0,0,0,6.117,11.782,13.162,13.162,0,0,1-.9,4.23.908.908,0,1,0,1.691.664,14.951,14.951,0,0,0,.986-4.258,10.809,10.809,0,0,0,5.784-.1v5.123a1.645,1.645,0,0,0,1.643,1.643h9.55a1.645,1.645,0,0,0,1.643-1.643v-2.9a.908.908,0,1,0-1.816,0V26.1h-9.2V20.42a10.872,10.872,0,0,0,4.021-3.528h5.182v2.24a.908.908,0,0,0,1.816,0V16.719a1.645,1.645,0,0,0-1.643-1.643h-4.35A10.794,10.794,0,1,0,50.967,7.007,15.065,15.065,0,1,0,35.86,33.076l1.543,4.2a2.121,2.121,0,0,0-1.546,2.038v3.553a2.121,2.121,0,0,0,1.816,2.095v2.215a1.515,1.515,0,0,0,1.514,1.514H39.2v.86a2.728,2.728,0,0,0,2.725,2.725h2.837a2.728,2.728,0,0,0,2.725-2.725v-.86h.008A1.515,1.515,0,0,0,49,47.177V44.962a2.121,2.121,0,0,0,1.816-2.095V39.313a2.121,2.121,0,0,0-1.546-2.038ZM46.4,21.79a1.781,1.781,0,1,1,1.781,1.781H46.4ZM61.076,1.816A8.979,8.979,0,1,1,52.1,10.8,8.989,8.989,0,0,1,61.076,1.816ZM46.4,34.756a14.984,14.984,0,0,0,2.083-.588L47.37,37.194H46.4Zm-4.3-9.369h2.486v7.8c-.411.038-.825.059-1.243.059s-.834-.02-1.243-.059v-7.8Zm0,9.628c.41.034.824.052,1.243.052s.832-.017,1.243-.051v2.178H42.1ZM38.5,23.57A1.781,1.781,0,1,1,40.28,21.79V23.57ZM40.28,34.754v2.44h-.971l-1.114-3.032A14.938,14.938,0,0,0,40.28,34.754Zm5.386,14.8a.909.909,0,0,1-.908.908H41.921a.909.909,0,0,1-.908-.908v-.86h4.654ZM49,42.867a.3.3,0,0,1-.3.3H45.917a.908.908,0,1,0,0,1.816h1.271v1.888h-7.7V44.986h2.188a.908.908,0,1,0,0-1.816h-3.7a.3.3,0,0,1-.3-.3V39.313a.3.3,0,0,1,.3-.3H48.7a.3.3,0,0,1,.3.3Z" transform="translate(-28.27 0)"/>
        <path id="Trazado_991471" data-name="Trazado 991471" d="M254.614,67.082a.908.908,0,0,0,.683.323h.012a.908.908,0,0,0,.68-.306l5.95-6.712a.908.908,0,0,0-1.359-1.2l-5.253,5.925-3.386-4.021a.908.908,0,0,0-1.389,1.17Z" transform="translate(-223.446 -51.747)"/>
      </g>
    </g>
  </g>
</svg>
