<svg xmlns="http://www.w3.org/2000/svg" xmlns:xlink="http://www.w3.org/1999/xlink" width="383" height="390" viewBox="0 0 383 390">
  <defs>
    <clipPath id="clip-path">
      <rect id="Rectángulo_409707" data-name="Rectángulo 409707" width="383" height="390" transform="translate(180 1951)" fill="#fff" stroke="#707070" stroke-width="1" opacity="0.33"/>
    </clipPath>
  </defs>
  <g id="_16" data-name="16" transform="translate(-180 -1951)" clip-path="url(#clip-path)">
    <g id="Grupo_1155613" data-name="Grupo 1155613" transform="translate(93.57 1875.02)">
      <path id="Trazado_991558" data-name="Trazado 991558" d="M52.623,314.381c40.093,29.435,92.865,21.706,165.5,10.491,28.36-4.379,28.761-9.553,99.95-27.017,44.4-10.891,51.652-11.17,60.237-19.294,32.344-30.61,17.089-109.726-12.908-161.7C316.607,32.309,205.741-20.408,127.781,7.537c-5.3,1.9-62.422,28.644-66.05,62.255-.411,3.8-.583,11.829-5.57,20.5-8.843,15.371-25.01,19.157-31.634,22.775C-9.175,131.489-15.338,264.487,52.623,314.381Z" transform="translate(0 254.79) rotate(-40)" fill="#ac59f1"/>
      <g id="_x31_0" transform="translate(96.062 75.98)">
        <g id="Grupo_1155187" data-name="Grupo 1155187" transform="translate(0 14.241)">
          <path id="Trazado_991938" data-name="Trazado 991938" d="M246.49,236.418a99.834,99.834,0,0,0,32.48,54.678,107.873,107.873,0,0,0-20.869.511c-19.787,2.605-37.755,13.279-58.236,10.265-19.9-2.928-38.788-10.825-58.188-15.831-.678-.178-1.373-.274-2.056-.441Q164.9,219,190.175,152.393q19.709,5.781,39.434,11.562,12.773,3.754,25.536,7.493a100.328,100.328,0,0,0-10.5,51.777A99.261,99.261,0,0,0,246.49,236.418Z" transform="translate(40.263 54.767)" fill="#ff7866"/>
          <path id="Trazado_991939" data-name="Trazado 991939" d="M169.425,205.866a63.344,63.344,0,0,0,8.715,7.945,100.182,100.182,0,0,1,10.5-51.777q-12.773-3.746-25.536-7.493a19.688,19.688,0,0,0-1.706,1.378C150.079,166.243,153.675,188.6,169.425,205.866Z" transform="translate(106.777 64.182)"/>
          <g id="Grupo_1155171" data-name="Grupo 1155171" transform="translate(138.487 14.745)">
            <path id="Trazado_991940" data-name="Trazado 991940" d="M226.7,332.563a459.182,459.182,0,0,0,56.056,10.583c3.52.436,23.706,2.777,45.065-2.977,5.749-1.55,11.681-3.693,14.754-9.291,4.425-8.042.689-15.96.334-16.676a4.57,4.57,0,0,1,1.5-3.386c1.965-1.55,4.92-.027,7.38-2.368a4.515,4.515,0,0,0,.323-.339c1.717-1.954,3.337-5.684,1.755-8.542a6.377,6.377,0,0,0-3.585-2.767c.711-.382,5.975-3.316,6.615-8.86.027-.21.043-.42.054-.619a6.693,6.693,0,0,0-2.008-5.044,69.626,69.626,0,0,1-5.835-6.615c-13.161-17.02-16.579-38.024-14.873-47a82.954,82.954,0,0,0,1.416-11.013c.113-1.819.167-3.833.108-6.066-.393-15.169-5.469-26.44-8.467-32.926a103.664,103.664,0,0,0-25.843-34.347c-8.984-8.327-24.885-20.492-47.352-25.434-40.656-8.941-100.459,8.9-117.522,55.249-17.327,47.067,17.516,101.3,43.391,114.928a109.253,109.253,0,0,1,29.126,20.358A105.024,105.024,0,0,1,226.7,332.563Z" transform="translate(-131.93 -116.647)" fill="#ff7866"/>
            <path id="Trazado_991941" data-name="Trazado 991941" d="M179.9,180.673a17.847,17.847,0,0,1,5.345-4.785c2.7-1.556,4.123-1.055,6.341-2.8a10.308,10.308,0,0,0,3.23-12.025c-1.717-3.849-6.013-5.356-7.665-6.029-3.763-1.529-9.468-5.62-17.736-17.2q-.008,11.271-.011,22.532Q174.656,170.524,179.9,180.673Z" transform="translate(32.33 -23.822)" fill="#ff7866"/>
          </g>
          <g id="Grupo_1155172" data-name="Grupo 1155172" transform="translate(303.082 133.237)">
            <path id="Trazado_991942" data-name="Trazado 991942" d="M183.147,151.387c-11.81,0-19.97-10.071-20.347-10.545a1.347,1.347,0,0,1,2.11-1.674c.091.113,9.2,11.315,21.321,9.264a20.067,20.067,0,0,0,10.039-5.049,1.349,1.349,0,0,1,1.809,2,22.776,22.776,0,0,1-11.39,5.7A20.753,20.753,0,0,1,183.147,151.387Z" transform="translate(-162.508 -138.66)"/>
          </g>
          <g id="Grupo_1155173" data-name="Grupo 1155173" transform="translate(334.229 193.557)">
            <path id="Trazado_991943" data-name="Trazado 991943" d="M175.7,154.523a29.669,29.669,0,0,1-6.341-.689,1.344,1.344,0,1,1,.571-2.627,27.3,27.3,0,0,0,7.816.549,26.669,26.669,0,0,0,7.773-1.8,1.345,1.345,0,0,1,.985,2.5,29.411,29.411,0,0,1-8.553,1.976C177.208,154.5,176.454,154.523,175.7,154.523Z" transform="translate(-168.294 -149.866)"/>
          </g>
          <path id="Trazado_991944" data-name="Trazado 991944" d="M181.509,157.779a35.525,35.525,0,0,1-12.235,8.585c2.5.517,11.2,1.986,18.355-3.23,1.626-1.184,7.224-5.189,6.621-10.529-.226-2.035-1.389-5.151-3.353-5.48C188.221,146.669,186.52,152.294,181.509,157.779Z" transform="translate(170.229 31.57)" fill="#e8493d"/>
          <g id="Grupo_1155174" data-name="Grupo 1155174" transform="translate(284.992 99.432)">
            <path id="Trazado_991945" data-name="Trazado 991945" d="M166.132,132.382a9.751,9.751,0,0,1,7.391,3.208,9.552,9.552,0,0,1,2.245,6.572Z" transform="translate(-128.533 -132.38)"/>
            <path id="Trazado_991946" data-name="Trazado 991946" d="M195.648,132.4c1.028,1.3,2.487,3.036,4.355,4.99,3.014,3.154,3.913,3.526,3.8,4.22-.4,2.5-12.558.9-24.815,3.833a57.95,57.95,0,0,0-19.841,9.075,22.532,22.532,0,0,1,1.862-5.237C168.728,133.922,191.939,132.566,195.648,132.4Z" transform="translate(-159.147 -132.294)"/>
          </g>
          <g id="Grupo_1155175" data-name="Grupo 1155175" transform="translate(342.701 206.73)">
            <path id="Trazado_991947" data-name="Trazado 991947" d="M171.214,155.1a1.346,1.346,0,0,1-.016-2.691l7.256-.1a1.346,1.346,0,0,1,.032,2.691l-7.256.1Z" transform="translate(-169.868 -152.313)"/>
          </g>
          <path id="Trazado_991948" data-name="Trazado 991948" d="M410.556,129.5c.705.856,8.467,11.121,6.8,23.27-2.471,18.016-24.438,30.714-39.73,51.545-3.106,4.231-8.763,10.394-7.159,16.643,1.362,5.3,6.551,5.9,9.307,12.886,1.712,4.339,2.788,11.912-.716,15.212-6.212,5.846-21.531-7.051-27.382-1.523-2.611,2.465-2.3,7.014,2.417,26.042,6.357,25.665,8.295,27.49,8.591,34.633.748,18.135-10.932,25.493-14.227,37.319-11.207,40.2,88.552,81.705,81.791,110.428-7.4,31.414-159.147,2.384-197.946-5.011-28.33-5.4-48.063-12.111-57.606-28.071-4.08-6.825-5.862-14.62-14.5-20.137-11.444-7.31-19.12-.517-31.409-6.174-14.227-6.551-23.259-24.54-22.548-39.466.608-12.773,7.934-14.539,13.667-30,10.071-27.183-8.559-39.843,1.432-56.2,19.173-31.376,77.345-30.515,76.78-44.026-.2-4.914-7.923-7.552-8.769-17.537-.28-3.305.215-7.094,2.5-12.17,4.29-9.517,14.054-21.709,50.83-42.777,8.182-4.683,12.757-6.885,18.791-10.2C300.634,122.659,385.23,98.829,410.556,129.5Z" transform="translate(-106.202 -109.628)" fill="#a3f0f3"/>
          <g id="Grupo_1155182" data-name="Grupo 1155182" transform="translate(236.93 124.933)">
            <path id="Trazado_991949" data-name="Trazado 991949" d="M151.188,169.925c3.036,15.578,14.819,26.386,26.311,24.147s18.35-16.687,15.309-32.264-14.819-26.386-26.311-24.147S148.152,154.348,151.188,169.925Z" transform="translate(-149.121 -136.02)" fill="#ff7866"/>
            <g id="Grupo_1155179" data-name="Grupo 1155179">
              <g id="Grupo_1155176" data-name="Grupo 1155176" transform="translate(7.348 47.632)">
                <path id="Trazado_991950" data-name="Trazado 991950" d="M169.577,158.023c-6.4,0-12.833-3.537-17.715-9.888a1.34,1.34,0,0,1,.248-1.884,1.326,1.326,0,0,1,1.884.248c5.087,6.615,11.95,9.824,18.361,8.569a15.392,15.392,0,0,0,8.01-4.392,1.349,1.349,0,0,1,1.911,1.906,17.535,17.535,0,0,1-12.7,5.442Z" transform="translate(-151.583 -145.966)"/>
              </g>
              <g id="Grupo_1155177" data-name="Grupo 1155177" transform="translate(1.233 34.816)">
                <path id="Trazado_991951" data-name="Trazado 991951" d="M155.716,155.846a1.34,1.34,0,0,1-1.157-.662,32.558,32.558,0,0,1-4.069-9.92,1.345,1.345,0,1,1,2.605-.667,29.921,29.921,0,0,0,3.784,9.221,1.345,1.345,0,0,1-.474,1.841A1.329,1.329,0,0,1,155.716,155.846Z" transform="translate(-150.447 -143.585)"/>
              </g>
              <g id="Grupo_1155178" data-name="Grupo 1155178">
                <path id="Trazado_991952" data-name="Trazado 991952" d="M151.811,169.3a1.348,1.348,0,0,1-1.335-1.195c-1.744-15.271,5.507-28.453,16.864-30.666a17.411,17.411,0,0,1,7.923.3,1.345,1.345,0,1,1-.689,2.6,14.877,14.877,0,0,0-6.718-.253c-9.969,1.943-16.288,13.861-14.7,27.721a1.34,1.34,0,0,1-1.184,1.486C151.913,169.3,151.86,169.3,151.811,169.3Z" transform="translate(-150.218 -137.117)"/>
              </g>
            </g>
            <g id="Grupo_1155180" data-name="Grupo 1155180" transform="translate(10.931 17.758)">
              <path id="Trazado_991953" data-name="Trazado 991953" d="M169.05,166.9a1.349,1.349,0,0,1-1.13-.614l-15.454-23.8a1.344,1.344,0,1,1,2.255-1.464l15.454,23.8a1.342,1.342,0,0,1-1.125,2.078Z" transform="translate(-152.249 -140.416)"/>
            </g>
            <g id="Grupo_1155181" data-name="Grupo 1155181" transform="translate(18.228 18.303)">
              <path id="Trazado_991954" data-name="Trazado 991954" d="M154.948,152.326a1.287,1.287,0,0,1-.468-.086,1.351,1.351,0,0,1-.791-1.733l3.407-9.118a1.348,1.348,0,0,1,2.525.947l-3.407,9.118A1.37,1.37,0,0,1,154.948,152.326Z" transform="translate(-153.604 -140.517)"/>
            </g>
          </g>
          <g id="Grupo_1155183" data-name="Grupo 1155183" transform="translate(217.387)">
            <path id="Trazado_991955" data-name="Trazado 991955" d="M185.421,223c4.139-8.8,11.9-15.879,19.184-22.123A169.3,169.3,0,0,1,228.661,183.9c13.22-7.827,31.064-14.06,30.908-32.34-.145-16.568-14.119-27.98-28.733-32.738-8.876-2.891-18.42-3.994-27.705-4.635-8.462-.587-17.246-.436-25.417,2.1-17.855,5.555-28,22.134-31.091,39.8-.441,2.541,3.445,3.633,3.892,1.071,2.632-15.045,10.459-29.982,25.315-35.914s34.31-3.65,49.452.172c15.836,4,33.815,16.471,29.691,35.246-1.836,8.354-9.054,13.086-16.073,16.923-7.046,3.854-14.06,7.692-20.767,12.133-13.349,8.839-29.2,20.385-36.2,35.246-1.093,2.325,2.385,4.376,3.488,2.029Z" transform="translate(-146.588 -113.907)" fill="#3c98e7"/>
          </g>
          <g id="Grupo_1155184" data-name="Grupo 1155184" transform="translate(190.742 195.071)">
            <path id="Trazado_991956" data-name="Trazado 991956" d="M181.586,153.156c11.96,20.444-4.678,45.2,7,65.944,9.684,17.209,30.187,25.062,47.756,31.365,17.6,6.314,52.789,15.648,52.514,39.477-.21,18.156-22.909,17.349-35.128,14.9a358.147,358.147,0,0,1-35.478-9.022c-26.063-8.053-51.007-19.346-73.658-34.6-2.164-1.453-4.182,2.04-2.04,3.488A279.426,279.426,0,0,0,212.688,298.3a360.445,360.445,0,0,0,38.681,10.184c10.884,2.228,23.141,4,32.862-2.74,7.74-5.361,10.373-14.716,7.493-23.571-3.219-9.9-12.117-16.687-20.8-21.666-20.342-11.659-44.7-14.786-64.1-28.238-6.363-4.414-12.429-10.066-15.777-17.166-3.849-8.16-3.24-17.456-2.331-26.176,1.346-12.9,3.224-26.074-3.639-37.8-1.313-2.25-4.8-.221-3.488,2.029Z" transform="translate(-141.637 -150.147)" fill="#3c98e7"/>
          </g>
          <g id="Grupo_1155185" data-name="Grupo 1155185" transform="translate(64.411 14.027)">
            <path id="Trazado_991957" data-name="Trazado 991957" d="M284.981,117.481c-5.081,8.548-14.485,11.987-23.577,14.668a281.67,281.67,0,0,1-32.27,7.315c-21.628,3.7-43.52,5.442-65.336,7.627-9.312.931-18.748,1.9-27.818,4.3-6.793,1.793-13.984,4.85-16.644,11.9-5.383,14.27,9.065,30.9,18.113,40.3,15.088,15.664,34.536,28.932,40.581,50.98.684,2.5,4.581,1.443,3.892-1.071-5.846-21.321-23.523-34.805-38.557-49.672-8.51-8.413-18.544-19.066-20.675-31.344-3.041-17.532,20.729-19.012,32.738-20.46,25.347-3.052,50.846-4.478,76.032-8.882,12.09-2.115,24.314-4.656,35.941-8.639,8.489-2.907,16.353-7.073,21.063-14.986,1.335-2.239-2.158-4.274-3.483-2.04Z" transform="translate(-118.168 -116.513)" fill="#3c98e7"/>
          </g>
          <g id="Grupo_1155186" data-name="Grupo 1155186" transform="translate(37.831 182.754)">
            <path id="Trazado_991958" data-name="Trazado 991958" d="M125,150.33c7.94,24.131,15.271,51.1,5.517,75.827-4.3,10.9-11.643,20.352-15.831,31.285-3.644,9.511-.081,16.633,6.443,23.8,14.84,16.3,35.785,27.947,57.773,30.17,25.493,2.578,51.642-1.55,77.027-3.682,25.283-2.126,52.94-2.476,72.463-21.079,1.884-1.8-.974-4.645-2.853-2.853-17.688,16.853-42.755,17.747-65.745,19.577-23.733,1.889-47.546,5.151-71.4,4.565-23.781-.587-45.161-10.157-62-27.022-4.387-4.392-9.038-9.242-9.145-15.718-.113-6.562,4.285-13.026,7.385-18.646,4.828-8.758,9.824-17.429,12.316-27.2,5.969-23.42-.727-47.815-8.058-70.1-.813-2.454-4.71-1.4-3.9,1.077Z" transform="translate(-113.23 -147.859)" fill="#3c98e7"/>
          </g>
        </g>
        <path id="Trazado_991959" data-name="Trazado 991959" d="M165.1,234.812c.4.011.3-7.66,2.928-17.327,1.545-5.684,2.562-9.264,5.711-12.418,4.441-4.451,10.319-5.237,13.059-5.415a22.7,22.7,0,0,1-8.316-5.48c-4.177-4.387-5.318-9.344-6.562-14.765a54.194,54.194,0,0,1-1.281-15.061c.059-1.087-.657,15.75-10.308,24.163A24.411,24.411,0,0,1,147,193.983c3.214,1,8.645,3.262,12.117,8.5,1.513,2.282,2.519,4.565,3.332,10.383C164.209,225.5,164.6,234.8,165.1,234.812Z" transform="translate(72.608 121.175)" fill="#fedd4d"/>
        <path id="Trazado_991960" data-name="Trazado 991960" d="M118.212,214.755c.4.011.3-7.66,2.928-17.327,1.545-5.684,2.562-9.264,5.711-12.418,4.441-4.451,10.319-5.237,13.059-5.415a22.7,22.7,0,0,1-8.316-5.48c-4.177-4.392-5.313-9.344-6.562-14.765a54.169,54.169,0,0,1-1.281-15.061c.059-1.087-.657,15.75-10.3,24.163a24.371,24.371,0,0,1-13.333,5.474c3.214,1,8.645,3.262,12.117,8.5,1.513,2.282,2.519,4.565,3.332,10.383C117.318,205.437,117.706,214.739,118.212,214.755Z" transform="translate(-58.804 -144.239)" fill="#fedd4d"/>
        <path id="Trazado_991961" data-name="Trazado 991961" d="M161.458,160.371c.28.011.21-5.334,2.04-12.068,1.077-3.956,1.787-6.454,3.978-8.65a14.087,14.087,0,0,1,9.091-3.768,15.843,15.843,0,0,1-5.792-3.816c-2.907-3.057-3.7-6.508-4.57-10.281a37.656,37.656,0,0,1-.894-10.491c.038-.759-.458,10.97-7.175,16.832a16.984,16.984,0,0,1-9.285,3.811,15.484,15.484,0,0,1,8.44,5.921c1.055,1.588,1.755,3.176,2.32,7.235C160.834,153.885,161.1,160.361,161.458,160.371Z" transform="translate(80.724 -111.261)"/>
        <path id="Trazado_991962" data-name="Trazado 991962" d="M166.531,208.444c.2.005.151-3.865,1.475-8.742.781-2.869,1.292-4.672,2.885-6.266a10.207,10.207,0,0,1,6.589-2.729,11.421,11.421,0,0,1-4.2-2.767c-2.1-2.212-2.681-4.715-3.31-7.45a27.328,27.328,0,0,1-.646-7.6c.027-.549-.334,7.95-5.2,12.192a12.291,12.291,0,0,1-6.728,2.761,11.247,11.247,0,0,1,6.115,4.29c.764,1.152,1.27,2.3,1.679,5.243C166.084,203.745,166.278,208.439,166.531,208.444Z" transform="translate(118.171 158.734)" fill="#fedd4d"/>
        <g id="Grupo_1155195" data-name="Grupo 1155195" transform="translate(11.076 58.771)">
          <g id="Grupo_1155191" data-name="Grupo 1155191" transform="translate(16.604 34.445)">
            <g id="Grupo_1155188" data-name="Grupo 1155188">
              <path id="Trazado_991963" data-name="Trazado 991963" d="M165.129,236.138a53.779,53.779,0,1,1,53.779-53.779A53.845,53.845,0,0,1,165.129,236.138Zm0-102.176a48.4,48.4,0,1,0,48.4,48.4A48.454,48.454,0,0,0,165.129,133.962Z" transform="translate(-111.344 -128.579)" fill="#f17cf3"/>
            </g>
            <g id="Grupo_1155189" data-name="Grupo 1155189" transform="translate(9.447 9.447)">
              <path id="Trazado_991964" data-name="Trazado 991964" d="M157.437,219.01a44.338,44.338,0,1,1,44.338-44.338A44.387,44.387,0,0,1,157.437,219.01Zm0-83.3a38.955,38.955,0,1,0,38.955,38.955A39,39,0,0,0,157.437,135.711Z" transform="translate(-113.099 -130.334)" fill="#f17cf3"/>
            </g>
            <g id="Grupo_1155190" data-name="Grupo 1155190" transform="translate(21.773 21.773)">
              <path id="Trazado_991965" data-name="Trazado 991965" d="M147.4,196.647a32.011,32.011,0,1,1,32.011-32.011A32.049,32.049,0,0,1,147.4,196.647Zm0-58.645a26.629,26.629,0,1,0,26.629,26.629A26.661,26.661,0,0,0,147.4,138Z" transform="translate(-115.389 -132.624)" fill="#f17cf3"/>
            </g>
            <path id="Trazado_991966" data-name="Trazado 991966" d="M119.3,147.484a10.949,10.949,0,1,0,10.949-10.948A10.948,10.948,0,0,0,119.3,147.484Z" transform="translate(-76.466 -93.705)"/>
          </g>
          <g id="Grupo_1155192" data-name="Grupo 1155192" transform="translate(17.282 19.146)">
            <path id="Trazado_991967" data-name="Trazado 991967" d="M162.816,193.222a2.005,2.005,0,0,1-1.593-.781L111.9,129a2.019,2.019,0,0,1,3.187-2.481L164.41,189.96a2.014,2.014,0,0,1-.355,2.831A1.97,1.97,0,0,1,162.816,193.222Z" transform="translate(-111.47 -125.737)"/>
          </g>
          <g id="Grupo_1155193" data-name="Grupo 1155193">
            <path id="Trazado_991968" data-name="Trazado 991968" d="M129.772,147.5a2.005,2.005,0,0,1-.436-.048l-19.491-4.3a2.017,2.017,0,1,1,.867-3.94l16.735,3.687L125.38,124.42a2.021,2.021,0,0,1,1.782-2.234,2.054,2.054,0,0,1,2.228,1.782l2.379,21.278a2,2,0,0,1-.657,1.722A1.925,1.925,0,0,1,129.772,147.5Z" transform="translate(-108.259 -122.18)"/>
          </g>
          <g id="Grupo_1155194" data-name="Grupo 1155194" transform="translate(7.534 9.644)">
            <path id="Trazado_991969" data-name="Trazado 991969" d="M131.169,149.284a2,2,0,0,1-.436-.048l-19.491-4.3a2.018,2.018,0,0,1,.872-3.94l16.73,3.687-2.067-18.479a2.021,2.021,0,0,1,1.782-2.234,2.077,2.077,0,0,1,2.228,1.782l2.379,21.278a2.012,2.012,0,0,1-.651,1.723A1.946,1.946,0,0,1,131.169,149.284Z" transform="translate(-109.659 -123.971)"/>
          </g>
        </g>
        <g id="Grupo_1155199" data-name="Grupo 1155199" transform="translate(143.985 18.31)">
          <path id="Trazado_991970" data-name="Trazado 991970" d="M137.024,151.4c2.18,8.564,8.51,33.9,23.1,35.015,14.205,1.082,27.49-17.069,28.071-33.556.6-17.08-12.219-35.747-28.071-36.468-8.822-.4-18.942,4.737-23.205,13.376C133.428,136.842,135.086,143.786,137.024,151.4Z" transform="translate(-124.476 -107.178)" fill="#fedd4d"/>
          <g id="Grupo_1155198" data-name="Grupo 1155198">
            <g id="Grupo_1155196" data-name="Grupo 1155196">
              <path id="Trazado_991971" data-name="Trazado 991971" d="M168.854,214.546c-12.364,0-22.425-10.76-22.425-23.986a24.684,24.684,0,0,1,.274-3.488c-8.747-7.757-13.753-19.324-13.753-31.866,0-22.355,16.105-40.543,35.9-40.543s35.9,18.188,35.9,40.543c0,12.542-5.006,24.109-13.753,31.866a23.788,23.788,0,0,1,.28,3.488C191.284,203.785,181.224,214.546,168.854,214.546Zm0-97.2c-18.312,0-33.212,16.977-33.212,37.852,0,12.02,4.877,23.071,13.382,30.316a1.351,1.351,0,0,1,.458,1.243,23.032,23.032,0,0,0-.355,3.795c0,11.745,8.855,21.294,19.733,21.294S188.6,202.3,188.6,190.555a22.26,22.26,0,0,0-.361-3.789,1.343,1.343,0,0,1,.458-1.249c8.5-7.245,13.382-18.3,13.382-30.316C202.066,134.326,187.166,117.349,168.854,117.349Z" transform="translate(-132.951 -114.663)"/>
            </g>
            <g id="Grupo_1155197" data-name="Grupo 1155197" transform="translate(16.687 32.487)">
              <path id="Trazado_991972" data-name="Trazado 991972" d="M158.228,186.156c-2,0-4.043-1.879-4.984-2.751-4.1-3.768-3.881-9.027-3.558-16.972a144.7,144.7,0,0,0,.021-15.158c-.3-4.947-.705-11.885-2.46-17.263a8.141,8.141,0,0,1-5.135.264,10.043,10.043,0,0,1-5.776-5.9,2.934,2.934,0,0,1,.016-2.589c.969-1.41,4.129-.705,5.49-.14,2.788,1.136,4.629,3.886,5.878,7.315a22.268,22.268,0,0,0,7.164-5.254c-.651-.517-1.227-.964-1.733-1.346-2.04-1.566-2.971-2.282-2.729-3.305.307-1.287,2.465-2.024,4.225-2.266.764-.113,3.343-.35,4.037.915.8,1.453-1.292,4.279-2.228,5.426q-.194.242-.4.484a66.71,66.71,0,0,1,5.216,4.694,6.437,6.437,0,0,1,2.794-2.718c2.406-1.141,5.937-.63,8.036.415.748.371,1.674,1,1.841,1.836a2.6,2.6,0,0,1-.813,2.1,9.03,9.03,0,0,1-6.583,2.858c-2.035-.108-3.047-1.109-5.044-3.117-2.546,5.921-1.41,17.7-.382,28.373,1.163,12.079,2.164,22.516-1.938,23.948A2.87,2.87,0,0,1,158.228,186.156Zm-10.233-52.423c1.8,5.5,2.223,12.488,2.514,17.489a146.545,146.545,0,0,1-.016,15.244c-.328,8-.528,12.833,3.289,16.347.91.84,3.337,3.079,5.141,2.417,3.5-1.222,2.481-11.853,1.4-23.108-1.1-11.39-2.223-23.087.565-29.062a66.526,66.526,0,0,0-5.367-4.839A22.2,22.2,0,0,1,147.995,133.733Zm13.888-.824c2.11,2.121,2.982,3,4.715,3.079a7.988,7.988,0,0,0,5.932-2.578,1.947,1.947,0,0,0,.63-1.41c-.075-.388-.6-.867-1.4-1.265-1.938-.974-5.162-1.437-7.326-.414A5.676,5.676,0,0,0,161.882,132.91Zm-23.34-7.138a1.878,1.878,0,0,0-1.529.479,2.314,2.314,0,0,0,.086,1.868,9.179,9.179,0,0,0,5.254,5.394,7.4,7.4,0,0,0,4.629-.264c-1.173-3.24-2.891-5.813-5.442-6.852A8.356,8.356,0,0,0,138.543,125.772Zm17.413-4.258a9.4,9.4,0,0,0-1.19.081c-1.83.253-3.386.98-3.553,1.658-.118.517.786,1.211,2.438,2.476.517.4,1.109.85,1.782,1.383.14-.161.28-.328.409-.484,1.906-2.336,2.449-3.978,2.148-4.527C157.781,121.724,156.989,121.514,155.956,121.514Z" transform="translate(-136.051 -120.698)"/>
            </g>
            <path id="Trazado_991973" data-name="Trazado 991973" d="M137.05,136.216c0,1.986,6.389,3.6,14.275,3.6s14.275-1.609,14.275-3.6-6.389-3.6-14.275-3.6S137.05,134.229,137.05,136.216Z" transform="translate(-114.986 -35.962)"/>
            <path id="Trazado_991974" data-name="Trazado 991974" d="M137.05,137.1c0,1.986,6.389,3.6,14.275,3.6s14.275-1.609,14.275-3.6-6.389-3.6-14.275-3.6S137.05,135.11,137.05,137.1Z" transform="translate(-114.986 -32.1)"/>
            <path id="Trazado_991975" data-name="Trazado 991975" d="M137.05,137.895c0,1.986,6.389,3.6,14.275,3.6s14.275-1.609,14.275-3.6-6.389-3.6-14.275-3.6S137.05,135.909,137.05,137.895Z" transform="translate(-114.986 -28.603)"/>
          </g>
        </g>
        <g id="Grupo_1155207" data-name="Grupo 1155207" transform="translate(34.921 124.84)">
          <g id="Grupo_1155206" data-name="Grupo 1155206">
            <g id="Grupo_1155200" data-name="Grupo 1155200" transform="translate(138.43 119.609)">
              <path id="Trazado_991976" data-name="Trazado 991976" d="M140.428,227.034a1.978,1.978,0,0,1-.35-.032,2.02,2.02,0,0,1-1.642-2.336l11.53-66.321a2.019,2.019,0,1,1,3.978.694l-11.53,66.321A2.018,2.018,0,0,1,140.428,227.034Z" transform="translate(-138.407 -156.675)"/>
            </g>
            <g id="Grupo_1155201" data-name="Grupo 1155201" transform="translate(144.968 112.299)">
              <path id="Trazado_991977" data-name="Trazado 991977" d="M151.968,223.981a2.02,2.02,0,0,1-1.992-1.7l-10.33-64.631a2.017,2.017,0,1,1,3.983-.64l10.324,64.631a2.017,2.017,0,0,1-1.674,2.315A2.857,2.857,0,0,1,151.968,223.981Z" transform="translate(-139.621 -155.317)"/>
            </g>
            <path id="Trazado_991978" data-name="Trazado 991978" d="M113.22,221.142c5.3,27.145,66.7,38.761,109.873,32.878,39.353-5.3,75.45-26.839,73.529-36.3-1.05-4.958-11.88-5.054-12.736-10.706-1.265-9.42,27.931-14.706,28.674-24.761,1.141-14.313-54.49-43.762-109.889-32.959C147.589,160.042,107.574,192.177,113.22,221.142ZM237,180.858c-.178-5.943,12.052-11.282,27.334-11.885,15.217-.511,27.8,3.919,27.99,9.942.269,6.007-11.977,11.266-27.258,11.869C249.851,191.295,237.277,186.87,237,180.858Z" transform="translate(-112.689 -79.613)" fill="#fff"/>
            <g id="Grupo_1155203" data-name="Grupo 1155203" transform="translate(151.952)">
              <g id="Grupo_1155202" data-name="Grupo 1155202" transform="translate(0 28.275)">
                <path id="Trazado_991979" data-name="Trazado 991979" d="M142.939,222.037a2.156,2.156,0,0,1-.366-.032,2.01,2.01,0,0,1-1.62-2.347l14.318-78.3a2.038,2.038,0,0,1,2.347-1.626,2.012,2.012,0,0,1,1.62,2.352l-14.318,78.3A2.012,2.012,0,0,1,142.939,222.037Z" transform="translate(-140.919 -139.707)"/>
              </g>
              <path id="Trazado_991980" data-name="Trazado 991980" d="M143.4,163.634q4.95,1.058,9.9,2.121a69.911,69.911,0,0,0,9.6-27.91l-17.069-3.391c-.312,1.077-.608,2.18-.877,3.31A75.423,75.423,0,0,0,143.4,163.634Z" transform="translate(-132.102 -134.454)" fill="#fff"/>
              <path id="Trazado_991981" data-name="Trazado 991981" d="M143.463,139.707q-.339,11.175-.673,22.349,2.681.573,5.367,1.141,3.391-10.238,6.777-20.471Q149.209,141.217,143.463,139.707Z" transform="translate(-132.717 -111.431)" fill="#d2eaff"/>
            </g>
            <g id="Grupo_1155205" data-name="Grupo 1155205" transform="translate(130.127 40.016)">
              <g id="Grupo_1155204" data-name="Grupo 1155204" transform="translate(5.59 17.091)">
                <path id="Trazado_991982" data-name="Trazado 991982" d="M146.873,199.208a2.021,2.021,0,0,1-2-1.739l-6.955-50.1a2.02,2.02,0,0,1,1.723-2.277,1.994,1.994,0,0,1,2.277,1.717l6.955,50.1a2.021,2.021,0,0,1-1.723,2.277A1.637,1.637,0,0,1,146.873,199.208Z" transform="translate(-137.902 -145.063)"/>
              </g>
              <path id="Trazado_991983" data-name="Trazado 991983" d="M141.208,161.336l6.4-.694a44.468,44.468,0,0,0,.231-18.754q-5.49.678-10.975,1.351c.027.711.07,1.437.129,2.169A47.846,47.846,0,0,0,141.208,161.336Z" transform="translate(-136.864 -141.888)" fill="#fff"/>
              <path id="Trazado_991984" data-name="Trazado 991984" d="M137.539,147.58q1.373,5.482,2.74,10.97l4.968-.194q.008-6.855.016-13.7Q141.4,146.122,137.539,147.58Z" transform="translate(-133.906 -129.774)" fill="#d2eaff"/>
            </g>
          </g>
          <path id="Trazado_991985" data-name="Trazado 991985" d="M127.015,156.425c0,3.676,7.251,6.659,16.2,6.659s16.2-2.982,16.2-6.659-7.251-6.658-16.2-6.658S127.015,152.749,127.015,156.425Z" transform="translate(-49.903 -67.341)" fill="#fedd4d"/>
          <path id="Trazado_991986" data-name="Trazado 991986" d="M120.365,158.746c0,3.676,7.251,6.658,16.2,6.658s16.2-2.982,16.2-6.658-7.251-6.659-16.2-6.659S120.365,155.07,120.365,158.746Z" transform="translate(-79.049 -57.168)"/>
          <path id="Trazado_991987" data-name="Trazado 991987" d="M116.05,163.416c0,3.676,7.251,6.658,16.2,6.658s16.2-2.982,16.2-6.658-7.251-6.658-16.2-6.658S116.05,159.74,116.05,163.416Z" transform="translate(-97.96 -36.701)" fill="#f17cf3"/>
          <path id="Trazado_991988" data-name="Trazado 991988" d="M121.537,167.506c0,3.676,7.251,6.659,16.2,6.659s16.2-2.982,16.2-6.659-7.251-6.658-16.2-6.658S121.537,163.83,121.537,167.506Z" transform="translate(-73.912 -18.775)"/>
          <path id="Trazado_991989" data-name="Trazado 991989" d="M130.564,167.757c0,3.676,7.251,6.658,16.2,6.658s16.2-2.982,16.2-6.658-7.251-6.658-16.2-6.658S130.564,164.075,130.564,167.757Z" transform="translate(-34.349 -17.679)" fill="#e8493d"/>
        </g>
      </g>
    </g>
  </g>
</svg>
