<svg xmlns="http://www.w3.org/2000/svg" width="353.006" height="340.829" viewBox="0 0 353.006 340.829">
  <g id="_24" data-name="24" transform="translate(1108.745 -2283.522)">
    <g id="_x31_3" transform="translate(-1108.745 2289.066)">
      <g id="Grupo_1155021" data-name="Grupo 1155021" transform="translate(0 0)">
        <path id="Trazado_991617" data-name="Trazado 991617" d="M481.358,353.8c-3.5-4.9,8.942-14.065,12.829-39.722,1.386-9.142,2.827-20.091-3.044-25.746-6.769-6.52-19.836-1.22-28.873.188-34.966,5.439-91.641-34.688-91.492-78.186.178-51.758,77.726-74.205,91.492-78.186,16.842-4.868,24.05-3.077,28.64-.5,17.707,9.962,10.506,39.589,29.3,50.106,10.472,5.854,15.717-1.807,26.578,3.321,25.131,11.87,33.153,69.532,13.139,87.079-5.45,4.779-14.542,7.956-20.851,19.359-1.8,3.243-4.48,8.155-3.737,14.12,1.148,9.22,9.2,11.565,9.962,17.025C547.48,338.2,488.421,363.684,481.358,353.8Z" transform="translate(-218.193 -71.826)" fill="#ac59f1"/>
        <path id="Trazado_991618" data-name="Trazado 991618" d="M453.854,230.383c-23.556,13.084-11.681,46.02-40.094,60.335-19.065,9.608-49.43,13.854-58.777.687-7.806-10.994,16.776-25.713,18.683-61.022.981-18.151-4.84-21.394-2.073-35.731,4.435-23,23.811-37.388,35.293-45.676,52.906-38.181,125.6-33.485,128.724-22.009,1.214,4.48-8.471,10.2-6.231,14.531,2.95,5.7,21.438-.737,24.083,4.568,2.556,5.123-13.233,14-11.21,21.594,2.528,9.469,29.25,4.114,33.635,13.7,4.707,10.284-17.99,39.883-49.973,48.892C491.935,239.835,475.841,218.17,453.854,230.383Z" transform="translate(-296.9 -118.757)" fill="#e23e64"/>
        <path id="Trazado_991619" data-name="Trazado 991619" d="M553.958,237.694c8.3,10.5,24.87.676,35.709,8.3,18.4,12.94,16.864,73.707-19.515,103.394-32.648,26.644-86.818,22.913-101.726.438-10.783-16.255,6.154-32.654-4.857-47.39-21.206-28.374-91.187,4.3-107.591-20.84-2.134-3.265-6.27-11.975,5.866-40.875,11.038-26.278,43.708-108.168,106.588-109.1,32.393-.482,71.45,20.5,77.643,46.636a250.408,250.408,0,0,1,4.679,30.192C552.012,226.667,549.59,232.155,553.958,237.694Z" transform="translate(-296.521 -60.339)" fill="#3c98e7"/>
        <path id="Trazado_991620" data-name="Trazado 991620" d="M481.47,332.073c.3,4,85.709-6.741,93.548,17.048a10.33,10.33,0,0,1,.532,3.3c.294,26.14-68.174,60.833-124.622,45.355-22.691-6.22-57.18-24.321-58.638-47.018-.615-9.563,4.807-17.308,0-23.251-6.847-8.465-22.037,2.04-34.456-5.9-14.093-9.014-18.517-37.893-7.623-52.224,6.049-7.961,16.593-8.028,20.485-18.273,2.816-7.418,2.473-17.413-2.766-23.806-5.921-7.224-13.444-4.413-18.822-9.968-8.743-9.02-2.079-30.076,2.766-40.415,16.05-34.234,63.766-61.017,85.26-46.508,15.795,10.661-14.569,53.288,6.093,75.852,7.484,8.177,18.716,11.016,19.21,20.141.477,8.787-9.724,11.265-11.509,19.027-5.439,23.639,76.65,54.308,72.348,72.071C520.439,329.24,481.271,329.379,481.47,332.073Z" transform="translate(-339.33 -84.133)" fill="#d2eaff"/>
        <path id="Trazado_991621" data-name="Trazado 991621" d="M410.53,167.922c4.3,6.531,18.09.166,21.8,5.477,4.408,6.3-8.77,24.216-22.214,36.335-16.565,14.935-39.157,26.156-43.6,21.178-5.167-5.788,17.02-30.364,10.378-37.638-2.783-3.049-7.451.416-15.362-2.223-9.43-3.143-18.522-13.3-18.273-23.124.383-14.963,22.3-23.19,33.635-25.347,12.823-2.445,30.841-.687,34.467,7.989C414.023,156.923,407.209,162.877,410.53,167.922Z" transform="translate(-343.255 -15.083)" fill="#ac59f1"/>
        <path id="Trazado_991622" data-name="Trazado 991622" d="M417.069,142.46a18.547,18.547,0,0,1-1.109,11.348c-.488,1.1-2.068,4.374-6.919,8.028-1.8,1.353-10.505,7.628-22.248,7.545-14.52-.105-33.247-9.935-33.252-21.9-.011-11.836,18.3-21.754,33.252-21.9C399.362,125.462,414.624,132.193,417.069,142.46Z" transform="translate(-296.517 -87.743)" fill="#3c98e7"/>
        <path id="Trazado_991623" data-name="Trazado 991623" d="M555.738,177.993c6.913,26.478-112.209,80.559-125.964,64.06-2.251-2.7-2.412-8.161-7.213-10.389-6.9-3.21-13.926,4.674-22.791,6.68-20.341,4.6-50.777-21.693-47.617-37.787,1.641-8.344,12.457-14.664,43.553-21.716C446.8,167.244,549.568,154.36,555.738,177.993Z" transform="translate(-303.856 90.16)" fill="#e23e64"/>
      </g>
      <g id="Grupo_1155062" data-name="Grupo 1155062" transform="translate(75.176 42.598)">
        <path id="Trazado_991624" data-name="Trazado 991624" d="M496.293,185.321c.549,2.445-1.43,7-40.022,26.018-20.2,9.946-27.714,12.668-34.605,9.414-6.048-2.855-4.535-7.362-10.517-13.012-14.852-14.015-37.2.521-48.582-11.725-6.664-7.168-6.758-20.5-1.8-27.958,3.049-4.585,7.656-6.42,9.552-7.2,33.341-13.66,40.11-32.626,65.746-33.125,22.907-.444,47.683,14.12,48.8,27.736.6,7.318-5.682,13.117-2.3,19.881C486.092,182.388,495.317,180.963,496.293,185.321Z" transform="translate(-354.701 -120.601)"/>
        <g id="Grupo_1155057" data-name="Grupo 1155057" transform="translate(10.618 49.507)">
          <path id="Trazado_991625" data-name="Trazado 991625" d="M449.038,178.822q-40.931-.241-81.856-.488a17.814,17.814,0,0,1,4.812-9.425c6.082-5.888,13.727-2.977,19.9-7.6,3.26-2.445,6.714-7.362,7.157-18.228.421-.022.832-.055,1.242-.089q3.75-.258,7.479-.521,3.726.266,7.468.521c.421.033.82.072,1.242.089.455,10.866,3.892,15.784,7.163,18.228,6.137,4.59,13.511,1.8,19.886,7.6A19.265,19.265,0,0,1,449.038,178.822Z" transform="translate(-320.326 -103.113)" fill="#ff7866"/>
          <path id="Trazado_991626" data-name="Trazado 991626" d="M387.839,148.621c0,3.6-3.282,6.52-7.329,6.52s-7.329-2.916-7.329-6.52,3.282-6.52,7.329-6.52S387.839,145.023,387.839,148.621Z" transform="translate(-293.067 -104.789)" fill="#210b04"/>
          <path id="Trazado_991627" data-name="Trazado 991627" d="M388.385,135.372a35.035,35.035,0,0,0-4.291.222,14.3,14.3,0,0,0-12.629,14.2v14.725A21.4,21.4,0,0,0,379.16,177.1a20.465,20.465,0,0,0,8.776,3.886c.128,0,.255-.006.382-.011s.25.011.383.011a20.464,20.464,0,0,0,8.776-3.886,21.4,21.4,0,0,0,7.695-12.585V149.792a14.293,14.293,0,0,0-12.629-14.2A34.5,34.5,0,0,0,388.385,135.372Z" transform="translate(-300.865 -135.371)" fill="#ff7866"/>
          <g id="Grupo_1155022" data-name="Grupo 1155022" transform="translate(65.705 18.922)">
            <ellipse id="Elipse_11825" data-name="Elipse 11825" cx="3.958" cy="5.367" rx="3.958" ry="5.367" fill="#ff7866"/>
            <path id="Trazado_991628" data-name="Trazado 991628" d="M384.914,144.151c0,2.966-1.774,5.367-3.958,5.367s-3.958-2.4-3.958-5.367,1.774-5.367,3.958-5.367S384.914,141.184,384.914,144.151Z" transform="translate(-341.433 -138.784)" fill="#ff7866"/>
          </g>
          <path id="Trazado_991629" data-name="Trazado 991629" d="M374.193,141.3a3.8,3.8,0,0,1,3.437,0,3.439,3.439,0,0,1-1.719.41A3.577,3.577,0,0,1,374.193,141.3Z" transform="translate(-288.469 -110.301)" fill="#210b04"/>
          <path id="Trazado_991630" data-name="Trazado 991630" d="M422.895,149.94a1.444,1.444,0,0,1,.931.288,1.659,1.659,0,0,1,.41,1.863h-54.9a1.331,1.331,0,0,1,1.452-1.863,46.55,46.55,0,0,1,16.865-1.452c3.171.333,4,.793,7.5.959,6.237.3,8.959-.881,14.043-1.22A42.03,42.03,0,0,1,422.895,149.94Z" transform="translate(-310.998 -76.033)" fill="#fff"/>
          <g id="Grupo_1155023" data-name="Grupo 1155023" transform="translate(64.391 61.694)">
            <path id="Trazado_991631" data-name="Trazado 991631" d="M373.91,147.314a3.215,3.215,0,0,0,3.138,1.164,3.383,3.383,0,0,0,2.329-1.979Z" transform="translate(-354.146 -146.499)" fill="#210b04"/>
            <path id="Trazado_991632" data-name="Trazado 991632" d="M374.959,147.4a14.077,14.077,0,0,0,1.8.7,15.724,15.724,0,0,0,6.337.521c5.544-.466,10.661-1.242,12.385-1.513q-5.963.2-11.919.4Z" transform="translate(-349.379 -143.736)" fill="#210b04"/>
            <path id="Trazado_991633" data-name="Trazado 991633" d="M390.869,147.4a14.076,14.076,0,0,1-1.8.7,15.724,15.724,0,0,1-6.337.521c-5.544-.466-10.661-1.242-12.385-1.513q5.962.2,11.919.4Z" transform="translate(-370.345 -143.736)" fill="#210b04"/>
          </g>
          <path id="Trazado_991634" data-name="Trazado 991634" d="M441.912,255.486a101.049,101.049,0,0,1-22.78,6.486,102.1,102.1,0,0,1-13.782,1.308c-.15-2.362-.9-2.362-1.109,0a102.849,102.849,0,0,1-36.562-7.795,71.622,71.622,0,0,1,9.2-29.117,68.029,68.029,0,0,1,9.707-12.923l-2.866-14.935c-1.053-5.533-2.112-11.116-3.215-16.648a12.01,12.01,0,0,1-5.533-5.732c0-1.558.05-3.116.15-4.779a55.917,55.917,0,0,1,.654-6.037,12.719,12.719,0,0,1,1.259-1.608c-.1-.4-.15-.854-.25-1.258-.455-2.362-.9-4.679-1.358-7.091a22.239,22.239,0,0,1,6.991-5.483c10.057-5.028,20.618-.15,22.281.654,1.863-.8,12.424-5.682,22.53-.654a21.956,21.956,0,0,1,6.941,5.483c-.455,2.362-.9,4.679-1.358,6.991-.1.5-.15.9-.25,1.358.2.249.455.5.654.754a50.864,50.864,0,0,1,1,6.486,49.37,49.37,0,0,1,.3,5.383,12.071,12.071,0,0,1-5.433,5.533c-1.208,6.037-2.362,12.119-3.52,18.156q-1.281,6.711-2.567,13.427a68.638,68.638,0,0,1,9.707,12.923A70.889,70.889,0,0,1,441.912,255.486Z" transform="translate(-318.068 -79.665)" fill="#ff7866"/>
          <path id="Trazado_991635" data-name="Trazado 991635" d="M375.027,202.676q-5.43-4.432-10.866-8.859A162.84,162.84,0,0,1,375.715,161.7c2.29-4.729,4.679-9.087,7.085-13.073a10.494,10.494,0,0,1,10.55,1.319,10.215,10.215,0,0,1,3.526,6.309Q385.957,179.469,375.027,202.676Z" transform="translate(-334.054 -78.973)" fill="#ff7866"/>
          <path id="Trazado_991636" data-name="Trazado 991636" d="M397.591,203.648q5.73-4.041,11.454-8.083a162.539,162.539,0,0,0-9.3-32.842c-1.957-4.879-4.042-9.386-6.165-13.533a10.472,10.472,0,0,0-10.617.588A10.262,10.262,0,0,0,379,155.826Q388.3,179.742,397.591,203.648Z" transform="translate(-266.617 -77.86)" fill="#ff7866"/>
          <path id="Trazado_991637" data-name="Trazado 991637" d="M384.671,142.2a27.151,27.151,0,0,1-5.45,1.452c-1.868.3-3.548.543-3.9-.116-.41-.765,1.053-2.55,2.65-3.515,2.628-1.591,6.52-1.513,7.212-.039C385.336,140.318,385.436,140.972,384.671,142.2Z" transform="translate(-283.673 -119.566)" fill="#e8493d"/>
          <g id="Grupo_1155024" data-name="Grupo 1155024" transform="translate(91.166 22.212)">
            <path id="Trazado_991638" data-name="Trazado 991638" d="M378.481,141.7a15.257,15.257,0,0,1-2.971-.3.415.415,0,0,1-.327-.488.437.437,0,0,1,.488-.327,14.485,14.485,0,0,0,2.783.283,14.845,14.845,0,0,0,6.365-1.447.415.415,0,1,1,.36.748A15.523,15.523,0,0,1,378.481,141.7Z" transform="translate(-375.174 -139.377)"/>
          </g>
          <path id="Trazado_991639" data-name="Trazado 991639" d="M372.5,142.2a27.051,27.051,0,0,0,5.45,1.452c1.874.3,3.548.543,3.9-.116.41-.765-1.054-2.55-2.65-3.515-2.628-1.591-6.52-1.513-7.212-.039C371.835,140.318,371.735,140.972,372.5,142.2Z" transform="translate(-298.973 -119.566)" fill="#e8493d"/>
          <g id="Grupo_1155025" data-name="Grupo 1155025" transform="translate(73.113 22.221)">
            <path id="Trazado_991640" data-name="Trazado 991640" d="M378.858,141.7a15.638,15.638,0,0,1-6.7-1.53.409.409,0,0,1-.194-.554.422.422,0,0,1,.555-.194,14.826,14.826,0,0,0,6.348,1.447,14.655,14.655,0,0,0,2.811-.283.43.43,0,0,1,.488.327.407.407,0,0,1-.327.488,15.326,15.326,0,0,1-2.944.3A.071.071,0,0,0,378.858,141.7Z" transform="translate(-371.918 -139.379)"/>
          </g>
          <g id="Grupo_1155026" data-name="Grupo 1155026" transform="translate(91.328 12.857)">
            <path id="Trazado_991641" data-name="Trazado 991641" d="M386.537,139.9a24.046,24.046,0,0,0-6.054-.205,23.573,23.573,0,0,0-5.173,1.064,4.038,4.038,0,0,1,.061-.97,4.639,4.639,0,0,1,.854-1.94c1.68-.139,3.088-.166,4.119-.161a10.234,10.234,0,0,1,3.659.377A5.952,5.952,0,0,1,386.537,139.9Z" transform="translate(-374.749 -137.69)" fill="#210b04"/>
            <path id="Trazado_991642" data-name="Trazado 991642" d="M375.732,137.838a4.974,4.974,0,0,0-.41,1.175,3.214,3.214,0,0,0-.022,1.73,4.977,4.977,0,0,0,.371-1.342,5.673,5.673,0,0,1,.383-1.392c.061-.133.116-.238.15-.311Z" transform="translate(-375.204 -137.648)" fill="#210b04"/>
          </g>
          <g id="Grupo_1155027" data-name="Grupo 1155027" transform="translate(71.16 13.688)">
            <path id="Trazado_991643" data-name="Trazado 991643" d="M371.566,140.053a24.043,24.043,0,0,1,6.054-.205,23.573,23.573,0,0,1,5.172,1.064,4.025,4.025,0,0,0-.061-.97,4.633,4.633,0,0,0-.854-1.94c-1.68-.139-3.088-.166-4.119-.161a10.234,10.234,0,0,0-3.659.377A6.026,6.026,0,0,0,371.566,140.053Z" transform="translate(-371.566 -137.84)" fill="#210b04"/>
            <path id="Trazado_991644" data-name="Trazado 991644" d="M373.984,137.983a4.967,4.967,0,0,1,.41,1.175,3.214,3.214,0,0,1,.022,1.73,4.973,4.973,0,0,1-.371-1.342,5.575,5.575,0,0,0-.383-1.386c-.061-.133-.116-.238-.15-.31Z" transform="translate(-362.719 -137.794)" fill="#210b04"/>
          </g>
          <g id="Grupo_1155028" data-name="Grupo 1155028" transform="translate(0 145.523)">
            <path id="Trazado_991645" data-name="Trazado 991645" d="M368.053,190.344c-8.343-5.9-11.232-15.307-8.077-21.588,2.173-4.33,6.686-6.1,8.51-6.7a198.569,198.569,0,0,1,72.653,8.676q5.264,13.339,10.533,26.677-3.426,6.611-6.852,13.217c-3.559.327-10.955.443-17.857-4.014a25.177,25.177,0,0,1-4.014-3.227q-8.049-2.378-16.532-4.585C393.123,195.339,380.3,192.567,368.053,190.344Z" transform="translate(-358.73 -161.62)" fill="#ff7866"/>
            <path id="Trazado_991646" data-name="Trazado 991646" d="M417.753,212.764q-22.628-7.684-45.261-15.362-3.6-17.887-7.2-35.78a175.523,175.523,0,0,1,50.239,9.757c13.089,8.948,17.89,22.957,13.427,32.111C426.329,208.905,420.974,211.566,417.753,212.764Z" transform="translate(-328.896 -161.615)"/>
          </g>
          <g id="Grupo_1155029" data-name="Grupo 1155029" transform="translate(70.793 145.523)">
            <path id="Trazado_991647" data-name="Trazado 991647" d="M456.7,190.344c8.344-5.9,11.232-15.307,8.078-21.588-2.173-4.33-6.686-6.1-8.51-6.7a198.569,198.569,0,0,0-72.653,8.676q-5.264,13.339-10.533,26.677,3.426,6.611,6.852,13.217c3.559.327,10.955.443,17.857-4.014a25.176,25.176,0,0,0,4.014-3.227q8.049-2.378,16.532-4.585C431.629,195.339,444.452,192.567,456.7,190.344Z" transform="translate(-364.323 -161.62)" fill="#ff7866"/>
            <path id="Trazado_991648" data-name="Trazado 991648" d="M384.336,212.764Q406.963,205.08,429.6,197.4q3.6-17.887,7.2-35.78a175.522,175.522,0,0,0-50.239,9.757c-13.089,8.948-17.89,22.957-13.427,32.111C375.759,208.905,381.12,211.566,384.336,212.764Z" transform="translate(-371.5 -161.615)"/>
          </g>
          <g id="Grupo_1155031" data-name="Grupo 1155031" transform="translate(5.088 154.826)">
            <path id="Trazado_991649" data-name="Trazado 991649" d="M445.041,203.259q-.649,3.451-1.292,6.908c-3.992-.9-10.339-2.267-18.206-3.592-25.84-4.346-33.729-3.531-44.263-8.676-5.788-2.827-13.937-8.272-21.632-19.847q4.258-7.376,8.51-14.752c13.394,8.133,27.98,16.327,43.758,24.327C423.287,193.385,434.358,198.58,445.041,203.259Z" transform="translate(-359.648 -163.298)" fill="#ff7866"/>
            <g id="Grupo_1155030" data-name="Grupo 1155030" transform="translate(17.053 6.356)">
              <path id="Trazado_991650" data-name="Trazado 991650" d="M381.917,174.432c-.183-.044-18.96-9.2-18.96-9.2a.418.418,0,1,1,.372-.748l18.777,9.153a.418.418,0,0,1,.189.56A.425.425,0,0,1,381.917,174.432Z" transform="translate(-362.724 -164.444)"/>
            </g>
            <path id="Trazado_991651" data-name="Trazado 991651" d="M394.849,189.11a71,71,0,0,1-21.344-3.337q.507-4.358,1.02-8.71c20.828-1.835,28.224-3.892,30.286-5.671a13.463,13.463,0,0,1,4.5-2.456c1.186-.377,3.326-1.053,4.258-.205,1.458,1.32-1.425,6.536-1.7,7.024q-2.42,5.572-4.845,11.143Z" transform="translate(-296.683 -140.468)" fill="#ff7866"/>
          </g>
          <g id="Grupo_1155033" data-name="Grupo 1155033" transform="translate(52.012 153.463)">
            <path id="Trazado_991652" data-name="Trazado 991652" d="M373.866,203.007q.649,3.459,1.292,6.913c3.992-.9,10.339-2.267,18.206-3.592,25.84-4.346,33.729-3.531,44.263-8.676,5.788-2.827,13.937-8.272,21.632-19.847q-4.258-7.376-8.51-14.752c-13.394,8.133-27.98,16.327-43.758,24.327C395.62,193.133,384.549,198.323,373.866,203.007Z" transform="translate(-341.967 -163.052)" fill="#ff7866"/>
            <g id="Grupo_1155032" data-name="Grupo 1155032" transform="translate(80.625 6.35)">
              <path id="Trazado_991653" data-name="Trazado 991653" d="M383.071,174.185a.418.418,0,0,1-.183-.793l18.783-9.153a.414.414,0,0,1,.366.743l-18.783,9.153A.364.364,0,0,1,383.071,174.185Z" transform="translate(-382.655 -164.197)"/>
            </g>
            <path id="Trazado_991654" data-name="Trazado 991654" d="M387.238,188.861a71,71,0,0,0,21.344-3.337q-.507-4.358-1.02-8.71c-20.828-1.835-28.224-3.892-30.286-5.671a13.47,13.47,0,0,0-4.5-2.456c-1.186-.377-3.326-1.048-4.258-.205-1.458,1.319,1.425,6.536,1.7,7.024q2.42,5.572,4.845,11.143Z" transform="translate(-368.112 -140.224)" fill="#ff7866"/>
          </g>
          <path id="Trazado_991655" data-name="Trazado 991655" d="M430.15,174.361c-1.4,1.929-10.611,14.226-27.127,15.712-20.873,1.879-33.652-15.279-34.256-16.122a90.56,90.56,0,0,1,8.832-10.539q2.046-2.1,4.064-3.909a66.106,66.106,0,0,0,23.179,2.389,65.221,65.221,0,0,0,13.217-2.389c1.436,1.3,2.916,2.772,4.408,4.413A64.218,64.218,0,0,1,430.15,174.361Z" transform="translate(-313.124 -25.716)"/>
          <path id="Trazado_991656" data-name="Trazado 991656" d="M428.535,172.037a73.033,73.033,0,0,1-2.567,21.472,26.374,26.374,0,0,1-6.387,2.212,16.46,16.46,0,0,1-7.141-.2c-2.062-.554-2.517-1.159-4.524-1.763-6.337-2.012-11.565.554-15.889,1.558a26.2,26.2,0,0,1-14.281-1.109,42.207,42.207,0,0,1-6.487-2.766A81.527,81.527,0,0,1,369,171.826c0-1.558.05-3.116.15-4.779a55.9,55.9,0,0,1,.654-6.037c.05-.5.15-1.053.2-1.558a9.7,9.7,0,0,1,.8-1.308c1.7-2.34,3.642-2.816,5.156-4.1a8.785,8.785,0,0,0,2.766-5.466c.3.687,5.794,12.513,18.478,14.22,9.724,1.308,19.537-3.886,24.36-13.045a10.2,10.2,0,0,0,2.495,6.159,9.786,9.786,0,0,0,2.766,2.14c.15.7.3,1.408.4,2.112a61.069,61.069,0,0,1,1.3,11.875Z" transform="translate(-312.081 -75.372)" fill="#fff"/>
          <g id="Grupo_1155034" data-name="Grupo 1155034" transform="translate(62.315 59.815)">
            <path id="Trazado_991657" data-name="Trazado 991657" d="M375.057,161.594a.379.379,0,0,1-.36-.266q-2.353-7.335-4.707-14.675a.369.369,0,0,1,.244-.471.378.378,0,0,1,.471.244q2.353,7.335,4.707,14.675a.371.371,0,0,1-.244.471A.247.247,0,0,1,375.057,161.594Z" transform="translate(-369.97 -146.16)" fill="#fff"/>
          </g>
          <g id="Grupo_1155035" data-name="Grupo 1155035" transform="translate(109.135 60.169)">
            <path id="Trazado_991658" data-name="Trazado 991658" d="M378.794,161.22a.393.393,0,0,1-.371-.455l2.872-14.242a.382.382,0,0,1,.444-.294.371.371,0,0,1,.294.444l-2.872,14.242A.365.365,0,0,1,378.794,161.22Z" transform="translate(-378.416 -146.224)" fill="#fff"/>
          </g>
          <path id="Trazado_991659" data-name="Trazado 991659" d="M382.987,144.432c0,1.658-2.073,3-4.629,3s-4.629-1.342-4.629-3,2.073-3,4.629-3S382.987,142.775,382.987,144.432Z" transform="translate(-290.577 -107.825)" fill="#e8493d"/>
          <g id="Grupo_1155036" data-name="Grupo 1155036" transform="translate(84.298 38.863)">
            <path id="Trazado_991660" data-name="Trazado 991660" d="M377.319,143.862a7.77,7.77,0,0,1-3.138-.687.417.417,0,0,1-.205-.554.434.434,0,0,1,.554-.205,6.579,6.579,0,0,0,2.583.61,6.179,6.179,0,0,0,2.85-.543.419.419,0,1,1,.327.771A7.541,7.541,0,0,1,377.319,143.862Z" transform="translate(-373.936 -142.381)"/>
          </g>
          <g id="Grupo_1155037" data-name="Grupo 1155037" transform="translate(80.858 35.664)">
            <path id="Trazado_991661" data-name="Trazado 991661" d="M380.011,143.407a27.749,27.749,0,0,1-6.376-.743.424.424,0,0,1-.31-.5.43.43,0,0,1,.5-.31,28.712,28.712,0,0,0,6.509.721,27.229,27.229,0,0,0,6-.759.446.446,0,0,1,.5.31.422.422,0,0,1-.31.5,28.178,28.178,0,0,1-6.181.782Z" transform="translate(-373.315 -141.804)"/>
          </g>
          <g id="Grupo_1155038" data-name="Grupo 1155038" transform="translate(52.294 181.083)">
            <path id="Trazado_991662" data-name="Trazado 991662" d="M372.41,180.746a.416.416,0,0,1-.3-.133,3.329,3.329,0,0,1-.937-1.929,2.311,2.311,0,0,1,.061-.887,1.046,1.046,0,0,0,.033-.51,1.589,1.589,0,0,0-.6-.859,2.437,2.437,0,0,1-.787-1.042,2.7,2.7,0,0,1,.394-2.212,3.276,3.276,0,0,1-2.074-2.212,2.819,2.819,0,0,1,1.026-2.523c1.231-.937,2.766-.111,5.1,1.125a39.13,39.13,0,0,0,7.939,3.365c.565.161,2.628.737,5.522,1.292,1.514.288,3.016.521,4.468.7a.413.413,0,0,1,.36.46c-.028.227-.244.438-.46.36-1.475-.177-2.994-.416-4.518-.71-2.933-.56-5.029-1.142-5.6-1.3a39.95,39.95,0,0,1-8.1-3.437c-2.306-1.22-3.432-1.78-4.2-1.2a2,2,0,0,0-.715,1.735c.189,1.192,1.968,1.735,1.99,1.735a.424.424,0,0,1,.272.261.4.4,0,0,1-.05.377,2.282,2.282,0,0,0-.571,1.913,1.629,1.629,0,0,0,.549.687,2.263,2.263,0,0,1,.865,1.32,1.745,1.745,0,0,1-.033.854,1.62,1.62,0,0,0-.05.615,2.58,2.58,0,0,0,.721,1.452.412.412,0,0,1-.022.582A.356.356,0,0,1,372.41,180.746Z" transform="translate(-368.163 -168.034)"/>
          </g>
          <g id="Grupo_1155039" data-name="Grupo 1155039" transform="translate(84.393 194.034)">
            <path id="Trazado_991663" data-name="Trazado 991663" d="M374.369,177.488a.415.415,0,0,1-.416-.394.423.423,0,0,1,.394-.438,127.936,127.936,0,0,0,28.041-4.6c1.763-.5,3.592-1.053,5.427-1.658a.41.41,0,0,1,.527.266.421.421,0,0,1-.266.527c-1.852.6-3.687,1.17-5.461,1.669a128.943,128.943,0,0,1-28.224,4.635A.033.033,0,0,0,374.369,177.488Z" transform="translate(-373.953 -170.37)"/>
          </g>
          <g id="Grupo_1155047" data-name="Grupo 1155047" transform="translate(3.733 114.844)">
            <path id="Trazado_991664" data-name="Trazado 991664" d="M363.5,202.139q-1.83-1.73-3.67-3.459a96.484,96.484,0,0,1,15.922-33.158,93.657,93.657,0,0,1,8.1-9.436q5.43,4.432,10.866,8.859a74.627,74.627,0,0,1-16.737,22.176q-13.031,17.68-14.5,16.765C363.221,203.725,363.226,203.143,363.5,202.139Z" transform="translate(-357.475 -156.086)" fill="#ff7866"/>
            <g id="Grupo_1155046" data-name="Grupo 1155046" transform="translate(0 29.832)">
              <g id="Grupo_1155044" data-name="Grupo 1155044" transform="translate(0.42)">
                <g id="Grupo_1155040" data-name="Grupo 1155040">
                  <path id="Trazado_991665" data-name="Trazado 991665" d="M376.237,179.147a60.415,60.415,0,0,1-2.744,8.238c-1.8,4.33-4.568,9.569-5.25,9.308-.344-.133-.3-1.713,1.647-8.593q-2.079,8.723-2.9,8.61-1.122-.158.078-16.676c-.715,4.4-1.231,7.834-1.575,10.19-.288,1.968-.682,4.74-1.308,4.751-.255.006-.455-.432-.532-.6-1.126-2.45-.621-13.239-.521-15.3q-2.461,10.969-3.265,10.849-.873-.133.222-13.322l5.339-15.135q4.99.241,9.979.493Q375.821,170.559,376.237,179.147Z" transform="translate(-359.48 -161.467)" fill="#ff7866"/>
                  <path id="Trazado_991666" data-name="Trazado 991666" d="M365.47,176.536c-.8,1.691-1.469,2.489-1.985,2.406q-1.089-.175-1.336-5.538.142-5.281.288-10.567l.832-1.281c1.109,1.547,4.2,6.287,3.149,11.964A12.744,12.744,0,0,1,365.47,176.536Z" transform="translate(-347.349 -161.063)" fill="#ff7866"/>
                </g>
                <g id="Grupo_1155041" data-name="Grupo 1155041" transform="translate(8.609 25.965)">
                  <path id="Trazado_991667" data-name="Trazado 991667" d="M361.446,172.54c-.349-.094-.466-.327-.394-.549l1.8-5.55a.409.409,0,0,1,.527-.266.418.418,0,0,1,.266.527l-1.8,5.55A.428.428,0,0,1,361.446,172.54Z" transform="translate(-361.032 -166.151)"/>
                </g>
                <g id="Grupo_1155042" data-name="Grupo 1155042" transform="translate(11.219 17.73)">
                  <path id="Trazado_991668" data-name="Trazado 991668" d="M361.919,171.695a.421.421,0,0,1-.416-.427l.166-6.2a.417.417,0,0,1,.416-.4.421.421,0,0,1,.416.427l-.166,6.2A.421.421,0,0,1,361.919,171.695Z" transform="translate(-361.503 -164.665)"/>
                </g>
                <g id="Grupo_1155043" data-name="Grupo 1155043" transform="translate(16.225 6.647)">
                  <path id="Trazado_991669" data-name="Trazado 991669" d="M362.822,173.371a.42.42,0,0,1-.416-.421l.072-9.874a.416.416,0,0,1,.832.011l-.072,9.874A.411.411,0,0,1,362.822,173.371Z" transform="translate(-362.406 -162.666)"/>
                </g>
              </g>
              <g id="Grupo_1155045" data-name="Grupo 1155045" transform="translate(0 0.794)">
                <path id="Trazado_991670" data-name="Trazado 991670" d="M367.373,196.475c-.593-.078-1.236-.161-.9-8.382-.089.571-.161,1.081-.227,1.541-.51,3.493-.832,5.089-1.708,5.111-.527,0-.8-.582-.92-.837-.782-1.708-.832-6.936-.726-11.188-1.763,7.179-2.306,7.019-2.755,6.969-.582-.089-1.247-.188-.128-13.766.028-.111,3.8-10.777,3.8-10.777a.393.393,0,0,1,.532-.249.416.416,0,0,1,.25.532l-3.748,10.617c-.71,8.582-.66,11.5-.521,12.479.383-.815,1.186-3.227,2.75-10.184a.386.386,0,0,1,.46-.322.413.413,0,0,1,.36.432c-.31,6.121-.338,13.305.482,15.107a2.778,2.778,0,0,0,.144.277,19.805,19.805,0,0,0,.887-4.191c.344-2.317.854-5.771,1.591-10.317a.377.377,0,0,1,.46-.349.413.413,0,0,1,.366.444c-.854,11.8-.643,15.118-.416,16.016a16.991,16.991,0,0,0,1.131-3.171.418.418,0,0,1,.809.205,17.8,17.8,0,0,0-.51,2.944,45.177,45.177,0,0,0,4.613-8.837,60.312,60.312,0,0,0,2.711-8.133.563.563,0,0,1,.133-.338,6.973,6.973,0,0,0,1.269-1.99,12.08,12.08,0,0,0,.915-2.9c.565-3.531-1.685-7.434-1.946-7.867a.405.405,0,0,1,.061-.5l3.01-3.116a.412.412,0,0,1,.582-.011.407.407,0,0,1,.011.582L377.4,165.2c.6,1.081,2.439,4.74,1.9,8.144a12.51,12.51,0,0,1-.992,3.132,8.176,8.176,0,0,1-1.331,2.123,61.129,61.129,0,0,1-2.766,8.294c-.044.111-4.236,10.118-5.782,9.547a.561.561,0,0,1-.382-.46C367.81,196.353,367.594,196.475,367.373,196.475Z" transform="translate(-359.404 -161.61)"/>
              </g>
            </g>
          </g>
          <g id="Grupo_1155054" data-name="Grupo 1155054" transform="translate(130.974 117.178)">
            <path id="Trazado_991671" data-name="Trazado 991671" d="M416.8,201.263q1.73-1.838,3.454-3.67a96.46,96.46,0,0,0-17.862-32.149,93.627,93.627,0,0,0-8.648-8.937q-5.7,4.308-11.387,8.615a99.6,99.6,0,0,0,19.093,22.009Q415.511,204,416.921,203C417.171,202.832,417.127,202.25,416.8,201.263Z" transform="translate(-382.355 -156.507)" fill="#ff7866"/>
            <g id="Grupo_1155053" data-name="Grupo 1155053" transform="translate(18.678 28.595)">
              <g id="Grupo_1155051" data-name="Grupo 1155051" transform="translate(1.718)">
                <g id="Grupo_1155048" data-name="Grupo 1155048">
                  <path id="Trazado_991672" data-name="Trazado 991672" d="M386.734,179.949A60.44,60.44,0,0,0,389.961,188c2.051,4.219,5.134,9.28,5.8,8.981.333-.15.2-1.724-2.157-8.477q2.586,8.59,3.4,8.427,1.106-.224-1.07-16.637c.976,4.346,1.7,7.745,2.179,10.079.4,1.952.959,4.69,1.586,4.668.25-.006.427-.46.5-.638.976-2.511-.166-13.25-.388-15.3q3.11,10.8,3.9,10.633.865-.183-1.009-13.283-3.119-7.393-6.231-14.791l-9.935,1.081Q386.64,171.345,386.734,179.949Z" transform="translate(-383.734 -161.665)" fill="#ff7866"/>
                  <path id="Trazado_991673" data-name="Trazado 991673" d="M387.542,176.949q1.355,2.462,2.123,2.284,1.073-.241,1-5.61l-.915-10.533c-.3-.41-.6-.82-.909-1.231-1.015,1.608-3.82,6.525-2.434,12.13A12.868,12.868,0,0,0,387.542,176.949Z" transform="translate(-386.034 -160.788)" fill="#ff7866"/>
                </g>
                <g id="Grupo_1155049" data-name="Grupo 1155049" transform="translate(9.014 26.202)">
                  <path id="Trazado_991674" data-name="Trazado 991674" d="M390.205,172.654a.42.42,0,0,1-.388-.266l-2.129-5.433a.424.424,0,0,1,.239-.543.442.442,0,0,1,.543.238l2.129,5.428a.424.424,0,0,1-.238.543A.313.313,0,0,1,390.205,172.654Z" transform="translate(-387.66 -166.391)"/>
                </g>
                <g id="Grupo_1155050" data-name="Grupo 1155050" transform="translate(7.55 18.035)">
                  <path id="Trazado_991675" data-name="Trazado 991675" d="M388.356,171.931a.42.42,0,0,1-.416-.377l-.543-6.182a.421.421,0,0,1,.377-.455.431.431,0,0,1,.455.377l.543,6.182a.421.421,0,0,1-.377.455Z" transform="translate(-387.396 -164.918)"/>
                </g>
              </g>
              <g id="Grupo_1155052" data-name="Grupo 1155052" transform="translate(0 1.621)">
                <path id="Trazado_991676" data-name="Trazado 991676" d="M399.478,196.067c-1.685,0-6.132-9.12-6.181-9.208a61.033,61.033,0,0,1-3.249-8.116,7.97,7.97,0,0,1-1.464-2.046,12.608,12.608,0,0,1-1.175-3.066c-.743-3.349.87-7.124,1.408-8.238l-2.961-2.717a.424.424,0,0,1-.028-.588.429.429,0,0,1,.587-.028l3.188,2.927a.431.431,0,0,1,.088.5c-.233.449-2.24,4.5-1.475,7.967a11.914,11.914,0,0,0,1.087,2.844,6.665,6.665,0,0,0,1.386,1.907.429.429,0,0,1,.161.333,58.282,58.282,0,0,0,3.182,7.961,45.354,45.354,0,0,0,5.128,8.549,17.172,17.172,0,0,0-.682-2.905.426.426,0,0,1,.272-.516.408.408,0,0,1,.521.255,18.12,18.12,0,0,0,1.319,3.11c.177-.915.188-4.241-1.364-15.967a.413.413,0,0,1,.344-.466.475.475,0,0,1,.477.322c1.009,4.491,1.724,7.911,2.179,10.084a20.543,20.543,0,0,0,1.159,4.252,1.985,1.985,0,0,0,.128-.288c.6-1.536.444-7.185-.41-15.107a.4.4,0,0,1,.333-.449.414.414,0,0,1,.482.294c1.968,6.841,2.911,9.2,3.349,10,.083-.987-.044-3.9-1.264-12.418l-4.369-10.384a.419.419,0,0,1,.771-.327l4.391,10.434c1.963,13.588,1.3,13.732.715,13.849-.482.072-.981.266-3.16-6.791.377,4.452.61,9.5-.05,11.2-.111.272-.355.893-.876.9-.882,0-1.3-1.6-1.99-4.951-.1-.477-.211-1.009-.333-1.586.826,8.188.194,8.321-.3,8.416-.261.067-.5-.033-.8-.455a.558.558,0,0,1-.349.477A.405.405,0,0,1,399.478,196.067Z" transform="translate(-385.724 -161.957)"/>
              </g>
            </g>
          </g>
          <g id="Grupo_1155055" data-name="Grupo 1155055" transform="translate(30.131 114.419)">
            <path id="Trazado_991677" data-name="Trazado 991677" d="M365.245,158.751a.409.409,0,0,1-.388-.283l-.665-1.9a.408.408,0,0,1,.255-.527.4.4,0,0,1,.527.255l.665,1.9a.426.426,0,0,1-.393.554Z" transform="translate(-364.165 -156.009)"/>
          </g>
          <g id="Grupo_1155056" data-name="Grupo 1155056" transform="translate(139.859 116.76)">
            <path id="Trazado_991678" data-name="Trazado 991678" d="M384.375,159.6a.419.419,0,0,1-.31-.693l2.085-2.334a.413.413,0,0,1,.588-.033.408.408,0,0,1,.033.582l-2.085,2.334A.411.411,0,0,1,384.375,159.6Z" transform="translate(-383.958 -156.432)"/>
          </g>
        </g>
        <path id="Trazado_991679" data-name="Trazado 991679" d="M375.444,143.48c0,4-.992,7.246-2.217,7.246s-2.218-3.243-2.218-7.246.992-7.246,2.218-7.246S375.444,139.477,375.444,143.48Z" transform="translate(-292.319 -81.942)"/>
        <path id="Trazado_991680" data-name="Trazado 991680" d="M417.883,138.576c4.518,6.486.05,19.321-5.089,20.28-5.716,1.064-9-15.889-18.578-16.283-5.96-.244-8.388,6.076-14.653,5.084-5.145-.809-9.879-6.071-9.015-9.081,1.092-3.786,10.994-4,23.667-4C407.71,134.585,414.6,133.87,417.883,138.576Z" transform="translate(-294.875 -89.623)"/>
        <g id="Grupo_1155058" data-name="Grupo 1155058" transform="translate(42.879)">
          <path id="Trazado_991681" data-name="Trazado 991681" d="M454.874,188.777c-9.752-6.714.227-15.967,1.619-24.138a21.315,21.315,0,0,0-4.136-17.02c-4.3-5.322-10.982-8.876-17.009-11.836-7.44-3.659-15.362-7.03-23.55-8.521-13.067-2.384-31.6.266-41.474,10.035-7.629,7.545-8.771,22.22,3.16,26.173.715.238,1.02-.887.31-1.12-8.51-2.822-10.129-12.823-6.021-19.919,3.726-6.442,10.694-9.857,17.563-11.908a59.026,59.026,0,0,1,22.2-2.678c7.917.743,15.479,3.631,22.686,6.841,12.873,5.732,28.668,14.292,24.881,30.979-1.114,4.917-5.017,8.837-5.721,13.8a10.643,10.643,0,0,0,4.9,10.317c.615.421,1.2-.587.587-1.009Z" transform="translate(-364.55 -126.441)"/>
        </g>
        <g id="Grupo_1155059" data-name="Grupo 1155059" transform="translate(36.216 58.888)">
          <path id="Trazado_991682" data-name="Trazado 991682" d="M412.463,171.208c1.214,4.435-5.982,6.819-9.075,7.706a24.48,24.48,0,0,1-11,.793c-7.268-1.331-12.446-9.269-14.581-15.872a20.756,20.756,0,0,1-.721-10.711c.532-2.534,1.691-5.256,1.109-7.883-.543-2.434-2.439-3.665-4.529-4.74a40.3,40.3,0,0,0-9.591-3.421c-.732-.166-1.042.959-.31,1.12,3.848.865,8.615,2.145,11.681,4.751,3.593,3.055.466,8.515.128,12.391-.6,6.919,2.506,13.7,6.764,18.982,2.112,2.622,4.574,4.973,7.839,6.032a21.751,21.751,0,0,0,9.852.477c4.374-.66,15.324-3.5,13.561-9.935a.584.584,0,0,0-1.126.311Z" transform="translate(-363.348 -137.063)"/>
        </g>
        <g id="Grupo_1155060" data-name="Grupo 1155060" transform="translate(0 34.363)">
          <path id="Trazado_991683" data-name="Trazado 991683" d="M402.613,159.022c-5.361,10.506-21.056,6.852-29.9,3.72-4.818-1.7-10.262-4.119-13.067-8.654-3.8-6.154.482-11.975,6.1-14.852,8.565-4.391,19.881-3.942,29.25-4.507q16.731-1.014,33.5-.92a.583.583,0,0,0,0-1.164q-22.353-.091-44.651,1.724c-8.9.737-22.514,1.585-26.328,11.52-3.864,10.068,9.236,16.227,16.654,18.578,9.12,2.888,24.077,5.677,29.444-4.851.349-.671-.654-1.258-1-.593Z" transform="translate(-356.815 -132.639)"/>
        </g>
        <g id="Grupo_1155061" data-name="Grupo 1155061" transform="translate(129.53 33.336)">
          <path id="Trazado_991684" data-name="Trazado 991684" d="M381.325,171.489c1.807-6.237,9.974-5.943,15.079-7.141a49.88,49.88,0,0,0,8.039-2.622c1.979-.832,4.03-1.685,5.056-3.687a.589.589,0,0,0-.349-.854c-4.252-1.12-8.538-2.145-12.762-3.354-1.292-.371-2.772-.87-2.589-2.578a7.249,7.249,0,0,1,1.164-2.894,10.292,10.292,0,0,1,4.291-3.853,5.837,5.837,0,0,1,2.589-.6c.787.017,1.464.089,1.536.9s-.36.687-1.1.793c-3.432.482-1.4-3.515-.377-4.962,2.478-3.5,6.5-5.367,10.284-7.113.676-.316.089-1.32-.588-1-4.607,2.129-9.652,4.618-11.831,9.519-.515,1.153-1.375,3.216-.227,4.285,1.125,1.042,3.953.593,5.089-.2,1.048-.732.571-1.852-.294-2.567-1.369-1.131-3.465-.926-5.006-.333a11.066,11.066,0,0,0-4.729,3.637c-1.059,1.4-2.467,3.77-1.951,5.616.621,2.218,3.742,2.572,5.566,3.049l10.633,2.794c-.116-.283-.233-.571-.349-.854-1.392,2.717-5.633,3.753-8.321,4.635a59.28,59.28,0,0,1-8.926,2.04c-4.491.732-9.619,2.14-11.044,7.052a.58.58,0,0,0,1.12.3Z" transform="translate(-380.179 -132.454)"/>
        </g>
      </g>
      <g id="Grupo_1155063" data-name="Grupo 1155063" transform="translate(241.392 154.952)">
        <path id="Trazado_991685" data-name="Trazado 991685" d="M387.408,150.261c.022.022-.089-.116-.194-.255a7.706,7.706,0,0,1,.954,1.624c-.072-.166-.139-.333-.211-.5a7.44,7.44,0,0,1,.521,1.885c-.022-.183-.05-.366-.072-.554.022.161.039.327.05.488a2.206,2.206,0,0,0,.61,1.469,2.12,2.12,0,0,0,1.469.61,2.082,2.082,0,0,0,2.079-2.079,9.248,9.248,0,0,0-.593-2.794,11.439,11.439,0,0,0-.687-1.469,11.246,11.246,0,0,0-.987-1.369,2.087,2.087,0,0,0-1.469-.61,2.082,2.082,0,0,0-2.079,2.079c.022.183.05.366.072.554a2.061,2.061,0,0,0,.538.92Z" transform="translate(-386.797 -146.707)"/>
      </g>
      <g id="Grupo_1155064" data-name="Grupo 1155064" transform="translate(248.559 154.974)">
        <path id="Trazado_991686" data-name="Trazado 991686" d="M388.164,149.339a6.737,6.737,0,0,0,.416,1.469,8.982,8.982,0,0,0,.926,1.791,1.512,1.512,0,0,0,.538.582,1.593,1.593,0,0,0,.71.371,1.573,1.573,0,0,0,.832.039,1.5,1.5,0,0,0,.771-.249,2.079,2.079,0,0,0,.953-1.242,2.048,2.048,0,0,0-.211-1.6,6.725,6.725,0,0,1-.7-1.247c.072.166.138.333.211.5a6.568,6.568,0,0,1-.432-1.513,1.622,1.622,0,0,0-.371-.71,1.5,1.5,0,0,0-.582-.532,2.335,2.335,0,0,0-1.6-.205,2.084,2.084,0,0,0-1.242.954c-.072.166-.139.333-.211.5a2,2,0,0,0-.005,1.1Z" transform="translate(-388.09 -146.711)"/>
      </g>
      <g id="Grupo_1155065" data-name="Grupo 1155065" transform="translate(258.277 160.773)">
        <path id="Trazado_991687" data-name="Trazado 991687" d="M389.917,150.4c.188.643.371,1.292.56,1.935a1.62,1.62,0,0,0,.371.71,2.13,2.13,0,0,0,2.179.743c.166-.072.333-.139.5-.211a2.106,2.106,0,0,0,.749-.748c.072-.166.138-.333.211-.5a2.071,2.071,0,0,0,0-1.1c-.189-.649-.372-1.292-.56-1.935a1.572,1.572,0,0,0-.372-.7,1.554,1.554,0,0,0-.582-.538,1.626,1.626,0,0,0-.776-.249,1.549,1.549,0,0,0-.826.039c-.166.072-.333.139-.5.211a2.074,2.074,0,0,0-.743.743c-.072.166-.139.333-.211.5a2.09,2.09,0,0,0,0,1.109Z" transform="translate(-389.843 -147.757)"/>
      </g>
      <g id="Grupo_1155066" data-name="Grupo 1155066" transform="translate(253.561 166.598)">
        <path id="Trazado_991688" data-name="Trazado 991688" d="M388.993,150.882v1.94a2.33,2.33,0,0,0,.6,1.475,1.564,1.564,0,0,0,.671.427,1.6,1.6,0,0,0,.8.177c.183-.028.366-.05.554-.072a2.06,2.06,0,0,0,.915-.532c.111-.139.216-.283.327-.421a2.065,2.065,0,0,0,.283-1.048v-1.94a1.6,1.6,0,0,0-.177-.8,1.558,1.558,0,0,0-.432-.671,1.515,1.515,0,0,0-.671-.427,1.6,1.6,0,0,0-.8-.177c-.183.022-.366.05-.555.072a2.093,2.093,0,0,0-.915.532c-.111.139-.216.283-.327.421a2.1,2.1,0,0,0-.277,1.048Z" transform="translate(-388.992 -148.808)"/>
      </g>
      <g id="Grupo_1155067" data-name="Grupo 1155067" transform="translate(54.939 192.481)">
        <path id="Trazado_991689" data-name="Trazado 991689" d="M353.244,156.107a31.061,31.061,0,0,0,2.14,5.067,2.081,2.081,0,0,0,3.592-2.1q-.582-1.1-1.07-2.24c.072.166.138.333.211.5q-.483-1.148-.865-2.328a2.2,2.2,0,0,0-.954-1.242,2.128,2.128,0,0,0-1.6-.211,2.079,2.079,0,0,0-1.452,2.556Z" transform="translate(-353.165 -153.477)"/>
      </g>
      <g id="Grupo_1155068" data-name="Grupo 1155068" transform="translate(65.788 189.264)">
        <path id="Trazado_991690" data-name="Trazado 991690" d="M355.4,156.022a5.786,5.786,0,0,1,.593,1.053c-.072-.166-.139-.333-.211-.5a5.866,5.866,0,0,1,.4,1.441c-.022-.183-.05-.371-.072-.554a5.61,5.61,0,0,1,.05.859,2.082,2.082,0,0,0,2.079,2.079,2.077,2.077,0,0,0,1.469-.61,2.2,2.2,0,0,0,.61-1.469,7.58,7.58,0,0,0-.322-2.312,7.475,7.475,0,0,0-1-2.09,1.555,1.555,0,0,0-.538-.582,1.593,1.593,0,0,0-.71-.371,2.1,2.1,0,0,0-1.6.211,2.079,2.079,0,0,0-.954,1.242,2.022,2.022,0,0,0,.2,1.6Z" transform="translate(-355.122 -152.896)"/>
      </g>
      <g id="Grupo_1155069" data-name="Grupo 1155069" transform="translate(64.789 199.404)">
        <path id="Trazado_991691" data-name="Trazado 991691" d="M355.2,157.851c.8,1.647,1.564,3.321,2.279,5.006-.072-.166-.138-.333-.211-.5.172.4.338.809.5,1.214a2.27,2.27,0,0,0,.954,1.242,2.128,2.128,0,0,0,1.6.211,2.105,2.105,0,0,0,1.242-.954,2.014,2.014,0,0,0,.211-1.6q-1.389-3.41-2.988-6.719a2.078,2.078,0,0,0-2.844-.743,2.13,2.13,0,0,0-.749,2.844Z" transform="translate(-354.942 -154.725)"/>
      </g>
      <g id="Grupo_1155070" data-name="Grupo 1155070" transform="translate(77.52 201.196)">
        <path id="Trazado_991692" data-name="Trazado 991692" d="M357.3,157.679c.261,1.109.521,2.223.787,3.332a2.079,2.079,0,0,0,3.8.5,2.233,2.233,0,0,0,.211-1.6c-.26-1.109-.521-2.223-.787-3.332a2.079,2.079,0,0,0-3.8-.5,2.27,2.27,0,0,0-.211,1.6Z" transform="translate(-357.238 -155.049)"/>
      </g>
      <g id="Grupo_1155071" data-name="Grupo 1155071" transform="translate(52.725 208.529)">
        <path id="Trazado_991693" data-name="Trazado 991693" d="M352.84,159.009c.094.233.183.46.277.693a1.623,1.623,0,0,0,.371.71,1.837,1.837,0,0,0,1.353.782,1.572,1.572,0,0,0,.832-.039c.166-.072.333-.139.5-.211a2.046,2.046,0,0,0,.743-.748c.072-.166.139-.333.211-.5a2.071,2.071,0,0,0,0-1.1c-.094-.233-.183-.46-.277-.693a1.621,1.621,0,0,0-.371-.71,1.642,1.642,0,0,0-.582-.538,2.324,2.324,0,0,0-1.6-.205c-.166.072-.333.139-.5.211a2.105,2.105,0,0,0-.749.748c-.072.166-.138.333-.211.493a2.091,2.091,0,0,0,0,1.109Z" transform="translate(-352.765 -156.371)"/>
      </g>
      <g id="Grupo_1155072" data-name="Grupo 1155072" transform="translate(62.971 215.446)">
        <path id="Trazado_991694" data-name="Trazado 991694" d="M355.22,161.179a4.052,4.052,0,0,1,.444.482c-.111-.139-.216-.283-.327-.421a4.142,4.142,0,0,1,.5.87c-.072-.166-.138-.333-.211-.5a4.183,4.183,0,0,1,.266.97c-.028-.183-.05-.366-.072-.554.017.144.028.294.033.438a2.146,2.146,0,0,0,.61,1.469,1.526,1.526,0,0,0,.671.432,1.6,1.6,0,0,0,.8.177,2.077,2.077,0,0,0,1.469-.61,2.135,2.135,0,0,0,.61-1.469,7.018,7.018,0,0,0-.166-1.314,6.5,6.5,0,0,0-.449-1.225,3.654,3.654,0,0,0-.394-.687,6.419,6.419,0,0,0-.848-1.009,2.17,2.17,0,0,0-1.469-.61,1.565,1.565,0,0,0-.8.177,1.527,1.527,0,0,0-.671.432,2.095,2.095,0,0,0-.005,2.949Z" transform="translate(-354.614 -157.619)"/>
      </g>
      <g id="Grupo_1155073" data-name="Grupo 1155073" transform="translate(218.272 7.245)">
        <path id="Trazado_991695" data-name="Trazado 991695" d="M382.7,122.7c.216,1.037.427,2.073.643,3.11a1.621,1.621,0,0,0,.371.71,1.837,1.837,0,0,0,1.353.782,1.572,1.572,0,0,0,.832-.039,2.1,2.1,0,0,0,1.242-.954c.072-.166.139-.333.211-.5a2.071,2.071,0,0,0,0-1.1c-.216-1.037-.427-2.073-.643-3.11a1.573,1.573,0,0,0-.371-.7,1.555,1.555,0,0,0-.582-.538,1.6,1.6,0,0,0-.771-.249,1.572,1.572,0,0,0-.832.039,2.106,2.106,0,0,0-1.242.954c-.072.166-.138.333-.211.5a2.07,2.07,0,0,0,0,1.1Z" transform="translate(-382.626 -120.064)"/>
      </g>
      <g id="Grupo_1155074" data-name="Grupo 1155074" transform="translate(225.936 7.968)">
        <path id="Trazado_991696" data-name="Trazado 991696" d="M384.1,122.831a31.55,31.55,0,0,1,1.142,3.531,2.079,2.079,0,0,0,2.556,1.453,2.1,2.1,0,0,0,1.242-.954,2.207,2.207,0,0,0,.211-1.6,31.561,31.561,0,0,0-1.142-3.531,1.622,1.622,0,0,0-.371-.71,1.555,1.555,0,0,0-.582-.538,2.128,2.128,0,0,0-1.6-.211,2.105,2.105,0,0,0-1.242.954,2.032,2.032,0,0,0-.211,1.608Z" transform="translate(-384.009 -120.194)"/>
      </g>
      <g id="Grupo_1155075" data-name="Grupo 1155075" transform="translate(233.141 9.313)">
        <path id="Trazado_991697" data-name="Trazado 991697" d="M385.583,123.563a6.621,6.621,0,0,1,.466.9c-.072-.166-.139-.333-.211-.5a6.992,6.992,0,0,1,.443,1.5,1.57,1.57,0,0,0,.372.7,1.6,1.6,0,0,0,.582.538,1.54,1.54,0,0,0,.77.244,1.572,1.572,0,0,0,.832-.039,2.105,2.105,0,0,0,1.242-.954c.072-.166.138-.333.21-.493a2.066,2.066,0,0,0,0-1.1,6.685,6.685,0,0,0-.349-1.264,9.982,9.982,0,0,0-.771-1.635,2.16,2.16,0,0,0-1.242-.954,1.555,1.555,0,0,0-.826-.039,1.494,1.494,0,0,0-.771.249,2.082,2.082,0,0,0-.749,2.838Z" transform="translate(-385.309 -120.437)"/>
      </g>
      <g id="Grupo_1155076" data-name="Grupo 1155076" transform="translate(230.439 18.152)">
        <path id="Trazado_991698" data-name="Trazado 991698" d="M385.1,125.15a17.324,17.324,0,0,1,.876,1.763c-.072-.166-.138-.333-.211-.5.216.51.4,1.031.571,1.563a2.183,2.183,0,0,0,.954,1.242,2.128,2.128,0,0,0,1.6.211,2.106,2.106,0,0,0,1.242-.954,2.132,2.132,0,0,0,.211-1.6,19.475,19.475,0,0,0-1.658-3.82,2.078,2.078,0,0,0-2.844-.743,2.079,2.079,0,0,0-.954,1.242,2.147,2.147,0,0,0,.211,1.6Z" transform="translate(-384.821 -122.031)"/>
      </g>
      <g id="Grupo_1155077" data-name="Grupo 1155077" transform="translate(237.777 19.814)">
        <path id="Trazado_991699" data-name="Trazado 991699" d="M386.418,125.451a17.426,17.426,0,0,1,.876,1.763c-.072-.166-.139-.333-.211-.5.216.51.4,1.031.571,1.563a2.185,2.185,0,0,0,.954,1.242,2.128,2.128,0,0,0,1.6.211,2.1,2.1,0,0,0,1.242-.954,2.131,2.131,0,0,0,.211-1.6,19.46,19.46,0,0,0-1.658-3.82,2.078,2.078,0,0,0-2.844-.743,2.1,2.1,0,0,0-.954,1.242,2.2,2.2,0,0,0,.211,1.6Z" transform="translate(-386.145 -122.331)"/>
      </g>
      <g id="Grupo_1155078" data-name="Grupo 1155078" transform="translate(293.905 101.367)">
        <path id="Trazado_991700" data-name="Trazado 991700" d="M396.358,139.678a31.564,31.564,0,0,1,1.142,3.531,2.162,2.162,0,0,0,.953,1.242,2.128,2.128,0,0,0,1.6.211,2.1,2.1,0,0,0,1.242-.954,2.18,2.18,0,0,0,.211-1.6,31.6,31.6,0,0,0-1.142-3.531,1.622,1.622,0,0,0-.371-.71,1.6,1.6,0,0,0-.582-.538,2.128,2.128,0,0,0-1.6-.211,2.106,2.106,0,0,0-1.242.954,2.051,2.051,0,0,0-.211,1.608Z" transform="translate(-396.269 -137.042)"/>
      </g>
      <g id="Grupo_1155079" data-name="Grupo 1155079" transform="translate(301.113 102.717)">
        <path id="Trazado_991701" data-name="Trazado 991701" d="M397.846,140.4a6.627,6.627,0,0,1,.466.9c-.072-.166-.138-.333-.211-.5a7.076,7.076,0,0,1,.443,1.5,1.622,1.622,0,0,0,.371.71,1.644,1.644,0,0,0,.582.538,1.624,1.624,0,0,0,.771.249,1.572,1.572,0,0,0,.832-.039,2.1,2.1,0,0,0,1.242-.954c.072-.166.139-.333.211-.493a2.071,2.071,0,0,0,0-1.1,6.685,6.685,0,0,0-.349-1.264,9.788,9.788,0,0,0-.771-1.635,2.161,2.161,0,0,0-1.242-.954,1.572,1.572,0,0,0-.832-.039,1.541,1.541,0,0,0-.771.244,2.069,2.069,0,0,0-.743,2.833Z" transform="translate(-397.569 -137.285)"/>
      </g>
      <g id="Grupo_1155080" data-name="Grupo 1155080" transform="translate(298.411 111.538)">
        <path id="Trazado_991702" data-name="Trazado 991702" d="M397.355,142a17.433,17.433,0,0,1,.876,1.763c-.072-.166-.138-.333-.211-.5.216.51.4,1.031.571,1.558a2.183,2.183,0,0,0,.954,1.242,2.127,2.127,0,0,0,1.6.211,2.106,2.106,0,0,0,1.242-.954,2.133,2.133,0,0,0,.21-1.6,19.448,19.448,0,0,0-1.658-3.82,2.078,2.078,0,0,0-2.844-.743,2.1,2.1,0,0,0-.954,1.242,2.212,2.212,0,0,0,.211,1.6Z" transform="translate(-397.082 -138.876)"/>
      </g>
      <g id="Grupo_1155081" data-name="Grupo 1155081" transform="translate(305.746 113.207)">
        <path id="Trazado_991703" data-name="Trazado 991703" d="M398.678,142.3a17.431,17.431,0,0,1,.876,1.763c-.072-.166-.139-.333-.211-.5.216.51.4,1.031.571,1.563a2.184,2.184,0,0,0,.953,1.242,2.128,2.128,0,0,0,1.6.211,2.1,2.1,0,0,0,1.242-.954,2.131,2.131,0,0,0,.211-1.6,19.461,19.461,0,0,0-1.658-3.82,2.143,2.143,0,0,0-1.242-.954,2.1,2.1,0,0,0-1.6.211,2.079,2.079,0,0,0-.954,1.242,2.2,2.2,0,0,0,.211,1.6Z" transform="translate(-398.405 -139.177)"/>
      </g>
    </g>
    <g id="Grupo_1155082" data-name="Grupo 1155082" transform="translate(-861.388 2316.785)">
      <path id="Trazado_991704" data-name="Trazado 991704" d="M331.818,137.038a19.459,19.459,0,0,1-7.146-.66c-2.489-.638-5.039-1.946-7.612-2.19.288.466.565.9.826,1.32,2.4.155,4.114,1.491,6.181,2.212a16.692,16.692,0,0,0,6.736.726c4-.294,7.861-1.652,11.842-1.891a13.313,13.313,0,0,0,1.33-3.265,20.92,20.92,0,0,0-6.015,1.663A21.011,21.011,0,0,1,331.818,137.038Z" transform="translate(-298.992 -65.482)" fill="#a3f0f3"/>
      <path id="Trazado_991705" data-name="Trazado 991705" d="M317.535,135.923c2.484.128,4.873,1.32,7.24,2a19.014,19.014,0,0,0,8.3.848c2.406-.394,4.513-1.652,6.747-2.556a19.345,19.345,0,0,1,5.322-1.209,24.521,24.521,0,0,1,.7-2.351c-4.7-.028-9.308,2.822-13.882,3.6a25.14,25.14,0,0,1-7.462.211c-2.539-.327-5.056-1.4-7.634-1.242.194.338.333.571.444.771C317.386,135.973,317.435,135.918,317.535,135.923Z" transform="translate(-299.855 -68.354)" fill="#a3f0f3"/>
      <path id="Trazado_991706" data-name="Trazado 991706" d="M326.324,135.4a31.576,31.576,0,0,1-5.017-.128c-.687-.078-1.364-.183-2.04-.327-.36-.078-.743-.194-1.12-.3a11.882,11.882,0,0,0,2.456,1.087c2.45.726,4.452.344,7.213-.205.749-.139,1.43-.272,2.1-.41C328.708,135.228,327.511,135.35,326.324,135.4Z" transform="translate(-294.052 -59.32)" fill="#a3f0f3"/>
      <path id="Trazado_991707" data-name="Trazado 991707" d="M324.33,137.508a28.612,28.612,0,0,0,5.638.211c2.517-.111,5.051-.521,7.573-.471a8.955,8.955,0,0,0,2.09-1.331,7.686,7.686,0,0,0,.937-1.031c-3.7.36-7.329,1.6-11.06,1.868a18.3,18.3,0,0,1-6.137-.488c-2.079-.566-3.925-1.957-6.026-2.367.189.283.355.532.482.7A11.4,11.4,0,0,0,320,136.832C321.425,136.6,322.928,137.3,324.33,137.508Z" transform="translate(-297.696 -62.715)" fill="#a3f0f3"/>
      <path id="Trazado_991708" data-name="Trazado 991708" d="M321.008,122.629a9.247,9.247,0,0,0,2.789-1.386c-1.015.349-2.273.848-4.047,1.58a9.185,9.185,0,0,1,1.031-.011A.418.418,0,0,1,321.008,122.629Z" transform="translate(-286.773 -120.223)" fill="#a3f0f3"/>
      <path id="Trazado_991709" data-name="Trazado 991709" d="M316.02,151.778c1.835-1.258,4.746-1.8,5.888-3.831a14.324,14.324,0,0,1-1.464.122.462.462,0,0,1-.421-.272.4.4,0,0,1-.05-.56,15.734,15.734,0,0,0,2.667-6.037,17.451,17.451,0,0,1,1.913-5.926c2.223-3.482,6.131-5.167,9.8-6.7.638-.266.915.771.288,1.037-3.631,1.519-7.695,3.265-9.591,6.969-.926,1.813-1.081,3.9-1.586,5.843a15.875,15.875,0,0,1-2.035,4.491,13.992,13.992,0,0,0,4.169-.848,20.131,20.131,0,0,0,2.578-1.2,7.075,7.075,0,0,1,1.7-.937c.948-.177,1.264.754,1.436,1.508.4,1.757.316,3.437,1.331,5.034a3.192,3.192,0,0,0,1.12,1.253,3.342,3.342,0,0,0,1.685.017,1.178,1.178,0,0,1,1.059.233c1.136.965.333,2.827,1.514,3.825,1.38,1.164,3.8.782,5.472.56a13.932,13.932,0,0,0,5.1-1.652.537.537,0,0,1,.543.926,16.082,16.082,0,0,1-8.66,1.957c-.255,2.5-2.628,3.72-4.906,4.091-2.373.383-4.845.255-7.141.926a4.6,4.6,0,0,0,2.068,1.558c.992.493,2.029.893,3.044,1.347a14.694,14.694,0,0,1,2.644,1.513,5.272,5.272,0,0,1,1.247-2.761c.776-.643,2.123-.05,2.96.194,2.112.615,4.18,1.541,6.331,2.035a18.105,18.105,0,0,0,6.447-6.248,4.129,4.129,0,0,0,.078-4.557c-.765-1.125-2.1-1.829-2.495-3.188-.227-.277-.477-.333-.732-.532-1.68-1.331-.255-1.746-3.737-.632a17.282,17.282,0,0,1-1.713.715,7.066,7.066,0,0,1-4.053-.488c-1.613-.61-4.03-1.774-5.067-3.238-.216-.31-.355-.671-.538-.992a6.851,6.851,0,0,0-1.231-3.06,12.455,12.455,0,0,1-1.258-1.441c-1.957-3.06-.4-6.4,1.153-9.264a.472.472,0,0,1,.338-.255,37.446,37.446,0,0,0,4.064-6.06c.9-1.735,1.425-3.9,2.766-5.378-1.591.665-2.667,1.125-3.044,1.347a45.584,45.584,0,0,0-7.246,5.383,55.379,55.379,0,0,0-5.727,5.383A41.027,41.027,0,0,0,318.753,142a17.375,17.375,0,0,0-1.209,2.761c-.416,1.1-1.07,2.866-2.378,6.071-.416,1.037-.759,1.868-1.07,2.617A11.186,11.186,0,0,1,316.02,151.778Z" transform="translate(-312.46 -117.328)" fill="#a3f0f3"/>
      <path id="Trazado_991710" data-name="Trazado 991710" d="M318.948,134.12a14.377,14.377,0,0,1-4.291-2.1c1.22,1.48,3.088,3.276,5.516,3.57a10.671,10.671,0,0,0,1.8-.033,9.074,9.074,0,0,1,1.647-.006A34.273,34.273,0,0,0,318.948,134.12Z" transform="translate(-309.91 -71.257)" fill="#a3f0f3"/>
      <path id="Trazado_991711" data-name="Trazado 991711" d="M393.828,152.721a17.9,17.9,0,0,1-.92-2.3,9.653,9.653,0,0,1-7.795-3.881c-1.214-1.652-1.408-3.848-3.166-5.084a16.036,16.036,0,0,0-5.816-2.728c-2.179-.416-4.285.227-6.425-.61-1.7-.665-2.694-2-4.152-3-1.519-1.037-2.534.155-2.522,1.769.011,1.569,1.22,2.212,2.484,2.7,2.023.776,4.4,1.159,6.243,2.328.582.371.044,1.3-.543.931-2.789-1.774-9.907-1.691-9.209-6.564.255-1.785,1.32-3.36,3.243-2.567,2,.82,3.1,2.833,5.222,3.537,2.434.8,4.989-.039,7.451.876a15.245,15.245,0,0,1,5.694,3.332c1.386,1.519,1.58,3.7,3.032,5.239a8.552,8.552,0,0,0,6.109,2.633,9.649,9.649,0,0,1-.188-1.281c-.033-2.123.948-4.219-.754-6.165a7.846,7.846,0,0,0-3.4-1.846c-2.223-.782-4.48-1.347-6.664-2.267a45.521,45.521,0,0,1-6.448-3.41c-1.636-1.031-3.16-2.046-4.635-3.171a22.168,22.168,0,0,0-2.955-2.057c-1.735-.92-2.656-1.064-3.92-.493a10.99,10.99,0,0,0-1.563.893,5.273,5.273,0,0,1-2.389.965c-3.87.965-2.589.787-4.718,2.273a4.355,4.355,0,0,1-1.009.6,2.867,2.867,0,0,1-.787.083,8.127,8.127,0,0,0,1.364,1.6,6.563,6.563,0,0,1,1.253,1.807,5.233,5.233,0,0,1-.4,4.635,17.175,17.175,0,0,1-5.971,6.143,9.96,9.96,0,0,0,1.076.122c6.159.061,11.166-6.886,9.824-12.69-.155-.671.881-.959,1.037-.283,1.258,5.439-2.123,11.038-7.107,13.278-2.722,1.22-5.66.787-8.41-.094-1.464-.466-2.883-1.048-4.358-1.486-.4-.122-.8-.233-1.209-.327-.5-.116-.737-.266-1.109.05-.521.444-.732,1.83-.876,2.495.266.421.66.682.931,1.07a6.6,6.6,0,0,1,1.076,3.154c5.056-.466,9.829,2.556,14.885.931,4.662-1.5,9.2-7.146,7.2-12.219-.255-.643.787-.926,1.037-.288,1.913,4.862-1.769,10.544-6.037,12.745a12.711,12.711,0,0,1-7.623,1.231c-3.138-.438-6.22-1.713-9.43-1.347a6.082,6.082,0,0,1-.211,1.264c-.565,1.94-2.212,2.711-4.119,2.789-.693.028-.693-1.048,0-1.075a3.289,3.289,0,0,0,2.6-1.015,4.026,4.026,0,0,0,.671-2.523,5.572,5.572,0,0,0-1.475-3.7,3.854,3.854,0,0,1-.1,3.188c-.748,1.314-2.556,1.951-3.975,2.1-3.188.333-5.732-2.545-6.847-5.233-.266-.638.776-.92,1.037-.288.854,2.062,2.85,4.468,5.278,4.474a4.765,4.765,0,0,0,3.376-1.314c.881-1.042.322-2.517-.172-3.592a.513.513,0,0,1,.006-.46,29.261,29.261,0,0,0-4.346-2.14c-1.2-.532-2.828-1.253-3.437-2.534-.255.111-.527.161-.782.3-2.389,1.325-4.607,3.642-5.062,6.431-.565,3.482,3.426,5.572,5.926,7.1.588.36.05,1.292-.543.931-2.267-1.4-5.433-3.1-6.315-5.821-.859-2.639.809-5.588,2.617-7.418a11.48,11.48,0,0,1,4.263-2.705,13.267,13.267,0,0,1,3.094-.759c2.6-.283,8.471.172,8.787-3.543a3.742,3.742,0,0,1-2.96-1.957c-.261-.582-.116-1.874-.46-2.312-.388-.493-1.5-.128-2.068-.277a3.55,3.55,0,0,1-1.885-1.441c-.56.981-1.951,1.436-3.182,1.669a9.425,9.425,0,0,0,1.342,2.223.453.453,0,0,1,.116.261,2.322,2.322,0,0,1,.2.449c.394,1.475-.471,2.811-1.314,3.936a.559.559,0,0,1-.737.194.548.548,0,0,1-.194-.737,9.566,9.566,0,0,0,.915-1.4c-1.042.887-2.118.493-3.171.532a6.127,6.127,0,0,0-4.945,2.894c-.36.588-1.292.05-.931-.543a7.23,7.23,0,0,1,4.651-3.276,6.827,6.827,0,0,1,1.425-.15,14.13,14.13,0,0,0,1.6.1c.854-.089,1.186-1.02,1.4-1.774a10.623,10.623,0,0,1-1.419-2.439c-2.617.261-5.067.311-7.279,1.7a9.513,9.513,0,0,0-4.18,5.854c-.643,2.722.15,5.378.97,7.967.211.66-.826.942-1.037.283-.765-2.417-1.508-4.9-1.164-7.462a10.573,10.573,0,0,1,2.977-6.071,10.808,10.808,0,0,1,5.727-2.96c1.3-.233,2.622-.283,3.931-.471.965-.139,3.543-.444,3.482-1.8a21.271,21.271,0,0,1-.687-2.55c-.105-.643.039-2.2-.4-2.644-.36-.36-.532-.017-1,.255-.36.205-.726.4-1.1.588a21.729,21.729,0,0,1-2.173.959,15.691,15.691,0,0,1-2.672.743,5.545,5.545,0,0,1-3.127,3.1c-1.968.931-3.825,1.691-5.328,3.343-2.689,2.955-2.506,7.39-1.874,11.332.116.543.222,1.053.36,1.685.233,1.109.432,2.057.627,2.938.992,3.714,2.772,6.974,6.647,8.466,1.857.715,3.825,1.114,5.66,1.9,1.125.482,2.456,1.031,2.766,2.323,2.456-.033,4.723.809,7.163,1.27a23.8,23.8,0,0,0,9.347-.233c4.485-.959,8.82-3.554,13.433-3.41a4.835,4.835,0,0,1,2.55-2.434,6.085,6.085,0,0,1,2.206-.416,15.743,15.743,0,0,1,3.587.554,11.571,11.571,0,0,1,3.138,1.209c.759.377,1.757.865,3.349,1.519,2.689,1.175,4.108,1.658,5,1.691,1.07-.067,2.384-.726,5-2.068a28.848,28.848,0,0,0,2.656-1.519,12.049,12.049,0,0,1,2-1.037,18.66,18.66,0,0,1,3.038-.965c.965-.244,1.1-.31,1.242-.588.205-.344.105-.687-.066-1.38A6.93,6.93,0,0,1,393.828,152.721Zm-33.02,5.766a6.637,6.637,0,0,1-5.943,1.974c-1.253-.211-3.127-1.752-4.246-1.026a7.826,7.826,0,0,0-1.436,1.835,7.185,7.185,0,0,1-1.419,1.48,2.447,2.447,0,0,1-2.539.3c-1.452-.582-2.783-1.486-4.247-2.085-.488-.2-1.325-.632-1.852-.388a2.524,2.524,0,0,0-.643.621,7.8,7.8,0,0,1-1.3,1.225,3.6,3.6,0,0,1-3.41.449c-.637-.244-.36-1.286.288-1.037,2.955,1.125,3.465-3.049,6.1-2.328a20.45,20.45,0,0,1,3.7,1.608,9.779,9.779,0,0,0,2,1.031c1.031.227,1.719-.6,2.29-1.3,1.281-1.563,2.245-3.653,4.541-2.45a6.542,6.542,0,0,0,3.753,1.064,5.542,5.542,0,0,0,3.6-1.741C360.526,157.228,361.286,157.988,360.809,158.487Zm15.34.854c-1.159.66-2.257-.294-2.672-1.364-.083-.211-.283-1.214-.466-1.275-.144-.05-.9.355-1.064.416-.809.316-1.619.649-2.445.937a6.445,6.445,0,0,1-4.685-.078,15.626,15.626,0,0,1-4.053-2.739c-.527-.449.233-1.2.759-.759a13.717,13.717,0,0,0,3.7,2.511,5.908,5.908,0,0,0,4.5-.155c.693-.26,1.38-.532,2.068-.8.471-.183,1.076-.566,1.6-.383.876.3,1.1,3.4,2.223,2.766A.537.537,0,0,1,376.149,159.341Zm10.445.954c-4.291,1.852-8.865-2.656-10.168-6.409-.349-1.014-.316-3.437-1.885-3.055-1.281.31-2.5,1.1-3.759,1.525-1,.338-2.051.682-3.01.039a4.073,4.073,0,0,1-1.414-2.922c-.111-.676.926-.97,1.037-.288.216,1.308.593,2.833,2.267,2.4a23.3,23.3,0,0,0,3.642-1.425c1.719-.771,3.232-.471,3.687,1.513a10.647,10.647,0,0,0,2.661,5.427c1.519,1.563,4.169,3.227,6.4,2.262C386.682,159.1,387.231,160.022,386.594,160.294Zm3.227-4.485a7.649,7.649,0,0,1-7.956-1.469,6.4,6.4,0,0,1-1.807-3.254c-.338-1.658-.116-3.365-.493-5.034a10.466,10.466,0,0,0-.859-2.506c-.189-.355-.444-.937-.809-1.131-.216-.322-.344-.327-.388-.022a2.318,2.318,0,0,0-.161.5c-.311,1.17-.421,2.284-1.591,2.922-2.428,1.319-5.738.71-7.944-.732-.577-.377-.039-1.308.543-.931a7.553,7.553,0,0,0,4.341,1.275,6.062,6.062,0,0,0,2.262-.438c.909-.4,1.07-1.048,1.258-1.935.155-.732.371-2.024,1.369-2,.976.028,1.757,1.342,2.129,2.1a12.742,12.742,0,0,1,1.12,3.925c.205,1.586-.067,3.3.6,4.8,1.392,3.143,5.089,3.958,8.105,2.888C390.191,154.545,390.469,155.582,389.82,155.809Z" transform="translate(-313.801 -98.257)" fill="#a3f0f3"/>
      <path id="Trazado_991712" data-name="Trazado 991712" d="M320.664,123.549a.511.511,0,0,1-.216-.443c-.943.56-1.918,1.358-1.624,2.484.316,1.22,1.724,1.935,2.212,3.077a2.8,2.8,0,0,1-.643,2.644,1.722,1.722,0,0,1-1.042.665.869.869,0,0,1-.449-.061,2.451,2.451,0,0,0,.593.721,7.777,7.777,0,0,0,6.209-.078,12.754,12.754,0,0,1-.449-3.515,5.484,5.484,0,0,1,1.364-2.96A16.589,16.589,0,0,1,320.664,123.549Z" transform="translate(-291.22 -111.762)" fill="#a3f0f3"/>
      <path id="Trazado_991713" data-name="Trazado 991713" d="M327.182,128.86a3.1,3.1,0,0,0-1.015-2.45c-.7.743-1.724,1.586-1.9,2.617a21.355,21.355,0,0,0,2.805,2.245A15.369,15.369,0,0,0,327.182,128.86Z" transform="translate(-266.225 -96.744)" fill="#a3f0f3"/>
      <path id="Trazado_991714" data-name="Trazado 991714" d="M401.733,150.991a18.648,18.648,0,0,0-3.875-6.813l-.837-.017a7.257,7.257,0,0,0-3.4.549,8.93,8.93,0,0,0-2.245,1.669c.632.155,1.314.188,1.946.288a11.823,11.823,0,0,1,2.229.56,10.536,10.536,0,0,1,3.875,2.378,8.178,8.178,0,0,1,2.14,8.36c-.227.649-1.27.371-1.037-.283a7.173,7.173,0,0,0-2.245-7.673,9.784,9.784,0,0,0-3.775-1.985,11.482,11.482,0,0,0-2.118-.388,5.681,5.681,0,0,1-2.118-.466.425.425,0,0,1-.216-.56.472.472,0,0,1,.083-.543,8.645,8.645,0,0,1,5.267-2.938,13.481,13.481,0,0,1,1.5-.044c-1.331-1.48-2.85-3.044-4.818-5-.216-.216-.488-.471-.715-.693a25.323,25.323,0,0,1,1.353,4.147c.15.676-.887.965-1.037.288a23.775,23.775,0,0,0-1.547-4.7,3.793,3.793,0,0,0-1.242-1.73,4.294,4.294,0,0,0-2.323-.455,10.607,10.607,0,0,1-4.152-.466,7.265,7.265,0,0,1-2.966-2.96c-.383-.577.549-1.12.931-.543.87,1.319,1.78,2.506,3.426,2.794,1.28.222,2.594.072,3.881.216a54.292,54.292,0,0,0-4.978-3.914,27.863,27.863,0,0,1-7.634-4.452,42.334,42.334,0,0,0-10.012-3.609,33.853,33.853,0,0,0-5.76-.787c-.615.3-1.231.615-1.852.915a36.275,36.275,0,0,1-4.529,1.818c-.66.216-.943-.821-.288-1.037a37.076,37.076,0,0,0,4.236-1.735c-1.048.011-2.1.044-3.232.094-1.419.067-2.938.122-4.646.133a5.864,5.864,0,0,1,1.5,2.19c.244.649-.8.931-1.037.288a4.9,4.9,0,0,0-2.373-2.5c-1.514-.028-3.132-.089-5.039-.244a18.8,18.8,0,0,0-4.518.105c-.172.022-.338.061-.5.089a36.853,36.853,0,0,1-4.247,2.672,2.461,2.461,0,0,1,1.2,1.009,2.063,2.063,0,0,1-.183,2.373c-.438.538-1.192-.227-.759-.76.721-.893-.56-1.719-1.286-1.874a6.884,6.884,0,0,0-2.949.144,5,5,0,0,0-2.528,1.3,7.429,7.429,0,0,0-1.331,2.273,34.729,34.729,0,0,1-2.373,4.823,45.311,45.311,0,0,1-3.382,4.707c-2,3.526-2.561,5.649-.078,9.225,1.17,1.685,1.752,4.158,3.343,5.372a12,12,0,0,0,3.232,1.669c2.323.809,2.911.493,5.361-.654.87-.4,1.325-.931,2.317-.626.432.133.455.3.832.5a3.62,3.62,0,0,1,.743.848q2.694,1.1,4.047-.776c.161-.1.272-.183.416-.277a22.948,22.948,0,0,1-4.884-2.218,9.09,9.09,0,0,1-3.881-3.848.526.526,0,0,1-.006-.333,4.4,4.4,0,0,0,1.164-3.986,8.87,8.87,0,0,1-3.925.649,5.484,5.484,0,0,1-.05,3.271,6.627,6.627,0,0,1-2.1,3.177.557.557,0,0,1-.759,0,.54.54,0,0,1,0-.759,5.614,5.614,0,0,0,1.791-2.606,3.975,3.975,0,0,0-.055-3.127,15.061,15.061,0,0,1-2.123-.754.4.4,0,0,1-.25-.394c-.6-.66-1.275-1.724-.532-2.3.432-.338.665.028,1.081.111.521.1,1.131-.87,1.131-1.308a2.5,2.5,0,0,0-.732-1.408c-.809-.987-1.863-1.99-1.586-3.387a4.31,4.31,0,0,1,2.378-2.722,36.9,36.9,0,0,1,4.252-2.035,18.339,18.339,0,0,1,4.973-1.536,9.757,9.757,0,0,1,4.635.965,15.894,15.894,0,0,1,4.119,2.245.421.421,0,0,1,.166.394,8.4,8.4,0,0,1,5.516,4.99c1.38,3.249.759,6.525.909,9.918.033.693-1.042.687-1.076,0-.161-3.565.593-7.118-1.264-10.4-1.824-3.227-5.278-4.285-8.776-3.349-3.082.821-7.368,2.833-7.29,6.581.05,2.572,1.68,5.716-.432,7.872a8.629,8.629,0,0,0,3.315,3.182.511.511,0,0,1,.5-.022c1.4-.593,1.48-.726,1.552-.865a7.232,7.232,0,0,0,.283-.793.537.537,0,1,1,1.037.283,3.884,3.884,0,0,1-1.125,2.007,2.45,2.45,0,0,1-.588.266,22.121,22.121,0,0,0,3.648,1.475c.41-.105.71-.294,1.142-.444,1.99-.687-.477,1.713,3.459-.865.266-.177.466-.527.754-.7-4.624-4.363-9.63-10.04-7.551-16.837.2-.66,1.242-.377,1.037.288-2.012,6.581,3.215,12.03,7.656,16.161a4.824,4.824,0,0,1,1.974-.105,12.325,12.325,0,0,1,5.366,2.733,8.46,8.46,0,0,1,2.262-3.055c.571-.6,1.364-.832,1.89-1.48a4.525,4.525,0,0,0,.754-3.127c-.105-2.162-.627-4.468-2.312-5.954-1.358-1.2-3.11-1.824-4.557-2.905-1.514-1.125-2.134-2.6-2.983-4.23a27.63,27.63,0,0,0-3.515-5.472c-1.469-1.658-3.426-1.719-5.477-1.99-.815-.105-2.306-.765-3.038-.383-.7.366-1.38,1.946-1.73,2.622-.316.615-1.247.072-.931-.543.6-1.159,1.7-3.57,3.3-3.387a11.1,11.1,0,0,1,1.3.416,17.767,17.767,0,0,0,2.168.322,11.892,11.892,0,0,1,2.85.549c1.879.71,2.933,2.351,3.975,3.964.71,1.092,1.414,2.2,2.018,3.36a12.036,12.036,0,0,0,2.046,3.387,8.366,8.366,0,0,0,1.192.926,5.228,5.228,0,0,1,1.4-1.037,14.34,14.34,0,0,1,2.306-1.131,13.815,13.815,0,0,1,2.4-.687,6.977,6.977,0,0,1,.771-.083.525.525,0,0,1-.178-.671,4.639,4.639,0,0,0,.144-4.058,3.8,3.8,0,0,0-2.994-2.151,10.018,10.018,0,0,0-4.136.743,6.17,6.17,0,0,0-3.027,2.134c-.394.565-1.325.028-.931-.543a7.375,7.375,0,0,1,3.67-2.628A9.652,9.652,0,0,1,358.1,125a4.9,4.9,0,0,1,3.293,2.866,5.793,5.793,0,0,1-.283,4.845,3.094,3.094,0,0,0,.687.366,36.96,36.96,0,0,1,3.526-6.57.54.54,0,0,1,.931.543c-1.392,2.334-3.149,4.8-3.781,7.473-.654,2.772.665,5.427,2.351,7.556.427.538-.333,1.3-.759.759-1.769-2.229-3.193-4.94-2.766-7.872.044-.3.166-.6.238-.9a2.572,2.572,0,0,0-1.857-.067,13.257,13.257,0,0,0-2.012.577,13.061,13.061,0,0,0-1.829.854q-.441.249-.865.532c-.15.1-.3.2-.443.31a31.185,31.185,0,0,1,3.094,2.112,8.244,8.244,0,0,1,2.456,5.128c.266,1.78.4,3.809-.749,5.328a6.02,6.02,0,0,1-1.408,1.225,3.951,3.951,0,0,1,1.231,2.489,26.017,26.017,0,0,0,.194,3.781,46.013,46.013,0,0,0,6.392,3.227,20.038,20.038,0,0,1,.843-7.246c.765-2.384,1.9-4.635,2.611-7.035.36-1.2.926-2.883.471-4.1-.432-1.148-1.757-1.63-2.805-2.046a8.957,8.957,0,0,1-2.367-1.22c-.815-.665-.948-1.735-1.685-2.406-.51-.466.25-1.225.759-.759.859.787.931,1.929,1.99,2.606a31.783,31.783,0,0,0,2.944,1.319,7.869,7.869,0,0,0,4.557-1,6.925,6.925,0,0,0,3.2-2.988,5.225,5.225,0,0,0-2.628-6.819c-.621-.3-.078-1.231.543-.926a6.3,6.3,0,0,1,3.143,7.994,7.655,7.655,0,0,1-3.537,3.576,9.485,9.485,0,0,1-3.947,1.137,3.3,3.3,0,0,1,.649.959.42.42,0,0,1,.427-.05,15.352,15.352,0,0,0,4.9.71,20.149,20.149,0,0,1,2.45.238,3.266,3.266,0,0,1,1.979.8,3.049,3.049,0,0,1,.449,1.935c.033.893.05,1.791.15,2.683a7.442,7.442,0,0,0,1.829,4.5c.482.5-.277,1.258-.759.76a7.635,7.635,0,0,1-1.907-3.737,16.8,16.8,0,0,1-.31-2.412c-.05-.848.011-1.735-.116-2.572s-1.247-.87-1.929-.965c-.776-.111-1.563-.139-2.345-.172a14.9,14.9,0,0,1-4.557-.7,6.033,6.033,0,0,1-.022,1.891A39.9,39.9,0,0,1,368.191,151a20.707,20.707,0,0,0-1.38,8.981c1.053.4,2.085.854,3.166,1.2a5.939,5.939,0,0,1,.432-5.538c.665-1.081,1.547-2,2.245-3.055a8.3,8.3,0,0,0,1.38-4.236c.033-.687,1.109-.693,1.076,0a9.48,9.48,0,0,1-.843,3.554,14.267,14.267,0,0,1-1.874,2.811,8.406,8.406,0,0,0-1.741,3.016c-.3,1.2-.166,3.027.948,3.8a.483.483,0,0,1,.144.227c2.079.654,4.241,1.53,5.117,3.648.665,1.608.2,3.282.155,4.945a8.474,8.474,0,0,0,.782,3.775,7.979,7.979,0,0,1,1.136-1.652c1.863-1.968,4.346-2,7-2.035.211,0,.438-.017.654-.017a.445.445,0,0,1-.216-.7,14.994,14.994,0,0,1,6.331-5.073c2.533-1.064,6.2-1.569,7.34-4.479.25-.638,1.292-.36,1.037.288-1.081,2.75-3.886,3.737-6.464,4.618a14.623,14.623,0,0,0-7.318,5.189.525.525,0,0,1-.238.15,20.865,20.865,0,0,0,3.293-.283c.31-.033,7.761-1.414,10.938-6.936C403.978,158.481,402.354,153.064,401.733,150.991Zm-22.891-13.8c-.682-.122-.394-1.159.288-1.037a22.775,22.775,0,0,1,4.973,1.464c1.43.6,2.606,1.281,2.85,2.938.41,2.789-1.209,7.263,1.774,9.1.588.36.05,1.292-.543.926-2.744-1.691-2.334-5.15-2.223-7.9A5.925,5.925,0,0,0,385.7,140a3.236,3.236,0,0,0-1.807-1.3A21.984,21.984,0,0,0,378.842,137.192Zm-1.8,17.752a21.333,21.333,0,0,1-1.968,2.744c-.31.366-.687.959-1.148,1.137a.648.648,0,0,1-.865-.776.467.467,0,0,1,.571-.36c.31-.333.443-.488.577-.643q.408-.474.782-.981A20.394,20.394,0,0,0,376.347,154a4.6,4.6,0,0,0,.9-2.268,3.176,3.176,0,0,0-1.12-1.807c-.482-.5.277-1.258.759-.76a4,4,0,0,1,1.436,2.644A6.493,6.493,0,0,1,377.046,154.944Zm16.061,2.3a2.422,2.422,0,0,0-1.951.449,5.11,5.11,0,0,0-.787,1.73,7.687,7.687,0,0,1-2.1,2.933c-2.179,1.9-5.023,2.589-7.795,3.121-.676.128-.965-.909-.288-1.037,2.877-.554,5.96-1.258,8.011-3.52a6.053,6.053,0,0,0,1.087-1.669c.244-.56.388-1.159.676-1.7.654-1.225,1.863-1.43,3.149-1.38C393.794,156.191,393.8,157.267,393.106,157.239Zm1.236-7.6c-.349.765-.693,1.53-1.042,2.3a2.524,2.524,0,0,1-1.075,1.4,2.147,2.147,0,0,1-1.519-.089c-.432-.1-.527-.055-.632.36a3.563,3.563,0,0,1-.272.854,3.927,3.927,0,0,1-3.1,1.785,4.654,4.654,0,0,1-2.162-.116,3.742,3.742,0,0,1-5.577,1.713c-.571-.383-.033-1.319.543-.931a2.7,2.7,0,0,0,4.269-2c.078-.671,1.125-.7,1.075,0-.078.665,1.763.277,2.062.216a3.171,3.171,0,0,0,1.563-.687c.638-.588.421-1.574,1.081-2.107a1.249,1.249,0,0,1,.931-.249c.366.033.815.366,1.181.3.477-.083.782-1.142.943-1.5.272-.593.538-1.192.809-1.785C393.7,148.474,394.625,149.017,394.343,149.644Z" transform="translate(-297.14 -121.059)" fill="#a3f0f3"/>
      <path id="Trazado_991715" data-name="Trazado 991715" d="M325.363,128.19a12.52,12.52,0,0,1,2.85-1.885,13.857,13.857,0,0,1,6.093-1.558,18.114,18.114,0,0,0-2.805-1.4,8.331,8.331,0,0,0-4.407-.832,26.515,26.515,0,0,0-7.872,3.066,15.76,15.76,0,0,0,6.01,2.511C325.3,128.113,325.313,128.163,325.363,128.19Z" transform="translate(-289.177 -114.702)" fill="#a3f0f3"/>
    </g>
    <g id="Grupo_1155170" data-name="Grupo 1155170" transform="translate(-1093.385 2370.533)">
      <path id="Trazado_991932" data-name="Trazado 991932" d="M274.485,142.042c-1.658,6.509-6.47,25.768-17.558,26.611-10.8.821-20.89-12.973-21.333-25.508-.46-12.984,9.286-27.165,21.333-27.714,6.708-.3,14.4,3.6,17.641,10.168C277.218,130.976,275.959,136.248,274.485,142.042Z" transform="translate(-229.085 -108.052)" fill="#fedd4d"/>
      <g id="Grupo_1155169" data-name="Grupo 1155169" transform="translate(0 0)">
        <g id="Grupo_1155167" data-name="Grupo 1155167">
          <path id="Trazado_991933" data-name="Trazado 991933" d="M262.055,190.736c-9.6,0-17.408-8.338-17.408-18.594a18.093,18.093,0,0,1,.188-2.511,32.519,32.519,0,0,1-10.428-24.36c0-17.2,12.4-31.185,27.648-31.185S289.7,128.073,289.7,145.271a32.528,32.528,0,0,1-10.428,24.36,18.146,18.146,0,0,1,.189,2.511C279.463,182.4,271.651,190.736,262.055,190.736Zm0-73.873c-13.716,0-24.876,12.746-24.876,28.413a29.644,29.644,0,0,0,10.04,22.758,1.374,1.374,0,0,1,.466,1.281,17.035,17.035,0,0,0-.266,2.827c0,8.721,6.57,15.822,14.636,15.822s14.636-7.1,14.636-15.822a16.98,16.98,0,0,0-.266-2.827,1.381,1.381,0,0,1,.471-1.281,29.653,29.653,0,0,0,10.04-22.758C286.93,129.609,275.77,116.864,262.055,116.864Z" transform="translate(-234.407 -114.086)"/>
        </g>
        <g id="Grupo_1155168" data-name="Grupo 1155168" transform="translate(13.321 24.956)">
          <path id="Trazado_991934" data-name="Trazado 991934" d="M248.874,168.557a2.392,2.392,0,0,1-.759-.122c-3.2-1.12-2.428-9.092-1.541-18.317.771-8.011,1.619-16.854-.216-21.366-1.419,1.43-2.245,2.212-3.792,2.3a6.983,6.983,0,0,1-5.089-2.212,2.069,2.069,0,0,1-.643-1.685c.139-.682.87-1.175,1.458-1.475a7.832,7.832,0,0,1,6.2-.322,4.87,4.87,0,0,1,2.1,1.985c.92-.9,2.112-2.035,3.792-3.4l-.238-.288c-.726-.893-2.345-3.088-1.7-4.247.56-1.02,2.572-.826,3.177-.754,1.369.188,3.06.771,3.3,1.8.205.848-.571,1.447-2.112,2.633-.36.272-.765.582-1.22.948a16.987,16.987,0,0,0,5.217,3.831c.959-2.589,2.367-4.657,4.491-5.522,1.07-.438,3.531-.97,4.308.144a2.324,2.324,0,0,1,.028,2.073,7.631,7.631,0,0,1-4.457,4.546,6.411,6.411,0,0,1-3.87-.166c-1.3,4.053-1.608,9.269-1.824,12.995a110.509,110.509,0,0,0,.017,11.5c.249,6.076.41,10.084-2.733,12.984C252.085,167.055,250.466,168.557,248.874,168.557ZM246.99,128.12c2.09,4.6,1.242,13.455.41,22.07-.782,8.139-1.591,16.549.992,17.447,1.325.443,3.121-1.192,3.8-1.813,2.866-2.644,2.711-6.292,2.467-12.346a109.383,109.383,0,0,1-.011-11.592c.222-3.781.532-9.048,1.885-13.228a17.127,17.127,0,0,1-5.6-4.1A51.965,51.965,0,0,0,246.99,128.12Zm-5.017-2.434a7.756,7.756,0,0,0-3.31.732c-.687.349-.976.687-1.015.893a1.4,1.4,0,0,0,.46.981,6.064,6.064,0,0,0,4.213,1.929c1.48-.072,2.09-.682,3.57-2.173a3.527,3.527,0,0,0-1.752-1.946A5.251,5.251,0,0,0,241.972,125.686Zm15.6,2.478a5.549,5.549,0,0,0,3.354.161,6.852,6.852,0,0,0,3.92-4.03,1.637,1.637,0,0,0,.078-1.325c-.322-.471-1.968-.394-3.31.144C259.724,123.89,258.449,125.78,257.567,128.164Zm-6.963-8.743c-.8,0-1.319.172-1.441.388-.172.31.116,1.48,1.619,3.321.078.094.161.188.238.288.477-.371.9-.7,1.275-.987,1.137-.876,1.891-1.453,1.813-1.774-.1-.4-1.125-.97-2.611-1.17A5.8,5.8,0,0,0,250.6,119.422Z" transform="translate(-236.81 -118.588)"/>
        </g>
        <path id="Trazado_991935" data-name="Trazado 991935" d="M259.076,130.137c0,1.508-4.857,2.733-10.85,2.733s-10.849-1.225-10.849-2.733,4.857-2.733,10.849-2.733S259.076,128.629,259.076,130.137Z" transform="translate(-220.912 -53.57)"/>
        <path id="Trazado_991936" data-name="Trazado 991936" d="M259.076,130.788c0,1.508-4.857,2.733-10.85,2.733s-10.849-1.225-10.849-2.733,4.857-2.733,10.849-2.733S259.076,129.275,259.076,130.788Z" transform="translate(-220.912 -50.612)"/>
        <path id="Trazado_991937" data-name="Trazado 991937" d="M259.076,131.377c0,1.508-4.857,2.733-10.85,2.733s-10.849-1.225-10.849-2.733,4.857-2.733,10.849-2.733S259.076,129.864,259.076,131.377Z" transform="translate(-220.912 -47.935)"/>
      </g>
    </g>
    <path id="Trazado_991716" data-name="Trazado 991716" d="M325.708,134.495a5.282,5.282,0,0,0-4.773-2.966V120.535H304.907a5.338,5.338,0,1,0-8.532-.006H280.342v11.038a5.232,5.232,0,0,1,4.147,2.916,5.337,5.337,0,0,1-2.434,7.113,5.516,5.516,0,0,1-1.713.5v11.98h15.911a5.3,5.3,0,1,0,9.159.649,5.723,5.723,0,0,0-.4-.643h15.922V142.129a5.293,5.293,0,0,0,4.773-7.634Z" transform="translate(-1222.769 2171.442)" fill="#ac59f1"/>
  </g>
</svg>
