<svg xmlns="http://www.w3.org/2000/svg" xmlns:xlink="http://www.w3.org/1999/xlink" width="98" height="98" viewBox="0 0 98 98">
  <defs>
    <filter id="Trazado_982548" x="0" y="0" width="98" height="98" filterUnits="userSpaceOnUse">
      <feOffset dy="3" input="SourceAlpha"/>
      <feGaussianBlur stdDeviation="3" result="blur"/>
      <feFlood flood-opacity="0.161"/>
      <feComposite operator="in" in2="blur"/>
      <feComposite in="SourceGraphic"/>
    </filter>
  </defs>
  <g id="_31" data-name="31" transform="translate(-183 -849)">
    <g id="Grupo_1154380" data-name="Grupo 1154380" transform="translate(-9 -1247)">
      <g id="Grupo_1149886" data-name="Grupo 1149886" transform="translate(0 -2463)">
        <g id="Grupo_1149694" data-name="Grupo 1149694" transform="translate(-9 4104)">
          <g id="Grupo_1149263" data-name="Grupo 1149263" transform="translate(210 461)">
            <g transform="matrix(1, 0, 0, 1, -9, -6)" filter="url(#Trazado_982548)">
              <g id="Trazado_982548-2" data-name="Trazado 982548" transform="translate(9 6)" fill="#f6edfd">
                <path d="M 40 78.5 C 34.80187606811523 78.5 29.76003265380859 77.48227691650391 25.01452255249023 75.47509765625 C 20.43014526367188 73.53606414794922 16.31264495849609 70.75986480712891 12.77638912200928 67.22360992431641 C 9.240133285522461 63.68735504150391 6.46393346786499 59.56985473632812 4.524899959564209 54.98547744750977 C 2.517722129821777 50.23996734619141 1.5 45.19812393188477 1.5 40 C 1.5 34.80187606811523 2.517722129821777 29.76003265380859 4.524899959564209 25.01452255249023 C 6.46393346786499 20.43014526367188 9.240133285522461 16.31264495849609 12.77638912200928 12.77638912200928 C 16.31264495849609 9.240133285522461 20.43014526367188 6.46393346786499 25.01452255249023 4.524899959564209 C 29.76003265380859 2.517722129821777 34.80187606811523 1.5 40 1.5 C 45.19812393188477 1.5 50.23996734619141 2.517722129821777 54.98547744750977 4.524899959564209 C 59.56985473632812 6.46393346786499 63.68735504150391 9.240133285522461 67.22360992431641 12.77638912200928 C 70.75986480712891 16.31264495849609 73.53606414794922 20.43014526367188 75.47509765625 25.01452255249023 C 77.48227691650391 29.76003265380859 78.5 34.80187606811523 78.5 40 C 78.5 45.19812393188477 77.48227691650391 50.23996734619141 75.47509765625 54.98547744750977 C 73.53606414794922 59.56985473632812 70.75986480712891 63.68735504150391 67.22360992431641 67.22360992431641 C 63.68735504150391 70.75986480712891 59.56985473632812 73.53606414794922 54.98547744750977 75.47509765625 C 50.23996734619141 77.48227691650391 45.19812393188477 78.5 40 78.5 Z" stroke="none"/>
                <path d="M 40 3 C 35.00370788574219 3 30.15846633911133 3.977851867675781 25.59885406494141 5.906410217285156 C 21.19326782226562 7.769813537597656 17.23602676391602 10.43806457519531 13.83704376220703 13.83705139160156 C 10.43806457519531 17.23603820800781 7.769813537597656 21.19327926635742 5.906410217285156 25.59885406494141 C 3.977851867675781 30.15846633911133 3 35.00370788574219 3 40 C 3 44.99629211425781 3.977851867675781 49.84153366088867 5.906410217285156 54.40114593505859 C 7.769813537597656 58.80672073364258 10.43806457519531 62.76396179199219 13.83704376220703 66.16294860839844 C 17.23602676391602 69.56193542480469 21.19326782226562 72.23018646240234 25.59885406494141 74.09358978271484 C 30.15846633911133 76.02214813232422 35.00370788574219 77 40 77 C 44.99629211425781 77 49.84153366088867 76.02214813232422 54.40114593505859 74.09358978271484 C 58.80672073364258 72.23018646240234 62.76396179199219 69.56193542480469 66.16294860839844 66.16294860839844 C 69.56193542480469 62.76396179199219 72.23018646240234 58.80672073364258 74.09358978271484 54.40114593505859 C 76.02214813232422 49.84153366088867 77 44.99629211425781 77 40 C 77 35.00370788574219 76.02214813232422 30.15846633911133 74.09358978271484 25.59885406494141 C 72.23018646240234 21.19327926635742 69.56193542480469 17.23603820800781 66.16294860839844 13.83705139160156 C 62.76396179199219 10.43806457519531 58.80672073364258 7.769813537597656 54.40114593505859 5.906410217285156 C 49.84153366088867 3.977851867675781 44.99629211425781 3 40 3 M 40 0 C 62.09138488769531 0 80 17.90861511230469 80 40 C 80 62.09138488769531 62.09138488769531 80 40 80 C 17.90859985351562 80 0 62.09138488769531 0 40 C 0 17.90861511230469 17.90859985351562 0 40 0 Z" stroke="none" fill="#ac59f1"/>
              </g>
            </g>
          </g>
        </g>
      </g>
    </g>
    <g id="modelado-3d" transform="translate(205 864.272)">
      <g id="Grupo_1155640" data-name="Grupo 1155640" transform="translate(0.788 5.682)">
        <g id="Grupo_1155635" data-name="Grupo 1155635" transform="translate(0 0)">
          <path id="Trazado_992679" data-name="Trazado 992679" d="M117.086,226.975l-18.47-12.606-18.47,12.606,18.47,12.606Z" transform="translate(-72.515 -193.304)" fill="#6e91ef" fill-rule="evenodd"/>
          <path id="Trazado_992680" data-name="Trazado 992680" d="M98.615,34.873V13.808L80.145,26.414V47.479Z" transform="translate(-72.515 -13.808)" fill="#6e91ef" fill-rule="evenodd"/>
          <path id="Trazado_992681" data-name="Trazado 992681" d="M274.47,26.414,256,13.808V34.873l18.47,12.606Z" transform="translate(-229.9 -13.808)" fill="#6e91ef" fill-rule="evenodd"/>
          <path id="Trazado_992682" data-name="Trazado 992682" d="M33.6,415.172l-6.746-4.6c-11.145.543-19.354,2.4-19.354,4.6,0,2.632,11.686,4.765,26.1,4.765s26.1-2.134,26.1-4.765c0-2.206-8.21-4.061-19.354-4.6Z" transform="translate(-7.5 -368.896)" fill="#e0dfde" fill-rule="evenodd"/>
          <path id="Trazado_992683" data-name="Trazado 992683" d="M82.508,118.469l-2.363,1.613v21.065l2.363-1.613Z" transform="translate(-72.515 -107.476)" fill="#3d6dea" fill-rule="evenodd"/>
          <path id="Trazado_992684" data-name="Trazado 992684" d="M258.363,15.421,256,13.808V34.873l2.363,1.613Z" transform="translate(-229.9 -13.808)" fill="#3d6dea" fill-rule="evenodd"/>
          <path id="Trazado_992685" data-name="Trazado 992685" d="M100.979,215.982l-2.363-1.613-18.47,12.606,18.47,12.606,2.363-1.613L84.871,226.975Z" transform="translate(-72.515 -193.304)" fill="#3d6dea" fill-rule="evenodd"/>
          <path id="Trazado_992686" data-name="Trazado 992686" d="M26.854,410.568c-11.145.543-19.354,2.4-19.354,4.6,0,2.632,11.686,4.765,26.1,4.765q.594,0,1.182-.005c-13.866-.113-24.919-2.2-24.919-4.76,0-1.883,5.983-3.51,14.666-4.284L33.6,417.08l9.318-6.359q-1.256-.088-2.572-.152l-6.746,4.6Z" transform="translate(-7.5 -368.895)" fill="#bfbec1" fill-rule="evenodd"/>
        </g>
        <g id="Grupo_1155636" data-name="Grupo 1155636" transform="translate(22.162 6.289)">
          <path id="Trazado_992687" data-name="Trazado 992687" d="M220.075,81.566H218.5V76.84h1.575Zm0-6.3H218.5V73.689h1.575Z" transform="translate(-218.5 -73.689)" fill="#fff"/>
        </g>
        <g id="Grupo_1155637" data-name="Grupo 1155637" transform="translate(35.791 10.081)">
          <path id="Trazado_992688" data-name="Trazado 992688" d="M354.679,120.921H353.1V114.39l-2.223-1.517.888-1.3,2.91,1.986Zm-5.1-8.936-1.317-.9.888-1.3,1.317.9Z" transform="translate(-348.262 -109.785)" fill="#fff"/>
        </g>
        <g id="Grupo_1155638" data-name="Grupo 1155638" transform="translate(6.718 45.503)">
          <path id="Trazado_992689" data-name="Trazado 992689" d="M82.433,449.975c-.556-.034-1.111-.072-1.649-.113l.121-1.571c.53.041,1.076.078,1.624.112Zm-3.232-.249a67.855,67.855,0,0,1-7.744-1.147l.327-1.541a66.285,66.285,0,0,0,7.565,1.12Z" transform="translate(-71.457 -447.038)" fill="#fff"/>
        </g>
        <g id="Grupo_1155639" data-name="Grupo 1155639" transform="translate(31.4 33.329)">
          <path id="Trazado_992690" data-name="Trazado 992690" d="M307.348,336.829l-.888-1.3,3.879-2.647.888,1.3Zm5.161-3.5-.9-1.29,1.3-.913.9,1.29Z" transform="translate(-306.46 -331.127)" fill="#fff"/>
        </g>
      </g>
      <g id="Grupo_1155641" data-name="Grupo 1155641" transform="translate(0 4.728)">
        <path id="Trazado_992691" data-name="Trazado 992691" d="M82.462,44.561l-7.631-5.208L91.9,27.7l8.14,5.556.888-1.3-8.241-5.624V7.173l7.353,5.018.888-1.3L91.9,4.728,72.646,17.871v5.142h1.575V18.7L91.116,7.173V26.331L74.221,37.861V24.589H72.646v15.18l8.928,6.093Z" transform="translate(-65.016 -4.728)"/>
        <path id="Trazado_992692" data-name="Trazado 992692" d="M26.888,415.58A107.321,107.321,0,0,1,8.574,414.2c-5.713-1.043-7-2.253-7-2.594,0-.008.091-.8,3.362-1.759a56.959,56.959,0,0,1,10.09-1.7l-.147-1.569a58.466,58.466,0,0,0-10.386,1.752C1.428,409.231,0,410.27,0,411.6c0,1,.826,1.844,2.527,2.578a27.771,27.771,0,0,0,5.764,1.566,108.915,108.915,0,0,0,18.6,1.408,128.458,128.458,0,0,0,12.893-.617l-.162-1.567A126.864,126.864,0,0,1,26.888,415.58Z" transform="translate(0 -364.373)"/>
        <path id="Trazado_992693" data-name="Trazado 992693" d="M378.484,408.234a58.988,58.988,0,0,0-10.463-1.752l-.146,1.569a57.453,57.453,0,0,1,10.168,1.7c3.3.963,3.394,1.761,3.394,1.768,0,.394-1.872,2.09-11.03,3.2l.189,1.564a47,47,0,0,0,8.664-1.72c2.525-.839,3.752-1.833,3.752-3.04C383.013,410.178,381.574,409.135,378.484,408.234Z" transform="translate(-329.236 -364.285)"/>
        <path id="Trazado_992694" data-name="Trazado 992694" d="M189.4,92.915l-.888,1.3,7.631,5.208-17.073,11.652-8.14-5.556-.888,1.3,9.029,6.162,19.258-13.143v-21.9L189.4,71.85l-.888,1.3,8.241,5.624V97.933Z" transform="translate(-152.18 -64.8)"/>
      </g>
    </g>
  </g>
</svg>
