<svg xmlns="http://www.w3.org/2000/svg" xmlns:xlink="http://www.w3.org/1999/xlink" width="98" height="98" viewBox="0 0 98 98">
  <defs>
    <filter id="Trazado_982548" x="0" y="0" width="98" height="98" filterUnits="userSpaceOnUse">
      <feOffset dy="3" input="SourceAlpha"/>
      <feGaussianBlur stdDeviation="3" result="blur"/>
      <feFlood flood-opacity="0.161"/>
      <feComposite operator="in" in2="blur"/>
      <feComposite in="SourceGraphic"/>
    </filter>
  </defs>
  <g id="_32" data-name="32" transform="translate(-499 -849)">
    <g id="Grupo_1154394" data-name="Grupo 1154394" transform="translate(-113 -1247)">
      <g id="Grupo_1149898" data-name="Grupo 1149898" transform="translate(0 -2463)">
        <g id="Grupo_1149695" data-name="Grupo 1149695" transform="translate(411 4104)">
          <g id="Grupo_1149263" data-name="Grupo 1149263" transform="translate(210 461)">
            <g transform="matrix(1, 0, 0, 1, -9, -6)" filter="url(#Trazado_982548)">
              <g id="Trazado_982548-2" data-name="Trazado 982548" transform="translate(9 6)" fill="#f6edfd">
                <path d="M 40 78.5 C 34.80187606811523 78.5 29.76003265380859 77.48227691650391 25.01452255249023 75.47509765625 C 20.43014526367188 73.53606414794922 16.31264495849609 70.75986480712891 12.77638912200928 67.22360992431641 C 9.240133285522461 63.68735504150391 6.46393346786499 59.56985473632812 4.524899959564209 54.98547744750977 C 2.517722129821777 50.23996734619141 1.5 45.19812393188477 1.5 40 C 1.5 34.80187606811523 2.517722129821777 29.76003265380859 4.524899959564209 25.01452255249023 C 6.46393346786499 20.43014526367188 9.240133285522461 16.31264495849609 12.77638912200928 12.77638912200928 C 16.31264495849609 9.240133285522461 20.43014526367188 6.46393346786499 25.01452255249023 4.524899959564209 C 29.76003265380859 2.517722129821777 34.80187606811523 1.5 40 1.5 C 45.19812393188477 1.5 50.23996734619141 2.517722129821777 54.98547744750977 4.524899959564209 C 59.56985473632812 6.46393346786499 63.68735504150391 9.240133285522461 67.22360992431641 12.77638912200928 C 70.75986480712891 16.31264495849609 73.53606414794922 20.43014526367188 75.47509765625 25.01452255249023 C 77.48227691650391 29.76003265380859 78.5 34.80187606811523 78.5 40 C 78.5 45.19812393188477 77.48227691650391 50.23996734619141 75.47509765625 54.98547744750977 C 73.53606414794922 59.56985473632812 70.75986480712891 63.68735504150391 67.22360992431641 67.22360992431641 C 63.68735504150391 70.75986480712891 59.56985473632812 73.53606414794922 54.98547744750977 75.47509765625 C 50.23996734619141 77.48227691650391 45.19812393188477 78.5 40 78.5 Z" stroke="none"/>
                <path d="M 40 3 C 35.00370788574219 3 30.15846633911133 3.977851867675781 25.59885406494141 5.906410217285156 C 21.19326782226562 7.769813537597656 17.23602676391602 10.43806457519531 13.83704376220703 13.83705139160156 C 10.43806457519531 17.23603820800781 7.769813537597656 21.19327926635742 5.906410217285156 25.59885406494141 C 3.977851867675781 30.15846633911133 3 35.00370788574219 3 40 C 3 44.99629211425781 3.977851867675781 49.84153366088867 5.906410217285156 54.40114593505859 C 7.769813537597656 58.80672073364258 10.43806457519531 62.76396179199219 13.83704376220703 66.16294860839844 C 17.23602676391602 69.56193542480469 21.19326782226562 72.23018646240234 25.59885406494141 74.09358978271484 C 30.15846633911133 76.02214813232422 35.00370788574219 77 40 77 C 44.99629211425781 77 49.84153366088867 76.02214813232422 54.40114593505859 74.09358978271484 C 58.80672073364258 72.23018646240234 62.76396179199219 69.56193542480469 66.16294860839844 66.16294860839844 C 69.56193542480469 62.76396179199219 72.23018646240234 58.80672073364258 74.09358978271484 54.40114593505859 C 76.02214813232422 49.84153366088867 77 44.99629211425781 77 40 C 77 35.00370788574219 76.02214813232422 30.15846633911133 74.09358978271484 25.59885406494141 C 72.23018646240234 21.19327926635742 69.56193542480469 17.23603820800781 66.16294860839844 13.83705139160156 C 62.76396179199219 10.43806457519531 58.80672073364258 7.769813537597656 54.40114593505859 5.906410217285156 C 49.84153366088867 3.977851867675781 44.99629211425781 3 40 3 M 40 0 C 62.09138488769531 0 80 17.90861511230469 80 40 C 80 62.09138488769531 62.09138488769531 80 40 80 C 17.90859985351562 80 0 62.09138488769531 0 40 C 0 17.90861511230469 17.90859985351562 0 40 0 Z" stroke="none" fill="#ac59f1"/>
              </g>
            </g>
          </g>
        </g>
      </g>
    </g>
    <g id="sociologia" transform="translate(512.83 863.77)">
      <path id="Trazado_992695" data-name="Trazado 992695" d="M87.8,170.3a4.192,4.192,0,1,1-4.192-4.192A4.164,4.164,0,0,1,87.8,170.3Z" transform="translate(-54.55 -125.937)" fill="#ffb69f"/>
      <path id="Trazado_992696" data-name="Trazado 992696" d="M82.572,203.051v5.411H70.33v-5.411a4.244,4.244,0,0,1,2.993-4.057,4.188,4.188,0,0,0,6.256,0,4.242,4.242,0,0,1,2.993,4.057Z" transform="translate(-47.39 -151.845)" fill="#8b71e7"/>
      <path id="Trazado_992697" data-name="Trazado 992697" d="M145.465,170.3a4.192,4.192,0,1,1-4.192-4.192A4.172,4.172,0,0,1,145.465,170.3Z" transform="translate(-99.97 -125.937)" fill="#ffb69f"/>
      <path id="Trazado_992698" data-name="Trazado 992698" d="M104.561,116.269v5.556a1.3,1.3,0,0,0,1.3,1.3h7.355a1.3,1.3,0,0,0,1.3-1.3v-5.556Z" transform="translate(-74.354 -86.681)" fill="#afafaf"/>
      <path id="Trazado_992699" data-name="Trazado 992699" d="M99.751,19.148a10.172,10.172,0,0,1-3.807,8.019,4.516,4.516,0,0,0-1.638,3.454v.934H84.356v-.9a4.594,4.594,0,0,0-1.661-3.517A10.1,10.1,0,0,1,78.921,18.7a10.42,10.42,0,0,1,20.83.449Z" transform="translate(-54.148 -1.968)" fill="#f0c020"/>
      <path id="Trazado_992700" data-name="Trazado 992700" d="M116.478,38.49a4.25,4.25,0,0,1-8.5,0c0-2.347,4.25-7.43,4.25-7.43S116.478,36.142,116.478,38.49Z" transform="translate(-77.046 -19.559)" fill="#13bf6d"/>
      <path id="Trazado_992701" data-name="Trazado 992701" d="M181.816,106.542c-.841-.278-1.709-.521-2.2-2.621-.449,1.934-1.168,2.281-2.2,2.621a2.917,2.917,0,0,1,2.2,2.621c.46-1.981,1.22-2.3,2.2-2.621Z" transform="translate(-131.75 -76.954)" fill="#f0c020"/>
      <path id="Trazado_992702" data-name="Trazado 992702" d="M176.98,107.2c-.243-1.05-.4-1.743-1.824-2.212a.565.565,0,0,1,0-1.072c.854-.282,1.419-.469,1.824-2.212a.565.565,0,0,1,1.1,0c.414,1.783,1.032,1.951,1.824,2.212a.565.565,0,0,1,0,1.072c-.824.272-1.419.469-1.824,2.212A.565.565,0,0,1,176.98,107.2Zm-.323-2.735a2.932,2.932,0,0,1,.884.935,2.791,2.791,0,0,1,.835-.942,2.88,2.88,0,0,1-.844-.977A2.8,2.8,0,0,1,176.657,104.465Z" transform="translate(-129.66 -74.864)"/>
      <path id="Trazado_992703" data-name="Trazado 992703" d="M62.273,106.542c-.841-.278-1.709-.521-2.2-2.621-.449,1.934-1.168,2.281-2.2,2.621a2.917,2.917,0,0,1,2.2,2.621c.46-1.981,1.22-2.3,2.2-2.621Z" transform="translate(-37.582 -76.954)" fill="#f0c020"/>
      <path id="Trazado_992704" data-name="Trazado 992704" d="M57.436,107.2c-.243-1.05-.4-1.743-1.824-2.212a.565.565,0,0,1,0-1.072c.854-.282,1.419-.469,1.824-2.212a.565.565,0,0,1,1.1,0c.414,1.783,1.032,1.951,1.824,2.212a.565.565,0,0,1,0,1.072c-.824.272-1.419.469-1.824,2.212A.565.565,0,0,1,57.436,107.2Zm-.323-2.735A2.931,2.931,0,0,1,58,105.4a2.791,2.791,0,0,1,.835-.942,2.88,2.88,0,0,1-.844-.977A2.8,2.8,0,0,1,57.113,104.465Z" transform="translate(-35.492 -74.864)"/>
      <path id="Trazado_992705" data-name="Trazado 992705" d="M140.242,203.051v5.411H128v-5.411a4.242,4.242,0,0,1,2.993-4.057,4.188,4.188,0,0,0,6.256,0,4.244,4.244,0,0,1,2.993,4.057Z" transform="translate(-92.818 -151.845)" fill="#efc01f"/>
      <path id="Trazado_992706" data-name="Trazado 992706" d="M30.135,170.3a4.19,4.19,0,1,1-4.192-4.192A4.173,4.173,0,0,1,30.135,170.3Z" transform="translate(-9.122 -125.937)" fill="#ffb69f"/>
      <path id="Trazado_992707" data-name="Trazado 992707" d="M22.063,154.263a4.192,4.192,0,1,1-5.555-6.135v-3.785a1.919,1.919,0,0,0-3.838,0V163.9H24.91v-6.473A3.18,3.18,0,0,0,22.063,154.263Z" transform="translate(-1.969 -107.284)" fill="#72c1e8"/>
      <path id="Trazado_992708" data-name="Trazado 992708" d="M194.75,170.3a4.19,4.19,0,1,0,4.192-4.192A4.172,4.172,0,0,0,194.75,170.3Z" transform="translate(-145.398 -125.937)" fill="#ffb69f"/>
      <path id="Trazado_992709" data-name="Trazado 992709" d="M185.67,157.428V163.9h12.24V144.343a1.919,1.919,0,0,0-3.838,0v3.785a4.192,4.192,0,1,1-5.555,6.135A3.18,3.18,0,0,0,185.67,157.428Z" transform="translate(-138.246 -107.284)" fill="#fb5c3c"/>
      <path id="Trazado_992710" data-name="Trazado 992710" d="M128.774,36.375a.531.531,0,0,1-.411-.628c.046-.222.1-.446.173-.665a.531.531,0,1,1,1.014.314c-.058.187-.108.378-.147.568A.531.531,0,0,1,128.774,36.375Zm.9-2.6a.531.531,0,0,1-.129-.739,7.519,7.519,0,0,1,1.322-1.437,7.346,7.346,0,0,0,2.791-5.841,7.58,7.58,0,0,0-7.565-7.577.531.531,0,1,1,0-1.061,8.642,8.642,0,0,1,8.627,8.638,8.364,8.364,0,0,1-3.17,6.654,6.465,6.465,0,0,0-1.135,1.234A.531.531,0,0,1,129.671,33.777Z" transform="translate(-90.894 -8.58)" fill="#f7e4b0"/>
      <path id="Trazado_992711" data-name="Trazado 992711" d="M82.231,225.638v-4.3a.531.531,0,1,0-1.061,0v4.3a.531.531,0,1,0,1.061,0Z" transform="translate(-55.929 -169.022)"/>
      <path id="Trazado_992712" data-name="Trazado 992712" d="M113.229,225.648v-4.307a.53.53,0,1,0-1.059,0v4.307a.53.53,0,0,0,1.059,0Z" transform="translate(-80.348 -169.03)"/>
      <path id="Trazado_992713" data-name="Trazado 992713" d="M78.395,11.872a.53.53,0,0,0-.717.221,10.755,10.755,0,0,0-1.267,5.141,10.616,10.616,0,0,0,3.974,8.349,4.517,4.517,0,0,1,1.471,4.006s0,0,0,0v5.552a1.83,1.83,0,0,0,1.828,1.828h7.355a1.83,1.83,0,0,0,1.828-1.828c0-7.861,0-4.839,0-5.556a4.464,4.464,0,0,1,1.448-3.982,10.7,10.7,0,0,0,4-8.425A10.96,10.96,0,0,0,87.374,6.23h-.03a10.887,10.887,0,0,0-6.852,2.446.533.533,0,0,0-.079.747.546.546,0,0,0,.747.076,9.765,9.765,0,0,1,6.2-2.208h.013a9.891,9.891,0,0,1,9.877,9.89,9.607,9.607,0,0,1-3.617,7.612,5.1,5.1,0,0,0-1.828,4.264H87.892V23.681a4.787,4.787,0,0,0,4.25-4.75c0-2.469-3.926-7.235-4.374-7.77a.531.531,0,0,0-.814,0c-.447.535-4.374,5.3-4.374,7.77a4.787,4.787,0,0,0,4.25,4.75v5.377H82.916a5.168,5.168,0,0,0-1.851-4.288,9.518,9.518,0,0,1-3.594-7.536,9.725,9.725,0,0,1,1.142-4.645.531.531,0,0,0-.218-.717Zm9.5,1.153c.37.488.778,1.049,1.175,1.636l-1.175,1.175Zm0,4.309,1.766-1.764a7.994,7.994,0,0,1,1.423,3.361,3.722,3.722,0,0,1-3.189,3.677V17.334Zm-1.061-4.309V19.16L84.4,16.726A29.17,29.17,0,0,1,86.831,13.026ZM83.92,17.75l2.91,2.91v1.947A3.6,3.6,0,0,1,83.92,17.75Zm-1,12.369h8.889v2.192H88.672a.531.531,0,1,0,0,1.061h3.133v1.772a.768.768,0,0,1-.767.767H83.684a.768.768,0,0,1-.767-.767V30.119Z" transform="translate(-52.179 0)"/>
      <path id="Trazado_992714" data-name="Trazado 992714" d="M88.566,25.109v0a.528.528,0,0,0-.072-.745.545.545,0,0,0-.745.07,0,0,0,0,0,0,0,.531.531,0,0,0,.819.675Z" transform="translate(-61.012 -14.192)"/>
      <path id="Trazado_992715" data-name="Trazado 992715" d="M139.891,225.648v-4.309a.531.531,0,0,0-1.061,0v4.309a.531.531,0,0,0,1.061,0Z" transform="translate(-101.349 -169.03)"/>
      <path id="Trazado_992716" data-name="Trazado 992716" d="M170.891,225.648v-4.307a.531.531,0,1,0-1.061,0v4.307a.531.531,0,0,0,1.061,0Z" transform="translate(-125.768 -169.03)"/>
      <path id="Trazado_992717" data-name="Trazado 992717" d="M197.561,225.648v-4.307a.531.531,0,1,0-1.061,0v4.307a.531.531,0,0,0,1.061,0Z" transform="translate(-146.777 -169.03)"/>
      <path id="Trazado_992718" data-name="Trazado 992718" d="M228.561,221.341a.531.531,0,1,0-1.061,0v4.3a.531.531,0,1,0,1.061,0Z" transform="translate(-171.196 -169.03)"/>
      <path id="Trazado_992719" data-name="Trazado 992719" d="M147.737,164.9a.531.531,0,1,0,.684.31A.54.54,0,0,0,147.737,164.9Z" transform="translate(-108.095 -124.962)"/>
      <path id="Trazado_992720" data-name="Trazado 992720" d="M10.17,210.72a.531.531,0,0,0,1.061,0v-8.33a.531.531,0,1,0-1.061,0Z" transform="translate(0 -154.103)"/>
      <circle id="Elipse_11841" data-name="Elipse 11841" cx="0.531" cy="0.531" r="0.531" transform="translate(10.17 45.634)"/>
      <path id="Trazado_992721" data-name="Trazado 992721" d="M12.62,139.92a2.453,2.453,0,0,0-2.45,2.45v6.984a.531.531,0,1,0,1.061,0V142.37a1.388,1.388,0,0,1,2.777,0v3.507a4.734,4.734,0,0,0-1.91,3.793h0a4.722,4.722,0,0,0,8.207,3.188,2.658,2.658,0,0,1,2.106,2.6v6.473h0a.531.531,0,1,0,1.061,0h0v-5.411a3.692,3.692,0,0,1,2.317-3.443,4.725,4.725,0,0,0,6.547,0,3.691,3.691,0,0,1,2.317,3.443v5.411a.531.531,0,1,0,1.061,0v-5.411a3.691,3.691,0,0,1,2.317-3.443,4.719,4.719,0,0,0,6.547,0,3.692,3.692,0,0,1,2.317,3.443v5.411a.531.531,0,0,0,1.061,0v-6.473a2.642,2.642,0,0,1,2.1-2.6,4.723,4.723,0,1,0,6.3-6.981V142.37a1.388,1.388,0,0,1,2.777,0v19.557a.531.531,0,1,0,1.061,0V142.37a2.45,2.45,0,0,0-4.9,0v2.916a4.721,4.721,0,0,0-5.891,6.656,3.69,3.69,0,0,0-2.192,2.007,4.739,4.739,0,0,0-1.941-1.727A4.718,4.718,0,0,0,41.994,145a.535.535,0,0,0-.6.448.529.529,0,0,0,.448.6,3.663,3.663,0,1,1-3.326,1.248.532.532,0,0,0-.059-.749.546.546,0,0,0-.747.059,4.71,4.71,0,0,0-.374,5.617,4.732,4.732,0,0,0-2.151,2.093,4.735,4.735,0,0,0-2.151-2.093,4.723,4.723,0,1,0-7.938,0,4.738,4.738,0,0,0-1.943,1.73,3.665,3.665,0,0,0-2.191-2.009,4.72,4.72,0,0,0-5.89-6.658V142.37a2.453,2.453,0,0,0-2.449-2.45Zm40.924,6.089a3.662,3.662,0,1,1-3.662,3.662A3.661,3.661,0,0,1,53.544,146.009Zm-24.482,0a3.662,3.662,0,1,1-3.662,3.662A3.666,3.666,0,0,1,29.062,146.009Zm-12.242,0a3.661,3.661,0,1,1-3.662,3.661A3.666,3.666,0,0,1,16.821,146.009Z" transform="translate(0 -105.311)"/>
      <path id="Trazado_992722" data-name="Trazado 992722" d="M24.561,225.648v-4.309a.531.531,0,0,0-1.061,0v4.309a.531.531,0,0,0,1.061,0Z" transform="translate(-10.5 -169.03)"/>
      <path id="Trazado_992723" data-name="Trazado 992723" d="M55.561,225.648v-4.309a.531.531,0,0,0-1.061,0v4.309a.531.531,0,0,0,1.061,0Z" transform="translate(-34.92 -169.03)"/>
    </g>
  </g>
</svg>
