<svg xmlns="http://www.w3.org/2000/svg" xmlns:xlink="http://www.w3.org/1999/xlink" width="110" height="110" viewBox="0 0 110 110">
  <defs>
    <filter id="Trazado_982547" x="0" y="0" width="110" height="110" filterUnits="userSpaceOnUse">
      <feOffset dy="3" input="SourceAlpha"/>
      <feGaussianBlur stdDeviation="3" result="blur"/>
      <feFlood flood-opacity="0.161"/>
      <feComposite operator="in" in2="blur"/>
      <feComposite in="SourceGraphic"/>
    </filter>
  </defs>
  <g id="_46" data-name="46" transform="translate(-1116 -4684)">
    <g id="Grupo_1154704" data-name="Grupo 1154704" transform="translate(0 1466)">
      <g id="Grupo_1150790" data-name="Grupo 1150790" transform="translate(3 2320)">
        <g id="Grupo_1154214" data-name="Grupo 1154214" transform="translate(79 -5809)">
          <g id="Grupo_1152583" data-name="Grupo 1152583" transform="translate(1043 6713)">
            <g id="Grupo_1146973" data-name="Grupo 1146973" transform="translate(0 0)">
              <g id="Grupo_1146954" data-name="Grupo 1146954">
                <g transform="matrix(1, 0, 0, 1, -9, -6)" filter="url(#Trazado_982547)">
                  <g id="Trazado_982547-2" data-name="Trazado 982547" transform="translate(9 6)" fill="#f6edfd">
                    <path d="M 46 90.49987030029297 C 39.99187850952148 90.49987030029297 34.16426849365234 89.32350921630859 28.67905426025391 87.00345611572266 C 23.38019943237305 84.76224517822266 18.62104034423828 81.55341339111328 14.53374671936035 77.46613311767578 C 10.44646644592285 73.37885284423828 7.237639904022217 68.61969757080078 4.996413230895996 63.32085418701172 C 2.676359891891479 57.83565521240234 1.5 52.008056640625 1.5 45.99993515014648 C 1.5 39.99181365966797 2.676359891891479 34.16421508789062 4.996413230895996 28.67901420593262 C 7.237639904022217 23.38017463684082 10.44646644592285 18.62101554870605 14.53374671936035 14.53373527526855 C 18.62104034423828 10.44645500183105 23.38019943237305 7.23762845993042 28.67905426025391 4.996415138244629 C 34.16426849365234 2.676361799240112 39.99187850952148 1.500001788139343 46 1.500001788139343 C 52.00812149047852 1.500001788139343 57.83573150634766 2.676361799240112 63.32094573974609 4.996415138244629 C 68.61979675292969 7.23762845993042 73.37895965576172 10.44645500183105 77.46625518798828 14.53373527526855 C 81.55353546142578 18.62101554870605 84.76235961914062 23.38017463684082 87.00358581542969 28.67901420593262 C 89.32363891601562 34.16421508789062 90.5 39.99181365966797 90.5 45.99993515014648 C 90.5 52.008056640625 89.32363891601562 57.83565521240234 87.00358581542969 63.32085418701172 C 84.76235961914062 68.61969757080078 81.55353546142578 73.37885284423828 77.46625518798828 77.46613311767578 C 73.37895965576172 81.55341339111328 68.61979675292969 84.76224517822266 63.32094573974609 87.00345611572266 C 57.83573150634766 89.32350921630859 52.00812149047852 90.49987030029297 46 90.49987030029297 Z" stroke="none"/>
                    <path d="M 46 2.999992370605469 C 40.1937141418457 2.999992370605469 34.56269836425781 4.136489868164062 29.26337051391602 6.377906799316406 C 24.14332580566406 8.543502807617188 19.54441070556641 11.64437866210938 15.59439849853516 15.59437561035156 C 11.64440155029297 19.54439544677734 8.54351806640625 24.14329528808594 6.377914428710938 29.26333618164062 C 4.136497497558594 34.56264877319336 3 40.19366455078125 3 45.99993515014648 C 3 51.80620574951172 4.136497497558594 57.43720626831055 6.377914428710938 62.73651885986328 C 8.54351806640625 67.8565673828125 11.64440155029297 72.45545959472656 15.59439849853516 76.40547943115234 C 19.54441070556641 80.35547637939453 24.14332580566406 83.45635223388672 29.26337051391602 85.6219482421875 C 34.56269836425781 87.86336517333984 40.1937141418457 88.99986267089844 46 88.99986267089844 C 51.8062858581543 88.99986267089844 57.43730163574219 87.86336517333984 62.73661422729492 85.6219482421875 C 67.85667419433594 83.45635223388672 72.45557403564453 80.35547637939453 76.40558624267578 76.40547943115234 C 80.35559844970703 72.45545959472656 83.45647430419922 67.8565673828125 85.6220703125 62.73651885986328 C 87.86350250244141 57.43720626831055 89 51.80620574951172 89 45.99993515014648 C 89 40.19366455078125 87.86350250244141 34.56264877319336 85.6220703125 29.26333618164062 C 83.45647430419922 24.14329528808594 80.35559844970703 19.54439544677734 76.40558624267578 15.59437561035156 C 72.45557403564453 11.64437866210938 67.85667419433594 8.543502807617188 62.73661422729492 6.377906799316406 C 57.43730163574219 4.136489868164062 51.8062858581543 2.999992370605469 46 2.999992370605469 M 46 -7.62939453125e-06 C 71.40509033203125 -7.62939453125e-06 92 20.59486389160156 92 45.99993515014648 C 92 71.40499114990234 71.40509033203125 91.99986267089844 46 91.99986267089844 C 20.59490203857422 91.99986267089844 0 71.40499114990234 0 45.99993515014648 C 0 20.59486389160156 20.59490203857422 -7.62939453125e-06 46 -7.62939453125e-06 Z" stroke="none" fill="#ac59f1"/>
                  </g>
                </g>
              </g>
            </g>
          </g>
        </g>
      </g>
    </g>
    <g id="emociones" transform="translate(1140 4694.604)">
      <g id="Grupo_1155732" data-name="Grupo 1155732" transform="translate(0.96 10.355)">
        <path id="Trazado_992796" data-name="Trazado 992796" d="M125.327,37.071a14.389,14.389,0,0,0,1.144-5.509A14.538,14.538,0,1,0,97.678,34.3a3.179,3.179,0,0,1-.368,2.212L94.952,40.6a.706.706,0,0,0,.612,1.06h4.772a3.152,3.152,0,0,1,2.07.759,14.505,14.505,0,0,0,15.183,2.406,14.589,14.589,0,0,1,7.739-7.75Z" transform="translate(-83.687 -16.898)" fill="#ffe177"/>
        <path id="Trazado_992797" data-name="Trazado 992797" d="M226.98,37.071a14.392,14.392,0,0,0,1.144-5.509A14.538,14.538,0,0,0,213.462,16.9a14.84,14.84,0,0,0-2.045.159,14.538,14.538,0,0,1,0,28.754,14.65,14.65,0,0,0,2.26.162,14.393,14.393,0,0,0,5.567-1.152,14.587,14.587,0,0,1,7.738-7.75Z" transform="translate(-185.34 -16.898)" fill="#ffd15b"/>
        <g id="Grupo_1155725" data-name="Grupo 1155725" transform="translate(32.765 19.029)">
          <path id="Trazado_992798" data-name="Trazado 992798" d="M294.456,190.485l-1.947-4.313a3.252,3.252,0,0,1-.192-2.174,14.539,14.539,0,1,0-28.585-3.619,14.738,14.738,0,0,0,14.469,14.4,14.474,14.474,0,0,0,9-3.069,3.188,3.188,0,0,1,2.278-.657l4.26.425A.706.706,0,0,0,294.456,190.485Z" transform="translate(-263.732 -165.705)" fill="#ffe5c2"/>
        </g>
        <g id="Grupo_1155726" data-name="Grupo 1155726" transform="translate(45.442 19.029)">
          <path id="Trazado_992799" data-name="Trazado 992799" d="M380.909,190.484l-1.947-4.313A3.252,3.252,0,0,1,378.77,184a14.544,14.544,0,0,0-15.909-18.175,14.54,14.54,0,0,1,12.676,14.556,14.774,14.774,0,0,1-12.676,14.276,13.938,13.938,0,0,0,1.793.124,14.474,14.474,0,0,0,9-3.069,3.188,3.188,0,0,1,2.278-.657l4.259.425A.706.706,0,0,0,380.909,190.484Z" transform="translate(-362.861 -165.704)" fill="#fed2a4"/>
        </g>
        <g id="Grupo_1155727" data-name="Grupo 1155727" transform="translate(38.991 34.197)">
          <path id="Trazado_992800" data-name="Trazado 992800" d="M313.615,284.313a1.2,1.2,0,0,0-1.182,1.385,8.411,8.411,0,0,0,16.592,0,1.2,1.2,0,0,0-1.182-1.385Z" transform="translate(-312.417 -284.313)" fill="#fe7d43"/>
        </g>
        <g id="Grupo_1155728" data-name="Grupo 1155728" transform="translate(45.23 34.196)">
          <path id="Trazado_992801" data-name="Trazado 992801" d="M370.391,284.312h-4.147a1.2,1.2,0,0,1,1.182,1.385,8.418,8.418,0,0,1-6.222,6.764,8.41,8.41,0,0,0,10.369-6.764A1.2,1.2,0,0,0,370.391,284.312Z" transform="translate(-361.203 -284.312)" fill="#fd6930"/>
        </g>
        <g id="Grupo_1155731" data-name="Grupo 1155731" transform="translate(0 32.076)">
          <g id="Grupo_1155729" data-name="Grupo 1155729" transform="translate(0 0)">
            <path id="Trazado_992802" data-name="Trazado 992802" d="M7.575,292.513,9.522,288.2a3.252,3.252,0,0,0,.192-2.174A14.539,14.539,0,1,1,38.3,282.408a14.738,14.738,0,0,1-14.469,14.4,14.474,14.474,0,0,1-9-3.069,3.188,3.188,0,0,0-2.278-.657l-4.259.425a.706.706,0,0,1-.714-.994Z" transform="translate(-7.511 -267.733)" fill="#bd80e1"/>
          </g>
          <g id="Grupo_1155730" data-name="Grupo 1155730" transform="translate(13.981)">
            <path id="Trazado_992803" data-name="Trazado 992803" d="M119.014,267.733a14.765,14.765,0,0,0-2.163.174,14.541,14.541,0,0,1,12.289,14.5,14.778,14.778,0,0,1-12.3,14.221,14.539,14.539,0,0,0,2.337.18,14.739,14.739,0,0,0,14.469-14.4A14.538,14.538,0,0,0,119.014,267.733Z" transform="translate(-116.839 -267.733)" fill="#af66da"/>
          </g>
        </g>
      </g>
      <g id="Grupo_1155733" data-name="Grupo 1155733" transform="translate(0 9.395)">
        <path id="Trazado_992804" data-name="Trazado 992804" d="M141.5,53.77l-1.947-4.313a2.3,2.3,0,0,1-.139-1.532,15.465,15.465,0,0,0-14.874-19.5h-.1a15.524,15.524,0,0,0-4.115.555A15.49,15.49,0,0,0,105.248,9.4a15.494,15.494,0,0,0-8.451,2.57.959.959,0,0,0,1.06,1.6,13.58,13.58,0,0,1,7.407-2.251h.118a13.56,13.56,0,0,1,12.648,18.5,15.531,15.531,0,0,0-7.714,7.724,13.414,13.414,0,0,1-4.852.937h-.08a13.565,13.565,0,0,1-8.9-3.323,4.108,4.108,0,0,0-2.7-.994H89.449l2.139-3.705a4.136,4.136,0,0,0,.478-2.879,13.728,13.728,0,0,1-.256-3.157,13.482,13.482,0,0,1,2.958-8.024.959.959,0,1,0-1.5-1.2,15.385,15.385,0,0,0-3.378,9.157,15.641,15.641,0,0,0,.292,3.6,2.219,2.219,0,0,1-.258,1.544l-2.358,4.084a1.666,1.666,0,0,0,1.443,2.5h4.772a2.191,2.191,0,0,1,1.441.524,15.481,15.481,0,0,0,10.159,3.793h.091a15.315,15.315,0,0,0,4.014-.559,15.445,15.445,0,0,0-.457,2.414.959.959,0,1,0,1.907.206,13.58,13.58,0,0,1,13.5-12.107h.087a13.586,13.586,0,0,1,13.033,17.087,4.22,4.22,0,0,0,.244,2.816l1.767,3.914-3.824-.382a4.131,4.131,0,0,0-2.963.855,13.437,13.437,0,0,1-8.343,2.867h-.065a13.491,13.491,0,0,1-8.526-3.162,13.84,13.84,0,0,1-4.706-7.715.959.959,0,1,0-1.876.4,15.765,15.765,0,0,0,5.355,8.792,15.414,15.414,0,0,0,9.744,3.605h.075a15.338,15.338,0,0,0,9.523-3.273,2.222,2.222,0,0,1,1.593-.459l4.26.425A1.666,1.666,0,0,0,141.5,53.77Z" transform="translate(-76.174 -9.395)"/>
        <path id="Trazado_992805" data-name="Trazado 992805" d="M160.539,133.992a9.962,9.962,0,0,0,9.95-9.95.959.959,0,1,0-1.918,0,8.032,8.032,0,1,1-16.064,0,.959.959,0,1,0-1.918,0A9.962,9.962,0,0,0,160.539,133.992Z" transform="translate(-131.332 -108.544)"/>
        <path id="Trazado_992806" data-name="Trazado 992806" d="M191.564,84.883V81.569a.959.959,0,1,0-1.918,0v3.314a.959.959,0,1,0,1.918,0Z" transform="translate(-165.394 -71.503)"/>
        <path id="Trazado_992807" data-name="Trazado 992807" d="M254.071,84.883V81.569a.959.959,0,0,0-1.918,0v3.314a.959.959,0,0,0,1.918,0Z" transform="translate(-219.908 -71.503)"/>
        <path id="Trazado_992808" data-name="Trazado 992808" d="M304.948,279.313a9.37,9.37,0,0,0,18.484,0,2.154,2.154,0,0,0-2.128-2.5H307.076a2.154,2.154,0,0,0-2.128,2.5Zm1.944-.5a.238.238,0,0,1,.184-.085H321.3a.238.238,0,0,1,.184.085.221.221,0,0,1,.052.184,7.452,7.452,0,0,1-14.7,0A.222.222,0,0,1,306.892,278.815Z" transform="translate(-265.926 -242.615)"/>
        <path id="Trazado_992809" data-name="Trazado 992809" d="M310,223.051a.959.959,0,0,0,.959-.959,1.9,1.9,0,0,1,3.8,0,.959.959,0,0,0,1.918,0,3.819,3.819,0,0,0-7.638,0A.959.959,0,0,0,310,223.051Z" transform="translate(-269.521 -191.562)"/>
        <path id="Trazado_992810" data-name="Trazado 992810" d="M387.987,222.092a1.9,1.9,0,0,1,3.8,0,.959.959,0,0,0,1.918,0,3.819,3.819,0,0,0-7.638,0,.959.959,0,0,0,1.918,0Z" transform="translate(-336.699 -191.562)"/>
        <path id="Trazado_992811" data-name="Trazado 992811" d="M17.11,260.231a15.383,15.383,0,0,0-13.84,8.688.959.959,0,0,0,1.725.838,13.477,13.477,0,0,1,12.127-7.608h.088a13.578,13.578,0,0,1,13.578,13.707,13.8,13.8,0,0,1-13.514,13.45h-.065a13.437,13.437,0,0,1-8.343-2.867,4.129,4.129,0,0,0-2.964-.855l-3.824.382,1.767-3.914a4.221,4.221,0,0,0,.244-2.816,13.63,13.63,0,0,1-.443-4.152c.02-.437.062-.88.124-1.315a.959.959,0,1,0-1.9-.27c-.071.5-.118,1-.141,1.5a15.547,15.547,0,0,0,.506,4.736,2.3,2.3,0,0,1-.139,1.532L.15,285.576a1.666,1.666,0,0,0,1.684,2.343l4.259-.425a2.22,2.22,0,0,1,1.593.459,15.336,15.336,0,0,0,9.523,3.273h.074a15.369,15.369,0,0,0,10.8-4.569A15.442,15.442,0,0,0,17.11,260.231Z" transform="translate(0 -228.154)"/>
        <path id="Trazado_992812" data-name="Trazado 992812" d="M72.884,331.5a.959.959,0,0,0-.959.959,1.9,1.9,0,1,1-3.8,0,.959.959,0,0,0-1.918,0,3.819,3.819,0,1,0,7.638,0A.959.959,0,0,0,72.884,331.5Z" transform="translate(-57.739 -290.311)"/>
        <path id="Trazado_992813" data-name="Trazado 992813" d="M150.872,332.46a.959.959,0,0,0-1.918,0,1.9,1.9,0,1,1-3.8,0,.959.959,0,0,0-1.918,0,3.819,3.819,0,1,0,7.638,0Z" transform="translate(-124.917 -290.311)"/>
        <path id="Trazado_992814" data-name="Trazado 992814" d="M79.7,393.33a.959.959,0,0,0,1.9.284,5.171,5.171,0,0,1,10.224,0,.959.959,0,0,0,1.9-.284,7.089,7.089,0,0,0-14.018,0Z" transform="translate(-69.498 -338.974)"/>
      </g>
    </g>
  </g>
</svg>
