<svg xmlns="http://www.w3.org/2000/svg" xmlns:xlink="http://www.w3.org/1999/xlink" width="110" height="110" viewBox="0 0 110 110">
  <defs>
    <filter id="Trazado_982547" x="0" y="0" width="110" height="110" filterUnits="userSpaceOnUse">
      <feOffset dy="3" input="SourceAlpha"/>
      <feGaussianBlur stdDeviation="3" result="blur"/>
      <feFlood flood-opacity="0.161"/>
      <feComposite operator="in" in2="blur"/>
      <feComposite in="SourceGraphic"/>
    </filter>
  </defs>
  <g id="_49" data-name="49" transform="translate(-6973 -4990.666)">
    <g id="Grupo_1154732" data-name="Grupo 1154732" transform="translate(6172 1772.666)">
      <g id="Grupo_1150789" data-name="Grupo 1150789" transform="translate(3 2320)">
        <g id="Grupo_1154212" data-name="Grupo 1154212" transform="translate(-236 -5809)">
          <g id="Grupo_1152583" data-name="Grupo 1152583" transform="translate(1043 6713)">
            <g id="Grupo_1146973" data-name="Grupo 1146973" transform="translate(0 0)">
              <g id="Grupo_1146954" data-name="Grupo 1146954">
                <g transform="matrix(1, 0, 0, 1, -9, -6)" filter="url(#Trazado_982547)">
                  <g id="Trazado_982547-2" data-name="Trazado 982547" transform="translate(9 6)" fill="#f6edfd">
                    <path d="M 46 90.49987030029297 C 39.99187850952148 90.49987030029297 34.16426849365234 89.32350921630859 28.67905426025391 87.00345611572266 C 23.38019943237305 84.76224517822266 18.62104034423828 81.55341339111328 14.53374671936035 77.46613311767578 C 10.44646644592285 73.37885284423828 7.237639904022217 68.61969757080078 4.996413230895996 63.32085418701172 C 2.676359891891479 57.83565521240234 1.5 52.008056640625 1.5 45.99993515014648 C 1.5 39.99181365966797 2.676359891891479 34.16421508789062 4.996413230895996 28.67901420593262 C 7.237639904022217 23.38017463684082 10.44646644592285 18.62101554870605 14.53374671936035 14.53373527526855 C 18.62104034423828 10.44645500183105 23.38019943237305 7.23762845993042 28.67905426025391 4.996415138244629 C 34.16426849365234 2.676361799240112 39.99187850952148 1.500001788139343 46 1.500001788139343 C 52.00812149047852 1.500001788139343 57.83573150634766 2.676361799240112 63.32094573974609 4.996415138244629 C 68.61979675292969 7.23762845993042 73.37895965576172 10.44645500183105 77.46625518798828 14.53373527526855 C 81.55353546142578 18.62101554870605 84.76235961914062 23.38017463684082 87.00358581542969 28.67901420593262 C 89.32363891601562 34.16421508789062 90.5 39.99181365966797 90.5 45.99993515014648 C 90.5 52.008056640625 89.32363891601562 57.83565521240234 87.00358581542969 63.32085418701172 C 84.76235961914062 68.61969757080078 81.55353546142578 73.37885284423828 77.46625518798828 77.46613311767578 C 73.37895965576172 81.55341339111328 68.61979675292969 84.76224517822266 63.32094573974609 87.00345611572266 C 57.83573150634766 89.32350921630859 52.00812149047852 90.49987030029297 46 90.49987030029297 Z" stroke="none"/>
                    <path d="M 46 2.999992370605469 C 40.1937141418457 2.999992370605469 34.56269836425781 4.136489868164062 29.26337051391602 6.377906799316406 C 24.14332580566406 8.543502807617188 19.54441070556641 11.64437866210938 15.59439849853516 15.59437561035156 C 11.64440155029297 19.54439544677734 8.54351806640625 24.14329528808594 6.377914428710938 29.26333618164062 C 4.136497497558594 34.56264877319336 3 40.19366455078125 3 45.99993515014648 C 3 51.80620574951172 4.136497497558594 57.43720626831055 6.377914428710938 62.73651885986328 C 8.54351806640625 67.8565673828125 11.64440155029297 72.45545959472656 15.59439849853516 76.40547943115234 C 19.54441070556641 80.35547637939453 24.14332580566406 83.45635223388672 29.26337051391602 85.6219482421875 C 34.56269836425781 87.86336517333984 40.1937141418457 88.99986267089844 46 88.99986267089844 C 51.8062858581543 88.99986267089844 57.43730163574219 87.86336517333984 62.73661422729492 85.6219482421875 C 67.85667419433594 83.45635223388672 72.45557403564453 80.35547637939453 76.40558624267578 76.40547943115234 C 80.35559844970703 72.45545959472656 83.45647430419922 67.8565673828125 85.6220703125 62.73651885986328 C 87.86350250244141 57.43720626831055 89 51.80620574951172 89 45.99993515014648 C 89 40.19366455078125 87.86350250244141 34.56264877319336 85.6220703125 29.26333618164062 C 83.45647430419922 24.14329528808594 80.35559844970703 19.54439544677734 76.40558624267578 15.59437561035156 C 72.45557403564453 11.64437866210938 67.85667419433594 8.543502807617188 62.73661422729492 6.377906799316406 C 57.43730163574219 4.136489868164062 51.8062858581543 2.999992370605469 46 2.999992370605469 M 46 -7.62939453125e-06 C 71.40509033203125 -7.62939453125e-06 92 20.59486389160156 92 45.99993515014648 C 92 71.40499114990234 71.40509033203125 91.99986267089844 46 91.99986267089844 C 20.59490203857422 91.99986267089844 0 71.40499114990234 0 45.99993515014648 C 0 20.59486389160156 20.59490203857422 -7.62939453125e-06 46 -7.62939453125e-06 Z" stroke="none" fill="#ac59f1"/>
                  </g>
                </g>
              </g>
            </g>
          </g>
        </g>
      </g>
    </g>
    <g id="cerebro_4_" data-name="cerebro (4)" transform="translate(6996.341 5013.421)">
      <path id="Trazado_992852" data-name="Trazado 992852" d="M13.637,24.5a.817.817,0,0,0,.394-.869,9.244,9.244,0,0,1,9.07-11h.021a.831.831,0,0,0,.769-.506,7.353,7.353,0,0,1,6.647-4.44,7.581,7.581,0,0,1,7.58,7.495V55.833a7.581,7.581,0,0,1-7.58,7.495,7.353,7.353,0,0,1-6.647-4.441.831.831,0,0,0-.769-.505H23.1a9.244,9.244,0,0,1-9.07-11,.818.818,0,0,0-.394-.869,12.673,12.673,0,0,1,0-22.008Zm0,0" transform="translate(-6.354 -6.3)" fill="#60b8ff"/>
      <path id="Trazado_992853" data-name="Trazado 992853" d="M27.619,58.89a.831.831,0,0,0-.769-.505h-.021a9.244,9.244,0,0,1-9.07-11,.818.818,0,0,0-.394-.869,12.673,12.673,0,0,1,0-22.008.818.818,0,0,0,.394-.869,9.244,9.244,0,0,1,9.07-11h.021a.832.832,0,0,0,.769-.505,7.368,7.368,0,0,1,4.871-4.2,7.186,7.186,0,0,0-1.951-.243,7.351,7.351,0,0,0-6.647,4.44.831.831,0,0,1-.769.505H23.1a9.244,9.244,0,0,0-9.07,11,.817.817,0,0,1-.394.869,12.673,12.673,0,0,0,0,22.008.817.817,0,0,1,.394.869,9.244,9.244,0,0,0,9.07,11h.021a.832.832,0,0,1,.77.505,7.352,7.352,0,0,0,6.647,4.441,7.2,7.2,0,0,0,1.951-.243,7.368,7.368,0,0,1-4.871-4.2Zm0,0" transform="translate(-6.354 -6.304)" fill="#22a7ff"/>
      <path id="Trazado_992854" data-name="Trazado 992854" d="M280.213,24.5a.817.817,0,0,1-.394-.869,9.244,9.244,0,0,0-9.07-11h-.021a.831.831,0,0,1-.769-.506,7.353,7.353,0,0,0-6.647-4.44,7.475,7.475,0,0,0-7.455,7.495V55.833a7.475,7.475,0,0,0,7.455,7.495,7.353,7.353,0,0,0,6.647-4.441.831.831,0,0,1,.769-.505h.021a9.244,9.244,0,0,0,9.07-11,.818.818,0,0,1,.394-.869,12.673,12.673,0,0,0,0-22.008Zm0,0" transform="translate(-224.215 -6.3)" fill="#ff646f"/>
      <path id="Trazado_992855" data-name="Trazado 992855" d="M259.582,55.833V15.184a7.54,7.54,0,0,1,5.51-7.25,7.341,7.341,0,0,0-1.781-.245,7.475,7.475,0,0,0-7.455,7.495V55.833a7.475,7.475,0,0,0,7.455,7.495,7.338,7.338,0,0,0,1.781-.245,7.54,7.54,0,0,1-5.51-7.25Zm0,0" transform="translate(-224.214 -6.3)" fill="#ff4755"/>
      <path id="Trazado_992856" data-name="Trazado 992856" d="M179.192,96.31a10.781,10.781,0,0,0-5.442,19.927,1.665,1.665,0,0,1,.789,1.411v1.566a1.658,1.658,0,0,0,1.658,1.658h6.511a1.658,1.658,0,0,0,1.658-1.658v-1.566a1.669,1.669,0,0,1,.792-1.413,10.78,10.78,0,0,0-5.967-19.925Zm0,0" transform="translate(-147.812 -83.959)" fill="#ffe55a"/>
      <path id="Trazado_992857" data-name="Trazado 992857" d="M178.132,119.214v-1.566a1.665,1.665,0,0,0-.789-1.411,10.779,10.779,0,0,1,3.913-19.779,10.781,10.781,0,0,0-7.505,19.779,1.664,1.664,0,0,1,.789,1.411v1.567a1.658,1.658,0,0,0,1.658,1.657h3.592a1.657,1.657,0,0,1-1.657-1.658Zm0,0" transform="translate(-147.813 -83.958)" fill="#ffd500"/>
      <path id="Trazado_992858" data-name="Trazado 992858" d="M233.781,350.348v1.819a1.714,1.714,0,0,0,1.709,1.709h2.041a1.714,1.714,0,0,0,1.709-1.709v-1.819Zm0,0" transform="translate(-204.87 -306.583)" fill="#4f66d1"/>
      <path id="Trazado_992859" data-name="Trazado 992859" d="M237.373,352.167v-1.819h-3.592v1.819a1.714,1.714,0,0,0,1.709,1.709h2.041a1.693,1.693,0,0,0,.775-.189A1.714,1.714,0,0,1,237.373,352.167Zm0,0" transform="translate(-204.87 -306.583)" fill="#314dca"/>
      <path id="Trazado_992860" data-name="Trazado 992860" d="M226.842,322.645h-5.554a1.714,1.714,0,0,0-1.709,1.709v.255a1.714,1.714,0,0,0,1.709,1.709h5.554a1.714,1.714,0,0,0,1.709-1.709v-.255A1.714,1.714,0,0,0,226.842,322.645Zm0,0" transform="translate(-192.424 -282.306)" fill="#d9edff"/>
      <path id="Trazado_992861" data-name="Trazado 992861" d="M226.842,329.066h-5.554a1.708,1.708,0,0,1-1.38-.707,1.7,1.7,0,0,0-.329,1v.255a1.714,1.714,0,0,0,1.709,1.709h5.554a1.714,1.714,0,0,0,1.709-1.709v-.255a1.7,1.7,0,0,0-.329-1,1.708,1.708,0,0,1-1.38.707Zm0,0" transform="translate(-192.424 -287.313)" fill="#b4dbff"/>
      <path id="Trazado_992862" data-name="Trazado 992862" d="M226.842,293.941h-5.554a1.714,1.714,0,0,0-1.709,1.709v.255a1.714,1.714,0,0,0,1.709,1.709h5.554a1.714,1.714,0,0,0,1.709-1.709v-.255A1.714,1.714,0,0,0,226.842,293.941Zm0,0" transform="translate(-192.424 -257.151)" fill="#d9edff"/>
      <path id="Trazado_992863" data-name="Trazado 992863" d="M226.842,300.363h-5.554a1.709,1.709,0,0,1-1.38-.707,1.7,1.7,0,0,0-.329,1v.255a1.714,1.714,0,0,0,1.709,1.709h5.554a1.714,1.714,0,0,0,1.709-1.709v-.255a1.7,1.7,0,0,0-.329-1,1.708,1.708,0,0,1-1.38.707Zm0,0" transform="translate(-192.424 -262.16)" fill="#b4dbff"/>
      <path id="Trazado_992864" data-name="Trazado 992864" d="M56.547,17.475A10.177,10.177,0,0,0,46.589,5.445,8.3,8.3,0,0,0,41.674.937a.928.928,0,1,0-.6,1.757,7.04,7.04,0,0,1,4.541,6.767.928.928,0,1,0,1.856,0,9.447,9.447,0,0,0-.262-2.132A8.313,8.313,0,0,1,54.8,16.571a9.913,9.913,0,0,0-2.322-.725,4.437,4.437,0,0,0-2.126-2.983.928.928,0,0,0-.929,1.606,2.563,2.563,0,0,1,0,4.44.928.928,0,1,0,.93,1.606,4.435,4.435,0,0,0,2.081-2.791c3.163.675,9.036,4.537,9.036,11.521A11.784,11.784,0,0,1,55.631,39.4a12.028,12.028,0,0,1-3.192,1.36,4.435,4.435,0,0,0-2.081-2.791.928.928,0,1,0-.93,1.606,2.566,2.566,0,0,1,0,4.44.928.928,0,1,0,.929,1.606,4.434,4.434,0,0,0,2.125-2.983,9.955,9.955,0,0,0,2.321-.725A8.314,8.314,0,0,1,47.21,51.16a9.472,9.472,0,0,0,.264-2.14.928.928,0,1,0-1.856,0c0,3.705-2.635,7.061-6.516,7.115a6.548,6.548,0,0,1-6.515-6.567V48.258h.092a2.64,2.64,0,0,0,2.637-2.637v-.8a2.65,2.65,0,0,0,1.757-2.486v-.131a2.665,2.665,0,0,0-.63-1.709,2.672,2.672,0,0,0,.63-1.709v-.131a2.666,2.666,0,0,0-.431-1.444,2.589,2.589,0,0,0,.858-1.923V33.726a.742.742,0,0,1,.357-.626,11.788,11.788,0,0,0,5.221-7.333.928.928,0,1,0-1.81-.411,9.921,9.921,0,0,1-4.394,6.169h0a2.61,2.61,0,0,0-1.033,1.216c0,.007-.006.014-.009.021-.231.574-.186.851-.186,2.529a.731.731,0,0,1-.73.73H32.586v-4.5a3.768,3.768,0,0,0,2.944-3.672V26.508a.928.928,0,0,0-.288-1.81H28.027a.928.928,0,0,0-.24,1.824v1.326a3.768,3.768,0,0,0,2.944,3.672v4.5H28.4a.73.73,0,0,1-.73-.729,18.023,18.023,0,0,0-.021-1.9,2.583,2.583,0,0,0-1.2-1.866A9.848,9.848,0,1,1,41.354,21.4a.928.928,0,1,0,1.827-.331A11.71,11.71,0,0,0,32.587,11.5V8.921A6.589,6.589,0,0,1,37.3,2.6.928.928,0,1,0,36.788.814a8.389,8.389,0,0,0-5.133,4.27,8.232,8.232,0,0,0-14.927.36A10.178,10.178,0,0,0,6.77,17.475a13.614,13.614,0,0,0,0,23.539,10.178,10.178,0,0,0,9.958,12.031,8.232,8.232,0,0,0,14.931.352,8.232,8.232,0,0,0,14.931-.352,10.177,10.177,0,0,0,9.958-12.031,13.614,13.614,0,0,0,0-23.539Zm-26.9,10.373V26.555h4.032v1.293a1.909,1.909,0,0,1-1.907,1.907H31.55a1.909,1.909,0,0,1-1.907-1.907ZM33.46,45.621a.782.782,0,0,1-.781.781H30.639a.782.782,0,0,1-.781-.781v-.644h3.6Zm.976-7.744a.782.782,0,0,1,.781.781v.131a.782.782,0,0,1-.781.781H28.881a.782.782,0,0,1-.781-.781v-.131a.782.782,0,0,1,.781-.781Zm0,3.55a.782.782,0,0,1,.781.781v.132a.784.784,0,0,1-.829.781H28.929a.784.784,0,0,1-.829-.781v-.132a.782.782,0,0,1,.781-.781ZM24.216,56.135c-3.885-.054-6.516-3.417-6.516-7.114a.928.928,0,0,0-1.856,0,9.479,9.479,0,0,0,.264,2.14,8.314,8.314,0,0,1-7.594-9.25,9.932,9.932,0,0,0,2.321.725,4.435,4.435,0,0,0,2.125,2.983.928.928,0,0,0,.929-1.606,2.566,2.566,0,0,1,0-4.44.928.928,0,1,0-.93-1.606,4.438,4.438,0,0,0-2.081,2.791c-3.1-.662-9.036-4.423-9.036-11.514,0-7.153,6.053-10.884,9.036-11.521a4.438,4.438,0,0,0,2.081,2.791.928.928,0,1,0,.93-1.606,2.566,2.566,0,0,1,0-4.44.928.928,0,0,0-.929-1.606,4.435,4.435,0,0,0-2.125,2.983,9.917,9.917,0,0,0-2.322.725,8.314,8.314,0,0,1,7.594-9.242,9.446,9.446,0,0,0-.262,2.132.928.928,0,1,0,1.856,0,8.848,8.848,0,0,1,.7-3.208l0-.008.005-.011a6.433,6.433,0,0,1,5.9-3.881A6.553,6.553,0,0,1,30.73,8.921v2.572A11.709,11.709,0,0,0,25.464,33.1a.735.735,0,0,1,.353.624v1.567a2.589,2.589,0,0,0,.858,1.923,2.659,2.659,0,0,0-.431,1.444v.131a2.671,2.671,0,0,0,.63,1.709,2.684,2.684,0,0,0-.63,1.709v.131A2.651,2.651,0,0,0,28,44.825v.8a2.64,2.64,0,0,0,2.637,2.637h.092v1.311a6.547,6.547,0,0,1-6.514,6.567Zm0,0" transform="translate(0 0)"/>
    </g>
  </g>
</svg>
