<svg xmlns="http://www.w3.org/2000/svg" xmlns:xlink="http://www.w3.org/1999/xlink" width="413.518" height="335.107" viewBox="0 0 413.518 335.107">
  <defs>
    <filter id="Trazado_991558" x="0" y="0" width="393.337" height="335.107" filterUnits="userSpaceOnUse">
      <feOffset dy="3" input="SourceAlpha"/>
      <feGaussianBlur stdDeviation="3" result="blur"/>
      <feFlood flood-opacity="0.161"/>
      <feComposite operator="in" in2="blur"/>
      <feComposite in="SourceGraphic"/>
    </filter>
  </defs>
  <g id="_57" data-name="57" transform="translate(-405.581 -106.509)">
    <g transform="matrix(1, 0, 0, 1, 405.58, 106.51)" filter="url(#Trazado_991558)">
      <path id="Trazado_991558-2" data-name="Trazado 991558" d="M471.479,415.2c37.964,27.872,87.935,20.554,156.712,9.934,26.854-4.146,27.233-9.046,94.643-25.583,42.038-10.313,48.91-10.577,57.039-18.269,30.626-28.985,16.182-103.9-12.223-153.117-46.2-80.06-151.183-129.977-225-103.516-5.015,1.795-59.108,27.123-62.544,58.949-.389,3.6-.552,11.2-5.274,19.411-8.374,14.555-23.682,18.14-29.955,21.566C412.961,242.016,407.126,367.953,471.479,415.2Z" transform="translate(-412.65 -111.51)" fill="#ac59f1"/>
    </g>
    <path id="Trazado_991559" data-name="Trazado 991559" d="M490.53,121.7a55.883,55.883,0,0,0,0,111.766Z" transform="translate(49.376 15.907)" fill="#a3f0f3"/>
    <g id="Grupo_1154987" data-name="Grupo 1154987" transform="translate(493.549 136.302)">
      <path id="Trazado_991560" data-name="Trazado 991560" d="M492.875,233.92a56.248,56.248,0,0,1,0-112.5.363.363,0,0,1,.36.36v111.77A.364.364,0,0,1,492.875,233.92Zm-.365-111.77a55.524,55.524,0,0,0,0,111.046Z" transform="translate(-436.632 -121.425)"/>
    </g>
    <g id="Grupo_1154988" data-name="Grupo 1154988" transform="translate(438.079 117.908)">
      <path id="Trazado_991561" data-name="Trazado 991561" d="M425.073,192.291a74.787,74.787,0,0,0,74.7,74.7V253.937a61.644,61.644,0,1,1,0-123.288V117.592A74.782,74.782,0,0,0,425.073,192.291Z" transform="translate(-425.073 -117.592)" fill="#e23e64"/>
    </g>
    <path id="Trazado_991562" data-name="Trazado 991562" d="M469.8,159.188l59.3,34.235v-68.47Z" transform="translate(182.902 28.279)" fill="#a3f0f3"/>
    <g id="Grupo_1154989" data-name="Grupo 1154989" transform="translate(667.282 152.517)">
      <path id="Trazado_991563" data-name="Trazado 991563" d="M532.494,193.989c-.177-.048-59.477-34.283-59.477-34.283a.373.373,0,0,1-.182-.312.367.367,0,0,1,.182-.312l59.3-34.235a.387.387,0,0,1,.355,0,.373.373,0,0,1,.182.312v68.47a.367.367,0,0,1-.182.312A.393.393,0,0,1,532.494,193.989Zm-58.58-34.6,58.215,33.611V125.783Z" transform="translate(-472.835 -124.804)"/>
    </g>
    <circle id="Elipse_11823" data-name="Elipse 11823" cx="61.963" cy="61.963" r="61.963" transform="translate(676.348 337.098) rotate(-80.462)" fill="#fd884d"/>
    <path id="Trazado_991564" data-name="Trazado 991564" d="M423.1,182.527l46.822,27.037V155.495Z" transform="translate(5.511 144.305)" fill="#e23e64"/>
    <g id="Grupo_1155011" data-name="Grupo 1155011" transform="translate(434.12 118.588)">
      <g id="Grupo_1155004" data-name="Grupo 1155004" transform="translate(98.948)">
        <path id="Trazado_991565" data-name="Trazado 991565" d="M535.961,286.132l29.192-14.68c-9.526-22.334-18.428-40.694-25.309-54.227-29.916-58.805-44.212-70.543-57.63-71.594a26.243,26.243,0,0,0-6.238.264q6.169,35.689,12.343,71.378Q512.137,251.7,535.961,286.132Z" transform="translate(-326.692 -12.053)" fill="#ff7866"/>
        <path id="Trazado_991566" data-name="Trazado 991566" d="M461.281,251.721q4.83,14.821,10.4,27.728c-.48,6.834-.955,13.624-1.392,20.462-.216,3-.437,6.008-.61,9.012H576.641c-.086-3-.216-6.008-.35-9.012-.216-5.528-.437-11.1-.653-16.628,2.831-5.356,5.528-11.013,8.139-16.935a280.6,280.6,0,0,0,20.112-68.734,308.639,308.639,0,0,0,3.657-37.57,198.236,198.236,0,0,0-60.989-16.062c-5.356-.48-10.927-.825-16.715-.825-1.046-.043-2.135-.043-3.22-.043-3.916.043-7.75.173-11.45.437a183.306,183.306,0,0,0-18.677,2.179,98.393,98.393,0,0,0-39.264,22.766A94.06,94.06,0,0,0,446.39,180.77,337.193,337.193,0,0,0,461.281,251.721Z" transform="translate(-439.081 -21.321)" fill="#ff7866"/>
        <path id="Trazado_991567" data-name="Trazado 991567" d="M473.345,149.348c-1.943,4.007-5.927,5.61-8.542,4.453-2.174-.96-2.851-3.59-2.97-4.084Z" transform="translate(-380.415 2.365)"/>
        <path id="Trazado_991568" data-name="Trazado 991568" d="M501.734,149.282a35.237,35.237,0,0,1-13.365,5.691,36.043,36.043,0,0,1-21.288-2.476Z" transform="translate(-360.479 2.114)"/>
        <path id="Trazado_991569" data-name="Trazado 991569" d="M486.239,153.352a35.221,35.221,0,0,1-14.267,2.745,36.054,36.054,0,0,1-20.285-6.906Z" transform="translate(-418.959 1.768)"/>
        <path id="Trazado_991570" data-name="Trazado 991570" d="M512.156,200.236l-54.424,6.1q-.5-33.242-1.013-66.484,21.53-2.411,43.065-4.828Q505.975,167.63,512.156,200.236Z" transform="translate(-399.839 -52.031)" fill="#ff7866"/>
        <path id="Trazado_991571" data-name="Trazado 991571" d="M491.42,158c1.708,15.251-4.405,28.452-13.662,29.489s-18.145-10.481-19.853-25.732,4.405-28.452,13.662-29.489S489.711,142.752,491.42,158Z" transform="translate(-396.426 -62.773)"/>
        <path id="Trazado_991572" data-name="Trazado 991572" d="M493.882,210.776a32.282,32.282,0,0,1-35.68-28.481l-5.26-46.895a58.008,58.008,0,0,1,64.156-7.2q2.627,23.445,5.26,46.895A32.272,32.272,0,0,1,493.882,210.776Z" transform="translate(-414.187 -102.699)" fill="#ff7866"/>
        <path id="Trazado_991573" data-name="Trazado 991573" d="M483.279,136.814c.653,5.826-2.759,10.989-7.616,11.537s-9.329-3.734-9.982-9.559,2.755-10.989,7.616-11.536S482.626,130.988,483.279,136.814Z" transform="translate(-366.1 -81.745)" fill="#ff7866"/>
        <g id="Grupo_1154990" data-name="Grupo 1154990" transform="translate(47.278 72.154)">
          <path id="Trazado_991574" data-name="Trazado 991574" d="M458.093,134.942q-1.519,0-3.033-.072a.36.36,0,0,1,.019-.72,64.2,64.2,0,0,0,16.594-1.372.371.371,0,0,1,.427.278.36.36,0,0,1-.278.427,65.418,65.418,0,0,1-7.2,1.133C462.455,134.832,460.267,134.942,458.093,134.942Z" transform="translate(-454.719 -132.769)"/>
        </g>
        <path id="Trazado_991575" data-name="Trazado 991575" d="M456.119,137.609a3.371,3.371,0,1,0,2.083-4.516A3.524,3.524,0,0,0,456.119,137.609Z" transform="translate(-402.842 -59.939)"/>
        <g id="Grupo_1154991" data-name="Grupo 1154991" transform="translate(77.88 68.515)">
          <path id="Trazado_991576" data-name="Trazado 991576" d="M472.066,133.619c-.379,0-.763,0-1.142-.01a65.9,65.9,0,0,1-9.53-.878.364.364,0,0,1-.293-.418.368.368,0,0,1,.355-.3,65.377,65.377,0,0,0,9.483.873,57.749,57.749,0,0,0,7.2-.278.318.318,0,0,1,.389.322.349.349,0,0,1-.322.389C476.179,133.518,474.12,133.619,472.066,133.619Z" transform="translate(-461.096 -132.011)"/>
        </g>
        <path id="Trazado_991577" data-name="Trazado 991577" d="M462.286,136.376a3.371,3.371,0,1,0,2.6-4.237A3.521,3.521,0,0,0,462.286,136.376Z" transform="translate(-378.978 -63.23)"/>
        <path id="Trazado_991578" data-name="Trazado 991578" d="M474.834,136.78a6.924,6.924,0,0,0,.9-3.954c-.13-1.67-9.535-2.491-12.045-2.505a18.709,18.709,0,0,0-6.925,1.171,6.193,6.193,0,0,0-2.457,1.392,5.6,5.6,0,0,0-1.468,2.783C453.153,135.931,467.473,135.8,474.834,136.78Z" transform="translate(-414.575 -69.921)"/>
        <path id="Trazado_991579" data-name="Trazado 991579" d="M461.411,138.38a6.925,6.925,0,0,1-1.757-3.657c-.245-1.656,8.748-4.54,11.191-5.111a18.716,18.716,0,0,1,7.011-.393,6.214,6.214,0,0,1,2.706.816,5.652,5.652,0,0,1,2.049,2.39C482.368,132.751,468.374,135.794,461.411,138.38Z" transform="translate(-388.708 -74.751)"/>
        <path id="Trazado_991580" data-name="Trazado 991580" d="M458.416,138.279a6.847,6.847,0,0,0,4.425,1.147,7,7,0,0,0,4.756-2.683Z" transform="translate(-393.396 -45.52)"/>
        <g id="Grupo_1154992" data-name="Grupo 1154992" transform="translate(72.753 94.697)">
          <path id="Trazado_991581" data-name="Trazado 991581" d="M462.977,143.917a16.914,16.914,0,0,1-2.644-.2.369.369,0,0,1-.3-.413.344.344,0,0,1,.413-.3,15.838,15.838,0,0,0,9.929-1.651,15.054,15.054,0,0,0,4.453-3.748.358.358,0,0,1,.5-.058.363.363,0,0,1,.058.5,15.682,15.682,0,0,1-4.669,3.925A15.905,15.905,0,0,1,462.977,143.917Z" transform="translate(-460.027 -137.467)"/>
        </g>
        <g id="Grupo_1154993" data-name="Grupo 1154993" transform="translate(81.501 98.893)">
          <path id="Trazado_991582" data-name="Trazado 991582" d="M462.208,142.563a.362.362,0,0,1-.158-.686c1.21-.6,2.433-1.2,3.686-1.8,1.209-.576,2.409-1.147,3.6-1.7a.361.361,0,0,1,.48.178.365.365,0,0,1-.178.48c-1.185.552-2.385,1.113-3.594,1.694q-1.864.9-3.676,1.8A.523.523,0,0,1,462.208,142.563Z" transform="translate(-461.85 -138.341)"/>
        </g>
        <path id="Trazado_991583" data-name="Trazado 991583" d="M444.867,191.527q13.648,58.378,27.3,116.709H596.007q7.638-54.851,15.323-109.741c-.566-.523-1.089-1.046-1.656-1.569q-28.6-26.835-57.332-53.632c-5.879,20.242-24.421,29.211-36.131,24.508-7.793-3.134-12.885-12.405-13.931-22.766A98.4,98.4,0,0,0,463.016,167.8a94.062,94.062,0,0,0-10.841,12.276A92.51,92.51,0,0,0,444.867,191.527Z" transform="translate(-444.867 -20.634)" fill="#fff"/>
        <path id="Trazado_991584" data-name="Trazado 991584" d="M516.665,234.315q20.99-22.538,41.98-45.071a95.417,95.417,0,0,0-91.38-45.575l42.211,55.657Q513.069,216.826,516.665,234.315Z" transform="translate(-359.776 -21.014)" fill="#fff"/>
        <path id="Trazado_991585" data-name="Trazado 991585" d="M477.984,201.6c1.046.729,2.092,1.464,3.139,2.193q21.969-17.211,43.948-34.422-4.556-9.581-9.1-19.171Q496.971,175.9,477.984,201.6Z" transform="translate(-319.06 5.594)" fill="#fff"/>
        <g id="Grupo_1154994" data-name="Grupo 1154994" transform="translate(163.363 161.187)">
          <path id="Trazado_991586" data-name="Trazado 991586" d="M479.259,190.259c-.374-.192-.408-.422-.288-.576L507.9,151.47a.346.346,0,0,1,.5-.072.36.36,0,0,1,.072.5l-28.932,38.213A.34.34,0,0,1,479.259,190.259Z" transform="translate(-478.909 -151.322)"/>
        </g>
        <g id="Grupo_1154995" data-name="Grupo 1154995" transform="translate(160.245 205.509)">
          <path id="Trazado_991587" data-name="Trazado 991587" d="M480.082,164.795a.36.36,0,0,1-.331-.221l-1.464-3.513a.362.362,0,0,1,.2-.475.366.366,0,0,1,.47.192l1.464,3.513a.362.362,0,0,1-.2.475A.378.378,0,0,1,480.082,164.795Z" transform="translate(-478.259 -160.558)"/>
        </g>
        <g id="Grupo_1154996" data-name="Grupo 1154996" transform="translate(159.886 176.278)">
          <path id="Trazado_991588" data-name="Trazado 991588" d="M478.542,178.192a.365.365,0,0,1-.355-.4l2.395-23.006a.368.368,0,0,1,.394-.317.353.353,0,0,1,.317.394L478.9,177.871A.359.359,0,0,1,478.542,178.192Z" transform="translate(-478.184 -154.467)"/>
        </g>
        <ellipse id="Elipse_11824" data-name="Elipse 11824" cx="18.869" cy="7.429" rx="18.869" ry="7.429" transform="translate(34.23 27.552)"/>
        <path id="Trazado_991589" data-name="Trazado 991589" d="M455.965,148.865c-5.25,13.288-4.329,15.155-3.835,15.755a7.221,7.221,0,0,0,.6.561c1.886,1.694,2.678,1.934,3.465,2.793,1.132,1.233.773,2.121,1.44,3.114,1.795,2.687,7.981,1.545,9.223,1.32,8.225-1.516,17.837-7.529,16.892-12.1-.6-2.875-4.746-3.623-4.434-5.149.384-1.872,6.728-1.214,14.138-2.395,13.235-2.107,16.311-7.923,21.566-5.869,7.558,2.956,6.9,17.247,8.427,17.1,2.582-.245,6.344-34.2-6.272-40.464-5.072-2.519-10.2.725-21.326-3.652-1.814-.715-6.579-2.726-7.011-1.977-.408.71,3.6,3.028,3.057,4.852-.427,1.435-3.081,2.222-5.212,2.155-2.985-.091-3.781-1.785-7.467-3.1-3.628-1.3-7.822-1.435-8.168-.489-.542,1.488,8.422,5.8,8.028,6.651-.456.979-12.146-4.357-14.022-1.948-.787,1.008,1.3,2.591.725,4.583-1.253,4.362-13.341,4.021-13.417,5.989-.043,1.118,3.863,1.133,5.274,3.834C458.685,142.425,457.658,144.575,455.965,148.865Z" transform="translate(-418.768 -117.734)"/>
        <g id="Grupo_1155001" data-name="Grupo 1155001" transform="translate(38.01 69.842)">
          <g id="Grupo_1154998" data-name="Grupo 1154998" transform="translate(33.497)">
            <g id="Grupo_1154997" data-name="Grupo 1154997" transform="translate(2.164 1.023)">
              <path id="Trazado_991590" data-name="Trazado 991590" d="M471.656,150.929c-5.562,0-10.409-3.086-11.292-7.5a7.555,7.555,0,0,1,1.358-5.951,12.552,12.552,0,0,1,8.537-4.832c6.392-.9,12.463,2.361,13.466,7.338a7.517,7.517,0,0,1-1.353,5.946,12.549,12.549,0,0,1-8.537,4.837A15.262,15.262,0,0,1,471.656,150.929ZM461.535,143.2c.883,4.357,6.306,7.232,12.127,6.383a11.334,11.334,0,0,0,7.726-4.333,6.414,6.414,0,0,0,1.161-5.024c-.883-4.357-6.3-7.217-12.122-6.383a11.342,11.342,0,0,0-7.726,4.329,6.437,6.437,0,0,0-1.166,5.029Z" transform="translate(-460.219 -132.501)"/>
            </g>
            <path id="Trazado_991591" data-name="Trazado 991591" d="M463.546,146.379q-1.3-1.728-2.606-3.45v-.921a1.375,1.375,0,0,0-.667-.883c-.2-.1-.312-.086-.4-.154-.23-.173-.149-.777,1.065-2.572a44.951,44.951,0,0,1,18.816-6c2.8-.206,7.237-.211,7.568.864.139.441-.518.71-1.358,2.035-1.248,1.977-1.123,3.508-1.689,3.532-.442.019-.513-.917-1.843-2.073a9.843,9.843,0,0,0-1.3-.921,11.494,11.494,0,0,0-2.347-1.142,14.448,14.448,0,0,0-8.83-.048c-1.137.355-5.111,1.6-6.718,5.168A7.715,7.715,0,0,0,463.546,146.379Z" transform="translate(-459.768 -132.288)"/>
            <path id="Trazado_991592" data-name="Trazado 991592" d="M464.44,133.3c.058.288.835.418,1.737.283s1.588-.47,1.526-.758-.835-.413-1.737-.283S464.382,133.01,464.44,133.3Z" transform="translate(-442.032 -131.525)" fill="#fff"/>
          </g>
          <g id="Grupo_1155000" data-name="Grupo 1155000" transform="translate(0 5.516)">
            <g id="Grupo_1154999" data-name="Grupo 1154999" transform="translate(4.586)">
              <path id="Trazado_991593" data-name="Trazado 991593" d="M465.173,151.874c-5.562,0-10.4-3.086-11.282-7.491a7.573,7.573,0,0,1,1.353-5.96,12.538,12.538,0,0,1,8.537-4.823c6.44-.95,12.472,2.351,13.466,7.333a7.573,7.573,0,0,1-1.353,5.96,12.528,12.528,0,0,1-8.537,4.823A14.722,14.722,0,0,1,465.173,151.874Zm.816-17.233a14.057,14.057,0,0,0-2.035.149,11.314,11.314,0,0,0-7.721,4.324,6.4,6.4,0,0,0-1.166,5.034c.878,4.362,6.258,7.251,12.122,6.378a11.326,11.326,0,0,0,7.721-4.324,6.4,6.4,0,0,0,1.166-5.034C475.3,137.319,470.984,134.641,465.989,134.641Z" transform="translate(-453.743 -133.437)"/>
            </g>
            <path id="Trazado_991594" data-name="Trazado 991594" d="M480.34,143.062q.554-1.994,1.108-3.993c-.12-.288-.24-.581-.36-.869a1.2,1.2,0,0,1,.288-1.022c.149-.149.264-.168.321-.259.149-.23-.163-.777-2.011-2.126-9.415-1.992-16.076-1.243-20.093-.365-2.726.6-6.906,1.838-6.8,2.947.043.456.768.523,2.078,1.536,1.948,1.512,2.428,2.994,2.971,2.86.422-.106.125-1.008.931-2.476a8.332,8.332,0,0,1,.864-1.233,9.917,9.917,0,0,1,1.766-1.737,13.861,13.861,0,0,1,8.312-2.529c1.214.014,5.447.077,8.355,2.985A7.946,7.946,0,0,1,480.34,143.062Z" transform="translate(-452.787 -133.081)"/>
            <path id="Trazado_991595" data-name="Trazado 991595" d="M456.455,134.455c.058.288-.629.629-1.531.758s-1.68,0-1.737-.283.624-.629,1.526-.758S456.4,134.167,456.455,134.455Z" transform="translate(-451.284 -130.847)" fill="#fff"/>
          </g>
          <path id="Trazado_991596" data-name="Trazado 991596" d="M458.819,137.11l8.652-1.253-.451-2.251-8.652,1.253Z" transform="translate(-431.588 -127.275)"/>
        </g>
        <g id="Grupo_1155002" data-name="Grupo 1155002" transform="translate(97.475 45.888)">
          <path id="Trazado_991597" data-name="Trazado 991597" d="M466.35,152.927l-1.171-.283,6.032-25.348,1.176.278Z" transform="translate(-465.179 -127.296)"/>
        </g>
        <g id="Grupo_1155003" data-name="Grupo 1155003" transform="translate(39.322 66.259)">
          <path id="Trazado_991598" data-name="Trazado 991598" d="M454.246,144.815l-1.185-.187,2.035-13.087,1.18.187Z" transform="translate(-453.061 -131.541)"/>
        </g>
      </g>
      <g id="Grupo_1155005" data-name="Grupo 1155005" transform="translate(213.199 156.1)">
        <rect id="Rectángulo_409685" data-name="Rectángulo 409685" width="64.502" height="4.799" transform="translate(0 46.977) rotate(-46.747)" fill="#3c98e7"/>
      </g>
      <path id="Trazado_991599" data-name="Trazado 991599" d="M490.944,198.9q-13.079-11.467-26.154-22.934Q485.248,165.6,505.7,155.242q5.874,3.232,11.743,6.469c5.116,17.453,13.351,26.471,19.963,31.485,19.243,14.589,41.145,7.669,59.4,25.674a52.094,52.094,0,0,1,10.841,15.779,20.4,20.4,0,0,1,.787,10.1c-2.361,12.683-16.839,17.588-17.593,17.833a84.515,84.515,0,0,1-23.879-7.985c-26.941-13.878-31.985-35.612-60.994-49.875A92.479,92.479,0,0,0,490.944,198.9Z" transform="translate(-270.234 24.755)" fill="#ff7866"/>
      <g id="Grupo_1155006" data-name="Grupo 1155006" transform="translate(270.95 220.381)">
        <path id="Trazado_991600" data-name="Trazado 991600" d="M524.661,184.013a166.59,166.59,0,0,0-26.015-13.566,161.224,161.224,0,0,0-17.674-6.08.362.362,0,0,1-.25-.446.369.369,0,0,1,.446-.25,159.65,159.65,0,0,1,43.684,19.671.368.368,0,0,1,.106.5A.336.336,0,0,1,524.661,184.013Z" transform="translate(-480.709 -163.657)"/>
      </g>
      <g id="Grupo_1155009" data-name="Grupo 1155009" transform="translate(36.683 162.4)">
        <path id="Trazado_991601" data-name="Trazado 991601" d="M461.791,276.778H639.6a4.7,4.7,0,0,0,4.6-5.619L620.931,155.342a4.692,4.692,0,0,0-4.6-3.767H438.516a4.7,4.7,0,0,0-4.6,5.619L457.189,273.01A4.7,4.7,0,0,0,461.791,276.778Z" transform="translate(-424.561 -151.575)"/>
        <g id="Grupo_1155007" data-name="Grupo 1155007" transform="translate(0 41.697)">
          <path id="Trazado_991602" data-name="Trazado 991602" d="M581.674,242.905l-1.142-.365,25.779-81.077H458.766L433.034,242.4l-1.142-.365,26-81.773H607.953Z" transform="translate(-431.892 -160.264)" fill="#fff"/>
        </g>
        <g id="Grupo_1155008" data-name="Grupo 1155008" transform="translate(24.561 36.486)">
          <path id="Trazado_991603" data-name="Trazado 991603" d="M596,165.589H437.01v-6.411H596v6.411Zm-157.791-1.2H594.8v-4.012H438.21Z" transform="translate(-437.01 -159.178)" fill="#fff"/>
        </g>
        <path id="Trazado_991604" data-name="Trazado 991604" d="M467.918,162.573a2.563,2.563,0,1,0,2.563-2.563A2.562,2.562,0,0,0,467.918,162.573Z" transform="translate(-295.034 -119.531)" fill="#fff"/>
        <path id="Trazado_991605" data-name="Trazado 991605" d="M437.135,162.508a2.563,2.563,0,1,0,2.563-2.563A2.562,2.562,0,0,0,437.135,162.508Z" transform="translate(-411.974 -119.778)" fill="#fff"/>
      </g>
      <g id="Grupo_1155010" data-name="Grupo 1155010" transform="translate(0 287.242)">
        <path id="Trazado_991606" data-name="Trazado 991606" d="M791.621,187.317H424.608a.363.363,0,0,1-.36-.36V177.95a.363.363,0,0,1,.36-.36H791.621a.363.363,0,0,1,.36.36v9.007A.363.363,0,0,1,791.621,187.317Zm-366.653-.72H791.256V178.31H424.968Z" transform="translate(-424.248 -177.59)"/>
      </g>
    </g>
    <path id="Trazado_991607" data-name="Trazado 991607" d="M568.928,143.914a41.51,41.51,0,1,1-83.02,0Z" transform="translate(244.11 100.31)"/>
    <g id="Grupo_1155012" data-name="Grupo 1155012" transform="translate(664.686 218.122)">
      <path id="Trazado_991608" data-name="Trazado 991608" d="M511.429,153.822a38.6,38.6,0,0,0-4.895-9.593c-1.334-1.886-3.162-4.617-5.84-4.161-2.716.461-4.453,3.877-5.5,6.09a41.1,41.1,0,0,0-3.311,10.351c-.225,1.272-1.5,6.037.888,6.042,2.135,0,3.23-3.566,3.345-5.188.23-3.244-1.305-6.646-2.894-9.4a27.249,27.249,0,0,0-2.6-3.714c-.7-.845-1.785-2.539-3-2.673-1.3-.144-2.251,1.555-2.918,2.409a38.086,38.086,0,0,0-3.134,4.664c-1.305,2.308-3.916,6.306-2.457,8.983a.726.726,0,0,0,1.133.144c2.6-2.783,2.687-8.029,1.588-11.479-1.267-3.964-4.818-6.171-8.432-7.76-.84-.37-1.574.869-.729,1.243,2.97,1.305,6.08,2.985,7.453,6.095,1.315,2.985,1.464,8.355-.9,10.884l1.133.144c-.806-1.483.662-3.969,1.276-5.26a36.849,36.849,0,0,1,1.828-3.374,35.261,35.261,0,0,1,2.86-4.021c.35-.427.72-1.214,1.392-1.046.3.077,1.089,1.123,1.291,1.349a24.9,24.9,0,0,1,4.645,7.6,12.369,12.369,0,0,1,1.037,4.852c-.01.249-.936,4.482-1.819,3.762a9.7,9.7,0,0,1,.139-2.044c.091-.84.225-1.68.389-2.51a41.632,41.632,0,0,1,1.224-4.631,27.811,27.811,0,0,1,3.753-8.024c1.185-1.608,2.85-2.855,4.688-1.3a17,17,0,0,1,2.975,3.786,37.615,37.615,0,0,1,4,8.153c.312.873,1.7.5,1.392-.379Z" transform="translate(-472.294 -138.475)"/>
    </g>
    <g id="Grupo_1155013" data-name="Grupo 1155013" transform="translate(517.186 199.034)">
      <path id="Trazado_991609" data-name="Trazado 991609" d="M498.2,154.238a20.174,20.174,0,0,0-8.748-8.729c-2.8-1.4-6.848-2.894-9.08.2-1.488,2.068-1.281,7.275,1.8,7.937a1.974,1.974,0,0,0,2.356-1.243c.432-1.315-.883-2.937-1.636-3.877-2.942-3.662-7.765-5.821-12-7.568-2.85-1.176-8.364-4.045-11.378-1.766-2.817,2.136-2.409,9.046-.864,11.8,1.238,2.212,4.108,2.534,5.351.12,1.891-3.686-3-7.841-5.5-9.713-4.727-3.542-10.466-5.24-16.057-6.872a.72.72,0,0,0-.384,1.387c6.229,1.819,12.8,3.734,17.6,8.336a12.155,12.155,0,0,1,2.812,3.484q1.72,3.2-1.195,2.15c-1.233.4-1.838.067-1.8-.989a8.816,8.816,0,0,1-.317-2.683c-.177-2.548-.182-5.437,2.827-6.344,1.229-.37,3.5.657,4.679,1.051a55.5,55.5,0,0,1,9.593,4.233,22.508,22.508,0,0,1,4.137,2.855,8.316,8.316,0,0,1,1.867,2.088c.149.24.3.485.451.725-.552-.23-1.1-.461-1.656-.686a2.954,2.954,0,0,1,.686-3.465,1.547,1.547,0,0,1,2.025-1.118,5.939,5.939,0,0,1,2.879.336,17.862,17.862,0,0,1,4.175,2.107,19.033,19.033,0,0,1,6.128,6.978c.432.811,1.675.086,1.243-.734Z" transform="translate(-441.558 -134.497)"/>
    </g>
    <g id="Grupo_1155014" data-name="Grupo 1155014" transform="translate(444.249 285.355)">
      <path id="Trazado_991610" data-name="Trazado 991610" d="M426.888,155.556c.24.283.475.571.7.869-.1-.12-.187-.245-.283-.365a24.3,24.3,0,0,1,2.265,3.551c.941-.729,1.886-1.454,2.827-2.179a16.436,16.436,0,0,1-1.272-1.44c.1.12.187.245.283.365a15.8,15.8,0,0,1-1.382-2.126,1.816,1.816,0,0,0-2.462-.648,1.838,1.838,0,0,0-.643,2.462,17.049,17.049,0,0,0,2.937,3.93,1.8,1.8,0,0,0,2.822-2.183,26.3,26.3,0,0,0-3.249-4.78,1.806,1.806,0,0,0-1.272-.528,1.827,1.827,0,0,0-1.272.528,1.806,1.806,0,0,0-.528,1.272,2.032,2.032,0,0,0,.528,1.272Z" transform="translate(-426.359 -152.485)"/>
    </g>
    <g id="Grupo_1155015" data-name="Grupo 1155015" transform="translate(441.696 296.172)">
      <path id="Trazado_991611" data-name="Trazado 991611" d="M426.365,158.328a8.91,8.91,0,0,1,1.368,1.421c-.1-.12-.187-.245-.283-.365a9.19,9.19,0,0,1,1.051,1.742l2.462-2.462c-.043-.024.077.067.2.163a3.192,3.192,0,0,1-.562-.576c.1.12.187.245.283.365-.7-.921-1-2.068-1.7-2.99a1.345,1.345,0,0,0-.465-.5,1.379,1.379,0,0,0-.614-.322,1.8,1.8,0,0,0-2.212,1.257,1.731,1.731,0,0,0,.182,1.387,12.714,12.714,0,0,1,1.113,2.02,6.8,6.8,0,0,0,.585.965,6.635,6.635,0,0,0,.6.725,5.722,5.722,0,0,0,.777.619c.144.062.288.12.432.182a1.346,1.346,0,0,0,.715.034,1.715,1.715,0,0,0,1.032-.494,2.164,2.164,0,0,0,.461-.792,1.891,1.891,0,0,0-.182-1.387,9.453,9.453,0,0,0-1.051-1.742,11,11,0,0,0-1.651-1.785,1.934,1.934,0,0,0-1.272-.528,1.827,1.827,0,0,0-1.272.528,1.778,1.778,0,0,0,.01,2.538Z" transform="translate(-425.827 -154.739)"/>
    </g>
    <g id="Grupo_1155016" data-name="Grupo 1155016" transform="translate(452.128 300.429)">
      <path id="Trazado_991612" data-name="Trazado 991612" d="M428.478,158.322a19.213,19.213,0,0,1,1.43,2.755c-.062-.144-.12-.288-.182-.432.168.4.322.806.465,1.214.739-.739,1.478-1.473,2.212-2.212.086.038.23.1.374.158a2.733,2.733,0,0,1-.561-.326c.12.1.245.187.365.283a4.253,4.253,0,0,1-.754-.773c.1.12.187.245.283.365a5.453,5.453,0,0,1-.681-1.037c.062.144.12.288.182.432a1.145,1.145,0,0,1-.072-.249c.019.158.043.317.062.48a1.076,1.076,0,0,0-.067.336,2.4,2.4,0,0,0-.163.346,2.327,2.327,0,0,0-.24.288,3.071,3.071,0,0,0-.3.216,1.958,1.958,0,0,0,.869-1.1,1.8,1.8,0,0,0-1.257-2.212,1.8,1.8,0,0,0-1.387.182,2.174,2.174,0,0,0-.984,1.305,2.4,2.4,0,0,0,.043,1.3,5.044,5.044,0,0,0,.725,1.32,7.3,7.3,0,0,0,.974,1.166,4.992,4.992,0,0,0,1.641,1,1.8,1.8,0,0,0,2.212-2.212,21.564,21.564,0,0,0-2.078-4.4,1.89,1.89,0,0,0-1.075-.825,1.8,1.8,0,0,0-2.212,1.257,1.843,1.843,0,0,0,.178,1.377Z" transform="translate(-428.001 -155.626)"/>
    </g>
    <g id="Grupo_1155017" data-name="Grupo 1155017" transform="translate(446.563 312.907)">
      <path id="Trazado_991613" data-name="Trazado 991613" d="M427.349,162c.293.322.571.648.835.993-.1-.12-.187-.245-.283-.365a16.08,16.08,0,0,1,1.934,3.258l2.462-2.462c.058.043.182.139.3.235a2.667,2.667,0,0,1-.384-.389c.1.12.187.245.283.365a6.631,6.631,0,0,1-.749-1.4c-.25-.566-.5-1.137-.739-1.708.062.144.12.288.182.432-.2-.47-.393-.941-.581-1.411a1.964,1.964,0,0,0-.825-1.075,1.842,1.842,0,0,0-1.387-.182,1.822,1.822,0,0,0-1.075.825,1.743,1.743,0,0,0-.182,1.387q.655,1.634,1.368,3.244c.182.417.36.845.581,1.238a6.317,6.317,0,0,0,.61.859,4.514,4.514,0,0,0,.787.691c.144.062.288.12.432.182a1.36,1.36,0,0,0,.72.034,1.714,1.714,0,0,0,1.032-.494,2.163,2.163,0,0,0,.461-.792,1.892,1.892,0,0,0-.182-1.387,17.238,17.238,0,0,0-3.052-4.617A1.8,1.8,0,0,0,427.349,162Z" transform="translate(-426.841 -158.226)"/>
    </g>
    <g id="Grupo_1155018" data-name="Grupo 1155018" transform="translate(794.759 310.121)">
      <path id="Trazado_991614" data-name="Trazado 991614" d="M500.071,161a5.4,5.4,0,0,1,.494.552c-.1-.12-.187-.245-.283-.365a5.555,5.555,0,0,1,.691,1.19c-.062-.144-.12-.288-.182-.432a5.146,5.146,0,0,1,.341,1.224c.883-.677,1.761-1.353,2.644-2.03a2.442,2.442,0,0,0,.2.163,4.019,4.019,0,0,1-.667-.672c.1.12.187.245.283.365a4.366,4.366,0,0,1-.528-.9c.062.144.12.288.182.432a4.028,4.028,0,0,1-.278-1.008c.019.158.043.317.062.48a4.2,4.2,0,0,1-.034-.547,1.8,1.8,0,0,0-1.8-1.8,1.8,1.8,0,0,0-1.272.528,1.878,1.878,0,0,0-.528,1.272,5.876,5.876,0,0,0,.686,2.731,5.814,5.814,0,0,0,1.871,2.064c.144.062.288.12.432.182.158.019.317.043.48.062a1.766,1.766,0,0,0,1.089-.389,1.712,1.712,0,0,0,.557-.72.939.939,0,0,0,.125-.456,1.344,1.344,0,0,0-.033-.715,6.821,6.821,0,0,0-.7-2.035,5.62,5.62,0,0,0-.446-.72,8.361,8.361,0,0,0-.84-1,1.857,1.857,0,0,0-1.272-.528,1.827,1.827,0,0,0-1.272.528,1.805,1.805,0,0,0-.528,1.272,1.852,1.852,0,0,0,.523,1.276Z" transform="translate(-499.399 -157.646)"/>
    </g>
    <g id="Grupo_1155019" data-name="Grupo 1155019" transform="translate(793.776 321.789)">
      <path id="Trazado_991615" data-name="Trazado 991615" d="M500.782,163.959c.149.1.3.2.442.312-.12-.1-.245-.187-.365-.283a7.148,7.148,0,0,1,1.267,1.257c-.1-.12-.187-.245-.283-.365a7.063,7.063,0,0,1,.931,1.593c-.062-.144-.12-.288-.182-.432.763-.681,1.5-1.42,2.236-2.159a3.045,3.045,0,0,1-.538-.168c.144.062.288.12.432.182a3.285,3.285,0,0,1-.729-.432c.12.1.245.187.365.283a4.843,4.843,0,0,1-.792-.806c.1.12.187.245.283.365a11.175,11.175,0,0,1-1.305-2.342,1.8,1.8,0,0,0-3.287.432c-.019.158-.043.317-.062.48a1.764,1.764,0,0,0,.245.907c.869,1.963,2.179,4.089,4.439,4.573a1.854,1.854,0,0,0,1.752-.465,1.747,1.747,0,0,0,.461-.792,1.792,1.792,0,0,0,0-.955,9.847,9.847,0,0,0-.648-1.363,9.979,9.979,0,0,0-.883-1.219,8.532,8.532,0,0,0-1.958-1.708,1.8,1.8,0,0,0-2.462.643,1.819,1.819,0,0,0-.182,1.387,1.942,1.942,0,0,0,.825,1.075Z" transform="translate(-499.194 -160.077)"/>
    </g>
    <g id="Grupo_1155020" data-name="Grupo 1155020" transform="translate(781.791 318.774)">
      <path id="Trazado_991616" data-name="Trazado 991616" d="M500.446,163.379c.082.178.158.355.235.533-.062-.144-.12-.288-.182-.432a11.67,11.67,0,0,1,.782,2.318c-.019-.158-.043-.317-.062-.48.024.024.043-.139.067-.3.043-.086.106-.23.163-.374a3.81,3.81,0,0,0,.254-.317c.081-.053.2-.144.326-.24.091-.029.235-.091.379-.149.106,0,.264-.024.422-.048a1.975,1.975,0,0,0,.355.062,1.779,1.779,0,0,1-.307-.106c.144.062.288.12.432.182a6.966,6.966,0,0,1-1.492-.878c.12.1.245.187.365.283a7.122,7.122,0,0,1-1.272-1.277c.1.12.187.245.283.365a7.2,7.2,0,0,1-.907-1.555c.062.144.12.288.182.432-.086-.206-.158-.418-.226-.629-.581.758-1.157,1.516-1.737,2.279a4.35,4.35,0,0,1,.749.034c-.158-.024-.317-.043-.48-.062a4.178,4.178,0,0,1,1.051.3c-.144-.062-.288-.12-.432-.182a4.539,4.539,0,0,1,.941.557c-.12-.1-.245-.187-.365-.283a4.3,4.3,0,0,1,.677.677c-.1-.12-.187-.245-.283-.365a2.194,2.194,0,0,0,1.2.993,1.8,1.8,0,0,0,2.212-1.257,1.773,1.773,0,0,0-.182-1.387,5.95,5.95,0,0,0-2.2-1.958,6.022,6.022,0,0,0-2.9-.662,1.778,1.778,0,0,0-1.411.71,1.743,1.743,0,0,0-.321,1.569,8.726,8.726,0,0,0,2.582,4.021,8.375,8.375,0,0,0,1.992,1.325,5.863,5.863,0,0,0,.825.341,2.236,2.236,0,0,0,1.656-.2,2.062,2.062,0,0,0,1-1.713,2.732,2.732,0,0,0-.139-.941,20.281,20.281,0,0,0-1.128-2.994,1.786,1.786,0,0,0-1.075-.825,1.8,1.8,0,0,0-2.212,1.257c-.019.158-.043.317-.062.48a1.746,1.746,0,0,0,.244.893Z" transform="translate(-496.697 -159.449)"/>
    </g>
  </g>
</svg>
