<svg xmlns="http://www.w3.org/2000/svg" xmlns:xlink="http://www.w3.org/1999/xlink" width="98" height="98" viewBox="0 0 98 98">
  <defs>
    <filter id="Trazado_982548" x="0" y="0" width="98" height="98" filterUnits="userSpaceOnUse">
      <feOffset dy="3" input="SourceAlpha"/>
      <feGaussianBlur stdDeviation="3" result="blur"/>
      <feFlood flood-opacity="0.161"/>
      <feComposite operator="in" in2="blur"/>
      <feComposite in="SourceGraphic"/>
    </filter>
  </defs>
  <g id="_60" data-name="60" transform="translate(-183 -7353)">
    <g id="Grupo_1154852" data-name="Grupo 1154852" transform="translate(-9 5257)">
      <g id="Grupo_1149886" data-name="Grupo 1149886" transform="translate(0 -2463)">
        <g id="Grupo_1149694" data-name="Grupo 1149694" transform="translate(-9 4104)">
          <g id="Grupo_1149263" data-name="Grupo 1149263" transform="translate(210 461)">
            <g transform="matrix(1, 0, 0, 1, -9, -6)" filter="url(#Trazado_982548)">
              <g id="Trazado_982548-2" data-name="Trazado 982548" transform="translate(9 6)" fill="#f6edfd">
                <path d="M 40 78.5 C 34.80187606811523 78.5 29.76003265380859 77.48227691650391 25.01452255249023 75.47509765625 C 20.43014526367188 73.53606414794922 16.31264495849609 70.75986480712891 12.77638912200928 67.22360992431641 C 9.240133285522461 63.68735504150391 6.46393346786499 59.56985473632812 4.524899959564209 54.98547744750977 C 2.517722129821777 50.23996734619141 1.5 45.19812393188477 1.5 40 C 1.5 34.80187606811523 2.517722129821777 29.76003265380859 4.524899959564209 25.01452255249023 C 6.46393346786499 20.43014526367188 9.240133285522461 16.31264495849609 12.77638912200928 12.77638912200928 C 16.31264495849609 9.240133285522461 20.43014526367188 6.46393346786499 25.01452255249023 4.524899959564209 C 29.76003265380859 2.517722129821777 34.80187606811523 1.5 40 1.5 C 45.19812393188477 1.5 50.23996734619141 2.517722129821777 54.98547744750977 4.524899959564209 C 59.56985473632812 6.46393346786499 63.68735504150391 9.240133285522461 67.22360992431641 12.77638912200928 C 70.75986480712891 16.31264495849609 73.53606414794922 20.43014526367188 75.47509765625 25.01452255249023 C 77.48227691650391 29.76003265380859 78.5 34.80187606811523 78.5 40 C 78.5 45.19812393188477 77.48227691650391 50.23996734619141 75.47509765625 54.98547744750977 C 73.53606414794922 59.56985473632812 70.75986480712891 63.68735504150391 67.22360992431641 67.22360992431641 C 63.68735504150391 70.75986480712891 59.56985473632812 73.53606414794922 54.98547744750977 75.47509765625 C 50.23996734619141 77.48227691650391 45.19812393188477 78.5 40 78.5 Z" stroke="none"/>
                <path d="M 40 3 C 35.00370788574219 3 30.15846633911133 3.977851867675781 25.59885406494141 5.906410217285156 C 21.19326782226562 7.769813537597656 17.23602676391602 10.43806457519531 13.83704376220703 13.83705139160156 C 10.43806457519531 17.23603820800781 7.769813537597656 21.19327926635742 5.906410217285156 25.59885406494141 C 3.977851867675781 30.15846633911133 3 35.00370788574219 3 40 C 3 44.99629211425781 3.977851867675781 49.84153366088867 5.906410217285156 54.40114593505859 C 7.769813537597656 58.80672073364258 10.43806457519531 62.76396179199219 13.83704376220703 66.16294860839844 C 17.23602676391602 69.56193542480469 21.19326782226562 72.23018646240234 25.59885406494141 74.09358978271484 C 30.15846633911133 76.02214813232422 35.00370788574219 77 40 77 C 44.99629211425781 77 49.84153366088867 76.02214813232422 54.40114593505859 74.09358978271484 C 58.80672073364258 72.23018646240234 62.76396179199219 69.56193542480469 66.16294860839844 66.16294860839844 C 69.56193542480469 62.76396179199219 72.23018646240234 58.80672073364258 74.09358978271484 54.40114593505859 C 76.02214813232422 49.84153366088867 77 44.99629211425781 77 40 C 77 35.00370788574219 76.02214813232422 30.15846633911133 74.09358978271484 25.59885406494141 C 72.23018646240234 21.19327926635742 69.56193542480469 17.23603820800781 66.16294860839844 13.83705139160156 C 62.76396179199219 10.43806457519531 58.80672073364258 7.769813537597656 54.40114593505859 5.906410217285156 C 49.84153366088867 3.977851867675781 44.99629211425781 3 40 3 M 40 0 C 62.09138488769531 0 80 17.90861511230469 80 40 C 80 62.09138488769531 62.09138488769531 80 40 80 C 17.90859985351562 80 0 62.09138488769531 0 40 C 0 17.90861511230469 17.90859985351562 0 40 0 Z" stroke="none" fill="#ac59f1"/>
              </g>
            </g>
          </g>
        </g>
      </g>
    </g>
    <g id="idea_4_" data-name="idea (4)" transform="translate(146.989 7369)">
      <g id="Grupo_1155751" data-name="Grupo 1155751" transform="translate(63.863 4.255)">
        <path id="Trazado_992915" data-name="Trazado 992915" d="M113.184,82.4l-5.345-13.831a2.043,2.043,0,0,1,.291-1.993A18.412,18.412,0,1,0,75.193,55.262a18.516,18.516,0,0,0,.263,3.112,1.2,1.2,0,0,1-.276.988l-4.5,5.17a1.151,1.151,0,0,0,.414,1.813l3.714,1.592a.46.46,0,0,1,.265.535l-.424,1.7A1.155,1.155,0,0,0,75.1,71.39l.741.525a.344.344,0,0,1,.1.45,1.885,1.885,0,0,0,1.667,2.8.312.312,0,0,1,.309.268l.13.918a4.254,4.254,0,0,1-.055,1.5l-.409,1.88a2.688,2.688,0,0,0,3.205,3.2L89.078,81.1a.575.575,0,0,1,.66.354L93.1,90.163a1.1,1.1,0,0,0,1.417.627l18.036-6.971a1.1,1.1,0,0,0,.627-1.417Z" transform="translate(-70.394 -36.85)" fill="#ffcbbe"/>
      </g>
      <g id="Grupo_1155753" data-name="Grupo 1155753" transform="translate(85.53 4.883)">
        <g id="Grupo_1155752" data-name="Grupo 1155752" transform="translate(0)">
          <path id="Trazado_992916" data-name="Trazado 992916" d="M279.16,87.216l-5.345-13.831a2.04,2.04,0,0,1,.289-1.99,18.41,18.41,0,0,0-9.759-29.1,18.39,18.39,0,0,1,5.507,25.564,5.455,5.455,0,0,0-.523,4.953l4.684,12.12a1.1,1.1,0,0,1-.627,1.417l-15.348,5.932,1.043,2.7a1.1,1.1,0,0,0,1.417.627l18.036-6.971A1.1,1.1,0,0,0,279.16,87.216Z" transform="translate(-258.037 -42.292)" fill="#eaac9d"/>
        </g>
      </g>
      <g id="Grupo_1155754" data-name="Grupo 1155754" transform="translate(81.599 26.733)">
        <path id="Trazado_992917" data-name="Trazado 992917" d="M229,231.514a4.938,4.938,0,0,0-2.908,8.976c.4.267.946.644.946.644a4.679,4.679,0,0,1,1.921,3.839,4.914,4.914,0,0,1-.678,2.5.119.119,0,0,0,.166.163l.324-.207a5.344,5.344,0,0,0,2.44-4.017l.131-2.336a.221.221,0,0,1,.44-.017l.237,1.779a.35.35,0,0,0,.673.08,17.876,17.876,0,0,0,1.18-6.329v-.136A4.938,4.938,0,0,0,229,231.514Z" transform="translate(-223.991 -231.513)" fill="#ffe07d"/>
      </g>
      <g id="Grupo_1155755" data-name="Grupo 1155755" transform="translate(85.867 26.733)">
        <path id="Trazado_992918" data-name="Trazado 992918" d="M261.687,231.516c-.044,0-.087,0-.13,0a5.808,5.808,0,0,1,2.626,6.83l-.05.152a21.013,21.013,0,0,1-2.624,5.3,4.984,4.984,0,0,1,.136,1.171,4.914,4.914,0,0,1-.678,2.5.119.119,0,0,0,.166.163l.324-.207a5.344,5.344,0,0,0,2.44-4.017l.131-2.336a.221.221,0,0,1,.44-.017l.237,1.779a.35.35,0,0,0,.673.08,17.877,17.877,0,0,0,1.18-6.329v-.136A4.938,4.938,0,0,0,261.687,231.516Z" transform="translate(-260.95 -231.516)" fill="#ffd064"/>
      </g>
      <g id="Grupo_1155756" data-name="Grupo 1155756" transform="translate(84.397 28.19)">
        <path id="Trazado_992919" data-name="Trazado 992919" d="M252.553,246.3a2.166,2.166,0,1,0-3.413,1.771c.177.117.415.283.415.283a2.052,2.052,0,0,1,.843,1.684,2.852,2.852,0,0,1-.19.817.118.118,0,0,0,.171.142c.662-.377,2.269-1.607,2.174-4.636Z" transform="translate(-248.221 -244.132)" fill="#ffd064"/>
      </g>
      <g id="Grupo_1155757" data-name="Grupo 1155757" transform="translate(86.136 28.191)">
        <path id="Trazado_992920" data-name="Trazado 992920" d="M265.875,246.364v-.06a2.166,2.166,0,0,0-2.137-2.165,2.156,2.156,0,0,1,.368,1.208v.06a5.616,5.616,0,0,1-.825,3.345,2.043,2.043,0,0,1,.438,1.29,2.851,2.851,0,0,1-.19.817.118.118,0,0,0,.171.142C264.363,250.623,265.97,249.393,265.875,246.364Z" transform="translate(-263.282 -244.139)" fill="#ffc250"/>
      </g>
      <g id="Grupo_1155758" data-name="Grupo 1155758" transform="translate(77.397 21.381)">
        <path id="Trazado_992921" data-name="Trazado 992921" d="M193.086,185.163H188.73A1.135,1.135,0,0,0,187.6,186.3v6.771a.454.454,0,0,0,.775.321l5.353-5.353Z" transform="translate(-187.595 -185.163)" fill="#5e54ac"/>
      </g>
      <g id="Grupo_1155759" data-name="Grupo 1155759" transform="translate(77.397 21.381)">
        <path id="Trazado_992922" data-name="Trazado 992922" d="M193.086,185.163H188.73l-.025.04,1.081,2.3a1.112,1.112,0,0,1-.22,1.26L187.6,190.73v2.339a.454.454,0,0,0,.775.321l5.353-5.353Z" transform="translate(-187.595 -185.163)" fill="#524798"/>
      </g>
      <g id="Grupo_1155760" data-name="Grupo 1155760" transform="translate(89.459 21.381)">
        <path id="Trazado_992923" data-name="Trazado 992923" d="M292.7,185.163h4.356a1.135,1.135,0,0,1,1.135,1.135v6.771a.454.454,0,0,1-.775.321l-5.353-5.353Z" transform="translate(-292.06 -185.163)" fill="#5e54ac"/>
      </g>
      <g id="Grupo_1155761" data-name="Grupo 1155761" transform="translate(92.025 21.381)">
        <path id="Trazado_992924" data-name="Trazado 992924" d="M316.71,185.163h-2.426a1.135,1.135,0,0,1,1.135,1.135v5.441l1.651,1.651a.454.454,0,0,0,.775-.321V186.3A1.135,1.135,0,0,0,316.71,185.163Z" transform="translate(-314.284 -185.163)" fill="#524798"/>
      </g>
      <g id="Grupo_1155762" data-name="Grupo 1155762" transform="translate(81.302 0.852)">
        <path id="Trazado_992925" data-name="Trazado 992925" d="M229.734,32.945l1.463-3.16a7.472,7.472,0,0,0,.691-3.138v-6.6a15.107,15.107,0,0,0-1.792-7.137l-2.744-5.119a.8.8,0,0,0-1.4,0l-2.744,5.119a15.107,15.107,0,0,0-1.792,7.137v6.6a7.472,7.472,0,0,0,.691,3.138l1.463,3.16a1.135,1.135,0,0,0,1.03.658h4.1a1.135,1.135,0,0,0,1.03-.658Z" transform="translate(-221.416 -7.374)" fill="#f9f6f9"/>
      </g>
      <g id="Grupo_1155763" data-name="Grupo 1155763" transform="translate(85.197 0.851)">
        <path id="Trazado_992926" data-name="Trazado 992926" d="M259.933,12.911l-2.744-5.119a.8.8,0,0,0-1.4,0l-.641,1.2,2.1,3.924a15.108,15.108,0,0,1,1.792,7.137v6.6a7.471,7.471,0,0,1-.691,3.138l-1.463,3.16a1.135,1.135,0,0,1-1.03.658h2.682a1.135,1.135,0,0,0,1.03-.658l1.463-3.16a7.47,7.47,0,0,0,.691-3.138v-6.6A15.108,15.108,0,0,0,259.933,12.911Z" transform="translate(-255.148 -7.373)" fill="#dddaec"/>
      </g>
      <g id="Grupo_1155764" data-name="Grupo 1155764" transform="translate(84.723 21.404)">
        <path id="Trazado_992927" data-name="Trazado 992927" d="M254.232,189.857l-.868,3.542a.517.517,0,0,1-1,0l-.868-3.542a7.6,7.6,0,0,1-.445-2.562V186.5a1.135,1.135,0,0,1,1.135-1.135h1.358a1.135,1.135,0,0,1,1.135,1.135v.793A7.6,7.6,0,0,1,254.232,189.857Z" transform="translate(-251.048 -185.367)" fill="#5e54ac"/>
      </g>
      <g id="Grupo_1155765" data-name="Grupo 1155765" transform="translate(85.434 21.404)">
        <path id="Trazado_992928" data-name="Trazado 992928" d="M258.987,185.367h-1.358a1.13,1.13,0,0,0-.424.083,1.135,1.135,0,0,1,.711,1.052v.793a7.6,7.6,0,0,1-.445,2.562l-.266,1.086.6,2.456a.517.517,0,0,0,1,0l.868-3.542a7.6,7.6,0,0,0,.445-2.562V186.5A1.135,1.135,0,0,0,258.987,185.367Z" transform="translate(-257.204 -185.367)" fill="#524798"/>
      </g>
      <g id="Grupo_1155766" data-name="Grupo 1155766" transform="translate(82.282 0.851)">
        <path id="Trazado_992929" data-name="Trazado 992929" d="M233.456,7.792l-2.744,5.119A15.1,15.1,0,0,0,229.9,14.7h8.512a15.1,15.1,0,0,0-.812-1.788l-2.744-5.119A.8.8,0,0,0,233.456,7.792Z" transform="translate(-229.9 -7.373)" fill="#6b61b1"/>
      </g>
      <g id="Grupo_1155767" data-name="Grupo 1155767" transform="translate(85.197 0.851)">
        <path id="Trazado_992930" data-name="Trazado 992930" d="M259.933,12.911l-2.744-5.119a.8.8,0,0,0-1.4,0l-.641,1.2,2.1,3.924a15.117,15.117,0,0,1,.812,1.788h2.682A15.114,15.114,0,0,0,259.933,12.911Z" transform="translate(-255.148 -7.373)" fill="#5e54ac"/>
      </g>
      <g id="Grupo_1155768" data-name="Grupo 1155768" transform="translate(83.989 13.559)">
        <circle id="Elipse_11852" data-name="Elipse 11852" cx="2.548" cy="2.548" r="2.548" transform="translate(0)" fill="#b1e4f9"/>
      </g>
      <g id="Grupo_1155769" data-name="Grupo 1155769" transform="translate(84.099 13.668)">
        <path id="Trazado_992931" data-name="Trazado 992931" d="M248.815,118.368a2.548,2.548,0,0,1-3.177,3.177,2.548,2.548,0,1,0,3.177-3.177Z" transform="translate(-245.638 -118.368)" fill="#90d8f9"/>
      </g>
      <g id="Grupo_1155770" data-name="Grupo 1155770" transform="translate(81.49 7.641)">
        <path id="Trazado_992932" data-name="Trazado 992932" d="M223.047,69.683h10.1a15.106,15.106,0,0,0-1.005-3.512h-8.084A15.1,15.1,0,0,0,223.047,69.683Z" transform="translate(-223.047 -66.171)" fill="#e28086"/>
      </g>
      <g id="Grupo_1155771" data-name="Grupo 1155771" transform="translate(87.898 7.641)">
        <path id="Trazado_992933" data-name="Trazado 992933" d="M281.223,66.17h-2.682a15.11,15.11,0,0,1,1.005,3.512h2.682A15.111,15.111,0,0,0,281.223,66.17Z" transform="translate(-278.541 -66.17)" fill="#dd636e"/>
      </g>
      <g id="Grupo_1155772" data-name="Grupo 1155772" transform="translate(63.011 0)">
        <path id="Trazado_992934" data-name="Trazado 992934" d="M269.223,85.38,263.878,71.55a1.2,1.2,0,0,1,.168-1.163,19.212,19.212,0,0,0,.684-22.711,19.332,19.332,0,0,0-8.835-7.052.851.851,0,0,0-.627,1.583,17.7,17.7,0,0,1,11.142,16.5A17.393,17.393,0,0,1,262.7,69.34a2.908,2.908,0,0,0-.414,2.824l5.345,13.831a.244.244,0,0,1-.14.316l-18.036,6.971a.245.245,0,0,1-.316-.14l-1.593-4.121a.851.851,0,1,0-1.588.614l1.593,4.121a1.943,1.943,0,0,0,2.518,1.114L268.109,87.9a1.947,1.947,0,0,0,1.114-2.518Z" transform="translate(-224.786 -35.88)"/>
        <path id="Trazado_992935" data-name="Trazado 992935" d="M84.382,49.534,84,48.552a1.419,1.419,0,0,0-1.638-.879L74.071,49.5a1.837,1.837,0,0,1-2.19-2.184l.409-1.88a5.088,5.088,0,0,0,.066-1.8l-.13-.918a1.169,1.169,0,0,0-1.152-1h0a1.033,1.033,0,0,1-.92-1.535,1.2,1.2,0,0,0-.349-1.557l-.741-.525a.3.3,0,0,1-.119-.321l.424-1.7a1.306,1.306,0,0,0-.756-1.524L64.9,32.968a.289.289,0,0,1-.108-.471l4.5-5.17a2.042,2.042,0,0,0,.474-1.69,17.718,17.718,0,0,1-.251-2.969A17.536,17.536,0,0,1,82.492,5.71l-.149.277Q82,6.63,81.716,7.3l0,.008a16.032,16.032,0,0,0-1.261,6.217v6.6c0,.135,0,.27.011.4h-1.93a1.989,1.989,0,0,0-1.987,1.987v6.771a1.305,1.305,0,0,0,2.229.923l3.758-3.758.152.328a1.966,1.966,0,0,0,.234.382,5.78,5.78,0,0,0,.289,9.243c.349.232.852.579.937.638a3.823,3.823,0,0,1,1.569,3.149,4.081,4.081,0,0,1-.561,2.067.969.969,0,0,0,.163,1.194,1.109,1.109,0,0,0,1.52-.09,6.149,6.149,0,0,0,2.772-4.209,1.2,1.2,0,0,0,1.485-.714,18.661,18.661,0,0,0,1.236-6.631v-.139a5.756,5.756,0,0,0-2.161-4.518,1.974,1.974,0,0,0,.226-.373l.123-.265L94.21,30.21a1.305,1.305,0,0,0,2.229-.923V22.516a1.989,1.989,0,0,0-1.987-1.987H92.614c.007-.135.011-.27.011-.4v-6.6a16.031,16.031,0,0,0-1.261-6.217l0-.008q-.283-.67-.628-1.313L87.989.868a1.646,1.646,0,0,0-2.9,0L83.556,3.726a19.281,19.281,0,0,0-15.469,22.2.345.345,0,0,1-.079.286l-4.5,5.17a2,2,0,0,0,.721,3.155l3.408,1.46-.343,1.373a1.993,1.993,0,0,0,.787,2.124l.4.283a2.779,2.779,0,0,0-.067,1.608,2.716,2.716,0,0,0,2.191,2l.07.494a3.39,3.39,0,0,1-.044,1.2l-.409,1.88a3.54,3.54,0,0,0,4.22,4.208L82.5,49.387l.294.761a.851.851,0,0,0,1.588-.614Zm6.541-36.007v6.6a6.664,6.664,0,0,1-.612,2.781l-1.463,3.159c-.029.062-.124.074-.124.074a8.426,8.426,0,0,0,.48-2.806v-.793a1.989,1.989,0,0,0-1.987-1.987H85.859a1.989,1.989,0,0,0-1.987,1.987v.793a8.427,8.427,0,0,0,.48,2.806s-.1-.012-.124-.074l-1.463-3.16a6.664,6.664,0,0,1-.612-2.781v-6.6A14.164,14.164,0,0,1,82.237,12h8.6a14.17,14.17,0,0,1,.084,1.522ZM86,25.692a6.966,6.966,0,0,1-.42-2.359V22.54a.284.284,0,0,1,.284-.284h1.358a.284.284,0,0,1,.284.284v.793a6.966,6.966,0,0,1-.42,2.359l-.542,2.214ZM90,8.492A14.006,14.006,0,0,1,90.55,10.3H82.526a14.007,14.007,0,0,1,.548-1.809ZM78.248,28.328V22.516a.284.284,0,0,1,.284-.284h2.194a8.294,8.294,0,0,0,.495,1.388l.549,1.186ZM90.624,31.8a16.973,16.973,0,0,1-.5,4.027,1.073,1.073,0,0,0-2.033.415l-.13,2.321a4.491,4.491,0,0,1-.553,1.781c0-.052,0-.1,0-.156a5.54,5.54,0,0,0-2.26-4.519c-.05-.037-.546-.38-.977-.667a4.089,4.089,0,0,1-1.726-3.4,4.142,4.142,0,0,1,2.1-3.493,3.014,3.014,0,0,0-.989,1.965A3.161,3.161,0,0,0,85.231,33.1a1.2,1.2,0,0,1,.492.994,2.022,2.022,0,0,1-.14.531.97.97,0,0,0,1.393,1.168,5.206,5.206,0,0,0,2.409-3.362.851.851,0,0,0-1.655-.4,4.061,4.061,0,0,1-.452,1.126,2.914,2.914,0,0,0-1.035-1.425c-.033-.024-.234-.164-.445-.3a1.308,1.308,0,0,1-.544-1.193,1.278,1.278,0,0,1,.065-.3,1.369,1.369,0,0,0,2.548-.3l.408-1.667a4.061,4.061,0,0,1,2.35,3.7Zm3.827-9.573a.284.284,0,0,1,.284.284v5.812l-3.458-3.458.578-1.249a8.306,8.306,0,0,0,.495-1.389ZM86.538,1.766,89.23,6.789H83.845Z" transform="translate(-63.011 0)"/>
        <path id="Trazado_992936" data-name="Trazado 992936" d="M240.717,116.847a3.4,3.4,0,1,0-3.4-3.4,3.4,3.4,0,0,0,3.4,3.4Zm0-5.1a1.7,1.7,0,1,1-1.7,1.7A1.7,1.7,0,0,1,240.717,111.75Z" transform="translate(-217.19 -97.34)"/>
        <circle id="Elipse_11853" data-name="Elipse 11853" cx="1.039" cy="1.039" r="1.039" transform="translate(19.271 38.257)"/>
        <circle id="Elipse_11854" data-name="Elipse 11854" cx="1.039" cy="1.039" r="1.039" transform="translate(29.774 42.505) rotate(-10.894)"/>
        <circle id="Elipse_11855" data-name="Elipse 11855" cx="1.039" cy="1.039" r="1.039" transform="translate(27.125 40.79) rotate(-22.514)"/>
      </g>
    </g>
  </g>
</svg>
