<svg xmlns="http://www.w3.org/2000/svg" xmlns:xlink="http://www.w3.org/1999/xlink" width="108" height="108" viewBox="0 0 108 108">
  <defs>
    <filter id="Trazado_982547" x="0" y="0" width="108" height="108" filterUnits="userSpaceOnUse">
      <feOffset dy="3" input="SourceAlpha"/>
      <feGaussianBlur stdDeviation="3" result="blur"/>
      <feFlood flood-opacity="0.161"/>
      <feComposite operator="in" in2="blur"/>
      <feComposite in="SourceGraphic"/>
    </filter>
  </defs>
  <g id="_67" data-name="67" transform="translate(-588 -8868)">
    <g id="Grupo_1154877" data-name="Grupo 1154877" transform="translate(0 4009)">
      <g id="Grupo_1149674" data-name="Grupo 1149674" transform="translate(-158 -2821)">
        <g id="Grupo_1148534" data-name="Grupo 1148534" transform="translate(156 4253)">
          <g id="Grupo_1147066" data-name="Grupo 1147066" transform="translate(-26 -556)">
            <g transform="matrix(1, 0, 0, 1, 616, 3983)" filter="url(#Trazado_982547)">
              <g id="Trazado_982547-2" data-name="Trazado 982547" transform="translate(9 6)" fill="#f6edfd">
                <path d="M 45 88.5 C 39.12687683105469 88.5 33.43022537231445 87.35007476806641 28.06830024719238 85.08217620849609 C 22.88852500915527 82.89131164550781 18.23629951477051 79.75458526611328 14.2408504486084 75.75914764404297 C 10.24541282653809 71.76370239257812 7.108687400817871 67.11147308349609 4.917825222015381 61.93170166015625 C 2.649924993515015 56.56977462768555 1.5 50.87312316894531 1.5 45 C 1.5 39.12687683105469 2.649924993515015 33.43022537231445 4.917825222015381 28.06830024719238 C 7.108687400817871 22.88852500915527 10.24541282653809 18.23629951477051 14.2408504486084 14.2408504486084 C 18.23629951477051 10.24541282653809 22.88852500915527 7.108687400817871 28.06830024719238 4.917825222015381 C 33.43022537231445 2.649924993515015 39.12687683105469 1.5 45 1.5 C 50.87312316894531 1.5 56.56977462768555 2.649924993515015 61.93170166015625 4.917825222015381 C 67.11147308349609 7.108687400817871 71.76370239257812 10.24541282653809 75.75914764404297 14.2408504486084 C 79.75458526611328 18.23629951477051 82.89131164550781 22.88852500915527 85.08217620849609 28.06830024719238 C 87.35007476806641 33.43022537231445 88.5 39.12687683105469 88.5 45 C 88.5 50.87312316894531 87.35007476806641 56.56977462768555 85.08217620849609 61.93170166015625 C 82.89131164550781 67.11147308349609 79.75458526611328 71.76370239257812 75.75914764404297 75.75914764404297 C 71.76370239257812 79.75458526611328 67.11147308349609 82.89131164550781 61.93170166015625 85.08217620849609 C 56.56977462768555 87.35007476806641 50.87312316894531 88.5 45 88.5 Z" stroke="none"/>
                <path d="M 45 3 C 39.32871246337891 3 33.82865524291992 4.110054016113281 28.65262985229492 6.299339294433594 C 23.65165710449219 8.414573669433594 19.15968322753906 11.44334411621094 15.301513671875 15.301513671875 C 11.44334411621094 19.15968322753906 8.414573669433594 23.65165710449219 6.299339294433594 28.65262985229492 C 4.110054016113281 33.82865524291992 3 39.32871246337891 3 45 C 3 50.67128753662109 4.110054016113281 56.17134475708008 6.299339294433594 61.34737396240234 C 8.414573669433594 66.34834289550781 11.44334411621094 70.84031677246094 15.301513671875 74.698486328125 C 19.15968322753906 78.55665588378906 23.65165710449219 81.58542633056641 28.65262985229492 83.70066070556641 C 33.82865524291992 85.88994598388672 39.32871246337891 87 45 87 C 50.67128753662109 87 56.17134475708008 85.88994598388672 61.34737396240234 83.70066070556641 C 66.34834289550781 81.58542633056641 70.84031677246094 78.55665588378906 74.698486328125 74.698486328125 C 78.55665588378906 70.84031677246094 81.58542633056641 66.34834289550781 83.70066070556641 61.34737396240234 C 85.88994598388672 56.17134475708008 87 50.67128753662109 87 45 C 87 39.32871246337891 85.88994598388672 33.82865524291992 83.70066070556641 28.65262985229492 C 81.58542633056641 23.65165710449219 78.55665588378906 19.15968322753906 74.698486328125 15.301513671875 C 70.84031677246094 11.44334411621094 66.34834289550781 8.414573669433594 61.34737396240234 6.299339294433594 C 56.17134475708008 4.110054016113281 50.67128753662109 3 45 3 M 45 0 C 69.85281372070312 0 90 20.14718627929688 90 45 C 90 69.85281372070312 69.85281372070312 90 45 90 C 20.14718627929688 90 0 69.85281372070312 0 45 C 0 20.14718627929688 20.14718627929688 0 45 0 Z" stroke="none" fill="#ac59f1"/>
              </g>
            </g>
          </g>
        </g>
      </g>
    </g>
    <g id="contar-historias" transform="translate(608.695 8887)">
      <g id="Shadow" transform="translate(0)">
        <g id="Grupo_1155807" data-name="Grupo 1155807">
          <g id="Grupo_1155804" data-name="Grupo 1155804">
            <g id="Grupo_1155800" data-name="Grupo 1155800">
              <g id="Grupo_1155796" data-name="Grupo 1155796" transform="translate(9.819 11.138)">
                <g id="Grupo_1155794" data-name="Grupo 1155794" transform="translate(3.6 2.341)">
                  <path id="Trazado_992964" data-name="Trazado 992964" d="M111.83,110.692c0,3.849-2.285,5.323-5.1,5.323s-5.1-1.473-5.1-5.323,2.285-8.618,5.1-8.618S111.83,106.842,111.83,110.692Z" transform="translate(-101.624 -102.074)" fill="#ffcebf"/>
                </g>
                <g id="Grupo_1155795" data-name="Grupo 1155795">
                  <path id="Trazado_992965" data-name="Trazado 992965" d="M83.065,84.344c-6.941,0-7.528,5.406-7.576,8.942s-2.513,6.828,0,6.747,2.446-5.488,2.446-5.488c1.155,0,1.358-3.576,2.781-3.129a1.853,1.853,0,0,0,2.349-1.423,1.852,1.852,0,0,0,2.348,1.423c1.423-.447,1.626,3.129,2.781,3.129,0,0-.066,5.406,2.446,5.488s.048-3.211,0-6.747S90.006,84.344,83.065,84.344Z" transform="translate(-74.362 -84.344)" fill="#3a313a"/>
                </g>
              </g>
              <g id="Grupo_1155799" data-name="Grupo 1155799">
                <g id="Grupo_1155797" data-name="Grupo 1155797" transform="translate(5.152 28.392)">
                  <path id="Trazado_992966" data-name="Trazado 992966" d="M62.841,224.185a7.369,7.369,0,0,0-6.769-5.265h-.028l-.124.045-.763,3.961-2.77-2.681-2.771,2.681-.763-3.961-.123-.044H48.7a7.37,7.37,0,0,0-6.769,5.265l-2.917,11.494a22.622,22.622,0,0,0,26.741,0Z" transform="translate(-39.017 -218.403)" fill="#6fd7a3"/>
                  <path id="Trazado_992967" data-name="Trazado 992967" d="M119.76,219.53l-2.77-2.681,2.17-1.841,1.372.517-.008.045Zm-2.77-2.681-2.17-1.841-1.372.517.009.044.763,3.961Z" transform="translate(-103.619 -215.008)" fill="#fff"/>
                </g>
                <g id="Grupo_1155798" data-name="Grupo 1155798">
                  <path id="Trazado_992968" data-name="Trazado 992968" fill="#01d0fb"/>
                </g>
              </g>
            </g>
            <g id="XMLID_96_" transform="translate(3.647 31.552)">
              <g id="Grupo_1155802" data-name="Grupo 1155802">
                <path id="Trazado_992969" data-name="Trazado 992969" d="M67.945,246.714H65.677l-8.736-3.651.1-.237v-3.888Z" transform="translate(-53.069 -238.937)" fill="#dedbee"/>
                <path id="Trazado_992970" data-name="Trazado 992970" d="M151.176,242.825l.1.237-8.735,3.651h-2.268l10.9-7.777Z" transform="translate(-125.396 -238.937)" fill="#dedbee"/>
                <g id="Grupo_1155801" data-name="Grupo 1155801" transform="translate(0 2.509)">
                  <path id="Trazado_992971" data-name="Trazado 992971" d="M40.228,263.2v17.143l-12.607-4.432v-17.98l3.872,1.617Z" transform="translate(-27.621 -257.935)" fill="#935b50"/>
                  <path id="Trazado_992972" data-name="Trazado 992972" d="M127.632,297.831v17.143H123.1V297.831h4.536Z" transform="translate(-110.489 -292.563)" fill="#935b50"/>
                  <path id="Trazado_992973" data-name="Trazado 992973" d="M170.053,257.935v17.98l-12.607,4.432V263.2l8.735-3.651Z" transform="translate(-140.303 -257.935)" fill="#935b50"/>
                </g>
              </g>
            </g>
            <g id="Grupo_1155803" data-name="Grupo 1155803" transform="translate(0.528 39.716)">
              <circle id="Elipse_11856" data-name="Elipse 11856" cx="3.119" cy="3.119" r="3.119" transform="translate(29.75)" fill="#ffcebf"/>
              <circle id="Elipse_11857" data-name="Elipse 11857" cx="3.119" cy="3.119" r="3.119" fill="#ffcebf"/>
            </g>
          </g>
          <g id="Grupo_1155806" data-name="Grupo 1155806" transform="translate(39.102 12.533)">
            <path id="Trazado_992974" data-name="Trazado 992974" d="M300.3,94.914h19.62a4.192,4.192,0,0,1,4.18,4.18v29.56a4.192,4.192,0,0,1-4.18,4.18H306.489l-8.595,4.623,2.4-4.623a4.192,4.192,0,0,1-4.18-4.18V99.094A4.192,4.192,0,0,1,300.3,94.914Z" transform="translate(-296.116 -94.914)" fill="#9257ff"/>
            <g id="Grupo_1155805" data-name="Grupo 1155805" transform="translate(5.233 5.009)">
              <path id="Trazado_992975" data-name="Trazado 992975" d="M335.742,132.847h18.037" transform="translate(-335.742 -132.847)" fill="#6fd7a3"/>
              <path id="Trazado_992976" data-name="Trazado 992976" d="M335.742,191.04h18.037" transform="translate(-335.742 -183.356)" fill="#6fd7a3"/>
              <path id="Trazado_992977" data-name="Trazado 992977" d="M335.742,249.231h18.037" transform="translate(-335.742 -233.863)" fill="#6fd7a3"/>
              <path id="Trazado_992978" data-name="Trazado 992978" d="M335.742,307.423h18.037" transform="translate(-335.742 -284.37)" fill="#6fd7a3"/>
            </g>
          </g>
        </g>
      </g>
      <g id="Base" transform="translate(2.184 11.858)">
        <path id="Trazado_992979" data-name="Trazado 992979" d="M118.081,146.724c-2.634,0-3.915-1.352-3.915-4.134,0-.016,0-.033,0-.049a5.04,5.04,0,0,0,1.07-1.751,9.1,9.1,0,0,1,.427-.877,3.023,3.023,0,0,0,.643.07,2.862,2.862,0,0,0,1.776-.619,2.861,2.861,0,0,0,1.775.619,3.024,3.024,0,0,0,.643-.07,9,9,0,0,1,.427.877,5.04,5.04,0,0,0,1.07,1.751c0,.016,0,.033,0,.049,0,2.782-1.28,4.134-3.914,4.134Z" transform="translate(-101.275 -132.819)" fill="#ffdfcf"/>
        <path id="Trazado_992980" data-name="Trazado 992980" d="M87.082,103.09c.071-.421.257-1.079.359-1.444a15.823,15.823,0,0,0,.744-4.074,11.175,11.175,0,0,1,1.047-5.225c.987-1.736,2.684-2.544,5.34-2.544s4.352.808,5.34,2.544a11.176,11.176,0,0,1,1.047,5.225,15.807,15.807,0,0,0,.744,4.073c.1.366.289,1.024.36,1.444-.684-.261-1.194-2.447-1.173-4.26a1.187,1.187,0,0,0-.883-1.162,8.055,8.055,0,0,1-.413-.849c-.437-1-1.036-2.359-2.434-2.359a1.981,1.981,0,0,0-.6.093.732.732,0,0,1-.217.037c-.34,0-.557-.382-.6-.476a1.189,1.189,0,0,0-2.358,0c-.039.094-.257.476-.6.476a.734.734,0,0,1-.217-.037,1.989,1.989,0,0,0-.6-.093c-1.4,0-2,1.363-2.434,2.358a8.124,8.124,0,0,1-.413.85,1.187,1.187,0,0,0-.884,1.163c.023,1.814-.487,4-1.173,4.26Z" transform="translate(-77.767 -89.803)" fill="#685e68"/>
        <path id="Trazado_992981" data-name="Trazado 992981" d="M83.1,226.9a6.24,6.24,0,0,1,3.508-1.982l.572,2.97a1.189,1.189,0,0,0,1.993.629l1.944-1.882,1.944,1.881a1.189,1.189,0,0,0,1.994-.629l.572-2.97A6.239,6.239,0,0,1,99.13,226.9l-8.018,5.718Z" transform="translate(-74.307 -207.08)" fill="#9be69d"/>
        <path id="Trazado_992982" data-name="Trazado 992982" d="M157.207,223.872l.355-.3-.1.543Z" transform="translate(-138.632 -205.907)" fill="#fff"/>
        <path id="Trazado_992983" data-name="Trazado 992983" d="M127.731,223.569l.355.3-.25.242Z" transform="translate(-113.048 -205.905)" fill="#fff"/>
        <path id="Trazado_992984" data-name="Trazado 992984" d="M70.231,253.937v-1.069l3.621,2.582Z" transform="translate(-63.141 -231.335)" fill="#f9f7f8"/>
        <path id="Trazado_992985" data-name="Trazado 992985" d="M193.592,252.868v1.069l-3.621,1.513Z" transform="translate(-167.07 -231.335)" fill="#f9f7f8"/>
        <g id="Grupo_1155808" data-name="Grupo 1155808" transform="translate(3.119 23.519)">
          <path id="Trazado_992986" data-name="Trazado 992986" d="M40.162,283.26v-4.222a4.307,4.307,0,0,0,0-8.28v-2.851l10.231,4.275v14.675Z" transform="translate(-40.162 -267.907)" fill="#ab695d"/>
          <path id="Trazado_992987" data-name="Trazado 992987" d="M135.637,303.29H137.8v14.766h-2.159Z" transform="translate(-123.03 -298.618)" fill="#ab695d"/>
          <path id="Trazado_992988" data-name="Trazado 992988" d="M169.987,272.183l10.23-4.275v2.851a4.307,4.307,0,0,0,0,8.28v4.222l-10.23,3.6Z" transform="translate(-152.844 -267.908)" fill="#ab695d"/>
        </g>
        <path id="Trazado_992989" data-name="Trazado 992989" d="M243.77,310.091a1.931,1.931,0,1,1,1.931-1.931A1.933,1.933,0,0,1,243.77,310.091Z" transform="translate(-212.089 -277.651)" fill="#ffdfcf"/>
        <path id="Trazado_992990" data-name="Trazado 992990" d="M18.472,310.091a1.931,1.931,0,1,1,1.931-1.931A1.933,1.933,0,0,1,18.472,310.091Z" transform="translate(-16.541 -277.651)" fill="#ffdfcf"/>
        <path id="Trazado_992991" data-name="Trazado 992991" d="M312.7,137.652a1.188,1.188,0,0,0-1.055-1.736,3,3,0,0,1-2.991-2.991V103.364a3,3,0,0,1,2.991-2.991h19.62a3,3,0,0,1,2.991,2.991v29.56a3,3,0,0,1-2.991,2.991H317.842a1.193,1.193,0,0,0-.563.142l-5.2,2.8Zm0-11.594a1.188,1.188,0,1,0,0,2.377h18.037a1.188,1.188,0,0,0,0-2.377Zm0-7.684a1.188,1.188,0,0,0,0,2.377h18.037a1.188,1.188,0,0,0,0-2.377Zm0-7.684a1.188,1.188,0,1,0,0,2.377h18.037a1.188,1.188,0,0,0,0-2.377Zm0-7.684a1.188,1.188,0,1,0,0,2.377h18.037a1.188,1.188,0,0,0,0-2.377Z" transform="translate(-270.083 -98.977)" fill="#be9bff"/>
      </g>
      <g id="Outline" transform="translate(0 10.609)">
        <path id="Trazado_992992" data-name="Trazado 992992" d="M86.437,83.756c-1.288-2.264-3.587-3.412-6.832-3.412s-5.544,1.148-6.832,3.412A12.708,12.708,0,0,0,71.5,89.807a14.234,14.234,0,0,1-.68,3.632c-.385,1.364-.688,2.442-.172,3.125a1.521,1.521,0,0,0,1.291.527l.106,0c1.32-.043,2.051-1.135,2.457-2.382.824,1.919,2.585,2.975,5.1,2.975s4.278-1.056,5.1-2.975c.406,1.247,1.137,2.339,2.457,2.382l.106,0h0a1.521,1.521,0,0,0,1.291-.527c.517-.682.213-1.76-.172-3.124a14.216,14.216,0,0,1-.68-3.632A12.71,12.71,0,0,0,86.437,83.756Zm1.281,12.17a.638.638,0,0,1-.448.109H87.2c-1.625-.053-1.95-3.685-1.935-4.953a.528.528,0,0,0-.528-.534c-.184,0-.568-.875-.713-1.2-.4-.921-.863-1.964-1.829-1.964a1.324,1.324,0,0,0-.4.063,1.278,1.278,0,0,1-1.664-.964.528.528,0,0,0-1.052,0,1.278,1.278,0,0,1-1.664.964,1.33,1.33,0,0,0-.4-.063c-.967,0-1.425,1.043-1.829,1.964-.145.329-.529,1.2-.713,1.2a.528.528,0,0,0-.528.535c.016,1.268-.306,4.9-1.935,4.953-.267.009-.464-.032-.521-.107-.2-.264.1-1.338.346-2.2a15.283,15.283,0,0,0,.72-3.9,11.762,11.762,0,0,1,1.134-5.543c1.1-1.937,3.036-2.878,5.914-2.878s4.812.941,5.914,2.878a11.762,11.762,0,0,1,1.134,5.543,15.287,15.287,0,0,0,.72,3.9C87.615,94.588,87.918,95.662,87.718,95.926Zm-8.113.7c-2.087,0-4.575-.832-4.575-4.795,0-.127,0-.255.009-.384a3.576,3.576,0,0,0,1.117-1.681c.219-.5.585-1.332.862-1.332a.276.276,0,0,1,.081.014,2.442,2.442,0,0,0,.731.116,2.3,2.3,0,0,0,1.776-.876,2.3,2.3,0,0,0,1.775.876,2.443,2.443,0,0,0,.731-.116.277.277,0,0,1,.081-.014c.277,0,.643.834.862,1.332a3.576,3.576,0,0,0,1.117,1.681c.005.129.009.257.009.384,0,3.963-2.488,4.795-4.574,4.795Z" transform="translate(-61.082 -80.344)"/>
        <path id="Trazado_992993" data-name="Trazado 992993" d="M3.472,235.682l12.607,4.432c.014,0,.028.007.042.011l.036.009a.525.525,0,0,0,.1.01h4.536a.523.523,0,0,0,.1-.01l.036-.009c.014,0,.028-.006.042-.011l12.607-4.432a.528.528,0,0,0,.353-.5v-5.6a3.647,3.647,0,0,0,0-7.217V217.2a.528.528,0,0,0-.732-.487l-3.239,1.354V214.7a.528.528,0,0,0-.835-.43l-.773.551a7.929,7.929,0,0,0-6.14-3.293h-.047l-1.282-.483a.527.527,0,0,0-.528.092l-1.828,1.551-1.828-1.551a.528.528,0,0,0-.528-.092l-1.282.483h-.047a7.929,7.929,0,0,0-6.14,3.293l-.773-.551a.528.528,0,0,0-.835.43v3.375l-3.239-1.354a.528.528,0,0,0-.732.487v5.167a3.647,3.647,0,0,0,0,7.217v5.6a.528.528,0,0,0,.353.5ZM21.462,212.39l-.5,2.61-1.65-1.6L20.8,212.14ZM16.086,215l-.5-2.61.664-.25,1.488,1.263Zm-1.54-2.411.687,3.569a.528.528,0,0,0,.886.28l2.4-2.326,2.4,2.326a.528.528,0,0,0,.886-.28l.687-3.569a6.881,6.881,0,0,1,5,2.836l-8.972,6.4-8.972-6.4A6.882,6.882,0,0,1,14.546,212.589ZM30.807,225.98a2.591,2.591,0,1,1,2.591,2.591A2.594,2.594,0,0,1,30.807,225.98Zm2.063-3.609a3.647,3.647,0,0,0,0,7.217v5.221L21.319,238.87V222.824L32.87,218ZM16.783,223h3.48v16.087h-3.48ZM28.9,218.511l-8.214,3.433h-.512l8.726-6.223Zm-12.027,3.433h-.512l-8.215-3.433v-2.791Zm-1.146.88V238.87L4.176,234.809v-5.221a3.647,3.647,0,0,0,0-7.217V218ZM6.238,225.98a2.591,2.591,0,1,1-2.591-2.591A2.594,2.594,0,0,1,6.238,225.98Z" transform="translate(0 -193.753)"/>
        <path id="Trazado_992994" data-name="Trazado 992994" d="M316.444,90.914h-19.62a4.713,4.713,0,0,0-4.708,4.708v29.56a4.716,4.716,0,0,0,3.877,4.634l-2.039,3.925a.528.528,0,0,0,.719.708l8.477-4.56h13.293a4.713,4.713,0,0,0,4.708-4.708V95.622a4.713,4.713,0,0,0-4.708-4.708Zm3.652,34.268a3.656,3.656,0,0,1-3.652,3.651H303.017a.527.527,0,0,0-.25.063l-7.086,3.811,1.612-3.1a.528.528,0,0,0-.469-.772,3.656,3.656,0,0,1-3.652-3.651V95.622a3.656,3.656,0,0,1,3.652-3.651h19.62a3.656,3.656,0,0,1,3.652,3.651v29.56Z" transform="translate(-253.542 -89.518)"/>
        <path id="Trazado_992995" data-name="Trazado 992995" d="M350.307,128.847H332.27a.528.528,0,1,0,0,1.056h18.037a.528.528,0,0,0,0-1.056Z" transform="translate(-287.936 -122.442)"/>
        <path id="Trazado_992996" data-name="Trazado 992996" d="M350.307,187.04H332.27a.528.528,0,0,0,0,1.056h18.037a.528.528,0,0,0,0-1.056Z" transform="translate(-287.936 -172.951)"/>
        <path id="Trazado_992997" data-name="Trazado 992997" d="M350.307,245.231H332.27a.528.528,0,1,0,0,1.056h18.037a.528.528,0,0,0,0-1.056Z" transform="translate(-287.936 -223.458)"/>
        <path id="Trazado_992998" data-name="Trazado 992998" d="M350.307,303.423H332.27a.528.528,0,1,0,0,1.056h18.037a.528.528,0,0,0,0-1.056Z" transform="translate(-287.936 -273.966)"/>
      </g>
    </g>
  </g>
</svg>
