<svg xmlns="http://www.w3.org/2000/svg" xmlns:xlink="http://www.w3.org/1999/xlink" width="108" height="108" viewBox="0 0 108 108">
  <defs>
    <filter id="Trazado_982547" x="0" y="0" width="108" height="108" filterUnits="userSpaceOnUse">
      <feOffset dy="3" input="SourceAlpha"/>
      <feGaussianBlur stdDeviation="3" result="blur"/>
      <feFlood flood-opacity="0.161"/>
      <feComposite operator="in" in2="blur"/>
      <feComposite in="SourceGraphic"/>
    </filter>
  </defs>
  <g id="_69" data-name="69" transform="translate(-1218 -8868)">
    <g id="Grupo_1154879" data-name="Grupo 1154879" transform="translate(0 4009)">
      <g id="Grupo_1149676" data-name="Grupo 1149676" transform="translate(472 -2821)">
        <g id="Grupo_1148534" data-name="Grupo 1148534" transform="translate(156 4253)">
          <g id="Grupo_1147066" data-name="Grupo 1147066" transform="translate(-26 -556)">
            <g transform="matrix(1, 0, 0, 1, 616, 3983)" filter="url(#Trazado_982547)">
              <g id="Trazado_982547-2" data-name="Trazado 982547" transform="translate(9 6)" fill="#f6edfd">
                <path d="M 45 88.5 C 39.12687683105469 88.5 33.43022537231445 87.35007476806641 28.06830024719238 85.08217620849609 C 22.88852500915527 82.89131164550781 18.23629951477051 79.75458526611328 14.2408504486084 75.75914764404297 C 10.24541282653809 71.76370239257812 7.108687400817871 67.11147308349609 4.917825222015381 61.93170166015625 C 2.649924993515015 56.56977462768555 1.5 50.87312316894531 1.5 45 C 1.5 39.12687683105469 2.649924993515015 33.43022537231445 4.917825222015381 28.06830024719238 C 7.108687400817871 22.88852500915527 10.24541282653809 18.23629951477051 14.2408504486084 14.2408504486084 C 18.23629951477051 10.24541282653809 22.88852500915527 7.108687400817871 28.06830024719238 4.917825222015381 C 33.43022537231445 2.649924993515015 39.12687683105469 1.5 45 1.5 C 50.87312316894531 1.5 56.56977462768555 2.649924993515015 61.93170166015625 4.917825222015381 C 67.11147308349609 7.108687400817871 71.76370239257812 10.24541282653809 75.75914764404297 14.2408504486084 C 79.75458526611328 18.23629951477051 82.89131164550781 22.88852500915527 85.08217620849609 28.06830024719238 C 87.35007476806641 33.43022537231445 88.5 39.12687683105469 88.5 45 C 88.5 50.87312316894531 87.35007476806641 56.56977462768555 85.08217620849609 61.93170166015625 C 82.89131164550781 67.11147308349609 79.75458526611328 71.76370239257812 75.75914764404297 75.75914764404297 C 71.76370239257812 79.75458526611328 67.11147308349609 82.89131164550781 61.93170166015625 85.08217620849609 C 56.56977462768555 87.35007476806641 50.87312316894531 88.5 45 88.5 Z" stroke="none"/>
                <path d="M 45 3 C 39.32871246337891 3 33.82865524291992 4.110054016113281 28.65262985229492 6.299339294433594 C 23.65165710449219 8.414573669433594 19.15968322753906 11.44334411621094 15.301513671875 15.301513671875 C 11.44334411621094 19.15968322753906 8.414573669433594 23.65165710449219 6.299339294433594 28.65262985229492 C 4.110054016113281 33.82865524291992 3 39.32871246337891 3 45 C 3 50.67128753662109 4.110054016113281 56.17134475708008 6.299339294433594 61.34737396240234 C 8.414573669433594 66.34834289550781 11.44334411621094 70.84031677246094 15.301513671875 74.698486328125 C 19.15968322753906 78.55665588378906 23.65165710449219 81.58542633056641 28.65262985229492 83.70066070556641 C 33.82865524291992 85.88994598388672 39.32871246337891 87 45 87 C 50.67128753662109 87 56.17134475708008 85.88994598388672 61.34737396240234 83.70066070556641 C 66.34834289550781 81.58542633056641 70.84031677246094 78.55665588378906 74.698486328125 74.698486328125 C 78.55665588378906 70.84031677246094 81.58542633056641 66.34834289550781 83.70066070556641 61.34737396240234 C 85.88994598388672 56.17134475708008 87 50.67128753662109 87 45 C 87 39.32871246337891 85.88994598388672 33.82865524291992 83.70066070556641 28.65262985229492 C 81.58542633056641 23.65165710449219 78.55665588378906 19.15968322753906 74.698486328125 15.301513671875 C 70.84031677246094 11.44334411621094 66.34834289550781 8.414573669433594 61.34737396240234 6.299339294433594 C 56.17134475708008 4.110054016113281 50.67128753662109 3 45 3 M 45 0 C 69.85281372070312 0 90 20.14718627929688 90 45 C 90 69.85281372070312 69.85281372070312 90 45 90 C 20.14718627929688 90 0 69.85281372070312 0 45 C 0 20.14718627929688 20.14718627929688 0 45 0 Z" stroke="none" fill="#ac59f1"/>
              </g>
            </g>
          </g>
        </g>
      </g>
    </g>
    <g id="asistente-de-ai_1_" data-name="asistente-de-ai (1)" transform="translate(1242.167 8889.271)">
      <g id="Grupo_1155841" data-name="Grupo 1155841" transform="translate(0.99 0.871)">
        <g id="Grupo_1155840" data-name="Grupo 1155840">
          <g id="Grupo_1155814" data-name="Grupo 1155814" transform="translate(12.363)">
            <g id="Grupo_1155812" data-name="Grupo 1155812">
              <g id="Grupo_1155811" data-name="Grupo 1155811">
                <path id="Trazado_993016" data-name="Trazado 993016" d="M141.817,65.215h-22.51a5.226,5.226,0,0,1-5.226-5.226V12.726A5.226,5.226,0,0,1,119.308,7.5h22.51a5.226,5.226,0,0,1,5.226,5.226V59.989A5.226,5.226,0,0,1,141.817,65.215Z" transform="translate(-114.082 -7.5)" fill="#f9f7f8"/>
              </g>
            </g>
            <g id="Grupo_1155813" data-name="Grupo 1155813" transform="translate(0.118 0.082)">
              <path id="Trazado_993017" data-name="Trazado 993017" d="M143.632,8.209V57.655a4.064,4.064,0,0,1-4.064,4.064H115.1a5.227,5.227,0,0,0,5.108,4.123h22.51a5.226,5.226,0,0,0,5.226-5.226V13.352A5.226,5.226,0,0,0,143.632,8.209Z" transform="translate(-115.095 -8.209)" fill="#efedef"/>
            </g>
          </g>
          <g id="Grupo_1155818" data-name="Grupo 1155818" transform="translate(19.68 24.222)">
            <g id="Grupo_1155817" data-name="Grupo 1155817">
              <g id="Grupo_1155815" data-name="Grupo 1155815" transform="translate(0 0)">
                <path id="Trazado_993018" data-name="Trazado 993018" d="M177.084,232.388v-14.28a2.024,2.024,0,0,1,2.024-2.024h14.28a2.024,2.024,0,0,1,2.024,2.024v14.28a2.024,2.024,0,0,1-2.024,2.024h-14.28A2.024,2.024,0,0,1,177.084,232.388Z" transform="translate(-177.084 -216.084)" fill="#b9acac"/>
              </g>
              <g id="Grupo_1155816" data-name="Grupo 1155816">
                <path id="Trazado_993019" data-name="Trazado 993019" d="M193.388,216.084h-.54v14.6a1.161,1.161,0,0,1-1.161,1.161h-14.6v.54a2.024,2.024,0,0,0,2.024,2.024h14.28a2.024,2.024,0,0,0,2.024-2.024v-14.28A2.024,2.024,0,0,0,193.388,216.084Z" transform="translate(-177.084 -216.084)" fill="#9e9797"/>
              </g>
            </g>
          </g>
          <g id="Grupo_1155836" data-name="Grupo 1155836" transform="translate(0 3.875)">
            <g id="Grupo_1155826" data-name="Grupo 1155826" transform="translate(43.127)">
              <g id="Grupo_1155819" data-name="Grupo 1155819">
                <circle id="Elipse_11858" data-name="Elipse 11858" cx="7.28" cy="7.28" r="7.28" fill="#ffdfcf"/>
              </g>
              <g id="Grupo_1155820" data-name="Grupo 1155820" transform="translate(2.05 0.492)">
                <path id="Trazado_993020" data-name="Trazado 993020" d="M404.515,45.1a7.279,7.279,0,0,1-7.861,11.85,7.279,7.279,0,1,0,7.861-11.85Z" transform="translate(-396.654 -45.104)" fill="#ffcebf"/>
              </g>
              <g id="Grupo_1155825" data-name="Grupo 1155825" transform="translate(2.813 3.731)">
                <g id="Grupo_1155821" data-name="Grupo 1155821" transform="translate(0 6.633)">
                  <path id="Trazado_993021" data-name="Trazado 993021" d="M407.691,134.308a7.246,7.246,0,0,0,4.467-1.534,3.679,3.679,0,0,0-2.91-2.663,3.444,3.444,0,0,1-3.113,0,3.679,3.679,0,0,0-2.91,2.663A7.247,7.247,0,0,0,407.691,134.308Z" transform="translate(-403.224 -130.111)" fill="#fe5694"/>
                </g>
                <g id="Grupo_1155822" data-name="Grupo 1155822" transform="translate(0 6.962)">
                  <path id="Trazado_993022" data-name="Trazado 993022" d="M410.248,132.948a7.279,7.279,0,0,1-6.888,1.932,3.628,3.628,0,0,0-.136.4,7.272,7.272,0,0,0,8.934,0A3.682,3.682,0,0,0,410.248,132.948Z" transform="translate(-403.224 -132.948)" fill="#fd3581"/>
                </g>
                <g id="Grupo_1155823" data-name="Grupo 1155823" transform="translate(0.918)">
                  <circle id="Elipse_11859" data-name="Elipse 11859" cx="3.549" cy="3.549" r="3.549" fill="#d78878"/>
                </g>
                <g id="Grupo_1155824" data-name="Grupo 1155824" transform="translate(1.392 0.036)">
                  <path id="Trazado_993023" data-name="Trazado 993023" d="M418.792,73.309a3.548,3.548,0,0,1-3.075,5.32,3.571,3.571,0,0,1-.505-.036,3.549,3.549,0,1,0,3.58-5.284Z" transform="translate(-415.212 -73.309)" fill="#c96e59"/>
                </g>
              </g>
            </g>
            <g id="Grupo_1155835" data-name="Grupo 1155835" transform="translate(0 35.405)">
              <g id="Grupo_1155827" data-name="Grupo 1155827">
                <circle id="Elipse_11860" data-name="Elipse 11860" cx="7.28" cy="7.28" r="7.28" fill="#0593fc"/>
              </g>
              <g id="Grupo_1155828" data-name="Grupo 1155828">
                <circle id="Elipse_11861" data-name="Elipse 11861" cx="7.28" cy="7.28" r="7.28" fill="#0593fc"/>
              </g>
              <g id="Grupo_1155829" data-name="Grupo 1155829" transform="translate(2.087 0.467)">
                <path id="Trazado_993024" data-name="Trazado 993024" d="M33.35,349.771a7.28,7.28,0,0,1-7.76,11.914,7.28,7.28,0,1,0,7.76-11.914Z" transform="translate(-25.59 -349.771)" fill="#0182fc"/>
              </g>
              <g id="Grupo_1155834" data-name="Grupo 1155834" transform="translate(2.813 3.731)">
                <g id="Grupo_1155830" data-name="Grupo 1155830" transform="translate(0 6.633)">
                  <path id="Trazado_993025" data-name="Trazado 993025" d="M36.31,439.192a7.247,7.247,0,0,0,4.467-1.534,3.679,3.679,0,0,0-2.91-2.663,3.443,3.443,0,0,1-3.113,0,3.679,3.679,0,0,0-2.91,2.663,7.246,7.246,0,0,0,4.467,1.534Z" transform="translate(-31.843 -434.995)" fill="#ffd15b"/>
                </g>
                <g id="Grupo_1155831" data-name="Grupo 1155831" transform="translate(0 6.957)">
                  <path id="Trazado_993026" data-name="Trazado 993026" d="M38.857,437.791a7.275,7.275,0,0,1-6.885,1.955,3.645,3.645,0,0,0-.129.384,7.272,7.272,0,0,0,8.934,0,3.683,3.683,0,0,0-1.921-2.338Z" transform="translate(-31.843 -437.791)" fill="#ffc344"/>
                </g>
                <g id="Grupo_1155832" data-name="Grupo 1155832" transform="translate(0.918)">
                  <circle id="Elipse_11862" data-name="Elipse 11862" cx="3.549" cy="3.549" r="3.549" fill="#ffdfcf"/>
                </g>
                <g id="Grupo_1155833" data-name="Grupo 1155833" transform="translate(1.406 0.026)">
                  <path id="Trazado_993027" data-name="Trazado 993027" d="M47.431,378.1a3.549,3.549,0,0,1-3.061,5.345,3.573,3.573,0,0,1-.42-.026,3.549,3.549,0,1,0,3.481-5.319Z" transform="translate(-43.95 -378.1)" fill="#ffcebf"/>
                </g>
              </g>
            </g>
          </g>
          <g id="Grupo_1155839" data-name="Grupo 1155839" transform="translate(18.514 9.536)">
            <g id="Grupo_1155837" data-name="Grupo 1155837" transform="translate(0 0)">
              <path id="Trazado_993028" data-name="Trazado 993028" d="M184.248,89.62H170.511a3.461,3.461,0,0,0,0,6.922h4.724a.483.483,0,0,1,.338.138l1.468,1.439a.483.483,0,0,0,.677,0l1.468-1.439a.483.483,0,0,1,.338-.138h4.724a3.461,3.461,0,0,0,0-6.922Z" transform="translate(-167.05 -89.62)" fill="#00f2a6"/>
            </g>
            <g id="Grupo_1155838" data-name="Grupo 1155838" transform="translate(0.035)">
              <path id="Trazado_993029" data-name="Trazado 993029" d="M184.512,89.62h-.051a3.459,3.459,0,0,1-3.427,3.947H167.349a3.461,3.461,0,0,0,3.427,2.975H175.5a.483.483,0,0,1,.338.138l1.468,1.439a.483.483,0,0,0,.677,0l1.468-1.439a.483.483,0,0,1,.338-.138h4.724a3.461,3.461,0,1,0,0-6.922Z" transform="translate(-167.349 -89.62)" fill="#05e39c"/>
            </g>
          </g>
        </g>
      </g>
      <g id="Grupo_1155842" data-name="Grupo 1155842" transform="translate(0.119)">
        <path id="Trazado_993030" data-name="Trazado 993030" d="M216.915,31.1a.871.871,0,1,0,0-1.742H207.1a.871.871,0,1,0,0,1.742Z" transform="translate(-182.291 -25.949)"/>
        <path id="Trazado_993031" data-name="Trazado 993031" d="M226.725,456.5a.871.871,0,1,0,0,1.742h5.26a.871.871,0,1,0,0-1.742Z" transform="translate(-199.64 -403.488)"/>
        <path id="Trazado_993032" data-name="Trazado 993032" d="M149.371,206.178a.871.871,0,0,0,0,1.742h1.69a2.906,2.906,0,0,0,1.986,1.986v1.69a.871.871,0,0,0,1.742,0v-1.577h2.968V211.6a.871.871,0,1,0,1.742,0v-1.577h2.968V211.6a.871.871,0,0,0,1.742,0v-1.577h2.968V211.6a.871.871,0,1,0,1.742,0v-1.69a2.906,2.906,0,0,0,1.986-1.986h1.69a.871.871,0,1,0,0-1.742h-1.577V203.21H172.6a.871.871,0,1,0,0-1.742h-1.577V198.5H172.6a.871.871,0,1,0,0-1.742h-1.577v-2.968H172.6a.871.871,0,1,0,0-1.742h-1.69a2.906,2.906,0,0,0-1.986-1.986v-1.69a.871.871,0,1,0-1.742,0v1.577H164.21v-1.577a.871.871,0,1,0-1.742,0v1.577H159.5v-1.577a.871.871,0,1,0-1.742,0v1.577h-2.968v-1.577a.871.871,0,1,0-1.742,0v1.69a2.906,2.906,0,0,0-1.986,1.986h-1.69a.871.871,0,0,0,0,1.742h1.577v2.968h-1.577a.871.871,0,0,0,0,1.742h1.577v2.968h-1.577a.871.871,0,0,0,0,1.742h1.577v2.968h-1.577Zm3.319-13.335a1.155,1.155,0,0,1,1.153-1.153h14.28a1.155,1.155,0,0,1,1.153,1.153v14.28a1.155,1.155,0,0,1-1.153,1.153h-14.28a1.155,1.155,0,0,1-1.153-1.153Z" transform="translate(-131.269 -165.726)"/>
        <path id="Trazado_993033" data-name="Trazado 993033" d="M206.712,262.005a.871.871,0,0,0,1.124-.5l.555-1.458h3.758l.549,1.455a.871.871,0,1,0,1.63-.615l-3.059-8.107-.009-.024a1.054,1.054,0,0,0-.978-.655h0a1.054,1.054,0,0,0-.978.657l-.008.02-3.087,8.106a.871.871,0,0,0,.5,1.124Zm3.567-6.918,1.213,3.215h-2.438Z" transform="translate(-182.225 -222.823)"/>
        <path id="Trazado_993034" data-name="Trazado 993034" d="M286.878,262.062a.871.871,0,0,0,.871-.871v-8.222a.871.871,0,0,0-1.742,0v8.222A.871.871,0,0,0,286.878,262.062Z" transform="translate(-252.808 -222.823)"/>
        <path id="Trazado_993035" data-name="Trazado 993035" d="M145.5,3.875A8.1,8.1,0,0,0,141.2,5.1,6.106,6.106,0,0,0,135.188,0h-22.51a6.1,6.1,0,0,0-6.1,6.1v5.052a.871.871,0,1,0,1.742,0V6.1a4.36,4.36,0,0,1,4.355-4.355h22.51A4.36,4.36,0,0,1,139.543,6.1v.371a8.13,8.13,0,0,0,0,11.117V44.361a.871.871,0,0,0,1.742,0V25.751h2.47a2.616,2.616,0,0,0,2.613-2.613V20.13A8.151,8.151,0,0,0,145.5,3.875Zm-.871,19.263a.872.872,0,0,1-.871.871h-2.47V19a8.093,8.093,0,0,0,3.341,1.128Zm.871-4.7a6.369,6.369,0,0,1-3.411-.987,2.839,2.839,0,0,1,1.622-1.382,4.4,4.4,0,0,0,3.576,0,2.838,2.838,0,0,1,1.623,1.381A6.368,6.368,0,0,1,145.5,18.435Zm-2.678-6.409A2.678,2.678,0,1,1,145.5,14.7a2.681,2.681,0,0,1-2.678-2.678Zm7.443,4.281a4.508,4.508,0,0,0-1.406-1.413,4.42,4.42,0,1,0-6.719,0,4.52,4.52,0,0,0-1.406,1.413,6.409,6.409,0,1,1,9.531,0Z" transform="translate(-94.219)"/>
        <path id="Trazado_993036" data-name="Trazado 993036" d="M159.55,86.452a4.337,4.337,0,0,0,4.332,4.332h4.566l1.355,1.328a1.361,1.361,0,0,0,1.9,0l1.355-1.328h4.566a4.332,4.332,0,1,0,0-8.664H163.882a4.337,4.337,0,0,0-4.332,4.332Zm20.659,0a2.593,2.593,0,0,1-2.59,2.59h-4.724a1.347,1.347,0,0,0-.948.387l-1.2,1.173-1.2-1.173a1.347,1.347,0,0,0-.948-.387h-4.724a2.59,2.59,0,1,1,0-5.181h13.737A2.593,2.593,0,0,1,180.209,86.452Z" transform="translate(-141.036 -72.584)"/>
        <path id="Trazado_993037" data-name="Trazado 993037" d="M292.717,113.667h1.618a.871.871,0,0,0,0-1.742h-1.618a.871.871,0,1,0,0,1.742Z" transform="translate(-257.969 -98.927)"/>
        <path id="Trazado_993038" data-name="Trazado 993038" d="M191.218,112.8a.871.871,0,0,0,.871.871h8.394a.871.871,0,0,0,0-1.742h-8.394A.871.871,0,0,0,191.218,112.8Z" transform="translate(-169.026 -98.927)"/>
        <path id="Trazado_993039" data-name="Trazado 993039" d="M46.314,156.712a.871.871,0,0,0-.871.871v4.935a4.36,4.36,0,0,1-4.355,4.355H18.579a4.36,4.36,0,0,1-4.355-4.355v-.371a8.13,8.13,0,0,0,0-11.117v-26.66a.871.871,0,0,0-1.742,0v18.493h-2.47A2.616,2.616,0,0,0,7.4,145.477v3.008a8.151,8.151,0,1,0,5.166,15.028,6.106,6.106,0,0,0,6.014,5.1h22.51a6.1,6.1,0,0,0,6.1-6.1v-4.935a.871.871,0,0,0-.871-.871ZM9.141,145.477a.872.872,0,0,1,.871-.871h2.47v5.008a8.093,8.093,0,0,0-3.341-1.128ZM8.27,163a6.369,6.369,0,0,1-3.411-.987,2.84,2.84,0,0,1,1.622-1.382,4.4,4.4,0,0,0,3.576,0,2.839,2.839,0,0,1,1.623,1.381A6.369,6.369,0,0,1,8.27,163Zm-2.678-6.409a2.678,2.678,0,1,1,2.678,2.678,2.681,2.681,0,0,1-2.678-2.678Zm6.038,2.868a4.42,4.42,0,1,0-6.719,0,4.52,4.52,0,0,0-1.406,1.413,6.409,6.409,0,1,1,9.53,0,4.512,4.512,0,0,0-1.406-1.413Z" transform="translate(-0.119 -109.158)"/>
      </g>
    </g>
  </g>
</svg>
