<svg xmlns="http://www.w3.org/2000/svg" xmlns:xlink="http://www.w3.org/1999/xlink" width="108" height="108" viewBox="0 0 108 108">
  <defs>
    <filter id="Trazado_982547" x="0" y="0" width="108" height="108" filterUnits="userSpaceOnUse">
      <feOffset dy="3" input="SourceAlpha"/>
      <feGaussianBlur stdDeviation="3" result="blur"/>
      <feFlood flood-opacity="0.161"/>
      <feComposite operator="in" in2="blur"/>
      <feComposite in="SourceGraphic"/>
    </filter>
  </defs>
  <g id="_7" data-name="7" transform="translate(-616 -315)">
    <g id="Grupo_1154033" data-name="Grupo 1154033" transform="translate(0 -3595)">
      <g id="Grupo_1153177" data-name="Grupo 1153177" transform="translate(362 3397)">
        <g id="Grupo_1149598" data-name="Grupo 1149598" transform="translate(80 315)">
          <g id="Grupo_1148770" data-name="Grupo 1148770" transform="translate(-27 -2583)">
            <g id="Grupo_1146954" data-name="Grupo 1146954" transform="translate(-415 -1202)">
              <g transform="matrix(1, 0, 0, 1, 616, 3983)" filter="url(#Trazado_982547)">
                <g id="Trazado_982547-2" data-name="Trazado 982547" transform="translate(9 6)" fill="#f5fdfd">
                  <path d="M 45 88.5 C 39.12687683105469 88.5 33.43022537231445 87.35007476806641 28.06830024719238 85.08217620849609 C 22.88852500915527 82.89131164550781 18.23629951477051 79.75458526611328 14.2408504486084 75.75914764404297 C 10.24541282653809 71.76370239257812 7.108687400817871 67.11147308349609 4.917825222015381 61.93170166015625 C 2.649924993515015 56.56977462768555 1.5 50.87312316894531 1.5 45 C 1.5 39.12687683105469 2.649924993515015 33.43022537231445 4.917825222015381 28.06830024719238 C 7.108687400817871 22.88852500915527 10.24541282653809 18.23629951477051 14.2408504486084 14.2408504486084 C 18.23629951477051 10.24541282653809 22.88852500915527 7.108687400817871 28.06830024719238 4.917825222015381 C 33.43022537231445 2.649924993515015 39.12687683105469 1.5 45 1.5 C 50.87312316894531 1.5 56.56977462768555 2.649924993515015 61.93170166015625 4.917825222015381 C 67.11147308349609 7.108687400817871 71.76370239257812 10.24541282653809 75.75914764404297 14.2408504486084 C 79.75458526611328 18.23629951477051 82.89131164550781 22.88852500915527 85.08217620849609 28.06830024719238 C 87.35007476806641 33.43022537231445 88.5 39.12687683105469 88.5 45 C 88.5 50.87312316894531 87.35007476806641 56.56977462768555 85.08217620849609 61.93170166015625 C 82.89131164550781 67.11147308349609 79.75458526611328 71.76370239257812 75.75914764404297 75.75914764404297 C 71.76370239257812 79.75458526611328 67.11147308349609 82.89131164550781 61.93170166015625 85.08217620849609 C 56.56977462768555 87.35007476806641 50.87312316894531 88.5 45 88.5 Z" stroke="none"/>
                  <path d="M 45 3 C 39.32871246337891 3 33.82865524291992 4.110054016113281 28.65262985229492 6.299339294433594 C 23.65165710449219 8.414573669433594 19.15968322753906 11.44334411621094 15.301513671875 15.301513671875 C 11.44334411621094 19.15968322753906 8.414573669433594 23.65165710449219 6.299339294433594 28.65262985229492 C 4.110054016113281 33.82865524291992 3 39.32871246337891 3 45 C 3 50.67128753662109 4.110054016113281 56.17134475708008 6.299339294433594 61.34737396240234 C 8.414573669433594 66.34834289550781 11.44334411621094 70.84031677246094 15.301513671875 74.698486328125 C 19.15968322753906 78.55665588378906 23.65165710449219 81.58542633056641 28.65262985229492 83.70066070556641 C 33.82865524291992 85.88994598388672 39.32871246337891 87 45 87 C 50.67128753662109 87 56.17134475708008 85.88994598388672 61.34737396240234 83.70066070556641 C 66.34834289550781 81.58542633056641 70.84031677246094 78.55665588378906 74.698486328125 74.698486328125 C 78.55665588378906 70.84031677246094 81.58542633056641 66.34834289550781 83.70066070556641 61.34737396240234 C 85.88994598388672 56.17134475708008 87 50.67128753662109 87 45 C 87 39.32871246337891 85.88994598388672 33.82865524291992 83.70066070556641 28.65262985229492 C 81.58542633056641 23.65165710449219 78.55665588378906 19.15968322753906 74.698486328125 15.301513671875 C 70.84031677246094 11.44334411621094 66.34834289550781 8.414573669433594 61.34737396240234 6.299339294433594 C 56.17134475708008 4.110054016113281 50.67128753662109 3 45 3 M 45 0 C 69.85281372070312 0 90 20.14718627929688 90 45 C 90 69.85281372070312 69.85281372070312 90 45 90 C 20.14718627929688 90 0 69.85281372070312 0 45 C 0 20.14718627929688 20.14718627929688 0 45 0 Z" stroke="none" fill="#598384"/>
                </g>
              </g>
            </g>
          </g>
        </g>
      </g>
    </g>
    <g id="el-pensamiento-de-diseno" transform="translate(642 338)">
      <g id="Grupo_1154895" data-name="Grupo 1154895" transform="translate(1.866 1.866)">
        <g id="Grupo_1154881" data-name="Grupo 1154881" transform="translate(36.399 10.395)">
          <path id="Trazado_991355" data-name="Trazado 991355" d="M53.531,18.331l-6.124,6.124a14.689,14.689,0,0,0-3.292-5.18l-.1-.1L49.2,14Z" transform="translate(-44.02 -14)" fill="#5cd6b3"/>
        </g>
        <g id="Grupo_1154882" data-name="Grupo 1154882" transform="translate(8.662 35.723)">
          <path id="Trazado_991356" data-name="Trazado 991356" d="M23.434,48.056l-7.1,7.1L12,50.828l7.588-7.588A17.036,17.036,0,0,1,23.434,48.056Z" transform="translate(-12 -43.24)" fill="#5cd6b3"/>
        </g>
        <g id="Grupo_1154883" data-name="Grupo 1154883" transform="translate(4.331 30.951)">
          <path id="Trazado_991357" data-name="Trazado 991357" d="M18.919,42.5l-7.588,7.588L7,45.76l8.03-8.03a14.679,14.679,0,0,0,2.841,3.742c.346.346.693.693,1.048,1.031Z" transform="translate(-7 -37.73)" fill="#ff826e"/>
        </g>
        <g id="Grupo_1154884" data-name="Grupo 1154884" transform="translate(31.124 6.064)">
          <path id="Trazado_991358" data-name="Trazado 991358" d="M48.385,13.331l-5.18,5.18a14.6,14.6,0,0,0-5.275-3.387L44.054,9Z" transform="translate(-37.93 -9)" fill="#ff826e"/>
        </g>
        <g id="Grupo_1154885" data-name="Grupo 1154885" transform="translate(39.847 0)">
          <path id="Trazado_991359" data-name="Trazado 991359" d="M60.127,8.124a6.109,6.109,0,0,1-1.793,4.331l-1.672,1.672L48,5.465l1.672-1.672A6.124,6.124,0,0,1,60.127,8.124Z" transform="translate(-48 -2)" fill="#aab2bd"/>
        </g>
        <g id="Grupo_1154886" data-name="Grupo 1154886" transform="translate(0 38.981)">
          <path id="Trazado_991360" data-name="Trazado 991360" d="M14.994,55.662,3.984,59.9a1.532,1.532,0,0,1-.52.1A1.468,1.468,0,0,1,2,58.53a1.532,1.532,0,0,1,.1-.52L6.331,47l4.331,4.331Z" transform="translate(-2 -47)" fill="#ccd1d9"/>
        </g>
        <g id="Grupo_1154887" data-name="Grupo 1154887" transform="translate(37.248 3.465)">
          <path id="Trazado_991361" data-name="Trazado 991361" d="M56.261,14.662l-2.6,2.6L49.331,12.93,45,8.6,47.6,6Z" transform="translate(-45 -6)" fill="#e6e9ed"/>
        </g>
        <g id="Grupo_1154888" data-name="Grupo 1154888" transform="translate(31.332 25.987)">
          <path id="Trazado_991362" data-name="Trazado 991362" d="M49.284,32.91a2.522,2.522,0,0,0,1.559,2.339c.009,0,.026.009.035.009a2.518,2.518,0,0,0,2.763-.537l.65-.65,2.451,2.451-.65.65a2.518,2.518,0,0,0-.537,2.763c0,.009.009.026.009.035A2.522,2.522,0,0,0,57.9,41.529h.91v3.465H57.9a2.522,2.522,0,0,0-2.339,1.559c0,.009-.009.026-.009.035a2.518,2.518,0,0,0,.537,2.763l.65.65-2.451,2.451-.65-.65a2.518,2.518,0,0,0-2.763-.537c-.009,0-.026.009-.035.009a2.522,2.522,0,0,0-1.559,2.339v.91H45.819v-.91a2.522,2.522,0,0,0-1.559-2.339c-.009,0-.026-.009-.035-.009a2.518,2.518,0,0,0-2.763.537l-.65.65L38.62,50.26a1.714,1.714,0,0,0,.269-.936,1.739,1.739,0,0,0-.719-1.4c.84-2.7,2.625-4.461,4.418-6.2a5.359,5.359,0,0,0-.234,1.542,5.2,5.2,0,1,0,5.2-5.2,5.285,5.285,0,0,0-2,.4,10.591,10.591,0,0,0,2-6.462h1.732Z" transform="translate(-38.17 -32)" fill="#ffc729"/>
        </g>
        <g id="Grupo_1154889" data-name="Grupo 1154889" transform="translate(35.516 32.051)">
          <path id="Trazado_991363" data-name="Trazado 991363" d="M48.2,39A5.2,5.2,0,1,1,43,44.2a5.359,5.359,0,0,1,.234-1.542v-.009A24.03,24.03,0,0,0,46.2,39.4a5.285,5.285,0,0,1,2-.4Zm1.732,5.2A1.732,1.732,0,1,0,48.2,45.93,1.738,1.738,0,0,0,49.93,44.2Z" transform="translate(-43 -39)" fill="#fcd770"/>
        </g>
        <g id="Grupo_1154890" data-name="Grupo 1154890" transform="translate(21.656 48.509)">
          <path id="Trazado_991364" data-name="Trazado 991364" d="M31.331,61.465A4.438,4.438,0,0,1,27.026,58.1L27,58h8.662l-.026.1a4.472,4.472,0,0,1-1.577,2.425A4.425,4.425,0,0,1,31.331,61.465Z" transform="translate(-27 -58)" fill="#aab2bd"/>
        </g>
        <g id="Grupo_1154891" data-name="Grupo 1154891" transform="translate(19.923 45.044)">
          <path id="Trazado_991365" data-name="Trazado 991365" d="M35.395,54a1.738,1.738,0,0,1,1.732,1.732,1.745,1.745,0,0,1-1.732,1.732H26.732A1.738,1.738,0,0,1,25,55.732,1.745,1.745,0,0,1,26.732,54Z" transform="translate(-25 -54)" fill="#ccd1d9"/>
        </g>
        <g id="Grupo_1154892" data-name="Grupo 1154892" transform="translate(19.923 41.579)">
          <path id="Trazado_991366" data-name="Trazado 991366" d="M37.127,51.732a1.714,1.714,0,0,1-.269.936,1.923,1.923,0,0,1-.243.286,1.694,1.694,0,0,1-1.221.511H26.732A1.738,1.738,0,0,1,25,51.732a1.694,1.694,0,0,1,.511-1.221,1.045,1.045,0,0,1,.208-.182A1.708,1.708,0,0,1,26.732,50h8.662a1.708,1.708,0,0,1,1.013.329,1.739,1.739,0,0,1,.719,1.4Z" transform="translate(-25 -50)" fill="#ccd1d9"/>
        </g>
        <g id="Grupo_1154893" data-name="Grupo 1154893" transform="translate(11.261 11.261)">
          <path id="Trazado_991367" data-name="Trazado 991367" d="M43.525,24.589a14.689,14.689,0,0,0-3.292-5.18l-.1-.1A14.765,14.765,0,0,0,30.012,15H30a5.929,5.929,0,0,1,.589,2.6,6,6,0,0,1-.321,1.94v.009a3.392,3.392,0,0,1,1.187-.217,3.465,3.465,0,1,1,0,6.93H15.407A14.707,14.707,0,0,0,15,29.726a10.756,10.756,0,0,0,1.1,4.964,14.678,14.678,0,0,0,2.841,3.742c.346.346.693.693,1.048,1.031a17.036,17.036,0,0,1,3.846,4.816,8.349,8.349,0,0,1,.546,1.369,1.708,1.708,0,0,1,1.013-.329h8.662a1.708,1.708,0,0,1,1.013.329c.84-2.7,2.625-4.461,4.418-6.2v-.009a24.031,24.031,0,0,0,2.963-3.248,10.591,10.591,0,0,0,2-6.462,14.607,14.607,0,0,0-.927-5.137Z" transform="translate(-15 -15)" fill="#ffeaa7"/>
        </g>
        <g id="Grupo_1154894" data-name="Grupo 1154894" transform="translate(0 3.465)">
          <path id="Trazado_991368" data-name="Trazado 991368" d="M20.451,10.8a6.063,6.063,0,0,1,7.813,3,5.929,5.929,0,0,1,.589,2.6,6,6,0,0,1-.321,1.94v.009a3.392,3.392,0,0,1,1.187-.217,3.465,3.465,0,1,1,0,6.93H6.331a4.328,4.328,0,0,1-.416-8.636v-.009a7.685,7.685,0,0,1-.45-2.616,7.8,7.8,0,0,1,14.977-3.032Z" transform="translate(-2 -6)" fill="#e6e9ed"/>
        </g>
      </g>
      <g id="Grupo_1154896" data-name="Grupo 1154896" transform="translate(1 1)">
        <path id="Trazado_991369" data-name="Trazado 991369" d="M48.6,47.2A2.6,2.6,0,1,0,46,44.6,2.6,2.6,0,0,0,48.6,47.2Zm0-3.465a.866.866,0,1,1-.866.866A.867.867,0,0,1,48.6,43.732Z" transform="translate(-7.019 -6.484)"/>
        <path id="Trazado_991370" data-name="Trazado 991370" d="M51.38,35.457a1.662,1.662,0,0,1,.354-1.822l1.26-1.261L49.319,28.7l-1.262,1.261a1.672,1.672,0,0,1-1.855.34,1.651,1.651,0,0,1-1.024-1.532v-1.78H43.4a15.346,15.346,0,0,0-.767-4.027L52.658,12.936a6.991,6.991,0,1,0-9.886-9.888L32.758,13.062a15.388,15.388,0,0,0-4.086-.763,6.894,6.894,0,0,0-7.917-3.232A8.645,8.645,0,0,0,4.694,15.083,5.2,5.2,0,0,0,6.2,25.255h6.284a15.707,15.707,0,0,0-.22,2.6,11.893,11.893,0,0,0,.922,4.783L5.455,40.365l-4.3,11.18A2.305,2.305,0,0,0,1,52.379a2.327,2.327,0,0,0,3.163,2.173l11.18-4.3,5.65-5.651a2.532,2.532,0,0,0,.606,2.31,2.576,2.576,0,0,0,1.265,4.236,5.276,5.276,0,0,0,9.979,0,2.6,2.6,0,0,0,1.94-2.5c0-.065-.015-.126-.019-.189L35.84,49.53,37.1,48.269a1.7,1.7,0,0,1,2.878,1.193v1.78h5.2v-1.78a1.7,1.7,0,0,1,2.879-1.193l1.261,1.261,3.676-3.676-1.26-1.261a1.675,1.675,0,0,1-.34-1.855,1.653,1.653,0,0,1,1.532-1.025h1.78v-5.2h-1.78a1.667,1.667,0,0,1-1.546-1.059ZM38.4,38.011a25.851,25.851,0,0,0,2.709-2.955,4.28,4.28,0,0,1,1.47-.273A4.373,4.373,0,1,1,38.4,38.011Zm1.04-20.519,4-4.005,3.106,3.106-4.627,4.627A15.721,15.721,0,0,0,39.441,17.491Zm.9-9.561,1.374-1.374,7.437,7.437-1.374,1.374Zm7.376-5.2a5.259,5.259,0,0,1,3.719,8.978l-1.059,1.059L42.938,5.331,44,4.273a5.227,5.227,0,0,1,3.719-1.54Zm-8.6,6.422,3.106,3.106-4,4a15.7,15.7,0,0,0-3.726-2.487Zm2.6,18.7c0,4.507-2.27,6.721-4.672,9.064A16.941,16.941,0,0,0,32.7,42.631a2.561,2.561,0,0,0-.513-.052H28.719V38.248a2.6,2.6,0,0,0-2.6-2.6H24.388a.866.866,0,0,1,0-1.732h8.662a2.6,2.6,0,0,0,0-5.2h-6.93a.867.867,0,0,1-.866-.866v-2.6h4.331a4.331,4.331,0,1,0,0-8.662c-.024,0-.047.007-.071.007a6.821,6.821,0,0,0,.071-.873,6.939,6.939,0,0,0-.2-1.642,13.934,13.934,0,0,1,12.332,13.77ZM22.656,45.178a.867.867,0,0,1,.866-.866h8.662a.866.866,0,0,1,0,1.732H23.522A.867.867,0,0,1,22.656,45.178Zm-10.9,0,6.368-6.368a15.724,15.724,0,0,1,2.784,3.428L14.86,48.284ZM2.732,20.057a3.465,3.465,0,0,1,6.93,0h1.732a5.2,5.2,0,0,0-4.976-5.186A6.923,6.923,0,0,1,19.164,9.75a6.935,6.935,0,0,0-3.395,5.219,3.464,3.464,0,0,0-2.642,3.356H14.86a1.732,1.732,0,0,1,3.465,0h1.732A3.459,3.459,0,0,0,17.515,15a5.191,5.191,0,1,1,10.148,2.063,4.322,4.322,0,0,0-2.408,3.861h1.732a2.6,2.6,0,1,1,2.6,2.6H6.2A3.468,3.468,0,0,1,2.732,20.057Zm20.79,5.2v2.6a2.6,2.6,0,0,0,2.6,2.6h6.93a.866.866,0,0,1,0,1.732H24.388a2.6,2.6,0,1,0,0,5.2h1.732a.867.867,0,0,1,.866.866v4.331H23.522a2.561,2.561,0,0,0-.513.052,16.941,16.941,0,0,0-4.343-5.714c-2.4-2.343-4.672-4.557-4.672-9.064a13.964,13.964,0,0,1,.267-2.6ZM16.884,37.6l-6.356,6.356L7.422,40.847l6.609-6.609A19.486,19.486,0,0,0,16.884,37.6ZM6.527,42.4,13.3,49.179,7.567,51.386,4.32,48.14ZM3.542,52.934a.6.6,0,0,1-.77-.768l.868-2.257L5.8,52.066Zm24.312.04A3.559,3.559,0,0,1,24.8,51.242h6.105a3.559,3.559,0,0,1-3.053,1.732Zm4.331-3.465H23.522a.866.866,0,1,1,0-1.732h8.662a.866.866,0,0,1,0,1.732Zm20.79-9.529h-.048a3.43,3.43,0,0,0-2.418,5.837l.036.036L49.319,47.08l-.036-.036a3.43,3.43,0,0,0-5.837,2.418v.048H41.713v-.048a3.43,3.43,0,0,0-5.838-2.418l-.036.036-1.174-1.174a2.539,2.539,0,0,0,.118-.729,2.574,2.574,0,0,0-.582-1.619,11.171,11.171,0,0,1,2.367-3.692,6.061,6.061,0,1,0,6.012-6.816c-.085,0-.167.009-.251.012a11.365,11.365,0,0,0,1.091-4.343h.027v.048a3.43,3.43,0,0,0,5.837,2.418l.036-.036,1.227,1.227-.036.036a3.43,3.43,0,0,0,2.418,5.837h.048Z" transform="translate(-1 -1)"/>
      </g>
    </g>
  </g>
</svg>
