<svg xmlns="http://www.w3.org/2000/svg" xmlns:xlink="http://www.w3.org/1999/xlink" width="108" height="108" viewBox="0 0 108 108">
  <defs>
    <filter id="Trazado_982547" x="0" y="0" width="108" height="108" filterUnits="userSpaceOnUse">
      <feOffset dy="3" input="SourceAlpha"/>
      <feGaussianBlur stdDeviation="3" result="blur"/>
      <feFlood flood-opacity="0.161"/>
      <feComposite operator="in" in2="blur"/>
      <feComposite in="SourceGraphic"/>
    </filter>
  </defs>
  <g id="_9" data-name="9" transform="translate(-588 -884)">
    <g id="Grupo_1149836" data-name="Grupo 1149836" transform="translate(0 -3975)">
      <g id="Grupo_1149674" data-name="Grupo 1149674" transform="translate(-158 -2821)">
        <g id="Grupo_1148534" data-name="Grupo 1148534" transform="translate(156 4253)">
          <g id="Grupo_1147066" data-name="Grupo 1147066" transform="translate(-26 -556)">
            <g transform="matrix(1, 0, 0, 1, 616, 3983)" filter="url(#Trazado_982547)">
              <g id="Trazado_982547-2" data-name="Trazado 982547" transform="translate(9 6)" fill="#f6edfd">
                <path d="M 45 88.5 C 39.12687683105469 88.5 33.43022537231445 87.35007476806641 28.06830024719238 85.08217620849609 C 22.88852500915527 82.89131164550781 18.23629951477051 79.75458526611328 14.2408504486084 75.75914764404297 C 10.24541282653809 71.76370239257812 7.108687400817871 67.11147308349609 4.917825222015381 61.93170166015625 C 2.649924993515015 56.56977462768555 1.5 50.87312316894531 1.5 45 C 1.5 39.12687683105469 2.649924993515015 33.43022537231445 4.917825222015381 28.06830024719238 C 7.108687400817871 22.88852500915527 10.24541282653809 18.23629951477051 14.2408504486084 14.2408504486084 C 18.23629951477051 10.24541282653809 22.88852500915527 7.108687400817871 28.06830024719238 4.917825222015381 C 33.43022537231445 2.649924993515015 39.12687683105469 1.5 45 1.5 C 50.87312316894531 1.5 56.56977462768555 2.649924993515015 61.93170166015625 4.917825222015381 C 67.11147308349609 7.108687400817871 71.76370239257812 10.24541282653809 75.75914764404297 14.2408504486084 C 79.75458526611328 18.23629951477051 82.89131164550781 22.88852500915527 85.08217620849609 28.06830024719238 C 87.35007476806641 33.43022537231445 88.5 39.12687683105469 88.5 45 C 88.5 50.87312316894531 87.35007476806641 56.56977462768555 85.08217620849609 61.93170166015625 C 82.89131164550781 67.11147308349609 79.75458526611328 71.76370239257812 75.75914764404297 75.75914764404297 C 71.76370239257812 79.75458526611328 67.11147308349609 82.89131164550781 61.93170166015625 85.08217620849609 C 56.56977462768555 87.35007476806641 50.87312316894531 88.5 45 88.5 Z" stroke="none"/>
                <path d="M 45 3 C 39.32871246337891 3 33.82865524291992 4.110054016113281 28.65262985229492 6.299339294433594 C 23.65165710449219 8.414573669433594 19.15968322753906 11.44334411621094 15.301513671875 15.301513671875 C 11.44334411621094 19.15968322753906 8.414573669433594 23.65165710449219 6.299339294433594 28.65262985229492 C 4.110054016113281 33.82865524291992 3 39.32871246337891 3 45 C 3 50.67128753662109 4.110054016113281 56.17134475708008 6.299339294433594 61.34737396240234 C 8.414573669433594 66.34834289550781 11.44334411621094 70.84031677246094 15.301513671875 74.698486328125 C 19.15968322753906 78.55665588378906 23.65165710449219 81.58542633056641 28.65262985229492 83.70066070556641 C 33.82865524291992 85.88994598388672 39.32871246337891 87 45 87 C 50.67128753662109 87 56.17134475708008 85.88994598388672 61.34737396240234 83.70066070556641 C 66.34834289550781 81.58542633056641 70.84031677246094 78.55665588378906 74.698486328125 74.698486328125 C 78.55665588378906 70.84031677246094 81.58542633056641 66.34834289550781 83.70066070556641 61.34737396240234 C 85.88994598388672 56.17134475708008 87 50.67128753662109 87 45 C 87 39.32871246337891 85.88994598388672 33.82865524291992 83.70066070556641 28.65262985229492 C 81.58542633056641 23.65165710449219 78.55665588378906 19.15968322753906 74.698486328125 15.301513671875 C 70.84031677246094 11.44334411621094 66.34834289550781 8.414573669433594 61.34737396240234 6.299339294433594 C 56.17134475708008 4.110054016113281 50.67128753662109 3 45 3 M 45 0 C 69.85281372070312 0 90 20.14718627929688 90 45 C 90 69.85281372070312 69.85281372070312 90 45 90 C 20.14718627929688 90 0 69.85281372070312 0 45 C 0 20.14718627929688 20.14718627929688 0 45 0 Z" stroke="none" fill="#ac59f1"/>
              </g>
            </g>
          </g>
        </g>
      </g>
    </g>
    <g id="analizando_1_" data-name="analizando (1)" transform="translate(613.505 907)">
      <g id="Grupo_1154902" data-name="Grupo 1154902" transform="translate(1.324 0.829)">
        <path id="Trazado_991398" data-name="Trazado 991398" d="M7.995,138.619h8.8v20.773h-8.8Z" transform="translate(-7.995 -124.129)" fill="#99e6fc" fill-rule="evenodd"/>
        <path id="Trazado_991399" data-name="Trazado 991399" d="M121.426,101.618h8.8V126.48h-8.8Z" transform="translate(-108.891 -91.217)" fill="#ffd15b" fill-rule="evenodd"/>
        <path id="Trazado_991400" data-name="Trazado 991400" d="M234.886,7.5h8.8V42.763h-8.8Z" transform="translate(-209.813 -7.5)" fill="#9be69d" fill-rule="evenodd"/>
        <path id="Trazado_991401" data-name="Trazado 991401" d="M351.848,82.6h8.8v26.964h-8.8Z" transform="translate(-313.849 -74.299)" fill="#fd4755" fill-rule="evenodd"/>
        <path id="Trazado_991402" data-name="Trazado 991402" d="M67.17,138.619h2.258v20.773H67.17Z" transform="translate(-60.631 -124.129)" fill="#62dbfb" fill-rule="evenodd"/>
        <path id="Trazado_991403" data-name="Trazado 991403" d="M180.6,101.618h2.261V126.48H180.6Z" transform="translate(-161.527 -91.217)" fill="#ffc344" fill-rule="evenodd"/>
        <path id="Trazado_991404" data-name="Trazado 991404" d="M294.061,7.5V33.3a9.124,9.124,0,0,1,2.261-3.457V7.5Z" transform="translate(-262.448 -7.5)" fill="#6fd7a3" fill-rule="evenodd"/>
        <path id="Trazado_991405" data-name="Trazado 991405" d="M411.023,82.6V95.11a9.178,9.178,0,0,1,2.261,1.652V82.6Z" transform="translate(-366.485 -74.299)" fill="#e94444" fill-rule="evenodd"/>
        <path id="Trazado_991406" data-name="Trazado 991406" d="M38,373.6v4.012a.478.478,0,0,0,.48.478h4.026a.48.48,0,0,0,.48-.478V373.6a.48.48,0,0,0-.48-.478H38.482A.478.478,0,0,0,38,373.6Z" transform="translate(-34.686 -332.717)" fill="#6fd7a3" fill-rule="evenodd"/>
        <path id="Trazado_991407" data-name="Trazado 991407" d="M38,460.012v4.012a.478.478,0,0,0,.48.478h4.026a.48.48,0,0,0,.48-.478v-4.012a.48.48,0,0,0-.48-.478H38.482A.478.478,0,0,0,38,460.012Z" transform="translate(-34.686 -409.581)" fill="#99e6fc" fill-rule="evenodd"/>
        <path id="Trazado_991408" data-name="Trazado 991408" d="M221.46,373.6v4.012a.48.48,0,0,0,.48.478h4.026a.48.48,0,0,0,.48-.478V373.6a.48.48,0,0,0-.48-.478H221.94A.48.48,0,0,0,221.46,373.6Z" transform="translate(-197.87 -332.717)" fill="#fd4755" fill-rule="evenodd"/>
        <path id="Trazado_991409" data-name="Trazado 991409" d="M221.46,460.012v4.012a.48.48,0,0,0,.48.478h4.026a.48.48,0,0,0,.48-.478v-4.012a.48.48,0,0,0-.48-.478H221.94A.48.48,0,0,0,221.46,460.012Z" transform="translate(-197.87 -409.581)" fill="#ffd15b" fill-rule="evenodd"/>
        <path id="Trazado_991410" data-name="Trazado 991410" d="M292.683,188.215a9.213,9.213,0,1,1-1.938,12.873A9.244,9.244,0,0,1,292.683,188.215Z" transform="translate(-257.892 -166.642)" fill="#3c87d0" fill-rule="evenodd"/>
        <path id="Trazado_991411" data-name="Trazado 991411" d="M431.628,356.817a2.746,2.746,0,0,0-.579,3.837l2.625,3.543a2.748,2.748,0,0,0,4.426-3.26l-2.625-3.543A2.763,2.763,0,0,0,431.628,356.817Z" transform="translate(-383.822 -317.74)" fill="#d77f4a" fill-rule="evenodd"/>
        <path id="Trazado_991412" data-name="Trazado 991412" d="M437.6,358.5l2.625,3.544a2.754,2.754,0,0,1,.09,3.132,2.8,2.8,0,0,0,.8-.405,2.749,2.749,0,0,0,.579-3.837l-2.625-3.543a2.762,2.762,0,0,0-3.847-.577,2.791,2.791,0,0,0-.668.7A2.766,2.766,0,0,1,437.6,358.5Z" transform="translate(-387.41 -317.74)" fill="#c86d36" fill-rule="evenodd"/>
        <path id="Trazado_991413" data-name="Trazado 991413" d="M323.9,220.107a5.608,5.608,0,1,1-1.18,7.836A5.63,5.63,0,0,1,323.9,220.107Z" transform="translate(-286.963 -195.638)" fill="#99e6fc" fill-rule="evenodd"/>
        <path id="Trazado_991414" data-name="Trazado 991414" d="M353.926,223.92a5.584,5.584,0,0,1-2.28,4.516l-.09.067a5.592,5.592,0,0,1-3.239,1.03,5.629,5.629,0,0,0,6.005-.424c.153-.115.3-.233.438-.36a5.6,5.6,0,0,0-3.783-9.75,5.6,5.6,0,0,1,2.948,4.921Z" transform="translate(-310.709 -195.627)" fill="#62dbfb" fill-rule="evenodd"/>
        <path id="Trazado_991415" data-name="Trazado 991415" d="M355.759,189.757a9.192,9.192,0,0,1-1.1,12.177,9.889,9.889,0,0,1-.838.7,9.194,9.194,0,0,1-5.529,1.8,9.3,9.3,0,0,0,2.507.389,9.2,9.2,0,0,0,5.625-1.783.144.144,0,0,0,.022-.016A9.2,9.2,0,0,0,351,186.414,9.176,9.176,0,0,1,355.759,189.757Z" transform="translate(-310.684 -166.643)" fill="#4f66d0" fill-rule="evenodd"/>
      </g>
      <g id="Grupo_1154903" data-name="Grupo 1154903" transform="translate(0.495)">
        <path id="Trazado_991416" data-name="Trazado 991416" d="M112.5,489.352H108.36a.829.829,0,0,0,0,1.658H112.5a.829.829,0,0,0,0-1.658Z" transform="translate(-95.703 -435.275)"/>
        <path id="Trazado_991417" data-name="Trazado 991417" d="M316.729,212.8h0a6.442,6.442,0,1,0,9.015,1.35A6.47,6.47,0,0,0,316.729,212.8Zm8.565,5.882a4.743,4.743,0,0,1-1.888,3.131,4.809,4.809,0,0,1-6.7-1,4.768,4.768,0,0,1,1.005-6.677,4.809,4.809,0,0,1,6.7,1A4.739,4.739,0,0,1,325.293,218.684Z" transform="translate(-279.454 -188.171)"/>
        <path id="Trazado_991418" data-name="Trazado 991418" d="M258.086,43.533l-2.625-3.543a3.589,3.589,0,0,0-4.342-1.137l-1.1-1.483a10.012,10.012,0,0,0,1.485-13.529,10.082,10.082,0,0,0-.736-.88V9.128a.829.829,0,0,0-.829-.829h-8.8a.829.829,0,0,0-.829.829V20.265a10,10,0,0,0-2.467,1.189V.829A.829.829,0,0,0,237.016,0h-8.8a.829.829,0,0,0-.829.829V16.371a.829.829,0,0,0,1.658,0V1.658h7.142V22.832a10.011,10.011,0,0,0-1.206,12.431h-5.936V20.269a.829.829,0,0,0-1.658,0V36.092a.829.829,0,0,0,.829.829h8.111a10.094,10.094,0,0,0,12.358,1.432l1.119,1.509a3.58,3.58,0,0,0-.1,4.376l2.625,3.544a3.577,3.577,0,0,0,6.415-1.6A3.538,3.538,0,0,0,258.086,43.533ZM241.97,9.957h7.142V21.537a10.129,10.129,0,0,0-7.142-1.658Zm6.44,26.584a8.426,8.426,0,0,1-11.748-1.759,8.375,8.375,0,0,1,6.746-13.349,8.4,8.4,0,0,1,6.766,3.4,8.36,8.36,0,0,1-1.763,11.712Zm8.694,9.4a1.9,1.9,0,0,1-.754,1.259,1.931,1.931,0,0,1-2.69-.4l-2.625-3.544a1.917,1.917,0,0,1,.4-2.676,1.929,1.929,0,0,1,2.69.4l2.625,3.544a1.891,1.891,0,0,1,.35,1.417Z" transform="translate(-202.314)"/>
        <path id="Trazado_991419" data-name="Trazado 991419" d="M10.121,131.119h-8.8a.829.829,0,0,0-.829.829v8.816a.829.829,0,0,0,1.658,0v-7.987H9.292v19.115H2.153v-7.231a.829.829,0,1,0-1.658,0v8.06a.829.829,0,0,0,.829.829h8.8a.829.829,0,0,0,.829-.829V131.948A.829.829,0,0,0,10.121,131.119Z" transform="translate(-0.495 -116.629)"/>
        <path id="Trazado_991420" data-name="Trazado 991420" d="M123.555,94.118h-8.8a.829.829,0,0,0-.829.829v24.862a.829.829,0,0,0,.829.829h8.8a.829.829,0,0,0,.829-.829V94.947A.829.829,0,0,0,123.555,94.118Zm-.829,24.862h-7.142v-23.2h7.142Z" transform="translate(-101.391 -83.717)"/>
        <path id="Trazado_991421" data-name="Trazado 991421" d="M112.5,373.991H108.36a.829.829,0,0,0,0,1.658H112.5a.829.829,0,0,0,0-1.658Z" transform="translate(-95.703 -332.662)"/>
        <path id="Trazado_991422" data-name="Trazado 991422" d="M112.5,402.939H108.36a.829.829,0,0,0,0,1.658H112.5a.829.829,0,0,0,0-1.658Z" transform="translate(-95.703 -358.411)"/>
        <path id="Trazado_991423" data-name="Trazado 991423" d="M35.836,365.621H31.81a1.309,1.309,0,0,0-1.309,1.307v4.012a1.309,1.309,0,0,0,1.309,1.307h4.026a1.309,1.309,0,0,0,1.308-1.307v-4.012A1.309,1.309,0,0,0,35.836,365.621Zm-.349,4.969H32.159v-3.312h3.328Z" transform="translate(-27.185 -325.217)"/>
        <path id="Trazado_991424" data-name="Trazado 991424" d="M112.5,460.4H108.36a.829.829,0,0,0,0,1.658H112.5a.829.829,0,0,0,0-1.658Z" transform="translate(-95.703 -409.525)"/>
        <path id="Trazado_991425" data-name="Trazado 991425" d="M295.956,373.991h-4.138a.829.829,0,1,0,0,1.658h4.138a.829.829,0,0,0,0-1.658Z" transform="translate(-258.887 -332.662)"/>
        <path id="Trazado_991426" data-name="Trazado 991426" d="M295.956,402.939h-4.138a.829.829,0,0,0,0,1.658h4.138a.829.829,0,0,0,0-1.658Z" transform="translate(-258.887 -358.411)"/>
        <path id="Trazado_991427" data-name="Trazado 991427" d="M295.956,460.4h-4.138a.829.829,0,1,0,0,1.658h4.138a.829.829,0,0,0,0-1.658Z" transform="translate(-258.887 -409.525)"/>
        <path id="Trazado_991428" data-name="Trazado 991428" d="M295.956,489.352h-4.138a.829.829,0,1,0,0,1.658h4.138a.829.829,0,0,0,0-1.658Z" transform="translate(-258.887 -435.275)"/>
        <path id="Trazado_991429" data-name="Trazado 991429" d="M35.836,452.033H31.81A1.309,1.309,0,0,0,30.5,453.34v4.012a1.309,1.309,0,0,0,1.309,1.307h4.026a1.309,1.309,0,0,0,1.308-1.307V453.34A1.309,1.309,0,0,0,35.836,452.033ZM35.486,457H32.159v-3.312h3.328Z" transform="translate(-27.185 -402.08)"/>
        <path id="Trazado_991430" data-name="Trazado 991430" d="M219.294,365.621h-4.026a1.309,1.309,0,0,0-1.308,1.307v4.012a1.309,1.309,0,0,0,1.308,1.307h4.026a1.309,1.309,0,0,0,1.309-1.307v-4.012A1.309,1.309,0,0,0,219.294,365.621Zm-.349,4.969h-3.328v-3.312h3.328Z" transform="translate(-190.37 -325.217)"/>
        <path id="Trazado_991431" data-name="Trazado 991431" d="M219.294,452.033h-4.026a1.309,1.309,0,0,0-1.308,1.307v4.012a1.309,1.309,0,0,0,1.308,1.307h4.026a1.309,1.309,0,0,0,1.309-1.307V453.34A1.309,1.309,0,0,0,219.294,452.033ZM218.945,457h-3.328v-3.312h3.328Z" transform="translate(-190.37 -402.08)"/>
      </g>
    </g>
  </g>
</svg>
